<svg xmlns="http://www.w3.org/2000/svg" xmlns:xlink="http://www.w3.org/1999/xlink" version="1.1" class="marks" width="376" height="373" viewBox="0 0 376 373"><rect width="376" height="373" fill="white"/><g fill="none" stroke-miterlimit="10" transform="translate(67,9)"><g class="mark-group role-frame root" role="graphics-object" aria-roledescription="group mark container"><g transform="translate(0,0)"><path class="background" aria-hidden="true" d="M0.5,0.5h300v300h-300Z" stroke="#ddd"/><g><g class="mark-group role-axis" aria-hidden="true"><g transform="translate(0.5,300.5)"><path class="background" aria-hidden="true" d="M0,0h0v0h0Z" pointer-events="none"/><g><g class="mark-rule role-axis-grid" pointer-events="none"><line transform="translate(46,-300)" x2="0" y2="300" stroke="#ddd" stroke-width="1" opacity="1"/><line transform="translate(92,-300)" x2="0" y2="300" stroke="#ddd" stroke-width="1" opacity="1"/><line transform="translate(138,-300)" x2="0" y2="300" stroke="#ddd" stroke-width="1" opacity="1"/><line transform="translate(185,-300)" x2="0" y2="300" stroke="#ddd" stroke-width="1" opacity="1"/><line transform="translate(231,-300)" x2="0" y2="300" stroke="#ddd" stroke-width="1" opacity="1"/><line transform="translate(277,-300)" x2="0" y2="300" stroke="#ddd" stroke-width="1" opacity="1"/></g></g><path class="foreground" aria-hidden="true" d="" pointer-events="none" display="none"/></g></g><g class="mark-group role-axis" aria-hidden="true"><g transform="translate(0.5,0.5)"><path class="background" aria-hidden="true" d="M0,0h0v0h0Z" pointer-events="none"/><g><g class="mark-rule role-axis-grid" pointer-events="none"><line transform="translate(0,254)" x2="300" y2="0" stroke="#ddd" stroke-width="1" opacity="1"/><line transform="translate(0,208)" x2="300" y2="0" stroke="#ddd" stroke-width="1" opacity="1"/><line transform="translate(0,162)" x2="300" y2="0" stroke="#ddd" stroke-width="1" opacity="1"/><line transform="translate(0,115)" x2="300" y2="0" stroke="#ddd" stroke-width="1" opacity="1"/><line transform="translate(0,69)" x2="300" y2="0" stroke="#ddd" stroke-width="1" opacity="1"/><line transform="translate(0,23)" x2="300" y2="0" stroke="#ddd" stroke-width="1" opacity="1"/></g></g><path class="foreground" aria-hidden="true" d="" pointer-events="none" display="none"/></g></g><g class="mark-group role-axis" role="graphics-symbol" aria-roledescription="axis" aria-label="X-axis titled 'Using all samples' for a linear scale with values from 0 to 65"><g transform="translate(0.5,300.5)"><path class="background" aria-hidden="true" d="M0,0h0v0h0Z" pointer-events="none"/><g><g class="mark-rule role-axis-tick" pointer-events="none"><line transform="translate(46,0)" x2="0" y2="5" stroke="#888" stroke-width="1" opacity="1"/><line transform="translate(92,0)" x2="0" y2="5" stroke="#888" stroke-width="1" opacity="1"/><line transform="translate(138,0)" x2="0" y2="5" stroke="#888" stroke-width="1" opacity="1"/><line transform="translate(185,0)" x2="0" y2="5" stroke="#888" stroke-width="1" opacity="1"/><line transform="translate(231,0)" x2="0" y2="5" stroke="#888" stroke-width="1" opacity="1"/><line transform="translate(277,0)" x2="0" y2="5" stroke="#888" stroke-width="1" opacity="1"/></g><g class="mark-text role-axis-label" pointer-events="none"><text text-anchor="middle" transform="translate(46.12441507937334,26)" font-family="sans-serif" font-size="24px" fill="#000" opacity="1">10</text><text text-anchor="middle" transform="translate(92.26405114862351,26)" font-family="sans-serif" font-size="24px" fill="#000" opacity="1">20</text><text text-anchor="middle" transform="translate(138.40368721787368,26)" font-family="sans-serif" font-size="24px" fill="#000" opacity="1">30</text><text text-anchor="middle" transform="translate(184.54332328712385,26)" font-family="sans-serif" font-size="24px" fill="#000" opacity="1">40</text><text text-anchor="middle" transform="translate(230.68295935637403,26)" font-family="sans-serif" font-size="24px" fill="#000" opacity="1">50</text><text text-anchor="middle" transform="translate(276.8225954256242,26)" font-family="sans-serif" font-size="24px" fill="#000" opacity="1">60</text></g><g class="mark-rule role-axis-domain" pointer-events="none"><line transform="translate(0,0)" x2="300" y2="0" stroke="#888" stroke-width="1" opacity="1"/></g><g class="mark-text role-axis-title" pointer-events="none"><text text-anchor="middle" transform="translate(150,54)" font-family="sans-serif" font-size="24px" font-weight="bold" fill="#000" opacity="1">Using all samples</text></g></g><path class="foreground" aria-hidden="true" d="" pointer-events="none" display="none"/></g></g><g class="mark-group role-axis" role="graphics-symbol" aria-roledescription="axis" aria-label="Y-axis titled 'Using the mean' for a linear scale with values from 0 to 65"><g transform="translate(0.5,0.5)"><path class="background" aria-hidden="true" d="M0,0h0v0h0Z" pointer-events="none"/><g><g class="mark-rule role-axis-tick" pointer-events="none"><line transform="translate(0,254)" x2="-5" y2="0" stroke="#888" stroke-width="1" opacity="1"/><line transform="translate(0,208)" x2="-5" y2="0" stroke="#888" stroke-width="1" opacity="1"/><line transform="translate(0,162)" x2="-5" y2="0" stroke="#888" stroke-width="1" opacity="1"/><line transform="translate(0,115)" x2="-5" y2="0" stroke="#888" stroke-width="1" opacity="1"/><line transform="translate(0,69)" x2="-5" y2="0" stroke="#888" stroke-width="1" opacity="1"/><line transform="translate(0,23)" x2="-5" y2="0" stroke="#888" stroke-width="1" opacity="1"/></g><g class="mark-text role-axis-label" pointer-events="none"><text text-anchor="end" transform="translate(-7,260.8755849206267)" font-family="sans-serif" font-size="24px" fill="#000" opacity="1">10</text><text text-anchor="end" transform="translate(-7,214.73594885137646)" font-family="sans-serif" font-size="24px" fill="#000" opacity="1">20</text><text text-anchor="end" transform="translate(-7,168.59631278212632)" font-family="sans-serif" font-size="24px" fill="#000" opacity="1">30</text><text text-anchor="end" transform="translate(-7,122.45667671287615)" font-family="sans-serif" font-size="24px" fill="#000" opacity="1">40</text><text text-anchor="end" transform="translate(-7,76.31704064362597)" font-family="sans-serif" font-size="24px" fill="#000" opacity="1">50</text><text text-anchor="end" transform="translate(-7,30.177404574375828)" font-family="sans-serif" font-size="24px" fill="#000" opacity="1">60</text></g><g class="mark-rule role-axis-domain" pointer-events="none"><line transform="translate(0,300)" x2="0" y2="-300" stroke="#888" stroke-width="1" opacity="1"/></g><g class="mark-text role-axis-title" pointer-events="none"><text text-anchor="middle" transform="translate(-37.6953125,150) rotate(-90) translate(0,-5)" font-family="sans-serif" font-size="24px" font-weight="bold" fill="#000" opacity="1">Using the mean</text></g></g><path class="foreground" aria-hidden="true" d="" pointer-events="none" display="none"/></g></g><g class="mark-rule role-mark layer_0_marks" role="graphics-symbol" aria-roledescription="rule mark container"><line transform="translate(0,300)" x2="300" y2="-300" stroke="black" stroke-dasharray="8,8"/></g><g class="mark-symbol role-mark layer_1_marks" role="graphics-object" aria-roledescription="symbol mark container"><path aria-label="all_draws: 21.1556364033; mean: 21.1572883189" role="graphics-symbol" aria-roledescription="circle" transform="translate(97.59611545634861,202.3962626652332)" d="M3.873,0A3.873,3.873,0,1,1,-3.873,0A3.873,3.873,0,1,1,3.873,0" fill="#4c78a8" stroke-width="2" opacity="0.7"/><path aria-label="all_draws: 65.0233175961; mean: 65.0199994163" role="graphics-symbol" aria-roledescription="circle" transform="translate(300,0.015309961008325157)" d="M3.873,0A3.873,3.873,0,1,1,-3.873,0A3.873,3.873,0,1,1,3.873,0" fill="#4c78a8" stroke-width="2" opacity="0.7"/><path aria-label="all_draws: 17.39252111; mean: 17.3942458112" role="graphics-symbol" aria-roledescription="circle" transform="translate(80.23323844452595,219.75880384725016)" d="M3.873,0A3.873,3.873,0,1,1,-3.873,0A3.873,3.873,0,1,1,3.873,0" fill="#4c78a8" stroke-width="2" opacity="0.7"/><path aria-label="all_draws: 12.8613737023; mean: 12.8592503772" role="graphics-symbol" aria-roledescription="circle" transform="translate(59.32668920759879,240.68310773701407)" d="M3.873,0A3.873,3.873,0,1,1,-3.873,0A3.873,3.873,0,1,1,3.873,0" fill="#4c78a8" stroke-width="2" opacity="0.7"/><path aria-label="all_draws: 34.4693382319; mean: 34.4639644733" role="graphics-symbol" aria-roledescription="circle" transform="translate(159.02505116706587,140.99974315979446)" d="M3.873,0A3.873,3.873,0,1,1,-3.873,0A3.873,3.873,0,1,1,3.873,0" fill="#4c78a8" stroke-width="2" opacity="0.7"/><path aria-label="all_draws: 11.5899519701; mean: 11.5878204859" role="graphics-symbol" aria-roledescription="circle" transform="translate(53.460395606380246,246.5494389844267)" d="M3.873,0A3.873,3.873,0,1,1,-3.873,0A3.873,3.873,0,1,1,3.873,0" fill="#4c78a8" stroke-width="2" opacity="0.7"/><path aria-label="all_draws: 6.88448897196; mean: 6.88505413461" role="graphics-symbol" aria-roledescription="circle" transform="translate(31.74956057904376,268.24783178107026)" d="M3.873,0A3.873,3.873,0,1,1,-3.873,0A3.873,3.873,0,1,1,3.873,0" fill="#4c78a8" stroke-width="2" opacity="0.7"/><path aria-label="all_draws: 24.32325922; mean: 24.3213043131" role="graphics-symbol" aria-roledescription="circle" transform="translate(112.21141185284108,187.79760801641976)" d="M3.873,0A3.873,3.873,0,1,1,-3.873,0A3.873,3.873,0,1,1,3.873,0" fill="#4c78a8" stroke-width="2" opacity="0.7"/><path aria-label="all_draws: 4.39007416243; mean: 4.39089842739" role="graphics-symbol" aria-roledescription="circle" transform="translate(20.240421427296354,279.75577544417825)" d="M3.873,0A3.873,3.873,0,1,1,-3.873,0A3.873,3.873,0,1,1,3.873,0" fill="#4c78a8" stroke-width="2" opacity="0.7"/><path aria-label="all_draws: 0.184603628379; mean: 0.185565662655" role="graphics-symbol" aria-roledescription="circle" transform="translate(0.8365334331714057,299.1590277756911)" d="M3.873,0A3.873,3.873,0,1,1,-3.873,0A3.873,3.873,0,1,1,3.873,0" fill="#4c78a8" stroke-width="2" opacity="0.7"/><path aria-label="all_draws: 0.157905016973; mean: 0.159198443516" role="graphics-symbol" aria-roledescription="circle" transform="translate(0.7133470117873999,299.280685165215)" d="M3.873,0A3.873,3.873,0,1,1,-3.873,0A3.873,3.873,0,1,1,3.873,0" fill="#4c78a8" stroke-width="2" opacity="0.7"/><path aria-label="all_draws: 0.216996786596; mean: 0.21790835082" role="graphics-symbol" aria-roledescription="circle" transform="translate(0.9859942862984046,299.0097997895477)" d="M3.873,0A3.873,3.873,0,1,1,-3.873,0A3.873,3.873,0,1,1,3.873,0" fill="#4c78a8" stroke-width="2" opacity="0.7"/><path aria-label="all_draws: 0.20591230025; mean: 0.206428951187" role="graphics-symbol" aria-roledescription="circle" transform="translate(0.934850869696843,299.0627653216848)" d="M3.873,0A3.873,3.873,0,1,1,-3.873,0A3.873,3.873,0,1,1,3.873,0" fill="#4c78a8" stroke-width="2" opacity="0.7"/><path aria-label="all_draws: 1.5034409393; mean: 1.50451443878" role="graphics-symbol" aria-roledescription="circle" transform="translate(6.921600789194674,293.0734461232403)" d="M3.873,0A3.873,3.873,0,1,1,-3.873,0A3.873,3.873,0,1,1,3.873,0" fill="#4c78a8" stroke-width="2" opacity="0.7"/><path aria-label="all_draws: 0.121271070595; mean: 0.121575864846" role="graphics-symbol" aria-roledescription="circle" transform="translate(0.5443193164205163,299.45427437399803)" d="M3.873,0A3.873,3.873,0,1,1,-3.873,0A3.873,3.873,0,1,1,3.873,0" fill="#4c78a8" stroke-width="2" opacity="0.7"/><path aria-label="all_draws: 1.01925720627; mean: 1.02101347703" role="graphics-symbol" aria-roledescription="circle" transform="translate(4.687594665957291,295.3043019646679)" d="M3.873,0A3.873,3.873,0,1,1,-3.873,0A3.873,3.873,0,1,1,3.873,0" fill="#4c78a8" stroke-width="2" opacity="0.7"/><path aria-label="all_draws: 4.56937639757; mean: 4.57101743132" role="graphics-symbol" aria-roledescription="circle" transform="translate(21.06771541487173,278.9247129151417)" d="M3.873,0A3.873,3.873,0,1,1,-3.873,0A3.873,3.873,0,1,1,3.873,0" fill="#4c78a8" stroke-width="2" opacity="0.7"/><path aria-label="all_draws: 1.07423000807; mean: 1.0759654385" role="graphics-symbol" aria-roledescription="circle" transform="translate(4.941237172809059,295.0507556143308)" d="M3.873,0A3.873,3.873,0,1,1,-3.873,0A3.873,3.873,0,1,1,3.873,0" fill="#4c78a8" stroke-width="2" opacity="0.7"/><path aria-label="all_draws: 0.649591935636; mean: 0.649630510538" role="graphics-symbol" aria-roledescription="circle" transform="translate(2.9819725604986074,297.01784945630845)" d="M3.873,0A3.873,3.873,0,1,1,-3.873,0A3.873,3.873,0,1,1,3.873,0" fill="#4c78a8" stroke-width="2" opacity="0.7"/><path aria-label="all_draws: 2.37011572426; mean: 2.37001372951" role="graphics-symbol" aria-roledescription="circle" transform="translate(10.920406706076992,289.0800638940192)" d="M3.873,0A3.873,3.873,0,1,1,-3.873,0A3.873,3.873,0,1,1,3.873,0" fill="#4c78a8" stroke-width="2" opacity="0.7"/><path aria-label="all_draws: 0.482576312991; mean: 0.482638358325" role="graphics-symbol" aria-roledescription="circle" transform="translate(2.2113685558281833,297.78834516925866)" d="M3.873,0A3.873,3.873,0,1,1,-3.873,0A3.873,3.873,0,1,1,3.873,0" fill="#4c78a8" stroke-width="2" opacity="0.7"/><path aria-label="all_draws: 0.211656927475; mean: 0.21159777987" role="graphics-symbol" aria-roledescription="circle" transform="translate(0.9613563706454895,299.03891653425137)" d="M3.873,0A3.873,3.873,0,1,1,-3.873,0A3.873,3.873,0,1,1,3.873,0" fill="#4c78a8" stroke-width="2" opacity="0.7"/><path aria-label="all_draws: 0.614875319683; mean: 0.614638364083" role="graphics-symbol" aria-roledescription="circle" transform="translate(2.82179135793906,297.17930194657845)" d="M3.873,0A3.873,3.873,0,1,1,-3.873,0A3.873,3.873,0,1,1,3.873,0" fill="#4c78a8" stroke-width="2" opacity="0.7"/><path aria-label="all_draws: 0.206919482606; mean: 0.206835179445" role="graphics-symbol" aria-roledescription="circle" transform="translate(0.9394979724291894,299.06089099928596)" d="M3.873,0A3.873,3.873,0,1,1,-3.873,0A3.873,3.873,0,1,1,3.873,0" fill="#4c78a8" stroke-width="2" opacity="0.7"/><path aria-label="all_draws: 0.395379230804; mean: 0.395411602394" role="graphics-symbol" aria-roledescription="circle" transform="translate(1.80904439198782,298.1908062466732)" d="M3.873,0A3.873,3.873,0,1,1,-3.873,0A3.873,3.873,0,1,1,3.873,0" fill="#4c78a8" stroke-width="2" opacity="0.7"/><path aria-label="all_draws: 1.54158726458; mean: 1.541651233" role="graphics-symbol" aria-roledescription="circle" transform="translate(7.097606545776696,292.90209830625685)" d="M3.873,0A3.873,3.873,0,1,1,-3.873,0A3.873,3.873,0,1,1,3.873,0" fill="#4c78a8" stroke-width="2" opacity="0.7"/><path aria-label="all_draws: 0.236828498453; mean: 0.236981052049" role="graphics-symbol" aria-roledescription="circle" transform="translate(1.077497083070162,298.9217990401917)" d="M3.873,0A3.873,3.873,0,1,1,-3.873,0A3.873,3.873,0,1,1,3.873,0" fill="#4c78a8" stroke-width="2" opacity="0.7"/><path aria-label="all_draws: 0.00329889682137; mean: 0.00331211529144" role="graphics-symbol" aria-roledescription="circle" transform="translate(0,299.9999390104602)" d="M3.873,0A3.873,3.873,0,1,1,-3.873,0A3.873,3.873,0,1,1,3.873,0" fill="#4c78a8" stroke-width="2" opacity="0.7"/><path aria-label="all_draws: 0.00377841433302; mean: 0.00380116659539" role="graphics-symbol" aria-roledescription="circle" transform="translate(0.0022124763476196454,299.9976825455418)" d="M3.873,0A3.873,3.873,0,1,1,-3.873,0A3.873,3.873,0,1,1,3.873,0" fill="#4c78a8" stroke-width="2" opacity="0.7"/><path aria-label="all_draws: 0.00380333698917; mean: 0.00379436453752" role="graphics-symbol" aria-roledescription="circle" transform="translate(0.002327468576100583,299.9977139299893)" d="M3.873,0A3.873,3.873,0,1,1,-3.873,0A3.873,3.873,0,1,1,3.873,0" fill="#4c78a8" stroke-width="2" opacity="0.7"/><path aria-label="all_draws: 0.00547259075435; mean: 0.00547414186811" role="graphics-symbol" aria-roledescription="circle" transform="translate(0.010029344699336525,299.9899634985182)" d="M3.873,0A3.873,3.873,0,1,1,-3.873,0A3.873,3.873,0,1,1,3.873,0" fill="#4c78a8" stroke-width="2" opacity="0.7"/><path aria-label="all_draws: 0.045029051101; mean: 0.0450389414535" role="graphics-symbol" aria-roledescription="circle" transform="translate(0.19254141315761744,299.80741295311606)" d="M3.873,0A3.873,3.873,0,1,1,-3.873,0A3.873,3.873,0,1,1,3.873,0" fill="#4c78a8" stroke-width="2" opacity="0.7"/><path aria-label="all_draws: 0.00354818153114; mean: 0.00354971492614" role="graphics-symbol" aria-roledescription="circle" transform="translate(0.001150190578625449,299.99884273439267)" d="M3.873,0A3.873,3.873,0,1,1,-3.873,0A3.873,3.873,0,1,1,3.873,0" fill="#4c78a8" stroke-width="2" opacity="0.7"/><path aria-label="all_draws: 0.0337827030475; mean: 0.0338357377167" role="graphics-symbol" aria-roledescription="circle" transform="translate(0.14065117252793902,299.85910412743874)" d="M3.873,0A3.873,3.873,0,1,1,-3.873,0A3.873,3.873,0,1,1,3.873,0" fill="#4c78a8" stroke-width="2" opacity="0.7"/><path aria-label="all_draws: 0.164845435674; mean: 0.164883781845" role="graphics-symbol" aria-roledescription="circle" transform="translate(0.7453698510914548,299.2544532210729)" d="M3.873,0A3.873,3.873,0,1,1,-3.873,0A3.873,3.873,0,1,1,3.873,0" fill="#4c78a8" stroke-width="2" opacity="0.7"/><path aria-label="all_draws: 0.0314786705257; mean: 0.0314774660842" role="graphics-symbol" aria-roledescription="circle" transform="translate(0.13002045032291873,299.86998510692604)" d="M3.873,0A3.873,3.873,0,1,1,-3.873,0A3.873,3.873,0,1,1,3.873,0" fill="#4c78a8" stroke-width="2" opacity="0.7"/><path aria-label="all_draws: 8.66542685216; mean: 8.66665731256" role="graphics-symbol" aria-roledescription="circle" transform="translate(39.96674314448131,260.0275795560507)" d="M3.873,0A3.873,3.873,0,1,1,-3.873,0A3.873,3.873,0,1,1,3.873,0" fill="#4c78a8" stroke-width="2" opacity="0.7"/><path aria-label="all_draws: 26.7936380484; mean: 26.7905639336" role="graphics-symbol" aria-roledescription="circle" transform="translate(123.60964986246304,176.40453399116168)" d="M3.873,0A3.873,3.873,0,1,1,-3.873,0A3.873,3.873,0,1,1,3.873,0" fill="#4c78a8" stroke-width="2" opacity="0.7"/><path aria-label="all_draws: 7.41289177166; mean: 7.41475614471" role="graphics-symbol" aria-roledescription="circle" transform="translate(34.18759186665466,265.803805983942)" d="M3.873,0A3.873,3.873,0,1,1,-3.873,0A3.873,3.873,0,1,1,3.873,0" fill="#4c78a8" stroke-width="2" opacity="0.7"/><path aria-label="all_draws: 4.84042067884; mean: 4.83818625424" role="graphics-symbol" aria-roledescription="circle" transform="translate(22.31830386451777,277.6920056892858)" d="M3.873,0A3.873,3.873,0,1,1,-3.873,0A3.873,3.873,0,1,1,3.873,0" fill="#4c78a8" stroke-width="2" opacity="0.7"/><path aria-label="all_draws: 12.1046023215; mean: 12.100222044" role="graphics-symbol" aria-roledescription="circle" transform="translate(55.83497359775394,244.18523684323202)" d="M3.873,0A3.873,3.873,0,1,1,-3.873,0A3.873,3.873,0,1,1,3.873,0" fill="#4c78a8" stroke-width="2" opacity="0.7"/><path aria-label="all_draws: 4.61020487696; mean: 4.60844478179" role="graphics-symbol" aria-roledescription="circle" transform="translate(21.256096532880953,278.7520244821617)" d="M3.873,0A3.873,3.873,0,1,1,-3.873,0A3.873,3.873,0,1,1,3.873,0" fill="#4c78a8" stroke-width="2" opacity="0.7"/><path aria-label="all_draws: 3.13296830189; mean: 3.13349379249" role="graphics-symbol" aria-roledescription="circle" transform="translate(14.44018073668741,285.55739466881)" d="M3.873,0A3.873,3.873,0,1,1,-3.873,0A3.873,3.873,0,1,1,3.873,0" fill="#4c78a8" stroke-width="2" opacity="0.7"/><path aria-label="all_draws: 11.8305876977; mean: 11.8279497485" role="graphics-symbol" aria-roledescription="circle" transform="translate(54.570680095910426,245.44149130561246)" d="M3.873,0A3.873,3.873,0,1,1,-3.873,0A3.873,3.873,0,1,1,3.873,0" fill="#4c78a8" stroke-width="2" opacity="0.7"/><path aria-label="all_draws: 2.02183829589; mean: 2.02273178255" role="graphics-symbol" aria-roledescription="circle" transform="translate(9.313467326454788,290.6824101586037)" d="M3.873,0A3.873,3.873,0,1,1,-3.873,0A3.873,3.873,0,1,1,3.873,0" fill="#4c78a8" stroke-width="2" opacity="0.7"/><path aria-label="all_draws: 0.0746040681905; mean: 0.0754326577125" role="graphics-symbol" aria-roledescription="circle" transform="translate(0.3289994656828278,299.66717745241766)" d="M3.873,0A3.873,3.873,0,1,1,-3.873,0A3.873,3.873,0,1,1,3.873,0" fill="#4c78a8" stroke-width="2" opacity="0.7"/><path aria-label="all_draws: 0.0655029765628; mean: 0.066335433773" role="graphics-symbol" aria-roledescription="circle" transform="translate(0.28700736012923495,299.7091517125987)" d="M3.873,0A3.873,3.873,0,1,1,-3.873,0A3.873,3.873,0,1,1,3.873,0" fill="#4c78a8" stroke-width="2" opacity="0.7"/><path aria-label="all_draws: 0.0731422563907; mean: 0.0739133757948" role="graphics-symbol" aria-roledescription="circle" transform="translate(0.3222547192383216,299.6741873638945)" d="M3.873,0A3.873,3.873,0,1,1,-3.873,0A3.873,3.873,0,1,1,3.873,0" fill="#4c78a8" stroke-width="2" opacity="0.7"/><path aria-label="all_draws: 0.0963698163059; mean: 0.0968960171723" role="graphics-symbol" aria-roledescription="circle" transform="translate(0.4294258353648641,299.56814629298793)" d="M3.873,0A3.873,3.873,0,1,1,-3.873,0A3.873,3.873,0,1,1,3.873,0" fill="#4c78a8" stroke-width="2" opacity="0.7"/><path aria-label="all_draws: 0.649768877314; mean: 0.651167097094" role="graphics-symbol" aria-roledescription="circle" transform="translate(2.982788962961634,297.0107597018599)" d="M3.873,0A3.873,3.873,0,1,1,-3.873,0A3.873,3.873,0,1,1,3.873,0" fill="#4c78a8" stroke-width="2" opacity="0.7"/><path aria-label="all_draws: 0.0588741641096; mean: 0.0591852775909" role="graphics-symbol" aria-roledescription="circle" transform="translate(0.25642226071294155,299.7421422730068)" d="M3.873,0A3.873,3.873,0,1,1,-3.873,0A3.873,3.873,0,1,1,3.873,0" fill="#4c78a8" stroke-width="2" opacity="0.7"/><path aria-label="all_draws: 0.52106550344; mean: 0.522647207207" role="graphics-symbol" aria-roledescription="circle" transform="translate(2.388956279820513,297.603745796561)" d="M3.873,0A3.873,3.873,0,1,1,-3.873,0A3.873,3.873,0,1,1,3.873,0" fill="#4c78a8" stroke-width="2" opacity="0.7"/><path aria-label="all_draws: 2.14317832875; mean: 2.14490675899" role="graphics-symbol" aria-roledescription="circle" transform="translate(9.873325822115131,290.1186992636552)" d="M3.873,0A3.873,3.873,0,1,1,-3.873,0A3.873,3.873,0,1,1,3.873,0" fill="#4c78a8" stroke-width="2" opacity="0.7"/><path aria-label="all_draws: 0.648830905754; mean: 0.650435362626" role="graphics-symbol" aria-roledescription="circle" transform="translate(2.978461196321719,297.0141358980638)" d="M3.873,0A3.873,3.873,0,1,1,-3.873,0A3.873,3.873,0,1,1,3.873,0" fill="#4c78a8" stroke-width="2" opacity="0.7"/><path aria-label="all_draws: 11.8406167875; mean: 11.8409212266" role="graphics-symbol" aria-roledescription="circle" transform="translate(54.61695395129148,245.38164137791088)" d="M3.873,0A3.873,3.873,0,1,1,-3.873,0A3.873,3.873,0,1,1,3.873,0" fill="#4c78a8" stroke-width="2" opacity="0.7"/><path aria-label="all_draws: 35.859561243; mean: 35.8594131688" role="graphics-symbol" aria-roledescription="circle" transform="translate(165.4394895454454,134.56119366332697)" d="M3.873,0A3.873,3.873,0,1,1,-3.873,0A3.873,3.873,0,1,1,3.873,0" fill="#4c78a8" stroke-width="2" opacity="0.7"/><path aria-label="all_draws: 9.49705896956; mean: 9.49692965116" role="graphics-symbol" aria-roledescription="circle" transform="translate(43.803863468478966,256.1967332018833)" d="M3.873,0A3.873,3.873,0,1,1,-3.873,0A3.873,3.873,0,1,1,3.873,0" fill="#4c78a8" stroke-width="2" opacity="0.7"/><path aria-label="all_draws: 7.80929744026; mean: 7.80937109503" role="graphics-symbol" aria-roledescription="circle" transform="translate(36.016593195121196,263.98306696443103)" d="M3.873,0A3.873,3.873,0,1,1,-3.873,0A3.873,3.873,0,1,1,3.873,0" fill="#4c78a8" stroke-width="2" opacity="0.7"/><path aria-label="all_draws: 21.7498603419; mean: 21.7490960477" role="graphics-symbol" aria-roledescription="circle" transform="translate(100.33784308330625,199.66568334225187)" d="M3.873,0A3.873,3.873,0,1,1,-3.873,0A3.873,3.873,0,1,1,3.873,0" fill="#4c78a8" stroke-width="2" opacity="0.7"/><path aria-label="all_draws: 6.77282713452; mean: 6.77262660214" role="graphics-symbol" aria-roledescription="circle" transform="translate(31.23435692477741,268.76656832432377)" d="M3.873,0A3.873,3.873,0,1,1,-3.873,0A3.873,3.873,0,1,1,3.873,0" fill="#4c78a8" stroke-width="2" opacity="0.7"/><path aria-label="all_draws: 3.35614174381; mean: 3.3561367166" role="graphics-symbol" aria-roledescription="circle" transform="translate(15.469894875727208,284.5301283196371)" d="M3.873,0A3.873,3.873,0,1,1,-3.873,0A3.873,3.873,0,1,1,3.873,0" fill="#4c78a8" stroke-width="2" opacity="0.7"/><path aria-label="all_draws: 10.9510826187; mean: 10.9516914547" role="graphics-symbol" aria-roledescription="circle" transform="translate(50.512675669126196,249.48451518384357)" d="M3.873,0A3.873,3.873,0,1,1,-3.873,0A3.873,3.873,0,1,1,3.873,0" fill="#4c78a8" stroke-width="2" opacity="0.7"/><path aria-label="all_draws: 2.1314065438; mean: 2.13119657017" role="graphics-symbol" aria-roledescription="circle" transform="translate(9.819011234763728,290.1819575759215)" d="M3.873,0A3.873,3.873,0,1,1,-3.873,0A3.873,3.873,0,1,1,3.873,0" fill="#4c78a8" stroke-width="2" opacity="0.7"/><path aria-label="all_draws: 0.106688018955; mean: 0.106815533804" role="graphics-symbol" aria-roledescription="circle" transform="translate(0.477033646874695,299.5223780042496)" d="M3.873,0A3.873,3.873,0,1,1,-3.873,0A3.873,3.873,0,1,1,3.873,0" fill="#4c78a8" stroke-width="2" opacity="0.7"/><path aria-label="all_draws: 0.0886449561805; mean: 0.0890643598127" role="graphics-symbol" aria-roledescription="circle" transform="translate(0.3937836118772825,299.6042812750269)" d="M3.873,0A3.873,3.873,0,1,1,-3.873,0A3.873,3.873,0,1,1,3.873,0" fill="#4c78a8" stroke-width="2" opacity="0.7"/><path aria-label="all_draws: 0.140045285184; mean: 0.140196642032" role="graphics-symbol" aria-roledescription="circle" transform="translate(0.6309428592816969,299.3683587857267)" d="M3.873,0A3.873,3.873,0,1,1,-3.873,0A3.873,3.873,0,1,1,3.873,0" fill="#4c78a8" stroke-width="2" opacity="0.7"/><path aria-label="all_draws: 0.104076993483; mean: 0.104067273858" role="graphics-symbol" aria-roledescription="circle" transform="translate(0.4649864703738714,299.5350583756248)" d="M3.873,0A3.873,3.873,0,1,1,-3.873,0A3.873,3.873,0,1,1,3.873,0" fill="#4c78a8" stroke-width="2" opacity="0.7"/><path aria-label="all_draws: 0.808643059855; mean: 0.808309032762" role="graphics-symbol" aria-roledescription="circle" transform="translate(3.715828659285525,296.28571252956345)" d="M3.873,0A3.873,3.873,0,1,1,-3.873,0A3.873,3.873,0,1,1,3.873,0" fill="#4c78a8" stroke-width="2" opacity="0.7"/><path aria-label="all_draws: 0.0588399365395; mean: 0.0588408365541" role="graphics-symbol" aria-roledescription="circle" transform="translate(0.25626433595019416,299.74373151141526)" d="M3.873,0A3.873,3.873,0,1,1,-3.873,0A3.873,3.873,0,1,1,3.873,0" fill="#4c78a8" stroke-width="2" opacity="0.7"/><path aria-label="all_draws: 0.464408561863; mean: 0.464529689757" role="graphics-symbol" aria-roledescription="circle" transform="translate(2.1275432133016046,297.8718979070026)" d="M3.873,0A3.873,3.873,0,1,1,-3.873,0A3.873,3.873,0,1,1,3.873,0" fill="#4c78a8" stroke-width="2" opacity="0.7"/><path aria-label="all_draws: 2.2613526757; mean: 2.26122948829" role="graphics-symbol" aria-roledescription="circle" transform="translate(10.418577958208159,289.58199042401975)" d="M3.873,0A3.873,3.873,0,1,1,-3.873,0A3.873,3.873,0,1,1,3.873,0" fill="#4c78a8" stroke-width="2" opacity="0.7"/><path aria-label="all_draws: 0.393919976044; mean: 0.394053604205" role="graphics-symbol" aria-roledescription="circle" transform="translate(1.8023114436291905,298.1970720008956)" d="M3.873,0A3.873,3.873,0,1,1,-3.873,0A3.873,3.873,0,1,1,3.873,0" fill="#4c78a8" stroke-width="2" opacity="0.7"/></g></g><path class="foreground" aria-hidden="true" d="" display="none"/></g></g></g></svg>