<svg xmlns="http://www.w3.org/2000/svg" xmlns:xlink="http://www.w3.org/1999/xlink" version="1.1" class="marks" width="376" height="373" viewBox="0 0 376 373"><rect width="376" height="373" fill="white"/><g fill="none" stroke-miterlimit="10" transform="translate(67,9)"><g class="mark-group role-frame root" role="graphics-object" aria-roledescription="group mark container"><g transform="translate(0,0)"><path class="background" aria-hidden="true" d="M0.5,0.5h300v300h-300Z" stroke="#ddd"/><g><g class="mark-group role-axis" aria-hidden="true"><g transform="translate(0.5,300.5)"><path class="background" aria-hidden="true" d="M0,0h0v0h0Z" pointer-events="none"/><g><g class="mark-rule role-axis-grid" pointer-events="none"><line transform="translate(35,-300)" x2="0" y2="300" stroke="#ddd" stroke-width="1" opacity="1"/><line transform="translate(70,-300)" x2="0" y2="300" stroke="#ddd" stroke-width="1" opacity="1"/><line transform="translate(105,-300)" x2="0" y2="300" stroke="#ddd" stroke-width="1" opacity="1"/><line transform="translate(139,-300)" x2="0" y2="300" stroke="#ddd" stroke-width="1" opacity="1"/><line transform="translate(174,-300)" x2="0" y2="300" stroke="#ddd" stroke-width="1" opacity="1"/><line transform="translate(209,-300)" x2="0" y2="300" stroke="#ddd" stroke-width="1" opacity="1"/><line transform="translate(244,-300)" x2="0" y2="300" stroke="#ddd" stroke-width="1" opacity="1"/><line transform="translate(279,-300)" x2="0" y2="300" stroke="#ddd" stroke-width="1" opacity="1"/></g></g><path class="foreground" aria-hidden="true" d="" pointer-events="none" display="none"/></g></g><g class="mark-group role-axis" aria-hidden="true"><g transform="translate(0.5,0.5)"><path class="background" aria-hidden="true" d="M0,0h0v0h0Z" pointer-events="none"/><g><g class="mark-rule role-axis-grid" pointer-events="none"><line transform="translate(0,265)" x2="300" y2="0" stroke="#ddd" stroke-width="1" opacity="1"/><line transform="translate(0,230)" x2="300" y2="0" stroke="#ddd" stroke-width="1" opacity="1"/><line transform="translate(0,195)" x2="300" y2="0" stroke="#ddd" stroke-width="1" opacity="1"/><line transform="translate(0,161)" x2="300" y2="0" stroke="#ddd" stroke-width="1" opacity="1"/><line transform="translate(0,126)" x2="300" y2="0" stroke="#ddd" stroke-width="1" opacity="1"/><line transform="translate(0,91)" x2="300" y2="0" stroke="#ddd" stroke-width="1" opacity="1"/><line transform="translate(0,56)" x2="300" y2="0" stroke="#ddd" stroke-width="1" opacity="1"/><line transform="translate(0,21)" x2="300" y2="0" stroke="#ddd" stroke-width="1" opacity="1"/></g></g><path class="foreground" aria-hidden="true" d="" pointer-events="none" display="none"/></g></g><g class="mark-group role-axis" role="graphics-symbol" aria-roledescription="axis" aria-label="X-axis titled 'Using all samples' for a linear scale with values from 0 to 43"><g transform="translate(0.5,300.5)"><path class="background" aria-hidden="true" d="M0,0h0v0h0Z" pointer-events="none"/><g><g class="mark-rule role-axis-tick" pointer-events="none"><line transform="translate(35,0)" x2="0" y2="5" stroke="#888" stroke-width="1" opacity="1"/><line transform="translate(70,0)" x2="0" y2="5" stroke="#888" stroke-width="1" opacity="1"/><line transform="translate(105,0)" x2="0" y2="5" stroke="#888" stroke-width="1" opacity="1"/><line transform="translate(139,0)" x2="0" y2="5" stroke="#888" stroke-width="1" opacity="1"/><line transform="translate(174,0)" x2="0" y2="5" stroke="#888" stroke-width="1" opacity="1"/><line transform="translate(209,0)" x2="0" y2="5" stroke="#888" stroke-width="1" opacity="1"/><line transform="translate(244,0)" x2="0" y2="5" stroke="#888" stroke-width="1" opacity="1"/><line transform="translate(279,0)" x2="0" y2="5" stroke="#888" stroke-width="1" opacity="1"/></g><g class="mark-text role-axis-label" pointer-events="none"><text text-anchor="middle" transform="translate(34.85416190196242,26)" font-family="sans-serif" font-size="24px" fill="#000" opacity="1">5</text><text text-anchor="middle" transform="translate(69.71975922164553,26)" font-family="sans-serif" font-size="24px" fill="#000" opacity="1">10</text><text text-anchor="middle" transform="translate(104.58535654132864,26)" font-family="sans-serif" font-size="24px" fill="#000" opacity="1">15</text><text text-anchor="middle" transform="translate(139.45095386101173,26)" font-family="sans-serif" font-size="24px" fill="#000" opacity="1">20</text><text text-anchor="middle" transform="translate(174.31655118069486,26)" font-family="sans-serif" font-size="24px" fill="#000" opacity="1">25</text><text text-anchor="middle" transform="translate(209.18214850037796,26)" font-family="sans-serif" font-size="24px" fill="#000" opacity="1">30</text><text text-anchor="middle" transform="translate(244.0477458200611,26)" font-family="sans-serif" font-size="24px" fill="#000" opacity="1">35</text><text text-anchor="middle" transform="translate(278.9133431397442,26)" font-family="sans-serif" font-size="24px" fill="#000" opacity="1">40</text></g><g class="mark-rule role-axis-domain" pointer-events="none"><line transform="translate(0,0)" x2="300" y2="0" stroke="#888" stroke-width="1" opacity="1"/></g><g class="mark-text role-axis-title" pointer-events="none"><text text-anchor="middle" transform="translate(150,54)" font-family="sans-serif" font-size="24px" font-weight="bold" fill="#000" opacity="1">Using all samples</text></g></g><path class="foreground" aria-hidden="true" d="" pointer-events="none" display="none"/></g></g><g class="mark-group role-axis" role="graphics-symbol" aria-roledescription="axis" aria-label="Y-axis titled 'Using the mean' for a linear scale with values from 0 to 43"><g transform="translate(0.5,0.5)"><path class="background" aria-hidden="true" d="M0,0h0v0h0Z" pointer-events="none"/><g><g class="mark-rule role-axis-tick" pointer-events="none"><line transform="translate(0,265)" x2="-5" y2="0" stroke="#888" stroke-width="1" opacity="1"/><line transform="translate(0,230)" x2="-5" y2="0" stroke="#888" stroke-width="1" opacity="1"/><line transform="translate(0,195)" x2="-5" y2="0" stroke="#888" stroke-width="1" opacity="1"/><line transform="translate(0,161)" x2="-5" y2="0" stroke="#888" stroke-width="1" opacity="1"/><line transform="translate(0,126)" x2="-5" y2="0" stroke="#888" stroke-width="1" opacity="1"/><line transform="translate(0,91)" x2="-5" y2="0" stroke="#888" stroke-width="1" opacity="1"/><line transform="translate(0,56)" x2="-5" y2="0" stroke="#888" stroke-width="1" opacity="1"/><line transform="translate(0,21)" x2="-5" y2="0" stroke="#888" stroke-width="1" opacity="1"/></g><g class="mark-text role-axis-label" pointer-events="none"><text text-anchor="end" transform="translate(-7,272.1458380980376)" font-family="sans-serif" font-size="24px" fill="#000" opacity="1">5</text><text text-anchor="end" transform="translate(-7,237.28024077835448)" font-family="sans-serif" font-size="24px" fill="#000" opacity="1">10</text><text text-anchor="end" transform="translate(-7,202.41464345867138)" font-family="sans-serif" font-size="24px" fill="#000" opacity="1">15</text><text text-anchor="end" transform="translate(-7,167.54904613898827)" font-family="sans-serif" font-size="24px" fill="#000" opacity="1">20</text><text text-anchor="end" transform="translate(-7,132.68344881930517)" font-family="sans-serif" font-size="24px" fill="#000" opacity="1">25</text><text text-anchor="end" transform="translate(-7,97.81785149962205)" font-family="sans-serif" font-size="24px" fill="#000" opacity="1">30</text><text text-anchor="end" transform="translate(-7,62.95225417993891)" font-family="sans-serif" font-size="24px" fill="#000" opacity="1">35</text><text text-anchor="end" transform="translate(-7,28.086656860255804)" font-family="sans-serif" font-size="24px" fill="#000" opacity="1">40</text></g><g class="mark-rule role-axis-domain" pointer-events="none"><line transform="translate(0,300)" x2="0" y2="-300" stroke="#888" stroke-width="1" opacity="1"/></g><g class="mark-text role-axis-title" pointer-events="none"><text text-anchor="middle" transform="translate(-37.6953125,150) rotate(-90) translate(0,-5)" font-family="sans-serif" font-size="24px" font-weight="bold" fill="#000" opacity="1">Using the mean</text></g></g><path class="foreground" aria-hidden="true" d="" pointer-events="none" display="none"/></g></g><g class="mark-rule role-mark layer_0_marks" role="graphics-symbol" aria-roledescription="rule mark container"><line transform="translate(0,300)" x2="300" y2="-300" stroke="black" stroke-dasharray="8,8"/></g><g class="mark-symbol role-mark layer_1_marks" role="graphics-object" aria-roledescription="symbol mark container"><path aria-label="all_draws: 18.2382728251; mean: 18.2398436661" role="graphics-symbol" aria-roledescription="circle" transform="translate(127.16621980745536,172.82282653059272)" d="M3.873,0A3.873,3.873,0,1,1,-3.873,0A3.873,3.873,0,1,1,3.873,0" fill="#4c78a8" stroke-width="2" opacity="0.7"/><path aria-label="all_draws: 43.023991912; mean: 43.0212052324" role="graphics-symbol" aria-roledescription="circle" transform="translate(300,0.019431849763273945)" d="M3.873,0A3.873,3.873,0,1,1,-3.873,0A3.873,3.873,0,1,1,3.873,0" fill="#4c78a8" stroke-width="2" opacity="0.7"/><path aria-label="all_draws: 16.3762494349; mean: 16.3776085505" role="graphics-symbol" aria-roledescription="circle" transform="translate(114.18210826338455,185.80841446126567)" d="M3.873,0A3.873,3.873,0,1,1,-3.873,0A3.873,3.873,0,1,1,3.873,0" fill="#4c78a8" stroke-width="2" opacity="0.7"/><path aria-label="all_draws: 5.5877210467; mean: 5.58883617711" role="graphics-symbol" aria-roledescription="circle" transform="translate(38.952410972048554,261.03981309038113)" d="M3.873,0A3.873,3.873,0,1,1,-3.873,0A3.873,3.873,0,1,1,3.873,0" fill="#4c78a8" stroke-width="2" opacity="0.7"/><path aria-label="all_draws: 13.8129633531; mean: 13.8126790748" role="graphics-symbol" aria-roledescription="circle" transform="translate(96.30800819474824,203.6939741121335)" d="M3.873,0A3.873,3.873,0,1,1,-3.873,0A3.873,3.873,0,1,1,3.873,0" fill="#4c78a8" stroke-width="2" opacity="0.7"/><path aria-label="all_draws: 3.73275047954; mean: 3.73371527963" role="graphics-symbol" aria-roledescription="circle" transform="translate(26.01747960514681,273.97579272856296)" d="M3.873,0A3.873,3.873,0,1,1,-3.873,0A3.873,3.873,0,1,1,3.873,0" fill="#4c78a8" stroke-width="2" opacity="0.7"/><path aria-label="all_draws: 0.0371445896406; mean: 0.0373762437064" role="graphics-symbol" aria-roledescription="circle" transform="translate(0.24757824328198078,299.7508064052428)" d="M3.873,0A3.873,3.873,0,1,1,-3.873,0A3.873,3.873,0,1,1,3.873,0" fill="#4c78a8" stroke-width="2" opacity="0.7"/><path aria-label="all_draws: 0.0185173354758; mean: 0.018651363197" role="graphics-symbol" aria-roledescription="circle" transform="translate(0.11768817470600981,299.88137723398296)" d="M3.873,0A3.873,3.873,0,1,1,-3.873,0A3.873,3.873,0,1,1,3.873,0" fill="#4c78a8" stroke-width="2" opacity="0.7"/><path aria-label="all_draws: 0.0474813066579; mean: 0.047539310895" role="graphics-symbol" aria-roledescription="circle" transform="translate(0.31965740590847447,299.679938123617)" d="M3.873,0A3.873,3.873,0,1,1,-3.873,0A3.873,3.873,0,1,1,3.873,0" fill="#4c78a8" stroke-width="2" opacity="0.7"/><path aria-label="all_draws: 0.131524428453; mean: 0.131947033695" role="graphics-symbol" aria-roledescription="circle" transform="translate(0.9057001343097426,299.091352988854)" d="M3.873,0A3.873,3.873,0,1,1,-3.873,0A3.873,3.873,0,1,1,3.873,0" fill="#4c78a8" stroke-width="2" opacity="0.7"/><path aria-label="all_draws: 1.10179755065; mean: 1.1050975407" role="graphics-symbol" aria-roledescription="circle" transform="translate(7.671530528011091,292.3054582471386)" d="M3.873,0A3.873,3.873,0,1,1,-3.873,0A3.873,3.873,0,1,1,3.873,0" fill="#4c78a8" stroke-width="2" opacity="0.7"/><path aria-label="all_draws: 0.110285448806; mean: 0.110806432364" role="graphics-symbol" aria-roledescription="circle" transform="translate(0.7575981919362391,299.2387689274764)" d="M3.873,0A3.873,3.873,0,1,1,-3.873,0A3.873,3.873,0,1,1,3.873,0" fill="#4c78a8" stroke-width="2" opacity="0.7"/><path aria-label="all_draws: 0.886728994667; mean: 0.88792103606" role="graphics-symbol" aria-roledescription="circle" transform="translate(6.171831794230739,293.8198559587339)" d="M3.873,0A3.873,3.873,0,1,1,-3.873,0A3.873,3.873,0,1,1,3.873,0" fill="#4c78a8" stroke-width="2" opacity="0.7"/><path aria-label="all_draws: 3.01782804543; mean: 3.01958502846" role="graphics-symbol" aria-roledescription="circle" transform="translate(21.032240064660563,278.95550828275316)" d="M3.873,0A3.873,3.873,0,1,1,-3.873,0A3.873,3.873,0,1,1,3.873,0" fill="#4c78a8" stroke-width="2" opacity="0.7"/><path aria-label="all_draws: 1.6812935881; mean: 1.68419531312" role="graphics-symbol" aria-roledescription="circle" transform="translate(11.712425626085276,288.26734029873296)" d="M3.873,0A3.873,3.873,0,1,1,-3.873,0A3.873,3.873,0,1,1,3.873,0" fill="#4c78a8" stroke-width="2" opacity="0.7"/><path aria-label="all_draws: 11.5951561652; mean: 11.5934646399" role="graphics-symbol" aria-roledescription="circle" transform="translate(80.8429737250301,219.16882148308352)" d="M3.873,0A3.873,3.873,0,1,1,-3.873,0A3.873,3.873,0,1,1,3.873,0" fill="#4c78a8" stroke-width="2" opacity="0.7"/><path aria-label="all_draws: 25.0728830659; mean: 25.0651981132" role="graphics-symbol" aria-roledescription="circle" transform="translate(174.824773506222,125.22881458690321)" d="M3.873,0A3.873,3.873,0,1,1,-3.873,0A3.873,3.873,0,1,1,3.873,0" fill="#4c78a8" stroke-width="2" opacity="0.7"/><path aria-label="all_draws: 10.8044413935; mean: 10.8013487367" role="graphics-symbol" aria-roledescription="circle" transform="translate(75.32922516005078,224.69234030540574)" d="M3.873,0A3.873,3.873,0,1,1,-3.873,0A3.873,3.873,0,1,1,3.873,0" fill="#4c78a8" stroke-width="2" opacity="0.7"/><path aria-label="all_draws: 10.9792425826; mean: 10.98115875" role="graphics-symbol" aria-roledescription="circle" transform="translate(76.54813473432324,223.43850360142292)" d="M3.873,0A3.873,3.873,0,1,1,-3.873,0A3.873,3.873,0,1,1,3.873,0" fill="#4c78a8" stroke-width="2" opacity="0.7"/><path aria-label="all_draws: 26.6120299606; mean: 26.6083691531" role="graphics-symbol" aria-roledescription="circle" transform="translate(185.55742867510918,114.46809857261181)" d="M3.873,0A3.873,3.873,0,1,1,-3.873,0A3.873,3.873,0,1,1,3.873,0" fill="#4c78a8" stroke-width="2" opacity="0.7"/><path aria-label="all_draws: 9.86949058556; mean: 9.8712891381" role="graphics-symbol" aria-roledescription="circle" transform="translate(68.80970148355505,231.17775699466594)" d="M3.873,0A3.873,3.873,0,1,1,-3.873,0A3.873,3.873,0,1,1,3.873,0" fill="#4c78a8" stroke-width="2" opacity="0.7"/><path aria-label="all_draws: 3.63840005031; mean: 3.63977306022" role="graphics-symbol" aria-roledescription="circle" transform="translate(25.359562790656664,274.63086304722304)" d="M3.873,0A3.873,3.873,0,1,1,-3.873,0A3.873,3.873,0,1,1,3.873,0" fill="#4c78a8" stroke-width="2" opacity="0.7"/><path aria-label="all_draws: 9.29270950463; mean: 9.2926441476" role="graphics-symbol" aria-roledescription="circle" transform="translate(64.78773810171326,235.21271764066572)" d="M3.873,0A3.873,3.873,0,1,1,-3.873,0A3.873,3.873,0,1,1,3.873,0" fill="#4c78a8" stroke-width="2" opacity="0.7"/><path aria-label="all_draws: 2.36504898691; mean: 2.36623338326" role="graphics-symbol" aria-roledescription="circle" transform="translate(16.48033370603131,283.5114073567203)" d="M3.873,0A3.873,3.873,0,1,1,-3.873,0A3.873,3.873,0,1,1,3.873,0" fill="#4c78a8" stroke-width="2" opacity="0.7"/><path aria-label="all_draws: 0.0153201765452; mean: 0.015402175325" role="graphics-symbol" aria-roledescription="circle" transform="translate(0.09539400353776097,299.9040342091751)" d="M3.873,0A3.873,3.873,0,1,1,-3.873,0A3.873,3.873,0,1,1,3.873,0" fill="#4c78a8" stroke-width="2" opacity="0.7"/><path aria-label="all_draws: 0.00905924614797; mean: 0.00917575775923" role="graphics-symbol" aria-roledescription="circle" transform="translate(0.051735787922331126,299.9474517626934)" d="M3.873,0A3.873,3.873,0,1,1,-3.873,0A3.873,3.873,0,1,1,3.873,0" fill="#4c78a8" stroke-width="2" opacity="0.7"/><path aria-label="all_draws: 0.0181618250301; mean: 0.0183023379053" role="graphics-symbol" aria-roledescription="circle" transform="translate(0.11520915789758919,299.8838110290377)" d="M3.873,0A3.873,3.873,0,1,1,-3.873,0A3.873,3.873,0,1,1,3.873,0" fill="#4c78a8" stroke-width="2" opacity="0.7"/><path aria-label="all_draws: 0.0825511542737; mean: 0.0828928859117" role="graphics-symbol" aria-roledescription="circle" transform="translate(0.5642036429158511,299.43341342154815)" d="M3.873,0A3.873,3.873,0,1,1,-3.873,0A3.873,3.873,0,1,1,3.873,0" fill="#4c78a8" stroke-width="2" opacity="0.7"/><path aria-label="all_draws: 0.686903460093; mean: 0.689147779309" role="graphics-symbol" aria-roledescription="circle" transform="translate(4.778424469702066,295.20592562429187)" d="M3.873,0A3.873,3.873,0,1,1,-3.873,0A3.873,3.873,0,1,1,3.873,0" fill="#4c78a8" stroke-width="2" opacity="0.7"/><path aria-label="all_draws: 0.071815688193; mean: 0.0722079917898" role="graphics-symbol" aria-roledescription="circle" transform="translate(0.4893439554338096,299.50792046471975)" d="M3.873,0A3.873,3.873,0,1,1,-3.873,0A3.873,3.873,0,1,1,3.873,0" fill="#4c78a8" stroke-width="2" opacity="0.7"/><path aria-label="all_draws: 0.537083597468; mean: 0.537864558018" role="graphics-symbol" aria-roledescription="circle" transform="translate(3.7337126695421587,296.26084159924517)" d="M3.873,0A3.873,3.873,0,1,1,-3.873,0A3.873,3.873,0,1,1,3.873,0" fill="#4c78a8" stroke-width="2" opacity="0.7"/><path aria-label="all_draws: 1.74597878737; mean: 1.74746822922" role="graphics-symbol" aria-roledescription="circle" transform="translate(12.163483248075442,287.82613069595686)" d="M3.873,0A3.873,3.873,0,1,1,-3.873,0A3.873,3.873,0,1,1,3.873,0" fill="#4c78a8" stroke-width="2" opacity="0.7"/><path aria-label="all_draws: 1.0497253853; mean: 1.05208673253" role="graphics-symbol" aria-roledescription="circle" transform="translate(7.308425098301273,292.6751089453346)" d="M3.873,0A3.873,3.873,0,1,1,-3.873,0A3.873,3.873,0,1,1,3.873,0" fill="#4c78a8" stroke-width="2" opacity="0.7"/><path aria-label="all_draws: 6.70589227549; mean: 6.70496694785" role="graphics-symbol" aria-roledescription="circle" transform="translate(46.7495525315541,253.25689988858156)" d="M3.873,0A3.873,3.873,0,1,1,-3.873,0A3.873,3.873,0,1,1,3.873,0" fill="#4c78a8" stroke-width="2" opacity="0.7"/><path aria-label="all_draws: 14.8773750645; mean: 14.8699411837" role="graphics-symbol" aria-roledescription="circle" transform="translate(103.73027821688885,196.32155912226244)" d="M3.873,0A3.873,3.873,0,1,1,-3.873,0A3.873,3.873,0,1,1,3.873,0" fill="#4c78a8" stroke-width="2" opacity="0.7"/><path aria-label="all_draws: 6.36474062745; mean: 6.36242161713" role="graphics-symbol" aria-roledescription="circle" transform="translate(44.370661334449245,255.64550940151196)" d="M3.873,0A3.873,3.873,0,1,1,-3.873,0A3.873,3.873,0,1,1,3.873,0" fill="#4c78a8" stroke-width="2" opacity="0.7"/><path aria-label="all_draws: 1.2760820395; mean: 1.2761673253" role="graphics-symbol" aria-roledescription="circle" transform="translate(8.886837089483365,291.11256820246473)" d="M3.873,0A3.873,3.873,0,1,1,-3.873,0A3.873,3.873,0,1,1,3.873,0" fill="#4c78a8" stroke-width="2" opacity="0.7"/><path aria-label="all_draws: 2.75851720332; mean: 2.75862806866" role="graphics-symbol" aria-roledescription="circle" transform="translate(19.224034584355422,280.775192338386)" d="M3.873,0A3.873,3.873,0,1,1,-3.873,0A3.873,3.873,0,1,1,3.873,0" fill="#4c78a8" stroke-width="2" opacity="0.7"/><path aria-label="all_draws: 1.22076181745; mean: 1.22056369524" role="graphics-symbol" aria-roledescription="circle" transform="translate(8.501082572380326,291.5002989574725)" d="M3.873,0A3.873,3.873,0,1,1,-3.873,0A3.873,3.873,0,1,1,3.873,0" fill="#4c78a8" stroke-width="2" opacity="0.7"/><path aria-label="all_draws: 0.406342671604; mean: 0.406483277571" role="graphics-symbol" aria-roledescription="circle" transform="translate(2.8220405746688693,297.1769789631257)" d="M3.873,0A3.873,3.873,0,1,1,-3.873,0A3.873,3.873,0,1,1,3.873,0" fill="#4c78a8" stroke-width="2" opacity="0.7"/><path aria-label="all_draws: 0.988263225464; mean: 0.988243942217" role="graphics-symbol" aria-roledescription="circle" transform="translate(6.879842115257776,293.12029234912757)" d="M3.873,0A3.873,3.873,0,1,1,-3.873,0A3.873,3.873,0,1,1,3.873,0" fill="#4c78a8" stroke-width="2" opacity="0.7"/><path aria-label="all_draws: 0.295951019785; mean: 0.296039361112" role="graphics-symbol" aria-roledescription="circle" transform="translate(2.052266398715224,297.94711758665767)" d="M3.873,0A3.873,3.873,0,1,1,-3.873,0A3.873,3.873,0,1,1,3.873,0" fill="#4c78a8" stroke-width="2" opacity="0.7"/><path aria-label="all_draws: 0.00317778230667; mean: 0.00317192215412" role="graphics-symbol" aria-roledescription="circle" transform="translate(0.010723637934095812,299.98931722560974)" d="M3.873,0A3.873,3.873,0,1,1,-3.873,0A3.873,3.873,0,1,1,3.873,0" fill="#4c78a8" stroke-width="2" opacity="0.7"/><path aria-label="all_draws: 0.00163992855419; mean: 0.00164803844152" role="graphics-symbol" aria-roledescription="circle" transform="translate(0,299.99994344878684)" d="M3.873,0A3.873,3.873,0,1,1,-3.873,0A3.873,3.873,0,1,1,3.873,0" fill="#4c78a8" stroke-width="2" opacity="0.7"/><path aria-label="all_draws: 0.00346579300249; mean: 0.00346547945983" role="graphics-symbol" aria-roledescription="circle" transform="translate(0.012731970922973825,299.9872702154475)" d="M3.873,0A3.873,3.873,0,1,1,-3.873,0A3.873,3.873,0,1,1,3.873,0" fill="#4c78a8" stroke-width="2" opacity="0.7"/><path aria-label="all_draws: 0.00594496165574; mean: 0.00596589603606" role="graphics-symbol" aria-roledescription="circle" transform="translate(0.030019510113273258,299.96983451195183)" d="M3.873,0A3.873,3.873,0,1,1,-3.873,0A3.873,3.873,0,1,1,3.873,0" fill="#4c78a8" stroke-width="2" opacity="0.7"/><path aria-label="all_draws: 0.0427732431458; mean: 0.0428220639325" role="graphics-symbol" aria-roledescription="circle" transform="translate(0.2868275165952628,299.71283205022706)" d="M3.873,0A3.873,3.873,0,1,1,-3.873,0A3.873,3.873,0,1,1,3.873,0" fill="#4c78a8" stroke-width="2" opacity="0.7"/><path aria-label="all_draws: 0.00507233738211; mean: 0.00507705640955" role="graphics-symbol" aria-roledescription="circle" transform="translate(0.02393459680613771,299.9760324968517)" d="M3.873,0A3.873,3.873,0,1,1,-3.873,0A3.873,3.873,0,1,1,3.873,0" fill="#4c78a8" stroke-width="2" opacity="0.7"/><path aria-label="all_draws: 0.0509925149229; mean: 0.0510713940121" role="graphics-symbol" aria-roledescription="circle" transform="translate(0.34414148060333244,299.65530848608466)" d="M3.873,0A3.873,3.873,0,1,1,-3.873,0A3.873,3.873,0,1,1,3.873,0" fill="#4c78a8" stroke-width="2" opacity="0.7"/><path aria-label="all_draws: 0.155509587798; mean: 0.155640959185" role="graphics-symbol" aria-roledescription="circle" transform="translate(1.0729515157792269,298.9261324158398)" d="M3.873,0A3.873,3.873,0,1,1,-3.873,0A3.873,3.873,0,1,1,3.873,0" fill="#4c78a8" stroke-width="2" opacity="0.7"/><path aria-label="all_draws: 0.119781405418; mean: 0.119850579465" role="graphics-symbol" aria-roledescription="circle" transform="translate(0.8238146318140789,299.175703009291)" d="M3.873,0A3.873,3.873,0,1,1,-3.873,0A3.873,3.873,0,1,1,3.873,0" fill="#4c78a8" stroke-width="2" opacity="0.7"/><path aria-label="all_draws: 0.809624058555; mean: 0.809493011346" role="graphics-symbol" aria-roledescription="circle" transform="translate(5.634169863462109,294.366743944383)" d="M3.873,0A3.873,3.873,0,1,1,-3.873,0A3.873,3.873,0,1,1,3.873,0" fill="#4c78a8" stroke-width="2" opacity="0.7"/><path aria-label="all_draws: 1.57033086807; mean: 1.57027640075" role="graphics-symbol" aria-roledescription="circle" transform="translate(10.93866932326022,289.06171048385806)" d="M3.873,0A3.873,3.873,0,1,1,-3.873,0A3.873,3.873,0,1,1,3.873,0" fill="#4c78a8" stroke-width="2" opacity="0.7"/><path aria-label="all_draws: 0.79649055708; mean: 0.796112190213" role="graphics-symbol" aria-roledescription="circle" transform="translate(5.542588388697039,294.4600500086664)" d="M3.873,0A3.873,3.873,0,1,1,-3.873,0A3.873,3.873,0,1,1,3.873,0" fill="#4c78a8" stroke-width="2" opacity="0.7"/><path aria-label="all_draws: 5.98294840389; mean: 5.98240570538" role="graphics-symbol" aria-roledescription="circle" transform="translate(41.70837854915577,258.29540575236007)" d="M3.873,0A3.873,3.873,0,1,1,-3.873,0A3.873,3.873,0,1,1,3.873,0" fill="#4c78a8" stroke-width="2" opacity="0.7"/><path aria-label="all_draws: 13.6534452382; mean: 13.6541865249" role="graphics-symbol" aria-roledescription="circle" transform="translate(95.19566932233536,204.79916159676398)" d="M3.873,0A3.873,3.873,0,1,1,-3.873,0A3.873,3.873,0,1,1,3.873,0" fill="#4c78a8" stroke-width="2" opacity="0.7"/><path aria-label="all_draws: 5.28599533335; mean: 5.28575020519" role="graphics-symbol" aria-roledescription="circle" transform="translate(36.84844152753375,263.1532677804258)" d="M3.873,0A3.873,3.873,0,1,1,-3.873,0A3.873,3.873,0,1,1,3.873,0" fill="#4c78a8" stroke-width="2" opacity="0.7"/><path aria-label="all_draws: 1.54297771153; mean: 1.54267167915" role="graphics-symbol" aria-roledescription="circle" transform="translate(10.747932494950447,289.2542015053819)" d="M3.873,0A3.873,3.873,0,1,1,-3.873,0A3.873,3.873,0,1,1,3.873,0" fill="#4c78a8" stroke-width="2" opacity="0.7"/><path aria-label="all_draws: 3.53199146442; mean: 3.53179080082" role="graphics-symbol" aria-roledescription="circle" transform="translate(24.61756300926377,275.3838362419655)" d="M3.873,0A3.873,3.873,0,1,1,-3.873,0A3.873,3.873,0,1,1,3.873,0" fill="#4c78a8" stroke-width="2" opacity="0.7"/><path aria-label="all_draws: 1.07175127361; mean: 1.07145405662" role="graphics-symbol" aria-roledescription="circle" transform="translate(7.462014248783967,292.54005828079795)" d="M3.873,0A3.873,3.873,0,1,1,-3.873,0A3.873,3.873,0,1,1,3.873,0" fill="#4c78a8" stroke-width="2" opacity="0.7"/><path aria-label="all_draws: 0.0184115014919; mean: 0.0184218847159" role="graphics-symbol" aria-roledescription="circle" transform="translate(0.11695018169295907,299.8829774148462)" d="M3.873,0A3.873,3.873,0,1,1,-3.873,0A3.873,3.873,0,1,1,3.873,0" fill="#4c78a8" stroke-width="2" opacity="0.7"/><path aria-label="all_draws: 0.00787556879161; mean: 0.0079083882238" role="graphics-symbol" aria-roledescription="circle" transform="translate(0.04348186430964743,299.956289281869)" d="M3.873,0A3.873,3.873,0,1,1,-3.873,0A3.873,3.873,0,1,1,3.873,0" fill="#4c78a8" stroke-width="2" opacity="0.7"/><path aria-label="all_draws: 0.0260174099113; mean: 0.026048770268" role="graphics-symbol" aria-roledescription="circle" transform="translate(0.16998708973330431,299.8297942307535)" d="M3.873,0A3.873,3.873,0,1,1,-3.873,0A3.873,3.873,0,1,1,3.873,0" fill="#4c78a8" stroke-width="2" opacity="0.7"/><path aria-label="all_draws: 0.0430387977389; mean: 0.0431186663916" role="graphics-symbol" aria-roledescription="circle" transform="translate(0.2886792604970869,299.7107638058465)" d="M3.873,0A3.873,3.873,0,1,1,-3.873,0A3.873,3.873,0,1,1,3.873,0" fill="#4c78a8" stroke-width="2" opacity="0.7"/><path aria-label="all_draws: 0.372121125554; mean: 0.373127028676" role="graphics-symbol" aria-roledescription="circle" transform="translate(2.583409645822421,297.409576071537)" d="M3.873,0A3.873,3.873,0,1,1,-3.873,0A3.873,3.873,0,1,1,3.873,0" fill="#4c78a8" stroke-width="2" opacity="0.7"/><path aria-label="all_draws: 0.0333780299104; mean: 0.033486872339" role="graphics-symbol" aria-roledescription="circle" transform="translate(0.22131357231552365,299.7779274564275)" d="M3.873,0A3.873,3.873,0,1,1,-3.873,0A3.873,3.873,0,1,1,3.873,0" fill="#4c78a8" stroke-width="2" opacity="0.7"/><path aria-label="all_draws: 0.298653029456; mean: 0.298966714056" role="graphics-symbol" aria-roledescription="circle" transform="translate(2.071107834945549,297.9267048048704)" d="M3.873,0A3.873,3.873,0,1,1,-3.873,0A3.873,3.873,0,1,1,3.873,0" fill="#4c78a8" stroke-width="2" opacity="0.7"/><path aria-label="all_draws: 1.11633958145; mean: 1.11647466977" role="graphics-symbol" aria-roledescription="circle" transform="translate(7.772933846031974,292.2261241669693)" d="M3.873,0A3.873,3.873,0,1,1,-3.873,0A3.873,3.873,0,1,1,3.873,0" fill="#4c78a8" stroke-width="2" opacity="0.7"/><path aria-label="all_draws: 0.511787533094; mean: 0.51227068409" role="graphics-symbol" aria-roledescription="circle" transform="translate(3.5573201906981593,296.4393107396887)" d="M3.873,0A3.873,3.873,0,1,1,-3.873,0A3.873,3.873,0,1,1,3.873,0" fill="#4c78a8" stroke-width="2" opacity="0.7"/><path aria-label="all_draws: 4.07964117349; mean: 4.07871982949" role="graphics-symbol" aria-roledescription="circle" transform="translate(28.436389855033557,271.57003478679025)" d="M3.873,0A3.873,3.873,0,1,1,-3.873,0A3.873,3.873,0,1,1,3.873,0" fill="#4c78a8" stroke-width="2" opacity="0.7"/><path aria-label="all_draws: 8.62517643267; mean: 8.62498111784" role="graphics-symbol" aria-roledescription="circle" transform="translate(60.13295024484464,239.8684117088223)" d="M3.873,0A3.873,3.873,0,1,1,-3.873,0A3.873,3.873,0,1,1,3.873,0" fill="#4c78a8" stroke-width="2" opacity="0.7"/><path aria-label="all_draws: 3.64321144521; mean: 3.64282183657" role="graphics-symbol" aria-roledescription="circle" transform="translate(25.39311322212299,274.6096035655045)" d="M3.873,0A3.873,3.873,0,1,1,-3.873,0A3.873,3.873,0,1,1,3.873,0" fill="#4c78a8" stroke-width="2" opacity="0.7"/></g></g><path class="foreground" aria-hidden="true" d="" display="none"/></g></g></g></svg>