<svg xmlns="http://www.w3.org/2000/svg" xmlns:xlink="http://www.w3.org/1999/xlink" version="1.1" class="marks" width="369" height="361" viewBox="0 0 369 361"><rect width="369" height="361" fill="white"/><g fill="none" stroke-miterlimit="10" transform="translate(60,9)"><g class="mark-group role-frame root" role="graphics-object" aria-roledescription="group mark container"><g transform="translate(0,0)"><path class="background" aria-hidden="true" d="M0.5,0.5h300v300h-300Z" stroke="#ddd"/><g><g class="mark-group role-axis" aria-hidden="true"><g transform="translate(0.5,300.5)"><path class="background" aria-hidden="true" d="M0,0h0v0h0Z" pointer-events="none"/><g><g class="mark-rule role-axis-grid" pointer-events="none"><line transform="translate(36,-300)" x2="0" y2="300" stroke="#ddd" stroke-width="1" opacity="1"/><line transform="translate(72,-300)" x2="0" y2="300" stroke="#ddd" stroke-width="1" opacity="1"/><line transform="translate(109,-300)" x2="0" y2="300" stroke="#ddd" stroke-width="1" opacity="1"/><line transform="translate(145,-300)" x2="0" y2="300" stroke="#ddd" stroke-width="1" opacity="1"/><line transform="translate(181,-300)" x2="0" y2="300" stroke="#ddd" stroke-width="1" opacity="1"/><line transform="translate(218,-300)" x2="0" y2="300" stroke="#ddd" stroke-width="1" opacity="1"/><line transform="translate(254,-300)" x2="0" y2="300" stroke="#ddd" stroke-width="1" opacity="1"/><line transform="translate(291,-300)" x2="0" y2="300" stroke="#ddd" stroke-width="1" opacity="1"/></g></g><path class="foreground" aria-hidden="true" d="" pointer-events="none" display="none"/></g></g><g class="mark-group role-axis" aria-hidden="true"><g transform="translate(0.5,0.5)"><path class="background" aria-hidden="true" d="M0,0h0v0h0Z" pointer-events="none"/><g><g class="mark-rule role-axis-grid" pointer-events="none"><line transform="translate(0,264)" x2="300" y2="0" stroke="#ddd" stroke-width="1" opacity="1"/><line transform="translate(0,228)" x2="300" y2="0" stroke="#ddd" stroke-width="1" opacity="1"/><line transform="translate(0,191)" x2="300" y2="0" stroke="#ddd" stroke-width="1" opacity="1"/><line transform="translate(0,155)" x2="300" y2="0" stroke="#ddd" stroke-width="1" opacity="1"/><line transform="translate(0,119)" x2="300" y2="0" stroke="#ddd" stroke-width="1" opacity="1"/><line transform="translate(0,82)" x2="300" y2="0" stroke="#ddd" stroke-width="1" opacity="1"/><line transform="translate(0,46)" x2="300" y2="0" stroke="#ddd" stroke-width="1" opacity="1"/><line transform="translate(0,9)" x2="300" y2="0" stroke="#ddd" stroke-width="1" opacity="1"/></g></g><path class="foreground" aria-hidden="true" d="" pointer-events="none" display="none"/></g></g><g class="mark-group role-axis" role="graphics-symbol" aria-roledescription="axis" aria-label="X-axis titled 'ฮฃ(๐ฟ(yแตข,sแตข)-๐ซ)ยฒ / N' for a linear scale with values from 0.0 to 0.8"><g transform="translate(0.5,300.5)"><path class="background" aria-hidden="true" d="M0,0h0v0h0Z" pointer-events="none"/><g><g class="mark-rule role-axis-tick" pointer-events="none"><line transform="translate(36,0)" x2="0" y2="5" stroke="#888" stroke-width="1" opacity="1"/><line transform="translate(72,0)" x2="0" y2="5" stroke="#888" stroke-width="1" opacity="1"/><line transform="translate(109,0)" x2="0" y2="5" stroke="#888" stroke-width="1" opacity="1"/><line transform="translate(145,0)" x2="0" y2="5" stroke="#888" stroke-width="1" opacity="1"/><line transform="translate(181,0)" x2="0" y2="5" stroke="#888" stroke-width="1" opacity="1"/><line transform="translate(218,0)" x2="0" y2="5" stroke="#888" stroke-width="1" opacity="1"/><line transform="translate(254,0)" x2="0" y2="5" stroke="#888" stroke-width="1" opacity="1"/><line transform="translate(291,0)" x2="0" y2="5" stroke="#888" stroke-width="1" opacity="1"/></g><g class="mark-text role-axis-label" pointer-events="none"><text text-anchor="middle" transform="translate(35.931287199634724,21)" font-family="sans-serif" font-size="18px" fill="#000" opacity="1">0.1</text><text text-anchor="middle" transform="translate(72.321057092086,21)" font-family="sans-serif" font-size="18px" fill="#000" opacity="1">0.2</text><text text-anchor="middle" transform="translate(108.71082698453726,21)" font-family="sans-serif" font-size="18px" fill="#000" opacity="1">0.3</text><text text-anchor="middle" transform="translate(145.10059687698856,21)" font-family="sans-serif" font-size="18px" fill="#000" opacity="1">0.4</text><text text-anchor="middle" transform="translate(181.49036676943985,21)" font-family="sans-serif" font-size="18px" fill="#000" opacity="1">0.5</text><text text-anchor="middle" transform="translate(217.8801366618911,21)" font-family="sans-serif" font-size="18px" fill="#000" opacity="1">0.6</text><text text-anchor="middle" transform="translate(254.26990655434236,21)" font-family="sans-serif" font-size="18px" fill="#000" opacity="1">0.7</text><text text-anchor="middle" transform="translate(290.6596764467937,21)" font-family="sans-serif" font-size="18px" fill="#000" opacity="1">0.8</text></g><g class="mark-rule role-axis-domain" pointer-events="none"><line transform="translate(0,0)" x2="300" y2="0" stroke="#888" stroke-width="1" opacity="1"/></g><g class="mark-text role-axis-title" pointer-events="none"><text text-anchor="middle" transform="translate(150,43)" font-family="sans-serif" font-size="18px" font-weight="bold" fill="#000" opacity="1">ฮฃ(๐ฟ(yแตข,sแตข)-๐ซ)ยฒ / N</text></g></g><path class="foreground" aria-hidden="true" d="" pointer-events="none" display="none"/></g></g><g class="mark-group role-axis" role="graphics-symbol" aria-roledescription="axis" aria-label="Y-axis titled '๐ฟ'๐ฎ๐ฟ'แต' for a linear scale with values from 0.0 to 0.8"><g transform="translate(0.5,0.5)"><path class="background" aria-hidden="true" d="M0,0h0v0h0Z" pointer-events="none"/><g><g class="mark-rule role-axis-tick" pointer-events="none"><line transform="translate(0,264)" x2="-5" y2="0" stroke="#888" stroke-width="1" opacity="1"/><line transform="translate(0,228)" x2="-5" y2="0" stroke="#888" stroke-width="1" opacity="1"/><line transform="translate(0,191)" x2="-5" y2="0" stroke="#888" stroke-width="1" opacity="1"/><line transform="translate(0,155)" x2="-5" y2="0" stroke="#888" stroke-width="1" opacity="1"/><line transform="translate(0,119)" x2="-5" y2="0" stroke="#888" stroke-width="1" opacity="1"/><line transform="translate(0,82)" x2="-5" y2="0" stroke="#888" stroke-width="1" opacity="1"/><line transform="translate(0,46)" x2="-5" y2="0" stroke="#888" stroke-width="1" opacity="1"/><line transform="translate(0,9)" x2="-5" y2="0" stroke="#888" stroke-width="1" opacity="1"/></g><g class="mark-text role-axis-label" pointer-events="none"><text text-anchor="end" transform="translate(-7,269.0687128003653)" font-family="sans-serif" font-size="18px" fill="#000" opacity="1">0.1</text><text text-anchor="end" transform="translate(-7,232.678942907914)" font-family="sans-serif" font-size="18px" fill="#000" opacity="1">0.2</text><text text-anchor="end" transform="translate(-7,196.28917301546272)" font-family="sans-serif" font-size="18px" fill="#000" opacity="1">0.3</text><text text-anchor="end" transform="translate(-7,159.89940312301144)" font-family="sans-serif" font-size="18px" fill="#000" opacity="1">0.4</text><text text-anchor="end" transform="translate(-7,123.50963323056015)" font-family="sans-serif" font-size="18px" fill="#000" opacity="1">0.5</text><text text-anchor="end" transform="translate(-7,87.11986333810891)" font-family="sans-serif" font-size="18px" fill="#000" opacity="1">0.6</text><text text-anchor="end" transform="translate(-7,50.73009344565764)" font-family="sans-serif" font-size="18px" fill="#000" opacity="1">0.7</text><text text-anchor="end" transform="translate(-7,14.340323553206332)" font-family="sans-serif" font-size="18px" fill="#000" opacity="1">0.8</text></g><g class="mark-rule role-axis-domain" pointer-events="none"><line transform="translate(0,300)" x2="0" y2="-300" stroke="#888" stroke-width="1" opacity="1"/></g><g class="mark-text role-axis-title" pointer-events="none"><text text-anchor="middle" transform="translate(-36.0224609375,150) rotate(-90) translate(0,-4)" font-family="sans-serif" font-size="18px" font-weight="bold" fill="#000" opacity="1">๐ฟ'๐ฎ๐ฟ'แต</text></g></g><path class="foreground" aria-hidden="true" d="" pointer-events="none" display="none"/></g></g><g class="mark-rule role-mark layer_0_marks" role="graphics-symbol" aria-roledescription="rule mark container"><line transform="translate(0,300)" x2="300" y2="-300" stroke="black" stroke-dasharray="8,8"/></g><g class="mark-symbol role-mark layer_1_marks" role="graphics-object" aria-roledescription="symbol mark container"><path aria-label="all_draws: 0.441284748896; delta_method: 0.530156009085" role="graphics-symbol" aria-roledescription="circle" transform="translate(160.1240220008884,107.53593091560275)" d="M3.873,0A3.873,3.873,0,1,1,-3.873,0A3.873,3.873,0,1,1,3.873,0" fill="#4c78a8" stroke-width="2" opacity="0.7"/><path aria-label="all_draws: 0.646412768517; delta_method: 0.710619469638" role="graphics-symbol" aria-roledescription="circle" transform="translate(234.7696363260766,41.86569288074969)" d="M3.873,0A3.873,3.873,0,1,1,-3.873,0A3.873,3.873,0,1,1,3.873,0" fill="#4c78a8" stroke-width="2" opacity="0.7"/><path aria-label="all_draws: 0.5948780623; delta_method: 0.630271210378" role="graphics-symbol" aria-roledescription="circle" transform="translate(216.016275318698,71.10423953778982)" d="M3.873,0A3.873,3.873,0,1,1,-3.873,0A3.873,3.873,0,1,1,3.873,0" fill="#4c78a8" stroke-width="2" opacity="0.7"/><path aria-label="all_draws: 0.0454876962411; delta_method: 0.0449779962414" role="graphics-symbol" aria-roledescription="circle" transform="translate(16.094385298710165,284.09109335835285)" d="M3.873,0A3.873,3.873,0,1,1,-3.873,0A3.873,3.873,0,1,1,3.873,0" fill="#4c78a8" stroke-width="2" opacity="0.7"/><path aria-label="all_draws: 0.125376355792; delta_method: 0.118227680107" role="graphics-symbol" aria-roledescription="circle" transform="translate(45.16568467952762,257.4357019526442)" d="M3.873,0A3.873,3.873,0,1,1,-3.873,0A3.873,3.873,0,1,1,3.873,0" fill="#4c78a8" stroke-width="2" opacity="0.7"/><path aria-label="all_draws: 0.0349788385707; delta_method: 0.035845668265" role="graphics-symbol" aria-roledescription="circle" transform="translate(12.270236174115182,287.4143264947693)" d="M3.873,0A3.873,3.873,0,1,1,-3.873,0A3.873,3.873,0,1,1,3.873,0" fill="#4c78a8" stroke-width="2" opacity="0.7"/><path aria-label="all_draws: 0.278491070493; delta_method: 0.276159214591" role="graphics-symbol" aria-roledescription="circle" transform="translate(100.88377703062059,199.9647799662902)" d="M3.873,0A3.873,3.873,0,1,1,-3.873,0A3.873,3.873,0,1,1,3.873,0" fill="#4c78a8" stroke-width="2" opacity="0.7"/><path aria-label="all_draws: 0.582073747345; delta_method: 0.576799497382" role="graphics-symbol" aria-roledescription="circle" transform="translate(211.3568145704101,90.56247285470886)" d="M3.873,0A3.873,3.873,0,1,1,-3.873,0A3.873,3.873,0,1,1,3.873,0" fill="#4c78a8" stroke-width="2" opacity="0.7"/><path aria-label="all_draws: 0.242733541572; delta_method: 0.251266645891" role="graphics-symbol" aria-roledescription="circle" transform="translate(87.87169453688874,209.02312843665803)" d="M3.873,0A3.873,3.873,0,1,1,-3.873,0A3.873,3.873,0,1,1,3.873,0" fill="#4c78a8" stroke-width="2" opacity="0.7"/><path aria-label="all_draws: 0.477166836947; delta_method: 0.52781684591" role="graphics-symbol" aria-roledescription="circle" transform="translate(173.18143127517348,108.38714701240902)" d="M3.873,0A3.873,3.873,0,1,1,-3.873,0A3.873,3.873,0,1,1,3.873,0" fill="#4c78a8" stroke-width="2" opacity="0.7"/><path aria-label="all_draws: 0.788521080147; delta_method: 0.825667443297" role="graphics-symbol" aria-roledescription="circle" transform="translate(286.4825239261759,0)" d="M3.873,0A3.873,3.873,0,1,1,-3.873,0A3.873,3.873,0,1,1,3.873,0" fill="#4c78a8" stroke-width="2" opacity="0.7"/><path aria-label="all_draws: 0.610115275892; delta_method: 0.647804164271" role="graphics-symbol" aria-roledescription="circle" transform="translate(221.56106228293837,64.72403796082577)" d="M3.873,0A3.873,3.873,0,1,1,-3.873,0A3.873,3.873,0,1,1,3.873,0" fill="#4c78a8" stroke-width="2" opacity="0.7"/><path aria-label="all_draws: 0.0720982942236; delta_method: 0.0585706747864" role="graphics-symbol" aria-roledescription="circle" transform="translate(25.77792067151766,279.14474891358805)" d="M3.873,0A3.873,3.873,0,1,1,-3.873,0A3.873,3.873,0,1,1,3.873,0" fill="#4c78a8" stroke-width="2" opacity="0.7"/><path aria-label="all_draws: 0.0241308525876; delta_method: 0.0199034535655" role="graphics-symbol" aria-roledescription="circle" transform="translate(8.322679036898451,293.2156617396983)" d="M3.873,0A3.873,3.873,0,1,1,-3.873,0A3.873,3.873,0,1,1,3.873,0" fill="#4c78a8" stroke-width="2" opacity="0.7"/><path aria-label="all_draws: 0.0880710751315; delta_method: 0.072612704961" role="graphics-symbol" aria-roledescription="circle" transform="translate(31.590378889328967,274.03488644483)" d="M3.873,0A3.873,3.873,0,1,1,-3.873,0A3.873,3.873,0,1,1,3.873,0" fill="#4c78a8" stroke-width="2" opacity="0.7"/><path aria-label="all_draws: 0.0625520201934; delta_method: 0.0604587933541" role="graphics-symbol" aria-roledescription="circle" transform="translate(22.304053518624297,278.45766691151914)" d="M3.873,0A3.873,3.873,0,1,1,-3.873,0A3.873,3.873,0,1,1,3.873,0" fill="#4c78a8" stroke-width="2" opacity="0.7"/><path aria-label="all_draws: 0.147427856282; delta_method: 0.127224528769" role="graphics-symbol" aria-roledescription="circle" transform="translate(53.19017496571459,254.161769427181)" d="M3.873,0A3.873,3.873,0,1,1,-3.873,0A3.873,3.873,0,1,1,3.873,0" fill="#4c78a8" stroke-width="2" opacity="0.7"/><path aria-label="all_draws: 0.0321265031004; delta_method: 0.0318258397291" role="graphics-symbol" aria-roledescription="circle" transform="translate(11.232277859921716,288.8771328490653)" d="M3.873,0A3.873,3.873,0,1,1,-3.873,0A3.873,3.873,0,1,1,3.873,0" fill="#4c78a8" stroke-width="2" opacity="0.7"/><path aria-label="all_draws: 0.0564417058788; delta_method: 0.0669822534625" role="graphics-symbol" aria-roledescription="circle" transform="translate(20.080524199869412,276.08379478904146)" d="M3.873,0A3.873,3.873,0,1,1,-3.873,0A3.873,3.873,0,1,1,3.873,0" fill="#4c78a8" stroke-width="2" opacity="0.7"/><path aria-label="all_draws: 0.0903044253737; delta_method: 0.0977229281884" role="graphics-symbol" aria-roledescription="circle" transform="translate(32.403089903372376,264.89733399288673)" d="M3.873,0A3.873,3.873,0,1,1,-3.873,0A3.873,3.873,0,1,1,3.873,0" fill="#4c78a8" stroke-width="2" opacity="0.7"/><path aria-label="all_draws: 0.0783144191118; delta_method: 0.0884611404993" role="graphics-symbol" aria-roledescription="circle" transform="translate(28.039954214568326,268.2676772208937)" d="M3.873,0A3.873,3.873,0,1,1,-3.873,0A3.873,3.873,0,1,1,3.873,0" fill="#4c78a8" stroke-width="2" opacity="0.7"/><path aria-label="all_draws: 0.00344967573886; delta_method: 0.00328611290514" role="graphics-symbol" aria-roledescription="circle" transform="translate(0.796846370591745,299.26267376822835)" d="M3.873,0A3.873,3.873,0,1,1,-3.873,0A3.873,3.873,0,1,1,3.873,0" fill="#4c78a8" stroke-width="2" opacity="0.7"/><path aria-label="all_draws: 0.00986175113418; delta_method: 0.0103665059162" role="graphics-symbol" aria-roledescription="circle" transform="translate(3.1301858522779975,296.68613504403555)" d="M3.873,0A3.873,3.873,0,1,1,-3.873,0A3.873,3.873,0,1,1,3.873,0" fill="#4c78a8" stroke-width="2" opacity="0.7"/><path aria-label="all_draws: 0.00309015916138; delta_method: 0.00306077759784" role="graphics-symbol" aria-roledescription="circle" transform="translate(0.6660191153208366,299.3446727680438)" d="M3.873,0A3.873,3.873,0,1,1,-3.873,0A3.873,3.873,0,1,1,3.873,0" fill="#4c78a8" stroke-width="2" opacity="0.7"/><path aria-label="all_draws: 0.029796585667; delta_method: 0.0310782018947" role="graphics-symbol" aria-roledescription="circle" transform="translate(10.384426267224422,289.1491965366193)" d="M3.873,0A3.873,3.873,0,1,1,-3.873,0A3.873,3.873,0,1,1,3.873,0" fill="#4c78a8" stroke-width="2" opacity="0.7"/><path aria-label="all_draws: 0.0853781790838; delta_method: 0.0810018480304" role="graphics-symbol" aria-roledescription="circle" transform="translate(30.610440214132932,270.9820965859122)" d="M3.873,0A3.873,3.873,0,1,1,-3.873,0A3.873,3.873,0,1,1,3.873,0" fill="#4c78a8" stroke-width="2" opacity="0.7"/><path aria-label="all_draws: 0.0304612661411; delta_method: 0.0307935375509" role="graphics-symbol" aria-roledescription="circle" transform="translate(10.626301962259634,289.2527852362928)" d="M3.873,0A3.873,3.873,0,1,1,-3.873,0A3.873,3.873,0,1,1,3.873,0" fill="#4c78a8" stroke-width="2" opacity="0.7"/><path aria-label="all_draws: 0.0591388895151; delta_method: 0.0660718886584" role="graphics-symbol" aria-roledescription="circle" transform="translate(21.062023118680617,276.41507444642144)" d="M3.873,0A3.873,3.873,0,1,1,-3.873,0A3.873,3.873,0,1,1,3.873,0" fill="#4c78a8" stroke-width="2" opacity="0.7"/><path aria-label="all_draws: 0.0926392805353; delta_method: 0.105326334621" role="graphics-symbol" aria-roledescription="circle" transform="translate(33.25273832399504,262.1304718880798)" d="M3.873,0A3.873,3.873,0,1,1,-3.873,0A3.873,3.873,0,1,1,3.873,0" fill="#4c78a8" stroke-width="2" opacity="0.7"/><path aria-label="all_draws: 0.0836648758538; delta_method: 0.0902585131865" role="graphics-symbol" aria-roledescription="circle" transform="translate(29.98697311116854,267.6136174358959)" d="M3.873,0A3.873,3.873,0,1,1,-3.873,0A3.873,3.873,0,1,1,3.873,0" fill="#4c78a8" stroke-width="2" opacity="0.7"/><path aria-label="all_draws: 0.00328379420901; delta_method: 0.00321429901053" role="graphics-symbol" aria-roledescription="circle" transform="translate(0.7364824635829633,299.28880667922795)" d="M3.873,0A3.873,3.873,0,1,1,-3.873,0A3.873,3.873,0,1,1,3.873,0" fill="#4c78a8" stroke-width="2" opacity="0.7"/><path aria-label="all_draws: 0.0013662611254; delta_method: 0.00131254667355" role="graphics-symbol" aria-roledescription="circle" transform="translate(0.038696586844798535,299.980849978581)" d="M3.873,0A3.873,3.873,0,1,1,-3.873,0A3.873,3.873,0,1,1,3.873,0" fill="#4c78a8" stroke-width="2" opacity="0.7"/><path aria-label="all_draws: 0.00431518093799; delta_method: 0.00439040597674" role="graphics-symbol" aria-roledescription="circle" transform="translate(1.1118017209602535,298.86082406053697)" d="M3.873,0A3.873,3.873,0,1,1,-3.873,0A3.873,3.873,0,1,1,3.873,0" fill="#4c78a8" stroke-width="2" opacity="0.7"/><path aria-label="all_draws: 0.00415068265921; delta_method: 0.0039584689475" role="graphics-symbol" aria-roledescription="circle" transform="translate(1.0519411758346262,299.01800495155896)" d="M3.873,0A3.873,3.873,0,1,1,-3.873,0A3.873,3.873,0,1,1,3.873,0" fill="#4c78a8" stroke-width="2" opacity="0.7"/><path aria-label="all_draws: 0.00857594417805; delta_method: 0.00886926846484" role="graphics-symbol" aria-roledescription="circle" transform="translate(2.6622836596797357,297.2309763073185)" d="M3.873,0A3.873,3.873,0,1,1,-3.873,0A3.873,3.873,0,1,1,3.873,0" fill="#4c78a8" stroke-width="2" opacity="0.7"/><path aria-label="all_draws: 0.00206222324599; delta_method: 0.00202036241458" role="graphics-symbol" aria-roledescription="circle" transform="translate(0.29195560106928825,299.7232774591583)" d="M3.873,0A3.873,3.873,0,1,1,-3.873,0A3.873,3.873,0,1,1,3.873,0" fill="#4c78a8" stroke-width="2" opacity="0.7"/><path aria-label="all_draws: 0.0610390164793; delta_method: 0.0673371784073" role="graphics-symbol" aria-roledescription="circle" transform="translate(21.753474948598956,275.9546384183393)" d="M3.873,0A3.873,3.873,0,1,1,-3.873,0A3.873,3.873,0,1,1,3.873,0" fill="#4c78a8" stroke-width="2" opacity="0.7"/><path aria-label="all_draws: 0.0890396153292; delta_method: 0.0964391458216" role="graphics-symbol" aria-roledescription="circle" transform="translate(31.94282843861384,265.3644994420819)" d="M3.873,0A3.873,3.873,0,1,1,-3.873,0A3.873,3.873,0,1,1,3.873,0" fill="#4c78a8" stroke-width="2" opacity="0.7"/><path aria-label="all_draws: 0.0708765388242; delta_method: 0.0856716159423" role="graphics-symbol" aria-roledescription="circle" transform="translate(25.333326693051863,269.2827787882577)" d="M3.873,0A3.873,3.873,0,1,1,-3.873,0A3.873,3.873,0,1,1,3.873,0" fill="#4c78a8" stroke-width="2" opacity="0.7"/><path aria-label="all_draws: 0.00442068409157; delta_method: 0.00450042509322" role="graphics-symbol" aria-roledescription="circle" transform="translate(1.1501940757781037,298.820788357212)" d="M3.873,0A3.873,3.873,0,1,1,-3.873,0A3.873,3.873,0,1,1,3.873,0" fill="#4c78a8" stroke-width="2" opacity="0.7"/><path aria-label="all_draws: 0.0134500881676; delta_method: 0.0141386656077" role="graphics-symbol" aria-roledescription="circle" transform="translate(4.435973441707471,295.3134548122941)" d="M3.873,0A3.873,3.873,0,1,1,-3.873,0A3.873,3.873,0,1,1,3.873,0" fill="#4c78a8" stroke-width="2" opacity="0.7"/><path aria-label="all_draws: 0.00525313609397; delta_method: 0.00505833571228" role="graphics-symbol" aria-roledescription="circle" transform="translate(1.4531214439177742,298.61776596672956)" d="M3.873,0A3.873,3.873,0,1,1,-3.873,0A3.873,3.873,0,1,1,3.873,0" fill="#4c78a8" stroke-width="2" opacity="0.7"/><path aria-label="all_draws: 0.0211932405243; delta_method: 0.0237036861932" role="graphics-symbol" aria-roledescription="circle" transform="translate(7.253688766721096,291.8327658310944)" d="M3.873,0A3.873,3.873,0,1,1,-3.873,0A3.873,3.873,0,1,1,3.873,0" fill="#4c78a8" stroke-width="2" opacity="0.7"/><path aria-label="all_draws: 0.058469512867; delta_method: 0.0564545792267" role="graphics-symbol" aria-roledescription="circle" transform="translate(20.81843849673183,279.9147912184815)" d="M3.873,0A3.873,3.873,0,1,1,-3.873,0A3.873,3.873,0,1,1,3.873,0" fill="#4c78a8" stroke-width="2" opacity="0.7"/><path aria-label="all_draws: 0.0213922399064; delta_method: 0.0208403514144" role="graphics-symbol" aria-roledescription="circle" transform="translate(7.3261041839609105,292.8747267683407)" d="M3.873,0A3.873,3.873,0,1,1,-3.873,0A3.873,3.873,0,1,1,3.873,0" fill="#4c78a8" stroke-width="2" opacity="0.7"/><path aria-label="all_draws: 0.0577107629707; delta_method: 0.0660389881652" role="graphics-symbol" aria-roledescription="circle" transform="translate(20.542331155383465,276.4270468601805)" d="M3.873,0A3.873,3.873,0,1,1,-3.873,0A3.873,3.873,0,1,1,3.873,0" fill="#4c78a8" stroke-width="2" opacity="0.7"/><path aria-label="all_draws: 0.0970840506482; delta_method: 0.108067628565" role="graphics-symbol" aria-roledescription="circle" transform="translate(34.8701799403254,261.13292132966694)" d="M3.873,0A3.873,3.873,0,1,1,-3.873,0A3.873,3.873,0,1,1,3.873,0" fill="#4c78a8" stroke-width="2" opacity="0.7"/><path aria-label="all_draws: 0.0704819142234; delta_method: 0.0858812049563" role="graphics-symbol" aria-roledescription="circle" transform="translate(25.189723708888458,269.2065098283471)" d="M3.873,0A3.873,3.873,0,1,1,-3.873,0A3.873,3.873,0,1,1,3.873,0" fill="#4c78a8" stroke-width="2" opacity="0.7"/><path aria-label="all_draws: 0.00234985122238; delta_method: 0.00223251945762" role="graphics-symbol" aria-roledescription="circle" transform="translate(0.3966227598240199,299.64607399938325)" d="M3.873,0A3.873,3.873,0,1,1,-3.873,0A3.873,3.873,0,1,1,3.873,0" fill="#4c78a8" stroke-width="2" opacity="0.7"/><path aria-label="all_draws: 0.00125992193458; delta_method: 0.00132325633319" role="graphics-symbol" aria-roledescription="circle" transform="translate(0,299.97695275808275)" d="M3.873,0A3.873,3.873,0,1,1,-3.873,0A3.873,3.873,0,1,1,3.873,0" fill="#4c78a8" stroke-width="2" opacity="0.7"/><path aria-label="all_draws: 0.00306526015347; delta_method: 0.00306162154099" role="graphics-symbol" aria-roledescription="circle" transform="translate(0.6569584236357084,299.344365659071)" d="M3.873,0A3.873,3.873,0,1,1,-3.873,0A3.873,3.873,0,1,1,3.873,0" fill="#4c78a8" stroke-width="2" opacity="0.7"/><path aria-label="all_draws: 0.00795345958414; delta_method: 0.0076688984943" role="graphics-symbol" aria-roledescription="circle" transform="translate(2.4357629483420626,297.66778817745353)" d="M3.873,0A3.873,3.873,0,1,1,-3.873,0A3.873,3.873,0,1,1,3.873,0" fill="#4c78a8" stroke-width="2" opacity="0.7"/><path aria-label="all_draws: 0.0185006768358; delta_method: 0.0176065127161" role="graphics-symbol" aria-roledescription="circle" transform="translate(6.273871036288375,294.0515132293496)" d="M3.873,0A3.873,3.873,0,1,1,-3.873,0A3.873,3.873,0,1,1,3.873,0" fill="#4c78a8" stroke-width="2" opacity="0.7"/><path aria-label="all_draws: 0.00422162543403; delta_method: 0.00404260592873" role="graphics-symbol" aria-roledescription="circle" transform="translate(1.0777570883496919,298.98738769769403)" d="M3.873,0A3.873,3.873,0,1,1,-3.873,0A3.873,3.873,0,1,1,3.873,0" fill="#4c78a8" stroke-width="2" opacity="0.7"/><path aria-label="all_draws: 0.447716934154; delta_method: 0.527129755703" role="graphics-symbol" aria-roledescription="circle" transform="translate(162.46467941546203,108.63717755777682)" d="M3.873,0A3.873,3.873,0,1,1,-3.873,0A3.873,3.873,0,1,1,3.873,0" fill="#4c78a8" stroke-width="2" opacity="0.7"/><path aria-label="all_draws: 0.655966488927; delta_method: 0.707766726421" role="graphics-symbol" aria-roledescription="circle" transform="translate(238.246213199181,42.90379957282837)" d="M3.873,0A3.873,3.873,0,1,1,-3.873,0A3.873,3.873,0,1,1,3.873,0" fill="#4c78a8" stroke-width="2" opacity="0.7"/><path aria-label="all_draws: 0.595344326157; delta_method: 0.626654238034" role="graphics-symbol" aria-roledescription="circle" transform="translate(216.18594766345933,72.42044745081462)" d="M3.873,0A3.873,3.873,0,1,1,-3.873,0A3.873,3.873,0,1,1,3.873,0" fill="#4c78a8" stroke-width="2" opacity="0.7"/><path aria-label="all_draws: 0.0446627468954; delta_method: 0.0443166253785" role="graphics-symbol" aria-roledescription="circle" transform="translate(15.79418813007483,284.3317646934968)" d="M3.873,0A3.873,3.873,0,1,1,-3.873,0A3.873,3.873,0,1,1,3.873,0" fill="#4c78a8" stroke-width="2" opacity="0.7"/><path aria-label="all_draws: 0.124863611674; delta_method: 0.118491570661" role="graphics-symbol" aria-roledescription="circle" transform="translate(44.97909827480945,257.3396727873488)" d="M3.873,0A3.873,3.873,0,1,1,-3.873,0A3.873,3.873,0,1,1,3.873,0" fill="#4c78a8" stroke-width="2" opacity="0.7"/><path aria-label="all_draws: 0.0346088091322; delta_method: 0.0356823164423" role="graphics-symbol" aria-roledescription="circle" transform="translate(12.135583312903877,287.4737698471836)" d="M3.873,0A3.873,3.873,0,1,1,-3.873,0A3.873,3.873,0,1,1,3.873,0" fill="#4c78a8" stroke-width="2" opacity="0.7"/><path aria-label="all_draws: 0.277168743642; delta_method: 0.27345531858" role="graphics-symbol" aria-roledescription="circle" transform="translate(100.40258533225241,200.94872150303095)" d="M3.873,0A3.873,3.873,0,1,1,-3.873,0A3.873,3.873,0,1,1,3.873,0" fill="#4c78a8" stroke-width="2" opacity="0.7"/><path aria-label="all_draws: 0.593957883826; delta_method: 0.575197237546" role="graphics-symbol" aria-roledescription="circle" transform="translate(215.68142448938,91.1455315222501)" d="M3.873,0A3.873,3.873,0,1,1,-3.873,0A3.873,3.873,0,1,1,3.873,0" fill="#4c78a8" stroke-width="2" opacity="0.7"/><path aria-label="all_draws: 0.249630403551; delta_method: 0.248890995737" role="graphics-symbol" aria-roledescription="circle" transform="translate(90.38144674103245,209.8876220609311)" d="M3.873,0A3.873,3.873,0,1,1,-3.873,0A3.873,3.873,0,1,1,3.873,0" fill="#4c78a8" stroke-width="2" opacity="0.7"/><path aria-label="all_draws: 0.479230341319; delta_method: 0.523986189489" role="graphics-symbol" aria-roledescription="circle" transform="translate(173.93233576809223,109.78111406938025)" d="M3.873,0A3.873,3.873,0,1,1,-3.873,0A3.873,3.873,0,1,1,3.873,0" fill="#4c78a8" stroke-width="2" opacity="0.7"/><path aria-label="all_draws: 0.781018579708; delta_method: 0.822701695378" role="graphics-symbol" aria-roledescription="circle" transform="translate(283.75238128033476,1.0792288434695485)" d="M3.873,0A3.873,3.873,0,1,1,-3.873,0A3.873,3.873,0,1,1,3.873,0" fill="#4c78a8" stroke-width="2" opacity="0.7"/><path aria-label="all_draws: 0.610940721988; delta_method: 0.643239849322" role="graphics-symbol" aria-roledescription="circle" transform="translate(221.86144021794192,66.38498166800242)" d="M3.873,0A3.873,3.873,0,1,1,-3.873,0A3.873,3.873,0,1,1,3.873,0" fill="#4c78a8" stroke-width="2" opacity="0.7"/><path aria-label="all_draws: 0.0704077833557; delta_method: 0.0583285680773" role="graphics-symbol" aria-roledescription="circle" transform="translate(25.16274765668322,279.2328509879086)" d="M3.873,0A3.873,3.873,0,1,1,-3.873,0A3.873,3.873,0,1,1,3.873,0" fill="#4c78a8" stroke-width="2" opacity="0.7"/><path aria-label="all_draws: 0.0233024551474; delta_method: 0.0197126751294" role="graphics-symbol" aria-roledescription="circle" transform="translate(8.02122711463174,293.2850855735647)" d="M3.873,0A3.873,3.873,0,1,1,-3.873,0A3.873,3.873,0,1,1,3.873,0" fill="#4c78a8" stroke-width="2" opacity="0.7"/><path aria-label="all_draws: 0.0863971165982; delta_method: 0.0724827719227" role="graphics-symbol" aria-roledescription="circle" transform="translate(30.981229230964423,274.08216877848787)" d="M3.873,0A3.873,3.873,0,1,1,-3.873,0A3.873,3.873,0,1,1,3.873,0" fill="#4c78a8" stroke-width="2" opacity="0.7"/><path aria-label="all_draws: 0.062790277737; delta_method: 0.0604023308416" role="graphics-symbol" aria-roledescription="circle" transform="translate(22.39075489050299,278.478213489872)" d="M3.873,0A3.873,3.873,0,1,1,-3.873,0A3.873,3.873,0,1,1,3.873,0" fill="#4c78a8" stroke-width="2" opacity="0.7"/><path aria-label="all_draws: 0.141897528425; delta_method: 0.125057350109" role="graphics-symbol" aria-roledescription="circle" transform="translate(51.177701384088955,254.95040075445436)" d="M3.873,0A3.873,3.873,0,1,1,-3.873,0A3.873,3.873,0,1,1,3.873,0" fill="#4c78a8" stroke-width="2" opacity="0.7"/><path aria-label="all_draws: 0.0317370001027; delta_method: 0.0321082944231" role="graphics-symbol" aria-roledescription="circle" transform="translate(11.090538615336651,288.7743482358549)" d="M3.873,0A3.873,3.873,0,1,1,-3.873,0A3.873,3.873,0,1,1,3.873,0" fill="#4c78a8" stroke-width="2" opacity="0.7"/></g></g><path class="foreground" aria-hidden="true" d="" display="none"/></g></g></g></svg>