<svg xmlns="http://www.w3.org/2000/svg" xmlns:xlink="http://www.w3.org/1999/xlink" version="1.1" class="marks" width="382" height="363" viewBox="0 0 382 363"><rect width="382" height="363" fill="white"/><g fill="none" stroke-miterlimit="10" transform="translate(65,11)"><g class="mark-group role-frame root" role="graphics-object" aria-roledescription="group mark container"><g transform="translate(0,0)"><path class="background" aria-hidden="true" d="M0.5,0.5h300v300h-300Z" stroke="#ddd"/><g><g class="mark-group role-axis" aria-hidden="true"><g transform="translate(0.5,300.5)"><path class="background" aria-hidden="true" d="M0,0h0v0h0Z" pointer-events="none"/><g><g class="mark-rule role-axis-grid" pointer-events="none"><line transform="translate(49,-300)" x2="0" y2="300" stroke="#ddd" stroke-width="1" opacity="1"/><line transform="translate(99,-300)" x2="0" y2="300" stroke="#ddd" stroke-width="1" opacity="1"/><line transform="translate(148,-300)" x2="0" y2="300" stroke="#ddd" stroke-width="1" opacity="1"/><line transform="translate(197,-300)" x2="0" y2="300" stroke="#ddd" stroke-width="1" opacity="1"/><line transform="translate(247,-300)" x2="0" y2="300" stroke="#ddd" stroke-width="1" opacity="1"/><line transform="translate(296,-300)" x2="0" y2="300" stroke="#ddd" stroke-width="1" opacity="1"/></g></g><path class="foreground" aria-hidden="true" d="" pointer-events="none" display="none"/></g></g><g class="mark-group role-axis" aria-hidden="true"><g transform="translate(0.5,0.5)"><path class="background" aria-hidden="true" d="M0,0h0v0h0Z" pointer-events="none"/><g><g class="mark-rule role-axis-grid" pointer-events="none"><line transform="translate(0,251)" x2="300" y2="0" stroke="#ddd" stroke-width="1" opacity="1"/><line transform="translate(0,201)" x2="300" y2="0" stroke="#ddd" stroke-width="1" opacity="1"/><line transform="translate(0,152)" x2="300" y2="0" stroke="#ddd" stroke-width="1" opacity="1"/><line transform="translate(0,103)" x2="300" y2="0" stroke="#ddd" stroke-width="1" opacity="1"/><line transform="translate(0,53)" x2="300" y2="0" stroke="#ddd" stroke-width="1" opacity="1"/><line transform="translate(0,4)" x2="300" y2="0" stroke="#ddd" stroke-width="1" opacity="1"/></g></g><path class="foreground" aria-hidden="true" d="" pointer-events="none" display="none"/></g></g><g class="mark-group role-axis" role="graphics-symbol" aria-roledescription="axis" aria-label="X-axis titled 'Σ𝞿(yᵢ,sᵢ) / N' for a linear scale with values from 0 to 122"><g transform="translate(0.5,300.5)"><path class="background" aria-hidden="true" d="M0,0h0v0h0Z" pointer-events="none"/><g><g class="mark-rule role-axis-tick" pointer-events="none"><line transform="translate(49,0)" x2="0" y2="5" stroke="#888" stroke-width="1" opacity="1"/><line transform="translate(99,0)" x2="0" y2="5" stroke="#888" stroke-width="1" opacity="1"/><line transform="translate(148,0)" x2="0" y2="5" stroke="#888" stroke-width="1" opacity="1"/><line transform="translate(197,0)" x2="0" y2="5" stroke="#888" stroke-width="1" opacity="1"/><line transform="translate(247,0)" x2="0" y2="5" stroke="#888" stroke-width="1" opacity="1"/><line transform="translate(296,0)" x2="0" y2="5" stroke="#888" stroke-width="1" opacity="1"/></g><g class="mark-text role-axis-label" pointer-events="none"><text text-anchor="middle" transform="translate(49.333137879197785,21)" font-family="sans-serif" font-size="18px" fill="#000" opacity="1">20</text><text text-anchor="middle" transform="translate(98.6757644691283,21)" font-family="sans-serif" font-size="18px" fill="#000" opacity="1">40</text><text text-anchor="middle" transform="translate(148.01839105905879,21)" font-family="sans-serif" font-size="18px" fill="#000" opacity="1">60</text><text text-anchor="middle" transform="translate(197.36101764898925,21)" font-family="sans-serif" font-size="18px" fill="#000" opacity="1">80</text><text text-anchor="middle" transform="translate(246.70364423891974,21)" font-family="sans-serif" font-size="18px" fill="#000" opacity="1">100</text><text text-anchor="middle" transform="translate(296.04627082885025,21)" font-family="sans-serif" font-size="18px" fill="#000" opacity="1">120</text></g><g class="mark-rule role-axis-domain" pointer-events="none"><line transform="translate(0,0)" x2="300" y2="0" stroke="#888" stroke-width="1" opacity="1"/></g><g class="mark-text role-axis-title" pointer-events="none"><text text-anchor="middle" transform="translate(150,43)" font-family="sans-serif" font-size="18px" font-weight="bold" fill="#000" opacity="1">Σ𝞿(yᵢ,sᵢ) / N</text></g></g><path class="foreground" aria-hidden="true" d="" pointer-events="none" display="none"/></g></g><g class="mark-group role-axis" role="graphics-symbol" aria-roledescription="axis" aria-label="Y-axis titled '𝞿(y̅,s̅)' for a linear scale with values from 0 to 122"><g transform="translate(0.5,0.5)"><path class="background" aria-hidden="true" d="M0,0h0v0h0Z" pointer-events="none"/><g><g class="mark-rule role-axis-tick" pointer-events="none"><line transform="translate(0,251)" x2="-5" y2="0" stroke="#888" stroke-width="1" opacity="1"/><line transform="translate(0,201)" x2="-5" y2="0" stroke="#888" stroke-width="1" opacity="1"/><line transform="translate(0,152)" x2="-5" y2="0" stroke="#888" stroke-width="1" opacity="1"/><line transform="translate(0,103)" x2="-5" y2="0" stroke="#888" stroke-width="1" opacity="1"/><line transform="translate(0,53)" x2="-5" y2="0" stroke="#888" stroke-width="1" opacity="1"/><line transform="translate(0,4)" x2="-5" y2="0" stroke="#888" stroke-width="1" opacity="1"/></g><g class="mark-text role-axis-label" pointer-events="none"><text text-anchor="end" transform="translate(-7,255.66686212080222)" font-family="sans-serif" font-size="18px" fill="#000" opacity="1">20</text><text text-anchor="end" transform="translate(-7,206.3242355308717)" font-family="sans-serif" font-size="18px" fill="#000" opacity="1">40</text><text text-anchor="end" transform="translate(-7,156.98160894094121)" font-family="sans-serif" font-size="18px" fill="#000" opacity="1">60</text><text text-anchor="end" transform="translate(-7,107.63898235101074)" font-family="sans-serif" font-size="18px" fill="#000" opacity="1">80</text><text text-anchor="end" transform="translate(-7,58.296355761080264)" font-family="sans-serif" font-size="18px" fill="#000" opacity="1">100</text><text text-anchor="end" transform="translate(-7,8.953729171149744)" font-family="sans-serif" font-size="18px" fill="#000" opacity="1">120</text></g><g class="mark-rule role-axis-domain" pointer-events="none"><line transform="translate(0,300)" x2="0" y2="-300" stroke="#888" stroke-width="1" opacity="1"/></g><g class="mark-text role-axis-title" pointer-events="none"><text text-anchor="middle" transform="translate(-41.0322265625,150) rotate(-90) translate(0,-4)" font-family="sans-serif" font-size="18px" font-weight="bold" fill="#000" opacity="1">𝞿(y̅,s̅)</text></g></g><path class="foreground" aria-hidden="true" d="" pointer-events="none" display="none"/></g></g><g class="mark-rule role-mark layer_0_marks" role="graphics-symbol" aria-roledescription="rule mark container"><line transform="translate(0,300)" x2="300" y2="-300" stroke="black" stroke-dasharray="8,8"/></g><g class="mark-symbol role-mark layer_1_marks" role="graphics-object" aria-roledescription="symbol mark container"><path aria-label="all_draws: 46.2630370815; mean: 46.2743892435" role="graphics-symbol" aria-roledescription="circle" transform="translate(114.12749947075503,185.84449325485798)" d="M3.873,0A3.873,3.873,0,1,1,-3.873,0A3.873,3.873,0,1,1,3.873,0" fill="#4c78a8" stroke-width="2" opacity="0.7"/><path aria-label="all_draws: 121.602561292; mean: 121.584246983" role="graphics-symbol" aria-roledescription="circle" transform="translate(300,0.04518380539986211)" d="M3.873,0A3.873,3.873,0,1,1,-3.873,0A3.873,3.873,0,1,1,3.873,0" fill="#4c78a8" stroke-width="2" opacity="0.7"/><path aria-label="all_draws: 64.0725976549; mean: 64.0795603867" role="graphics-symbol" aria-roledescription="circle" transform="translate(158.06602432589918,141.91679770040582)" d="M3.873,0A3.873,3.873,0,1,1,-3.873,0A3.873,3.873,0,1,1,3.873,0" fill="#4c78a8" stroke-width="2" opacity="0.7"/><path aria-label="all_draws: 0.556865865447; mean: 0.559821351678" role="graphics-symbol" aria-roledescription="circle" transform="translate(1.3643725122388368,298.6283359150872)" d="M3.873,0A3.873,3.873,0,1,1,-3.873,0A3.873,3.873,0,1,1,3.873,0" fill="#4c78a8" stroke-width="2" opacity="0.7"/><path aria-label="all_draws: 2.28198930848; mean: 2.28587670788" role="graphics-symbol" aria-roledescription="circle" transform="translate(5.620478605803382,294.3699306693518)" d="M3.873,0A3.873,3.873,0,1,1,-3.873,0A3.873,3.873,0,1,1,3.873,0" fill="#4c78a8" stroke-width="2" opacity="0.7"/><path aria-label="all_draws: 0.385366570424; mean: 0.388339225901" role="graphics-symbol" aria-roledescription="circle" transform="translate(0.9412612285013818,299.05140484004)" d="M3.873,0A3.873,3.873,0,1,1,-3.873,0A3.873,3.873,0,1,1,3.873,0" fill="#4c78a8" stroke-width="2" opacity="0.7"/><path aria-label="all_draws: 8.87718945302; mean: 8.88054954434" role="graphics-symbol" aria-roledescription="circle" transform="translate(21.891703506699226,278.1000067067398)" d="M3.873,0A3.873,3.873,0,1,1,-3.873,0A3.873,3.873,0,1,1,3.873,0" fill="#4c78a8" stroke-width="2" opacity="0.7"/><path aria-label="all_draws: 28.7851116414; mean: 28.780474302" role="graphics-symbol" aria-roledescription="circle" transform="translate(71.00716204292254,229.00427888248234)" d="M3.873,0A3.873,3.873,0,1,1,-3.873,0A3.873,3.873,0,1,1,3.873,0" fill="#4c78a8" stroke-width="2" opacity="0.7"/><path aria-label="all_draws: 6.96378773443; mean: 6.96804767505" role="graphics-symbol" aria-roledescription="circle" transform="translate(17.171090180849642,282.8183999862015)" d="M3.873,0A3.873,3.873,0,1,1,-3.873,0A3.873,3.873,0,1,1,3.873,0" fill="#4c78a8" stroke-width="2" opacity="0.7"/><path aria-label="all_draws: 35.6916778557; mean: 35.6894037833" role="graphics-symbol" aria-roledescription="circle" transform="translate(88.0465679294792,211.95904250579153)" d="M3.873,0A3.873,3.873,0,1,1,-3.873,0A3.873,3.873,0,1,1,3.873,0" fill="#4c78a8" stroke-width="2" opacity="0.7"/><path aria-label="all_draws: 88.6045687111; mean: 88.5809255622" role="graphics-symbol" aria-roledescription="circle" transform="translate(218.58961869305688,81.46871206048301)" d="M3.873,0A3.873,3.873,0,1,1,-3.873,0A3.873,3.873,0,1,1,3.873,0" fill="#4c78a8" stroke-width="2" opacity="0.7"/><path aria-label="all_draws: 55.8446246697; mean: 55.8367320048" role="graphics-symbol" aria-roledescription="circle" transform="translate(137.76653439586357,162.25293784500752)" d="M3.873,0A3.873,3.873,0,1,1,-3.873,0A3.873,3.873,0,1,1,3.873,0" fill="#4c78a8" stroke-width="2" opacity="0.7"/><path aria-label="all_draws: 0.435850788236; mean: 0.439203739242" role="graphics-symbol" aria-roledescription="circle" transform="translate(1.065812423909811,298.92591540561625)" d="M3.873,0A3.873,3.873,0,1,1,-3.873,0A3.873,3.873,0,1,1,3.873,0" fill="#4c78a8" stroke-width="2" opacity="0.7"/><path aria-label="all_draws: 0.148247680175; mean: 0.149538978402" role="graphics-symbol" aria-roledescription="circle" transform="translate(0.35625778555210136,299.6405564121373)" d="M3.873,0A3.873,3.873,0,1,1,-3.873,0A3.873,3.873,0,1,1,3.873,0" fill="#4c78a8" stroke-width="2" opacity="0.7"/><path aria-label="all_draws: 0.577200104314; mean: 0.581860228605" role="graphics-symbol" aria-roledescription="circle" transform="translate(1.4145397500081895,298.57396311135443)" d="M3.873,0A3.873,3.873,0,1,1,-3.873,0A3.873,3.873,0,1,1,3.873,0" fill="#4c78a8" stroke-width="2" opacity="0.7"/><path aria-label="all_draws: 0.701453331494; mean: 0.70541128024" role="graphics-symbol" aria-roledescription="circle" transform="translate(1.7210887795746859,298.2691464410733)" d="M3.873,0A3.873,3.873,0,1,1,-3.873,0A3.873,3.873,0,1,1,3.873,0" fill="#4c78a8" stroke-width="2" opacity="0.7"/><path aria-label="all_draws: 1.78264308705; mean: 1.78743135153" role="graphics-symbol" aria-roledescription="circle" transform="translate(4.388525898630223,295.5996608240591)" d="M3.873,0A3.873,3.873,0,1,1,-3.873,0A3.873,3.873,0,1,1,3.873,0" fill="#4c78a8" stroke-width="2" opacity="0.7"/><path aria-label="all_draws: 0.301618371431; mean: 0.304580923067" role="graphics-symbol" aria-roledescription="circle" transform="translate(0.7346434229769058,299.25804757306645)" d="M3.873,0A3.873,3.873,0,1,1,-3.873,0A3.873,3.873,0,1,1,3.873,0" fill="#4c78a8" stroke-width="2" opacity="0.7"/><path aria-label="all_draws: 1.10687161401; mean: 1.10726923449" role="graphics-symbol" aria-roledescription="circle" transform="translate(2.72130892592549,297.2777100921327)" d="M3.873,0A3.873,3.873,0,1,1,-3.873,0A3.873,3.873,0,1,1,3.873,0" fill="#4c78a8" stroke-width="2" opacity="0.7"/><path aria-label="all_draws: 2.89319529581; mean: 2.89060858708" role="graphics-symbol" aria-roledescription="circle" transform="translate(7.128404045903568,292.8779777042407)" d="M3.873,0A3.873,3.873,0,1,1,-3.873,0A3.873,3.873,0,1,1,3.873,0" fill="#4c78a8" stroke-width="2" opacity="0.7"/><path aria-label="all_draws: 1.45917533683; mean: 1.46136442653" role="graphics-symbol" aria-roledescription="circle" transform="translate(3.590488477983164,296.4041107502307)" d="M3.873,0A3.873,3.873,0,1,1,-3.873,0A3.873,3.873,0,1,1,3.873,0" fill="#4c78a8" stroke-width="2" opacity="0.7"/><path aria-label="all_draws: 0.0147774138741; mean: 0.0147008548363" role="graphics-symbol" aria-roledescription="circle" transform="translate(0.026969110004929013,299.97321977119566)" d="M3.873,0A3.873,3.873,0,1,1,-3.873,0A3.873,3.873,0,1,1,3.873,0" fill="#4c78a8" stroke-width="2" opacity="0.7"/><path aria-label="all_draws: 0.0541196945767; mean: 0.0540109711445" role="graphics-symbol" aria-roledescription="circle" transform="translate(0.12403168330023417,299.8762365516855)" d="M3.873,0A3.873,3.873,0,1,1,-3.873,0A3.873,3.873,0,1,1,3.873,0" fill="#4c78a8" stroke-width="2" opacity="0.7"/><path aria-label="all_draws: 0.0105682544711; mean: 0.0105491715095" role="graphics-symbol" aria-roledescription="circle" transform="translate(0.01658456097101496,299.9834625192013)" d="M3.873,0A3.873,3.873,0,1,1,-3.873,0A3.873,3.873,0,1,1,3.873,0" fill="#4c78a8" stroke-width="2" opacity="0.7"/><path aria-label="all_draws: 0.260874347308; mean: 0.260355446568" role="graphics-symbol" aria-roledescription="circle" transform="translate(0.6341225645722178,299.36715763169906)" d="M3.873,0A3.873,3.873,0,1,1,-3.873,0A3.873,3.873,0,1,1,3.873,0" fill="#4c78a8" stroke-width="2" opacity="0.7"/><path aria-label="all_draws: 0.897337209635; mean: 0.895469344669" role="graphics-symbol" aria-roledescription="circle" transform="translate(2.2043600322797223,297.8002482358952)" d="M3.873,0A3.873,3.873,0,1,1,-3.873,0A3.873,3.873,0,1,1,3.873,0" fill="#4c78a8" stroke-width="2" opacity="0.7"/><path aria-label="all_draws: 0.195917114507; mean: 0.195378695423" role="graphics-symbol" aria-roledescription="circle" transform="translate(0.4738645404523482,299.52746381013947)" d="M3.873,0A3.873,3.873,0,1,1,-3.873,0A3.873,3.873,0,1,1,3.873,0" fill="#4c78a8" stroke-width="2" opacity="0.7"/><path aria-label="all_draws: 0.807468742897; mean: 0.808583639133" role="graphics-symbol" aria-roledescription="circle" transform="translate(1.9826427224587513,298.01460668210945)" d="M3.873,0A3.873,3.873,0,1,1,-3.873,0A3.873,3.873,0,1,1,3.873,0" fill="#4c78a8" stroke-width="2" opacity="0.7"/><path aria-label="all_draws: 1.89866455515; mean: 1.89809694885" role="graphics-symbol" aria-roledescription="circle" transform="translate(4.6747660974879395,295.3266342618113)" d="M3.873,0A3.873,3.873,0,1,1,-3.873,0A3.873,3.873,0,1,1,3.873,0" fill="#4c78a8" stroke-width="2" opacity="0.7"/><path aria-label="all_draws: 1.23490764004; mean: 1.23773934426" role="graphics-symbol" aria-roledescription="circle" transform="translate(3.037190617042543,296.95582319676424)" d="M3.873,0A3.873,3.873,0,1,1,-3.873,0A3.873,3.873,0,1,1,3.873,0" fill="#4c78a8" stroke-width="2" opacity="0.7"/><path aria-label="all_draws: 0.009683811734; mean: 0.00961774789782" role="graphics-symbol" aria-roledescription="circle" transform="translate(0.014402524585176497,299.9857604635748)" d="M3.873,0A3.873,3.873,0,1,1,-3.873,0A3.873,3.873,0,1,1,3.873,0" fill="#4c78a8" stroke-width="2" opacity="0.7"/><path aria-label="all_draws: 0.0042348463805; mean: 0.0042242540538" role="graphics-symbol" aria-roledescription="circle" transform="translate(0.0009592114482108083,299.99906692121283)" d="M3.873,0A3.873,3.873,0,1,1,-3.873,0A3.873,3.873,0,1,1,3.873,0" fill="#4c78a8" stroke-width="2" opacity="0.7"/><path aria-label="all_draws: 0.011359536339; mean: 0.01130954158" role="graphics-symbol" aria-roledescription="circle" transform="translate(0.018536757257768217,299.98158658637857)" d="M3.873,0A3.873,3.873,0,1,1,-3.873,0A3.873,3.873,0,1,1,3.873,0" fill="#4c78a8" stroke-width="2" opacity="0.7"/><path aria-label="all_draws: 0.0140676144975; mean: 0.0140111421196" role="graphics-symbol" aria-roledescription="circle" transform="translate(0.025217941725229096,299.97492138304744)" d="M3.873,0A3.873,3.873,0,1,1,-3.873,0A3.873,3.873,0,1,1,3.873,0" fill="#4c78a8" stroke-width="2" opacity="0.7"/><path aria-label="all_draws: 0.0388383514859; mean: 0.0388068453884" role="graphics-symbol" aria-roledescription="circle" transform="translate(0.08633060300424669,299.9137471266761)" d="M3.873,0A3.873,3.873,0,1,1,-3.873,0A3.873,3.873,0,1,1,3.873,0" fill="#4c78a8" stroke-width="2" opacity="0.7"/><path aria-label="all_draws: 0.00642398482793; mean: 0.00638737268713" role="graphics-symbol" aria-roledescription="circle" transform="translate(0.006360103496473093,299.9937302234631)" d="M3.873,0A3.873,3.873,0,1,1,-3.873,0A3.873,3.873,0,1,1,3.873,0" fill="#4c78a8" stroke-width="2" opacity="0.7"/><path aria-label="all_draws: 1.06697927808; mean: 1.06775669927" role="graphics-symbol" aria-roledescription="circle" transform="translate(2.6228892941415585,297.3751927056723)" d="M3.873,0A3.873,3.873,0,1,1,-3.873,0A3.873,3.873,0,1,1,3.873,0" fill="#4c78a8" stroke-width="2" opacity="0.7"/><path aria-label="all_draws: 2.9444884797; mean: 2.9419909261" role="graphics-symbol" aria-roledescription="circle" transform="translate(7.254951066869414,292.75121072585097)" d="M3.873,0A3.873,3.873,0,1,1,-3.873,0A3.873,3.873,0,1,1,3.873,0" fill="#4c78a8" stroke-width="2" opacity="0.7"/><path aria-label="all_draws: 1.54654099218; mean: 1.54826076942" role="graphics-symbol" aria-roledescription="circle" transform="translate(3.806031023431327,296.18972606026546)" d="M3.873,0A3.873,3.873,0,1,1,-3.873,0A3.873,3.873,0,1,1,3.873,0" fill="#4c78a8" stroke-width="2" opacity="0.7"/><path aria-label="all_draws: 0.0199247735887; mean: 0.0199040386419" role="graphics-symbol" aria-roledescription="circle" transform="translate(0.03966832242104496,299.96038283341585)" d="M3.873,0A3.873,3.873,0,1,1,-3.873,0A3.873,3.873,0,1,1,3.873,0" fill="#4c78a8" stroke-width="2" opacity="0.7"/><path aria-label="all_draws: 0.0720554237532; mean: 0.0719018446304" role="graphics-symbol" aria-roledescription="circle" transform="translate(0.16828148266887494,299.8320974171965)" d="M3.873,0A3.873,3.873,0,1,1,-3.873,0A3.873,3.873,0,1,1,3.873,0" fill="#4c78a8" stroke-width="2" opacity="0.7"/><path aria-label="all_draws: 0.0178054016638; mean: 0.0177200843498" role="graphics-symbol" aria-roledescription="circle" transform="translate(0.034439553546202296,299.96577093547194)" d="M3.873,0A3.873,3.873,0,1,1,-3.873,0A3.873,3.873,0,1,1,3.873,0" fill="#4c78a8" stroke-width="2" opacity="0.7"/><path aria-label="all_draws: 0.156676734915; mean: 0.156521877771" role="graphics-symbol" aria-roledescription="circle" transform="translate(0.3770533705781195,299.6233286823319)" d="M3.873,0A3.873,3.873,0,1,1,-3.873,0A3.873,3.873,0,1,1,3.873,0" fill="#4c78a8" stroke-width="2" opacity="0.7"/><path aria-label="all_draws: 0.453476026764; mean: 0.452017315963" role="graphics-symbol" aria-roledescription="circle" transform="translate(1.109296202072578,298.89430262904654)" d="M3.873,0A3.873,3.873,0,1,1,-3.873,0A3.873,3.873,0,1,1,3.873,0" fill="#4c78a8" stroke-width="2" opacity="0.7"/><path aria-label="all_draws: 0.125110676828; mean: 0.124772560864" role="graphics-symbol" aria-roledescription="circle" transform="translate(0.2991757597246979,299.7016584167647)" d="M3.873,0A3.873,3.873,0,1,1,-3.873,0A3.873,3.873,0,1,1,3.873,0" fill="#4c78a8" stroke-width="2" opacity="0.7"/><path aria-label="all_draws: 0.85171901362; mean: 0.852854717527" role="graphics-symbol" aria-roledescription="circle" transform="translate(2.0918139516962757,297.90538411761236)" d="M3.873,0A3.873,3.873,0,1,1,-3.873,0A3.873,3.873,0,1,1,3.873,0" fill="#4c78a8" stroke-width="2" opacity="0.7"/><path aria-label="all_draws: 2.3253172035; mean: 2.32481750711" role="graphics-symbol" aria-roledescription="circle" transform="translate(5.727374213033048,294.2738586035723)" d="M3.873,0A3.873,3.873,0,1,1,-3.873,0A3.873,3.873,0,1,1,3.873,0" fill="#4c78a8" stroke-width="2" opacity="0.7"/><path aria-label="all_draws: 1.38023818789; mean: 1.38246092924" role="graphics-symbol" aria-roledescription="circle" transform="translate(3.3957401647882257,296.5987760404047)" d="M3.873,0A3.873,3.873,0,1,1,-3.873,0A3.873,3.873,0,1,1,3.873,0" fill="#4c78a8" stroke-width="2" opacity="0.7"/><path aria-label="all_draws: 0.00713916195279; mean: 0.00706627935447" role="graphics-symbol" aria-roledescription="circle" transform="translate(0.008124539387363959,299.9920552715543)" d="M3.873,0A3.873,3.873,0,1,1,-3.873,0A3.873,3.873,0,1,1,3.873,0" fill="#4c78a8" stroke-width="2" opacity="0.7"/><path aria-label="all_draws: 0.00384796512375; mean: 0.00384605011467" role="graphics-symbol" aria-roledescription="circle" transform="translate(0.000004724578900290492,300)" d="M3.873,0A3.873,3.873,0,1,1,-3.873,0A3.873,3.873,0,1,1,3.873,0" fill="#4c78a8" stroke-width="2" opacity="0.7"/><path aria-label="all_draws: 0.00858985141094; mean: 0.00857155473788" role="graphics-symbol" aria-roledescription="circle" transform="translate(0.011703580798927313,299.98834155949635)" d="M3.873,0A3.873,3.873,0,1,1,-3.873,0A3.873,3.873,0,1,1,3.873,0" fill="#4c78a8" stroke-width="2" opacity="0.7"/><path aria-label="all_draws: 0.0315213728088; mean: 0.0314096131828" role="graphics-symbol" aria-roledescription="circle" transform="translate(0.0682786556727071,299.9319970700021)" d="M3.873,0A3.873,3.873,0,1,1,-3.873,0A3.873,3.873,0,1,1,3.873,0" fill="#4c78a8" stroke-width="2" opacity="0.7"/><path aria-label="all_draws: 0.0897917756951; mean: 0.0894081198399" role="graphics-symbol" aria-roledescription="circle" transform="translate(0.21203939221578536,299.7889071371643)" d="M3.873,0A3.873,3.873,0,1,1,-3.873,0A3.873,3.873,0,1,1,3.873,0" fill="#4c78a8" stroke-width="2" opacity="0.7"/><path aria-label="all_draws: 0.0147971408855; mean: 0.0147355239835" role="graphics-symbol" aria-roledescription="circle" transform="translate(0.027017779132935762,299.9731342378565)" d="M3.873,0A3.873,3.873,0,1,1,-3.873,0A3.873,3.873,0,1,1,3.873,0" fill="#4c78a8" stroke-width="2" opacity="0.7"/><path aria-label="all_draws: 44.0891862673; mean: 44.0993638379" role="graphics-symbol" aria-roledescription="circle" transform="translate(108.76432402140014,191.21056657530033)" d="M3.873,0A3.873,3.873,0,1,1,-3.873,0A3.873,3.873,0,1,1,3.873,0" fill="#4c78a8" stroke-width="2" opacity="0.7"/><path aria-label="all_draws: 115.764878925; mean: 115.751646989" role="graphics-symbol" aria-roledescription="circle" transform="translate(285.5976709400002,14.434973983940969)" d="M3.873,0A3.873,3.873,0,1,1,-3.873,0A3.873,3.873,0,1,1,3.873,0" fill="#4c78a8" stroke-width="2" opacity="0.7"/><path aria-label="all_draws: 61.06688038; mean: 61.0699352854" role="graphics-symbol" aria-roledescription="circle" transform="translate(150.65052506942362,149.34193807774324)" d="M3.873,0A3.873,3.873,0,1,1,-3.873,0A3.873,3.873,0,1,1,3.873,0" fill="#4c78a8" stroke-width="2" opacity="0.7"/><path aria-label="all_draws: 0.522162768186; mean: 0.525216628244" role="graphics-symbol" aria-roledescription="circle" transform="translate(1.2787554137544963,298.71371031242006)" d="M3.873,0A3.873,3.873,0,1,1,-3.873,0A3.873,3.873,0,1,1,3.873,0" fill="#4c78a8" stroke-width="2" opacity="0.7"/><path aria-label="all_draws: 2.15581355357; mean: 2.15996389962" role="graphics-symbol" aria-roledescription="circle" transform="translate(5.30918644784378,294.68057410339253)" d="M3.873,0A3.873,3.873,0,1,1,-3.873,0A3.873,3.873,0,1,1,3.873,0" fill="#4c78a8" stroke-width="2" opacity="0.7"/><path aria-label="all_draws: 0.356993498397; mean: 0.360069853981" role="graphics-symbol" aria-roledescription="circle" transform="translate(0.8712611335879357,299.12114909316927)" d="M3.873,0A3.873,3.873,0,1,1,-3.873,0A3.873,3.873,0,1,1,3.873,0" fill="#4c78a8" stroke-width="2" opacity="0.7"/><path aria-label="all_draws: 8.45963809763; mean: 8.46367217311" role="graphics-symbol" aria-roledescription="circle" transform="translate(20.861549476136435,279.128497929876)" d="M3.873,0A3.873,3.873,0,1,1,-3.873,0A3.873,3.873,0,1,1,3.873,0" fill="#4c78a8" stroke-width="2" opacity="0.7"/><path aria-label="all_draws: 27.43429697; mean: 27.4329876822" role="graphics-symbol" aria-roledescription="circle" transform="translate(67.67452484655522,232.32870533832912)" d="M3.873,0A3.873,3.873,0,1,1,-3.873,0A3.873,3.873,0,1,1,3.873,0" fill="#4c78a8" stroke-width="2" opacity="0.7"/><path aria-label="all_draws: 6.64275974008; mean: 6.64789642984" role="graphics-symbol" aria-roledescription="circle" transform="translate(16.37907195834481,283.60825515343726)" d="M3.873,0A3.873,3.873,0,1,1,-3.873,0A3.873,3.873,0,1,1,3.873,0" fill="#4c78a8" stroke-width="2" opacity="0.7"/><path aria-label="all_draws: 34.0324904173; mean: 34.0279652737" role="graphics-symbol" aria-roledescription="circle" transform="translate(83.95313461850704,216.05802950503522)" d="M3.873,0A3.873,3.873,0,1,1,-3.873,0A3.873,3.873,0,1,1,3.873,0" fill="#4c78a8" stroke-width="2" opacity="0.7"/><path aria-label="all_draws: 84.3805868886; mean: 84.3580103573" role="graphics-symbol" aria-roledescription="circle" transform="translate(208.16850080346248,91.88719846431603)" d="M3.873,0A3.873,3.873,0,1,1,-3.873,0A3.873,3.873,0,1,1,3.873,0" fill="#4c78a8" stroke-width="2" opacity="0.7"/><path aria-label="all_draws: 53.2294798505; mean: 53.2165321083" role="graphics-symbol" aria-roledescription="circle" transform="translate(131.3146286812909,168.71731509909694)" d="M3.873,0A3.873,3.873,0,1,1,-3.873,0A3.873,3.873,0,1,1,3.873,0" fill="#4c78a8" stroke-width="2" opacity="0.7"/><path aria-label="all_draws: 0.419025554014; mean: 0.422519458862" role="graphics-symbol" aria-roledescription="circle" transform="translate(1.0243023614338846,298.96707771645305)" d="M3.873,0A3.873,3.873,0,1,1,-3.873,0A3.873,3.873,0,1,1,3.873,0" fill="#4c78a8" stroke-width="2" opacity="0.7"/><path aria-label="all_draws: 0.140164715028; mean: 0.141468673187" role="graphics-symbol" aria-roledescription="circle" transform="translate(0.3363160490039101,299.6604669149707)" d="M3.873,0A3.873,3.873,0,1,1,-3.873,0A3.873,3.873,0,1,1,3.873,0" fill="#4c78a8" stroke-width="2" opacity="0.7"/><path aria-label="all_draws: 0.55725050908; mean: 0.561979323225" role="graphics-symbol" aria-roledescription="circle" transform="translate(1.3653214785970336,298.6230119158738)" d="M3.873,0A3.873,3.873,0,1,1,-3.873,0A3.873,3.873,0,1,1,3.873,0" fill="#4c78a8" stroke-width="2" opacity="0.7"/><path aria-label="all_draws: 0.655863398297; mean: 0.659990484654" role="graphics-symbol" aria-roledescription="circle" transform="translate(1.6086124270746918,298.3812055088739)" d="M3.873,0A3.873,3.873,0,1,1,-3.873,0A3.873,3.873,0,1,1,3.873,0" fill="#4c78a8" stroke-width="2" opacity="0.7"/><path aria-label="all_draws: 1.65401142934; mean: 1.65921639645" role="graphics-symbol" aria-roledescription="circle" transform="translate(4.071174705933883,295.915983956637)" d="M3.873,0A3.873,3.873,0,1,1,-3.873,0A3.873,3.873,0,1,1,3.873,0" fill="#4c78a8" stroke-width="2" opacity="0.7"/><path aria-label="all_draws: 0.280397570086; mean: 0.283458051224" role="graphics-symbol" aria-roledescription="circle" transform="translate(0.6822889191403237,299.31016047196005)" d="M3.873,0A3.873,3.873,0,1,1,-3.873,0A3.873,3.873,0,1,1,3.873,0" fill="#4c78a8" stroke-width="2" opacity="0.7"/></g></g><path class="foreground" aria-hidden="true" d="" display="none"/></g></g></g></svg>