<svg xmlns="http://www.w3.org/2000/svg" xmlns:xlink="http://www.w3.org/1999/xlink" version="1.1" class="marks" width="380" height="373" viewBox="0 0 380 373"><rect width="380" height="373" fill="white"/><g fill="none" stroke-miterlimit="10" transform="translate(74,9)"><g class="mark-group role-frame root" role="graphics-object" aria-roledescription="group mark container"><g transform="translate(0,0)"><path class="background" aria-hidden="true" d="M0.5,0.5h300v300h-300Z" stroke="#ddd"/><g><g class="mark-group role-axis" aria-hidden="true"><g transform="translate(0.5,300.5)"><path class="background" aria-hidden="true" d="M0,0h0v0h0Z" pointer-events="none"/><g><g class="mark-rule role-axis-grid" pointer-events="none"><line transform="translate(39,-300)" x2="0" y2="300" stroke="#ddd" stroke-width="1" opacity="1"/><line transform="translate(78,-300)" x2="0" y2="300" stroke="#ddd" stroke-width="1" opacity="1"/><line transform="translate(117,-300)" x2="0" y2="300" stroke="#ddd" stroke-width="1" opacity="1"/><line transform="translate(156,-300)" x2="0" y2="300" stroke="#ddd" stroke-width="1" opacity="1"/><line transform="translate(194,-300)" x2="0" y2="300" stroke="#ddd" stroke-width="1" opacity="1"/><line transform="translate(233,-300)" x2="0" y2="300" stroke="#ddd" stroke-width="1" opacity="1"/><line transform="translate(272,-300)" x2="0" y2="300" stroke="#ddd" stroke-width="1" opacity="1"/></g></g><path class="foreground" aria-hidden="true" d="" pointer-events="none" display="none"/></g></g><g class="mark-group role-axis" aria-hidden="true"><g transform="translate(0.5,0.5)"><path class="background" aria-hidden="true" d="M0,0h0v0h0Z" pointer-events="none"/><g><g class="mark-rule role-axis-grid" pointer-events="none"><line transform="translate(0,261)" x2="300" y2="0" stroke="#ddd" stroke-width="1" opacity="1"/><line transform="translate(0,222)" x2="300" y2="0" stroke="#ddd" stroke-width="1" opacity="1"/><line transform="translate(0,183)" x2="300" y2="0" stroke="#ddd" stroke-width="1" opacity="1"/><line transform="translate(0,144)" x2="300" y2="0" stroke="#ddd" stroke-width="1" opacity="1"/><line transform="translate(0,106)" x2="300" y2="0" stroke="#ddd" stroke-width="1" opacity="1"/><line transform="translate(0,67)" x2="300" y2="0" stroke="#ddd" stroke-width="1" opacity="1"/><line transform="translate(0,28)" x2="300" y2="0" stroke="#ddd" stroke-width="1" opacity="1"/></g></g><path class="foreground" aria-hidden="true" d="" pointer-events="none" display="none"/></g></g><g class="mark-group role-axis" role="graphics-symbol" aria-roledescription="axis" aria-label="X-axis titled 'Using all samples' for a linear scale with values from 0.0 to 1.5"><g transform="translate(0.5,300.5)"><path class="background" aria-hidden="true" d="M0,0h0v0h0Z" pointer-events="none"/><g><g class="mark-rule role-axis-tick" pointer-events="none"><line transform="translate(39,0)" x2="0" y2="5" stroke="#888" stroke-width="1" opacity="1"/><line transform="translate(78,0)" x2="0" y2="5" stroke="#888" stroke-width="1" opacity="1"/><line transform="translate(117,0)" x2="0" y2="5" stroke="#888" stroke-width="1" opacity="1"/><line transform="translate(156,0)" x2="0" y2="5" stroke="#888" stroke-width="1" opacity="1"/><line transform="translate(194,0)" x2="0" y2="5" stroke="#888" stroke-width="1" opacity="1"/><line transform="translate(233,0)" x2="0" y2="5" stroke="#888" stroke-width="1" opacity="1"/><line transform="translate(272,0)" x2="0" y2="5" stroke="#888" stroke-width="1" opacity="1"/></g><g class="mark-text role-axis-label" pointer-events="none"><text text-anchor="middle" transform="translate(38.805036883980485,26)" font-family="sans-serif" font-size="24px" fill="#000" opacity="1">0.2</text><text text-anchor="middle" transform="translate(77.71161622944052,26)" font-family="sans-serif" font-size="24px" fill="#000" opacity="1">0.4</text><text text-anchor="middle" transform="translate(116.61819557490054,26)" font-family="sans-serif" font-size="24px" fill="#000" opacity="1">0.6</text><text text-anchor="middle" transform="translate(155.52477492036056,26)" font-family="sans-serif" font-size="24px" fill="#000" opacity="1">0.8</text><text text-anchor="middle" transform="translate(194.4313542658206,26)" font-family="sans-serif" font-size="24px" fill="#000" opacity="1">1.0</text><text text-anchor="middle" transform="translate(233.3379336112806,26)" font-family="sans-serif" font-size="24px" fill="#000" opacity="1">1.2</text><text text-anchor="middle" transform="translate(272.2445129567406,26)" font-family="sans-serif" font-size="24px" fill="#000" opacity="1">1.4</text></g><g class="mark-rule role-axis-domain" pointer-events="none"><line transform="translate(0,0)" x2="300" y2="0" stroke="#888" stroke-width="1" opacity="1"/></g><g class="mark-text role-axis-title" pointer-events="none"><text text-anchor="middle" transform="translate(150,54)" font-family="sans-serif" font-size="24px" font-weight="bold" fill="#000" opacity="1">Using all samples</text></g></g><path class="foreground" aria-hidden="true" d="" pointer-events="none" display="none"/></g></g><g class="mark-group role-axis" role="graphics-symbol" aria-roledescription="axis" aria-label="Y-axis titled 'Using delta method' for a linear scale with values from 0.0 to 1.5"><g transform="translate(0.5,0.5)"><path class="background" aria-hidden="true" d="M0,0h0v0h0Z" pointer-events="none"/><g><g class="mark-rule role-axis-tick" pointer-events="none"><line transform="translate(0,261)" x2="-5" y2="0" stroke="#888" stroke-width="1" opacity="1"/><line transform="translate(0,222)" x2="-5" y2="0" stroke="#888" stroke-width="1" opacity="1"/><line transform="translate(0,183)" x2="-5" y2="0" stroke="#888" stroke-width="1" opacity="1"/><line transform="translate(0,144)" x2="-5" y2="0" stroke="#888" stroke-width="1" opacity="1"/><line transform="translate(0,106)" x2="-5" y2="0" stroke="#888" stroke-width="1" opacity="1"/><line transform="translate(0,67)" x2="-5" y2="0" stroke="#888" stroke-width="1" opacity="1"/><line transform="translate(0,28)" x2="-5" y2="0" stroke="#888" stroke-width="1" opacity="1"/></g><g class="mark-text role-axis-label" pointer-events="none"><text text-anchor="end" transform="translate(-7,268.1949631160195)" font-family="sans-serif" font-size="24px" fill="#000" opacity="1">0.2</text><text text-anchor="end" transform="translate(-7,229.28838377055948)" font-family="sans-serif" font-size="24px" fill="#000" opacity="1">0.4</text><text text-anchor="end" transform="translate(-7,190.38180442509946)" font-family="sans-serif" font-size="24px" fill="#000" opacity="1">0.6</text><text text-anchor="end" transform="translate(-7,151.47522507963944)" font-family="sans-serif" font-size="24px" fill="#000" opacity="1">0.8</text><text text-anchor="end" transform="translate(-7,112.56864573417941)" font-family="sans-serif" font-size="24px" fill="#000" opacity="1">1.0</text><text text-anchor="end" transform="translate(-7,73.66206638871942)" font-family="sans-serif" font-size="24px" fill="#000" opacity="1">1.2</text><text text-anchor="end" transform="translate(-7,34.75548704325939)" font-family="sans-serif" font-size="24px" fill="#000" opacity="1">1.4</text></g><g class="mark-rule role-axis-domain" pointer-events="none"><line transform="translate(0,300)" x2="0" y2="-300" stroke="#888" stroke-width="1" opacity="1"/></g><g class="mark-text role-axis-title" pointer-events="none"><text text-anchor="middle" transform="translate(-44.36328125,150) rotate(-90) translate(0,-5)" font-family="sans-serif" font-size="24px" font-weight="bold" fill="#000" opacity="1">Using delta method</text></g></g><path class="foreground" aria-hidden="true" d="" pointer-events="none" display="none"/></g></g><g class="mark-rule role-mark layer_0_marks" role="graphics-symbol" aria-roledescription="rule mark container"><line transform="translate(0,300)" x2="300" y2="-300" stroke="black" stroke-dasharray="8,8"/></g><g class="mark-symbol role-mark layer_1_marks" role="graphics-object" aria-roledescription="symbol mark container"><path aria-label="all_draws: 0.285080163423; delta_method: 0.555676789734" role="graphics-symbol" aria-roledescription="circle" transform="translate(55.35592752874932,192.0041269103283)" d="M3.873,0A3.873,3.873,0,1,1,-3.873,0A3.873,3.873,0,1,1,3.873,0" fill="#4c78a8" stroke-width="2" opacity="0.7"/><path aria-label="all_draws: 0.810771592462; delta_method: 1.54267760112" role="graphics-symbol" aria-roledescription="circle" transform="translate(157.62020400429734,0)" d="M3.873,0A3.873,3.873,0,1,1,-3.873,0A3.873,3.873,0,1,1,3.873,0" fill="#4c78a8" stroke-width="2" opacity="0.7"/><path aria-label="all_draws: 0.248524239214; delta_method: 0.481115183213" role="graphics-symbol" aria-roledescription="circle" transform="translate(48.24459769976245,206.50881221166296)" d="M3.873,0A3.873,3.873,0,1,1,-3.873,0A3.873,3.873,0,1,1,3.873,0" fill="#4c78a8" stroke-width="2" opacity="0.7"/><path aria-label="all_draws: 0.102034339478; delta_method: 0.151966787153" role="graphics-symbol" aria-roledescription="circle" transform="translate(19.747493162896987,270.5390031503149)" d="M3.873,0A3.873,3.873,0,1,1,-3.873,0A3.873,3.873,0,1,1,3.873,0" fill="#4c78a8" stroke-width="2" opacity="0.7"/><path aria-label="all_draws: 0.258508284302; delta_method: 0.421378091939" role="graphics-symbol" aria-roledescription="circle" transform="translate(50.18682291180055,218.12964161910097)" d="M3.873,0A3.873,3.873,0,1,1,-3.873,0A3.873,3.873,0,1,1,3.873,0" fill="#4c78a8" stroke-width="2" opacity="0.7"/><path aria-label="all_draws: 0.0824759687998; delta_method: 0.111233571735" role="graphics-symbol" aria-roledescription="circle" transform="translate(15.942746659539194,278.4629535386145)" d="M3.873,0A3.873,3.873,0,1,1,-3.873,0A3.873,3.873,0,1,1,3.873,0" fill="#4c78a8" stroke-width="2" opacity="0.7"/><path aria-label="all_draws: 0.0208308930016; delta_method: 0.0154819913482" role="graphics-symbol" aria-roledescription="circle" transform="translate(3.950751495532858,297.0897858374007)" d="M3.873,0A3.873,3.873,0,1,1,-3.873,0A3.873,3.873,0,1,1,3.873,0" fill="#4c78a8" stroke-width="2" opacity="0.7"/><path aria-label="all_draws: 0.0165204764355; delta_method: 0.0129278993378" role="graphics-symbol" aria-roledescription="circle" transform="translate(3.112233674837698,297.586640754703)" d="M3.873,0A3.873,3.873,0,1,1,-3.873,0A3.873,3.873,0,1,1,3.873,0" fill="#4c78a8" stroke-width="2" opacity="0.7"/><path aria-label="all_draws: 0.0282160559086; delta_method: 0.0198868453899" role="graphics-symbol" aria-roledescription="circle" transform="translate(5.387408628646568,296.2328968210115)" d="M3.873,0A3.873,3.873,0,1,1,-3.873,0A3.873,3.873,0,1,1,3.873,0" fill="#4c78a8" stroke-width="2" opacity="0.7"/><path aria-label="all_draws: 0.0115057103203; delta_method: 0.0103186008636" role="graphics-symbol" aria-roledescription="circle" transform="translate(2.1366966960251728,298.09423514530215)" d="M3.873,0A3.873,3.873,0,1,1,-3.873,0A3.873,3.873,0,1,1,3.873,0" fill="#4c78a8" stroke-width="2" opacity="0.7"/><path aria-label="all_draws: 0.072473751765; delta_method: 0.0534281986607" role="graphics-symbol" aria-roledescription="circle" transform="translate(13.996986406070222,289.7080002090924)" d="M3.873,0A3.873,3.873,0,1,1,-3.873,0A3.873,3.873,0,1,1,3.873,0" fill="#4c78a8" stroke-width="2" opacity="0.7"/><path aria-label="all_draws: 0.00803940106686; delta_method: 0.00685809022482" role="graphics-symbol" aria-roledescription="circle" transform="translate(1.462385516009873,298.7674183040272)" d="M3.873,0A3.873,3.873,0,1,1,-3.873,0A3.873,3.873,0,1,1,3.873,0" fill="#4c78a8" stroke-width="2" opacity="0.7"/><path aria-label="all_draws: 0.0402338087924; delta_method: 0.0407045900881" role="graphics-symbol" aria-roledescription="circle" transform="translate(7.72525690928033,292.1831606415351)" d="M3.873,0A3.873,3.873,0,1,1,-3.873,0A3.873,3.873,0,1,1,3.873,0" fill="#4c78a8" stroke-width="2" opacity="0.7"/><path aria-label="all_draws: 0.110644784681; delta_method: 0.107845376288" role="graphics-symbol" aria-roledescription="circle" transform="translate(21.422508010219627,279.1220690135448)" d="M3.873,0A3.873,3.873,0,1,1,-3.873,0A3.873,3.873,0,1,1,3.873,0" fill="#4c78a8" stroke-width="2" opacity="0.7"/><path aria-label="all_draws: 0.0487150182397; delta_method: 0.0473208147315" role="graphics-symbol" aria-roledescription="circle" transform="translate(9.37513115081339,290.8960872962621)" d="M3.873,0A3.873,3.873,0,1,1,-3.873,0A3.873,3.873,0,1,1,3.873,0" fill="#4c78a8" stroke-width="2" opacity="0.7"/><path aria-label="all_draws: 0.206901786034; delta_method: 0.40047898125" role="graphics-symbol" aria-roledescription="circle" transform="translate(40.14766131380384,222.19520616057628)" d="M3.873,0A3.873,3.873,0,1,1,-3.873,0A3.873,3.873,0,1,1,3.873,0" fill="#4c78a8" stroke-width="2" opacity="0.7"/><path aria-label="all_draws: 0.542530734179; delta_method: 1.0460370564" role="graphics-symbol" aria-roledescription="circle" transform="translate(105.43853282201167,96.6129237957465)" d="M3.873,0A3.873,3.873,0,1,1,-3.873,0A3.873,3.873,0,1,1,3.873,0" fill="#4c78a8" stroke-width="2" opacity="0.7"/><path aria-label="all_draws: 0.181099091642; delta_method: 0.361210323883" role="graphics-symbol" aria-roledescription="circle" transform="translate(35.12818843027049,229.8342518288015)" d="M3.873,0A3.873,3.873,0,1,1,-3.873,0A3.873,3.873,0,1,1,3.873,0" fill="#4c78a8" stroke-width="2" opacity="0.7"/><path aria-label="all_draws: 0.0278784823071; delta_method: 0.0281718266564" role="graphics-symbol" aria-roledescription="circle" transform="translate(5.321739458072238,294.6211954159099)" d="M3.873,0A3.873,3.873,0,1,1,-3.873,0A3.873,3.873,0,1,1,3.873,0" fill="#4c78a8" stroke-width="2" opacity="0.7"/><path aria-label="all_draws: 0.0651577069975; delta_method: 0.0668783026283" role="graphics-symbol" aria-roledescription="circle" transform="translate(12.573775024851496,287.0915125229993)" d="M3.873,0A3.873,3.873,0,1,1,-3.873,0A3.873,3.873,0,1,1,3.873,0" fill="#4c78a8" stroke-width="2" opacity="0.7"/><path aria-label="all_draws: 0.0227748071448; delta_method: 0.0238149033175" role="graphics-symbol" aria-roledescription="circle" transform="translate(4.328906744799025,295.46876033383734)" d="M3.873,0A3.873,3.873,0,1,1,-3.873,0A3.873,3.873,0,1,1,3.873,0" fill="#4c78a8" stroke-width="2" opacity="0.7"/><path aria-label="all_draws: 0.0145700819351; delta_method: 0.0154585380404" role="graphics-symbol" aria-roledescription="circle" transform="translate(2.7328177829035676,297.09434827731116)" d="M3.873,0A3.873,3.873,0,1,1,-3.873,0A3.873,3.873,0,1,1,3.873,0" fill="#4c78a8" stroke-width="2" opacity="0.7"/><path aria-label="all_draws: 0.0295930066393; delta_method: 0.0345213570902" role="graphics-symbol" aria-roledescription="circle" transform="translate(5.655270842925646,293.3860028677603)" d="M3.873,0A3.873,3.873,0,1,1,-3.873,0A3.873,3.873,0,1,1,3.873,0" fill="#4c78a8" stroke-width="2" opacity="0.7"/><path aria-label="all_draws: 0.00997717379692; delta_method: 0.0120376642257" role="graphics-symbol" aria-roledescription="circle" transform="translate(1.8393460583875798,297.75982076982064)" d="M3.873,0A3.873,3.873,0,1,1,-3.873,0A3.873,3.873,0,1,1,3.873,0" fill="#4c78a8" stroke-width="2" opacity="0.7"/><path aria-label="all_draws: 0.000665599386886; delta_method: 0.000769904299158" role="graphics-symbol" aria-roledescription="circle" transform="translate(0.027938515311351952,299.9517707479614)" d="M3.873,0A3.873,3.873,0,1,1,-3.873,0A3.873,3.873,0,1,1,3.873,0" fill="#4c78a8" stroke-width="2" opacity="0.7"/><path aria-label="all_draws: 0.000567891336956; delta_method: 0.000688678052377" role="graphics-symbol" aria-roledescription="circle" transform="translate(0.008931085324923562,299.9675719250381)" d="M3.873,0A3.873,3.873,0,1,1,-3.873,0A3.873,3.873,0,1,1,3.873,0" fill="#4c78a8" stroke-width="2" opacity="0.7"/><path aria-label="all_draws: 0.00118572187116; delta_method: 0.00118451138204" role="graphics-symbol" aria-roledescription="circle" transform="translate(0.12911944883078466,299.8711160311257)" d="M3.873,0A3.873,3.873,0,1,1,-3.873,0A3.873,3.873,0,1,1,3.873,0" fill="#4c78a8" stroke-width="2" opacity="0.7"/><path aria-label="all_draws: 0.00059014586933; delta_method: 0.000688564332207" role="graphics-symbol" aria-roledescription="circle" transform="translate(0.013260323972937388,299.9675940473523)" d="M3.873,0A3.873,3.873,0,1,1,-3.873,0A3.873,3.873,0,1,1,3.873,0" fill="#4c78a8" stroke-width="2" opacity="0.7"/><path aria-label="all_draws: 0.00311026734635; delta_method: 0.00386762773435" role="graphics-symbol" aria-roledescription="circle" transform="translate(0.5035068550019871,299.3491616348538)" d="M3.873,0A3.873,3.873,0,1,1,-3.873,0A3.873,3.873,0,1,1,3.873,0" fill="#4c78a8" stroke-width="2" opacity="0.7"/><path aria-label="all_draws: 0.000521980925529; delta_method: 0.000542847787333" role="graphics-symbol" aria-roledescription="circle" transform="translate(0,299.9959407089276)" d="M3.873,0A3.873,3.873,0,1,1,-3.873,0A3.873,3.873,0,1,1,3.873,0" fill="#4c78a8" stroke-width="2" opacity="0.7"/><path aria-label="all_draws: 0.002830602581; delta_method: 0.00322549580699" role="graphics-symbol" aria-roledescription="circle" transform="translate(0.44910285808521305,299.47407741876344)" d="M3.873,0A3.873,3.873,0,1,1,-3.873,0A3.873,3.873,0,1,1,3.873,0" fill="#4c78a8" stroke-width="2" opacity="0.7"/><path aria-label="all_draws: 0.00802063942587; delta_method: 0.0087465857944" role="graphics-symbol" aria-roledescription="circle" transform="translate(1.4587357596392647,298.40004379042114)" d="M3.873,0A3.873,3.873,0,1,1,-3.873,0A3.873,3.873,0,1,1,3.873,0" fill="#4c78a8" stroke-width="2" opacity="0.7"/><path aria-label="all_draws: 0.0034892609921; delta_method: 0.00368659355523" role="graphics-symbol" aria-roledescription="circle" transform="translate(0.5772335867520226,299.3843787381244)" d="M3.873,0A3.873,3.873,0,1,1,-3.873,0A3.873,3.873,0,1,1,3.873,0" fill="#4c78a8" stroke-width="2" opacity="0.7"/><path aria-label="all_draws: 0.0183981268355; delta_method: 0.0190446169633" role="graphics-symbol" aria-roledescription="circle" transform="translate(3.4774984461941,296.3967379565426)" d="M3.873,0A3.873,3.873,0,1,1,-3.873,0A3.873,3.873,0,1,1,3.873,0" fill="#4c78a8" stroke-width="2" opacity="0.7"/><path aria-label="all_draws: 0.0410254138212; delta_method: 0.0415939514676" role="graphics-symbol" aria-roledescription="circle" transform="translate(7.879250128600594,292.0101505961445)" d="M3.873,0A3.873,3.873,0,1,1,-3.873,0A3.873,3.873,0,1,1,3.873,0" fill="#4c78a8" stroke-width="2" opacity="0.7"/><path aria-label="all_draws: 0.0170846530984; delta_method: 0.0175991747718" role="graphics-symbol" aria-roledescription="circle" transform="translate(3.2219845953410404,296.67792401312096)" d="M3.873,0A3.873,3.873,0,1,1,-3.873,0A3.873,3.873,0,1,1,3.873,0" fill="#4c78a8" stroke-width="2" opacity="0.7"/><path aria-label="all_draws: 0.411394907671; delta_method: 0.400035467339" role="graphics-symbol" aria-roledescription="circle" transform="translate(79.9283006266488,222.28148420635557)" d="M3.873,0A3.873,3.873,0,1,1,-3.873,0A3.873,3.873,0,1,1,3.873,0" fill="#4c78a8" stroke-width="2" opacity="0.7"/><path aria-label="all_draws: 1.06220033507; delta_method: 1.05393963259" role="graphics-symbol" aria-roledescription="circle" transform="translate(206.53136562517088,95.07561275854876)" d="M3.873,0A3.873,3.873,0,1,1,-3.873,0A3.873,3.873,0,1,1,3.873,0" fill="#4c78a8" stroke-width="2" opacity="0.7"/><path aria-label="all_draws: 0.354848720012; delta_method: 0.360262655735" role="graphics-symbol" aria-roledescription="circle" transform="translate(68.92820694246629,230.01860445865856)" d="M3.873,0A3.873,3.873,0,1,1,-3.873,0A3.873,3.873,0,1,1,3.873,0" fill="#4c78a8" stroke-width="2" opacity="0.7"/><path aria-label="all_draws: 0.139819589001; delta_method: 0.133385389762" role="graphics-symbol" aria-roledescription="circle" transform="translate(27.097967206045098,274.1536962100432)" d="M3.873,0A3.873,3.873,0,1,1,-3.873,0A3.873,3.873,0,1,1,3.873,0" fill="#4c78a8" stroke-width="2" opacity="0.7"/><path aria-label="all_draws: 0.346935391348; delta_method: 0.334667943367" role="graphics-symbol" aria-roledescription="circle" transform="translate(67.38880419476008,234.9976179965133)" d="M3.873,0A3.873,3.873,0,1,1,-3.873,0A3.873,3.873,0,1,1,3.873,0" fill="#4c78a8" stroke-width="2" opacity="0.7"/><path aria-label="all_draws: 0.101870319662; delta_method: 0.102913022731" role="graphics-symbol" aria-roledescription="circle" transform="translate(19.7155859128543,280.0815740386738)" d="M3.873,0A3.873,3.873,0,1,1,-3.873,0A3.873,3.873,0,1,1,3.873,0" fill="#4c78a8" stroke-width="2" opacity="0.7"/><path aria-label="all_draws: 0.0145093915216; delta_method: 0.0142065293598" role="graphics-symbol" aria-roledescription="circle" transform="translate(2.721011500959041,297.3379051526837)" d="M3.873,0A3.873,3.873,0,1,1,-3.873,0A3.873,3.873,0,1,1,3.873,0" fill="#4c78a8" stroke-width="2" opacity="0.7"/><path aria-label="all_draws: 0.0105753727796; delta_method: 0.010562689558" role="graphics-symbol" aria-roledescription="circle" transform="translate(1.955715439313798,298.0467518645291)" d="M3.873,0A3.873,3.873,0,1,1,-3.873,0A3.873,3.873,0,1,1,3.873,0" fill="#4c78a8" stroke-width="2" opacity="0.7"/><path aria-label="all_draws: 0.0168383284171; delta_method: 0.0169488087108" role="graphics-symbol" aria-roledescription="circle" transform="translate(3.1740663415400587,296.8044416068884)" d="M3.873,0A3.873,3.873,0,1,1,-3.873,0A3.873,3.873,0,1,1,3.873,0" fill="#4c78a8" stroke-width="2" opacity="0.7"/><path aria-label="all_draws: 0.00859558030371; delta_method: 0.00942803570899" role="graphics-symbol" aria-roledescription="circle" transform="translate(1.5705806740528274,298.26747936456223)" d="M3.873,0A3.873,3.873,0,1,1,-3.873,0A3.873,3.873,0,1,1,3.873,0" fill="#4c78a8" stroke-width="2" opacity="0.7"/><path aria-label="all_draws: 0.0421547075228; delta_method: 0.045113341877" role="graphics-symbol" aria-roledescription="circle" transform="translate(8.098934903616593,291.32551338509194)" d="M3.873,0A3.873,3.873,0,1,1,-3.873,0A3.873,3.873,0,1,1,3.873,0" fill="#4c78a8" stroke-width="2" opacity="0.7"/><path aria-label="all_draws: 0.0059441368151; delta_method: 0.006255372759" role="graphics-symbol" aria-roledescription="circle" transform="translate(1.0547876917048593,298.88466667856153)" d="M3.873,0A3.873,3.873,0,1,1,-3.873,0A3.873,3.873,0,1,1,3.873,0" fill="#4c78a8" stroke-width="2" opacity="0.7"/><path aria-label="all_draws: 0.0400594135106; delta_method: 0.0385145117245" role="graphics-symbol" aria-roledescription="circle" transform="translate(7.691331289937607,292.60920292967415)" d="M3.873,0A3.873,3.873,0,1,1,-3.873,0A3.873,3.873,0,1,1,3.873,0" fill="#4c78a8" stroke-width="2" opacity="0.7"/><path aria-label="all_draws: 0.0813469891727; delta_method: 0.0904427431701" role="graphics-symbol" aria-roledescription="circle" transform="translate(15.723122982328304,282.50745364464257)" d="M3.873,0A3.873,3.873,0,1,1,-3.873,0A3.873,3.873,0,1,1,3.873,0" fill="#4c78a8" stroke-width="2" opacity="0.7"/><path aria-label="all_draws: 0.0479327203098; delta_method: 0.0455521901134" role="graphics-symbol" aria-roledescription="circle" transform="translate(9.222948468413586,291.2401429664411)" d="M3.873,0A3.873,3.873,0,1,1,-3.873,0A3.873,3.873,0,1,1,3.873,0" fill="#4c78a8" stroke-width="2" opacity="0.7"/><path aria-label="all_draws: 0.286684902875; delta_method: 0.289434208869" role="graphics-symbol" aria-roledescription="circle" transform="translate(55.66810214275041,243.7970673981227)" d="M3.873,0A3.873,3.873,0,1,1,-3.873,0A3.873,3.873,0,1,1,3.873,0" fill="#4c78a8" stroke-width="2" opacity="0.7"/><path aria-label="all_draws: 0.704263823418; delta_method: 0.689181266393" role="graphics-symbol" aria-roledescription="circle" transform="translate(136.90093916821573,166.03311433991706)" d="M3.873,0A3.873,3.873,0,1,1,-3.873,0A3.873,3.873,0,1,1,3.873,0" fill="#4c78a8" stroke-width="2" opacity="0.7"/><path aria-label="all_draws: 0.255629162423; delta_method: 0.271691733628" role="graphics-symbol" aria-roledescription="circle" transform="translate(49.62673899254601,247.24856250190516)" d="M3.873,0A3.873,3.873,0,1,1,-3.873,0A3.873,3.873,0,1,1,3.873,0" fill="#4c78a8" stroke-width="2" opacity="0.7"/><path aria-label="all_draws: 0.405240981167; delta_method: 0.399192085633" role="graphics-symbol" aria-roledescription="circle" transform="translate(78.7311594774658,222.44554969264055)" d="M3.873,0A3.873,3.873,0,1,1,-3.873,0A3.873,3.873,0,1,1,3.873,0" fill="#4c78a8" stroke-width="2" opacity="0.7"/><path aria-label="all_draws: 1.12715068158; delta_method: 1.12473392917" role="graphics-symbol" aria-roledescription="circle" transform="translate(219.16634467451044,81.30379317338313)" d="M3.873,0A3.873,3.873,0,1,1,-3.873,0A3.873,3.873,0,1,1,3.873,0" fill="#4c78a8" stroke-width="2" opacity="0.7"/><path aria-label="all_draws: 0.336525628752; delta_method: 0.337004421802" role="graphics-symbol" aria-roledescription="circle" transform="translate(65.36376292263762,234.54309607843712)" d="M3.873,0A3.873,3.873,0,1,1,-3.873,0A3.873,3.873,0,1,1,3.873,0" fill="#4c78a8" stroke-width="2" opacity="0.7"/><path aria-label="all_draws: 0.0981162834181; delta_method: 0.0971513598137" role="graphics-symbol" aria-roledescription="circle" transform="translate(18.985302367955008,281.2024070159195)" d="M3.873,0A3.873,3.873,0,1,1,-3.873,0A3.873,3.873,0,1,1,3.873,0" fill="#4c78a8" stroke-width="2" opacity="0.7"/><path aria-label="all_draws: 0.25822032532; delta_method: 0.267916827913" role="graphics-symbol" aria-roledescription="circle" transform="translate(50.130805416931416,247.98290584558129)" d="M3.873,0A3.873,3.873,0,1,1,-3.873,0A3.873,3.873,0,1,1,3.873,0" fill="#4c78a8" stroke-width="2" opacity="0.7"/><path aria-label="all_draws: 0.0690107717593; delta_method: 0.0689460214039" role="graphics-symbol" aria-roledescription="circle" transform="translate(13.32332287424668,286.68927319995777)" d="M3.873,0A3.873,3.873,0,1,1,-3.873,0A3.873,3.873,0,1,1,3.873,0" fill="#4c78a8" stroke-width="2" opacity="0.7"/><path aria-label="all_draws: 0.0127692557727; delta_method: 0.0122895460932" role="graphics-symbol" aria-roledescription="circle" transform="translate(2.382497853042449,297.7108214605124)" d="M3.873,0A3.873,3.873,0,1,1,-3.873,0A3.873,3.873,0,1,1,3.873,0" fill="#4c78a8" stroke-width="2" opacity="0.7"/><path aria-label="all_draws: 0.0110391387014; delta_method: 0.0107677593496" role="graphics-symbol" aria-roledescription="circle" transform="translate(2.0459331674792156,298.00685904393)" d="M3.873,0A3.873,3.873,0,1,1,-3.873,0A3.873,3.873,0,1,1,3.873,0" fill="#4c78a8" stroke-width="2" opacity="0.7"/><path aria-label="all_draws: 0.0174019622514; delta_method: 0.0163145082899" role="graphics-symbol" aria-roledescription="circle" transform="translate(3.283711664026136,296.927833905169)" d="M3.873,0A3.873,3.873,0,1,1,-3.873,0A3.873,3.873,0,1,1,3.873,0" fill="#4c78a8" stroke-width="2" opacity="0.7"/><path aria-label="all_draws: 0.00786348208867; delta_method: 0.0069990117965" role="graphics-symbol" aria-roledescription="circle" transform="translate(1.4281634875923186,298.74000442247706)" d="M3.873,0A3.873,3.873,0,1,1,-3.873,0A3.873,3.873,0,1,1,3.873,0" fill="#4c78a8" stroke-width="2" opacity="0.7"/><path aria-label="all_draws: 0.046340008199; delta_method: 0.041138194125" role="graphics-symbol" aria-roledescription="circle" transform="translate(8.913113567833445,292.09881039221824)" d="M3.873,0A3.873,3.873,0,1,1,-3.873,0A3.873,3.873,0,1,1,3.873,0" fill="#4c78a8" stroke-width="2" opacity="0.7"/><path aria-label="all_draws: 0.00526043262625; delta_method: 0.00484936892072" role="graphics-symbol" aria-roledescription="circle" transform="translate(0.9217847353438209,299.15818067803303)" d="M3.873,0A3.873,3.873,0,1,1,-3.873,0A3.873,3.873,0,1,1,3.873,0" fill="#4c78a8" stroke-width="2" opacity="0.7"/><path aria-label="all_draws: 0.0277381358343; delta_method: 0.0249984648512" role="graphics-symbol" aria-roledescription="circle" transform="translate(5.294437452175973,295.2385186802417)" d="M3.873,0A3.873,3.873,0,1,1,-3.873,0A3.873,3.873,0,1,1,3.873,0" fill="#4c78a8" stroke-width="2" opacity="0.7"/><path aria-label="all_draws: 0.081974449743; delta_method: 0.0755072462278" role="graphics-symbol" aria-roledescription="circle" transform="translate(15.845184704660106,285.4128991288766)" d="M3.873,0A3.873,3.873,0,1,1,-3.873,0A3.873,3.873,0,1,1,3.873,0" fill="#4c78a8" stroke-width="2" opacity="0.7"/><path aria-label="all_draws: 0.0268202949001; delta_method: 0.0255735587774" role="graphics-symbol" aria-roledescription="circle" transform="translate(5.1158871965094415,295.12664399289105)" d="M3.873,0A3.873,3.873,0,1,1,-3.873,0A3.873,3.873,0,1,1,3.873,0" fill="#4c78a8" stroke-width="2" opacity="0.7"/><path aria-label="all_draws: 0.295689339731; delta_method: 0.296680225367" role="graphics-symbol" aria-roledescription="circle" transform="translate(57.41976132772095,242.3874788191378)" d="M3.873,0A3.873,3.873,0,1,1,-3.873,0A3.873,3.873,0,1,1,3.873,0" fill="#4c78a8" stroke-width="2" opacity="0.7"/><path aria-label="all_draws: 0.79733272714; delta_method: 0.803225697634" role="graphics-symbol" aria-roledescription="circle" transform="translate(155.00590260456207,143.84772077493605)" d="M3.873,0A3.873,3.873,0,1,1,-3.873,0A3.873,3.873,0,1,1,3.873,0" fill="#4c78a8" stroke-width="2" opacity="0.7"/><path aria-label="all_draws: 0.258245054858; delta_method: 0.25989855251" role="graphics-symbol" aria-roledescription="circle" transform="translate(50.13561612560978,249.5427241864094)" d="M3.873,0A3.873,3.873,0,1,1,-3.873,0A3.873,3.873,0,1,1,3.873,0" fill="#4c78a8" stroke-width="2" opacity="0.7"/></g></g><path class="foreground" aria-hidden="true" d="" display="none"/></g></g></g></svg>