<svg xmlns="http://www.w3.org/2000/svg" xmlns:xlink="http://www.w3.org/1999/xlink" version="1.1" class="marks" width="383" height="370" viewBox="0 0 383 370"><rect width="383" height="370" fill="white"/><g fill="none" stroke-miterlimit="10" transform="translate(74,6)"><g class="mark-group role-frame root" role="graphics-object" aria-roledescription="group mark container"><g transform="translate(0,0)"><path class="background" aria-hidden="true" d="M0.5,0.5h300v300h-300Z" stroke="#ddd"/><g><g class="mark-group role-axis" aria-hidden="true"><g transform="translate(0.5,300.5)"><path class="background" aria-hidden="true" d="M0,0h0v0h0Z" pointer-events="none"/><g><g class="mark-rule role-axis-grid" pointer-events="none"><line transform="translate(29,-300)" x2="0" y2="300" stroke="#ddd" stroke-width="1" opacity="1"/><line transform="translate(58,-300)" x2="0" y2="300" stroke="#ddd" stroke-width="1" opacity="1"/><line transform="translate(86,-300)" x2="0" y2="300" stroke="#ddd" stroke-width="1" opacity="1"/><line transform="translate(115,-300)" x2="0" y2="300" stroke="#ddd" stroke-width="1" opacity="1"/><line transform="translate(144,-300)" x2="0" y2="300" stroke="#ddd" stroke-width="1" opacity="1"/><line transform="translate(173,-300)" x2="0" y2="300" stroke="#ddd" stroke-width="1" opacity="1"/><line transform="translate(202,-300)" x2="0" y2="300" stroke="#ddd" stroke-width="1" opacity="1"/><line transform="translate(231,-300)" x2="0" y2="300" stroke="#ddd" stroke-width="1" opacity="1"/><line transform="translate(260,-300)" x2="0" y2="300" stroke="#ddd" stroke-width="1" opacity="1"/><line transform="translate(288,-300)" x2="0" y2="300" stroke="#ddd" stroke-width="1" opacity="1"/></g></g><path class="foreground" aria-hidden="true" d="" pointer-events="none" display="none"/></g></g><g class="mark-group role-axis" aria-hidden="true"><g transform="translate(0.5,0.5)"><path class="background" aria-hidden="true" d="M0,0h0v0h0Z" pointer-events="none"/><g><g class="mark-rule role-axis-grid" pointer-events="none"><line transform="translate(0,271)" x2="300" y2="0" stroke="#ddd" stroke-width="1" opacity="1"/><line transform="translate(0,242)" x2="300" y2="0" stroke="#ddd" stroke-width="1" opacity="1"/><line transform="translate(0,214)" x2="300" y2="0" stroke="#ddd" stroke-width="1" opacity="1"/><line transform="translate(0,185)" x2="300" y2="0" stroke="#ddd" stroke-width="1" opacity="1"/><line transform="translate(0,156)" x2="300" y2="0" stroke="#ddd" stroke-width="1" opacity="1"/><line transform="translate(0,127)" x2="300" y2="0" stroke="#ddd" stroke-width="1" opacity="1"/><line transform="translate(0,98)" x2="300" y2="0" stroke="#ddd" stroke-width="1" opacity="1"/><line transform="translate(0,69)" x2="300" y2="0" stroke="#ddd" stroke-width="1" opacity="1"/><line transform="translate(0,40)" x2="300" y2="0" stroke="#ddd" stroke-width="1" opacity="1"/><line transform="translate(0,12)" x2="300" y2="0" stroke="#ddd" stroke-width="1" opacity="1"/></g></g><path class="foreground" aria-hidden="true" d="" pointer-events="none" display="none"/></g></g><g class="mark-group role-axis" role="graphics-symbol" aria-roledescription="axis" aria-label="X-axis titled 'Using all samples' for a linear scale with values from 0.0 to 2.1"><g transform="translate(0.5,300.5)"><path class="background" aria-hidden="true" d="M0,0h0v0h0Z" pointer-events="none"/><g><g class="mark-rule role-axis-tick" pointer-events="none"><line transform="translate(29,0)" x2="0" y2="5" stroke="#888" stroke-width="1" opacity="1"/><line transform="translate(58,0)" x2="0" y2="5" stroke="#888" stroke-width="1" opacity="1"/><line transform="translate(86,0)" x2="0" y2="5" stroke="#888" stroke-width="1" opacity="1"/><line transform="translate(115,0)" x2="0" y2="5" stroke="#888" stroke-width="1" opacity="1"/><line transform="translate(144,0)" x2="0" y2="5" stroke="#888" stroke-width="1" opacity="1"/><line transform="translate(173,0)" x2="0" y2="5" stroke="#888" stroke-width="1" opacity="1"/><line transform="translate(202,0)" x2="0" y2="5" stroke="#888" stroke-width="1" opacity="1"/><line transform="translate(231,0)" x2="0" y2="5" stroke="#888" stroke-width="1" opacity="1"/><line transform="translate(260,0)" x2="0" y2="5" stroke="#888" stroke-width="1" opacity="1"/><line transform="translate(288,0)" x2="0" y2="5" stroke="#888" stroke-width="1" opacity="1"/></g><g class="mark-text role-axis-label" pointer-events="none"><text text-anchor="middle" transform="translate(28.75090411291142,26)" font-family="sans-serif" font-size="24px" fill="#000" opacity="1">0.2</text><text text-anchor="middle" transform="translate(57.60459759834422,26)" font-family="sans-serif" font-size="24px" fill="#000" opacity="0">0.4</text><text text-anchor="middle" transform="translate(86.458291083777,26)" font-family="sans-serif" font-size="24px" fill="#000" opacity="1">0.6</text><text text-anchor="middle" transform="translate(115.31198456920981,26)" font-family="sans-serif" font-size="24px" fill="#000" opacity="0">0.8</text><text text-anchor="middle" transform="translate(144.1656780546426,26)" font-family="sans-serif" font-size="24px" fill="#000" opacity="1">1.0</text><text text-anchor="middle" transform="translate(173.01937154007538,26)" font-family="sans-serif" font-size="24px" fill="#000" opacity="0">1.2</text><text text-anchor="middle" transform="translate(201.87306502550817,26)" font-family="sans-serif" font-size="24px" fill="#000" opacity="1">1.4</text><text text-anchor="middle" transform="translate(230.726758510941,26)" font-family="sans-serif" font-size="24px" fill="#000" opacity="0">1.6</text><text text-anchor="middle" transform="translate(259.5804519963738,26)" font-family="sans-serif" font-size="24px" fill="#000" opacity="1">1.8</text><text text-anchor="middle" transform="translate(288.4341454818066,26)" font-family="sans-serif" font-size="24px" fill="#000" opacity="0">2.0</text></g><g class="mark-rule role-axis-domain" pointer-events="none"><line transform="translate(0,0)" x2="300" y2="0" stroke="#888" stroke-width="1" opacity="1"/></g><g class="mark-text role-axis-title" pointer-events="none"><text text-anchor="middle" transform="translate(150,54)" font-family="sans-serif" font-size="24px" font-weight="bold" fill="#000" opacity="1">Using all samples</text></g></g><path class="foreground" aria-hidden="true" d="" pointer-events="none" display="none"/></g></g><g class="mark-group role-axis" role="graphics-symbol" aria-roledescription="axis" aria-label="Y-axis titled 'Using delta method' for a linear scale with values from 0.0 to 2.1"><g transform="translate(0.5,0.5)"><path class="background" aria-hidden="true" d="M0,0h0v0h0Z" pointer-events="none"/><g><g class="mark-rule role-axis-tick" pointer-events="none"><line transform="translate(0,271)" x2="-5" y2="0" stroke="#888" stroke-width="1" opacity="1"/><line transform="translate(0,242)" x2="-5" y2="0" stroke="#888" stroke-width="1" opacity="1"/><line transform="translate(0,214)" x2="-5" y2="0" stroke="#888" stroke-width="1" opacity="1"/><line transform="translate(0,185)" x2="-5" y2="0" stroke="#888" stroke-width="1" opacity="1"/><line transform="translate(0,156)" x2="-5" y2="0" stroke="#888" stroke-width="1" opacity="1"/><line transform="translate(0,127)" x2="-5" y2="0" stroke="#888" stroke-width="1" opacity="1"/><line transform="translate(0,98)" x2="-5" y2="0" stroke="#888" stroke-width="1" opacity="1"/><line transform="translate(0,69)" x2="-5" y2="0" stroke="#888" stroke-width="1" opacity="1"/><line transform="translate(0,40)" x2="-5" y2="0" stroke="#888" stroke-width="1" opacity="1"/><line transform="translate(0,12)" x2="-5" y2="0" stroke="#888" stroke-width="1" opacity="1"/></g><g class="mark-text role-axis-label" pointer-events="none"><text text-anchor="end" transform="translate(-7,278.2490958870886)" font-family="sans-serif" font-size="24px" fill="#000" opacity="1">0.2</text><text text-anchor="end" transform="translate(-7,249.3954024016558)" font-family="sans-serif" font-size="24px" fill="#000" opacity="1">0.4</text><text text-anchor="end" transform="translate(-7,220.541708916223)" font-family="sans-serif" font-size="24px" fill="#000" opacity="1">0.6</text><text text-anchor="end" transform="translate(-7,191.68801543079022)" font-family="sans-serif" font-size="24px" fill="#000" opacity="1">0.8</text><text text-anchor="end" transform="translate(-7,162.83432194535743)" font-family="sans-serif" font-size="24px" fill="#000" opacity="1">1.0</text><text text-anchor="end" transform="translate(-7,133.98062845992462)" font-family="sans-serif" font-size="24px" fill="#000" opacity="1">1.2</text><text text-anchor="end" transform="translate(-7,105.12693497449182)" font-family="sans-serif" font-size="24px" fill="#000" opacity="1">1.4</text><text text-anchor="end" transform="translate(-7,76.273241489059)" font-family="sans-serif" font-size="24px" fill="#000" opacity="1">1.6</text><text text-anchor="end" transform="translate(-7,47.41954800362618)" font-family="sans-serif" font-size="24px" fill="#000" opacity="1">1.8</text><text text-anchor="end" transform="translate(-7,18.565854518193397)" font-family="sans-serif" font-size="24px" fill="#000" opacity="1">2.0</text></g><g class="mark-rule role-axis-domain" pointer-events="none"><line transform="translate(0,300)" x2="0" y2="-300" stroke="#888" stroke-width="1" opacity="1"/></g><g class="mark-text role-axis-title" pointer-events="none"><text text-anchor="middle" transform="translate(-44.36328125,150) rotate(-90) translate(0,-5)" font-family="sans-serif" font-size="24px" font-weight="bold" fill="#000" opacity="1">Using delta method</text></g></g><path class="foreground" aria-hidden="true" d="" pointer-events="none" display="none"/></g></g><g class="mark-rule role-mark layer_0_marks" role="graphics-symbol" aria-roledescription="rule mark container"><line transform="translate(0,300)" x2="300" y2="-300" stroke="black" stroke-dasharray="8,8"/></g><g class="mark-symbol role-mark layer_1_marks" role="graphics-object" aria-roledescription="symbol mark container"><path aria-label="all_draws: 0.725795341375; delta_method: 0.556410131167" role="graphics-symbol" aria-roledescription="circle" transform="translate(104.60659219337045,219.8303524881467)" d="M3.873,0A3.873,3.873,0,1,1,-3.873,0A3.873,3.873,0,1,1,3.873,0" fill="#4c78a8" stroke-width="2" opacity="0.7"/><path aria-label="all_draws: 2.08016897056; delta_method: 1.61280370775" role="graphics-symbol" aria-roledescription="circle" transform="translate(300,67.42607019474306)" d="M3.873,0A3.873,3.873,0,1,1,-3.873,0A3.873,3.873,0,1,1,3.873,0" fill="#4c78a8" stroke-width="2" opacity="0.7"/><path aria-label="all_draws: 0.665210146527; delta_method: 0.502628996849" role="graphics-symbol" aria-roledescription="circle" transform="translate(95.86605898393884,227.58927431264573)" d="M3.873,0A3.873,3.873,0,1,1,-3.873,0A3.873,3.873,0,1,1,3.873,0" fill="#4c78a8" stroke-width="2" opacity="0.7"/><path aria-label="all_draws: 0.347073825782; delta_method: 0.257971322874" role="graphics-symbol" aria-roledescription="circle" transform="translate(49.96901955711748,262.8856619813073)" d="M3.873,0A3.873,3.873,0,1,1,-3.873,0A3.873,3.873,0,1,1,3.873,0" fill="#4c78a8" stroke-width="2" opacity="0.7"/><path aria-label="all_draws: 0.770568979964; delta_method: 0.555314808764" role="graphics-symbol" aria-roledescription="circle" transform="translate(111.06601641382957,219.98837297254695)" d="M3.873,0A3.873,3.873,0,1,1,-3.873,0A3.873,3.873,0,1,1,3.873,0" fill="#4c78a8" stroke-width="2" opacity="0.7"/><path aria-label="all_draws: 0.318933336666; delta_method: 0.239966976256" role="graphics-symbol" aria-roledescription="circle" transform="translate(45.90923431976365,265.48312147495693)" d="M3.873,0A3.873,3.873,0,1,1,-3.873,0A3.873,3.873,0,1,1,3.873,0" fill="#4c78a8" stroke-width="2" opacity="0.7"/><path aria-label="all_draws: 0.358866540039; delta_method: 0.281206654072" role="graphics-symbol" aria-roledescription="circle" transform="translate(51.670336369849394,259.5335363591677)" d="M3.873,0A3.873,3.873,0,1,1,-3.873,0A3.873,3.873,0,1,1,3.873,0" fill="#4c78a8" stroke-width="2" opacity="0.7"/><path aria-label="all_draws: 1.12786420145; delta_method: 0.87715273291" role="graphics-symbol" aria-roledescription="circle" transform="translate(162.61245043612286,173.5573088960761)" d="M3.873,0A3.873,3.873,0,1,1,-3.873,0A3.873,3.873,0,1,1,3.873,0" fill="#4c78a8" stroke-width="2" opacity="0.7"/><path aria-label="all_draws: 0.251631265743; delta_method: 0.203608469763" role="graphics-symbol" aria-roledescription="circle" transform="translate(36.19966769292244,270.72850748467124)" d="M3.873,0A3.873,3.873,0,1,1,-3.873,0A3.873,3.873,0,1,1,3.873,0" fill="#4c78a8" stroke-width="2" opacity="0.7"/><path aria-label="all_draws: 0.0105913750035; delta_method: 0.00663475217765" role="graphics-symbol" aria-roledescription="circle" transform="translate(1.425212067176883,299.14560384409305)" d="M3.873,0A3.873,3.873,0,1,1,-3.873,0A3.873,3.873,0,1,1,3.873,0" fill="#4c78a8" stroke-width="2" opacity="0.7"/><path aria-label="all_draws: 0.00641333429806; delta_method: 0.00464035200337" role="graphics-symbol" aria-roledescription="circle" transform="translate(0.8224525377583732,299.43333290067295)" d="M3.873,0A3.873,3.873,0,1,1,-3.873,0A3.873,3.873,0,1,1,3.873,0" fill="#4c78a8" stroke-width="2" opacity="0.7"/><path aria-label="all_draws: 0.0139131100547; delta_method: 0.00865013233647" role="graphics-symbol" aria-roledescription="circle" transform="translate(1.9044336922138723,298.8548480372961)" d="M3.873,0A3.873,3.873,0,1,1,-3.873,0A3.873,3.873,0,1,1,3.873,0" fill="#4c78a8" stroke-width="2" opacity="0.7"/><path aria-label="all_draws: 0.0345764921995; delta_method: 0.0228966537964" role="graphics-symbol" aria-roledescription="circle" transform="translate(4.885508166109099,296.7995242201054)" d="M3.873,0A3.873,3.873,0,1,1,-3.873,0A3.873,3.873,0,1,1,3.873,0" fill="#4c78a8" stroke-width="2" opacity="0.7"/><path aria-label="all_draws: 0.358929441687; delta_method: 0.239870918858" role="graphics-symbol" aria-roledescription="circle" transform="translate(51.679411094123665,265.49697952856104)" d="M3.873,0A3.873,3.873,0,1,1,-3.873,0A3.873,3.873,0,1,1,3.873,0" fill="#4c78a8" stroke-width="2" opacity="0.7"/><path aria-label="all_draws: 0.0298360090416; delta_method: 0.0209158343182" role="graphics-symbol" aria-roledescription="circle" transform="translate(4.201605926046968,297.0852940104734)" d="M3.873,0A3.873,3.873,0,1,1,-3.873,0A3.873,3.873,0,1,1,3.873,0" fill="#4c78a8" stroke-width="2" opacity="0.7"/><path aria-label="all_draws: 0.0857801569579; delta_method: 0.0692090603727" role="graphics-symbol" aria-roledescription="circle" transform="translate(12.27258240745138,290.1181043004847)" d="M3.873,0A3.873,3.873,0,1,1,-3.873,0A3.873,3.873,0,1,1,3.873,0" fill="#4c78a8" stroke-width="2" opacity="0.7"/><path aria-label="all_draws: 0.355389086171; delta_method: 0.2615415998" role="graphics-symbol" aria-roledescription="circle" transform="translate(51.16864942964901,262.3705836009155)" d="M3.873,0A3.873,3.873,0,1,1,-3.873,0A3.873,3.873,0,1,1,3.873,0" fill="#4c78a8" stroke-width="2" opacity="0.7"/><path aria-label="all_draws: 0.188738090081; delta_method: 0.142138650302" role="graphics-symbol" aria-roledescription="circle" transform="translate(27.12616562856168,279.5966641313481)" d="M3.873,0A3.873,3.873,0,1,1,-3.873,0A3.873,3.873,0,1,1,3.873,0" fill="#4c78a8" stroke-width="2" opacity="0.7"/><path aria-label="all_draws: 0.487297001724; delta_method: 0.49143036134" role="graphics-symbol" aria-roledescription="circle" transform="translate(70.19880224808455,229.2048842948752)" d="M3.873,0A3.873,3.873,0,1,1,-3.873,0A3.873,3.873,0,1,1,3.873,0" fill="#4c78a8" stroke-width="2" opacity="0.7"/><path aria-label="all_draws: 1.46745347757; delta_method: 1.47074100552" role="graphics-symbol" aria-roledescription="circle" transform="translate(211.6044748564814,87.92123852322369)" d="M3.873,0A3.873,3.873,0,1,1,-3.873,0A3.873,3.873,0,1,1,3.873,0" fill="#4c78a8" stroke-width="2" opacity="0.7"/><path aria-label="all_draws: 0.449409528396; delta_method: 0.440394798534" role="graphics-symbol" aria-roledescription="circle" transform="translate(64.73283453634755,236.567706725117)" d="M3.873,0A3.873,3.873,0,1,1,-3.873,0A3.873,3.873,0,1,1,3.873,0" fill="#4c78a8" stroke-width="2" opacity="0.7"/><path aria-label="all_draws: 0.218878862646; delta_method: 0.223133021219" role="graphics-symbol" aria-roledescription="circle" transform="translate(31.47452869355069,267.9117303688098)" d="M3.873,0A3.873,3.873,0,1,1,-3.873,0A3.873,3.873,0,1,1,3.873,0" fill="#4c78a8" stroke-width="2" opacity="0.7"/><path aria-label="all_draws: 0.493532454506; delta_method: 0.477106968295" role="graphics-symbol" aria-roledescription="circle" transform="translate(71.09838146461031,231.27129825777442)" d="M3.873,0A3.873,3.873,0,1,1,-3.873,0A3.873,3.873,0,1,1,3.873,0" fill="#4c78a8" stroke-width="2" opacity="0.7"/><path aria-label="all_draws: 0.20094063077; delta_method: 0.209368260646" role="graphics-symbol" aria-roledescription="circle" transform="translate(28.88660747248438,269.8975512812714)" d="M3.873,0A3.873,3.873,0,1,1,-3.873,0A3.873,3.873,0,1,1,3.873,0" fill="#4c78a8" stroke-width="2" opacity="0.7"/><path aria-label="all_draws: 0.267189357782; delta_method: 0.267477735167" role="graphics-symbol" aria-roledescription="circle" transform="translate(38.444209787483814,261.5141864491413)" d="M3.873,0A3.873,3.873,0,1,1,-3.873,0A3.873,3.873,0,1,1,3.873,0" fill="#4c78a8" stroke-width="2" opacity="0.7"/><path aria-label="all_draws: 0.839836865806; delta_method: 0.844566176803" role="graphics-symbol" aria-roledescription="circle" transform="translate(121.05918814620183,178.25852140435637)" d="M3.873,0A3.873,3.873,0,1,1,-3.873,0A3.873,3.873,0,1,1,3.873,0" fill="#4c78a8" stroke-width="2" opacity="0.7"/><path aria-label="all_draws: 0.181929548445; delta_method: 0.19362489348" role="graphics-symbol" aria-roledescription="circle" transform="translate(26.143907761284733,272.16882273446294)" d="M3.873,0A3.873,3.873,0,1,1,-3.873,0A3.873,3.873,0,1,1,3.873,0" fill="#4c78a8" stroke-width="2" opacity="0.7"/><path aria-label="all_draws: 0.00579636344601; delta_method: 0.00555572123457" role="graphics-symbol" aria-roledescription="circle" transform="translate(0.7334430984852471,299.30127398455744)" d="M3.873,0A3.873,3.873,0,1,1,-3.873,0A3.873,3.873,0,1,1,3.873,0" fill="#4c78a8" stroke-width="2" opacity="0.7"/><path aria-label="all_draws: 0.00398065720439; delta_method: 0.00386525773333" role="graphics-symbol" aria-roledescription="circle" transform="translate(0.4714939417089639,299.5451545631224)" d="M3.873,0A3.873,3.873,0,1,1,-3.873,0A3.873,3.873,0,1,1,3.873,0" fill="#4c78a8" stroke-width="2" opacity="0.7"/><path aria-label="all_draws: 0.00818983396519; delta_method: 0.00790866913732" role="graphics-symbol" aria-roledescription="circle" transform="translate(1.0787454221192394,298.96181779669155)" d="M3.873,0A3.873,3.873,0,1,1,-3.873,0A3.873,3.873,0,1,1,3.873,0" fill="#4c78a8" stroke-width="2" opacity="0.7"/><path aria-label="all_draws: 0.023578707155; delta_method: 0.0211749694582" role="graphics-symbol" aria-roledescription="circle" transform="translate(3.298874572645121,297.0479089809755)" d="M3.873,0A3.873,3.873,0,1,1,-3.873,0A3.873,3.873,0,1,1,3.873,0" fill="#4c78a8" stroke-width="2" opacity="0.7"/><path aria-label="all_draws: 0.238306147499; delta_method: 0.21631838339" role="graphics-symbol" aria-roledescription="circle" transform="translate(34.27727330559412,268.8948677244921)" d="M3.873,0A3.873,3.873,0,1,1,-3.873,0A3.873,3.873,0,1,1,3.873,0" fill="#4c78a8" stroke-width="2" opacity="0.7"/><path aria-label="all_draws: 0.0194595889943; delta_method: 0.0180994484399" role="graphics-symbol" aria-roledescription="circle" transform="translate(2.7046157084475104,297.4916096848172)" d="M3.873,0A3.873,3.873,0,1,1,-3.873,0A3.873,3.873,0,1,1,3.873,0" fill="#4c78a8" stroke-width="2" opacity="0.7"/><path aria-label="all_draws: 0.0701602201206; delta_method: 0.0681833051059" role="graphics-symbol" aria-roledescription="circle" transform="translate(10.019118058630463,290.2660884407764)" d="M3.873,0A3.873,3.873,0,1,1,-3.873,0A3.873,3.873,0,1,1,3.873,0" fill="#4c78a8" stroke-width="2" opacity="0.7"/><path aria-label="all_draws: 0.26552042381; delta_method: 0.254989678509" role="graphics-symbol" aria-roledescription="circle" transform="translate(38.20343524111825,263.315819244263)" d="M3.873,0A3.873,3.873,0,1,1,-3.873,0A3.873,3.873,0,1,1,3.873,0" fill="#4c78a8" stroke-width="2" opacity="0.7"/><path aria-label="all_draws: 0.163134923305; delta_method: 0.144162323682" role="graphics-symbol" aria-roledescription="circle" transform="translate(23.43243599648678,279.30471187424035)" d="M3.873,0A3.873,3.873,0,1,1,-3.873,0A3.873,3.873,0,1,1,3.873,0" fill="#4c78a8" stroke-width="2" opacity="0.7"/><path aria-label="all_draws: 0.0752624675452; delta_method: 0.0729926726535" role="graphics-symbol" aria-roledescription="circle" transform="translate(10.755211475014631,289.5722483553867)" d="M3.873,0A3.873,3.873,0,1,1,-3.873,0A3.873,3.873,0,1,1,3.873,0" fill="#4c78a8" stroke-width="2" opacity="0.7"/><path aria-label="all_draws: 0.192944104797; delta_method: 0.193435648328" role="graphics-symbol" aria-roledescription="circle" transform="translate(27.732960925622795,272.1961248425321)" d="M3.873,0A3.873,3.873,0,1,1,-3.873,0A3.873,3.873,0,1,1,3.873,0" fill="#4c78a8" stroke-width="2" opacity="0.7"/><path aria-label="all_draws: 0.0712311180127; delta_method: 0.0721351895812" role="graphics-symbol" aria-roledescription="circle" transform="translate(10.173614856289277,289.69595612407034)" d="M3.873,0A3.873,3.873,0,1,1,-3.873,0A3.873,3.873,0,1,1,3.873,0" fill="#4c78a8" stroke-width="2" opacity="0.7"/><path aria-label="all_draws: 0.0377523915572; delta_method: 0.0368164324023" role="graphics-symbol" aria-roledescription="circle" transform="translate(5.343690299144211,294.7913390937086)" d="M3.873,0A3.873,3.873,0,1,1,-3.873,0A3.873,3.873,0,1,1,3.873,0" fill="#4c78a8" stroke-width="2" opacity="0.7"/><path aria-label="all_draws: 0.0699057514413; delta_method: 0.0705062245479" role="graphics-symbol" aria-roledescription="circle" transform="translate(9.982406252253467,289.93096441292505)" d="M3.873,0A3.873,3.873,0,1,1,-3.873,0A3.873,3.873,0,1,1,3.873,0" fill="#4c78a8" stroke-width="2" opacity="0.7"/><path aria-label="all_draws: 0.0372730641437; delta_method: 0.0362130456728" role="graphics-symbol" aria-roledescription="circle" transform="translate(5.274538467806319,294.878388772433)" d="M3.873,0A3.873,3.873,0,1,1,-3.873,0A3.873,3.873,0,1,1,3.873,0" fill="#4c78a8" stroke-width="2" opacity="0.7"/><path aria-label="all_draws: 0.0419292567343; delta_method: 0.0400648660238" role="graphics-symbol" aria-roledescription="circle" transform="translate(5.946280236893457,294.32269255359364)" d="M3.873,0A3.873,3.873,0,1,1,-3.873,0A3.873,3.873,0,1,1,3.873,0" fill="#4c78a8" stroke-width="2" opacity="0.7"/><path aria-label="all_draws: 0.114125109723; delta_method: 0.112823199021" role="graphics-symbol" aria-roledescription="circle" transform="translate(16.361865302242382,283.82595935960205)" d="M3.873,0A3.873,3.873,0,1,1,-3.873,0A3.873,3.873,0,1,1,3.873,0" fill="#4c78a8" stroke-width="2" opacity="0.7"/><path aria-label="all_draws: 0.0315354513671; delta_method: 0.03307213342" role="graphics-symbol" aria-roledescription="circle" transform="translate(4.446781865829694,295.33152336947256)" d="M3.873,0A3.873,3.873,0,1,1,-3.873,0A3.873,3.873,0,1,1,3.873,0" fill="#4c78a8" stroke-width="2" opacity="0.7"/><path aria-label="all_draws: 0.00125411919479; delta_method: 0.00131184072623" role="graphics-symbol" aria-roledescription="circle" transform="translate(0.07814048168182712,299.9135321214402)" d="M3.873,0A3.873,3.873,0,1,1,-3.873,0A3.873,3.873,0,1,1,3.873,0" fill="#4c78a8" stroke-width="2" opacity="0.7"/><path aria-label="all_draws: 0.000712486757186; delta_method: 0.000786577726992" role="graphics-symbol" aria-roledescription="circle" transform="translate(0,299.9893110093359)" d="M3.873,0A3.873,3.873,0,1,1,-3.873,0A3.873,3.873,0,1,1,3.873,0" fill="#4c78a8" stroke-width="2" opacity="0.7"/><path aria-label="all_draws: 0.00156124709329; delta_method: 0.00158173984945" role="graphics-symbol" aria-roledescription="circle" transform="translate(0.12244935290252908,299.87459418857225)" d="M3.873,0A3.873,3.873,0,1,1,-3.873,0A3.873,3.873,0,1,1,3.873,0" fill="#4c78a8" stroke-width="2" opacity="0.7"/><path aria-label="all_draws: 0.00182393730303; delta_method: 0.0021658959519" role="graphics-symbol" aria-roledescription="circle" transform="translate(0.160347266869808,299.79031888293383)" d="M3.873,0A3.873,3.873,0,1,1,-3.873,0A3.873,3.873,0,1,1,3.873,0" fill="#4c78a8" stroke-width="2" opacity="0.7"/><path aria-label="all_draws: 0.0163375424051; delta_method: 0.0192139494275" role="graphics-symbol" aria-roledescription="circle" transform="translate(2.254202831783108,297.33082233539386)" d="M3.873,0A3.873,3.873,0,1,1,-3.873,0A3.873,3.873,0,1,1,3.873,0" fill="#4c78a8" stroke-width="2" opacity="0.7"/><path aria-label="all_draws: 0.00186962921628; delta_method: 0.00204248145003" role="graphics-symbol" aria-roledescription="circle" transform="translate(0.1669391691678431,299.8081237039777)" d="M3.873,0A3.873,3.873,0,1,1,-3.873,0A3.873,3.873,0,1,1,3.873,0" fill="#4c78a8" stroke-width="2" opacity="0.7"/><path aria-label="all_draws: 0.00786465331945; delta_method: 0.00870164571795" role="graphics-symbol" aria-roledescription="circle" transform="translate(1.0318321087219449,298.8474162806981)" d="M3.873,0A3.873,3.873,0,1,1,-3.873,0A3.873,3.873,0,1,1,3.873,0" fill="#4c78a8" stroke-width="2" opacity="0.7"/><path aria-label="all_draws: 0.0237414107602; delta_method: 0.0271990941751" role="graphics-symbol" aria-roledescription="circle" transform="translate(3.3223475724110294,296.1788177404715)" d="M3.873,0A3.873,3.873,0,1,1,-3.873,0A3.873,3.873,0,1,1,3.873,0" fill="#4c78a8" stroke-width="2" opacity="0.7"/><path aria-label="all_draws: 0.0202212205223; delta_method: 0.0222551938643" role="graphics-symbol" aria-roledescription="circle" transform="translate(2.8144951217332936,296.8920666614253)" d="M3.873,0A3.873,3.873,0,1,1,-3.873,0A3.873,3.873,0,1,1,3.873,0" fill="#4c78a8" stroke-width="2" opacity="0.7"/><path aria-label="all_draws: 0.258131529035; delta_method: 0.251952099642" role="graphics-symbol" aria-roledescription="circle" transform="translate(37.13745071599901,263.75404609214513)" d="M3.873,0A3.873,3.873,0,1,1,-3.873,0A3.873,3.873,0,1,1,3.873,0" fill="#4c78a8" stroke-width="2" opacity="0.7"/><path aria-label="all_draws: 0.671646392845; delta_method: 0.67873600594" role="graphics-symbol" aria-roledescription="circle" transform="translate(96.79460637626468,202.1825860079475)" d="M3.873,0A3.873,3.873,0,1,1,-3.873,0A3.873,3.873,0,1,1,3.873,0" fill="#4c78a8" stroke-width="2" opacity="0.7"/><path aria-label="all_draws: 0.231574479336; delta_method: 0.230460923546" role="graphics-symbol" aria-roledescription="circle" transform="translate(33.30610585649223,266.8545451307329)" d="M3.873,0A3.873,3.873,0,1,1,-3.873,0A3.873,3.873,0,1,1,3.873,0" fill="#4c78a8" stroke-width="2" opacity="0.7"/><path aria-label="all_draws: 0.144931756508; delta_method: 0.135150121672" role="graphics-symbol" aria-roledescription="circle" transform="translate(20.80629302046453,280.6048884462702)" d="M3.873,0A3.873,3.873,0,1,1,-3.873,0A3.873,3.873,0,1,1,3.873,0" fill="#4c78a8" stroke-width="2" opacity="0.7"/><path aria-label="all_draws: 0.304301259917; delta_method: 0.291261160977" role="graphics-symbol" aria-roledescription="circle" transform="translate(43.798287031858905,258.0829880573239)" d="M3.873,0A3.873,3.873,0,1,1,-3.873,0A3.873,3.873,0,1,1,3.873,0" fill="#4c78a8" stroke-width="2" opacity="0.7"/><path aria-label="all_draws: 0.126767669801; delta_method: 0.122469326141" role="graphics-symbol" aria-roledescription="circle" transform="translate(18.18578806902084,282.43432738334644)" d="M3.873,0A3.873,3.873,0,1,1,-3.873,0A3.873,3.873,0,1,1,3.873,0" fill="#4c78a8" stroke-width="2" opacity="0.7"/><path aria-label="all_draws: 0.11211442647; delta_method: 0.109468234124" role="graphics-symbol" aria-roledescription="circle" transform="translate(16.07178711079312,284.3099750034734)" d="M3.873,0A3.873,3.873,0,1,1,-3.873,0A3.873,3.873,0,1,1,3.873,0" fill="#4c78a8" stroke-width="2" opacity="0.7"/><path aria-label="all_draws: 0.309493633819; delta_method: 0.309103347244" role="graphics-symbol" aria-roledescription="circle" transform="translate(44.54738285704687,255.5089231890908)" d="M3.873,0A3.873,3.873,0,1,1,-3.873,0A3.873,3.873,0,1,1,3.873,0" fill="#4c78a8" stroke-width="2" opacity="0.7"/><path aria-label="all_draws: 0.0866014122539; delta_method: 0.0820073058622" role="graphics-symbol" aria-roledescription="circle" transform="translate(12.39106365037043,288.27172103795795)" d="M3.873,0A3.873,3.873,0,1,1,-3.873,0A3.873,3.873,0,1,1,3.873,0" fill="#4c78a8" stroke-width="2" opacity="0.7"/><path aria-label="all_draws: 0.00543108905875; delta_method: 0.00506386092847" role="graphics-symbol" aria-roledescription="circle" transform="translate(0.6807455224443958,299.37223391710694)" d="M3.873,0A3.873,3.873,0,1,1,-3.873,0A3.873,3.873,0,1,1,3.873,0" fill="#4c78a8" stroke-width="2" opacity="0.7"/><path aria-label="all_draws: 0.00323908442988; delta_method: 0.00290663411865" role="graphics-symbol" aria-roledescription="circle" transform="translate(0.36450837404490555,299.683453722852)" d="M3.873,0A3.873,3.873,0,1,1,-3.873,0A3.873,3.873,0,1,1,3.873,0" fill="#4c78a8" stroke-width="2" opacity="0.7"/><path aria-label="all_draws: 0.00714042194889; delta_method: 0.00664350080229" role="graphics-symbol" aria-roledescription="circle" transform="translate(0.9273483588287891,299.14434169342417)" d="M3.873,0A3.873,3.873,0,1,1,-3.873,0A3.873,3.873,0,1,1,3.873,0" fill="#4c78a8" stroke-width="2" opacity="0.7"/><path aria-label="all_draws: 0.0114424484461; delta_method: 0.0124852721332" role="graphics-symbol" aria-roledescription="circle" transform="translate(1.547995128411591,298.301558296459)" d="M3.873,0A3.873,3.873,0,1,1,-3.873,0A3.873,3.873,0,1,1,3.873,0" fill="#4c78a8" stroke-width="2" opacity="0.7"/><path aria-label="all_draws: 0.118655078476; delta_method: 0.12556002465" role="graphics-symbol" aria-roledescription="circle" transform="translate(17.015396951640504,281.98843704621)" d="M3.873,0A3.873,3.873,0,1,1,-3.873,0A3.873,3.873,0,1,1,3.873,0" fill="#4c78a8" stroke-width="2" opacity="0.7"/><path aria-label="all_draws: 0.0104903653088; delta_method: 0.0108848459216" role="graphics-symbol" aria-roledescription="circle" transform="translate(1.4106395533282674,298.5324493332257)" d="M3.873,0A3.873,3.873,0,1,1,-3.873,0A3.873,3.873,0,1,1,3.873,0" fill="#4c78a8" stroke-width="2" opacity="0.7"/><path aria-label="all_draws: 0.0319716857589; delta_method: 0.0354618505215" role="graphics-symbol" aria-roledescription="circle" transform="translate(4.509716732983695,294.986762545648)" d="M3.873,0A3.873,3.873,0,1,1,-3.873,0A3.873,3.873,0,1,1,3.873,0" fill="#4c78a8" stroke-width="2" opacity="0.7"/><path aria-label="all_draws: 0.135206233236; delta_method: 0.134336781932" role="graphics-symbol" aria-roledescription="circle" transform="translate(19.403206682980983,280.7222277240635)" d="M3.873,0A3.873,3.873,0,1,1,-3.873,0A3.873,3.873,0,1,1,3.873,0" fill="#4c78a8" stroke-width="2" opacity="0.7"/><path aria-label="all_draws: 0.0612404709554; delta_method: 0.0674779387474" role="graphics-symbol" aria-roledescription="circle" transform="translate(8.732279516734986,290.3678505642874)" d="M3.873,0A3.873,3.873,0,1,1,-3.873,0A3.873,3.873,0,1,1,3.873,0" fill="#4c78a8" stroke-width="2" opacity="0.7"/></g></g><path class="foreground" aria-hidden="true" d="" display="none"/></g></g></g></svg>