<svg xmlns="http://www.w3.org/2000/svg" xmlns:xlink="http://www.w3.org/1999/xlink" version="1.1" class="marks" width="383" height="370" viewBox="0 0 383 370"><rect width="383" height="370" fill="white"/><g fill="none" stroke-miterlimit="10" transform="translate(74,6)"><g class="mark-group role-frame root" role="graphics-object" aria-roledescription="group mark container"><g transform="translate(0,0)"><path class="background" aria-hidden="true" d="M0.5,0.5h300v300h-300Z" stroke="#ddd"/><g><g class="mark-group role-axis" aria-hidden="true"><g transform="translate(0.5,300.5)"><path class="background" aria-hidden="true" d="M0,0h0v0h0Z" pointer-events="none"/><g><g class="mark-rule role-axis-grid" pointer-events="none"><line transform="translate(31,-300)" x2="0" y2="300" stroke="#ddd" stroke-width="1" opacity="1"/><line transform="translate(62,-300)" x2="0" y2="300" stroke="#ddd" stroke-width="1" opacity="1"/><line transform="translate(94,-300)" x2="0" y2="300" stroke="#ddd" stroke-width="1" opacity="1"/><line transform="translate(125,-300)" x2="0" y2="300" stroke="#ddd" stroke-width="1" opacity="1"/><line transform="translate(156,-300)" x2="0" y2="300" stroke="#ddd" stroke-width="1" opacity="1"/><line transform="translate(187,-300)" x2="0" y2="300" stroke="#ddd" stroke-width="1" opacity="1"/><line transform="translate(218,-300)" x2="0" y2="300" stroke="#ddd" stroke-width="1" opacity="1"/><line transform="translate(249,-300)" x2="0" y2="300" stroke="#ddd" stroke-width="1" opacity="1"/><line transform="translate(281,-300)" x2="0" y2="300" stroke="#ddd" stroke-width="1" opacity="1"/></g></g><path class="foreground" aria-hidden="true" d="" pointer-events="none" display="none"/></g></g><g class="mark-group role-axis" aria-hidden="true"><g transform="translate(0.5,0.5)"><path class="background" aria-hidden="true" d="M0,0h0v0h0Z" pointer-events="none"/><g><g class="mark-rule role-axis-grid" pointer-events="none"><line transform="translate(0,269)" x2="300" y2="0" stroke="#ddd" stroke-width="1" opacity="1"/><line transform="translate(0,238)" x2="300" y2="0" stroke="#ddd" stroke-width="1" opacity="1"/><line transform="translate(0,206)" x2="300" y2="0" stroke="#ddd" stroke-width="1" opacity="1"/><line transform="translate(0,175)" x2="300" y2="0" stroke="#ddd" stroke-width="1" opacity="1"/><line transform="translate(0,144)" x2="300" y2="0" stroke="#ddd" stroke-width="1" opacity="1"/><line transform="translate(0,113)" x2="300" y2="0" stroke="#ddd" stroke-width="1" opacity="1"/><line transform="translate(0,82)" x2="300" y2="0" stroke="#ddd" stroke-width="1" opacity="1"/><line transform="translate(0,51)" x2="300" y2="0" stroke="#ddd" stroke-width="1" opacity="1"/><line transform="translate(0,19)" x2="300" y2="0" stroke="#ddd" stroke-width="1" opacity="1"/></g></g><path class="foreground" aria-hidden="true" d="" pointer-events="none" display="none"/></g></g><g class="mark-group role-axis" role="graphics-symbol" aria-roledescription="axis" aria-label="X-axis titled 'Using all samples' for a linear scale with values from 0.0 to 1.9"><g transform="translate(0.5,300.5)"><path class="background" aria-hidden="true" d="M0,0h0v0h0Z" pointer-events="none"/><g><g class="mark-rule role-axis-tick" pointer-events="none"><line transform="translate(31,0)" x2="0" y2="5" stroke="#888" stroke-width="1" opacity="1"/><line transform="translate(62,0)" x2="0" y2="5" stroke="#888" stroke-width="1" opacity="1"/><line transform="translate(94,0)" x2="0" y2="5" stroke="#888" stroke-width="1" opacity="1"/><line transform="translate(125,0)" x2="0" y2="5" stroke="#888" stroke-width="1" opacity="1"/><line transform="translate(156,0)" x2="0" y2="5" stroke="#888" stroke-width="1" opacity="1"/><line transform="translate(187,0)" x2="0" y2="5" stroke="#888" stroke-width="1" opacity="1"/><line transform="translate(218,0)" x2="0" y2="5" stroke="#888" stroke-width="1" opacity="1"/><line transform="translate(249,0)" x2="0" y2="5" stroke="#888" stroke-width="1" opacity="1"/><line transform="translate(281,0)" x2="0" y2="5" stroke="#888" stroke-width="1" opacity="1"/></g><g class="mark-text role-axis-label" pointer-events="none"><text text-anchor="middle" transform="translate(31.126637900898793,26)" font-family="sans-serif" font-size="24px" fill="#000" opacity="1">0.2</text><text text-anchor="middle" transform="translate(62.32088517447738,26)" font-family="sans-serif" font-size="24px" fill="#000" opacity="0">0.4</text><text text-anchor="middle" transform="translate(93.51513244805598,26)" font-family="sans-serif" font-size="24px" fill="#000" opacity="1">0.6</text><text text-anchor="middle" transform="translate(124.70937972163458,26)" font-family="sans-serif" font-size="24px" fill="#000" opacity="0">0.8</text><text text-anchor="middle" transform="translate(155.90362699521316,26)" font-family="sans-serif" font-size="24px" fill="#000" opacity="1">1.0</text><text text-anchor="middle" transform="translate(187.0978742687917,26)" font-family="sans-serif" font-size="24px" fill="#000" opacity="0">1.2</text><text text-anchor="middle" transform="translate(218.29212154237032,26)" font-family="sans-serif" font-size="24px" fill="#000" opacity="1">1.4</text><text text-anchor="middle" transform="translate(249.48636881594894,26)" font-family="sans-serif" font-size="24px" fill="#000" opacity="0">1.6</text><text text-anchor="middle" transform="translate(280.6806160895275,26)" font-family="sans-serif" font-size="24px" fill="#000" opacity="1">1.8</text></g><g class="mark-rule role-axis-domain" pointer-events="none"><line transform="translate(0,0)" x2="300" y2="0" stroke="#888" stroke-width="1" opacity="1"/></g><g class="mark-text role-axis-title" pointer-events="none"><text text-anchor="middle" transform="translate(150,54)" font-family="sans-serif" font-size="24px" font-weight="bold" fill="#000" opacity="1">Using all samples</text></g></g><path class="foreground" aria-hidden="true" d="" pointer-events="none" display="none"/></g></g><g class="mark-group role-axis" role="graphics-symbol" aria-roledescription="axis" aria-label="Y-axis titled 'Using delta method' for a linear scale with values from 0.0 to 1.9"><g transform="translate(0.5,0.5)"><path class="background" aria-hidden="true" d="M0,0h0v0h0Z" pointer-events="none"/><g><g class="mark-rule role-axis-tick" pointer-events="none"><line transform="translate(0,269)" x2="-5" y2="0" stroke="#888" stroke-width="1" opacity="1"/><line transform="translate(0,238)" x2="-5" y2="0" stroke="#888" stroke-width="1" opacity="1"/><line transform="translate(0,206)" x2="-5" y2="0" stroke="#888" stroke-width="1" opacity="1"/><line transform="translate(0,175)" x2="-5" y2="0" stroke="#888" stroke-width="1" opacity="1"/><line transform="translate(0,144)" x2="-5" y2="0" stroke="#888" stroke-width="1" opacity="1"/><line transform="translate(0,113)" x2="-5" y2="0" stroke="#888" stroke-width="1" opacity="1"/><line transform="translate(0,82)" x2="-5" y2="0" stroke="#888" stroke-width="1" opacity="1"/><line transform="translate(0,51)" x2="-5" y2="0" stroke="#888" stroke-width="1" opacity="1"/><line transform="translate(0,19)" x2="-5" y2="0" stroke="#888" stroke-width="1" opacity="1"/></g><g class="mark-text role-axis-label" pointer-events="none"><text text-anchor="end" transform="translate(-7,275.8733620991012)" font-family="sans-serif" font-size="24px" fill="#000" opacity="1">0.2</text><text text-anchor="end" transform="translate(-7,244.67911482552262)" font-family="sans-serif" font-size="24px" fill="#000" opacity="1">0.4</text><text text-anchor="end" transform="translate(-7,213.484867551944)" font-family="sans-serif" font-size="24px" fill="#000" opacity="1">0.6</text><text text-anchor="end" transform="translate(-7,182.29062027836542)" font-family="sans-serif" font-size="24px" fill="#000" opacity="1">0.8</text><text text-anchor="end" transform="translate(-7,151.09637300478684)" font-family="sans-serif" font-size="24px" fill="#000" opacity="1">1.0</text><text text-anchor="end" transform="translate(-7,119.90212573120829)" font-family="sans-serif" font-size="24px" fill="#000" opacity="1">1.2</text><text text-anchor="end" transform="translate(-7,88.70787845762968)" font-family="sans-serif" font-size="24px" fill="#000" opacity="1">1.4</text><text text-anchor="end" transform="translate(-7,57.51363118405108)" font-family="sans-serif" font-size="24px" fill="#000" opacity="1">1.6</text><text text-anchor="end" transform="translate(-7,26.319383910472474)" font-family="sans-serif" font-size="24px" fill="#000" opacity="1">1.8</text></g><g class="mark-rule role-axis-domain" pointer-events="none"><line transform="translate(0,300)" x2="0" y2="-300" stroke="#888" stroke-width="1" opacity="1"/></g><g class="mark-text role-axis-title" pointer-events="none"><text text-anchor="middle" transform="translate(-44.36328125,150) rotate(-90) translate(0,-5)" font-family="sans-serif" font-size="24px" font-weight="bold" fill="#000" opacity="1">Using delta method</text></g></g><path class="foreground" aria-hidden="true" d="" pointer-events="none" display="none"/></g></g><g class="mark-rule role-mark layer_0_marks" role="graphics-symbol" aria-roledescription="rule mark container"><line transform="translate(0,300)" x2="300" y2="-300" stroke="black" stroke-dasharray="8,8"/></g><g class="mark-symbol role-mark layer_1_marks" role="graphics-object" aria-roledescription="symbol mark container"><path aria-label="all_draws: 0.823278336212; delta_method: 0.638803792242" role="graphics-symbol" aria-roledescription="circle" transform="translate(128.34013060116442,200.4325921002411)" d="M3.873,0A3.873,3.873,0,1,1,-3.873,0A3.873,3.873,0,1,1,3.873,0" fill="#4c78a8" stroke-width="2" opacity="0.7"/><path aria-label="all_draws: 1.92386504307; delta_method: 1.48093225143" role="graphics-symbol" aria-roledescription="circle" transform="translate(300,69.08477514081878)" d="M3.873,0A3.873,3.873,0,1,1,-3.873,0A3.873,3.873,0,1,1,3.873,0" fill="#4c78a8" stroke-width="2" opacity="0.7"/><path aria-label="all_draws: 0.731728452249; delta_method: 0.571373580256" role="graphics-symbol" aria-roledescription="circle" transform="translate(114.06098201011403,210.94976563223787)" d="M3.873,0A3.873,3.873,0,1,1,-3.873,0A3.873,3.873,0,1,1,3.873,0" fill="#4c78a8" stroke-width="2" opacity="0.7"/><path aria-label="all_draws: 0.277309341007; delta_method: 0.219281486328" role="graphics-symbol" aria-roledescription="circle" transform="translate(43.18467140058548,265.8660048375586)" d="M3.873,0A3.873,3.873,0,1,1,-3.873,0A3.873,3.873,0,1,1,3.873,0" fill="#4c78a8" stroke-width="2" opacity="0.7"/><path aria-label="all_draws: 0.65365307544; delta_method: 0.511341427114" role="graphics-symbol" aria-roledescription="circle" transform="translate(101.88346895944579,220.31305477955016)" d="M3.873,0A3.873,3.873,0,1,1,-3.873,0A3.873,3.873,0,1,1,3.873,0" fill="#4c78a8" stroke-width="2" opacity="0.7"/><path aria-label="all_draws: 0.180468060658; delta_method: 0.150869646288" role="graphics-symbol" aria-roledescription="circle" transform="translate(28.08021717307066,276.5362841107943)" d="M3.873,0A3.873,3.873,0,1,1,-3.873,0A3.873,3.873,0,1,1,3.873,0" fill="#4c78a8" stroke-width="2" opacity="0.7"/><path aria-label="all_draws: 0.00789150776807; delta_method: 0.00501923403267" role="graphics-symbol" aria-roledescription="circle" transform="translate(1.1632388507136686,299.2847532349849)" d="M3.873,0A3.873,3.873,0,1,1,-3.873,0A3.873,3.873,0,1,1,3.873,0" fill="#4c78a8" stroke-width="2" opacity="0.7"/><path aria-label="all_draws: 0.00373254713962; delta_method: 0.00269298070137" role="graphics-symbol" aria-roledescription="circle" transform="translate(0.5145606194877048,299.6475818431718)" d="M3.873,0A3.873,3.873,0,1,1,-3.873,0A3.873,3.873,0,1,1,3.873,0" fill="#4c78a8" stroke-width="2" opacity="0.7"/><path aria-label="all_draws: 0.00989242019605; delta_method: 0.00621398290301" role="graphics-symbol" aria-roledescription="circle" transform="translate(1.475323635968176,299.0984067765286)" d="M3.873,0A3.873,3.873,0,1,1,-3.873,0A3.873,3.873,0,1,1,3.873,0" fill="#4c78a8" stroke-width="2" opacity="0.7"/><path aria-label="all_draws: 0.0259927826154; delta_method: 0.0173787040147" role="graphics-symbol" aria-roledescription="circle" transform="translate(3.9865170684824975,297.35703142103836)" d="M3.873,0A3.873,3.873,0,1,1,-3.873,0A3.873,3.873,0,1,1,3.873,0" fill="#4c78a8" stroke-width="2" opacity="0.7"/><path aria-label="all_draws: 0.211289463395; delta_method: 0.139782429938" role="graphics-symbol" aria-roledescription="circle" transform="translate(32.88746946449465,278.2655709527226)" d="M3.873,0A3.873,3.873,0,1,1,-3.873,0A3.873,3.873,0,1,1,3.873,0" fill="#4c78a8" stroke-width="2" opacity="0.7"/><path aria-label="all_draws: 0.0213313262806; delta_method: 0.0151160213878" role="graphics-symbol" aria-roledescription="circle" transform="translate(3.259463960675511,297.70994482786494)" d="M3.873,0A3.873,3.873,0,1,1,-3.873,0A3.873,3.873,0,1,1,3.873,0" fill="#4c78a8" stroke-width="2" opacity="0.7"/><path aria-label="all_draws: 0.0673493535986; delta_method: 0.0530113178514" role="graphics-symbol" aria-roledescription="circle" transform="translate(10.436952576669567,291.7993685859073)" d="M3.873,0A3.873,3.873,0,1,1,-3.873,0A3.873,3.873,0,1,1,3.873,0" fill="#4c78a8" stroke-width="2" opacity="0.7"/><path aria-label="all_draws: 0.20795200444; delta_method: 0.152489540774" role="graphics-symbol" aria-roledescription="circle" transform="translate(32.36692186494814,276.2836271649787)" d="M3.873,0A3.873,3.873,0,1,1,-3.873,0A3.873,3.873,0,1,1,3.873,0" fill="#4c78a8" stroke-width="2" opacity="0.7"/><path aria-label="all_draws: 0.137603075084; delta_method: 0.104574593606" role="graphics-symbol" aria-roledescription="circle" transform="translate(21.39451237625681,283.7569807153567)" d="M3.873,0A3.873,3.873,0,1,1,-3.873,0A3.873,3.873,0,1,1,3.873,0" fill="#4c78a8" stroke-width="2" opacity="0.7"/><path aria-label="all_draws: 0.533820658185; delta_method: 0.410383990276" role="graphics-symbol" aria-roledescription="circle" transform="translate(83.1930586831455,236.05951102374988)" d="M3.873,0A3.873,3.873,0,1,1,-3.873,0A3.873,3.873,0,1,1,3.873,0" fill="#4c78a8" stroke-width="2" opacity="0.7"/><path aria-label="all_draws: 1.17098348308; delta_method: 0.870156545365" role="graphics-symbol" aria-roledescription="circle" transform="translate(182.57213224894736,164.34821715856194)" d="M3.873,0A3.873,3.873,0,1,1,-3.873,0A3.873,3.873,0,1,1,3.873,0" fill="#4c78a8" stroke-width="2" opacity="0.7"/><path aria-label="all_draws: 0.489976472827; delta_method: 0.383032604082" role="graphics-symbol" aria-roledescription="circle" transform="translate(76.35462688535853,240.32554054482432)" d="M3.873,0A3.873,3.873,0,1,1,-3.873,0A3.873,3.873,0,1,1,3.873,0" fill="#4c78a8" stroke-width="2" opacity="0.7"/><path aria-label="all_draws: 0.572889559929; delta_method: 0.579651614097" role="graphics-symbol" aria-roledescription="circle" transform="translate(89.28668359176339,209.65863045940262)" d="M3.873,0A3.873,3.873,0,1,1,-3.873,0A3.873,3.873,0,1,1,3.873,0" fill="#4c78a8" stroke-width="2" opacity="0.7"/><path aria-label="all_draws: 1.35695131552; delta_method: 1.3406373916" role="graphics-symbol" aria-roledescription="circle" transform="translate(211.57776500061078,90.96673788437725)" d="M3.873,0A3.873,3.873,0,1,1,-3.873,0A3.873,3.873,0,1,1,3.873,0" fill="#4c78a8" stroke-width="2" opacity="0.7"/><path aria-label="all_draws: 0.503906562726; delta_method: 0.518368976584" role="graphics-symbol" aria-roledescription="circle" transform="translate(78.52732022964611,219.21695920016532)" d="M3.873,0A3.873,3.873,0,1,1,-3.873,0A3.873,3.873,0,1,1,3.873,0" fill="#4c78a8" stroke-width="2" opacity="0.7"/><path aria-label="all_draws: 0.211536103797; delta_method: 0.213298137698" role="graphics-symbol" aria-roledescription="circle" transform="translate(32.92593827298592,266.79923512098384)" d="M3.873,0A3.873,3.873,0,1,1,-3.873,0A3.873,3.873,0,1,1,3.873,0" fill="#4c78a8" stroke-width="2" opacity="0.7"/><path aria-label="all_draws: 0.485816914496; delta_method: 0.487117747693" role="graphics-symbol" aria-roledescription="circle" transform="translate(75.70585542972981,224.09125200832338)" d="M3.873,0A3.873,3.873,0,1,1,-3.873,0A3.873,3.873,0,1,1,3.873,0" fill="#4c78a8" stroke-width="2" opacity="0.7"/><path aria-label="all_draws: 0.135118813191; delta_method: 0.148050984543" role="graphics-symbol" aria-roledescription="circle" transform="translate(21.007038977323525,276.97591426803166)" d="M3.873,0A3.873,3.873,0,1,1,-3.873,0A3.873,3.873,0,1,1,3.873,0" fill="#4c78a8" stroke-width="2" opacity="0.7"/><path aria-label="all_draws: 0.00441980580092; delta_method: 0.0042291194834" role="graphics-symbol" aria-roledescription="circle" transform="translate(0.6217532025963275,299.40798837810655)" d="M3.873,0A3.873,3.873,0,1,1,-3.873,0A3.873,3.873,0,1,1,3.873,0" fill="#4c78a8" stroke-width="2" opacity="0.7"/><path aria-label="all_draws: 0.00222200757383; delta_method: 0.00219554834176" role="graphics-symbol" aria-roledescription="circle" transform="translate(0.27895989582880143,299.72516698330963)" d="M3.873,0A3.873,3.873,0,1,1,-3.873,0A3.873,3.873,0,1,1,3.873,0" fill="#4c78a8" stroke-width="2" opacity="0.7"/><path aria-label="all_draws: 0.00606916913614; delta_method: 0.00586948603922" role="graphics-symbol" aria-roledescription="circle" transform="translate(0.8790064412105548,299.1521383782992)" d="M3.873,0A3.873,3.873,0,1,1,-3.873,0A3.873,3.873,0,1,1,3.873,0" fill="#4c78a8" stroke-width="2" opacity="0.7"/><path aria-label="all_draws: 0.0175436793952; delta_method: 0.0161690604326" role="graphics-symbol" aria-roledescription="circle" transform="translate(2.6686999930289383,297.5457010260982)" d="M3.873,0A3.873,3.873,0,1,1,-3.873,0A3.873,3.873,0,1,1,3.873,0" fill="#4c78a8" stroke-width="2" opacity="0.7"/><path aria-label="all_draws: 0.137168970634; delta_method: 0.124404832132" role="graphics-symbol" aria-roledescription="circle" transform="translate(21.326804568389438,280.6640338948838)" d="M3.873,0A3.873,3.873,0,1,1,-3.873,0A3.873,3.873,0,1,1,3.873,0" fill="#4c78a8" stroke-width="2" opacity="0.7"/><path aria-label="all_draws: 0.0141646754982; delta_method: 0.0132762429678" role="graphics-symbol" aria-roledescription="circle" transform="translate(2.1416725775312395,297.99689734267514)" d="M3.873,0A3.873,3.873,0,1,1,-3.873,0A3.873,3.873,0,1,1,3.873,0" fill="#4c78a8" stroke-width="2" opacity="0.7"/><path aria-label="all_draws: 0.0572704242555; delta_method: 0.0528193314667" role="graphics-symbol" aria-roledescription="circle" transform="translate(8.864929505762388,291.82931293969943)" d="M3.873,0A3.873,3.873,0,1,1,-3.873,0A3.873,3.873,0,1,1,3.873,0" fill="#4c78a8" stroke-width="2" opacity="0.7"/><path aria-label="all_draws: 0.153942647664; delta_method: 0.146335486239" role="graphics-symbol" aria-roledescription="circle" transform="translate(23.94301571328205,277.24348265949885)" d="M3.873,0A3.873,3.873,0,1,1,-3.873,0A3.873,3.873,0,1,1,3.873,0" fill="#4c78a8" stroke-width="2" opacity="0.7"/><path aria-label="all_draws: 0.120672688246; delta_method: 0.108340553465" role="graphics-symbol" aria-roledescription="circle" transform="translate(18.75385900893715,283.1695992998901)" d="M3.873,0A3.873,3.873,0,1,1,-3.873,0A3.873,3.873,0,1,1,3.873,0" fill="#4c78a8" stroke-width="2" opacity="0.7"/><path aria-label="all_draws: 0.363460465739; delta_method: 0.370808717688" role="graphics-symbol" aria-roledescription="circle" transform="translate(56.62176883954564,242.23211521885787)" d="M3.873,0A3.873,3.873,0,1,1,-3.873,0A3.873,3.873,0,1,1,3.873,0" fill="#4c78a8" stroke-width="2" opacity="0.7"/><path aria-label="all_draws: 0.800719084524; delta_method: 0.777664617158" role="graphics-symbol" aria-roledescription="circle" transform="translate(124.821536223909,178.77429755495174)" d="M3.873,0A3.873,3.873,0,1,1,-3.873,0A3.873,3.873,0,1,1,3.873,0" fill="#4c78a8" stroke-width="2" opacity="0.7"/><path aria-label="all_draws: 0.330007208184; delta_method: 0.349445599837" role="graphics-symbol" aria-roledescription="circle" transform="translate(51.40402289814758,245.56414712274324)" d="M3.873,0A3.873,3.873,0,1,1,-3.873,0A3.873,3.873,0,1,1,3.873,0" fill="#4c78a8" stroke-width="2" opacity="0.7"/><path aria-label="all_draws: 0.0839222674405; delta_method: 0.0839541844309" role="graphics-symbol" aria-roledescription="circle" transform="translate(13.021850438806563,286.9731714287344)" d="M3.873,0A3.873,3.873,0,1,1,-3.873,0A3.873,3.873,0,1,1,3.873,0" fill="#4c78a8" stroke-width="2" opacity="0.7"/><path aria-label="all_draws: 0.176354369623; delta_method: 0.17851196823" role="graphics-symbol" aria-roledescription="circle" transform="translate(27.43859969635345,272.22487698142425)" d="M3.873,0A3.873,3.873,0,1,1,-3.873,0A3.873,3.873,0,1,1,3.873,0" fill="#4c78a8" stroke-width="2" opacity="0.7"/><path aria-label="all_draws: 0.08164982898; delta_method: 0.0802044597683" role="graphics-symbol" aria-roledescription="circle" transform="translate(12.667415402554592,287.55802062039794)" d="M3.873,0A3.873,3.873,0,1,1,-3.873,0A3.873,3.873,0,1,1,3.873,0" fill="#4c78a8" stroke-width="2" opacity="0.7"/><path aria-label="all_draws: 0.0314378270573; delta_method: 0.0324365385239" role="graphics-symbol" aria-roledescription="circle" transform="translate(4.835787382173273,295.00844235561146)" d="M3.873,0A3.873,3.873,0,1,1,-3.873,0A3.873,3.873,0,1,1,3.873,0" fill="#4c78a8" stroke-width="2" opacity="0.7"/><path aria-label="all_draws: 0.0691854857726; delta_method: 0.0697666187445" role="graphics-symbol" aria-roledescription="circle" transform="translate(10.723336381978726,289.1860235898891)" d="M3.873,0A3.873,3.873,0,1,1,-3.873,0A3.873,3.873,0,1,1,3.873,0" fill="#4c78a8" stroke-width="2" opacity="0.7"/><path aria-label="all_draws: 0.0235538235902; delta_method: 0.0243855806645" role="graphics-symbol" aria-roledescription="circle" transform="translate(3.606109613881794,296.2641602068951)" d="M3.873,0A3.873,3.873,0,1,1,-3.873,0A3.873,3.873,0,1,1,3.873,0" fill="#4c78a8" stroke-width="2" opacity="0.7"/><path aria-label="all_draws: 0.000984759848668; delta_method: 0.00100824120789" role="graphics-symbol" aria-roledescription="circle" transform="translate(0.08598483844242856,299.9103527449289)" d="M3.873,0A3.873,3.873,0,1,1,-3.873,0A3.873,3.873,0,1,1,3.873,0" fill="#4c78a8" stroke-width="2" opacity="0.7"/><path aria-label="all_draws: 0.000433473339407; delta_method: 0.000471660921409" role="graphics-symbol" aria-roledescription="circle" transform="translate(0,299.99404383562126)" d="M3.873,0A3.873,3.873,0,1,1,-3.873,0A3.873,3.873,0,1,1,3.873,0" fill="#4c78a8" stroke-width="2" opacity="0.7"/><path aria-label="all_draws: 0.00110116998598; delta_method: 0.00112440133916" role="graphics-symbol" aria-roledescription="circle" transform="translate(0.10414147148409703,299.892235105638)" d="M3.873,0A3.873,3.873,0,1,1,-3.873,0A3.873,3.873,0,1,1,3.873,0" fill="#4c78a8" stroke-width="2" opacity="0.7"/><path aria-label="all_draws: 0.00136282298683; delta_method: 0.00167107907666" role="graphics-symbol" aria-roledescription="circle" transform="translate(0.14495181352693656,299.8069691030253)" d="M3.873,0A3.873,3.873,0,1,1,-3.873,0A3.873,3.873,0,1,1,3.873,0" fill="#4c78a8" stroke-width="2" opacity="0.7"/><path aria-label="all_draws: 0.0100621041242; delta_method: 0.0116087420263" role="graphics-symbol" aria-roledescription="circle" transform="translate(1.5017894480360732,298.2569795261665)" d="M3.873,0A3.873,3.873,0,1,1,-3.873,0A3.873,3.873,0,1,1,3.873,0" fill="#4c78a8" stroke-width="2" opacity="0.7"/><path aria-label="all_draws: 0.00130380085584; delta_method: 0.00144492761714" role="graphics-symbol" aria-roledescription="circle" transform="translate(0.1357460587838371,299.84224222577285)" d="M3.873,0A3.873,3.873,0,1,1,-3.873,0A3.873,3.873,0,1,1,3.873,0" fill="#4c78a8" stroke-width="2" opacity="0.7"/><path aria-label="all_draws: 0.00643866121325; delta_method: 0.00680996150773" role="graphics-symbol" aria-roledescription="circle" transform="translate(0.936636577304316,299.00545125670084)" d="M3.873,0A3.873,3.873,0,1,1,-3.873,0A3.873,3.873,0,1,1,3.873,0" fill="#4c78a8" stroke-width="2" opacity="0.7"/><path aria-label="all_draws: 0.0142330462815; delta_method: 0.0164848728697" role="graphics-symbol" aria-roledescription="circle" transform="translate(2.1523364531240614,297.49644336981845)" d="M3.873,0A3.873,3.873,0,1,1,-3.873,0A3.873,3.873,0,1,1,3.873,0" fill="#4c78a8" stroke-width="2" opacity="0.7"/><path aria-label="all_draws: 0.0150691774803; delta_method: 0.0160933371635" role="graphics-symbol" aria-roledescription="circle" transform="translate(2.2827488699706517,297.55751167800406)" d="M3.873,0A3.873,3.873,0,1,1,-3.873,0A3.873,3.873,0,1,1,3.873,0" fill="#4c78a8" stroke-width="2" opacity="0.7"/><path aria-label="all_draws: 0.0558574398571; delta_method: 0.0554621977017" role="graphics-symbol" aria-roledescription="circle" transform="translate(8.644544582176465,291.4171018254723)" d="M3.873,0A3.873,3.873,0,1,1,-3.873,0A3.873,3.873,0,1,1,3.873,0" fill="#4c78a8" stroke-width="2" opacity="0.7"/><path aria-label="all_draws: 0.103296680592; delta_method: 0.104619891722" role="graphics-symbol" aria-roledescription="circle" transform="translate(16.043701611926764,283.7499155120847)" d="M3.873,0A3.873,3.873,0,1,1,-3.873,0A3.873,3.873,0,1,1,3.873,0" fill="#4c78a8" stroke-width="2" opacity="0.7"/><path aria-label="all_draws: 0.0553038382533; delta_method: 0.0546720508452" role="graphics-symbol" aria-roledescription="circle" transform="translate(8.558198655575286,291.5403420075841)" d="M3.873,0A3.873,3.873,0,1,1,-3.873,0A3.873,3.873,0,1,1,3.873,0" fill="#4c78a8" stroke-width="2" opacity="0.7"/><path aria-label="all_draws: 0.285611552046; delta_method: 0.282020966596" role="graphics-symbol" aria-roledescription="circle" transform="translate(44.47957752088081,256.0804505310138)" d="M3.873,0A3.873,3.873,0,1,1,-3.873,0A3.873,3.873,0,1,1,3.873,0" fill="#4c78a8" stroke-width="2" opacity="0.7"/><path aria-label="all_draws: 0.635098556831; delta_method: 0.639851340255" role="graphics-symbol" aria-roledescription="circle" transform="translate(98.98949775167935,200.2692047414322)" d="M3.873,0A3.873,3.873,0,1,1,-3.873,0A3.873,3.873,0,1,1,3.873,0" fill="#4c78a8" stroke-width="2" opacity="0.7"/><path aria-label="all_draws: 0.245267971421; delta_method: 0.250507177634" role="graphics-symbol" aria-roledescription="circle" transform="translate(38.18713937124761,260.99569515808565)" d="M3.873,0A3.873,3.873,0,1,1,-3.873,0A3.873,3.873,0,1,1,3.873,0" fill="#4c78a8" stroke-width="2" opacity="0.7"/><path aria-label="all_draws: 0.0827923651782; delta_method: 0.0840469977391" role="graphics-symbol" aria-roledescription="circle" transform="translate(12.84561818598857,286.95869522229543)" d="M3.873,0A3.873,3.873,0,1,1,-3.873,0A3.873,3.873,0,1,1,3.873,0" fill="#4c78a8" stroke-width="2" opacity="0.7"/><path aria-label="all_draws: 0.188943231935; delta_method: 0.186407864656" role="graphics-symbol" aria-roledescription="circle" transform="translate(29.40210011557862,270.9933442536003)" d="M3.873,0A3.873,3.873,0,1,1,-3.873,0A3.873,3.873,0,1,1,3.873,0" fill="#4c78a8" stroke-width="2" opacity="0.7"/><path aria-label="all_draws: 0.0607851243889; delta_method: 0.0586780912306" role="graphics-symbol" aria-roledescription="circle" transform="translate(9.413121631034645,290.91551493573456)" d="M3.873,0A3.873,3.873,0,1,1,-3.873,0A3.873,3.873,0,1,1,3.873,0" fill="#4c78a8" stroke-width="2" opacity="0.7"/><path aria-label="all_draws: 0.00402982946565; delta_method: 0.00378340018669" role="graphics-symbol" aria-roledescription="circle" transform="translate(0.5609281114295638,299.47750776788774)" d="M3.873,0A3.873,3.873,0,1,1,-3.873,0A3.873,3.873,0,1,1,3.873,0" fill="#4c78a8" stroke-width="2" opacity="0.7"/><path aria-label="all_draws: 0.0019557990298; delta_method: 0.00173700765958" role="graphics-symbol" aria-roledescription="circle" transform="translate(0.23743902008478354,299.7966861404353)" d="M3.873,0A3.873,3.873,0,1,1,-3.873,0A3.873,3.873,0,1,1,3.873,0" fill="#4c78a8" stroke-width="2" opacity="0.7"/><path aria-label="all_draws: 0.0049181326023; delta_method: 0.00466992304366" role="graphics-symbol" aria-roledescription="circle" transform="translate(0.6994778499216714,299.33923570181776)" d="M3.873,0A3.873,3.873,0,1,1,-3.873,0A3.873,3.873,0,1,1,3.873,0" fill="#4c78a8" stroke-width="2" opacity="0.7"/><path aria-label="all_draws: 0.00864724226882; delta_method: 0.00935011914235" role="graphics-symbol" aria-roledescription="circle" transform="translate(1.2811116951614774,298.60925972986036)" d="M3.873,0A3.873,3.873,0,1,1,-3.873,0A3.873,3.873,0,1,1,3.873,0" fill="#4c78a8" stroke-width="2" opacity="0.7"/><path aria-label="all_draws: 0.0724733697338; delta_method: 0.0758717115369" role="graphics-symbol" aria-roledescription="circle" transform="translate(11.236151708451166,288.2338047189165)" d="M3.873,0A3.873,3.873,0,1,1,-3.873,0A3.873,3.873,0,1,1,3.873,0" fill="#4c78a8" stroke-width="2" opacity="0.7"/><path aria-label="all_draws: 0.00735126295126; delta_method: 0.00759806973799" role="graphics-symbol" aria-roledescription="circle" transform="translate(1.078976198693429,298.88252904163585)" d="M3.873,0A3.873,3.873,0,1,1,-3.873,0A3.873,3.873,0,1,1,3.873,0" fill="#4c78a8" stroke-width="2" opacity="0.7"/><path aria-label="all_draws: 0.0242238089507; delta_method: 0.0268272193208" role="graphics-symbol" aria-roledescription="circle" transform="translate(3.710608058893668,295.88333480690096)" d="M3.873,0A3.873,3.873,0,1,1,-3.873,0A3.873,3.873,0,1,1,3.873,0" fill="#4c78a8" stroke-width="2" opacity="0.7"/><path aria-label="all_draws: 0.0830420316028; delta_method: 0.081239689642" role="graphics-symbol" aria-roledescription="circle" transform="translate(12.884558966911735,287.39655453706644)" d="M3.873,0A3.873,3.873,0,1,1,-3.873,0A3.873,3.873,0,1,1,3.873,0" fill="#4c78a8" stroke-width="2" opacity="0.7"/><path aria-label="all_draws: 0.0423077114481; delta_method: 0.04811545439" role="graphics-symbol" aria-roledescription="circle" transform="translate(6.531176689781071,292.5629824630624)" d="M3.873,0A3.873,3.873,0,1,1,-3.873,0A3.873,3.873,0,1,1,3.873,0" fill="#4c78a8" stroke-width="2" opacity="0.7"/><path aria-label="all_draws: 0.200990986496; delta_method: 0.193098826281" role="graphics-symbol" aria-roledescription="circle" transform="translate(31.2812032898966,269.9497466964086)" d="M3.873,0A3.873,3.873,0,1,1,-3.873,0A3.873,3.873,0,1,1,3.873,0" fill="#4c78a8" stroke-width="2" opacity="0.7"/><path aria-label="all_draws: 0.414220606133; delta_method: 0.407067789336" role="graphics-symbol" aria-roledescription="circle" transform="translate(64.53889069495537,236.57674298437846)" d="M3.873,0A3.873,3.873,0,1,1,-3.873,0A3.873,3.873,0,1,1,3.873,0" fill="#4c78a8" stroke-width="2" opacity="0.7"/><path aria-label="all_draws: 0.174532954055; delta_method: 0.17508237083" role="graphics-symbol" aria-roledescription="circle" transform="translate(27.15451125829596,272.75979552805916)" d="M3.873,0A3.873,3.873,0,1,1,-3.873,0A3.873,3.873,0,1,1,3.873,0" fill="#4c78a8" stroke-width="2" opacity="0.7"/></g></g><path class="foreground" aria-hidden="true" d="" display="none"/></g></g></g></svg>