<svg xmlns="http://www.w3.org/2000/svg" xmlns:xlink="http://www.w3.org/1999/xlink" version="1.1" class="marks" width="376" height="373" viewBox="0 0 376 373"><rect width="376" height="373" fill="white"/><g fill="none" stroke-miterlimit="10" transform="translate(67,9)"><g class="mark-group role-frame root" role="graphics-object" aria-roledescription="group mark container"><g transform="translate(0,0)"><path class="background" aria-hidden="true" d="M0.5,0.5h300v300h-300Z" stroke="#ddd"/><g><g class="mark-group role-axis" aria-hidden="true"><g transform="translate(0.5,300.5)"><path class="background" aria-hidden="true" d="M0,0h0v0h0Z" pointer-events="none"/><g><g class="mark-rule role-axis-grid" pointer-events="none"><line transform="translate(32,-300)" x2="0" y2="300" stroke="#ddd" stroke-width="1" opacity="1"/><line transform="translate(64,-300)" x2="0" y2="300" stroke="#ddd" stroke-width="1" opacity="1"/><line transform="translate(96,-300)" x2="0" y2="300" stroke="#ddd" stroke-width="1" opacity="1"/><line transform="translate(128,-300)" x2="0" y2="300" stroke="#ddd" stroke-width="1" opacity="1"/><line transform="translate(160,-300)" x2="0" y2="300" stroke="#ddd" stroke-width="1" opacity="1"/><line transform="translate(192,-300)" x2="0" y2="300" stroke="#ddd" stroke-width="1" opacity="1"/><line transform="translate(224,-300)" x2="0" y2="300" stroke="#ddd" stroke-width="1" opacity="1"/><line transform="translate(256,-300)" x2="0" y2="300" stroke="#ddd" stroke-width="1" opacity="1"/><line transform="translate(288,-300)" x2="0" y2="300" stroke="#ddd" stroke-width="1" opacity="1"/></g></g><path class="foreground" aria-hidden="true" d="" pointer-events="none" display="none"/></g></g><g class="mark-group role-axis" aria-hidden="true"><g transform="translate(0.5,0.5)"><path class="background" aria-hidden="true" d="M0,0h0v0h0Z" pointer-events="none"/><g><g class="mark-rule role-axis-grid" pointer-events="none"><line transform="translate(0,268)" x2="300" y2="0" stroke="#ddd" stroke-width="1" opacity="1"/><line transform="translate(0,236)" x2="300" y2="0" stroke="#ddd" stroke-width="1" opacity="1"/><line transform="translate(0,204)" x2="300" y2="0" stroke="#ddd" stroke-width="1" opacity="1"/><line transform="translate(0,172)" x2="300" y2="0" stroke="#ddd" stroke-width="1" opacity="1"/><line transform="translate(0,140)" x2="300" y2="0" stroke="#ddd" stroke-width="1" opacity="1"/><line transform="translate(0,108)" x2="300" y2="0" stroke="#ddd" stroke-width="1" opacity="1"/><line transform="translate(0,76)" x2="300" y2="0" stroke="#ddd" stroke-width="1" opacity="1"/><line transform="translate(0,44)" x2="300" y2="0" stroke="#ddd" stroke-width="1" opacity="1"/><line transform="translate(0,12)" x2="300" y2="0" stroke="#ddd" stroke-width="1" opacity="1"/></g></g><path class="foreground" aria-hidden="true" d="" pointer-events="none" display="none"/></g></g><g class="mark-group role-axis" role="graphics-symbol" aria-roledescription="axis" aria-label="X-axis titled 'Using all samples' for a linear scale with values from 0 to 47"><g transform="translate(0.5,300.5)"><path class="background" aria-hidden="true" d="M0,0h0v0h0Z" pointer-events="none"/><g><g class="mark-rule role-axis-tick" pointer-events="none"><line transform="translate(32,0)" x2="0" y2="5" stroke="#888" stroke-width="1" opacity="1"/><line transform="translate(64,0)" x2="0" y2="5" stroke="#888" stroke-width="1" opacity="1"/><line transform="translate(96,0)" x2="0" y2="5" stroke="#888" stroke-width="1" opacity="1"/><line transform="translate(128,0)" x2="0" y2="5" stroke="#888" stroke-width="1" opacity="1"/><line transform="translate(160,0)" x2="0" y2="5" stroke="#888" stroke-width="1" opacity="1"/><line transform="translate(192,0)" x2="0" y2="5" stroke="#888" stroke-width="1" opacity="1"/><line transform="translate(224,0)" x2="0" y2="5" stroke="#888" stroke-width="1" opacity="1"/><line transform="translate(256,0)" x2="0" y2="5" stroke="#888" stroke-width="1" opacity="1"/><line transform="translate(288,0)" x2="0" y2="5" stroke="#888" stroke-width="1" opacity="1"/></g><g class="mark-text role-axis-label" pointer-events="none"><text text-anchor="middle" transform="translate(31.98389936381505,26)" font-family="sans-serif" font-size="24px" fill="#000" opacity="1">5</text><text text-anchor="middle" transform="translate(63.98501904990974,26)" font-family="sans-serif" font-size="24px" fill="#000" opacity="1">10</text><text text-anchor="middle" transform="translate(95.98613873600443,26)" font-family="sans-serif" font-size="24px" fill="#000" opacity="1">15</text><text text-anchor="middle" transform="translate(127.98725842209913,26)" font-family="sans-serif" font-size="24px" fill="#000" opacity="1">20</text><text text-anchor="middle" transform="translate(159.9883781081938,26)" font-family="sans-serif" font-size="24px" fill="#000" opacity="1">25</text><text text-anchor="middle" transform="translate(191.98949779428852,26)" font-family="sans-serif" font-size="24px" fill="#000" opacity="1">30</text><text text-anchor="middle" transform="translate(223.99061748038324,26)" font-family="sans-serif" font-size="24px" fill="#000" opacity="1">35</text><text text-anchor="middle" transform="translate(255.99173716647792,26)" font-family="sans-serif" font-size="24px" fill="#000" opacity="1">40</text><text text-anchor="middle" transform="translate(287.9928568525726,26)" font-family="sans-serif" font-size="24px" fill="#000" opacity="1">45</text></g><g class="mark-rule role-axis-domain" pointer-events="none"><line transform="translate(0,0)" x2="300" y2="0" stroke="#888" stroke-width="1" opacity="1"/></g><g class="mark-text role-axis-title" pointer-events="none"><text text-anchor="middle" transform="translate(150,54)" font-family="sans-serif" font-size="24px" font-weight="bold" fill="#000" opacity="1">Using all samples</text></g></g><path class="foreground" aria-hidden="true" d="" pointer-events="none" display="none"/></g></g><g class="mark-group role-axis" role="graphics-symbol" aria-roledescription="axis" aria-label="Y-axis titled 'Using the mean' for a linear scale with values from 0 to 47"><g transform="translate(0.5,0.5)"><path class="background" aria-hidden="true" d="M0,0h0v0h0Z" pointer-events="none"/><g><g class="mark-rule role-axis-tick" pointer-events="none"><line transform="translate(0,268)" x2="-5" y2="0" stroke="#888" stroke-width="1" opacity="1"/><line transform="translate(0,236)" x2="-5" y2="0" stroke="#888" stroke-width="1" opacity="1"/><line transform="translate(0,204)" x2="-5" y2="0" stroke="#888" stroke-width="1" opacity="1"/><line transform="translate(0,172)" x2="-5" y2="0" stroke="#888" stroke-width="1" opacity="1"/><line transform="translate(0,140)" x2="-5" y2="0" stroke="#888" stroke-width="1" opacity="1"/><line transform="translate(0,108)" x2="-5" y2="0" stroke="#888" stroke-width="1" opacity="1"/><line transform="translate(0,76)" x2="-5" y2="0" stroke="#888" stroke-width="1" opacity="1"/><line transform="translate(0,44)" x2="-5" y2="0" stroke="#888" stroke-width="1" opacity="1"/><line transform="translate(0,12)" x2="-5" y2="0" stroke="#888" stroke-width="1" opacity="1"/></g><g class="mark-text role-axis-label" pointer-events="none"><text text-anchor="end" transform="translate(-7,275.01610063618494)" font-family="sans-serif" font-size="24px" fill="#000" opacity="1">5</text><text text-anchor="end" transform="translate(-7,243.01498095009026)" font-family="sans-serif" font-size="24px" fill="#000" opacity="1">10</text><text text-anchor="end" transform="translate(-7,211.01386126399558)" font-family="sans-serif" font-size="24px" fill="#000" opacity="1">15</text><text text-anchor="end" transform="translate(-7,179.01274157790087)" font-family="sans-serif" font-size="24px" fill="#000" opacity="1">20</text><text text-anchor="end" transform="translate(-7,147.0116218918062)" font-family="sans-serif" font-size="24px" fill="#000" opacity="1">25</text><text text-anchor="end" transform="translate(-7,115.01050220571148)" font-family="sans-serif" font-size="24px" fill="#000" opacity="1">30</text><text text-anchor="end" transform="translate(-7,83.00938251961676)" font-family="sans-serif" font-size="24px" fill="#000" opacity="1">35</text><text text-anchor="end" transform="translate(-7,51.00826283352208)" font-family="sans-serif" font-size="24px" fill="#000" opacity="1">40</text><text text-anchor="end" transform="translate(-7,19.0071431474274)" font-family="sans-serif" font-size="24px" fill="#000" opacity="1">45</text></g><g class="mark-rule role-axis-domain" pointer-events="none"><line transform="translate(0,300)" x2="0" y2="-300" stroke="#888" stroke-width="1" opacity="1"/></g><g class="mark-text role-axis-title" pointer-events="none"><text text-anchor="middle" transform="translate(-37.6953125,150) rotate(-90) translate(0,-5)" font-family="sans-serif" font-size="24px" font-weight="bold" fill="#000" opacity="1">Using the mean</text></g></g><path class="foreground" aria-hidden="true" d="" pointer-events="none" display="none"/></g></g><g class="mark-rule role-mark layer_0_marks" role="graphics-symbol" aria-roledescription="rule mark container"><line transform="translate(0,300)" x2="300" y2="-300" stroke="black" stroke-dasharray="8,8"/></g><g class="mark-symbol role-mark layer_1_marks" role="graphics-object" aria-roledescription="symbol mark container"><path aria-label="all_draws: 16.1458759766; mean: 16.1466432819" role="graphics-symbol" aria-roledescription="circle" transform="translate(103.320001590407,196.6750874837621)" d="M3.873,0A3.873,3.873,0,1,1,-3.873,0A3.873,3.873,0,1,1,3.873,0" fill="#4c78a8" stroke-width="2" opacity="0.7"/><path aria-label="all_draws: 46.8760504734; mean: 46.873057399" role="graphics-symbol" aria-roledescription="circle" transform="translate(300,0.01915634666354027)" d="M3.873,0A3.873,3.873,0,1,1,-3.873,0A3.873,3.873,0,1,1,3.873,0" fill="#4c78a8" stroke-width="2" opacity="0.7"/><path aria-label="all_draws: 14.6165884308; mean: 14.618818809" role="graphics-symbol" aria-roledescription="circle" transform="translate(93.53221883280521,206.45350624688663)" d="M3.873,0A3.873,3.873,0,1,1,-3.873,0A3.873,3.873,0,1,1,3.873,0" fill="#4c78a8" stroke-width="2" opacity="0.7"/><path aria-label="all_draws: 7.36746296068; mean: 7.36527245124" role="graphics-symbol" aria-roledescription="circle" transform="translate(47.13619247525047,252.8778272757378)" d="M3.873,0A3.873,3.873,0,1,1,-3.873,0A3.873,3.873,0,1,1,3.873,0" fill="#4c78a8" stroke-width="2" opacity="0.7"/><path aria-label="all_draws: 15.9115037258; mean: 15.9037110479" role="graphics-symbol" aria-roledescription="circle" transform="translate(101.81996670083791,198.22990818270893)" d="M3.873,0A3.873,3.873,0,1,1,-3.873,0A3.873,3.873,0,1,1,3.873,0" fill="#4c78a8" stroke-width="2" opacity="0.7"/><path aria-label="all_draws: 6.85651517512; mean: 6.8534492146" role="graphics-symbol" aria-roledescription="circle" transform="translate(43.86601222743939,256.15361060649917)" d="M3.873,0A3.873,3.873,0,1,1,-3.873,0A3.873,3.873,0,1,1,3.873,0" fill="#4c78a8" stroke-width="2" opacity="0.7"/><path aria-label="all_draws: 7.38294592913; mean: 7.38343878343" role="graphics-symbol" aria-roledescription="circle" transform="translate(47.23528694052114,252.76155868156056)" d="M3.873,0A3.873,3.873,0,1,1,-3.873,0A3.873,3.873,0,1,1,3.873,0" fill="#4c78a8" stroke-width="2" opacity="0.7"/><path aria-label="all_draws: 23.8458485091; mean: 23.8414654039" role="graphics-symbol" aria-roledescription="circle" transform="translate(152.60155010925922,147.4265027460031)" d="M3.873,0A3.873,3.873,0,1,1,-3.873,0A3.873,3.873,0,1,1,3.873,0" fill="#4c78a8" stroke-width="2" opacity="0.7"/><path aria-label="all_draws: 5.19730496555; mean: 5.19795040548" role="graphics-symbol" aria-roledescription="circle" transform="translate(33.246695327239415,266.74917371267725)" d="M3.873,0A3.873,3.873,0,1,1,-3.873,0A3.873,3.873,0,1,1,3.873,0" fill="#4c78a8" stroke-width="2" opacity="0.7"/><path aria-label="all_draws: 0.0490797097114; mean: 0.0492595805278" role="graphics-symbol" aria-roledescription="circle" transform="translate(0.29690081064709445,299.7019479758485)" d="M3.873,0A3.873,3.873,0,1,1,-3.873,0A3.873,3.873,0,1,1,3.873,0" fill="#4c78a8" stroke-width="2" opacity="0.7"/><path aria-label="all_draws: 0.0317802603223; mean: 0.0320486434172" role="graphics-symbol" aria-roledescription="circle" transform="translate(0.1861804605659635,299.8121018275255)" d="M3.873,0A3.873,3.873,0,1,1,-3.873,0A3.873,3.873,0,1,1,3.873,0" fill="#4c78a8" stroke-width="2" opacity="0.7"/><path aria-label="all_draws: 0.0669355455773; mean: 0.0670869898737" role="graphics-symbol" aria-roledescription="circle" transform="translate(0.411182158774875,299.587848563814)" d="M3.873,0A3.873,3.873,0,1,1,-3.873,0A3.873,3.873,0,1,1,3.873,0" fill="#4c78a8" stroke-width="2" opacity="0.7"/><path aria-label="all_draws: 0.174004313113; mean: 0.174495669665" role="graphics-symbol" aria-roledescription="circle" transform="translate(1.0964462476840013,298.90040896034566)" d="M3.873,0A3.873,3.873,0,1,1,-3.873,0A3.873,3.873,0,1,1,3.873,0" fill="#4c78a8" stroke-width="2" opacity="0.7"/><path aria-label="all_draws: 1.89738813782; mean: 1.90368322675" role="graphics-symbol" aria-roledescription="circle" transform="translate(12.126488655609151,287.83322136552596)" d="M3.873,0A3.873,3.873,0,1,1,-3.873,0A3.873,3.873,0,1,1,3.873,0" fill="#4c78a8" stroke-width="2" opacity="0.7"/><path aria-label="all_draws: 0.153531778154; mean: 0.154203452219" role="graphics-symbol" aria-roledescription="circle" transform="translate(0.9654174393874744,299.03028369618727)" d="M3.873,0A3.873,3.873,0,1,1,-3.873,0A3.873,3.873,0,1,1,3.873,0" fill="#4c78a8" stroke-width="2" opacity="0.7"/><path aria-label="all_draws: 1.17238293839; mean: 1.17416917606" role="graphics-symbol" aria-roledescription="circle" transform="translate(7.486293023590131,292.5022746553107)" d="M3.873,0A3.873,3.873,0,1,1,-3.873,0A3.873,3.873,0,1,1,3.873,0" fill="#4c78a8" stroke-width="2" opacity="0.7"/><path aria-label="all_draws: 5.18952977897; mean: 5.19215705082" role="graphics-symbol" aria-roledescription="circle" transform="translate(33.19693239197717,266.78625247984735)" d="M3.873,0A3.873,3.873,0,1,1,-3.873,0A3.873,3.873,0,1,1,3.873,0" fill="#4c78a8" stroke-width="2" opacity="0.7"/><path aria-label="all_draws: 2.34230078324; mean: 2.34612346758" role="graphics-symbol" aria-roledescription="circle" transform="translate(14.974029218790317,285.0015047453841)" d="M3.873,0A3.873,3.873,0,1,1,-3.873,0A3.873,3.873,0,1,1,3.873,0" fill="#4c78a8" stroke-width="2" opacity="0.7"/><path aria-label="all_draws: 9.51131374603; mean: 9.51264660817" role="graphics-symbol" aria-roledescription="circle" transform="translate(60.85731758943456,239.13415179436518)" d="M3.873,0A3.873,3.873,0,1,1,-3.873,0A3.873,3.873,0,1,1,3.873,0" fill="#4c78a8" stroke-width="2" opacity="0.7"/><path aria-label="all_draws: 29.4988241442; mean: 29.4952721491" role="graphics-symbol" aria-roledescription="circle" transform="translate(188.7818600851592,111.24087347865401)" d="M3.873,0A3.873,3.873,0,1,1,-3.873,0A3.873,3.873,0,1,1,3.873,0" fill="#4c78a8" stroke-width="2" opacity="0.7"/><path aria-label="all_draws: 8.45062643898; mean: 8.45283198898" role="graphics-symbol" aria-roledescription="circle" transform="translate(54.06868129694488,245.9172026891261)" d="M3.873,0A3.873,3.873,0,1,1,-3.873,0A3.873,3.873,0,1,1,3.873,0" fill="#4c78a8" stroke-width="2" opacity="0.7"/><path aria-label="all_draws: 3.90515954004; mean: 3.90370950211" role="graphics-symbol" aria-roledescription="circle" transform="translate(24.976675244533983,275.03260532292217)" d="M3.873,0A3.873,3.873,0,1,1,-3.873,0A3.873,3.873,0,1,1,3.873,0" fill="#4c78a8" stroke-width="2" opacity="0.7"/><path aria-label="all_draws: 8.67099418781; mean: 8.66391766729" role="graphics-symbol" aria-roledescription="circle" transform="translate(55.47908423805845,244.56620707800394)" d="M3.873,0A3.873,3.873,0,1,1,-3.873,0A3.873,3.873,0,1,1,3.873,0" fill="#4c78a8" stroke-width="2" opacity="0.7"/><path aria-label="all_draws: 3.70734904492; mean: 3.70498613169" role="graphics-symbol" aria-roledescription="circle" transform="translate(23.71064377866277,276.3044793951639)" d="M3.873,0A3.873,3.873,0,1,1,-3.873,0A3.873,3.873,0,1,1,3.873,0" fill="#4c78a8" stroke-width="2" opacity="0.7"/><path aria-label="all_draws: 4.7743906526; mean: 4.77536186006" role="graphics-symbol" aria-roledescription="circle" transform="translate(30.539949018095328,269.4538350366157)" d="M3.873,0A3.873,3.873,0,1,1,-3.873,0A3.873,3.873,0,1,1,3.873,0" fill="#4c78a8" stroke-width="2" opacity="0.7"/><path aria-label="all_draws: 16.4828509927; mean: 16.4793145223" role="graphics-symbol" aria-roledescription="circle" transform="translate(105.47671715475923,194.54591704789084)" d="M3.873,0A3.873,3.873,0,1,1,-3.873,0A3.873,3.873,0,1,1,3.873,0" fill="#4c78a8" stroke-width="2" opacity="0.7"/><path aria-label="all_draws: 3.20411656544; mean: 3.2050682819" role="graphics-symbol" aria-roledescription="circle" transform="translate(20.48984321746119,279.5040655840648)" d="M3.873,0A3.873,3.873,0,1,1,-3.873,0A3.873,3.873,0,1,1,3.873,0" fill="#4c78a8" stroke-width="2" opacity="0.7"/><path aria-label="all_draws: 0.0201161148424; mean: 0.0202546155158" role="graphics-symbol" aria-roledescription="circle" transform="translate(0.1115273174585493,299.8875862472166)" d="M3.873,0A3.873,3.873,0,1,1,-3.873,0A3.873,3.873,0,1,1,3.873,0" fill="#4c78a8" stroke-width="2" opacity="0.7"/><path aria-label="all_draws: 0.0161729470795; mean: 0.0163415286815" role="graphics-symbol" aria-roledescription="circle" transform="translate(0.08629016075420069,299.91263087924165)" d="M3.873,0A3.873,3.873,0,1,1,-3.873,0A3.873,3.873,0,1,1,3.873,0" fill="#4c78a8" stroke-width="2" opacity="0.7"/><path aria-label="all_draws: 0.0244250615852; mean: 0.0245895776874" role="graphics-symbol" aria-roledescription="circle" transform="translate(0.13910554154588275,299.8598415185584)" d="M3.873,0A3.873,3.873,0,1,1,-3.873,0A3.873,3.873,0,1,1,3.873,0" fill="#4c78a8" stroke-width="2" opacity="0.7"/><path aria-label="all_draws: 0.108312162552; mean: 0.108619200804" role="graphics-symbol" aria-roledescription="circle" transform="translate(0.6760017731774521,299.32203311325054)" d="M3.873,0A3.873,3.873,0,1,1,-3.873,0A3.873,3.873,0,1,1,3.873,0" fill="#4c78a8" stroke-width="2" opacity="0.7"/><path aria-label="all_draws: 1.2207009696; mean: 1.22527061167" role="graphics-symbol" aria-roledescription="circle" transform="translate(7.795539243563757,292.1752140239271)" d="M3.873,0A3.873,3.873,0,1,1,-3.873,0A3.873,3.873,0,1,1,3.873,0" fill="#4c78a8" stroke-width="2" opacity="0.7"/><path aria-label="all_draws: 0.0971381068583; mean: 0.0976089240767" role="graphics-symbol" aria-roledescription="circle" transform="translate(0.6044853144507626,299.39250134991795)" d="M3.873,0A3.873,3.873,0,1,1,-3.873,0A3.873,3.873,0,1,1,3.873,0" fill="#4c78a8" stroke-width="2" opacity="0.7"/><path aria-label="all_draws: 0.703335487588; mean: 0.704703450111" role="graphics-symbol" aria-roledescription="circle" transform="translate(4.484284301274625,295.50696043223616)" d="M3.873,0A3.873,3.873,0,1,1,-3.873,0A3.873,3.873,0,1,1,3.873,0" fill="#4c78a8" stroke-width="2" opacity="0.7"/><path aria-label="all_draws: 3.10810611949; mean: 3.11043587916" role="graphics-symbol" aria-roledescription="circle" transform="translate(19.87535486309145,280.1097341532656)" d="M3.873,0A3.873,3.873,0,1,1,-3.873,0A3.873,3.873,0,1,1,3.873,0" fill="#4c78a8" stroke-width="2" opacity="0.7"/><path aria-label="all_draws: 1.41759764843; mean: 1.42058210958" role="graphics-symbol" aria-roledescription="circle" transform="translate(9.055722080515553,290.9251766997676)" d="M3.873,0A3.873,3.873,0,1,1,-3.873,0A3.873,3.873,0,1,1,3.873,0" fill="#4c78a8" stroke-width="2" opacity="0.7"/><path aria-label="all_draws: 1.13995516632; mean: 1.13991170499" role="graphics-symbol" aria-roledescription="circle" transform="translate(7.278748020579615,292.72153014170993)" d="M3.873,0A3.873,3.873,0,1,1,-3.873,0A3.873,3.873,0,1,1,3.873,0" fill="#4c78a8" stroke-width="2" opacity="0.7"/><path aria-label="all_draws: 2.97986020125; mean: 2.9797664838" role="graphics-symbol" aria-roledescription="circle" transform="translate(19.054552267330052,280.94604754533367)" d="M3.873,0A3.873,3.873,0,1,1,-3.873,0A3.873,3.873,0,1,1,3.873,0" fill="#4c78a8" stroke-width="2" opacity="0.7"/><path aria-label="all_draws: 1.13554599653; mean: 1.13568359129" role="graphics-symbol" aria-roledescription="circle" transform="translate(7.25052834654436,292.74859101619944)" d="M3.873,0A3.873,3.873,0,1,1,-3.873,0A3.873,3.873,0,1,1,3.873,0" fill="#4c78a8" stroke-width="2" opacity="0.7"/><path aria-label="all_draws: 0.536044032378; mean: 0.535886352625" role="graphics-symbol" aria-roledescription="circle" transform="translate(3.4135815251463684,296.58742766058094)" d="M3.873,0A3.873,3.873,0,1,1,-3.873,0A3.873,3.873,0,1,1,3.873,0" fill="#4c78a8" stroke-width="2" opacity="0.7"/><path aria-label="all_draws: 1.04319125925; mean: 1.04299074696" role="graphics-symbol" aria-roledescription="circle" transform="translate(6.659437346285763,293.34184597731223)" d="M3.873,0A3.873,3.873,0,1,1,-3.873,0A3.873,3.873,0,1,1,3.873,0" fill="#4c78a8" stroke-width="2" opacity="0.7"/><path aria-label="all_draws: 0.528229856316; mean: 0.527932357905" role="graphics-symbol" aria-roledescription="circle" transform="translate(3.3635690484657865,296.63833500798046)" d="M3.873,0A3.873,3.873,0,1,1,-3.873,0A3.873,3.873,0,1,1,3.873,0" fill="#4c78a8" stroke-width="2" opacity="0.7"/><path aria-label="all_draws: 0.526249052255; mean: 0.526244258219" role="graphics-symbol" aria-roledescription="circle" transform="translate(3.350891458901407,296.6491392240028)" d="M3.873,0A3.873,3.873,0,1,1,-3.873,0A3.873,3.873,0,1,1,3.873,0" fill="#4c78a8" stroke-width="2" opacity="0.7"/><path aria-label="all_draws: 1.60956909983; mean: 1.6093923338" role="graphics-symbol" aria-roledescription="circle" transform="translate(10.284382359039931,289.7167489831263)" d="M3.873,0A3.873,3.873,0,1,1,-3.873,0A3.873,3.873,0,1,1,3.873,0" fill="#4c78a8" stroke-width="2" opacity="0.7"/><path aria-label="all_draws: 0.423438705084; mean: 0.423650450009" role="graphics-symbol" aria-roledescription="circle" transform="translate(2.692882213942204,297.30576257112114)" d="M3.873,0A3.873,3.873,0,1,1,-3.873,0A3.873,3.873,0,1,1,3.873,0" fill="#4c78a8" stroke-width="2" opacity="0.7"/><path aria-label="all_draws: 0.00411672156609; mean: 0.00411974875362" role="graphics-symbol" aria-roledescription="circle" transform="translate(0.009127617630516642,299.9908530076914)" d="M3.873,0A3.873,3.873,0,1,1,-3.873,0A3.873,3.873,0,1,1,3.873,0" fill="#4c78a8" stroke-width="2" opacity="0.7"/><path aria-label="all_draws: 0.00269058121224; mean: 0.00270142567352" role="graphics-symbol" aria-roledescription="circle" transform="translate(0,299.9999305930193)" d="M3.873,0A3.873,3.873,0,1,1,-3.873,0A3.873,3.873,0,1,1,3.873,0" fill="#4c78a8" stroke-width="2" opacity="0.7"/><path aria-label="all_draws: 0.00489903441252; mean: 0.00488986177158" role="graphics-symbol" aria-roledescription="circle" transform="translate(0.014134595036611266,299.9859241119195)" d="M3.873,0A3.873,3.873,0,1,1,-3.873,0A3.873,3.873,0,1,1,3.873,0" fill="#4c78a8" stroke-width="2" opacity="0.7"/><path aria-label="all_draws: 0.00769358465148; mean: 0.00770825440332" role="graphics-symbol" aria-roledescription="circle" transform="translate(0.032020342369779485,299.96788576793335)" d="M3.873,0A3.873,3.873,0,1,1,-3.873,0A3.873,3.873,0,1,1,3.873,0" fill="#4c78a8" stroke-width="2" opacity="0.7"/><path aria-label="all_draws: 0.0697345841709; mean: 0.0698457801584" role="graphics-symbol" aria-roledescription="circle" transform="translate(0.4290966325830275,299.5701916881959)" d="M3.873,0A3.873,3.873,0,1,1,-3.873,0A3.873,3.873,0,1,1,3.873,0" fill="#4c78a8" stroke-width="2" opacity="0.7"/><path aria-label="all_draws: 0.00728627485515; mean: 0.00729081127682" role="graphics-symbol" aria-roledescription="circle" transform="translate(0.02941346846144816,299.97055749742395)" d="M3.873,0A3.873,3.873,0,1,1,-3.873,0A3.873,3.873,0,1,1,3.873,0" fill="#4c78a8" stroke-width="2" opacity="0.7"/><path aria-label="all_draws: 0.0658517455111; mean: 0.0659529291245" role="graphics-symbol" aria-roledescription="circle" transform="translate(0.40424559564784046,299.5951068065673)" d="M3.873,0A3.873,3.873,0,1,1,-3.873,0A3.873,3.873,0,1,1,3.873,0" fill="#4c78a8" stroke-width="2" opacity="0.7"/><path aria-label="all_draws: 0.254674705973; mean: 0.254835457458" role="graphics-symbol" aria-roledescription="circle" transform="translate(1.6127548270900824,298.3862163274073)" d="M3.873,0A3.873,3.873,0,1,1,-3.873,0A3.873,3.873,0,1,1,3.873,0" fill="#4c78a8" stroke-width="2" opacity="0.7"/><path aria-label="all_draws: 0.171692167002; mean: 0.171920077291" role="graphics-symbol" aria-roledescription="circle" transform="translate(1.0816479947966855,298.9168933283157)" d="M3.873,0A3.873,3.873,0,1,1,-3.873,0A3.873,3.873,0,1,1,3.873,0" fill="#4c78a8" stroke-width="2" opacity="0.7"/><path aria-label="all_draws: 5.49460711233; mean: 5.49409085029" role="graphics-symbol" aria-roledescription="circle" transform="translate(35.149495643656664,264.8538085489953)" d="M3.873,0A3.873,3.873,0,1,1,-3.873,0A3.873,3.873,0,1,1,3.873,0" fill="#4c78a8" stroke-width="2" opacity="0.7"/><path aria-label="all_draws: 14.3973652893; mean: 14.3980142476" role="graphics-symbol" aria-roledescription="circle" transform="translate(92.1291416353175,207.8667048861316)" d="M3.873,0A3.873,3.873,0,1,1,-3.873,0A3.873,3.873,0,1,1,3.873,0" fill="#4c78a8" stroke-width="2" opacity="0.7"/><path aria-label="all_draws: 5.03041593943; mean: 5.0303051304" role="graphics-symbol" aria-roledescription="circle" transform="translate(32.178568187435644,267.82214101515086)" d="M3.873,0A3.873,3.873,0,1,1,-3.873,0A3.873,3.873,0,1,1,3.873,0" fill="#4c78a8" stroke-width="2" opacity="0.7"/><path aria-label="all_draws: 2.9262596074; mean: 2.92568151566" role="graphics-symbol" aria-roledescription="circle" transform="translate(18.711496463492253,281.2922034530589)" d="M3.873,0A3.873,3.873,0,1,1,-3.873,0A3.873,3.873,0,1,1,3.873,0" fill="#4c78a8" stroke-width="2" opacity="0.7"/><path aria-label="all_draws: 6.19731891704; mean: 6.19678730062" role="graphics-symbol" aria-roledescription="circle" transform="translate(39.64700855716851,260.3563939069727)" d="M3.873,0A3.873,3.873,0,1,1,-3.873,0A3.873,3.873,0,1,1,3.873,0" fill="#4c78a8" stroke-width="2" opacity="0.7"/><path aria-label="all_draws: 2.6209362648; mean: 2.62053373372" role="graphics-symbol" aria-roledescription="circle" transform="translate(16.757358697593286,283.2452175914521)" d="M3.873,0A3.873,3.873,0,1,1,-3.873,0A3.873,3.873,0,1,1,3.873,0" fill="#4c78a8" stroke-width="2" opacity="0.7"/><path aria-label="all_draws: 2.08230652375; mean: 2.0818376169" role="graphics-symbol" aria-roledescription="circle" transform="translate(13.310007735643929,286.692993373165)" d="M3.873,0A3.873,3.873,0,1,1,-3.873,0A3.873,3.873,0,1,1,3.873,0" fill="#4c78a8" stroke-width="2" opacity="0.7"/><path aria-label="all_draws: 5.75342827383; mean: 5.75275218133" role="graphics-symbol" aria-roledescription="circle" transform="translate(36.80600903697713,263.198318106466)" d="M3.873,0A3.873,3.873,0,1,1,-3.873,0A3.873,3.873,0,1,1,3.873,0" fill="#4c78a8" stroke-width="2" opacity="0.7"/><path aria-label="all_draws: 1.56974970185; mean: 1.56923363296" role="graphics-symbol" aria-roledescription="circle" transform="translate(10.029529294929334,289.9737736615165)" d="M3.873,0A3.873,3.873,0,1,1,-3.873,0A3.873,3.873,0,1,1,3.873,0" fill="#4c78a8" stroke-width="2" opacity="0.7"/><path aria-label="all_draws: 0.0248511093132; mean: 0.0248982045111" role="graphics-symbol" aria-roledescription="circle" transform="translate(0.14183234241338427,299.85786623777375)" d="M3.873,0A3.873,3.873,0,1,1,-3.873,0A3.873,3.873,0,1,1,3.873,0" fill="#4c78a8" stroke-width="2" opacity="0.7"/><path aria-label="all_draws: 0.0129179333636; mean: 0.0129529167696" role="graphics-symbol" aria-roledescription="circle" transform="translate(0.06545734405322198,299.9343187543139)" d="M3.873,0A3.873,3.873,0,1,1,-3.873,0A3.873,3.873,0,1,1,3.873,0" fill="#4c78a8" stroke-width="2" opacity="0.7"/><path aria-label="all_draws: 0.0376091085474; mean: 0.0376034812114" role="graphics-symbol" aria-roledescription="circle" transform="translate(0.22348639450321173,299.77654962170783)" d="M3.873,0A3.873,3.873,0,1,1,-3.873,0A3.873,3.873,0,1,1,3.873,0" fill="#4c78a8" stroke-width="2" opacity="0.7"/><path aria-label="all_draws: 0.0579980586869; mean: 0.0581664559212" role="graphics-symbol" aria-roledescription="circle" transform="translate(0.35398024124055427,299.6449419787496)" d="M3.873,0A3.873,3.873,0,1,1,-3.873,0A3.873,3.873,0,1,1,3.873,0" fill="#4c78a8" stroke-width="2" opacity="0.7"/><path aria-label="all_draws: 0.606952602208; mean: 0.608566820436" role="graphics-symbol" aria-roledescription="circle" transform="translate(3.8674122511293243,296.12225639072966)" d="M3.873,0A3.873,3.873,0,1,1,-3.873,0A3.873,3.873,0,1,1,3.873,0" fill="#4c78a8" stroke-width="2" opacity="0.7"/><path aria-label="all_draws: 0.0491076104477; mean: 0.0493065619305" role="graphics-symbol" aria-roledescription="circle" transform="translate(0.2970793816075848,299.7016472843503)" d="M3.873,0A3.873,3.873,0,1,1,-3.873,0A3.873,3.873,0,1,1,3.873,0" fill="#4c78a8" stroke-width="2" opacity="0.7"/><path aria-label="all_draws: 0.403195747641; mean: 0.403513190027" role="graphics-symbol" aria-roledescription="circle" transform="translate(2.5633227531599316,297.43464554448525)" d="M3.873,0A3.873,3.873,0,1,1,-3.873,0A3.873,3.873,0,1,1,3.873,0" fill="#4c78a8" stroke-width="2" opacity="0.7"/><path aria-label="all_draws: 1.82674897949; mean: 1.82688612513" role="graphics-symbol" aria-roledescription="circle" transform="translate(11.674382223562741,288.3247400136346)" d="M3.873,0A3.873,3.873,0,1,1,-3.873,0A3.873,3.873,0,1,1,3.873,0" fill="#4c78a8" stroke-width="2" opacity="0.7"/><path aria-label="all_draws: 0.753010952205; mean: 0.753621896252" role="graphics-symbol" aria-roledescription="circle" transform="translate(4.802218399013168,295.1938714222776)" d="M3.873,0A3.873,3.873,0,1,1,-3.873,0A3.873,3.873,0,1,1,3.873,0" fill="#4c78a8" stroke-width="2" opacity="0.7"/></g></g><path class="foreground" aria-hidden="true" d="" display="none"/></g></g></g></svg>