<svg xmlns="http://www.w3.org/2000/svg" xmlns:xlink="http://www.w3.org/1999/xlink" version="1.1" class="marks" width="376" height="373" viewBox="0 0 376 373"><rect width="376" height="373" fill="white"/><g fill="none" stroke-miterlimit="10" transform="translate(67,9)"><g class="mark-group role-frame root" role="graphics-object" aria-roledescription="group mark container"><g transform="translate(0,0)"><path class="background" aria-hidden="true" d="M0.5,0.5h300v300h-300Z" stroke="#ddd"/><g><g class="mark-group role-axis" aria-hidden="true"><g transform="translate(0.5,300.5)"><path class="background" aria-hidden="true" d="M0,0h0v0h0Z" pointer-events="none"/><g><g class="mark-rule role-axis-grid" pointer-events="none"><line transform="translate(48,-300)" x2="0" y2="300" stroke="#ddd" stroke-width="1" opacity="1"/><line transform="translate(96,-300)" x2="0" y2="300" stroke="#ddd" stroke-width="1" opacity="1"/><line transform="translate(144,-300)" x2="0" y2="300" stroke="#ddd" stroke-width="1" opacity="1"/><line transform="translate(192,-300)" x2="0" y2="300" stroke="#ddd" stroke-width="1" opacity="1"/><line transform="translate(240,-300)" x2="0" y2="300" stroke="#ddd" stroke-width="1" opacity="1"/><line transform="translate(288,-300)" x2="0" y2="300" stroke="#ddd" stroke-width="1" opacity="1"/></g></g><path class="foreground" aria-hidden="true" d="" pointer-events="none" display="none"/></g></g><g class="mark-group role-axis" aria-hidden="true"><g transform="translate(0.5,0.5)"><path class="background" aria-hidden="true" d="M0,0h0v0h0Z" pointer-events="none"/><g><g class="mark-rule role-axis-grid" pointer-events="none"><line transform="translate(0,252)" x2="300" y2="0" stroke="#ddd" stroke-width="1" opacity="1"/><line transform="translate(0,204)" x2="300" y2="0" stroke="#ddd" stroke-width="1" opacity="1"/><line transform="translate(0,156)" x2="300" y2="0" stroke="#ddd" stroke-width="1" opacity="1"/><line transform="translate(0,108)" x2="300" y2="0" stroke="#ddd" stroke-width="1" opacity="1"/><line transform="translate(0,60)" x2="300" y2="0" stroke="#ddd" stroke-width="1" opacity="1"/><line transform="translate(0,12)" x2="300" y2="0" stroke="#ddd" stroke-width="1" opacity="1"/></g></g><path class="foreground" aria-hidden="true" d="" pointer-events="none" display="none"/></g></g><g class="mark-group role-axis" role="graphics-symbol" aria-roledescription="axis" aria-label="X-axis titled 'Using all samples' for a linear scale with values from 0 to 62"><g transform="translate(0.5,300.5)"><path class="background" aria-hidden="true" d="M0,0h0v0h0Z" pointer-events="none"/><g><g class="mark-rule role-axis-tick" pointer-events="none"><line transform="translate(48,0)" x2="0" y2="5" stroke="#888" stroke-width="1" opacity="1"/><line transform="translate(96,0)" x2="0" y2="5" stroke="#888" stroke-width="1" opacity="1"/><line transform="translate(144,0)" x2="0" y2="5" stroke="#888" stroke-width="1" opacity="1"/><line transform="translate(192,0)" x2="0" y2="5" stroke="#888" stroke-width="1" opacity="1"/><line transform="translate(240,0)" x2="0" y2="5" stroke="#888" stroke-width="1" opacity="1"/><line transform="translate(288,0)" x2="0" y2="5" stroke="#888" stroke-width="1" opacity="1"/></g><g class="mark-text role-axis-label" pointer-events="none"><text text-anchor="middle" transform="translate(48.060476949843384,26)" font-family="sans-serif" font-size="24px" fill="#000" opacity="1">10</text><text text-anchor="middle" transform="translate(96.13147123142136,26)" font-family="sans-serif" font-size="24px" fill="#000" opacity="1">20</text><text text-anchor="middle" transform="translate(144.20246551299934,26)" font-family="sans-serif" font-size="24px" fill="#000" opacity="1">30</text><text text-anchor="middle" transform="translate(192.27345979457732,26)" font-family="sans-serif" font-size="24px" fill="#000" opacity="1">40</text><text text-anchor="middle" transform="translate(240.34445407615527,26)" font-family="sans-serif" font-size="24px" fill="#000" opacity="1">50</text><text text-anchor="middle" transform="translate(288.4154483577332,26)" font-family="sans-serif" font-size="24px" fill="#000" opacity="1">60</text></g><g class="mark-rule role-axis-domain" pointer-events="none"><line transform="translate(0,0)" x2="300" y2="0" stroke="#888" stroke-width="1" opacity="1"/></g><g class="mark-text role-axis-title" pointer-events="none"><text text-anchor="middle" transform="translate(150,54)" font-family="sans-serif" font-size="24px" font-weight="bold" fill="#000" opacity="1">Using all samples</text></g></g><path class="foreground" aria-hidden="true" d="" pointer-events="none" display="none"/></g></g><g class="mark-group role-axis" role="graphics-symbol" aria-roledescription="axis" aria-label="Y-axis titled 'Using the mean' for a linear scale with values from 0 to 62"><g transform="translate(0.5,0.5)"><path class="background" aria-hidden="true" d="M0,0h0v0h0Z" pointer-events="none"/><g><g class="mark-rule role-axis-tick" pointer-events="none"><line transform="translate(0,252)" x2="-5" y2="0" stroke="#888" stroke-width="1" opacity="1"/><line transform="translate(0,204)" x2="-5" y2="0" stroke="#888" stroke-width="1" opacity="1"/><line transform="translate(0,156)" x2="-5" y2="0" stroke="#888" stroke-width="1" opacity="1"/><line transform="translate(0,108)" x2="-5" y2="0" stroke="#888" stroke-width="1" opacity="1"/><line transform="translate(0,60)" x2="-5" y2="0" stroke="#888" stroke-width="1" opacity="1"/><line transform="translate(0,12)" x2="-5" y2="0" stroke="#888" stroke-width="1" opacity="1"/></g><g class="mark-text role-axis-label" pointer-events="none"><text text-anchor="end" transform="translate(-7,258.9395230501566)" font-family="sans-serif" font-size="24px" fill="#000" opacity="1">10</text><text text-anchor="end" transform="translate(-7,210.86852876857864)" font-family="sans-serif" font-size="24px" fill="#000" opacity="1">20</text><text text-anchor="end" transform="translate(-7,162.79753448700066)" font-family="sans-serif" font-size="24px" fill="#000" opacity="1">30</text><text text-anchor="end" transform="translate(-7,114.7265402054227)" font-family="sans-serif" font-size="24px" fill="#000" opacity="1">40</text><text text-anchor="end" transform="translate(-7,66.65554592384473)" font-family="sans-serif" font-size="24px" fill="#000" opacity="1">50</text><text text-anchor="end" transform="translate(-7,18.58455164226675)" font-family="sans-serif" font-size="24px" fill="#000" opacity="1">60</text></g><g class="mark-rule role-axis-domain" pointer-events="none"><line transform="translate(0,300)" x2="0" y2="-300" stroke="#888" stroke-width="1" opacity="1"/></g><g class="mark-text role-axis-title" pointer-events="none"><text text-anchor="middle" transform="translate(-37.6953125,150) rotate(-90) translate(0,-5)" font-family="sans-serif" font-size="24px" font-weight="bold" fill="#000" opacity="1">Using the mean</text></g></g><path class="foreground" aria-hidden="true" d="" pointer-events="none" display="none"/></g></g><g class="mark-rule role-mark layer_0_marks" role="graphics-symbol" aria-roledescription="rule mark container"><line transform="translate(0,300)" x2="300" y2="-300" stroke="black" stroke-dasharray="8,8"/></g><g class="mark-symbol role-mark layer_1_marks" role="graphics-object" aria-roledescription="symbol mark container"><path aria-label="all_draws: 22.0881028918; mean: 22.089246993" role="graphics-symbol" aria-roledescription="circle" transform="translate(106.1691894485031,193.82531074334233)" d="M3.873,0A3.873,3.873,0,1,1,-3.873,0A3.873,3.873,0,1,1,3.873,0" fill="#4c78a8" stroke-width="2" opacity="0.7"/><path aria-label="all_draws: 62.4098839259; mean: 62.4073890552" role="graphics-symbol" aria-roledescription="circle" transform="translate(300,0.011993091539874712)" d="M3.873,0A3.873,3.873,0,1,1,-3.873,0A3.873,3.873,0,1,1,3.873,0" fill="#4c78a8" stroke-width="2" opacity="0.7"/><path aria-label="all_draws: 19.0734901693; mean: 19.0748976217" role="graphics-symbol" aria-roledescription="circle" transform="translate(91.67764635409992,208.3155878821176)" d="M3.873,0A3.873,3.873,0,1,1,-3.873,0A3.873,3.873,0,1,1,3.873,0" fill="#4c78a8" stroke-width="2" opacity="0.7"/><path aria-label="all_draws: 5.31582303382; mean: 5.31630940088" role="graphics-symbol" aria-roledescription="circle" transform="translate(25.543172534347583,274.45448945084553)" d="M3.873,0A3.873,3.873,0,1,1,-3.873,0A3.873,3.873,0,1,1,3.873,0" fill="#4c78a8" stroke-width="2" opacity="0.7"/><path aria-label="all_draws: 16.2530767577; mean: 16.2524530517" role="graphics-symbol" aria-roledescription="circle" transform="translate(78.11963865613775,221.8833595605703)" d="M3.873,0A3.873,3.873,0,1,1,-3.873,0A3.873,3.873,0,1,1,3.873,0" fill="#4c78a8" stroke-width="2" opacity="0.7"/><path aria-label="all_draws: 3.71913397538; mean: 3.72008147249" role="graphics-symbol" aria-roledescription="circle" transform="translate(17.867729474547712,282.12771581260455)" d="M3.873,0A3.873,3.873,0,1,1,-3.873,0A3.873,3.873,0,1,1,3.873,0" fill="#4c78a8" stroke-width="2" opacity="0.7"/><path aria-label="all_draws: 0.142889030855; mean: 0.143675539668" role="graphics-symbol" aria-roledescription="circle" transform="translate(0.676364446777956,299.31985472715786)" d="M3.873,0A3.873,3.873,0,1,1,-3.873,0A3.873,3.873,0,1,1,3.873,0" fill="#4c78a8" stroke-width="2" opacity="0.7"/><path aria-label="all_draws: 0.106223902372; mean: 0.107048607882" role="graphics-symbol" aria-roledescription="circle" transform="translate(0.5001115286121832,299.49592402999855)" d="M3.873,0A3.873,3.873,0,1,1,-3.873,0A3.873,3.873,0,1,1,3.873,0" fill="#4c78a8" stroke-width="2" opacity="0.7"/><path aria-label="all_draws: 0.184427936214; mean: 0.185179795155" role="graphics-symbol" aria-roledescription="circle" transform="translate(0.8760460949737087,299.12033964433823)" d="M3.873,0A3.873,3.873,0,1,1,-3.873,0A3.873,3.873,0,1,1,3.873,0" fill="#4c78a8" stroke-width="2" opacity="0.7"/><path aria-label="all_draws: 0.159116059; mean: 0.159554236236" role="graphics-symbol" aria-roledescription="circle" transform="translate(0.7543693844936741,299.24352425396506)" d="M3.873,0A3.873,3.873,0,1,1,-3.873,0A3.873,3.873,0,1,1,3.873,0" fill="#4c78a8" stroke-width="2" opacity="0.7"/><path aria-label="all_draws: 1.00968497516; mean: 1.01039528942" role="graphics-symbol" aria-roledescription="circle" transform="translate(4.84313873495369,295.15344671376914)" d="M3.873,0A3.873,3.873,0,1,1,-3.873,0A3.873,3.873,0,1,1,3.873,0" fill="#4c78a8" stroke-width="2" opacity="0.7"/><path aria-label="all_draws: 0.102702760745; mean: 0.102963021037" role="graphics-symbol" aria-roledescription="circle" transform="translate(0.48318505071478424,299.51556385218606)" d="M3.873,0A3.873,3.873,0,1,1,-3.873,0A3.873,3.873,0,1,1,3.873,0" fill="#4c78a8" stroke-width="2" opacity="0.7"/><path aria-label="all_draws: 0.787108281362; mean: 0.788358480307" role="graphics-symbol" aria-roledescription="circle" transform="translate(3.773190437498688,296.22079973186976)" d="M3.873,0A3.873,3.873,0,1,1,-3.873,0A3.873,3.873,0,1,1,3.873,0" fill="#4c78a8" stroke-width="2" opacity="0.7"/><path aria-label="all_draws: 3.06280945373; mean: 3.06404447109" role="graphics-symbol" aria-roledescription="circle" transform="translate(14.712712241865134,285.2813509069032)" d="M3.873,0A3.873,3.873,0,1,1,-3.873,0A3.873,3.873,0,1,1,3.873,0" fill="#4c78a8" stroke-width="2" opacity="0.7"/><path aria-label="all_draws: 0.907772098291; mean: 0.909113638504" role="graphics-symbol" aria-roledescription="circle" transform="translate(4.353233402859808,295.6403176799502)" d="M3.873,0A3.873,3.873,0,1,1,-3.873,0A3.873,3.873,0,1,1,3.873,0" fill="#4c78a8" stroke-width="2" opacity="0.7"/><path aria-label="all_draws: 15.6831660229; mean: 15.6813095277" role="graphics-symbol" aria-roledescription="circle" transform="translate(75.3800210887579,224.62890326853872)" d="M3.873,0A3.873,3.873,0,1,1,-3.873,0A3.873,3.873,0,1,1,3.873,0" fill="#4c78a8" stroke-width="2" opacity="0.7"/><path aria-label="all_draws: 41.9780894138; mean: 41.9734452047" role="graphics-symbol" aria-roledescription="circle" transform="translate(201.7823322843914,98.23999289055847)" d="M3.873,0A3.873,3.873,0,1,1,-3.873,0A3.873,3.873,0,1,1,3.873,0" fill="#4c78a8" stroke-width="2" opacity="0.7"/><path aria-label="all_draws: 14.159450202; mean: 14.1575994189" role="graphics-symbol" aria-roledescription="circle" transform="translate(68.05536763726042,231.9535292610995)" d="M3.873,0A3.873,3.873,0,1,1,-3.873,0A3.873,3.873,0,1,1,3.873,0" fill="#4c78a8" stroke-width="2" opacity="0.7"/><path aria-label="all_draws: 0.713993944359; mean: 0.71404019869" role="graphics-symbol" aria-roledescription="circle" transform="translate(3.4217225499034334,296.578055100929)" d="M3.873,0A3.873,3.873,0,1,1,-3.873,0A3.873,3.873,0,1,1,3.873,0" fill="#4c78a8" stroke-width="2" opacity="0.7"/><path aria-label="all_draws: 2.16527698005; mean: 2.1652305296" role="graphics-symbol" aria-roledescription="circle" transform="translate(10.39818440088767,289.60203889108533)" d="M3.873,0A3.873,3.873,0,1,1,-3.873,0A3.873,3.873,0,1,1,3.873,0" fill="#4c78a8" stroke-width="2" opacity="0.7"/><path aria-label="all_draws: 0.6230138489; mean: 0.623008023088" role="graphics-symbol" aria-roledescription="circle" transform="translate(2.9843721850469853,297.0156558202122)" d="M3.873,0A3.873,3.873,0,1,1,-3.873,0A3.873,3.873,0,1,1,3.873,0" fill="#4c78a8" stroke-width="2" opacity="0.7"/><path aria-label="all_draws: 0.286101553884; mean: 0.286142441357" role="graphics-symbol" aria-roledescription="circle" transform="translate(1.3648012843362434,298.63500216551665)" d="M3.873,0A3.873,3.873,0,1,1,-3.873,0A3.873,3.873,0,1,1,3.873,0" fill="#4c78a8" stroke-width="2" opacity="0.7"/><path aria-label="all_draws: 0.894072754449; mean: 0.894205514136" role="graphics-symbol" aria-roledescription="circle" transform="translate(4.2873792949082725,295.7119825160738)" d="M3.873,0A3.873,3.873,0,1,1,-3.873,0A3.873,3.873,0,1,1,3.873,0" fill="#4c78a8" stroke-width="2" opacity="0.7"/><path aria-label="all_draws: 0.199649522423; mean: 0.199725470425" role="graphics-symbol" aria-roledescription="circle" transform="translate(0.9492177733368733,299.05041713706635)" d="M3.873,0A3.873,3.873,0,1,1,-3.873,0A3.873,3.873,0,1,1,3.873,0" fill="#4c78a8" stroke-width="2" opacity="0.7"/><path aria-label="all_draws: 0.00238493225857; mean: 0.00239259423778" role="graphics-symbol" aria-roledescription="circle" transform="translate(0.0009472747617740647,299.99901589334235)" d="M3.873,0A3.873,3.873,0,1,1,-3.873,0A3.873,3.873,0,1,1,3.873,0" fill="#4c78a8" stroke-width="2" opacity="0.7"/><path aria-label="all_draws: 0.0021878748072; mean: 0.00220593425807" role="graphics-symbol" aria-roledescription="circle" transform="translate(0,299.99991318642407)" d="M3.873,0A3.873,3.873,0,1,1,-3.873,0A3.873,3.873,0,1,1,3.873,0" fill="#4c78a8" stroke-width="2" opacity="0.7"/><path aria-label="all_draws: 0.00319985462212; mean: 0.00318928167792" role="graphics-symbol" aria-roledescription="circle" transform="translate(0.004864687589588417,299.99518613760443)" d="M3.873,0A3.873,3.873,0,1,1,-3.873,0A3.873,3.873,0,1,1,3.873,0" fill="#4c78a8" stroke-width="2" opacity="0.7"/><path aria-label="all_draws: 0.00392215173676; mean: 0.0039255913384" role="graphics-symbol" aria-roledescription="circle" transform="translate(0.008336841636309484,299.9916466238566)" d="M3.873,0A3.873,3.873,0,1,1,-3.873,0A3.873,3.873,0,1,1,3.873,0" fill="#4c78a8" stroke-width="2" opacity="0.7"/><path aria-label="all_draws: 0.0256941136534; mean: 0.0257105645305" role="graphics-symbol" aria-roledescription="circle" transform="translate(0.11299682731586735,299.8869240916823)" d="M3.873,0A3.873,3.873,0,1,1,-3.873,0A3.873,3.873,0,1,1,3.873,0" fill="#4c78a8" stroke-width="2" opacity="0.7"/><path aria-label="all_draws: 0.00299339165437; mean: 0.00299137174588" role="graphics-symbol" aria-roledescription="circle" transform="translate(0.003872199575368481,299.9961375103256)" d="M3.873,0A3.873,3.873,0,1,1,-3.873,0A3.873,3.873,0,1,1,3.873,0" fill="#4c78a8" stroke-width="2" opacity="0.7"/><path aria-label="all_draws: 0.0243132510914; mean: 0.0243372746718" role="graphics-symbol" aria-roledescription="circle" transform="translate(0.1063588836834157,299.89352563257694)" d="M3.873,0A3.873,3.873,0,1,1,-3.873,0A3.873,3.873,0,1,1,3.873,0" fill="#4c78a8" stroke-width="2" opacity="0.7"/><path aria-label="all_draws: 0.0950565183622; mean: 0.0950668276156" role="graphics-symbol" aria-roledescription="circle" transform="translate(0.4464288033271498,299.55352163906673)" d="M3.873,0A3.873,3.873,0,1,1,-3.873,0A3.873,3.873,0,1,1,3.873,0" fill="#4c78a8" stroke-width="2" opacity="0.7"/><path aria-label="all_draws: 0.0266281307181; mean: 0.0266322598912" role="graphics-symbol" aria-roledescription="circle" transform="translate(0.11748674021335562,299.88249341044093)" d="M3.873,0A3.873,3.873,0,1,1,-3.873,0A3.873,3.873,0,1,1,3.873,0" fill="#4c78a8" stroke-width="2" opacity="0.7"/><path aria-label="all_draws: 0.397272770179; mean: 0.397241827194" role="graphics-symbol" aria-roledescription="circle" transform="translate(1.8992123746174396,298.10093637139175)" d="M3.873,0A3.873,3.873,0,1,1,-3.873,0A3.873,3.873,0,1,1,3.873,0" fill="#4c78a8" stroke-width="2" opacity="0.7"/><path aria-label="all_draws: 1.14826540353; mean: 1.14804511829" role="graphics-symbol" aria-roledescription="circle" transform="translate(5.509308632949017,294.4917503000976)" d="M3.873,0A3.873,3.873,0,1,1,-3.873,0A3.873,3.873,0,1,1,3.873,0" fill="#4c78a8" stroke-width="2" opacity="0.7"/><path aria-label="all_draws: 0.390541058679; mean: 0.39046002825" role="graphics-symbol" aria-roledescription="circle" transform="translate(1.866852368112408,298.1335371532136)" d="M3.873,0A3.873,3.873,0,1,1,-3.873,0A3.873,3.873,0,1,1,3.873,0" fill="#4c78a8" stroke-width="2" opacity="0.7"/><path aria-label="all_draws: 9.22912281626; mean: 9.22965564768" role="graphics-symbol" aria-roledescription="circle" transform="translate(44.35479368071262,255.64264494566157)" d="M3.873,0A3.873,3.873,0,1,1,-3.873,0A3.873,3.873,0,1,1,3.873,0" fill="#4c78a8" stroke-width="2" opacity="0.7"/><path aria-label="all_draws: 25.3113563802; mean: 25.3091880793" role="graphics-symbol" aria-roledescription="circle" transform="translate(121.66368944936643,178.34673378844897)" d="M3.873,0A3.873,3.873,0,1,1,-3.873,0A3.873,3.873,0,1,1,3.873,0" fill="#4c78a8" stroke-width="2" opacity="0.7"/><path aria-label="all_draws: 8.33148455596; mean: 8.3329682206" role="graphics-symbol" aria-roledescription="circle" transform="translate(40.03975731291098,259.9531105636395)" d="M3.873,0A3.873,3.873,0,1,1,-3.873,0A3.873,3.873,0,1,1,3.873,0" fill="#4c78a8" stroke-width="2" opacity="0.7"/><path aria-label="all_draws: 2.3899540325; mean: 2.390445079" role="graphics-symbol" aria-roledescription="circle" transform="translate(11.478229331206592,288.51941015943913)" d="M3.873,0A3.873,3.873,0,1,1,-3.873,0A3.873,3.873,0,1,1,3.873,0" fill="#4c78a8" stroke-width="2" opacity="0.7"/><path aria-label="all_draws: 7.66918220596; mean: 7.66812431751" role="graphics-symbol" aria-roledescription="circle" transform="translate(36.856004064978926,263.1490813099969)" d="M3.873,0A3.873,3.873,0,1,1,-3.873,0A3.873,3.873,0,1,1,3.873,0" fill="#4c78a8" stroke-width="2" opacity="0.7"/><path aria-label="all_draws: 1.67908077708; mean: 1.68022517481" role="graphics-symbol" aria-roledescription="circle" transform="translate(8.0609909115878,291.93350785471887)" d="M3.873,0A3.873,3.873,0,1,1,-3.873,0A3.873,3.873,0,1,1,3.873,0" fill="#4c78a8" stroke-width="2" opacity="0.7"/><path aria-label="all_draws: 0.0567504963023; mean: 0.0573813421412" role="graphics-symbol" aria-roledescription="circle" transform="translate(0.2622879465879843,299.7346795147407)" d="M3.873,0A3.873,3.873,0,1,1,-3.873,0A3.873,3.873,0,1,1,3.873,0" fill="#4c78a8" stroke-width="2" opacity="0.7"/><path aria-label="all_draws: 0.0422188553946; mean: 0.0427548329463" role="graphics-symbol" aria-roledescription="circle" transform="translate(0.19243290389005568,299.80499059872744)" d="M3.873,0A3.873,3.873,0,1,1,-3.873,0A3.873,3.873,0,1,1,3.873,0" fill="#4c78a8" stroke-width="2" opacity="0.7"/><path aria-label="all_draws: 0.0606718601411; mean: 0.0613403118474" role="graphics-symbol" aria-roledescription="circle" transform="translate(0.2811383324551354,299.71564835373)" d="M3.873,0A3.873,3.873,0,1,1,-3.873,0A3.873,3.873,0,1,1,3.873,0" fill="#4c78a8" stroke-width="2" opacity="0.7"/><path aria-label="all_draws: 0.0733063777626; mean: 0.0737307957437" role="graphics-symbol" aria-roledescription="circle" transform="translate(0.34187371488828266,299.65608606567747)" d="M3.873,0A3.873,3.873,0,1,1,-3.873,0A3.873,3.873,0,1,1,3.873,0" fill="#4c78a8" stroke-width="2" opacity="0.7"/><path aria-label="all_draws: 0.41770136319; mean: 0.418621334219" role="graphics-symbol" aria-roledescription="circle" transform="translate(1.9974146523950325,297.9981629553935)" d="M3.873,0A3.873,3.873,0,1,1,-3.873,0A3.873,3.873,0,1,1,3.873,0" fill="#4c78a8" stroke-width="2" opacity="0.7"/><path aria-label="all_draws: 0.0488094111998; mean: 0.0490694487849" role="graphics-symbol" aria-roledescription="circle" transform="translate(0.2241143609327256,299.7746356125407)" d="M3.873,0A3.873,3.873,0,1,1,-3.873,0A3.873,3.873,0,1,1,3.873,0" fill="#4c78a8" stroke-width="2" opacity="0.7"/><path aria-label="all_draws: 0.397181862859; mean: 0.398351581117" role="graphics-symbol" aria-roledescription="circle" transform="translate(1.8987753740918556,298.0956016739421)" d="M3.873,0A3.873,3.873,0,1,1,-3.873,0A3.873,3.873,0,1,1,3.873,0" fill="#4c78a8" stroke-width="2" opacity="0.7"/><path aria-label="all_draws: 1.38318098072; mean: 1.38450563975" role="graphics-symbol" aria-roledescription="circle" transform="translate(6.6385711697370215,293.3550610626073)" d="M3.873,0A3.873,3.873,0,1,1,-3.873,0A3.873,3.873,0,1,1,3.873,0" fill="#4c78a8" stroke-width="2" opacity="0.7"/><path aria-label="all_draws: 0.539611553004; mean: 0.540834969118" role="graphics-symbol" aria-roledescription="circle" transform="translate(2.583449056138082,297.4106698609598)" d="M3.873,0A3.873,3.873,0,1,1,-3.873,0A3.873,3.873,0,1,1,3.873,0" fill="#4c78a8" stroke-width="2" opacity="0.7"/><path aria-label="all_draws: 6.31192698834; mean: 6.30980555813" role="graphics-symbol" aria-roledescription="circle" transform="translate(30.331543284480325,269.6786546414706)" d="M3.873,0A3.873,3.873,0,1,1,-3.873,0A3.873,3.873,0,1,1,3.873,0" fill="#4c78a8" stroke-width="2" opacity="0.7"/><path aria-label="all_draws: 15.7990755475; mean: 15.795107641" role="graphics-symbol" aria-roledescription="circle" transform="translate(75.93720969823293,224.08186442277074)" d="M3.873,0A3.873,3.873,0,1,1,-3.873,0A3.873,3.873,0,1,1,3.873,0" fill="#4c78a8" stroke-width="2" opacity="0.7"/><path aria-label="all_draws: 6.00330932728; mean: 6.00155666298" role="graphics-symbol" aria-roledescription="circle" transform="translate(28.8479875024951,271.16043772907557)" d="M3.873,0A3.873,3.873,0,1,1,-3.873,0A3.873,3.873,0,1,1,3.873,0" fill="#4c78a8" stroke-width="2" opacity="0.7"/><path aria-label="all_draws: 12.144995782; mean: 12.1452579009" role="graphics-symbol" aria-roledescription="circle" transform="translate(58.37168494681266,241.62705502151215)" d="M3.873,0A3.873,3.873,0,1,1,-3.873,0A3.873,3.873,0,1,1,3.873,0" fill="#4c78a8" stroke-width="2" opacity="0.7"/><path aria-label="all_draws: 34.9332470523; mean: 34.9330706336" role="graphics-symbol" aria-roledescription="circle" transform="translate(167.91707459718452,132.08377346523216)" d="M3.873,0A3.873,3.873,0,1,1,-3.873,0A3.873,3.873,0,1,1,3.873,0" fill="#4c78a8" stroke-width="2" opacity="0.7"/><path aria-label="all_draws: 10.1189971814; mean: 10.118780875" role="graphics-symbol" aria-roledescription="circle" transform="translate(48.6325082326562,251.3685315736777)" d="M3.873,0A3.873,3.873,0,1,1,-3.873,0A3.873,3.873,0,1,1,3.873,0" fill="#4c78a8" stroke-width="2" opacity="0.7"/><path aria-label="all_draws: 2.63976653731; mean: 2.6397450567" role="graphics-symbol" aria-roledescription="circle" transform="translate(12.679102880241079,287.321000379192)" d="M3.873,0A3.873,3.873,0,1,1,-3.873,0A3.873,3.873,0,1,1,3.873,0" fill="#4c78a8" stroke-width="2" opacity="0.7"/><path aria-label="all_draws: 7.68982098314; mean: 7.69018981816" role="graphics-symbol" aria-roledescription="circle" transform="translate(36.955216718935034,263.04301025442186)" d="M3.873,0A3.873,3.873,0,1,1,-3.873,0A3.873,3.873,0,1,1,3.873,0" fill="#4c78a8" stroke-width="2" opacity="0.7"/><path aria-label="all_draws: 1.8404032122; mean: 1.84013152441" role="graphics-symbol" aria-roledescription="circle" transform="translate(8.836483897207616,291.1648221330063)" d="M3.873,0A3.873,3.873,0,1,1,-3.873,0A3.873,3.873,0,1,1,3.873,0" fill="#4c78a8" stroke-width="2" opacity="0.7"/><path aria-label="all_draws: 0.0837388161328; mean: 0.0838367415271" role="graphics-symbol" aria-roledescription="circle" transform="translate(0.39202348341204046,299.6075057794812)" d="M3.873,0A3.873,3.873,0,1,1,-3.873,0A3.873,3.873,0,1,1,3.873,0" fill="#4c78a8" stroke-width="2" opacity="0.7"/><path aria-label="all_draws: 0.0618830668799; mean: 0.0621865437947" role="graphics-symbol" aria-roledescription="circle" transform="translate(0.28696072367657915,299.7115804326202)" d="M3.873,0A3.873,3.873,0,1,1,-3.873,0A3.873,3.873,0,1,1,3.873,0" fill="#4c78a8" stroke-width="2" opacity="0.7"/><path aria-label="all_draws: 0.120539506626; mean: 0.120679626472" role="graphics-symbol" aria-roledescription="circle" transform="translate(0.5689280616395208,299.43039836833043)" d="M3.873,0A3.873,3.873,0,1,1,-3.873,0A3.873,3.873,0,1,1,3.873,0" fill="#4c78a8" stroke-width="2" opacity="0.7"/><path aria-label="all_draws: 0.0818969289711; mean: 0.0818662336208" role="graphics-symbol" aria-roledescription="circle" transform="translate(0.38316934869028435,299.61697820691074)" d="M3.873,0A3.873,3.873,0,1,1,-3.873,0A3.873,3.873,0,1,1,3.873,0" fill="#4c78a8" stroke-width="2" opacity="0.7"/><path aria-label="all_draws: 0.566289743574; mean: 0.56606208393" role="graphics-symbol" aria-roledescription="circle" transform="translate(2.7116937707730697,297.2894006117732)" d="M3.873,0A3.873,3.873,0,1,1,-3.873,0A3.873,3.873,0,1,1,3.873,0" fill="#4c78a8" stroke-width="2" opacity="0.7"/><path aria-label="all_draws: 0.0508838105374; mean: 0.0508882330988" role="graphics-symbol" aria-roledescription="circle" transform="translate(0.23408620480243697,299.76589253550526)" d="M3.873,0A3.873,3.873,0,1,1,-3.873,0A3.873,3.873,0,1,1,3.873,0" fill="#4c78a8" stroke-width="2" opacity="0.7"/><path aria-label="all_draws: 0.36561218213; mean: 0.365671158079" role="graphics-symbol" aria-roledescription="circle" transform="translate(1.7470167799095433,298.25269971683883)" d="M3.873,0A3.873,3.873,0,1,1,-3.873,0A3.873,3.873,0,1,1,3.873,0" fill="#4c78a8" stroke-width="2" opacity="0.7"/><path aria-label="all_draws: 1.58457254036; mean: 1.58446492731" role="graphics-symbol" aria-roledescription="circle" transform="translate(7.606680420888295,292.3938368857073)" d="M3.873,0A3.873,3.873,0,1,1,-3.873,0A3.873,3.873,0,1,1,3.873,0" fill="#4c78a8" stroke-width="2" opacity="0.7"/><path aria-label="all_draws: 0.341530897906; mean: 0.34164767558" role="graphics-symbol" aria-roledescription="circle" transform="translate(1.6312556522894706,298.36818298582057)" d="M3.873,0A3.873,3.873,0,1,1,-3.873,0A3.873,3.873,0,1,1,3.873,0" fill="#4c78a8" stroke-width="2" opacity="0.7"/><path aria-label="all_draws: 8.97397212079; mean: 8.97405250806" role="graphics-symbol" aria-roledescription="circle" transform="translate(43.12825891841187,256.8713546519844)" d="M3.873,0A3.873,3.873,0,1,1,-3.873,0A3.873,3.873,0,1,1,3.873,0" fill="#4c78a8" stroke-width="2" opacity="0.7"/><path aria-label="all_draws: 25.0307477639; mean: 25.0303177239" role="graphics-symbol" aria-roledescription="circle" transform="translate(120.3147759305508,179.68729131476096)" d="M3.873,0A3.873,3.873,0,1,1,-3.873,0A3.873,3.873,0,1,1,3.873,0" fill="#4c78a8" stroke-width="2" opacity="0.7"/><path aria-label="all_draws: 7.76560342389; mean: 7.76548722666" role="graphics-symbol" aria-roledescription="circle" transform="translate(37.3195104465549,262.68104812507414)" d="M3.873,0A3.873,3.873,0,1,1,-3.873,0A3.873,3.873,0,1,1,3.873,0" fill="#4c78a8" stroke-width="2" opacity="0.7"/></g></g><path class="foreground" aria-hidden="true" d="" display="none"/></g></g></g></svg>