<svg xmlns="http://www.w3.org/2000/svg" xmlns:xlink="http://www.w3.org/1999/xlink" version="1.1" class="marks" width="366" height="366" viewBox="0 0 366 366"><rect width="366" height="366" fill="white"/><g fill="none" stroke-miterlimit="10" transform="translate(60,14)"><g class="mark-group role-frame root" role="graphics-object" aria-roledescription="group mark container"><g transform="translate(0,0)"><path class="background" aria-hidden="true" d="M0.5,0.5h300v300h-300Z" stroke="#ddd"/><g><g class="mark-group role-axis" aria-hidden="true"><g transform="translate(0.5,300.5)"><path class="background" aria-hidden="true" d="M0,0h0v0h0Z" pointer-events="none"/><g><g class="mark-rule role-axis-grid" pointer-events="none"><line transform="translate(37,-300)" x2="0" y2="300" stroke="#ddd" stroke-width="1" opacity="1"/><line transform="translate(75,-300)" x2="0" y2="300" stroke="#ddd" stroke-width="1" opacity="1"/><line transform="translate(112,-300)" x2="0" y2="300" stroke="#ddd" stroke-width="1" opacity="1"/><line transform="translate(149,-300)" x2="0" y2="300" stroke="#ddd" stroke-width="1" opacity="1"/><line transform="translate(187,-300)" x2="0" y2="300" stroke="#ddd" stroke-width="1" opacity="1"/><line transform="translate(224,-300)" x2="0" y2="300" stroke="#ddd" stroke-width="1" opacity="1"/><line transform="translate(262,-300)" x2="0" y2="300" stroke="#ddd" stroke-width="1" opacity="1"/><line transform="translate(299,-300)" x2="0" y2="300" stroke="#ddd" stroke-width="1" opacity="1"/></g></g><path class="foreground" aria-hidden="true" d="" pointer-events="none" display="none"/></g></g><g class="mark-group role-axis" aria-hidden="true"><g transform="translate(0.5,0.5)"><path class="background" aria-hidden="true" d="M0,0h0v0h0Z" pointer-events="none"/><g><g class="mark-rule role-axis-grid" pointer-events="none"><line transform="translate(0,263)" x2="300" y2="0" stroke="#ddd" stroke-width="1" opacity="1"/><line transform="translate(0,225)" x2="300" y2="0" stroke="#ddd" stroke-width="1" opacity="1"/><line transform="translate(0,188)" x2="300" y2="0" stroke="#ddd" stroke-width="1" opacity="1"/><line transform="translate(0,151)" x2="300" y2="0" stroke="#ddd" stroke-width="1" opacity="1"/><line transform="translate(0,113)" x2="300" y2="0" stroke="#ddd" stroke-width="1" opacity="1"/><line transform="translate(0,76)" x2="300" y2="0" stroke="#ddd" stroke-width="1" opacity="1"/><line transform="translate(0,38)" x2="300" y2="0" stroke="#ddd" stroke-width="1" opacity="1"/><line transform="translate(0,1)" x2="300" y2="0" stroke="#ddd" stroke-width="1" opacity="1"/></g></g><path class="foreground" aria-hidden="true" d="" pointer-events="none" display="none"/></g></g><g class="mark-group role-axis" role="graphics-symbol" aria-roledescription="axis" aria-label="X-axis titled 'ฮฃ(๐ฟ(yแตข,sแตข)-๐ซ)ยฒ / N' for a linear scale with values from 0.0 to 1.6"><g transform="translate(0.5,300.5)"><path class="background" aria-hidden="true" d="M0,0h0v0h0Z" pointer-events="none"/><g><g class="mark-rule role-axis-tick" pointer-events="none"><line transform="translate(37,0)" x2="0" y2="5" stroke="#888" stroke-width="1" opacity="1"/><line transform="translate(75,0)" x2="0" y2="5" stroke="#888" stroke-width="1" opacity="1"/><line transform="translate(112,0)" x2="0" y2="5" stroke="#888" stroke-width="1" opacity="1"/><line transform="translate(149,0)" x2="0" y2="5" stroke="#888" stroke-width="1" opacity="1"/><line transform="translate(187,0)" x2="0" y2="5" stroke="#888" stroke-width="1" opacity="1"/><line transform="translate(224,0)" x2="0" y2="5" stroke="#888" stroke-width="1" opacity="1"/><line transform="translate(262,0)" x2="0" y2="5" stroke="#888" stroke-width="1" opacity="1"/><line transform="translate(299,0)" x2="0" y2="5" stroke="#888" stroke-width="1" opacity="1"/></g><g class="mark-text role-axis-label" pointer-events="none"><text text-anchor="middle" transform="translate(37.28420574748727,21)" font-family="sans-serif" font-size="18px" fill="#000" opacity="1">0.2</text><text text-anchor="middle" transform="translate(74.68073248178437,21)" font-family="sans-serif" font-size="18px" fill="#000" opacity="0">0.4</text><text text-anchor="middle" transform="translate(112.07725921608146,21)" font-family="sans-serif" font-size="18px" fill="#000" opacity="1">0.6</text><text text-anchor="middle" transform="translate(149.47378595037856,21)" font-family="sans-serif" font-size="18px" fill="#000" opacity="0">0.8</text><text text-anchor="middle" transform="translate(186.87031268467567,21)" font-family="sans-serif" font-size="18px" fill="#000" opacity="1">1.0</text><text text-anchor="middle" transform="translate(224.26683941897272,21)" font-family="sans-serif" font-size="18px" fill="#000" opacity="0">1.2</text><text text-anchor="middle" transform="translate(261.6633661532698,21)" font-family="sans-serif" font-size="18px" fill="#000" opacity="1">1.4</text><text text-anchor="end" transform="translate(299.05989288756695,21)" font-family="sans-serif" font-size="18px" fill="#000" opacity="0">1.6</text></g><g class="mark-rule role-axis-domain" pointer-events="none"><line transform="translate(0,0)" x2="300" y2="0" stroke="#888" stroke-width="1" opacity="1"/></g><g class="mark-text role-axis-title" pointer-events="none"><text text-anchor="middle" transform="translate(150,43)" font-family="sans-serif" font-size="18px" font-weight="bold" fill="#000" opacity="1">ฮฃ(๐ฟ(yแตข,sแตข)-๐ซ)ยฒ / N</text></g></g><path class="foreground" aria-hidden="true" d="" pointer-events="none" display="none"/></g></g><g class="mark-group role-axis" role="graphics-symbol" aria-roledescription="axis" aria-label="Y-axis titled '๐ฟ'๐ฎ๐ฟ'แต' for a linear scale with values from 0.0 to 1.6"><g transform="translate(0.5,0.5)"><path class="background" aria-hidden="true" d="M0,0h0v0h0Z" pointer-events="none"/><g><g class="mark-rule role-axis-tick" pointer-events="none"><line transform="translate(0,263)" x2="-5" y2="0" stroke="#888" stroke-width="1" opacity="1"/><line transform="translate(0,225)" x2="-5" y2="0" stroke="#888" stroke-width="1" opacity="1"/><line transform="translate(0,188)" x2="-5" y2="0" stroke="#888" stroke-width="1" opacity="1"/><line transform="translate(0,151)" x2="-5" y2="0" stroke="#888" stroke-width="1" opacity="1"/><line transform="translate(0,113)" x2="-5" y2="0" stroke="#888" stroke-width="1" opacity="1"/><line transform="translate(0,76)" x2="-5" y2="0" stroke="#888" stroke-width="1" opacity="1"/><line transform="translate(0,38)" x2="-5" y2="0" stroke="#888" stroke-width="1" opacity="1"/><line transform="translate(0,1)" x2="-5" y2="0" stroke="#888" stroke-width="1" opacity="1"/></g><g class="mark-text role-axis-label" pointer-events="none"><text text-anchor="end" transform="translate(-7,267.71579425251275)" font-family="sans-serif" font-size="18px" fill="#000" opacity="1">0.2</text><text text-anchor="end" transform="translate(-7,230.31926751821564)" font-family="sans-serif" font-size="18px" fill="#000" opacity="1">0.4</text><text text-anchor="end" transform="translate(-7,192.92274078391853)" font-family="sans-serif" font-size="18px" fill="#000" opacity="1">0.6</text><text text-anchor="end" transform="translate(-7,155.52621404962144)" font-family="sans-serif" font-size="18px" fill="#000" opacity="1">0.8</text><text text-anchor="end" transform="translate(-7,118.12968731532435)" font-family="sans-serif" font-size="18px" fill="#000" opacity="1">1.0</text><text text-anchor="end" transform="translate(-7,80.73316058102728)" font-family="sans-serif" font-size="18px" fill="#000" opacity="1">1.2</text><text text-anchor="end" transform="translate(-7,43.33663384673018)" font-family="sans-serif" font-size="18px" fill="#000" opacity="1">1.4</text><text text-anchor="end" transform="translate(-7,5.9401071124330524)" font-family="sans-serif" font-size="18px" fill="#000" opacity="1">1.6</text></g><g class="mark-rule role-axis-domain" pointer-events="none"><line transform="translate(0,300)" x2="0" y2="-300" stroke="#888" stroke-width="1" opacity="1"/></g><g class="mark-text role-axis-title" pointer-events="none"><text text-anchor="middle" transform="translate(-36.0224609375,150) rotate(-90) translate(0,-4)" font-family="sans-serif" font-size="18px" font-weight="bold" fill="#000" opacity="1">๐ฟ'๐ฎ๐ฟ'แต</text></g></g><path class="foreground" aria-hidden="true" d="" pointer-events="none" display="none"/></g></g><g class="mark-rule role-mark layer_0_marks" role="graphics-symbol" aria-roledescription="rule mark container"><line transform="translate(0,300)" x2="300" y2="-300" stroke="black" stroke-dasharray="8,8"/></g><g class="mark-symbol role-mark layer_1_marks" role="graphics-object" aria-roledescription="symbol mark container"><path aria-label="all_draws: 0.282359591962; delta_method: 0.530642436262" role="graphics-symbol" aria-roledescription="circle" transform="translate(52.68401916057176,200.89140071677383)" d="M3.873,0A3.873,3.873,0,1,1,-3.873,0A3.873,3.873,0,1,1,3.873,0" fill="#4c78a8" stroke-width="2" opacity="0.7"/><path aria-label="all_draws: 0.830088875447; delta_method: 1.60502777768" role="graphics-symbol" aria-roledescription="circle" transform="translate(155.09988312564977,0)" d="M3.873,0A3.873,3.873,0,1,1,-3.873,0A3.873,3.873,0,1,1,3.873,0" fill="#4c78a8" stroke-width="2" opacity="0.7"/><path aria-label="all_draws: 0.223655546661; delta_method: 0.437519027522" role="graphics-symbol" aria-roledescription="circle" transform="translate(41.70738216312471,218.303860939333)" d="M3.873,0A3.873,3.873,0,1,1,-3.873,0A3.873,3.873,0,1,1,3.873,0" fill="#4c78a8" stroke-width="2" opacity="0.7"/><path aria-label="all_draws: 0.170984203582; delta_method: 0.329347337963" role="graphics-symbol" aria-roledescription="circle" transform="translate(31.8587557152047,238.53008834186036)" d="M3.873,0A3.873,3.873,0,1,1,-3.873,0A3.873,3.873,0,1,1,3.873,0" fill="#4c78a8" stroke-width="2" opacity="0.7"/><path aria-label="all_draws: 0.464686001158; delta_method: 0.866972311264" role="graphics-symbol" aria-roledescription="circle" transform="translate(86.77589133989449,138.00355490637222)" d="M3.873,0A3.873,3.873,0,1,1,-3.873,0A3.873,3.873,0,1,1,3.873,0" fill="#4c78a8" stroke-width="2" opacity="0.7"/><path aria-label="all_draws: 0.152201349318; delta_method: 0.296175856323" role="graphics-symbol" aria-roledescription="circle" transform="translate(28.346688157077047,244.7325793415446)" d="M3.873,0A3.873,3.873,0,1,1,-3.873,0A3.873,3.873,0,1,1,3.873,0" fill="#4c78a8" stroke-width="2" opacity="0.7"/><path aria-label="all_draws: 0.140647171339; delta_method: 0.194035142616" role="graphics-symbol" aria-roledescription="circle" transform="translate(26.186257528615723,263.83111899562516)" d="M3.873,0A3.873,3.873,0,1,1,-3.873,0A3.873,3.873,0,1,1,3.873,0" fill="#4c78a8" stroke-width="2" opacity="0.7"/><path aria-label="all_draws: 0.371937696542; delta_method: 0.624520412704" role="graphics-symbol" aria-roledescription="circle" transform="translate(69.43356907426886,183.3378494378533)" d="M3.873,0A3.873,3.873,0,1,1,-3.873,0A3.873,3.873,0,1,1,3.873,0" fill="#4c78a8" stroke-width="2" opacity="0.7"/><path aria-label="all_draws: 0.0975513068064; delta_method: 0.130516276769" role="graphics-symbol" aria-roledescription="circle" transform="translate(18.128079277954967,275.7080438194719)" d="M3.873,0A3.873,3.873,0,1,1,-3.873,0A3.873,3.873,0,1,1,3.873,0" fill="#4c78a8" stroke-width="2" opacity="0.7"/><path aria-label="all_draws: 0.0271450800987; delta_method: 0.0200381999454" role="graphics-symbol" aria-roledescription="circle" transform="translate(4.963337581271919,296.36552558699185)" d="M3.873,0A3.873,3.873,0,1,1,-3.873,0A3.873,3.873,0,1,1,3.873,0" fill="#4c78a8" stroke-width="2" opacity="0.7"/><path aria-label="all_draws: 0.0244796847112; delta_method: 0.0192435113438" role="graphics-symbol" aria-roledescription="circle" transform="translate(4.464954931942165,296.5141185546526)" d="M3.873,0A3.873,3.873,0,1,1,-3.873,0A3.873,3.873,0,1,1,3.873,0" fill="#4c78a8" stroke-width="2" opacity="0.7"/><path aria-label="all_draws: 0.0333264917052; delta_method: 0.0234772447638" role="graphics-symbol" aria-roledescription="circle" transform="translate(6.119154203265199,295.7224839295185)" d="M3.873,0A3.873,3.873,0,1,1,-3.873,0A3.873,3.873,0,1,1,3.873,0" fill="#4c78a8" stroke-width="2" opacity="0.7"/><path aria-label="all_draws: 0.0152405277176; delta_method: 0.0133506562716" role="graphics-symbol" aria-roledescription="circle" transform="translate(2.737393024363412,297.6159801159083)" d="M3.873,0A3.873,3.873,0,1,1,-3.873,0A3.873,3.873,0,1,1,3.873,0" fill="#4c78a8" stroke-width="2" opacity="0.7"/><path aria-label="all_draws: 0.107604052168; delta_method: 0.0795570040662" role="graphics-symbol" aria-roledescription="circle" transform="translate(20.0077680812536,285.23654283950395)" d="M3.873,0A3.873,3.873,0,1,1,-3.873,0A3.873,3.873,0,1,1,3.873,0" fill="#4c78a8" stroke-width="2" opacity="0.7"/><path aria-label="all_draws: 0.00947483320236; delta_method: 0.00810829376605" role="graphics-symbol" aria-roledescription="circle" transform="translate(1.6593082789659224,298.5962108638516)" d="M3.873,0A3.873,3.873,0,1,1,-3.873,0A3.873,3.873,0,1,1,3.873,0" fill="#4c78a8" stroke-width="2" opacity="0.7"/><path aria-label="all_draws: 0.0504905744511; delta_method: 0.052556087917" role="graphics-symbol" aria-roledescription="circle" transform="translate(9.32853959964294,290.28524525262407)" d="M3.873,0A3.873,3.873,0,1,1,-3.873,0A3.873,3.873,0,1,1,3.873,0" fill="#4c78a8" stroke-width="2" opacity="0.7"/><path aria-label="all_draws: 0.161817683778; delta_method: 0.16028497227" role="graphics-symbol" aria-roledescription="circle" transform="translate(30.144775700595083,270.1418147338608)" d="M3.873,0A3.873,3.873,0,1,1,-3.873,0A3.873,3.873,0,1,1,3.873,0" fill="#4c78a8" stroke-width="2" opacity="0.7"/><path aria-label="all_draws: 0.0549683836996; delta_method: 0.0558831411122" role="graphics-symbol" aria-roledescription="circle" transform="translate(10.165812165999714,289.6631440838135)" d="M3.873,0A3.873,3.873,0,1,1,-3.873,0A3.873,3.873,0,1,1,3.873,0" fill="#4c78a8" stroke-width="2" opacity="0.7"/><path aria-label="all_draws: 0.0229869095025; delta_method: 0.0237027247819" role="graphics-symbol" aria-roledescription="circle" transform="translate(4.185831891928241,295.6803230818974)" d="M3.873,0A3.873,3.873,0,1,1,-3.873,0A3.873,3.873,0,1,1,3.873,0" fill="#4c78a8" stroke-width="2" opacity="0.7"/><path aria-label="all_draws: 0.0721524050157; delta_method: 0.0710690711666" role="graphics-symbol" aria-roledescription="circle" transform="translate(13.378925728750643,286.8236388874838)" d="M3.873,0A3.873,3.873,0,1,1,-3.873,0A3.873,3.873,0,1,1,3.873,0" fill="#4c78a8" stroke-width="2" opacity="0.7"/><path aria-label="all_draws: 0.0165474930454; delta_method: 0.0182486415974" role="graphics-symbol" aria-roledescription="circle" transform="translate(2.9817728434816657,296.70014192000946)" d="M3.873,0A3.873,3.873,0,1,1,-3.873,0A3.873,3.873,0,1,1,3.873,0" fill="#4c78a8" stroke-width="2" opacity="0.7"/><path aria-label="all_draws: 0.0106036323483; delta_method: 0.0108411266834" role="graphics-symbol" aria-roledescription="circle" transform="translate(1.8703741161532283,298.0852185675893)" d="M3.873,0A3.873,3.873,0,1,1,-3.873,0A3.873,3.873,0,1,1,3.873,0" fill="#4c78a8" stroke-width="2" opacity="0.7"/><path aria-label="all_draws: 0.0249151693808; delta_method: 0.0257749069048" role="graphics-symbol" aria-roledescription="circle" transform="translate(4.546383002389777,295.29286101110574)" d="M3.873,0A3.873,3.873,0,1,1,-3.873,0A3.873,3.873,0,1,1,3.873,0" fill="#4c78a8" stroke-width="2" opacity="0.7"/><path aria-label="all_draws: 0.00984833073272; delta_method: 0.00983644902533" role="graphics-symbol" aria-roledescription="circle" transform="translate(1.7291458308620644,298.2730758420782)" d="M3.873,0A3.873,3.873,0,1,1,-3.873,0A3.873,3.873,0,1,1,3.873,0" fill="#4c78a8" stroke-width="2" opacity="0.7"/><path aria-label="all_draws: 0.0184759275134; delta_method: 0.0188224483679" role="graphics-symbol" aria-roledescription="circle" transform="translate(3.3423565991721107,296.59285001882574)" d="M3.873,0A3.873,3.873,0,1,1,-3.873,0A3.873,3.873,0,1,1,3.873,0" fill="#4c78a8" stroke-width="2" opacity="0.7"/><path aria-label="all_draws: 0.04949847633; delta_method: 0.0523683856853" role="graphics-symbol" aria-roledescription="circle" transform="translate(9.14303448010743,290.32034231024045)" d="M3.873,0A3.873,3.873,0,1,1,-3.873,0A3.873,3.873,0,1,1,3.873,0" fill="#4c78a8" stroke-width="2" opacity="0.7"/><path aria-label="all_draws: 0.0109605167011; delta_method: 0.0133393520027" role="graphics-symbol" aria-roledescription="circle" transform="translate(1.9371052923709173,297.61809381787623)" d="M3.873,0A3.873,3.873,0,1,1,-3.873,0A3.873,3.873,0,1,1,3.873,0" fill="#4c78a8" stroke-width="2" opacity="0.7"/><path aria-label="all_draws: 0.000892820851552; delta_method: 0.00104689182279" role="graphics-symbol" aria-roledescription="circle" transform="translate(0.05462100741013673,299.91657039661465)" d="M3.873,0A3.873,3.873,0,1,1,-3.873,0A3.873,3.873,0,1,1,3.873,0" fill="#4c78a8" stroke-width="2" opacity="0.7"/><path aria-label="all_draws: 0.000963404008202; delta_method: 0.00112586860847" role="graphics-symbol" aria-roledescription="circle" transform="translate(0.06781883193349682,299.90180310922966)" d="M3.873,0A3.873,3.873,0,1,1,-3.873,0A3.873,3.873,0,1,1,3.873,0" fill="#4c78a8" stroke-width="2" opacity="0.7"/><path aria-label="all_draws: 0.00140422588004; delta_method: 0.00140610618332" role="graphics-symbol" aria-roledescription="circle" transform="translate(0.15024486650899485,299.8494035494306)" d="M3.873,0A3.873,3.873,0,1,1,-3.873,0A3.873,3.873,0,1,1,3.873,0" fill="#4c78a8" stroke-width="2" opacity="0.7"/><path aria-label="all_draws: 0.000855502221118; delta_method: 0.000928573528182" role="graphics-symbol" aria-roledescription="circle" transform="translate(0.04764307160656777,299.93869386295273)" d="M3.873,0A3.873,3.873,0,1,1,-3.873,0A3.873,3.873,0,1,1,3.873,0" fill="#4c78a8" stroke-width="2" opacity="0.7"/><path aria-label="all_draws: 0.00542459427995; delta_method: 0.00643948774015" role="graphics-symbol" aria-roledescription="circle" transform="translate(0.9019839382552342,298.9082486096604)" d="M3.873,0A3.873,3.873,0,1,1,-3.873,0A3.873,3.873,0,1,1,3.873,0" fill="#4c78a8" stroke-width="2" opacity="0.7"/><path aria-label="all_draws: 0.000600702774393; delta_method: 0.000639527821845" role="graphics-symbol" aria-roledescription="circle" transform="translate(0,299.99274039037516)" d="M3.873,0A3.873,3.873,0,1,1,-3.873,0A3.873,3.873,0,1,1,3.873,0" fill="#4c78a8" stroke-width="2" opacity="0.7"/><path aria-label="all_draws: 0.00368122281935; delta_method: 0.00430820821787" role="graphics-symbol" aria-roledescription="circle" transform="translate(0.5760037510839621,299.3067608678281)" d="M3.873,0A3.873,3.873,0,1,1,-3.873,0A3.873,3.873,0,1,1,3.873,0" fill="#4c78a8" stroke-width="2" opacity="0.7"/><path aria-label="all_draws: 0.0132770442421; delta_method: 0.0145496319142" role="graphics-symbol" aria-roledescription="circle" transform="translate(2.3702557129577864,297.39179249254283)" d="M3.873,0A3.873,3.873,0,1,1,-3.873,0A3.873,3.873,0,1,1,3.873,0" fill="#4c78a8" stroke-width="2" opacity="0.7"/><path aria-label="all_draws: 0.00418658879509; delta_method: 0.00429773240338" role="graphics-symbol" aria-roledescription="circle" transform="translate(0.6704984121960782,299.3087196632099)" d="M3.873,0A3.873,3.873,0,1,1,-3.873,0A3.873,3.873,0,1,1,3.873,0" fill="#4c78a8" stroke-width="2" opacity="0.7"/><path aria-label="all_draws: 0.388106029878; delta_method: 0.373484908858" role="graphics-symbol" aria-roledescription="circle" transform="translate(72.45676662364798,230.2771290920393)" d="M3.873,0A3.873,3.873,0,1,1,-3.873,0A3.873,3.873,0,1,1,3.873,0" fill="#4c78a8" stroke-width="2" opacity="0.7"/><path aria-label="all_draws: 1.1111590116; delta_method: 1.10716531494" role="graphics-symbol" aria-roledescription="circle" transform="translate(207.65511742940862,93.09163449028979)" d="M3.873,0A3.873,3.873,0,1,1,-3.873,0A3.873,3.873,0,1,1,3.873,0" fill="#4c78a8" stroke-width="2" opacity="0.7"/><path aria-label="all_draws: 0.316771785843; delta_method: 0.319044969124" role="graphics-symbol" aria-roledescription="circle" transform="translate(59.11850180284183,240.45645240039968)" d="M3.873,0A3.873,3.873,0,1,1,-3.873,0A3.873,3.873,0,1,1,3.873,0" fill="#4c78a8" stroke-width="2" opacity="0.7"/><path aria-label="all_draws: 0.230349795311; delta_method: 0.228793294049" role="graphics-symbol" aria-roledescription="circle" transform="translate(42.95909040610618,257.3319482991158)" d="M3.873,0A3.873,3.873,0,1,1,-3.873,0A3.873,3.873,0,1,1,3.873,0" fill="#4c78a8" stroke-width="2" opacity="0.7"/><path aria-label="all_draws: 0.573881593607; delta_method: 0.552110506466" role="graphics-symbol" aria-roledescription="circle" transform="translate(107.19357080146655,196.8772444100419)" d="M3.873,0A3.873,3.873,0,1,1,-3.873,0A3.873,3.873,0,1,1,3.873,0" fill="#4c78a8" stroke-width="2" opacity="0.7"/><path aria-label="all_draws: 0.204815319815; delta_method: 0.214296594477" role="graphics-symbol" aria-roledescription="circle" transform="translate(38.184586928466516,260.04257936470674)" d="M3.873,0A3.873,3.873,0,1,1,-3.873,0A3.873,3.873,0,1,1,3.873,0" fill="#4c78a8" stroke-width="2" opacity="0.7"/><path aria-label="all_draws: 0.179718379712; delta_method: 0.168994460301" role="graphics-symbol" aria-roledescription="circle" transform="translate(33.491894970896425,268.51329172390626)" d="M3.873,0A3.873,3.873,0,1,1,-3.873,0A3.873,3.873,0,1,1,3.873,0" fill="#4c78a8" stroke-width="2" opacity="0.7"/><path aria-label="all_draws: 0.511690934234; delta_method: 0.502375109983" role="graphics-symbol" aria-roledescription="circle" transform="translate(95.56499752202821,206.17689983119126)" d="M3.873,0A3.873,3.873,0,1,1,-3.873,0A3.873,3.873,0,1,1,3.873,0" fill="#4c78a8" stroke-width="2" opacity="0.7"/><path aria-label="all_draws: 0.123342342513; delta_method: 0.120877195115" role="graphics-symbol" aria-roledescription="circle" transform="translate(22.95055505955482,277.510384693467)" d="M3.873,0A3.873,3.873,0,1,1,-3.873,0A3.873,3.873,0,1,1,3.873,0" fill="#4c78a8" stroke-width="2" opacity="0.7"/><path aria-label="all_draws: 0.019013563352; delta_method: 0.018570236167" role="graphics-symbol" aria-roledescription="circle" transform="translate(3.4428851642242466,296.64000932040886)" d="M3.873,0A3.873,3.873,0,1,1,-3.873,0A3.873,3.873,0,1,1,3.873,0" fill="#4c78a8" stroke-width="2" opacity="0.7"/><path aria-label="all_draws: 0.0161013194148; delta_method: 0.0161220426763" role="graphics-symbol" aria-roledescription="circle" transform="translate(2.8983461229638516,297.0977789870338)" d="M3.873,0A3.873,3.873,0,1,1,-3.873,0A3.873,3.873,0,1,1,3.873,0" fill="#4c78a8" stroke-width="2" opacity="0.7"/><path aria-label="all_draws: 0.0203051675211; delta_method: 0.0203197021719" role="graphics-symbol" aria-roledescription="circle" transform="translate(3.684392713430033,296.31288955929017)" d="M3.873,0A3.873,3.873,0,1,1,-3.873,0A3.873,3.873,0,1,1,3.873,0" fill="#4c78a8" stroke-width="2" opacity="0.7"/><path aria-label="all_draws: 0.0114591287344; delta_method: 0.0122649385826" role="graphics-symbol" aria-roledescription="circle" transform="translate(2.0303370835271988,297.8189904688105)" d="M3.873,0A3.873,3.873,0,1,1,-3.873,0A3.873,3.873,0,1,1,3.873,0" fill="#4c78a8" stroke-width="2" opacity="0.7"/><path aria-label="all_draws: 0.0644125185076; delta_method: 0.0687602378233" role="graphics-symbol" aria-roledescription="circle" transform="translate(11.931701365158967,287.25535062673924)" d="M3.873,0A3.873,3.873,0,1,1,-3.873,0A3.873,3.873,0,1,1,3.873,0" fill="#4c78a8" stroke-width="2" opacity="0.7"/><path aria-label="all_draws: 0.00697045317653; delta_method: 0.00745174761104" role="graphics-symbol" aria-roledescription="circle" transform="translate(1.1910327060209558,298.71897359304256)" d="M3.873,0A3.873,3.873,0,1,1,-3.873,0A3.873,3.873,0,1,1,3.873,0" fill="#4c78a8" stroke-width="2" opacity="0.7"/><path aria-label="all_draws: 0.0503743893946; delta_method: 0.0498636375582" role="graphics-symbol" aria-roledescription="circle" transform="translate(9.306815011780232,290.7886867117372)" d="M3.873,0A3.873,3.873,0,1,1,-3.873,0A3.873,3.873,0,1,1,3.873,0" fill="#4c78a8" stroke-width="2" opacity="0.7"/><path aria-label="all_draws: 0.124528671513; delta_method: 0.137185965171" role="graphics-symbol" aria-roledescription="circle" transform="translate(23.172377980301476,274.4609279162823)" d="M3.873,0A3.873,3.873,0,1,1,-3.873,0A3.873,3.873,0,1,1,3.873,0" fill="#4c78a8" stroke-width="2" opacity="0.7"/><path aria-label="all_draws: 0.0534891249255; delta_method: 0.0539008122368" role="graphics-symbol" aria-roledescription="circle" transform="translate(9.889216464535945,290.0338051577423)" d="M3.873,0A3.873,3.873,0,1,1,-3.873,0A3.873,3.873,0,1,1,3.873,0" fill="#4c78a8" stroke-width="2" opacity="0.7"/><path aria-label="all_draws: 0.382781542297; delta_method: 0.386069339071" role="graphics-symbol" aria-roledescription="circle" transform="translate(71.46117991269952,227.92405918741915)" d="M3.873,0A3.873,3.873,0,1,1,-3.873,0A3.873,3.873,0,1,1,3.873,0" fill="#4c78a8" stroke-width="2" opacity="0.7"/><path aria-label="all_draws: 1.17137591662; delta_method: 1.15789066077" role="graphics-symbol" aria-roledescription="circle" transform="translate(218.91463292292238,83.60687573271214)" d="M3.873,0A3.873,3.873,0,1,1,-3.873,0A3.873,3.873,0,1,1,3.873,0" fill="#4c78a8" stroke-width="2" opacity="0.7"/><path aria-label="all_draws: 0.310850989352; delta_method: 0.313035444813" role="graphics-symbol" aria-roledescription="circle" transform="translate(58.01141568157792,241.5801290831063)" d="M3.873,0A3.873,3.873,0,1,1,-3.873,0A3.873,3.873,0,1,1,3.873,0" fill="#4c78a8" stroke-width="2" opacity="0.7"/><path aria-label="all_draws: 0.25519788622; delta_method: 0.25595160875" role="graphics-symbol" aria-roledescription="circle" transform="translate(47.60525188604691,252.25381509037246)" d="M3.873,0A3.873,3.873,0,1,1,-3.873,0A3.873,3.873,0,1,1,3.873,0" fill="#4c78a8" stroke-width="2" opacity="0.7"/><path aria-label="all_draws: 0.694021825878; delta_method: 0.695149804751" role="graphics-symbol" aria-roledescription="circle" transform="translate(129.65770784129734,170.13137969823737)" d="M3.873,0A3.873,3.873,0,1,1,-3.873,0A3.873,3.873,0,1,1,3.873,0" fill="#4c78a8" stroke-width="2" opacity="0.7"/><path aria-label="all_draws: 0.223207331204; delta_method: 0.223975901338" role="graphics-symbol" aria-roledescription="circle" transform="translate(41.62357365655939,258.2327170757367)" d="M3.873,0A3.873,3.873,0,1,1,-3.873,0A3.873,3.873,0,1,1,3.873,0" fill="#4c78a8" stroke-width="2" opacity="0.7"/><path aria-label="all_draws: 0.115299663149; delta_method: 0.122625397879" role="graphics-symbol" aria-roledescription="circle" transform="translate(21.446713690239857,277.1835011364721)" d="M3.873,0A3.873,3.873,0,1,1,-3.873,0A3.873,3.873,0,1,1,3.873,0" fill="#4c78a8" stroke-width="2" opacity="0.7"/><path aria-label="all_draws: 0.373989048387; delta_method: 0.384027587947" role="graphics-symbol" aria-roledescription="circle" transform="translate(69.81713624490983,228.30583118997401)" d="M3.873,0A3.873,3.873,0,1,1,-3.873,0A3.873,3.873,0,1,1,3.873,0" fill="#4c78a8" stroke-width="2" opacity="0.7"/><path aria-label="all_draws: 0.0781097235265; delta_method: 0.0796277199438" role="graphics-symbol" aria-roledescription="circle" transform="translate(14.492840833532217,285.22332019845504)" d="M3.873,0A3.873,3.873,0,1,1,-3.873,0A3.873,3.873,0,1,1,3.873,0" fill="#4c78a8" stroke-width="2" opacity="0.7"/><path aria-label="all_draws: 0.0162936009961; delta_method: 0.0157136087638" role="graphics-symbol" aria-roledescription="circle" transform="translate(2.9342994394379294,297.17414903567067)" d="M3.873,0A3.873,3.873,0,1,1,-3.873,0A3.873,3.873,0,1,1,3.873,0" fill="#4c78a8" stroke-width="2" opacity="0.7"/><path aria-label="all_draws: 0.0158741201674; delta_method: 0.0155561895719" role="graphics-symbol" aria-roledescription="circle" transform="translate(2.855863809308456,297.203583690771)" d="M3.873,0A3.873,3.873,0,1,1,-3.873,0A3.873,3.873,0,1,1,3.873,0" fill="#4c78a8" stroke-width="2" opacity="0.7"/><path aria-label="all_draws: 0.0201170779496; delta_method: 0.0190276326031" role="graphics-symbol" aria-roledescription="circle" transform="translate(3.6492232299719634,296.5544841301509)" d="M3.873,0A3.873,3.873,0,1,1,-3.873,0A3.873,3.873,0,1,1,3.873,0" fill="#4c78a8" stroke-width="2" opacity="0.7"/><path aria-label="all_draws: 0.00985755836435; delta_method: 0.00893227331678" role="graphics-symbol" aria-roledescription="circle" transform="translate(1.7308712377272102,298.4421409973653)" d="M3.873,0A3.873,3.873,0,1,1,-3.873,0A3.873,3.873,0,1,1,3.873,0" fill="#4c78a8" stroke-width="2" opacity="0.7"/><path aria-label="all_draws: 0.0659793496092; delta_method: 0.0592663667449" role="graphics-symbol" aria-roledescription="circle" transform="translate(12.224671571045887,289.0305396446997)" d="M3.873,0A3.873,3.873,0,1,1,-3.873,0A3.873,3.873,0,1,1,3.873,0" fill="#4c78a8" stroke-width="2" opacity="0.7"/><path aria-label="all_draws: 0.00614022405957; delta_method: 0.00563606570493" role="graphics-symbol" aria-roledescription="circle" transform="translate(1.0357942791821813,299.0584745777574)" d="M3.873,0A3.873,3.873,0,1,1,-3.873,0A3.873,3.873,0,1,1,3.873,0" fill="#4c78a8" stroke-width="2" opacity="0.7"/><path aria-label="all_draws: 0.0342541608551; delta_method: 0.0318145180245" role="graphics-symbol" aria-roledescription="circle" transform="translate(6.292612224075718,294.16355861760235)" d="M3.873,0A3.873,3.873,0,1,1,-3.873,0A3.873,3.873,0,1,1,3.873,0" fill="#4c78a8" stroke-width="2" opacity="0.7"/><path aria-label="all_draws: 0.118862525441; delta_method: 0.108394309873" role="graphics-symbol" aria-roledescription="circle" transform="translate(22.112907065075948,279.84446745175234)" d="M3.873,0A3.873,3.873,0,1,1,-3.873,0A3.873,3.873,0,1,1,3.873,0" fill="#4c78a8" stroke-width="2" opacity="0.7"/><path aria-label="all_draws: 0.0309815479183; delta_method: 0.0296177804663" role="graphics-symbol" aria-roledescription="circle" transform="translate(5.68069043816679,294.57431039172576)" d="M3.873,0A3.873,3.873,0,1,1,-3.873,0A3.873,3.873,0,1,1,3.873,0" fill="#4c78a8" stroke-width="2" opacity="0.7"/></g></g><path class="foreground" aria-hidden="true" d="" display="none"/></g></g></g></svg>