<svg xmlns="http://www.w3.org/2000/svg" xmlns:xlink="http://www.w3.org/1999/xlink" version="1.1" class="marks" width="486" height="237" viewBox="0 0 486 237"><rect width="486" height="237" fill="white"/><g fill="none" stroke-miterlimit="10" transform="translate(34,7)"><g class="mark-group role-frame root" role="graphics-object" aria-roledescription="group mark container"><g transform="translate(0,0)"><path class="background" aria-hidden="true" d="M0,0h0v150h0Z"/><g><g class="mark-group role-scope concat_0_group" role="graphics-object" aria-roledescription="group mark container"><g transform="translate(0,0)"><path class="background" aria-hidden="true" d="M0.5,0.5h120v150h-120Z" stroke="#ddd"/><g><g class="mark-group role-axis" aria-hidden="true"><g transform="translate(0.5,0.5)"><path class="background" aria-hidden="true" d="M0,0h0v0h0Z" pointer-events="none"/><g><g class="mark-rule role-axis-grid" pointer-events="none"><line transform="translate(0,150)" x2="120" y2="0" stroke="#ddd" stroke-width="1" opacity="1"/><line transform="translate(0,117)" x2="120" y2="0" stroke="#ddd" stroke-width="1" opacity="1"/><line transform="translate(0,83)" x2="120" y2="0" stroke="#ddd" stroke-width="1" opacity="1"/><line transform="translate(0,50)" x2="120" y2="0" stroke="#ddd" stroke-width="1" opacity="1"/><line transform="translate(0,17)" x2="120" y2="0" stroke="#ddd" stroke-width="1" opacity="1"/></g></g><path class="foreground" aria-hidden="true" d="" pointer-events="none" display="none"/></g></g><g class="mark-group role-axis" role="graphics-symbol" aria-roledescription="axis" aria-label="X-axis titled 'Cause' for a discrete scale with 4 values: All, Inj., NCD, Comm."><g transform="translate(0.5,150.5)"><path class="background" aria-hidden="true" d="M0,0h0v0h0Z" pointer-events="none"/><g><g class="mark-rule role-axis-tick" pointer-events="none"><line transform="translate(15,0)" x2="0" y2="5" stroke="#888" stroke-width="1" opacity="1"/><line transform="translate(45,0)" x2="0" y2="5" stroke="#888" stroke-width="1" opacity="1"/><line transform="translate(75,0)" x2="0" y2="5" stroke="#888" stroke-width="1" opacity="1"/><line transform="translate(105,0)" x2="0" y2="5" stroke="#888" stroke-width="1" opacity="1"/></g><g class="mark-text role-axis-label" pointer-events="none"><text text-anchor="end" transform="translate(14.5,7) rotate(270) translate(0,3)" font-family="sans-serif" font-size="10px" fill="#000" opacity="1">All</text><text text-anchor="end" transform="translate(44.5,7) rotate(270) translate(0,3)" font-family="sans-serif" font-size="10px" fill="#000" opacity="1">Inj.</text><text text-anchor="end" transform="translate(74.5,7) rotate(270) translate(0,3)" font-family="sans-serif" font-size="10px" fill="#000" opacity="1">NCD</text><text text-anchor="end" transform="translate(104.5,7) rotate(270) translate(0,3)" font-family="sans-serif" font-size="10px" fill="#000" opacity="1">Comm.</text></g><g class="mark-rule role-axis-domain" pointer-events="none"><line transform="translate(0,0)" x2="120" y2="0" stroke="#888" stroke-width="1" opacity="1"/></g><g class="mark-text role-axis-title" pointer-events="none"><text text-anchor="middle" transform="translate(60,52.2216796875)" font-family="sans-serif" font-size="11px" font-weight="bold" fill="#000" opacity="1">Cause</text></g></g><path class="foreground" aria-hidden="true" d="" pointer-events="none" display="none"/></g></g><g class="mark-group role-axis" role="graphics-symbol" aria-roledescription="axis" aria-label="Y-axis titled 'Percentage change (%)' for a linear scale with values from 0 to 5"><g transform="translate(0.5,0.5)"><path class="background" aria-hidden="true" d="M0,0h0v0h0Z" pointer-events="none"/><g><g class="mark-rule role-axis-tick" pointer-events="none"><line transform="translate(0,150)" x2="-5" y2="0" stroke="#888" stroke-width="1" opacity="1"/><line transform="translate(0,117)" x2="-5" y2="0" stroke="#888" stroke-width="1" opacity="1"/><line transform="translate(0,83)" x2="-5" y2="0" stroke="#888" stroke-width="1" opacity="1"/><line transform="translate(0,50)" x2="-5" y2="0" stroke="#888" stroke-width="1" opacity="1"/><line transform="translate(0,17)" x2="-5" y2="0" stroke="#888" stroke-width="1" opacity="1"/></g><g class="mark-text role-axis-label" pointer-events="none"><text text-anchor="end" transform="translate(-7,153)" font-family="sans-serif" font-size="10px" fill="#000" opacity="1">0</text><text text-anchor="end" transform="translate(-7,119.66666666666667)" font-family="sans-serif" font-size="10px" fill="#000" opacity="1">1</text><text text-anchor="end" transform="translate(-7,86.33333333333334)" font-family="sans-serif" font-size="10px" fill="#000" opacity="1">2</text><text text-anchor="end" transform="translate(-7,53.00000000000001)" font-family="sans-serif" font-size="10px" fill="#000" opacity="1">3</text><text text-anchor="end" transform="translate(-7,19.666666666666675)" font-family="sans-serif" font-size="10px" fill="#000" opacity="1">4</text></g><g class="mark-rule role-axis-domain" pointer-events="none"><line transform="translate(0,150)" x2="0" y2="-150" stroke="#888" stroke-width="1" opacity="1"/></g><g class="mark-text role-axis-title" pointer-events="none"><text text-anchor="middle" transform="translate(-16.5615234375,75) rotate(-90) translate(0,-2)" font-family="sans-serif" font-size="11px" font-weight="bold" fill="#000" opacity="1">Percentage change (%)</text></g></g><path class="foreground" aria-hidden="true" d="" pointer-events="none" display="none"/></g></g><g class="mark-symbol role-mark concat_0_layer_0_layer_0_marks" role="graphics-object" aria-roledescription="symbol mark container"><path aria-label="cause: All; Percentage change (%): 1.87033719431" role="graphics-symbol" aria-roledescription="point" transform="translate(15,87.65542685641302)" d="M2.739,0A2.739,2.739,0,1,1,-2.739,0A2.739,2.739,0,1,1,2.739,0" stroke="#4c78a8" stroke-width="2" opacity="0.7"/><path aria-label="cause: Comm.; Percentage change (%): 1.74649008089" role="graphics-symbol" aria-roledescription="point" transform="translate(105,91.78366397019792)" d="M2.739,0A2.739,2.739,0,1,1,-2.739,0A2.739,2.739,0,1,1,2.739,0" stroke="#4c78a8" stroke-width="2" opacity="0.7"/><path aria-label="cause: All; Percentage change (%): 2.27532606233" role="graphics-symbol" aria-roledescription="point" transform="translate(15,74.15579792222252)" d="M2.739,0A2.739,2.739,0,1,1,-2.739,0A2.739,2.739,0,1,1,2.739,0" stroke="#4c78a8" stroke-width="2" opacity="0.7"/><path aria-label="cause: Comm.; Percentage change (%): 1.91570187097" role="graphics-symbol" aria-roledescription="point" transform="translate(105,86.14327096779716)" d="M2.739,0A2.739,2.739,0,1,1,-2.739,0A2.739,2.739,0,1,1,2.739,0" stroke="#4c78a8" stroke-width="2" opacity="0.7"/></g><g class="mark-rule role-mark concat_0_layer_0_layer_1_layer_0_marks" aria-hidden="true"><line transform="translate(15,149.7074746367248)" x2="0" y2="-7.305861894610558" stroke="black"/><line transform="translate(105,146.8553520180065)" x2="0" y2="-6.2469982291242445" stroke="black"/><line transform="translate(45,145.91573174385914)" x2="0" y2="-11.54244729586739" stroke="black"/><line transform="translate(75,149.21541060214668)" x2="0" y2="-3.9902022486398323" stroke="black"/></g><g class="mark-rule role-mark concat_0_layer_0_layer_1_layer_1_marks" aria-hidden="true"><line transform="translate(15,124.05590106147767)" x2="0" y2="-19.38852094008074" stroke="black"/><line transform="translate(105,125.24284976673599)" x2="0" y2="-19.630847020266458" stroke="black"/><line transform="translate(45,76.22078443421115)" x2="0" y2="-72.06371305562224" stroke="black"/><line transform="translate(75,116.02209559520729)" x2="0" y2="-38.91776451133906" stroke="black"/></g><g class="mark-rect role-mark concat_0_layer_1_layer_0_marks" role="graphics-object" aria-roledescription="rect mark container"><path aria-label="cause: All; Percentage change (%): 0.227951617737; upper_box_Percentage change (%): 0.778322968156; Max of Percentage change (%): 2.27532606233; Q3 of Percentage change (%): 0.778322968156; Median of Percentage change (%): 0.464141908819; Q1 of Percentage change (%): 0.227951617737; Min of Percentage change (%): 0.00877576089826" role="graphics-symbol" aria-roledescription="box" d="M8,124.05590106147767h14v18.345711680636583h-14Z" fill="#4c78a8"/><path aria-label="cause: Comm.; Percentage change (%): 0.281749386334; upper_box_Percentage change (%): 0.742714506998; Max of Percentage change (%): 1.91570187097; Q3 of Percentage change (%): 0.742714506998; Median of Percentage change (%): 0.51650719933; Q1 of Percentage change (%): 0.281749386334; Min of Percentage change (%): 0.0943394394598" role="graphics-symbol" aria-roledescription="box" d="M98,125.24284976673599h14v15.365504022146268h-14Z" fill="#4c78a8"/><path aria-label="cause: Inj.; Percentage change (%): 0.46880146656; upper_box_Percentage change (%): 2.21337646697; Max of Percentage change (%): 4.37528785864; Q3 of Percentage change (%): 2.21337646697; Median of Percentage change (%): 1.19624065674; Q1 of Percentage change (%): 0.46880146656; Min of Percentage change (%): 0.122528047684" role="graphics-symbol" aria-roledescription="box" d="M38,76.22078443421115h14v58.152500013780596h-14Z" fill="#4c78a8"/><path aria-label="cause: NCD; Percentage change (%): 0.143243749395; upper_box_Percentage change (%): 1.01933713214; Max of Percentage change (%): 2.18687006748; Q3 of Percentage change (%): 1.01933713214; Median of Percentage change (%): 0.309371587741; Q1 of Percentage change (%): 0.143243749395; Min of Percentage change (%): 0.0235376819356" role="graphics-symbol" aria-roledescription="box" d="M68,116.02209559520729h14v29.203112758299554h-14Z" fill="#4c78a8"/></g><g class="mark-rect role-mark concat_0_layer_1_layer_1_marks" aria-hidden="true"><path d="M8,134.02860303937342h14v1h-14Z" fill="white" opacity="0.7"/><path d="M98,132.2830933556523h14v1h-14Z" fill="white" opacity="0.7"/><path d="M38,109.6253114418611h14v1h-14Z" fill="white" opacity="0.7"/><path d="M68,139.1876137419689h14v1h-14Z" fill="white" opacity="0.7"/></g></g><path class="foreground" aria-hidden="true" d="" display="none"/></g></g><g class="mark-group role-scope concat_1_group" role="graphics-object" aria-roledescription="group mark container"><g transform="translate(148,0)"><path class="background" aria-hidden="true" d="M0.5,0.5h180v150h-180Z" stroke="#ddd"/><g><g class="mark-group role-axis" aria-hidden="true"><g transform="translate(0.5,0.5)"><path class="background" aria-hidden="true" d="M0,0h0v0h0Z" pointer-events="none"/><g><g class="mark-rule role-axis-grid" pointer-events="none"><line transform="translate(0,150)" x2="180" y2="0" stroke="#ddd" stroke-width="1" opacity="1"/><line transform="translate(0,117)" x2="180" y2="0" stroke="#ddd" stroke-width="1" opacity="1"/><line transform="translate(0,83)" x2="180" y2="0" stroke="#ddd" stroke-width="1" opacity="1"/><line transform="translate(0,50)" x2="180" y2="0" stroke="#ddd" stroke-width="1" opacity="1"/><line transform="translate(0,17)" x2="180" y2="0" stroke="#ddd" stroke-width="1" opacity="1"/></g></g><path class="foreground" aria-hidden="true" d="" pointer-events="none" display="none"/></g></g><g class="mark-group role-axis" role="graphics-symbol" aria-roledescription="axis" aria-label="X-axis titled 'Race' for a discrete scale with 6 values: All, White, Hisp., Black, API, AIAN"><g transform="translate(0.5,150.5)"><path class="background" aria-hidden="true" d="M0,0h0v0h0Z" pointer-events="none"/><g><g class="mark-rule role-axis-tick" pointer-events="none"><line transform="translate(15,0)" x2="0" y2="5" stroke="#888" stroke-width="1" opacity="1"/><line transform="translate(45,0)" x2="0" y2="5" stroke="#888" stroke-width="1" opacity="1"/><line transform="translate(75,0)" x2="0" y2="5" stroke="#888" stroke-width="1" opacity="1"/><line transform="translate(105,0)" x2="0" y2="5" stroke="#888" stroke-width="1" opacity="1"/><line transform="translate(135,0)" x2="0" y2="5" stroke="#888" stroke-width="1" opacity="1"/><line transform="translate(165,0)" x2="0" y2="5" stroke="#888" stroke-width="1" opacity="1"/></g><g class="mark-text role-axis-label" pointer-events="none"><text text-anchor="end" transform="translate(14.5,7) rotate(270) translate(0,3)" font-family="sans-serif" font-size="10px" fill="#000" opacity="1">All</text><text text-anchor="end" transform="translate(44.5,7) rotate(270) translate(0,3)" font-family="sans-serif" font-size="10px" fill="#000" opacity="1">White</text><text text-anchor="end" transform="translate(74.5,7) rotate(270) translate(0,3)" font-family="sans-serif" font-size="10px" fill="#000" opacity="1">Hisp.</text><text text-anchor="end" transform="translate(104.5,7) rotate(270) translate(0,3)" font-family="sans-serif" font-size="10px" fill="#000" opacity="1">Black</text><text text-anchor="end" transform="translate(134.5,7) rotate(270) translate(0,3)" font-family="sans-serif" font-size="10px" fill="#000" opacity="1">API</text><text text-anchor="end" transform="translate(164.5,7) rotate(270) translate(0,3)" font-family="sans-serif" font-size="10px" fill="#000" opacity="1">AIAN</text></g><g class="mark-rule role-axis-domain" pointer-events="none"><line transform="translate(0,0)" x2="180" y2="0" stroke="#888" stroke-width="1" opacity="1"/></g><g class="mark-text role-axis-title" pointer-events="none"><text text-anchor="middle" transform="translate(90,45.5615234375)" font-family="sans-serif" font-size="11px" font-weight="bold" fill="#000" opacity="1">Race</text></g></g><path class="foreground" aria-hidden="true" d="" pointer-events="none" display="none"/></g></g><g class="mark-group role-axis" role="graphics-symbol" aria-roledescription="axis" aria-label="Y-axis for a linear scale with values from 0 to 5"><g transform="translate(0.5,0.5)"><path class="background" aria-hidden="true" d="M0,0h0v0h0Z" pointer-events="none"/><g><g class="mark-rule role-axis-tick" pointer-events="none"><line transform="translate(0,150)" x2="-5" y2="0" stroke="#888" stroke-width="1" opacity="1"/><line transform="translate(0,117)" x2="-5" y2="0" stroke="#888" stroke-width="1" opacity="1"/><line transform="translate(0,83)" x2="-5" y2="0" stroke="#888" stroke-width="1" opacity="1"/><line transform="translate(0,50)" x2="-5" y2="0" stroke="#888" stroke-width="1" opacity="1"/><line transform="translate(0,17)" x2="-5" y2="0" stroke="#888" stroke-width="1" opacity="1"/></g><g class="mark-rule role-axis-domain" pointer-events="none"><line transform="translate(0,150)" x2="0" y2="-150" stroke="#888" stroke-width="1" opacity="1"/></g></g><path class="foreground" aria-hidden="true" d="" pointer-events="none" display="none"/></g></g><g class="mark-symbol role-mark concat_1_layer_0_layer_0_marks" role="graphics-object" aria-roledescription="symbol mark container"><path aria-label="race: All; Percentage change (%): 4.37528785864" role="graphics-symbol" aria-roledescription="point" transform="translate(15,4.1570713785889115)" d="M2.739,0A2.739,2.739,0,1,1,-2.739,0A2.739,2.739,0,1,1,2.739,0" stroke="#4c78a8" stroke-width="2" opacity="0.7"/><path aria-label="race: All; Percentage change (%): 2.96886850504" role="graphics-symbol" aria-roledescription="point" transform="translate(15,51.037716498638744)" d="M2.739,0A2.739,2.739,0,1,1,-2.739,0A2.739,2.739,0,1,1,2.739,0" stroke="#4c78a8" stroke-width="2" opacity="0.7"/></g><g class="mark-rule role-mark concat_1_layer_0_layer_1_layer_0_marks" aria-hidden="true"><line transform="translate(15,149.7074746367248)" x2="0" y2="-4.781490387988612" stroke="black"/><line transform="translate(75,147.38597795576845)" x2="0" y2="-8.236326765196026" stroke="black"/><line transform="translate(105,149.01641086820916)" x2="0" y2="-2.8657740558131763" stroke="black"/><line transform="translate(45,144.20552674573506)" x2="0" y2="-2.980460669354585" stroke="black"/><line transform="translate(165,146.52955966692065)" x2="0" y2="-23.217691707539203" stroke="black"/><line transform="translate(135,143.96413827579468)" x2="0" y2="-0.7949718262361216" stroke="black"/></g><g class="mark-rule role-mark concat_1_layer_0_layer_1_layer_1_marks" aria-hidden="true"><line transform="translate(15,112.51578909436904)" x2="0" y2="-45.654852637368975" stroke="black"/><line transform="translate(75,99.00939591212949)" x2="0" y2="-36.54589695173189" stroke="black"/><line transform="translate(105,131.38686271634913)" x2="0" y2="-19.65822732144092" stroke="black"/><line transform="translate(45,127.29944624260195)" x2="0" y2="-18.777458753787954" stroke="black"/><line transform="translate(165,90.75160469175171)" x2="0" y2="-16.59580676952919" stroke="black"/><line transform="translate(135,114.0838759785018)" x2="0" y2="-39.80131116099598" stroke="black"/></g><g class="mark-rect role-mark concat_1_layer_1_layer_0_marks" role="graphics-object" aria-roledescription="rect mark container"><path aria-label="race: All; Percentage change (%): 0.152220472538; upper_box_Percentage change (%): 1.12452632717; Max of Percentage change (%): 4.37528785864; Q3 of Percentage change (%): 1.12452632717; Median of Percentage change (%): 0.34426451871; Q1 of Percentage change (%): 0.152220472538; Min of Percentage change (%): 0.00877576089826" role="graphics-symbol" aria-roledescription="box" d="M8,112.51578909436904h14v32.41019515436716h-14Z" fill="#4c78a8"/><path aria-label="race: Hisp.; Percentage change (%): 0.325510464283; upper_box_Percentage change (%): 1.52971812264; Max of Percentage change (%): 2.62609503119; Q3 of Percentage change (%): 1.52971812264; Median of Percentage change (%): 0.750613577893; Q1 of Percentage change (%): 0.325510464283; Min of Percentage change (%): 0.0784206613269" role="graphics-symbol" aria-roledescription="box" d="M68,99.00939591212949h14v40.140255278442936h-14Z" fill="#4c78a8"/><path aria-label="race: Black; Percentage change (%): 0.115480895628; upper_box_Percentage change (%): 0.55839411851; Max of Percentage change (%): 1.14814093815; Q3 of Percentage change (%): 0.55839411851; Median of Percentage change (%): 0.414939109589; Q1 of Percentage change (%): 0.115480895628; Min of Percentage change (%): 0.0295076739537" role="graphics-symbol" aria-roledescription="box" d="M98,131.38686271634913h14v14.763774096046859h-14Z" fill="#4c78a8"/><path aria-label="race: White; Percentage change (%): 0.263248017709; upper_box_Percentage change (%): 0.681016612722; Max of Percentage change (%): 1.24434037534; Q3 of Percentage change (%): 0.681016612722; Median of Percentage change (%): 0.607969878947; Q1 of Percentage change (%): 0.263248017709; Min of Percentage change (%): 0.173834197628" role="graphics-symbol" aria-roledescription="box" d="M38,127.29944624260195h14v13.925619833778526h-14Z" fill="#4c78a8"/><path aria-label="race: AIAN; Percentage change (%): 0.800643961219; upper_box_Percentage change (%): 1.77745185925; Max of Percentage change (%): 2.27532606233; Q3 of Percentage change (%): 1.77745185925; Median of Percentage change (%): 1.40778989123; Q1 of Percentage change (%): 0.800643961219; Min of Percentage change (%): 0.104113209992" role="graphics-symbol" aria-roledescription="box" d="M158,90.75160469175171h14v32.560263267629736h-14Z" fill="#4c78a8"/><path aria-label="race: API; Percentage change (%): 0.204925006513; upper_box_Percentage change (%): 1.07748372064; Max of Percentage change (%): 2.27152305547; Q3 of Percentage change (%): 1.07748372064; Median of Percentage change (%): 0.374563875561; Q1 of Percentage change (%): 0.204925006513; Min of Percentage change (%): 0.181075851726" role="graphics-symbol" aria-roledescription="box" d="M128,114.0838759785018h14v29.085290471056766h-14Z" fill="#4c78a8"/></g><g class="mark-rect role-mark concat_1_layer_1_layer_1_marks" aria-hidden="true"><path d="M8,138.02451604299821h14v1h-14Z" fill="white" opacity="0.7"/><path d="M68,124.47954740356477h14v1h-14Z" fill="white" opacity="0.7"/><path d="M98,135.66869634701712h14v1h-14Z" fill="white" opacity="0.7"/><path d="M38,129.23433736843882h14v1h-14Z" fill="white" opacity="0.7"/><path d="M158,102.57367029241166h14v1h-14Z" fill="white" opacity="0.7"/><path d="M128,137.01453748129288h14v1h-14Z" fill="white" opacity="0.7"/></g></g><path class="foreground" aria-hidden="true" d="" display="none"/></g></g><g class="mark-group role-scope concat_2_group" role="graphics-object" aria-roledescription="group mark container"><g transform="translate(356,0)"><path class="background" aria-hidden="true" d="M0.5,0.5h90v150h-90Z" stroke="#ddd"/><g><g class="mark-group role-axis" aria-hidden="true"><g transform="translate(0.5,0.5)"><path class="background" aria-hidden="true" d="M0,0h0v0h0Z" pointer-events="none"/><g><g class="mark-rule role-axis-grid" pointer-events="none"><line transform="translate(0,150)" x2="90" y2="0" stroke="#ddd" stroke-width="1" opacity="1"/><line transform="translate(0,117)" x2="90" y2="0" stroke="#ddd" stroke-width="1" opacity="1"/><line transform="translate(0,83)" x2="90" y2="0" stroke="#ddd" stroke-width="1" opacity="1"/><line transform="translate(0,50)" x2="90" y2="0" stroke="#ddd" stroke-width="1" opacity="1"/><line transform="translate(0,17)" x2="90" y2="0" stroke="#ddd" stroke-width="1" opacity="1"/></g></g><path class="foreground" aria-hidden="true" d="" pointer-events="none" display="none"/></g></g><g class="mark-group role-axis" role="graphics-symbol" aria-roledescription="axis" aria-label="X-axis titled 'County' for a discrete scale with 3 values: New Castle, Kent, Sussex"><g transform="translate(0.5,150.5)"><path class="background" aria-hidden="true" d="M0,0h0v0h0Z" pointer-events="none"/><g><g class="mark-rule role-axis-tick" pointer-events="none"><line transform="translate(15,0)" x2="0" y2="5" stroke="#888" stroke-width="1" opacity="1"/><line transform="translate(45,0)" x2="0" y2="5" stroke="#888" stroke-width="1" opacity="1"/><line transform="translate(75,0)" x2="0" y2="5" stroke="#888" stroke-width="1" opacity="1"/></g><g class="mark-text role-axis-label" pointer-events="none"><text text-anchor="end" transform="translate(14.5,7) rotate(270) translate(0,3)" font-family="sans-serif" font-size="10px" fill="#000" opacity="1">New Castle</text><text text-anchor="end" transform="translate(44.5,7) rotate(270) translate(0,3)" font-family="sans-serif" font-size="10px" fill="#000" opacity="1">Kent</text><text text-anchor="end" transform="translate(74.5,7) rotate(270) translate(0,3)" font-family="sans-serif" font-size="10px" fill="#000" opacity="1">Sussex</text></g><g class="mark-rule role-axis-domain" pointer-events="none"><line transform="translate(0,0)" x2="90" y2="0" stroke="#888" stroke-width="1" opacity="1"/></g><g class="mark-text role-axis-title" pointer-events="none"><text text-anchor="middle" transform="translate(45,71.1279296875)" font-family="sans-serif" font-size="11px" font-weight="bold" fill="#000" opacity="1">County</text></g></g><path class="foreground" aria-hidden="true" d="" pointer-events="none" display="none"/></g></g><g class="mark-group role-axis" role="graphics-symbol" aria-roledescription="axis" aria-label="Y-axis for a linear scale with values from 0 to 5"><g transform="translate(0.5,0.5)"><path class="background" aria-hidden="true" d="M0,0h0v0h0Z" pointer-events="none"/><g><g class="mark-rule role-axis-tick" pointer-events="none"><line transform="translate(0,150)" x2="-5" y2="0" stroke="#888" stroke-width="1" opacity="1"/><line transform="translate(0,117)" x2="-5" y2="0" stroke="#888" stroke-width="1" opacity="1"/><line transform="translate(0,83)" x2="-5" y2="0" stroke="#888" stroke-width="1" opacity="1"/><line transform="translate(0,50)" x2="-5" y2="0" stroke="#888" stroke-width="1" opacity="1"/><line transform="translate(0,17)" x2="-5" y2="0" stroke="#888" stroke-width="1" opacity="1"/></g><g class="mark-rule role-axis-domain" pointer-events="none"><line transform="translate(0,150)" x2="0" y2="-150" stroke="#888" stroke-width="1" opacity="1"/></g></g><path class="foreground" aria-hidden="true" d="" pointer-events="none" display="none"/></g></g><g class="mark-symbol role-mark concat_2_layer_0_layer_0_marks" role="graphics-object" aria-roledescription="symbol mark container"><path aria-label="county: Kent; Percentage change (%): 4.37528785864" role="graphics-symbol" aria-roledescription="point" transform="translate(45,4.1570713785889115)" d="M2.739,0A2.739,2.739,0,1,1,-2.739,0A2.739,2.739,0,1,1,2.739,0" stroke="#4c78a8" stroke-width="2" opacity="0.7"/><path aria-label="county: Kent; Percentage change (%): 1.87033719431" role="graphics-symbol" aria-roledescription="point" transform="translate(45,87.65542685641302)" d="M2.739,0A2.739,2.739,0,1,1,-2.739,0A2.739,2.739,0,1,1,2.739,0" stroke="#4c78a8" stroke-width="2" opacity="0.7"/><path aria-label="county: Kent; Percentage change (%): 1.74649008089" role="graphics-symbol" aria-roledescription="point" transform="translate(45,91.78366397019792)" d="M2.739,0A2.739,2.739,0,1,1,-2.739,0A2.739,2.739,0,1,1,2.739,0" stroke="#4c78a8" stroke-width="2" opacity="0.7"/><path aria-label="county: Kent; Percentage change (%): 1.71830147267" role="graphics-symbol" aria-roledescription="point" transform="translate(45,92.7232842443449)" d="M2.739,0A2.739,2.739,0,1,1,-2.739,0A2.739,2.739,0,1,1,2.739,0" stroke="#4c78a8" stroke-width="2" opacity="0.7"/><path aria-label="county: Sussex; Percentage change (%): 2.96886850504" role="graphics-symbol" aria-roledescription="point" transform="translate(75,51.037716498638744)" d="M2.739,0A2.739,2.739,0,1,1,-2.739,0A2.739,2.739,0,1,1,2.739,0" stroke="#4c78a8" stroke-width="2" opacity="0.7"/><path aria-label="county: Sussex; Percentage change (%): 2.62609503119" role="graphics-symbol" aria-roledescription="point" transform="translate(75,62.4634989603976)" d="M2.739,0A2.739,2.739,0,1,1,-2.739,0A2.739,2.739,0,1,1,2.739,0" stroke="#4c78a8" stroke-width="2" opacity="0.7"/></g><g class="mark-rule role-mark concat_2_layer_0_layer_1_layer_0_marks" aria-hidden="true"><line transform="translate(45,149.7074746367248)" x2="0" y2="-6.088329125702728" stroke="black"/><line transform="translate(15,147.41217465183055)" x2="0" y2="-8.543817051769452" stroke="black"/><line transform="translate(75,149.21541060214668)" x2="0" y2="-9.956228440866795" stroke="black"/></g><g class="mark-rule role-mark concat_2_layer_0_layer_1_layer_1_marks" aria-hidden="true"><line transform="translate(45,126.47763839132095)" x2="0" y2="-20.99469849892742" stroke="black"/><line transform="translate(15,106.55759078971795)" x2="0" y2="-39.696654332717884" stroke="black"/><line transform="translate(75,112.99535064651252)" x2="0" y2="-35.89101956264429" stroke="black"/></g><g class="mark-rect role-mark concat_2_layer_1_layer_0_marks" role="graphics-object" aria-roledescription="rect mark container"><path aria-label="county: Kent; Percentage change (%): 0.191425634669; upper_box_Percentage change (%): 0.70567084826; Max of Percentage change (%): 4.37528785864; Q3 of Percentage change (%): 0.70567084826; Median of Percentage change (%): 0.3379632864; Q1 of Percentage change (%): 0.191425634669; Min of Percentage change (%): 0.00877576089826" role="graphics-symbol" aria-roledescription="box" d="M38,126.47763839132095h14v17.14150711970113h-14Z" fill="#4c78a8"/><path aria-label="county: New Castle; Percentage change (%): 0.333949271998; upper_box_Percentage change (%): 1.30327227631; Max of Percentage change (%): 2.49417190629; Q3 of Percentage change (%): 1.30327227631; Median of Percentage change (%): 0.692800561728; Q1 of Percentage change (%): 0.333949271998; Min of Percentage change (%): 0.0776347604451" role="graphics-symbol" aria-roledescription="box" d="M8,106.55759078971795h14v32.310766810343154h-14Z" fill="#4c78a8"/><path aria-label="county: Sussex; Percentage change (%): 0.322224535162; upper_box_Percentage change (%): 1.1101394806; Max of Percentage change (%): 2.96886850504; Q3 of Percentage change (%): 1.1101394806; Median of Percentage change (%): 0.580346533039; Q1 of Percentage change (%): 0.322224535162; Min of Percentage change (%): 0.0235376819356" role="graphics-symbol" aria-roledescription="box" d="M68,112.99535064651252h14v26.26383151476736h-14Z" fill="#4c78a8"/></g><g class="mark-rect role-mark concat_2_layer_1_layer_1_marks" aria-hidden="true"><path d="M38,138.2345571199932h14v1h-14Z" fill="white" opacity="0.7"/><path d="M8,126.40664794239385h14v1h-14Z" fill="white" opacity="0.7"/><path d="M68,130.15511556535728h14v1h-14Z" fill="white" opacity="0.7"/></g></g><path class="foreground" aria-hidden="true" d="" display="none"/></g></g></g><path class="foreground" aria-hidden="true" d="" display="none"/></g></g></g></svg>