<svg xmlns="http://www.w3.org/2000/svg" xmlns:xlink="http://www.w3.org/1999/xlink" version="1.1" class="marks" width="419" height="375" viewBox="0 0 419 375"><rect width="419" height="375" fill="white"/><g fill="none" stroke-miterlimit="10" transform="translate(74,11)"><g class="mark-group role-frame root" role="graphics-object" aria-roledescription="group mark container"><g transform="translate(0,0)"><path class="background" aria-hidden="true" d="M0.5,0.5h300v300h-300Z" stroke="#ddd"/><g><g class="mark-group role-axis" aria-hidden="true"><g transform="translate(0.5,300.5)"><path class="background" aria-hidden="true" d="M0,0h0v0h0Z" pointer-events="none"/><g><g class="mark-rule role-axis-grid" pointer-events="none"><line transform="translate(16,-300)" x2="0" y2="300" stroke="#ddd" stroke-width="1" opacity="1"/><line transform="translate(46,-300)" x2="0" y2="300" stroke="#ddd" stroke-width="1" opacity="1"/><line transform="translate(76,-300)" x2="0" y2="300" stroke="#ddd" stroke-width="1" opacity="1"/><line transform="translate(106,-300)" x2="0" y2="300" stroke="#ddd" stroke-width="1" opacity="1"/><line transform="translate(136,-300)" x2="0" y2="300" stroke="#ddd" stroke-width="1" opacity="1"/><line transform="translate(166,-300)" x2="0" y2="300" stroke="#ddd" stroke-width="1" opacity="1"/><line transform="translate(197,-300)" x2="0" y2="300" stroke="#ddd" stroke-width="1" opacity="1"/><line transform="translate(227,-300)" x2="0" y2="300" stroke="#ddd" stroke-width="1" opacity="1"/><line transform="translate(257,-300)" x2="0" y2="300" stroke="#ddd" stroke-width="1" opacity="1"/><line transform="translate(287,-300)" x2="0" y2="300" stroke="#ddd" stroke-width="1" opacity="1"/></g></g><path class="foreground" aria-hidden="true" d="" pointer-events="none" display="none"/></g></g><g class="mark-group role-axis" aria-hidden="true"><g transform="translate(0.5,0.5)"><path class="background" aria-hidden="true" d="M0,0h0v0h0Z" pointer-events="none"/><g><g class="mark-rule role-axis-grid" pointer-events="none"><line transform="translate(0,284)" x2="300" y2="0" stroke="#ddd" stroke-width="1" opacity="1"/><line transform="translate(0,254)" x2="300" y2="0" stroke="#ddd" stroke-width="1" opacity="1"/><line transform="translate(0,224)" x2="300" y2="0" stroke="#ddd" stroke-width="1" opacity="1"/><line transform="translate(0,194)" x2="300" y2="0" stroke="#ddd" stroke-width="1" opacity="1"/><line transform="translate(0,164)" x2="300" y2="0" stroke="#ddd" stroke-width="1" opacity="1"/><line transform="translate(0,134)" x2="300" y2="0" stroke="#ddd" stroke-width="1" opacity="1"/><line transform="translate(0,103)" x2="300" y2="0" stroke="#ddd" stroke-width="1" opacity="1"/><line transform="translate(0,73)" x2="300" y2="0" stroke="#ddd" stroke-width="1" opacity="1"/><line transform="translate(0,43)" x2="300" y2="0" stroke="#ddd" stroke-width="1" opacity="1"/><line transform="translate(0,13)" x2="300" y2="0" stroke="#ddd" stroke-width="1" opacity="1"/></g></g><path class="foreground" aria-hidden="true" d="" pointer-events="none" display="none"/></g></g><g class="mark-group role-axis" role="graphics-symbol" aria-roledescription="axis" aria-label="X-axis titled 'Using all draws' for a linear scale with values from 1.9 to 2.9"><g transform="translate(0.5,300.5)"><path class="background" aria-hidden="true" d="M0,0h0v0h0Z" pointer-events="none"/><g><g class="mark-rule role-axis-tick" pointer-events="none"><line transform="translate(16,0)" x2="0" y2="5" stroke="#888" stroke-width="1" opacity="1"/><line transform="translate(46,0)" x2="0" y2="5" stroke="#888" stroke-width="1" opacity="1"/><line transform="translate(76,0)" x2="0" y2="5" stroke="#888" stroke-width="1" opacity="1"/><line transform="translate(106,0)" x2="0" y2="5" stroke="#888" stroke-width="1" opacity="1"/><line transform="translate(136,0)" x2="0" y2="5" stroke="#888" stroke-width="1" opacity="1"/><line transform="translate(166,0)" x2="0" y2="5" stroke="#888" stroke-width="1" opacity="1"/><line transform="translate(197,0)" x2="0" y2="5" stroke="#888" stroke-width="1" opacity="1"/><line transform="translate(227,0)" x2="0" y2="5" stroke="#888" stroke-width="1" opacity="1"/><line transform="translate(257,0)" x2="0" y2="5" stroke="#888" stroke-width="1" opacity="1"/><line transform="translate(287,0)" x2="0" y2="5" stroke="#888" stroke-width="1" opacity="1"/></g><g class="mark-text role-axis-label" pointer-events="none"><text text-anchor="middle" transform="translate(16.03932417419192,26)" font-family="sans-serif" font-size="24px" fill="#000" opacity="1">2.0</text><text text-anchor="middle" transform="translate(46.12597633726048,26)" font-family="sans-serif" font-size="24px" fill="#000" opacity="0">2.1</text><text text-anchor="middle" transform="translate(76.21262850032905,26)" font-family="sans-serif" font-size="24px" fill="#000" opacity="1">2.2</text><text text-anchor="middle" transform="translate(106.29928066339748,26)" font-family="sans-serif" font-size="24px" fill="#000" opacity="0">2.3</text><text text-anchor="middle" transform="translate(136.38593282646605,26)" font-family="sans-serif" font-size="24px" fill="#000" opacity="1">2.4</text><text text-anchor="middle" transform="translate(166.47258498953462,26)" font-family="sans-serif" font-size="24px" fill="#000" opacity="0">2.5</text><text text-anchor="middle" transform="translate(196.55923715260317,26)" font-family="sans-serif" font-size="24px" fill="#000" opacity="1">2.6</text><text text-anchor="middle" transform="translate(226.64588931567172,26)" font-family="sans-serif" font-size="24px" fill="#000" opacity="0">2.7</text><text text-anchor="middle" transform="translate(256.7325414787402,26)" font-family="sans-serif" font-size="24px" fill="#000" opacity="1">2.8</text><text text-anchor="middle" transform="translate(286.81919364180874,26)" font-family="sans-serif" font-size="24px" fill="#000" opacity="0">2.9</text></g><g class="mark-rule role-axis-domain" pointer-events="none"><line transform="translate(0,0)" x2="300" y2="0" stroke="#888" stroke-width="1" opacity="1"/></g><g class="mark-text role-axis-title" pointer-events="none"><text text-anchor="middle" transform="translate(150,54)" font-family="sans-serif" font-size="24px" font-weight="bold" fill="#000" opacity="1">Using all draws</text></g></g><path class="foreground" aria-hidden="true" d="" pointer-events="none" display="none"/></g></g><g class="mark-group role-axis" role="graphics-symbol" aria-roledescription="axis" aria-label="Y-axis titled 'Using the mean' for a linear scale with values from 1.9 to 2.9"><g transform="translate(0.5,0.5)"><path class="background" aria-hidden="true" d="M0,0h0v0h0Z" pointer-events="none"/><g><g class="mark-rule role-axis-tick" pointer-events="none"><line transform="translate(0,284)" x2="-5" y2="0" stroke="#888" stroke-width="1" opacity="1"/><line transform="translate(0,254)" x2="-5" y2="0" stroke="#888" stroke-width="1" opacity="1"/><line transform="translate(0,224)" x2="-5" y2="0" stroke="#888" stroke-width="1" opacity="1"/><line transform="translate(0,194)" x2="-5" y2="0" stroke="#888" stroke-width="1" opacity="1"/><line transform="translate(0,164)" x2="-5" y2="0" stroke="#888" stroke-width="1" opacity="1"/><line transform="translate(0,134)" x2="-5" y2="0" stroke="#888" stroke-width="1" opacity="1"/><line transform="translate(0,103)" x2="-5" y2="0" stroke="#888" stroke-width="1" opacity="1"/><line transform="translate(0,73)" x2="-5" y2="0" stroke="#888" stroke-width="1" opacity="1"/><line transform="translate(0,43)" x2="-5" y2="0" stroke="#888" stroke-width="1" opacity="1"/><line transform="translate(0,13)" x2="-5" y2="0" stroke="#888" stroke-width="1" opacity="1"/></g><g class="mark-text role-axis-label" pointer-events="none"><text text-anchor="end" transform="translate(-7,290.9606758258081)" font-family="sans-serif" font-size="24px" fill="#000" opacity="1">2.0</text><text text-anchor="end" transform="translate(-7,260.87402366273955)" font-family="sans-serif" font-size="24px" fill="#000" opacity="1">2.1</text><text text-anchor="end" transform="translate(-7,230.78737149967094)" font-family="sans-serif" font-size="24px" fill="#000" opacity="1">2.2</text><text text-anchor="end" transform="translate(-7,200.70071933660253)" font-family="sans-serif" font-size="24px" fill="#000" opacity="1">2.3</text><text text-anchor="end" transform="translate(-7,170.61406717353395)" font-family="sans-serif" font-size="24px" fill="#000" opacity="1">2.4</text><text text-anchor="end" transform="translate(-7,140.52741501046538)" font-family="sans-serif" font-size="24px" fill="#000" opacity="1">2.5</text><text text-anchor="end" transform="translate(-7,110.44076284739681)" font-family="sans-serif" font-size="24px" fill="#000" opacity="1">2.6</text><text text-anchor="end" transform="translate(-7,80.35411068432828)" font-family="sans-serif" font-size="24px" fill="#000" opacity="1">2.7</text><text text-anchor="end" transform="translate(-7,50.26745852125984)" font-family="sans-serif" font-size="24px" fill="#000" opacity="1">2.8</text><text text-anchor="end" transform="translate(-7,20.180806358191266)" font-family="sans-serif" font-size="24px" fill="#000" opacity="1">2.9</text></g><g class="mark-rule role-axis-domain" pointer-events="none"><line transform="translate(0,300)" x2="0" y2="-300" stroke="#888" stroke-width="1" opacity="1"/></g><g class="mark-text role-axis-title" pointer-events="none"><text text-anchor="middle" transform="translate(-44.36328125,150) rotate(-90) translate(0,-5)" font-family="sans-serif" font-size="24px" font-weight="bold" fill="#000" opacity="1">Using the mean</text></g></g><path class="foreground" aria-hidden="true" d="" pointer-events="none" display="none"/></g></g><g class="mark-symbol role-mark marks" role="graphics-object" aria-roledescription="symbol mark container"><path aria-label="all_draws: 2.59328045326; mean: 2.59300672984; X1: 1; X2: 1" role="graphics-symbol" aria-roledescription="point" transform="translate(194.5375504970494,105.5448037159421)" d="M3.873,0A3.873,3.873,0,1,1,-3.873,0A3.873,3.873,0,1,1,3.873,0" stroke="#4c78a8" stroke-width="2" opacity="0.7"/><path aria-label="all_draws: 2.92116439648; mean: 2.92316318816; X1: 2; X2: 2" role="graphics-symbol" aria-roledescription="point" transform="translate(293.1868519923633,6.211778506340082)" d="M-3.873,-3.873h7.746v7.746h-7.746Z" stroke="#f58518" stroke-width="2" opacity="0.7"/><path aria-label="all_draws: 2.85112596899; mean: 2.84940090072; X1: 3; X2: 3" role="graphics-symbol" aria-roledescription="point" transform="translate(272.1146339327148,28.4043813555899)" d="M0,-3.354L-3.873,3.354L3.873,3.354Z" stroke="#e45756" stroke-width="2" opacity="0.7"/><path aria-label="all_draws: 2.2508346259; mean: 2.24873932399; X1: 1; X2: 4" role="graphics-symbol" aria-roledescription="point" transform="translate(91.50706557348109,209.12334062337564)" d="M-3.873,-1.549L-3.873,1.549L-1.549,1.549L-1.549,3.873L1.549,3.873L1.549,1.549L3.873,1.549L3.873,-1.549L1.549,-1.549L1.549,-3.873L-1.549,-3.873L-1.549,-1.549Z" stroke="#4c78a8" stroke-width="2" opacity="0.7"/><path aria-label="all_draws: 2.66991947062; mean: 2.66972140395; X1: 2; X2: 5" role="graphics-symbol" aria-roledescription="point" transform="translate(217.59566507237642,82.46392655632167)" d="M-3.873,0L0,-3.873L3.873,0L0,3.873Z" stroke="#f58518" stroke-width="2" opacity="0.7"/><path aria-label="all_draws: 1.95840689318; mean: 1.96070026175; X1: 3; X2: 1" role="graphics-symbol" aria-roledescription="point" transform="translate(3.525350801509064,295.7846513729366)" d="M3.873,0A3.873,3.873,0,1,1,-3.873,0A3.873,3.873,0,1,1,3.873,0" stroke="#e45756" stroke-width="2" opacity="0.7"/><path aria-label="all_draws: 2.11813024534; mean: 2.12090748892; X1: 1; X2: 2" role="graphics-symbol" aria-roledescription="point" transform="translate(51.580760188470116,247.58366019563928)" d="M-3.873,-3.873h7.746v7.746h-7.746Z" stroke="#4c78a8" stroke-width="2" opacity="0.7"/><path aria-label="all_draws: 2.63192257118; mean: 2.63326714142; X1: 2; X2: 3" role="graphics-symbol" aria-roledescription="point" transform="translate(206.16367010483182,93.43179372321909)" d="M0,-3.354L-3.873,3.354L3.873,3.354Z" stroke="#f58518" stroke-width="2" opacity="0.7"/><path aria-label="all_draws: 2.87782154499; mean: 2.87369973117; X1: 3; X2: 4" role="graphics-symbol" aria-roledescription="point" transform="translate(280.14643902788566,21.093676759952572)" d="M-3.873,-1.549L-3.873,1.549L-1.549,1.549L-1.549,3.873L1.549,3.873L1.549,1.549L3.873,1.549L3.873,-1.549L1.549,-1.549L1.549,-3.873L-1.549,-3.873L-1.549,-1.549Z" stroke="#e45756" stroke-width="2" opacity="0.7"/><path aria-label="all_draws: 2.08496590617; mean: 2.08519747458; X1: 1; X2: 5" role="graphics-symbol" aria-roledescription="point" transform="translate(41.602720819534554,258.3276079957224)" d="M-3.873,0L0,-3.873L3.873,0L0,3.873Z" stroke="#4c78a8" stroke-width="2" opacity="0.7"/><path aria-label="all_draws: 2.56208272791; mean: 2.5576241141; X1: 2; X2: 1" role="graphics-symbol" aria-roledescription="point" transform="translate(185.15119938812163,116.19024824048323)" d="M3.873,0A3.873,3.873,0,1,1,-3.873,0A3.873,3.873,0,1,1,3.873,0" stroke="#f58518" stroke-width="2" opacity="0.7"/><path aria-label="all_draws: 1.94668956823; mean: 1.95091661362; X1: 3; X2: 2" role="graphics-symbol" aria-roledescription="point" transform="translate(0,298.7282235561374)" d="M-3.873,-3.873h7.746v7.746h-7.746Z" stroke="#e45756" stroke-width="2" opacity="0.7"/><path aria-label="all_draws: 2.73030856909; mean: 2.72966878242; X1: 1; X2: 3" role="graphics-symbol" aria-roledescription="point" transform="translate(235.76472307297604,64.42776731780991)" d="M0,-3.354L-3.873,3.354L3.873,3.354Z" stroke="#4c78a8" stroke-width="2" opacity="0.7"/><path aria-label="all_draws: 2.9424961631; mean: 2.94380948165; X1: 2; X2: 4" role="graphics-symbol" aria-roledescription="point" transform="translate(299.60486641594224,0)" d="M-3.873,-1.549L-3.873,1.549L-1.549,1.549L-1.549,3.873L1.549,3.873L1.549,1.549L3.873,1.549L3.873,-1.549L1.549,-1.549L1.549,-3.873L-1.549,-3.873L-1.549,-1.549Z" stroke="#f58518" stroke-width="2" opacity="0.7"/><path aria-label="all_draws: 2.80519337723; mean: 2.80451984535; X1: 3; X2: 5" role="graphics-symbol" aria-roledescription="point" transform="translate(258.2950548216614,41.90758837161036)" d="M-3.873,0L0,-3.873L3.873,0L0,3.873Z" stroke="#e45756" stroke-width="2" opacity="0.7"/></g><g class="mark-group role-legend" role="graphics-symbol" aria-roledescription="legend" aria-label="Symbol legend titled 'X1' for stroke color with 3 values: 1, 2, 3"><g transform="translate(318,0)"><path class="background" aria-hidden="true" d="M0,0h22v61h-22Z" pointer-events="none"/><g><g class="mark-group role-legend-entry"><g transform="translate(0,16)"><path class="background" aria-hidden="true" d="M0,0h0v0h0Z" pointer-events="none"/><g><g class="mark-group role-scope" role="graphics-object" aria-roledescription="group mark container"><g transform="translate(0,0)"><path class="background" aria-hidden="true" d="M0,0h21.5615234375v12.5h-21.5615234375Z" pointer-events="none" opacity="1"/><g><g class="mark-symbol role-legend-symbol" pointer-events="none"><path transform="translate(6,6)" d="M5,0A5,5,0,1,1,-5,0A5,5,0,1,1,5,0" stroke="#4c78a8" stroke-width="1.5" opacity="0.7"/></g><g class="mark-text role-legend-label" pointer-events="none"><text text-anchor="start" transform="translate(16,9)" font-family="sans-serif" font-size="10px" fill="#000" opacity="1">1</text></g></g><path class="foreground" aria-hidden="true" d="" pointer-events="none" display="none"/></g><g transform="translate(0,16)"><path class="background" aria-hidden="true" d="M0,0h21.5615234375v12.5h-21.5615234375Z" pointer-events="none" opacity="1"/><g><g class="mark-symbol role-legend-symbol" pointer-events="none"><path transform="translate(6,6)" d="M5,0A5,5,0,1,1,-5,0A5,5,0,1,1,5,0" stroke="#f58518" stroke-width="1.5" opacity="0.7"/></g><g class="mark-text role-legend-label" pointer-events="none"><text text-anchor="start" transform="translate(16,9)" font-family="sans-serif" font-size="10px" fill="#000" opacity="1">2</text></g></g><path class="foreground" aria-hidden="true" d="" pointer-events="none" display="none"/></g><g transform="translate(0,32)"><path class="background" aria-hidden="true" d="M0,0h21.5615234375v12.5h-21.5615234375Z" pointer-events="none" opacity="1"/><g><g class="mark-symbol role-legend-symbol" pointer-events="none"><path transform="translate(6,6)" d="M5,0A5,5,0,1,1,-5,0A5,5,0,1,1,5,0" stroke="#e45756" stroke-width="1.5" opacity="0.7"/></g><g class="mark-text role-legend-label" pointer-events="none"><text text-anchor="start" transform="translate(16,9)" font-family="sans-serif" font-size="10px" fill="#000" opacity="1">3</text></g></g><path class="foreground" aria-hidden="true" d="" pointer-events="none" display="none"/></g></g></g><path class="foreground" aria-hidden="true" d="" pointer-events="none" display="none"/></g></g><g class="mark-text role-legend-title" pointer-events="none"><text text-anchor="start" transform="translate(0,9)" font-family="sans-serif" font-size="11px" font-weight="bold" fill="#000" opacity="1">X1</text></g></g><path class="foreground" aria-hidden="true" d="" pointer-events="none" display="none"/></g></g><g class="mark-group role-legend" role="graphics-symbol" aria-roledescription="legend" aria-label="Symbol legend titled 'X2' for shape with 5 values: 1, 2, 3, 4, 5"><g transform="translate(318,69)"><path class="background" aria-hidden="true" d="M0,0h22v91h-22Z" pointer-events="none"/><g><g class="mark-group role-legend-entry"><g transform="translate(0,16)"><path class="background" aria-hidden="true" d="M0,0h0v0h0Z" pointer-events="none"/><g><g class="mark-group role-scope" role="graphics-object" aria-roledescription="group mark container"><g transform="translate(0,0)"><path class="background" aria-hidden="true" d="M0,0h21.5615234375v12.5h-21.5615234375Z" pointer-events="none" opacity="1"/><g><g class="mark-symbol role-legend-symbol" pointer-events="none"><path transform="translate(6,6)" d="M5,0A5,5,0,1,1,-5,0A5,5,0,1,1,5,0" stroke="#888" stroke-width="1.5" opacity="0.7"/></g><g class="mark-text role-legend-label" pointer-events="none"><text text-anchor="start" transform="translate(16,9)" font-family="sans-serif" font-size="10px" fill="#000" opacity="1">1</text></g></g><path class="foreground" aria-hidden="true" d="" pointer-events="none" display="none"/></g><g transform="translate(0,16)"><path class="background" aria-hidden="true" d="M0,0h21.5615234375v12.5h-21.5615234375Z" pointer-events="none" opacity="1"/><g><g class="mark-symbol role-legend-symbol" pointer-events="none"><path transform="translate(6,6)" d="M-5,-5h10v10h-10Z" stroke="#888" stroke-width="1.5" opacity="0.7"/></g><g class="mark-text role-legend-label" pointer-events="none"><text text-anchor="start" transform="translate(16,9)" font-family="sans-serif" font-size="10px" fill="#000" opacity="1">2</text></g></g><path class="foreground" aria-hidden="true" d="" pointer-events="none" display="none"/></g><g transform="translate(0,31)"><path class="background" aria-hidden="true" d="M0,0h21.5615234375v11.830127018922191h-21.5615234375Z" pointer-events="none" opacity="1"/><g><g class="mark-symbol role-legend-symbol" pointer-events="none"><path transform="translate(6,6)" d="M0,-4.33L-5,4.33L5,4.33Z" stroke="#888" stroke-width="1.5" opacity="0.7"/></g><g class="mark-text role-legend-label" pointer-events="none"><text text-anchor="start" transform="translate(16,9)" font-family="sans-serif" font-size="10px" fill="#000" opacity="1">3</text></g></g><path class="foreground" aria-hidden="true" d="" pointer-events="none" display="none"/></g><g transform="translate(0,46)"><path class="background" aria-hidden="true" d="M0,0h21.5615234375v12.5h-21.5615234375Z" pointer-events="none" opacity="1"/><g><g class="mark-symbol role-legend-symbol" pointer-events="none"><path transform="translate(6,6)" d="M-5,-2L-5,2L-2,2L-2,5L2,5L2,2L5,2L5,-2L2,-2L2,-5L-2,-5L-2,-2Z" stroke="#888" stroke-width="1.5" opacity="0.7"/></g><g class="mark-text role-legend-label" pointer-events="none"><text text-anchor="start" transform="translate(16,9)" font-family="sans-serif" font-size="10px" fill="#000" opacity="1">4</text></g></g><path class="foreground" aria-hidden="true" d="" pointer-events="none" display="none"/></g><g transform="translate(0,62)"><path class="background" aria-hidden="true" d="M0,0h21.5615234375v12.5h-21.5615234375Z" pointer-events="none" opacity="1"/><g><g class="mark-symbol role-legend-symbol" pointer-events="none"><path transform="translate(6,6)" d="M-5,0L0,-5L5,0L0,5Z" stroke="#888" stroke-width="1.5" opacity="0.7"/></g><g class="mark-text role-legend-label" pointer-events="none"><text text-anchor="start" transform="translate(16,9)" font-family="sans-serif" font-size="10px" fill="#000" opacity="1">5</text></g></g><path class="foreground" aria-hidden="true" d="" pointer-events="none" display="none"/></g></g></g><path class="foreground" aria-hidden="true" d="" pointer-events="none" display="none"/></g></g><g class="mark-text role-legend-title" pointer-events="none"><text text-anchor="start" transform="translate(0,9)" font-family="sans-serif" font-size="11px" font-weight="bold" fill="#000" opacity="1">X2</text></g></g><path class="foreground" aria-hidden="true" d="" pointer-events="none" display="none"/></g></g></g><path class="foreground" aria-hidden="true" d="" display="none"/></g></g></g></svg>