<svg xmlns="http://www.w3.org/2000/svg" xmlns:xlink="http://www.w3.org/1999/xlink" version="1.1" class="marks" width="1353" height="249" viewBox="0 0 1353 249"><rect width="1353" height="249" fill="white"/><g fill="none" stroke-miterlimit="10" transform="translate(55,84)"><g class="mark-group role-frame root" role="graphics-object" aria-roledescription="group mark container"><g transform="translate(0,0)"><path class="background" aria-hidden="true" d="M0,0h0v0h0Z"/><g><g class="mark-group role-column-title column-title" role="graphics-object" aria-roledescription="group mark container"><g transform="translate(646,-45)"><path class="background" aria-hidden="true" d="M0,0h0v0h0Z"/><g><g class="mark-group role-title"><g transform="translate(0,-34)"><path class="background" aria-hidden="true" d="M0,0h0v0h0Z" pointer-events="none"/><g><g class="mark-text role-title-text" role="graphics-symbol" aria-roledescription="title" aria-label="Title text 'X1'" pointer-events="none"><text text-anchor="middle" transform="translate(0,19)" font-family="sans-serif" font-size="24px" font-weight="bold" fill="#000" opacity="1">X1</text></g></g><path class="foreground" aria-hidden="true" d="" pointer-events="none" display="none"/></g></g></g><path class="foreground" aria-hidden="true" d="" display="none"/></g></g><g class="mark-group role-row-header row_header" role="graphics-object" aria-roledescription="group mark container"><g transform="translate(-1,0)"><path class="background" aria-hidden="true" d="M0,0h0v100h0Z"/><g><g class="mark-group role-axis" role="graphics-symbol" aria-roledescription="axis" aria-label="Y-axis titled 'X2' for a discrete scale with 5 values: 1, 2, 3, 4, 5"><g transform="translate(0.5,0.5)"><path class="background" aria-hidden="true" d="M0,0h0v0h0Z" pointer-events="none"/><g><g class="mark-rule role-axis-tick" pointer-events="none"><line transform="translate(0,10)" x2="-5" y2="0" stroke="#888" stroke-width="1" opacity="1"/><line transform="translate(0,30)" x2="-5" y2="0" stroke="#888" stroke-width="1" opacity="1"/><line transform="translate(0,50)" x2="-5" y2="0" stroke="#888" stroke-width="1" opacity="1"/><line transform="translate(0,70)" x2="-5" y2="0" stroke="#888" stroke-width="1" opacity="1"/><line transform="translate(0,90)" x2="-5" y2="0" stroke="#888" stroke-width="1" opacity="1"/></g><g class="mark-text role-axis-label" pointer-events="none"><text text-anchor="end" transform="translate(-7,16.5)" font-family="sans-serif" font-size="24px" fill="#000" opacity="1">1</text><text text-anchor="end" transform="translate(-7,36.5)" font-family="sans-serif" font-size="24px" fill="#000" opacity="1">2</text><text text-anchor="end" transform="translate(-7,56.5)" font-family="sans-serif" font-size="24px" fill="#000" opacity="1">3</text><text text-anchor="end" transform="translate(-7,76.5)" font-family="sans-serif" font-size="24px" fill="#000" opacity="1">4</text><text text-anchor="end" transform="translate(-7,96.5)" font-family="sans-serif" font-size="24px" fill="#000" opacity="1">5</text></g><g class="mark-rule role-axis-domain" pointer-events="none"><line transform="translate(0,0)" x2="0" y2="100" stroke="#888" stroke-width="1" opacity="1"/></g><g class="mark-text role-axis-title" pointer-events="none"><text text-anchor="middle" transform="translate(-24.34765625,50) rotate(-90) translate(0,-5)" font-family="sans-serif" font-size="24px" font-weight="bold" fill="#000" opacity="1">X2</text></g></g><path class="foreground" aria-hidden="true" d="" pointer-events="none" display="none"/></g></g></g><path class="foreground" aria-hidden="true" d="" display="none"/></g></g><g class="mark-group role-column-header column_header" role="graphics-object" aria-roledescription="group mark container"><g transform="translate(0,-1)"><path class="background" aria-hidden="true" d="M0,0h300v0h-300Z"/><g><g class="mark-group role-title"><g transform="translate(150,-34)"><path class="background" aria-hidden="true" d="M0,0h0v0h0Z" pointer-events="none"/><g><g class="mark-text role-title-text" role="graphics-symbol" aria-roledescription="title" aria-label="Title text '1'" pointer-events="none"><text text-anchor="middle" transform="translate(0,19)" font-family="sans-serif" font-size="24px" fill="#000" opacity="1">1</text></g></g><path class="foreground" aria-hidden="true" d="" pointer-events="none" display="none"/></g></g></g><path class="foreground" aria-hidden="true" d="" display="none"/></g><g transform="translate(438,-1)"><path class="background" aria-hidden="true" d="M0,0h300v0h-300Z"/><g><g class="mark-group role-title"><g transform="translate(150,-34)"><path class="background" aria-hidden="true" d="M0,0h0v0h0Z" pointer-events="none"/><g><g class="mark-text role-title-text" role="graphics-symbol" aria-roledescription="title" aria-label="Title text '2'" pointer-events="none"><text text-anchor="middle" transform="translate(0,19)" font-family="sans-serif" font-size="24px" fill="#000" opacity="1">2</text></g></g><path class="foreground" aria-hidden="true" d="" pointer-events="none" display="none"/></g></g></g><path class="foreground" aria-hidden="true" d="" display="none"/></g><g transform="translate(876,-1)"><path class="background" aria-hidden="true" d="M0,0h300v0h-300Z"/><g><g class="mark-group role-title"><g transform="translate(150,-34)"><path class="background" aria-hidden="true" d="M0,0h0v0h0Z" pointer-events="none"/><g><g class="mark-text role-title-text" role="graphics-symbol" aria-roledescription="title" aria-label="Title text '3'" pointer-events="none"><text text-anchor="middle" transform="translate(0,19)" font-family="sans-serif" font-size="24px" fill="#000" opacity="1">3</text></g></g><path class="foreground" aria-hidden="true" d="" pointer-events="none" display="none"/></g></g></g><path class="foreground" aria-hidden="true" d="" display="none"/></g></g><g class="mark-group role-column-footer column_footer" role="graphics-object" aria-roledescription="group mark container"><g transform="translate(0,101)"><path class="background" aria-hidden="true" d="M0,0h300v0h-300Z"/><g><g class="mark-group role-axis" role="graphics-symbol" aria-roledescription="axis" aria-label="X-axis titled 'Raked value' for a linear scale with values from 1.6 to 3.2"><g transform="translate(0.5,0.5)"><path class="background" aria-hidden="true" d="M0,0h0v0h0Z" pointer-events="none"/><g><g class="mark-rule role-axis-tick" pointer-events="none"><line transform="translate(0,0)" x2="0" y2="5" stroke="#888" stroke-width="1" opacity="1"/><line transform="translate(37,0)" x2="0" y2="5" stroke="#888" stroke-width="1" opacity="1"/><line transform="translate(75,0)" x2="0" y2="5" stroke="#888" stroke-width="1" opacity="1"/><line transform="translate(113,0)" x2="0" y2="5" stroke="#888" stroke-width="1" opacity="1"/><line transform="translate(150,0)" x2="0" y2="5" stroke="#888" stroke-width="1" opacity="1"/><line transform="translate(188,0)" x2="0" y2="5" stroke="#888" stroke-width="1" opacity="1"/><line transform="translate(225,0)" x2="0" y2="5" stroke="#888" stroke-width="1" opacity="1"/><line transform="translate(262,0)" x2="0" y2="5" stroke="#888" stroke-width="1" opacity="1"/><line transform="translate(300,0)" x2="0" y2="5" stroke="#888" stroke-width="1" opacity="1"/></g><g class="mark-text role-axis-label" pointer-events="none"><text text-anchor="start" transform="translate(0,26)" font-family="sans-serif" font-size="24px" fill="#000" opacity="1">1.6</text><text text-anchor="middle" transform="translate(37.49999999999999,26)" font-family="sans-serif" font-size="24px" fill="#000" opacity="0">1.8</text><text text-anchor="middle" transform="translate(74.99999999999999,26)" font-family="sans-serif" font-size="24px" fill="#000" opacity="1">2.0</text><text text-anchor="middle" transform="translate(112.50000000000001,26)" font-family="sans-serif" font-size="24px" fill="#000" opacity="0">2.2</text><text text-anchor="middle" transform="translate(149.99999999999997,26)" font-family="sans-serif" font-size="24px" fill="#000" opacity="1">2.4</text><text text-anchor="middle" transform="translate(187.5,26)" font-family="sans-serif" font-size="24px" fill="#000" opacity="0">2.6</text><text text-anchor="middle" transform="translate(224.99999999999994,26)" font-family="sans-serif" font-size="24px" fill="#000" opacity="1">2.8</text><text text-anchor="middle" transform="translate(262.49999999999994,26)" font-family="sans-serif" font-size="24px" fill="#000" opacity="0">3.0</text><text text-anchor="end" transform="translate(300,26)" font-family="sans-serif" font-size="24px" fill="#000" opacity="1">3.2</text></g><g class="mark-rule role-axis-domain" pointer-events="none"><line transform="translate(0,0)" x2="300" y2="0" stroke="#888" stroke-width="1" opacity="1"/></g><g class="mark-text role-axis-title" pointer-events="none"><text text-anchor="middle" transform="translate(150,54)" font-family="sans-serif" font-size="24px" font-weight="bold" fill="#000" opacity="1">Raked value</text></g></g><path class="foreground" aria-hidden="true" d="" pointer-events="none" display="none"/></g></g></g><path class="foreground" aria-hidden="true" d="" display="none"/></g><g transform="translate(438,101)"><path class="background" aria-hidden="true" d="M0,0h300v0h-300Z"/><g><g class="mark-group role-axis" role="graphics-symbol" aria-roledescription="axis" aria-label="X-axis titled 'Raked value' for a linear scale with values from 1.6 to 3.2"><g transform="translate(0.5,0.5)"><path class="background" aria-hidden="true" d="M0,0h0v0h0Z" pointer-events="none"/><g><g class="mark-rule role-axis-tick" pointer-events="none"><line transform="translate(0,0)" x2="0" y2="5" stroke="#888" stroke-width="1" opacity="1"/><line transform="translate(37,0)" x2="0" y2="5" stroke="#888" stroke-width="1" opacity="1"/><line transform="translate(75,0)" x2="0" y2="5" stroke="#888" stroke-width="1" opacity="1"/><line transform="translate(113,0)" x2="0" y2="5" stroke="#888" stroke-width="1" opacity="1"/><line transform="translate(150,0)" x2="0" y2="5" stroke="#888" stroke-width="1" opacity="1"/><line transform="translate(188,0)" x2="0" y2="5" stroke="#888" stroke-width="1" opacity="1"/><line transform="translate(225,0)" x2="0" y2="5" stroke="#888" stroke-width="1" opacity="1"/><line transform="translate(262,0)" x2="0" y2="5" stroke="#888" stroke-width="1" opacity="1"/><line transform="translate(300,0)" x2="0" y2="5" stroke="#888" stroke-width="1" opacity="1"/></g><g class="mark-text role-axis-label" pointer-events="none"><text text-anchor="start" transform="translate(0,26)" font-family="sans-serif" font-size="24px" fill="#000" opacity="1">1.6</text><text text-anchor="middle" transform="translate(37.49999999999999,26)" font-family="sans-serif" font-size="24px" fill="#000" opacity="0">1.8</text><text text-anchor="middle" transform="translate(74.99999999999999,26)" font-family="sans-serif" font-size="24px" fill="#000" opacity="1">2.0</text><text text-anchor="middle" transform="translate(112.50000000000001,26)" font-family="sans-serif" font-size="24px" fill="#000" opacity="0">2.2</text><text text-anchor="middle" transform="translate(149.99999999999997,26)" font-family="sans-serif" font-size="24px" fill="#000" opacity="1">2.4</text><text text-anchor="middle" transform="translate(187.5,26)" font-family="sans-serif" font-size="24px" fill="#000" opacity="0">2.6</text><text text-anchor="middle" transform="translate(224.99999999999994,26)" font-family="sans-serif" font-size="24px" fill="#000" opacity="1">2.8</text><text text-anchor="middle" transform="translate(262.49999999999994,26)" font-family="sans-serif" font-size="24px" fill="#000" opacity="0">3.0</text><text text-anchor="end" transform="translate(300,26)" font-family="sans-serif" font-size="24px" fill="#000" opacity="1">3.2</text></g><g class="mark-rule role-axis-domain" pointer-events="none"><line transform="translate(0,0)" x2="300" y2="0" stroke="#888" stroke-width="1" opacity="1"/></g><g class="mark-text role-axis-title" pointer-events="none"><text text-anchor="middle" transform="translate(150,54)" font-family="sans-serif" font-size="24px" font-weight="bold" fill="#000" opacity="1">Raked value</text></g></g><path class="foreground" aria-hidden="true" d="" pointer-events="none" display="none"/></g></g></g><path class="foreground" aria-hidden="true" d="" display="none"/></g><g transform="translate(876,101)"><path class="background" aria-hidden="true" d="M0,0h300v0h-300Z"/><g><g class="mark-group role-axis" role="graphics-symbol" aria-roledescription="axis" aria-label="X-axis titled 'Raked value' for a linear scale with values from 1.6 to 3.2"><g transform="translate(0.5,0.5)"><path class="background" aria-hidden="true" d="M0,0h0v0h0Z" pointer-events="none"/><g><g class="mark-rule role-axis-tick" pointer-events="none"><line transform="translate(0,0)" x2="0" y2="5" stroke="#888" stroke-width="1" opacity="1"/><line transform="translate(37,0)" x2="0" y2="5" stroke="#888" stroke-width="1" opacity="1"/><line transform="translate(75,0)" x2="0" y2="5" stroke="#888" stroke-width="1" opacity="1"/><line transform="translate(113,0)" x2="0" y2="5" stroke="#888" stroke-width="1" opacity="1"/><line transform="translate(150,0)" x2="0" y2="5" stroke="#888" stroke-width="1" opacity="1"/><line transform="translate(188,0)" x2="0" y2="5" stroke="#888" stroke-width="1" opacity="1"/><line transform="translate(225,0)" x2="0" y2="5" stroke="#888" stroke-width="1" opacity="1"/><line transform="translate(262,0)" x2="0" y2="5" stroke="#888" stroke-width="1" opacity="1"/><line transform="translate(300,0)" x2="0" y2="5" stroke="#888" stroke-width="1" opacity="1"/></g><g class="mark-text role-axis-label" pointer-events="none"><text text-anchor="start" transform="translate(0,26)" font-family="sans-serif" font-size="24px" fill="#000" opacity="1">1.6</text><text text-anchor="middle" transform="translate(37.49999999999999,26)" font-family="sans-serif" font-size="24px" fill="#000" opacity="0">1.8</text><text text-anchor="middle" transform="translate(74.99999999999999,26)" font-family="sans-serif" font-size="24px" fill="#000" opacity="1">2.0</text><text text-anchor="middle" transform="translate(112.50000000000001,26)" font-family="sans-serif" font-size="24px" fill="#000" opacity="0">2.2</text><text text-anchor="middle" transform="translate(149.99999999999997,26)" font-family="sans-serif" font-size="24px" fill="#000" opacity="1">2.4</text><text text-anchor="middle" transform="translate(187.5,26)" font-family="sans-serif" font-size="24px" fill="#000" opacity="0">2.6</text><text text-anchor="middle" transform="translate(224.99999999999994,26)" font-family="sans-serif" font-size="24px" fill="#000" opacity="1">2.8</text><text text-anchor="middle" transform="translate(262.49999999999994,26)" font-family="sans-serif" font-size="24px" fill="#000" opacity="0">3.0</text><text text-anchor="end" transform="translate(300,26)" font-family="sans-serif" font-size="24px" fill="#000" opacity="1">3.2</text></g><g class="mark-rule role-axis-domain" pointer-events="none"><line transform="translate(0,0)" x2="300" y2="0" stroke="#888" stroke-width="1" opacity="1"/></g><g class="mark-text role-axis-title" pointer-events="none"><text text-anchor="middle" transform="translate(150,54)" font-family="sans-serif" font-size="24px" font-weight="bold" fill="#000" opacity="1">Raked value</text></g></g><path class="foreground" aria-hidden="true" d="" pointer-events="none" display="none"/></g></g></g><path class="foreground" aria-hidden="true" d="" display="none"/></g></g><g class="mark-group role-scope cell" role="graphics-object" aria-roledescription="group mark container"><g transform="translate(0,0)"><path class="background" aria-hidden="true" d="M0.5,0.5h300v100h-300Z" stroke="#ddd"/><g><g class="mark-group role-axis" aria-hidden="true"><g transform="translate(0.5,100.5)"><path class="background" aria-hidden="true" d="M0,0h0v0h0Z" pointer-events="none"/><g><g class="mark-rule role-axis-grid" pointer-events="none"><line transform="translate(0,0)" x2="0" y2="-100" stroke="#ddd" stroke-width="1" opacity="1"/><line transform="translate(37,0)" x2="0" y2="-100" stroke="#ddd" stroke-width="1" opacity="1"/><line transform="translate(75,0)" x2="0" y2="-100" stroke="#ddd" stroke-width="1" opacity="1"/><line transform="translate(113,0)" x2="0" y2="-100" stroke="#ddd" stroke-width="1" opacity="1"/><line transform="translate(150,0)" x2="0" y2="-100" stroke="#ddd" stroke-width="1" opacity="1"/><line transform="translate(188,0)" x2="0" y2="-100" stroke="#ddd" stroke-width="1" opacity="1"/><line transform="translate(225,0)" x2="0" y2="-100" stroke="#ddd" stroke-width="1" opacity="1"/><line transform="translate(262,0)" x2="0" y2="-100" stroke="#ddd" stroke-width="1" opacity="1"/><line transform="translate(300,0)" x2="0" y2="-100" stroke="#ddd" stroke-width="1" opacity="1"/></g></g><path class="foreground" aria-hidden="true" d="" pointer-events="none" display="none"/></g></g><g class="mark-symbol role-mark child_layer_0_marks" role="graphics-object" aria-roledescription="symbol mark container"><path aria-label="Value: 2.56558586263; X2: 1; Type: Initial" role="graphics-symbol" aria-roledescription="point" transform="translate(181.0473492432247,10)" d="M2.739,0A2.739,2.739,0,1,1,-2.739,0A2.739,2.739,0,1,1,2.739,0" fill="#4c78a8" stroke-width="2" opacity="0.7"/><path aria-label="Value: 2.31784877261; X2: 2; Type: Initial" role="graphics-symbol" aria-roledescription="point" transform="translate(134.5966448647512,30)" d="M2.739,0A2.739,2.739,0,1,1,-2.739,0A2.739,2.739,0,1,1,2.739,0" fill="#4c78a8" stroke-width="2" opacity="0.7"/><path aria-label="Value: 2.16980302527; X2: 3; Type: Initial" role="graphics-symbol" aria-roledescription="point" transform="translate(106.83806723766214,50)" d="M2.739,0A2.739,2.739,0,1,1,-2.739,0A2.739,2.739,0,1,1,2.739,0" fill="#4c78a8" stroke-width="2" opacity="0.7"/><path aria-label="Value: 2.11335892613; X2: 4; Type: Initial" role="graphics-symbol" aria-roledescription="point" transform="translate(96.25479864998992,70)" d="M2.739,0A2.739,2.739,0,1,1,-2.739,0A2.739,2.739,0,1,1,2.739,0" fill="#4c78a8" stroke-width="2" opacity="0.7"/><path aria-label="Value: 2.72433462265; X2: 5; Type: Initial" role="graphics-symbol" aria-roledescription="point" transform="translate(210.81274174650616,90)" d="M2.739,0A2.739,2.739,0,1,1,-2.739,0A2.739,2.739,0,1,1,2.739,0" fill="#4c78a8" stroke-width="2" opacity="0.7"/><path aria-label="Value: 2.59300672984; X2: 1; Type: Raked" role="graphics-symbol" aria-roledescription="point" transform="translate(186.1887618445747,10)" d="M-2.739,-2.739h5.477v5.477h-5.477Z" fill="#f58518" stroke-width="2" opacity="0.7"/><path aria-label="Value: 2.24873932399; X2: 2; Type: Raked" role="graphics-symbol" aria-roledescription="point" transform="translate(121.63862324861921,30)" d="M-2.739,-2.739h5.477v5.477h-5.477Z" fill="#f58518" stroke-width="2" opacity="0.7"/><path aria-label="Value: 2.12090748892; X2: 3; Type: Raked" role="graphics-symbol" aria-roledescription="point" transform="translate(97.67015417231787,50)" d="M-2.739,-2.739h5.477v5.477h-5.477Z" fill="#f58518" stroke-width="2" opacity="0.7"/><path aria-label="Value: 2.08519747458; X2: 4; Type: Raked" role="graphics-symbol" aria-roledescription="point" transform="translate(90.97452648467377,70)" d="M-2.739,-2.739h5.477v5.477h-5.477Z" fill="#f58518" stroke-width="2" opacity="0.7"/><path aria-label="Value: 2.72966878242; X2: 5; Type: Raked" role="graphics-symbol" aria-roledescription="point" transform="translate(211.81289670299924,90)" d="M-2.739,-2.739h5.477v5.477h-5.477Z" fill="#f58518" stroke-width="2" opacity="0.7"/></g><g class="mark-rule role-mark child_layer_1_marks" clip-path="url(#clip6)" role="graphics-object" aria-roledescription="rule mark container"><line aria-label="Upper: 2.66558586263; X2: 1; upper_Upper: 2.46558586263; Type: Initial; width: 1; Lower: 2.46558586263" role="graphics-symbol" aria-roledescription="errorbar" transform="translate(199.79734924322474,10)" x2="-37.50000000000006" y2="0" stroke="#4c78a8" stroke-width="1" opacity="0.5"/><line aria-label="Upper: 2.58242390372; X2: 2; upper_Upper: 2.05327364151; Type: Initial; width: 1; Lower: 2.05327364151" role="graphics-symbol" aria-roledescription="errorbar" transform="translate(184.2044819472123,30)" x2="-99.21567416492219" y2="0" stroke="#4c78a8" stroke-width="1" opacity="0.5"/><line aria-label="Upper: 2.53035815281; X2: 3; upper_Upper: 1.80924789772; Type: Initial; width: 1; Lower: 1.80924789772" role="graphics-symbol" aria-roledescription="errorbar" transform="translate(174.44215365261195,50)" x2="-135.2081728298996" y2="0" stroke="#4c78a8" stroke-width="1" opacity="0.5"/><line aria-label="Upper: 2.31335892613; X2: 4; upper_Upper: 1.91335892613; Type: Initial; width: 1; Lower: 1.91335892613" role="graphics-symbol" aria-roledescription="errorbar" transform="translate(133.75479864998997,70)" x2="-75.00000000000003" y2="0" stroke="#4c78a8" stroke-width="1" opacity="0.5"/><line aria-label="Upper: 3.04056238866; X2: 5; upper_Upper: 2.40810685663; Type: Initial; width: 1; Lower: 2.40810685663" role="graphics-symbol" aria-roledescription="errorbar" transform="translate(270.1054478746633,90)" x2="-118.58541225631427" y2="0" stroke="#4c78a8" stroke-width="1" opacity="0.5"/><line aria-label="Upper: 2.70126237664; X2: 1; upper_Upper: 2.48475108303; Type: Raked; width: 2; Lower: 2.48475108303" role="graphics-symbol" aria-roledescription="errorbar" transform="translate(206.4866956207726,10)" x2="-40.59586755239573" y2="0" stroke="#f58518" stroke-width="4" opacity="0.5"/><line aria-label="Upper: 2.43151638361; X2: 2; upper_Upper: 2.06596226437; Type: Raked; width: 2; Lower: 2.06596226437" role="graphics-symbol" aria-roledescription="errorbar" transform="translate(155.9093219274803,30)" x2="-68.54139735772222" y2="0" stroke="#f58518" stroke-width="4" opacity="0.5"/><line aria-label="Upper: 2.3599067307; X2: 3; upper_Upper: 1.88190824714; Type: Raked; width: 2; Lower: 1.88190824714" role="graphics-symbol" aria-roledescription="errorbar" transform="translate(142.4825120064973,50)" x2="-89.62471566835885" y2="0" stroke="#f58518" stroke-width="4" opacity="0.5"/><line aria-label="Upper: 2.23180658807; X2: 4; upper_Upper: 1.9385883611; Type: Raked; width: 2; Lower: 1.9385883611" role="graphics-symbol" aria-roledescription="errorbar" transform="translate(118.46373526269474,70)" x2="-54.978417556041975" y2="0" stroke="#f58518" stroke-width="4" opacity="0.5"/><line aria-label="Upper: 2.94600412046; X2: 5; upper_Upper: 2.51333344437; Type: Raked; width: 2; Lower: 2.51333344437" role="graphics-symbol" aria-roledescription="errorbar" transform="translate(252.37577258707256,90)" x2="-81.12575176814661" y2="0" stroke="#f58518" stroke-width="4" opacity="0.5"/></g><g class="mark-group role-legend" role="graphics-symbol" aria-roledescription="legend" aria-label="Symbol legend titled 'Type' for shape and fill color with 2 values: Initial, Raked"><g transform="translate(318,0)"><path class="background" aria-hidden="true" d="M0,0h98v79h-98Z" pointer-events="none"/><g><g class="mark-group role-legend-entry"><g transform="translate(0,29)"><path class="background" aria-hidden="true" d="M0,0h0v0h0Z" pointer-events="none"/><g><g class="mark-group role-scope" role="graphics-object" aria-roledescription="group mark container"><g transform="translate(0,0)"><path class="background" aria-hidden="true" d="M0,0h97.375v24h-97.375Z" pointer-events="none" opacity="1"/><g><g class="mark-symbol role-legend-symbol" pointer-events="none"><path transform="translate(12,12)" d="M5,0A5,5,0,1,1,-5,0A5,5,0,1,1,5,0" fill="#4c78a8" stroke-width="1.5" opacity="0.7"/></g><g class="mark-text role-legend-label" pointer-events="none"><text text-anchor="start" transform="translate(28,19)" font-family="sans-serif" font-size="24px" fill="#000" opacity="1">Initial</text></g></g><path class="foreground" aria-hidden="true" d="" pointer-events="none" display="none"/></g><g transform="translate(0,26)"><path class="background" aria-hidden="true" d="M0,0h97.375v24h-97.375Z" pointer-events="none" opacity="1"/><g><g class="mark-symbol role-legend-symbol" pointer-events="none"><path transform="translate(12,12)" d="M-5,-5h10v10h-10Z" fill="#f58518" stroke-width="1.5" opacity="0.7"/></g><g class="mark-text role-legend-label" pointer-events="none"><text text-anchor="start" transform="translate(28,19)" font-family="sans-serif" font-size="24px" fill="#000" opacity="1">Raked</text></g></g><path class="foreground" aria-hidden="true" d="" pointer-events="none" display="none"/></g></g></g><path class="foreground" aria-hidden="true" d="" pointer-events="none" display="none"/></g></g><g class="mark-text role-legend-title" pointer-events="none"><text text-anchor="start" transform="translate(0,19)" font-family="sans-serif" font-size="24px" font-weight="bold" fill="#000" opacity="1">Type</text></g></g><path class="foreground" aria-hidden="true" d="" pointer-events="none" display="none"/></g></g></g><path class="foreground" aria-hidden="true" d="" display="none"/></g><g transform="translate(438,0)"><path class="background" aria-hidden="true" d="M0.5,0.5h300v100h-300Z" stroke="#ddd"/><g><g class="mark-group role-axis" aria-hidden="true"><g transform="translate(0.5,100.5)"><path class="background" aria-hidden="true" d="M0,0h0v0h0Z" pointer-events="none"/><g><g class="mark-rule role-axis-grid" pointer-events="none"><line transform="translate(0,0)" x2="0" y2="-100" stroke="#ddd" stroke-width="1" opacity="1"/><line transform="translate(37,0)" x2="0" y2="-100" stroke="#ddd" stroke-width="1" opacity="1"/><line transform="translate(75,0)" x2="0" y2="-100" stroke="#ddd" stroke-width="1" opacity="1"/><line transform="translate(113,0)" x2="0" y2="-100" stroke="#ddd" stroke-width="1" opacity="1"/><line transform="translate(150,0)" x2="0" y2="-100" stroke="#ddd" stroke-width="1" opacity="1"/><line transform="translate(188,0)" x2="0" y2="-100" stroke="#ddd" stroke-width="1" opacity="1"/><line transform="translate(225,0)" x2="0" y2="-100" stroke="#ddd" stroke-width="1" opacity="1"/><line transform="translate(262,0)" x2="0" y2="-100" stroke="#ddd" stroke-width="1" opacity="1"/><line transform="translate(300,0)" x2="0" y2="-100" stroke="#ddd" stroke-width="1" opacity="1"/></g></g><path class="foreground" aria-hidden="true" d="" pointer-events="none" display="none"/></g></g><g class="mark-symbol role-mark child_layer_0_marks" role="graphics-object" aria-roledescription="symbol mark container"><path aria-label="Value: 2.8529232901; X2: 1; Type: Initial" role="graphics-symbol" aria-roledescription="point" transform="translate(234.9231168935564,10)" d="M2.739,0A2.739,2.739,0,1,1,-2.739,0A2.739,2.739,0,1,1,2.739,0" fill="#4c78a8" stroke-width="2" opacity="0.7"/><path aria-label="Value: 2.7128112452; X2: 2; Type: Initial" role="graphics-symbol" aria-roledescription="point" transform="translate(208.65210847476536,30)" d="M2.739,0A2.739,2.739,0,1,1,-2.739,0A2.739,2.739,0,1,1,2.739,0" fill="#4c78a8" stroke-width="2" opacity="0.7"/><path aria-label="Value: 2.65611552874; X2: 3; Type: Initial" role="graphics-symbol" aria-roledescription="point" transform="translate(198.02166163824347,50)" d="M2.739,0A2.739,2.739,0,1,1,-2.739,0A2.739,2.739,0,1,1,2.739,0" fill="#4c78a8" stroke-width="2" opacity="0.7"/><path aria-label="Value: 2.55607277519; X2: 4; Type: Initial" role="graphics-symbol" aria-roledescription="point" transform="translate(179.26364534881512,70)" d="M2.739,0A2.739,2.739,0,1,1,-2.739,0A2.739,2.739,0,1,1,2.739,0" fill="#4c78a8" stroke-width="2" opacity="0.7"/><path aria-label="Value: 2.89776304924; X2: 5; Type: Initial" role="graphics-symbol" aria-roledescription="point" transform="translate(243.33057173333128,90)" d="M2.739,0A2.739,2.739,0,1,1,-2.739,0A2.739,2.739,0,1,1,2.739,0" fill="#4c78a8" stroke-width="2" opacity="0.7"/><path aria-label="Value: 2.92316318816; X2: 1; Type: Raked" role="graphics-symbol" aria-roledescription="point" transform="translate(248.0930977801713,10)" d="M-2.739,-2.739h5.477v5.477h-5.477Z" fill="#f58518" stroke-width="2" opacity="0.7"/><path aria-label="Value: 2.66972140395; X2: 2; Type: Raked" role="graphics-symbol" aria-roledescription="point" transform="translate(200.57276324151664,30)" d="M-2.739,-2.739h5.477v5.477h-5.477Z" fill="#f58518" stroke-width="2" opacity="0.7"/><path aria-label="Value: 2.63326714142; X2: 3; Type: Raked" role="graphics-symbol" aria-roledescription="point" transform="translate(193.7375890165904,50)" d="M-2.739,-2.739h5.477v5.477h-5.477Z" fill="#f58518" stroke-width="2" opacity="0.7"/><path aria-label="Value: 2.5576241141; X2: 4; Type: Raked" role="graphics-symbol" aria-roledescription="point" transform="translate(179.55452139291828,70)" d="M-2.739,-2.739h5.477v5.477h-5.477Z" fill="#f58518" stroke-width="2" opacity="0.7"/><path aria-label="Value: 2.94380948165; X2: 5; Type: Raked" role="graphics-symbol" aria-roledescription="point" transform="translate(251.96427780919575,90)" d="M-2.739,-2.739h5.477v5.477h-5.477Z" fill="#f58518" stroke-width="2" opacity="0.7"/></g><g class="mark-rule role-mark child_layer_1_marks" clip-path="url(#clip7)" role="graphics-object" aria-roledescription="rule mark container"><line aria-label="Upper: 3.18458576913; X2: 1; upper_Upper: 2.52126081106; Type: Initial; width: 1; Lower: 2.52126081106" role="graphics-symbol" aria-roledescription="errorbar" transform="translate(297.1098317127201,10)" x2="-124.37342963832742" y2="0" stroke="#4c78a8" stroke-width="1" opacity="0.5"/><line aria-label="Upper: 2.85423260144; X2: 2; upper_Upper: 2.57138988896; Type: Initial; width: 1; Lower: 2.57138988896" role="graphics-symbol" aria-roledescription="errorbar" transform="translate(235.16861276926093,30)" x2="-53.03300858899112" y2="0" stroke="#4c78a8" stroke-width="1" opacity="0.5"/><line aria-label="Upper: 2.93895824121; X2: 3; upper_Upper: 2.37327281626; Type: Initial; width: 1; Lower: 2.37327281626" role="graphics-symbol" aria-roledescription="errorbar" transform="translate(251.0546702272345,50)" x2="-106.06601717798208" y2="0" stroke="#4c78a8" stroke-width="1" opacity="0.5"/><line aria-label="Upper: 2.93023851387; X2: 4; upper_Upper: 2.18190703652; Type: Initial; width: 1; Lower: 2.18190703652" role="graphics-symbol" aria-roledescription="errorbar" transform="translate(249.41972135082648,70)" x2="-140.31215200402272" y2="0" stroke="#4c78a8" stroke-width="1" opacity="0.5"/><line aria-label="Upper: 3.12136984699; X2: 5; upper_Upper: 2.67415625149; Type: Initial; width: 1; Lower: 2.67415625149" role="graphics-symbol" aria-roledescription="errorbar" transform="translate(285.25684631145236,90)" x2="-83.85254915624216" y2="0" stroke="#4c78a8" stroke-width="1" opacity="0.5"/><line aria-label="Upper: 3.14838787246; X2: 1; upper_Upper: 2.69793850386; Type: Raked; width: 2; Lower: 2.69793850386" role="graphics-symbol" aria-roledescription="errorbar" transform="translate(290.3227260866737,10)" x2="-84.45925661300478" y2="0" stroke="#f58518" stroke-width="4" opacity="0.5"/><line aria-label="Upper: 2.79100041522; X2: 2; upper_Upper: 2.54844239268; Type: Raked; width: 2; Lower: 2.54844239268" role="graphics-symbol" aria-roledescription="errorbar" transform="translate(223.31257785460596,30)" x2="-45.4796292261787" y2="0" stroke="#f58518" stroke-width="4" opacity="0.5"/><line aria-label="Upper: 2.82539525699; X2: 3; upper_Upper: 2.44113902585; Type: Raked; width: 2; Lower: 2.44113902585" role="graphics-symbol" aria-roledescription="errorbar" transform="translate(229.76161068591762,50)" x2="-72.04804333865445" y2="0" stroke="#f58518" stroke-width="4" opacity="0.5"/><line aria-label="Upper: 2.8056402374; X2: 4; upper_Upper: 2.30960799079; Type: Raked; width: 2; Lower: 2.30960799079" role="graphics-symbol" aria-roledescription="errorbar" transform="translate(226.05754451294612,70)" x2="-93.0060462400557" y2="0" stroke="#f58518" stroke-width="4" opacity="0.5"/><line aria-label="Upper: 3.10108581195; X2: 5; upper_Upper: 2.78653315134; Type: Raked; width: 2; Lower: 2.78653315134" role="graphics-symbol" aria-roledescription="errorbar" transform="translate(281.4535897415222,90)" x2="-58.97862386465286" y2="0" stroke="#f58518" stroke-width="4" opacity="0.5"/></g><g class="mark-group role-legend" role="graphics-symbol" aria-roledescription="legend" aria-label="Symbol legend titled 'Type' for shape and fill color with 2 values: Initial, Raked"><g transform="translate(318,0)"><path class="background" aria-hidden="true" d="M0,0h98v79h-98Z" pointer-events="none"/><g><g class="mark-group role-legend-entry"><g transform="translate(0,29)"><path class="background" aria-hidden="true" d="M0,0h0v0h0Z" pointer-events="none"/><g><g class="mark-group role-scope" role="graphics-object" aria-roledescription="group mark container"><g transform="translate(0,0)"><path class="background" aria-hidden="true" d="M0,0h97.375v24h-97.375Z" pointer-events="none" opacity="1"/><g><g class="mark-symbol role-legend-symbol" pointer-events="none"><path transform="translate(12,12)" d="M5,0A5,5,0,1,1,-5,0A5,5,0,1,1,5,0" fill="#4c78a8" stroke-width="1.5" opacity="0.7"/></g><g class="mark-text role-legend-label" pointer-events="none"><text text-anchor="start" transform="translate(28,19)" font-family="sans-serif" font-size="24px" fill="#000" opacity="1">Initial</text></g></g><path class="foreground" aria-hidden="true" d="" pointer-events="none" display="none"/></g><g transform="translate(0,26)"><path class="background" aria-hidden="true" d="M0,0h97.375v24h-97.375Z" pointer-events="none" opacity="1"/><g><g class="mark-symbol role-legend-symbol" pointer-events="none"><path transform="translate(12,12)" d="M-5,-5h10v10h-10Z" fill="#f58518" stroke-width="1.5" opacity="0.7"/></g><g class="mark-text role-legend-label" pointer-events="none"><text text-anchor="start" transform="translate(28,19)" font-family="sans-serif" font-size="24px" fill="#000" opacity="1">Raked</text></g></g><path class="foreground" aria-hidden="true" d="" pointer-events="none" display="none"/></g></g></g><path class="foreground" aria-hidden="true" d="" pointer-events="none" display="none"/></g></g><g class="mark-text role-legend-title" pointer-events="none"><text text-anchor="start" transform="translate(0,19)" font-family="sans-serif" font-size="24px" font-weight="bold" fill="#000" opacity="1">Type</text></g></g><path class="foreground" aria-hidden="true" d="" pointer-events="none" display="none"/></g></g></g><path class="foreground" aria-hidden="true" d="" display="none"/></g><g transform="translate(876,0)"><path class="background" aria-hidden="true" d="M0.5,0.5h300v100h-300Z" stroke="#ddd"/><g><g class="mark-group role-axis" aria-hidden="true"><g transform="translate(0.5,100.5)"><path class="background" aria-hidden="true" d="M0,0h0v0h0Z" pointer-events="none"/><g><g class="mark-rule role-axis-grid" pointer-events="none"><line transform="translate(0,0)" x2="0" y2="-100" stroke="#ddd" stroke-width="1" opacity="1"/><line transform="translate(37,0)" x2="0" y2="-100" stroke="#ddd" stroke-width="1" opacity="1"/><line transform="translate(75,0)" x2="0" y2="-100" stroke="#ddd" stroke-width="1" opacity="1"/><line transform="translate(113,0)" x2="0" y2="-100" stroke="#ddd" stroke-width="1" opacity="1"/><line transform="translate(150,0)" x2="0" y2="-100" stroke="#ddd" stroke-width="1" opacity="1"/><line transform="translate(188,0)" x2="0" y2="-100" stroke="#ddd" stroke-width="1" opacity="1"/><line transform="translate(225,0)" x2="0" y2="-100" stroke="#ddd" stroke-width="1" opacity="1"/><line transform="translate(262,0)" x2="0" y2="-100" stroke="#ddd" stroke-width="1" opacity="1"/><line transform="translate(300,0)" x2="0" y2="-100" stroke="#ddd" stroke-width="1" opacity="1"/></g></g><path class="foreground" aria-hidden="true" d="" pointer-events="none" display="none"/></g></g><g class="mark-symbol role-mark child_layer_0_marks" role="graphics-object" aria-roledescription="symbol mark container"><path aria-label="Value: 2.78176740804; X2: 1; Type: Initial" role="graphics-symbol" aria-roledescription="point" transform="translate(221.58138900836485,10)" d="M2.739,0A2.739,2.739,0,1,1,-2.739,0A2.739,2.739,0,1,1,2.739,0" fill="#4c78a8" stroke-width="2" opacity="0.7"/><path aria-label="Value: 1.99296845541; X2: 2; Type: Initial" role="graphics-symbol" aria-roledescription="point" transform="translate(73.6815853900542,30)" d="M2.739,0A2.739,2.739,0,1,1,-2.739,0A2.739,2.739,0,1,1,2.739,0" fill="#4c78a8" stroke-width="2" opacity="0.7"/><path aria-label="Value: 2.89953273795; X2: 3; Type: Initial" role="graphics-symbol" aria-roledescription="point" transform="translate(243.6623883658836,50)" d="M2.739,0A2.739,2.739,0,1,1,-2.739,0A2.739,2.739,0,1,1,2.739,0" fill="#4c78a8" stroke-width="2" opacity="0.7"/><path aria-label="Value: 1.95033203042; X2: 4; Type: Initial" role="graphics-symbol" aria-roledescription="point" transform="translate(65.6872557030901,70)" d="M2.739,0A2.739,2.739,0,1,1,-2.739,0A2.739,2.739,0,1,1,2.739,0" fill="#4c78a8" stroke-width="2" opacity="0.7"/><path aria-label="Value: 2.76148717715; X2: 5; Type: Initial" role="graphics-symbol" aria-roledescription="point" transform="translate(217.77884571541335,90)" d="M2.739,0A2.739,2.739,0,1,1,-2.739,0A2.739,2.739,0,1,1,2.739,0" fill="#4c78a8" stroke-width="2" opacity="0.7"/><path aria-label="Value: 2.84940090072; X2: 1; Type: Raked" role="graphics-symbol" aria-roledescription="point" transform="translate(234.26266888538677,10)" d="M-2.739,-2.739h5.477v5.477h-5.477Z" fill="#f58518" stroke-width="2" opacity="0.7"/><path aria-label="Value: 1.96070026175; X2: 2; Type: Raked" role="graphics-symbol" aria-roledescription="point" transform="translate(67.6312990788388,30)" d="M-2.739,-2.739h5.477v5.477h-5.477Z" fill="#f58518" stroke-width="2" opacity="0.7"/><path aria-label="Value: 2.87369973117; X2: 3; Type: Raked" role="graphics-symbol" aria-roledescription="point" transform="translate(238.81869959379708,50)" d="M-2.739,-2.739h5.477v5.477h-5.477Z" fill="#f58518" stroke-width="2" opacity="0.7"/><path aria-label="Value: 1.95091661362; X2: 4; Type: Raked" role="graphics-symbol" aria-roledescription="point" transform="translate(65.79686505354823,70)" d="M-2.739,-2.739h5.477v5.477h-5.477Z" fill="#f58518" stroke-width="2" opacity="0.7"/><path aria-label="Value: 2.80451984535; X2: 5; Type: Raked" role="graphics-symbol" aria-roledescription="point" transform="translate(225.84747100367733,90)" d="M-2.739,-2.739h5.477v5.477h-5.477Z" fill="#f58518" stroke-width="2" opacity="0.7"/></g><g class="mark-rule role-mark child_layer_1_marks" clip-path="url(#clip8)" role="graphics-object" aria-roledescription="rule mark container"><line aria-label="Upper: 3.02671638232; X2: 1; upper_Upper: 2.53681843377; Type: Initial; width: 1; Lower: 2.53681843377" role="graphics-symbol" aria-roledescription="errorbar" transform="translate(267.5093216855495,10)" x2="-91.85586535436926" y2="0" stroke="#4c78a8" stroke-width="1" opacity="0.5"/><line aria-label="Upper: 2.33937861693; X2: 2; upper_Upper: 1.6465582939; Type: Initial; width: 1; Lower: 1.6465582939" role="graphics-symbol" aria-roledescription="errorbar" transform="translate(138.6334906738871,30)" x2="-129.90381056766583" y2="0" stroke="#4c78a8" stroke-width="1" opacity="0.5"/><line aria-label="Upper: 3.07273781871; X2: 3; upper_Upper: 2.72632765719; Type: Initial; width: 1; Lower: 2.72632765719" role="graphics-symbol" aria-roledescription="errorbar" transform="translate(276.1383410078,50)" x2="-64.95190528383284" y2="0" stroke="#4c78a8" stroke-width="1" opacity="0.5"/><line aria-label="Upper: 2.25033203042; X2: 4; upper_Upper: 1.65033203042; Type: Initial; width: 1; Lower: 1.65033203042" role="graphics-symbol" aria-roledescription="errorbar" transform="translate(121.9372557030901,70)" x2="-112.50000000000001" y2="0" stroke="#4c78a8" stroke-width="1" opacity="0.5"/><line aria-label="Upper: 3.14878551177; X2: 5; upper_Upper: 2.37418884253; Type: Initial; width: 1; Lower: 2.37418884253" role="graphics-symbol" aria-roledescription="errorbar" transform="translate(290.3972834568024,90)" x2="-145.23687548277812" y2="0" stroke="#4c78a8" stroke-width="1" opacity="0.5"/><line aria-label="Upper: 3.01507213666; X2: 1; upper_Upper: 2.68372966478; Type: Raked; width: 2; Lower: 2.68372966478" role="graphics-symbol" aria-roledescription="errorbar" transform="translate(265.3260256245246,10)" x2="-62.12671347827575" y2="0" stroke="#f58518" stroke-width="4" opacity="0.5"/><line aria-label="Upper: 2.19423974439; X2: 2; upper_Upper: 1.72716077912; Type: Raked; width: 2; Lower: 1.72716077912" role="graphics-symbol" aria-roledescription="errorbar" transform="translate(111.4199520726984,30)" x2="-87.5773059877192" y2="0" stroke="#f58518" stroke-width="4" opacity="0.5"/><line aria-label="Upper: 3.00855241272; X2: 3; upper_Upper: 2.73884704961; Type: Raked; width: 2; Lower: 2.73884704961" role="graphics-symbol" aria-roledescription="errorbar" transform="translate(264.1035773858753,50)" x2="-50.569755584156496" y2="0" stroke="#f58518" stroke-width="4" opacity="0.5"/><line aria-label="Upper: 2.14982736381; X2: 4; upper_Upper: 1.75200586343; Type: Raked; width: 2; Lower: 1.75200586343" role="graphics-symbol" aria-roledescription="errorbar" transform="translate(103.09263071367714,70)" x2="-74.59153132025781" y2="0" stroke="#f58518" stroke-width="4" opacity="0.5"/><line aria-label="Upper: 3.05718084067; X2: 5; upper_Upper: 2.55185885003; Type: Raked; width: 2; Lower: 2.55185885003" role="graphics-symbol" aria-roledescription="errorbar" transform="translate(273.2214076263318,90)" x2="-94.74787324530902" y2="0" stroke="#f58518" stroke-width="4" opacity="0.5"/></g><g class="mark-group role-legend" role="graphics-symbol" aria-roledescription="legend" aria-label="Symbol legend titled 'Type' for shape and fill color with 2 values: Initial, Raked"><g transform="translate(318,0)"><path class="background" aria-hidden="true" d="M0,0h98v79h-98Z" pointer-events="none"/><g><g class="mark-group role-legend-entry"><g transform="translate(0,29)"><path class="background" aria-hidden="true" d="M0,0h0v0h0Z" pointer-events="none"/><g><g class="mark-group role-scope" role="graphics-object" aria-roledescription="group mark container"><g transform="translate(0,0)"><path class="background" aria-hidden="true" d="M0,0h97.375v24h-97.375Z" pointer-events="none" opacity="1"/><g><g class="mark-symbol role-legend-symbol" pointer-events="none"><path transform="translate(12,12)" d="M5,0A5,5,0,1,1,-5,0A5,5,0,1,1,5,0" fill="#4c78a8" stroke-width="1.5" opacity="0.7"/></g><g class="mark-text role-legend-label" pointer-events="none"><text text-anchor="start" transform="translate(28,19)" font-family="sans-serif" font-size="24px" fill="#000" opacity="1">Initial</text></g></g><path class="foreground" aria-hidden="true" d="" pointer-events="none" display="none"/></g><g transform="translate(0,26)"><path class="background" aria-hidden="true" d="M0,0h97.375v24h-97.375Z" pointer-events="none" opacity="1"/><g><g class="mark-symbol role-legend-symbol" pointer-events="none"><path transform="translate(12,12)" d="M-5,-5h10v10h-10Z" fill="#f58518" stroke-width="1.5" opacity="0.7"/></g><g class="mark-text role-legend-label" pointer-events="none"><text text-anchor="start" transform="translate(28,19)" font-family="sans-serif" font-size="24px" fill="#000" opacity="1">Raked</text></g></g><path class="foreground" aria-hidden="true" d="" pointer-events="none" display="none"/></g></g></g><path class="foreground" aria-hidden="true" d="" pointer-events="none" display="none"/></g></g><g class="mark-text role-legend-title" pointer-events="none"><text text-anchor="start" transform="translate(0,19)" font-family="sans-serif" font-size="24px" font-weight="bold" fill="#000" opacity="1">Type</text></g></g><path class="foreground" aria-hidden="true" d="" pointer-events="none" display="none"/></g></g></g><path class="foreground" aria-hidden="true" d="" display="none"/></g></g></g><path class="foreground" aria-hidden="true" d="" display="none"/></g></g></g><defs><clipPath id="clip6"><rect x="0" y="0" width="300" height="100"/></clipPath><clipPath id="clip7"><rect x="0" y="0" width="300" height="100"/></clipPath><clipPath id="clip8"><rect x="0" y="0" width="300" height="100"/></clipPath></defs></svg>