<svg xmlns="http://www.w3.org/2000/svg" xmlns:xlink="http://www.w3.org/1999/xlink" version="1.1" class="marks" width="425" height="386" viewBox="0 0 425 386"><rect width="425" height="386" fill="white"/><g fill="none" stroke-miterlimit="10" transform="translate(80,34)"><g class="mark-group role-frame root" role="graphics-object" aria-roledescription="group mark container"><g transform="translate(0,0)"><path class="background" aria-hidden="true" d="M0.5,0.5h300v300h-300Z" stroke="#ddd"/><g><g class="mark-group role-axis" aria-hidden="true"><g transform="translate(0.5,300.5)"><path class="background" aria-hidden="true" d="M0,0h0v0h0Z" pointer-events="none"/><g><g class="mark-rule role-axis-grid" pointer-events="none"><line transform="translate(18,-300)" x2="0" y2="300" stroke="#ddd" stroke-width="1" opacity="1"/><line transform="translate(45,-300)" x2="0" y2="300" stroke="#ddd" stroke-width="1" opacity="1"/><line transform="translate(72,-300)" x2="0" y2="300" stroke="#ddd" stroke-width="1" opacity="1"/><line transform="translate(100,-300)" x2="0" y2="300" stroke="#ddd" stroke-width="1" opacity="1"/><line transform="translate(127,-300)" x2="0" y2="300" stroke="#ddd" stroke-width="1" opacity="1"/><line transform="translate(154,-300)" x2="0" y2="300" stroke="#ddd" stroke-width="1" opacity="1"/><line transform="translate(181,-300)" x2="0" y2="300" stroke="#ddd" stroke-width="1" opacity="1"/><line transform="translate(209,-300)" x2="0" y2="300" stroke="#ddd" stroke-width="1" opacity="1"/><line transform="translate(236,-300)" x2="0" y2="300" stroke="#ddd" stroke-width="1" opacity="1"/><line transform="translate(263,-300)" x2="0" y2="300" stroke="#ddd" stroke-width="1" opacity="1"/><line transform="translate(291,-300)" x2="0" y2="300" stroke="#ddd" stroke-width="1" opacity="1"/></g></g><path class="foreground" aria-hidden="true" d="" pointer-events="none" display="none"/></g></g><g class="mark-group role-axis" aria-hidden="true"><g transform="translate(0.5,0.5)"><path class="background" aria-hidden="true" d="M0,0h0v0h0Z" pointer-events="none"/><g><g class="mark-rule role-axis-grid" pointer-events="none"><line transform="translate(0,282)" x2="300" y2="0" stroke="#ddd" stroke-width="1" opacity="1"/><line transform="translate(0,255)" x2="300" y2="0" stroke="#ddd" stroke-width="1" opacity="1"/><line transform="translate(0,228)" x2="300" y2="0" stroke="#ddd" stroke-width="1" opacity="1"/><line transform="translate(0,200)" x2="300" y2="0" stroke="#ddd" stroke-width="1" opacity="1"/><line transform="translate(0,173)" x2="300" y2="0" stroke="#ddd" stroke-width="1" opacity="1"/><line transform="translate(0,146)" x2="300" y2="0" stroke="#ddd" stroke-width="1" opacity="1"/><line transform="translate(0,119)" x2="300" y2="0" stroke="#ddd" stroke-width="1" opacity="1"/><line transform="translate(0,91)" x2="300" y2="0" stroke="#ddd" stroke-width="1" opacity="1"/><line transform="translate(0,64)" x2="300" y2="0" stroke="#ddd" stroke-width="1" opacity="1"/><line transform="translate(0,37)" x2="300" y2="0" stroke="#ddd" stroke-width="1" opacity="1"/><line transform="translate(0,9)" x2="300" y2="0" stroke="#ddd" stroke-width="1" opacity="1"/></g></g><path class="foreground" aria-hidden="true" d="" pointer-events="none" display="none"/></g></g><g class="mark-group role-axis" role="graphics-symbol" aria-roledescription="axis" aria-label="X-axis titled 'Using all draws' for a linear scale with values from 0.01 to 0.07"><g transform="translate(0.5,300.5)"><path class="background" aria-hidden="true" d="M0,0h0v0h0Z" pointer-events="none"/><g><g class="mark-rule role-axis-tick" pointer-events="none"><line transform="translate(18,0)" x2="0" y2="5" stroke="#888" stroke-width="1" opacity="1"/><line transform="translate(45,0)" x2="0" y2="5" stroke="#888" stroke-width="1" opacity="1"/><line transform="translate(72,0)" x2="0" y2="5" stroke="#888" stroke-width="1" opacity="1"/><line transform="translate(100,0)" x2="0" y2="5" stroke="#888" stroke-width="1" opacity="1"/><line transform="translate(127,0)" x2="0" y2="5" stroke="#888" stroke-width="1" opacity="1"/><line transform="translate(154,0)" x2="0" y2="5" stroke="#888" stroke-width="1" opacity="1"/><line transform="translate(181,0)" x2="0" y2="5" stroke="#888" stroke-width="1" opacity="1"/><line transform="translate(209,0)" x2="0" y2="5" stroke="#888" stroke-width="1" opacity="1"/><line transform="translate(236,0)" x2="0" y2="5" stroke="#888" stroke-width="1" opacity="1"/><line transform="translate(263,0)" x2="0" y2="5" stroke="#888" stroke-width="1" opacity="1"/><line transform="translate(291,0)" x2="0" y2="5" stroke="#888" stroke-width="1" opacity="1"/></g><g class="mark-text role-axis-label" pointer-events="none"><text text-anchor="middle" transform="translate(17.742032187941287,21)" font-family="sans-serif" font-size="18px" fill="#000" opacity="1">0.015</text><text text-anchor="middle" transform="translate(45.034491681547884,21)" font-family="sans-serif" font-size="18px" fill="#000" opacity="0">0.020</text><text text-anchor="middle" transform="translate(72.32695117515448,21)" font-family="sans-serif" font-size="18px" fill="#000" opacity="1">0.025</text><text text-anchor="middle" transform="translate(99.61941066876105,21)" font-family="sans-serif" font-size="18px" fill="#000" opacity="0">0.030</text><text text-anchor="middle" transform="translate(126.91187016236766,21)" font-family="sans-serif" font-size="18px" fill="#000" opacity="1">0.035</text><text text-anchor="middle" transform="translate(154.20432965597422,21)" font-family="sans-serif" font-size="18px" fill="#000" opacity="0">0.040</text><text text-anchor="middle" transform="translate(181.49678914958082,21)" font-family="sans-serif" font-size="18px" fill="#000" opacity="1">0.045</text><text text-anchor="middle" transform="translate(208.78924864318742,21)" font-family="sans-serif" font-size="18px" fill="#000" opacity="0">0.050</text><text text-anchor="middle" transform="translate(236.08170813679396,21)" font-family="sans-serif" font-size="18px" fill="#000" opacity="1">0.055</text><text text-anchor="middle" transform="translate(263.37416763040056,21)" font-family="sans-serif" font-size="18px" fill="#000" opacity="0">0.060</text><text text-anchor="middle" transform="translate(290.6666271240072,21)" font-family="sans-serif" font-size="18px" fill="#000" opacity="1">0.065</text></g><g class="mark-rule role-axis-domain" pointer-events="none"><line transform="translate(0,0)" x2="300" y2="0" stroke="#888" stroke-width="1" opacity="1"/></g><g class="mark-text role-axis-title" pointer-events="none"><text text-anchor="middle" transform="translate(150,43)" font-family="sans-serif" font-size="18px" font-weight="bold" fill="#000" opacity="1">Using all draws</text></g></g><path class="foreground" aria-hidden="true" d="" pointer-events="none" display="none"/></g></g><g class="mark-group role-axis" role="graphics-symbol" aria-roledescription="axis" aria-label="Y-axis titled 'Using delta method' for a linear scale with values from 0.01 to 0.07"><g transform="translate(0.5,0.5)"><path class="background" aria-hidden="true" d="M0,0h0v0h0Z" pointer-events="none"/><g><g class="mark-rule role-axis-tick" pointer-events="none"><line transform="translate(0,282)" x2="-5" y2="0" stroke="#888" stroke-width="1" opacity="1"/><line transform="translate(0,255)" x2="-5" y2="0" stroke="#888" stroke-width="1" opacity="1"/><line transform="translate(0,228)" x2="-5" y2="0" stroke="#888" stroke-width="1" opacity="1"/><line transform="translate(0,200)" x2="-5" y2="0" stroke="#888" stroke-width="1" opacity="1"/><line transform="translate(0,173)" x2="-5" y2="0" stroke="#888" stroke-width="1" opacity="1"/><line transform="translate(0,146)" x2="-5" y2="0" stroke="#888" stroke-width="1" opacity="1"/><line transform="translate(0,119)" x2="-5" y2="0" stroke="#888" stroke-width="1" opacity="1"/><line transform="translate(0,91)" x2="-5" y2="0" stroke="#888" stroke-width="1" opacity="1"/><line transform="translate(0,64)" x2="-5" y2="0" stroke="#888" stroke-width="1" opacity="1"/><line transform="translate(0,37)" x2="-5" y2="0" stroke="#888" stroke-width="1" opacity="1"/><line transform="translate(0,9)" x2="-5" y2="0" stroke="#888" stroke-width="1" opacity="1"/></g><g class="mark-text role-axis-label" pointer-events="none"><text text-anchor="end" transform="translate(-7,287.2579678120587)" font-family="sans-serif" font-size="18px" fill="#000" opacity="1">0.015</text><text text-anchor="end" transform="translate(-7,259.9655083184521)" font-family="sans-serif" font-size="18px" fill="#000" opacity="1">0.020</text><text text-anchor="end" transform="translate(-7,232.67304882484552)" font-family="sans-serif" font-size="18px" fill="#000" opacity="1">0.025</text><text text-anchor="end" transform="translate(-7,205.38058933123895)" font-family="sans-serif" font-size="18px" fill="#000" opacity="1">0.030</text><text text-anchor="end" transform="translate(-7,178.08812983763235)" font-family="sans-serif" font-size="18px" fill="#000" opacity="1">0.035</text><text text-anchor="end" transform="translate(-7,150.79567034402578)" font-family="sans-serif" font-size="18px" fill="#000" opacity="1">0.040</text><text text-anchor="end" transform="translate(-7,123.50321085041918)" font-family="sans-serif" font-size="18px" fill="#000" opacity="1">0.045</text><text text-anchor="end" transform="translate(-7,96.21075135681258)" font-family="sans-serif" font-size="18px" fill="#000" opacity="1">0.050</text><text text-anchor="end" transform="translate(-7,68.91829186320604)" font-family="sans-serif" font-size="18px" fill="#000" opacity="1">0.055</text><text text-anchor="end" transform="translate(-7,41.62583236959941)" font-family="sans-serif" font-size="18px" fill="#000" opacity="1">0.060</text><text text-anchor="end" transform="translate(-7,14.333372875992808)" font-family="sans-serif" font-size="18px" fill="#000" opacity="1">0.065</text></g><g class="mark-rule role-axis-domain" pointer-events="none"><line transform="translate(0,300)" x2="0" y2="-300" stroke="#888" stroke-width="1" opacity="1"/></g><g class="mark-text role-axis-title" pointer-events="none"><text text-anchor="middle" transform="translate(-56.0439453125,150) rotate(-90) translate(0,-4)" font-family="sans-serif" font-size="18px" font-weight="bold" fill="#000" opacity="1">Using delta method</text></g></g><path class="foreground" aria-hidden="true" d="" pointer-events="none" display="none"/></g></g><g class="mark-rule role-mark layer_0_marks" role="graphics-symbol" aria-roledescription="rule mark container"><line transform="translate(0,300)" x2="300" y2="-300" stroke="black" stroke-dasharray="8,8"/></g><g class="mark-symbol role-mark layer_1_marks" role="graphics-object" aria-roledescription="symbol mark container"><path aria-label="all_draws: 0.0122561132044; delta_method: 0.0117496457782; X1: 1; X2: 1" role="graphics-symbol" aria-roledescription="point" transform="translate(2.7645483434121476,300)" d="M3.873,0A3.873,3.873,0,1,1,-3.873,0A3.873,3.873,0,1,1,3.873,0" stroke="#4c78a8" stroke-width="2" opacity="0.7"/><path aria-label="all_draws: 0.0151822587995; delta_method: 0.0147493143803; X1: 2; X2: 1" role="graphics-symbol" aria-roledescription="point" transform="translate(18.73689036852895,283.62633323635305)" d="M3.873,0A3.873,3.873,0,1,1,-3.873,0A3.873,3.873,0,1,1,3.873,0" stroke="#f58518" stroke-width="2" opacity="0.7"/><path aria-label="all_draws: 0.0188607014651; delta_method: 0.0182262793328; X1: 3; X2: 1" role="graphics-symbol" aria-roledescription="point" transform="translate(38.8156398586141,264.6473482107733)" d="M3.873,0A3.873,3.873,0,1,1,-3.873,0A3.873,3.873,0,1,1,3.873,0" stroke="#e45756" stroke-width="2" opacity="0.7"/><path aria-label="all_draws: 0.0220456893509; delta_method: 0.0215420786134; X1: 1; X2: 2" role="graphics-symbol" aria-roledescription="point" transform="translate(56.20087043069727,246.54808470020973)" d="M-3.873,-3.873h7.746v7.746h-7.746Z" stroke="#4c78a8" stroke-width="2" opacity="0.7"/><path aria-label="all_draws: 0.0253189831273; delta_method: 0.0247888489482; X1: 2; X2: 2" role="graphics-symbol" aria-roledescription="point" transform="translate(74.06811799124088,228.8256151307393)" d="M-3.873,-3.873h7.746v7.746h-7.746Z" stroke="#f58518" stroke-width="2" opacity="0.7"/><path aria-label="all_draws: 0.0283380374274; delta_method: 0.0275173161266; X1: 3; X2: 2" role="graphics-symbol" aria-roledescription="point" transform="translate(90.54760143014765,213.9322991410461)" d="M-3.873,-3.873h7.746v7.746h-7.746Z" stroke="#e45756" stroke-width="2" opacity="0.7"/><path aria-label="all_draws: 0.0342648052664; delta_method: 0.0333762786682; X1: 1; X2: 3" role="graphics-symbol" aria-roledescription="point" transform="translate(122.89881566519351,181.9511995732239)" d="M0,-3.354L-3.873,3.354L3.873,3.354Z" stroke="#4c78a8" stroke-width="2" opacity="0.7"/><path aria-label="all_draws: 0.037736540945; delta_method: 0.0368564775712; X1: 2; X2: 3" role="graphics-symbol" aria-roledescription="point" transform="translate(141.84925674098577,162.95456205515703)" d="M0,-3.354L-3.873,3.354L3.873,3.354Z" stroke="#f58518" stroke-width="2" opacity="0.7"/><path aria-label="all_draws: 0.0406382711161; delta_method: 0.0395252829327; X1: 3; X2: 3" role="graphics-symbol" aria-roledescription="point" transform="translate(157.68832737240598,148.3869096099401)" d="M0,-3.354L-3.873,3.354L3.873,3.354Z" stroke="#e45756" stroke-width="2" opacity="0.7"/><path aria-label="all_draws: 0.0489686530447; delta_method: 0.0468356075293; X1: 1; X2: 4" role="graphics-symbol" aria-roledescription="point" transform="translate(203.15964964274326,108.483562022238)" d="M-3.873,-1.549L-3.873,1.549L-1.549,1.549L-1.549,3.873L1.549,3.873L1.549,1.549L3.873,1.549L3.873,-1.549L1.549,-1.549L1.549,-3.873L-1.549,-3.873L-1.549,-1.549Z" stroke="#4c78a8" stroke-width="2" opacity="0.7"/><path aria-label="all_draws: 0.052935410114; delta_method: 0.0507214198516; X1: 2; X2: 4" role="graphics-symbol" aria-roledescription="point" transform="translate(224.81216096996675,87.2728869412164)" d="M-3.873,-1.549L-3.873,1.549L-1.549,1.549L-1.549,3.873L1.549,3.873L1.549,1.549L3.873,1.549L3.873,-1.549L1.549,-1.549L1.549,-3.873L-1.549,-3.873L-1.549,-1.549Z" stroke="#f58518" stroke-width="2" opacity="0.7"/><path aria-label="all_draws: 0.0567304470144; delta_method: 0.0544958854406; X1: 3; X2: 4" role="graphics-symbol" aria-roledescription="point" transform="translate(245.52733914617545,66.66999710183694)" d="M-3.873,-1.549L-3.873,1.549L-1.549,1.549L-1.549,3.873L1.549,3.873L1.549,1.549L3.873,1.549L3.873,-1.549L1.549,-1.549L1.549,-3.873L-1.549,-3.873L-1.549,-1.549Z" stroke="#e45756" stroke-width="2" opacity="0.7"/><path aria-label="all_draws: 0.0593458336898; delta_method: 0.0574606059482; X1: 1; X2: 5" role="graphics-symbol" aria-roledescription="point" transform="translate(259.8034061258268,50.48709422928192)" d="M-3.873,0L0,-3.873L3.873,0L0,3.873Z" stroke="#4c78a8" stroke-width="2" opacity="0.7"/><path aria-label="all_draws: 0.063814320849; delta_method: 0.0618456015341; X1: 2; X2: 5" role="graphics-symbol" aria-roledescription="point" transform="translate(284.19460708393876,26.551631347579562)" d="M-3.873,0L0,-3.873L3.873,0L0,3.873Z" stroke="#f58518" stroke-width="2" opacity="0.7"/><path aria-label="all_draws: 0.0667098812363; delta_method: 0.0642142130239; X1: 3; X2: 5" role="graphics-symbol" aria-roledescription="point" transform="translate(300,13.622584719006092)" d="M-3.873,0L0,-3.873L3.873,0L0,3.873Z" stroke="#e45756" stroke-width="2" opacity="0.7"/></g><g class="mark-group role-legend" role="graphics-symbol" aria-roledescription="legend" aria-label="Symbol legend titled 'X1' for stroke color with 3 values: 1, 2, 3"><g transform="translate(318,0)"><path class="background" aria-hidden="true" d="M0,0h22v61h-22Z" pointer-events="none"/><g><g class="mark-group role-legend-entry"><g transform="translate(0,16)"><path class="background" aria-hidden="true" d="M0,0h0v0h0Z" pointer-events="none"/><g><g class="mark-group role-scope" role="graphics-object" aria-roledescription="group mark container"><g transform="translate(0,0)"><path class="background" aria-hidden="true" d="M0,0h21.5615234375v12.5h-21.5615234375Z" pointer-events="none" opacity="1"/><g><g class="mark-symbol role-legend-symbol" pointer-events="none"><path transform="translate(6,6)" d="M5,0A5,5,0,1,1,-5,0A5,5,0,1,1,5,0" stroke="#4c78a8" stroke-width="1.5" opacity="0.7"/></g><g class="mark-text role-legend-label" pointer-events="none"><text text-anchor="start" transform="translate(16,9)" font-family="sans-serif" font-size="10px" fill="#000" opacity="1">1</text></g></g><path class="foreground" aria-hidden="true" d="" pointer-events="none" display="none"/></g><g transform="translate(0,16)"><path class="background" aria-hidden="true" d="M0,0h21.5615234375v12.5h-21.5615234375Z" pointer-events="none" opacity="1"/><g><g class="mark-symbol role-legend-symbol" pointer-events="none"><path transform="translate(6,6)" d="M5,0A5,5,0,1,1,-5,0A5,5,0,1,1,5,0" stroke="#f58518" stroke-width="1.5" opacity="0.7"/></g><g class="mark-text role-legend-label" pointer-events="none"><text text-anchor="start" transform="translate(16,9)" font-family="sans-serif" font-size="10px" fill="#000" opacity="1">2</text></g></g><path class="foreground" aria-hidden="true" d="" pointer-events="none" display="none"/></g><g transform="translate(0,32)"><path class="background" aria-hidden="true" d="M0,0h21.5615234375v12.5h-21.5615234375Z" pointer-events="none" opacity="1"/><g><g class="mark-symbol role-legend-symbol" pointer-events="none"><path transform="translate(6,6)" d="M5,0A5,5,0,1,1,-5,0A5,5,0,1,1,5,0" stroke="#e45756" stroke-width="1.5" opacity="0.7"/></g><g class="mark-text role-legend-label" pointer-events="none"><text text-anchor="start" transform="translate(16,9)" font-family="sans-serif" font-size="10px" fill="#000" opacity="1">3</text></g></g><path class="foreground" aria-hidden="true" d="" pointer-events="none" display="none"/></g></g></g><path class="foreground" aria-hidden="true" d="" pointer-events="none" display="none"/></g></g><g class="mark-text role-legend-title" pointer-events="none"><text text-anchor="start" transform="translate(0,9)" font-family="sans-serif" font-size="11px" font-weight="bold" fill="#000" opacity="1">X1</text></g></g><path class="foreground" aria-hidden="true" d="" pointer-events="none" display="none"/></g></g><g class="mark-group role-legend" role="graphics-symbol" aria-roledescription="legend" aria-label="Symbol legend titled 'X2' for shape with 5 values: 1, 2, 3, 4, 5"><g transform="translate(318,69)"><path class="background" aria-hidden="true" d="M0,0h22v91h-22Z" pointer-events="none"/><g><g class="mark-group role-legend-entry"><g transform="translate(0,16)"><path class="background" aria-hidden="true" d="M0,0h0v0h0Z" pointer-events="none"/><g><g class="mark-group role-scope" role="graphics-object" aria-roledescription="group mark container"><g transform="translate(0,0)"><path class="background" aria-hidden="true" d="M0,0h21.5615234375v12.5h-21.5615234375Z" pointer-events="none" opacity="1"/><g><g class="mark-symbol role-legend-symbol" pointer-events="none"><path transform="translate(6,6)" d="M5,0A5,5,0,1,1,-5,0A5,5,0,1,1,5,0" stroke="#888" stroke-width="1.5" opacity="0.7"/></g><g class="mark-text role-legend-label" pointer-events="none"><text text-anchor="start" transform="translate(16,9)" font-family="sans-serif" font-size="10px" fill="#000" opacity="1">1</text></g></g><path class="foreground" aria-hidden="true" d="" pointer-events="none" display="none"/></g><g transform="translate(0,16)"><path class="background" aria-hidden="true" d="M0,0h21.5615234375v12.5h-21.5615234375Z" pointer-events="none" opacity="1"/><g><g class="mark-symbol role-legend-symbol" pointer-events="none"><path transform="translate(6,6)" d="M-5,-5h10v10h-10Z" stroke="#888" stroke-width="1.5" opacity="0.7"/></g><g class="mark-text role-legend-label" pointer-events="none"><text text-anchor="start" transform="translate(16,9)" font-family="sans-serif" font-size="10px" fill="#000" opacity="1">2</text></g></g><path class="foreground" aria-hidden="true" d="" pointer-events="none" display="none"/></g><g transform="translate(0,31)"><path class="background" aria-hidden="true" d="M0,0h21.5615234375v11.830127018922191h-21.5615234375Z" pointer-events="none" opacity="1"/><g><g class="mark-symbol role-legend-symbol" pointer-events="none"><path transform="translate(6,6)" d="M0,-4.33L-5,4.33L5,4.33Z" stroke="#888" stroke-width="1.5" opacity="0.7"/></g><g class="mark-text role-legend-label" pointer-events="none"><text text-anchor="start" transform="translate(16,9)" font-family="sans-serif" font-size="10px" fill="#000" opacity="1">3</text></g></g><path class="foreground" aria-hidden="true" d="" pointer-events="none" display="none"/></g><g transform="translate(0,46)"><path class="background" aria-hidden="true" d="M0,0h21.5615234375v12.5h-21.5615234375Z" pointer-events="none" opacity="1"/><g><g class="mark-symbol role-legend-symbol" pointer-events="none"><path transform="translate(6,6)" d="M-5,-2L-5,2L-2,2L-2,5L2,5L2,2L5,2L5,-2L2,-2L2,-5L-2,-5L-2,-2Z" stroke="#888" stroke-width="1.5" opacity="0.7"/></g><g class="mark-text role-legend-label" pointer-events="none"><text text-anchor="start" transform="translate(16,9)" font-family="sans-serif" font-size="10px" fill="#000" opacity="1">4</text></g></g><path class="foreground" aria-hidden="true" d="" pointer-events="none" display="none"/></g><g transform="translate(0,62)"><path class="background" aria-hidden="true" d="M0,0h21.5615234375v12.5h-21.5615234375Z" pointer-events="none" opacity="1"/><g><g class="mark-symbol role-legend-symbol" pointer-events="none"><path transform="translate(6,6)" d="M-5,0L0,-5L5,0L0,5Z" stroke="#888" stroke-width="1.5" opacity="0.7"/></g><g class="mark-text role-legend-label" pointer-events="none"><text text-anchor="start" transform="translate(16,9)" font-family="sans-serif" font-size="10px" fill="#000" opacity="1">5</text></g></g><path class="foreground" aria-hidden="true" d="" pointer-events="none" display="none"/></g></g></g><path class="foreground" aria-hidden="true" d="" pointer-events="none" display="none"/></g></g><g class="mark-text role-legend-title" pointer-events="none"><text text-anchor="start" transform="translate(0,9)" font-family="sans-serif" font-size="11px" font-weight="bold" fill="#000" opacity="1">X2</text></g></g><path class="foreground" aria-hidden="true" d="" pointer-events="none" display="none"/></g></g><g class="mark-group role-title"><g transform="translate(150,-29)"><path class="background" aria-hidden="true" d="M0,0h0v0h0Z" pointer-events="none"/><g><g class="mark-text role-title-text" role="graphics-symbol" aria-roledescription="title" aria-label="Title text '100000 samples'" pointer-events="none"><text text-anchor="middle" transform="translate(0,19)" font-family="sans-serif" font-size="24px" font-weight="bold" fill="#000" opacity="1">100000 samples</text></g></g><path class="foreground" aria-hidden="true" d="" pointer-events="none" display="none"/></g></g></g><path class="foreground" aria-hidden="true" d="" display="none"/></g></g></g></svg>