<svg xmlns="http://www.w3.org/2000/svg" xmlns:xlink="http://www.w3.org/1999/xlink" version="1.1" class="marks" width="611" height="249" viewBox="0 0 611 249"><rect width="611" height="249" fill="white"/><g fill="none" stroke-miterlimit="10" transform="translate(105,5)"><g class="mark-group role-frame root" role="graphics-object" aria-roledescription="group mark container"><g transform="translate(0,0)"><path class="background" aria-hidden="true" d="M0.5,0.5h500v200h-500Z" stroke="#ddd"/><g><g class="mark-group role-axis" aria-hidden="true"><g transform="translate(0.5,200.5)"><path class="background" aria-hidden="true" d="M0,0h0v0h0Z" pointer-events="none"/><g><g class="mark-rule role-axis-grid" pointer-events="none"><line transform="translate(0,0)" x2="0" y2="-200" stroke="#ddd" stroke-width="1" opacity="1"/><line transform="translate(38,0)" x2="0" y2="-200" stroke="#ddd" stroke-width="1" opacity="1"/><line transform="translate(60,0)" x2="0" y2="-200" stroke="#ddd" stroke-width="1" opacity="1"/><line transform="translate(75,0)" x2="0" y2="-200" stroke="#ddd" stroke-width="1" opacity="1"/><line transform="translate(87,0)" x2="0" y2="-200" stroke="#ddd" stroke-width="1" opacity="1"/><line transform="translate(97,0)" x2="0" y2="-200" stroke="#ddd" stroke-width="1" opacity="1"/><line transform="translate(106,0)" x2="0" y2="-200" stroke="#ddd" stroke-width="1" opacity="1"/><line transform="translate(113,0)" x2="0" y2="-200" stroke="#ddd" stroke-width="1" opacity="1"/><line transform="translate(119,0)" x2="0" y2="-200" stroke="#ddd" stroke-width="1" opacity="1"/><line transform="translate(125,0)" x2="0" y2="-200" stroke="#ddd" stroke-width="1" opacity="1"/><line transform="translate(163,0)" x2="0" y2="-200" stroke="#ddd" stroke-width="1" opacity="1"/><line transform="translate(185,0)" x2="0" y2="-200" stroke="#ddd" stroke-width="1" opacity="1"/><line transform="translate(200,0)" x2="0" y2="-200" stroke="#ddd" stroke-width="1" opacity="1"/><line transform="translate(212,0)" x2="0" y2="-200" stroke="#ddd" stroke-width="1" opacity="1"/><line transform="translate(222,0)" x2="0" y2="-200" stroke="#ddd" stroke-width="1" opacity="1"/><line transform="translate(231,0)" x2="0" y2="-200" stroke="#ddd" stroke-width="1" opacity="1"/><line transform="translate(238,0)" x2="0" y2="-200" stroke="#ddd" stroke-width="1" opacity="1"/><line transform="translate(244,0)" x2="0" y2="-200" stroke="#ddd" stroke-width="1" opacity="1"/><line transform="translate(250,0)" x2="0" y2="-200" stroke="#ddd" stroke-width="1" opacity="1"/><line transform="translate(288,0)" x2="0" y2="-200" stroke="#ddd" stroke-width="1" opacity="1"/><line transform="translate(310,0)" x2="0" y2="-200" stroke="#ddd" stroke-width="1" opacity="1"/><line transform="translate(325,0)" x2="0" y2="-200" stroke="#ddd" stroke-width="1" opacity="1"/><line transform="translate(337,0)" x2="0" y2="-200" stroke="#ddd" stroke-width="1" opacity="1"/><line transform="translate(347,0)" x2="0" y2="-200" stroke="#ddd" stroke-width="1" opacity="1"/><line transform="translate(356,0)" x2="0" y2="-200" stroke="#ddd" stroke-width="1" opacity="1"/><line transform="translate(363,0)" x2="0" y2="-200" stroke="#ddd" stroke-width="1" opacity="1"/><line transform="translate(369,0)" x2="0" y2="-200" stroke="#ddd" stroke-width="1" opacity="1"/><line transform="translate(375,0)" x2="0" y2="-200" stroke="#ddd" stroke-width="1" opacity="1"/><line transform="translate(413,0)" x2="0" y2="-200" stroke="#ddd" stroke-width="1" opacity="1"/><line transform="translate(435,0)" x2="0" y2="-200" stroke="#ddd" stroke-width="1" opacity="1"/><line transform="translate(450,0)" x2="0" y2="-200" stroke="#ddd" stroke-width="1" opacity="1"/><line transform="translate(462,0)" x2="0" y2="-200" stroke="#ddd" stroke-width="1" opacity="1"/><line transform="translate(472,0)" x2="0" y2="-200" stroke="#ddd" stroke-width="1" opacity="1"/><line transform="translate(481,0)" x2="0" y2="-200" stroke="#ddd" stroke-width="1" opacity="1"/><line transform="translate(488,0)" x2="0" y2="-200" stroke="#ddd" stroke-width="1" opacity="1"/><line transform="translate(494,0)" x2="0" y2="-200" stroke="#ddd" stroke-width="1" opacity="1"/><line transform="translate(500,0)" x2="0" y2="-200" stroke="#ddd" stroke-width="1" opacity="1"/></g></g><path class="foreground" aria-hidden="true" d="" pointer-events="none" display="none"/></g></g><g class="mark-group role-axis" role="graphics-symbol" aria-roledescription="axis" aria-label="X-axis titled 'Relative Error' for a log scale with values from 0.001 to 10"><g transform="translate(0.5,200.5)"><path class="background" aria-hidden="true" d="M0,0h0v0h0Z" pointer-events="none"/><g><g class="mark-rule role-axis-tick" pointer-events="none"><line transform="translate(0,0)" x2="0" y2="5" stroke="#888" stroke-width="1" opacity="1"/><line transform="translate(38,0)" x2="0" y2="5" stroke="#888" stroke-width="1" opacity="1"/><line transform="translate(60,0)" x2="0" y2="5" stroke="#888" stroke-width="1" opacity="1"/><line transform="translate(75,0)" x2="0" y2="5" stroke="#888" stroke-width="1" opacity="1"/><line transform="translate(87,0)" x2="0" y2="5" stroke="#888" stroke-width="1" opacity="1"/><line transform="translate(97,0)" x2="0" y2="5" stroke="#888" stroke-width="1" opacity="1"/><line transform="translate(106,0)" x2="0" y2="5" stroke="#888" stroke-width="1" opacity="1"/><line transform="translate(113,0)" x2="0" y2="5" stroke="#888" stroke-width="1" opacity="1"/><line transform="translate(119,0)" x2="0" y2="5" stroke="#888" stroke-width="1" opacity="1"/><line transform="translate(125,0)" x2="0" y2="5" stroke="#888" stroke-width="1" opacity="1"/><line transform="translate(163,0)" x2="0" y2="5" stroke="#888" stroke-width="1" opacity="1"/><line transform="translate(185,0)" x2="0" y2="5" stroke="#888" stroke-width="1" opacity="1"/><line transform="translate(200,0)" x2="0" y2="5" stroke="#888" stroke-width="1" opacity="1"/><line transform="translate(212,0)" x2="0" y2="5" stroke="#888" stroke-width="1" opacity="1"/><line transform="translate(222,0)" x2="0" y2="5" stroke="#888" stroke-width="1" opacity="1"/><line transform="translate(231,0)" x2="0" y2="5" stroke="#888" stroke-width="1" opacity="1"/><line transform="translate(238,0)" x2="0" y2="5" stroke="#888" stroke-width="1" opacity="1"/><line transform="translate(244,0)" x2="0" y2="5" stroke="#888" stroke-width="1" opacity="1"/><line transform="translate(250,0)" x2="0" y2="5" stroke="#888" stroke-width="1" opacity="1"/><line transform="translate(288,0)" x2="0" y2="5" stroke="#888" stroke-width="1" opacity="1"/><line transform="translate(310,0)" x2="0" y2="5" stroke="#888" stroke-width="1" opacity="1"/><line transform="translate(325,0)" x2="0" y2="5" stroke="#888" stroke-width="1" opacity="1"/><line transform="translate(337,0)" x2="0" y2="5" stroke="#888" stroke-width="1" opacity="1"/><line transform="translate(347,0)" x2="0" y2="5" stroke="#888" stroke-width="1" opacity="1"/><line transform="translate(356,0)" x2="0" y2="5" stroke="#888" stroke-width="1" opacity="1"/><line transform="translate(363,0)" x2="0" y2="5" stroke="#888" stroke-width="1" opacity="1"/><line transform="translate(369,0)" x2="0" y2="5" stroke="#888" stroke-width="1" opacity="1"/><line transform="translate(375,0)" x2="0" y2="5" stroke="#888" stroke-width="1" opacity="1"/><line transform="translate(413,0)" x2="0" y2="5" stroke="#888" stroke-width="1" opacity="1"/><line transform="translate(435,0)" x2="0" y2="5" stroke="#888" stroke-width="1" opacity="1"/><line transform="translate(450,0)" x2="0" y2="5" stroke="#888" stroke-width="1" opacity="1"/><line transform="translate(462,0)" x2="0" y2="5" stroke="#888" stroke-width="1" opacity="1"/><line transform="translate(472,0)" x2="0" y2="5" stroke="#888" stroke-width="1" opacity="1"/><line transform="translate(481,0)" x2="0" y2="5" stroke="#888" stroke-width="1" opacity="1"/><line transform="translate(488,0)" x2="0" y2="5" stroke="#888" stroke-width="1" opacity="1"/><line transform="translate(494,0)" x2="0" y2="5" stroke="#888" stroke-width="1" opacity="1"/><line transform="translate(500,0)" x2="0" y2="5" stroke="#888" stroke-width="1" opacity="1"/></g><g class="mark-text role-axis-label" pointer-events="none"><text text-anchor="start" transform="translate(0,18)" font-family="sans-serif" font-size="14px" fill="#000" opacity="1">0.001</text><text text-anchor="middle" transform="translate(37.62874945799765,18)" font-family="sans-serif" font-size="14px" fill="#000" opacity="0">0.002</text><text text-anchor="middle" transform="translate(59.64015683995777,18)" font-family="sans-serif" font-size="14px" fill="#000" opacity="1"/><text text-anchor="middle" transform="translate(75.2574989159953,18)" font-family="sans-serif" font-size="14px" fill="#000" opacity="1"/><text text-anchor="middle" transform="translate(87.37125054200234,18)" font-family="sans-serif" font-size="14px" fill="#000" opacity="1"/><text text-anchor="middle" transform="translate(97.26890629795541,18)" font-family="sans-serif" font-size="14px" fill="#000" opacity="1"/><text text-anchor="middle" transform="translate(105.63725500178211,18)" font-family="sans-serif" font-size="14px" fill="#000" opacity="1"/><text text-anchor="middle" transform="translate(112.8862483739929,18)" font-family="sans-serif" font-size="14px" fill="#000" opacity="1"/><text text-anchor="middle" transform="translate(119.28031367991558,18)" font-family="sans-serif" font-size="14px" fill="#000" opacity="1"/><text text-anchor="middle" transform="translate(125,18)" font-family="sans-serif" font-size="14px" fill="#000" opacity="1">0.01</text><text text-anchor="middle" transform="translate(162.62874945799763,18)" font-family="sans-serif" font-size="14px" fill="#000" opacity="1">0.02</text><text text-anchor="middle" transform="translate(184.64015683995777,18)" font-family="sans-serif" font-size="14px" fill="#000" opacity="1"/><text text-anchor="middle" transform="translate(200.25749891599528,18)" font-family="sans-serif" font-size="14px" fill="#000" opacity="1"/><text text-anchor="middle" transform="translate(212.37125054200231,18)" font-family="sans-serif" font-size="14px" fill="#000" opacity="1"/><text text-anchor="middle" transform="translate(222.26890629795543,18)" font-family="sans-serif" font-size="14px" fill="#000" opacity="1"/><text text-anchor="middle" transform="translate(230.63725500178205,18)" font-family="sans-serif" font-size="14px" fill="#000" opacity="1"/><text text-anchor="middle" transform="translate(237.8862483739929,18)" font-family="sans-serif" font-size="14px" fill="#000" opacity="1"/><text text-anchor="middle" transform="translate(244.2803136799156,18)" font-family="sans-serif" font-size="14px" fill="#000" opacity="1"/><text text-anchor="middle" transform="translate(250,18)" font-family="sans-serif" font-size="14px" fill="#000" opacity="1">0.1</text><text text-anchor="middle" transform="translate(287.6287494579976,18)" font-family="sans-serif" font-size="14px" fill="#000" opacity="1">0.2</text><text text-anchor="middle" transform="translate(309.6401568399578,18)" font-family="sans-serif" font-size="14px" fill="#000" opacity="1"/><text text-anchor="middle" transform="translate(325.25749891599526,18)" font-family="sans-serif" font-size="14px" fill="#000" opacity="1"/><text text-anchor="middle" transform="translate(337.3712505420023,18)" font-family="sans-serif" font-size="14px" fill="#000" opacity="1"/><text text-anchor="middle" transform="translate(347.2689062979554,18)" font-family="sans-serif" font-size="14px" fill="#000" opacity="1"/><text text-anchor="middle" transform="translate(355.6372550017821,18)" font-family="sans-serif" font-size="14px" fill="#000" opacity="1"/><text text-anchor="middle" transform="translate(362.88624837399294,18)" font-family="sans-serif" font-size="14px" fill="#000" opacity="1"/><text text-anchor="middle" transform="translate(369.2803136799156,18)" font-family="sans-serif" font-size="14px" fill="#000" opacity="1"/><text text-anchor="middle" transform="translate(374.99999999999994,18)" font-family="sans-serif" font-size="14px" fill="#000" opacity="1">1</text><text text-anchor="middle" transform="translate(412.6287494579976,18)" font-family="sans-serif" font-size="14px" fill="#000" opacity="1">2</text><text text-anchor="middle" transform="translate(434.64015683995774,18)" font-family="sans-serif" font-size="14px" fill="#000" opacity="1"/><text text-anchor="middle" transform="translate(450.25749891599526,18)" font-family="sans-serif" font-size="14px" fill="#000" opacity="1"/><text text-anchor="middle" transform="translate(462.37125054200226,18)" font-family="sans-serif" font-size="14px" fill="#000" opacity="1"/><text text-anchor="middle" transform="translate(472.26890629795537,18)" font-family="sans-serif" font-size="14px" fill="#000" opacity="1"/><text text-anchor="middle" transform="translate(480.6372550017821,18)" font-family="sans-serif" font-size="14px" fill="#000" opacity="1"/><text text-anchor="middle" transform="translate(487.88624837399294,18)" font-family="sans-serif" font-size="14px" fill="#000" opacity="1"/><text text-anchor="middle" transform="translate(494.2803136799156,18)" font-family="sans-serif" font-size="14px" fill="#000" opacity="1"/><text text-anchor="end" transform="translate(500,18)" font-family="sans-serif" font-size="14px" fill="#000" opacity="1">10</text></g><g class="mark-rule role-axis-domain" pointer-events="none"><line transform="translate(0,0)" x2="500" y2="0" stroke="#888" stroke-width="1" opacity="1"/></g><g class="mark-text role-axis-title" pointer-events="none"><text text-anchor="middle" transform="translate(250,36)" font-family="sans-serif" font-size="14px" font-weight="bold" fill="#000" opacity="1">Relative Error</text></g></g><path class="foreground" aria-hidden="true" d="" pointer-events="none" display="none"/></g></g><g class="mark-group role-axis" role="graphics-symbol" aria-roledescription="axis" aria-label="Y-axis titled 'Dataset' for a discrete scale with 4 values: Initial data, Weight = 1, Weight = 2, Weight = 10"><g transform="translate(0.5,0.5)"><path class="background" aria-hidden="true" d="M0,0h0v0h0Z" pointer-events="none"/><g><g class="mark-rule role-axis-tick" pointer-events="none"><line transform="translate(0,25)" x2="-5" y2="0" stroke="#888" stroke-width="1" opacity="1"/><line transform="translate(0,75)" x2="-5" y2="0" stroke="#888" stroke-width="1" opacity="1"/><line transform="translate(0,125)" x2="-5" y2="0" stroke="#888" stroke-width="1" opacity="1"/><line transform="translate(0,175)" x2="-5" y2="0" stroke="#888" stroke-width="1" opacity="1"/></g><g class="mark-text role-axis-label" pointer-events="none"><text text-anchor="end" transform="translate(-7,28.5)" font-family="sans-serif" font-size="14px" fill="#000" opacity="1">Initial data</text><text text-anchor="end" transform="translate(-7,78.5)" font-family="sans-serif" font-size="14px" fill="#000" opacity="1">Weight = 1</text><text text-anchor="end" transform="translate(-7,128.5)" font-family="sans-serif" font-size="14px" fill="#000" opacity="1">Weight = 2</text><text text-anchor="end" transform="translate(-7,178.5)" font-family="sans-serif" font-size="14px" fill="#000" opacity="1">Weight = 10</text></g><g class="mark-rule role-axis-domain" pointer-events="none"><line transform="translate(0,0)" x2="0" y2="200" stroke="#888" stroke-width="1" opacity="1"/></g><g class="mark-text role-axis-title" pointer-events="none"><text text-anchor="middle" transform="translate(-85.8466796875,100) rotate(-90) translate(0,-3)" font-family="sans-serif" font-size="14px" font-weight="bold" fill="#000" opacity="1">Dataset</text></g></g><path class="foreground" aria-hidden="true" d="" pointer-events="none" display="none"/></g></g><g class="mark-rule role-mark layer_0_marks" aria-hidden="true"><line transform="translate(494.32837892245647,25)" x2="1.622275110382077" y2="0" stroke="black"/><line transform="translate(355.58252046325407,75)" x2="5.453323033686047" y2="0" stroke="black"/><line transform="translate(312.4545489195216,125)" x2="10.0537353236449" y2="0" stroke="black"/><line transform="translate(115.84216772049594,175)" x2="111.7418612420745" y2="0" stroke="black"/></g><g class="mark-rule role-mark layer_1_marks" aria-hidden="true"><line transform="translate(499.0587092726098,25)" x2="0.8683678298091877" y2="0" stroke="black"/><line transform="translate(364.76478743673727,75)" x2="2.3556945222919126" y2="0" stroke="black"/><line transform="translate(327.3123091579535,125)" x2="4.079896231432713" y2="0" stroke="black"/><line transform="translate(242.44510367416743,175)" x2="15.369472200746515" y2="0" stroke="black"/></g><g class="mark-rect role-mark layer_2_marks" role="graphics-object" aria-roledescription="rect mark container"><path aria-label="Relative Error: 9.2812235272; Dataset: Initial data; upper_box_Relative Error: 9.82810243147; Max of Relative Error: 9.98657612394; Q3 of Relative Error: 9.82810243147; Median of Relative Error: 9.56219833739; Q1 of Relative Error: 9.2812235272; Min of Relative Error: 9.00797207909" role="graphics-symbol" aria-roledescription="box" d="M495.95065403283854,5h3.108055239771261v40h-3.108055239771261Z" fill="#4c78a8"/><path aria-label="Relative Error: 0.773190924886; Dataset: Weight = 1; upper_box_Relative Error: 0.828167721448; Max of Relative Error: 0.864895934479; Q3 of Relative Error: 0.828167721448; Median of Relative Error: 0.799327517814; Q1 of Relative Error: 0.773190924886; Min of Relative Error: 0.699294582456" role="graphics-symbol" aria-roledescription="box" d="M361.0358434969401,55h3.7289439397971478v40h-3.7289439397971478Z" fill="#4c78a8"/><path aria-label="Relative Error: 0.380247418181; Dataset: Weight = 2; upper_box_Relative Error: 0.415430590818; Max of Relative Error: 0.447855222674; Q3 of Relative Error: 0.415430590818; Median of Relative Error: 0.397233708076; Q1 of Relative Error: 0.380247418181; Min of Relative Error: 0.315963118334" role="graphics-symbol" aria-roledescription="box" d="M322.5082842431665,105h4.804024914787021v40h-4.804024914787021Z" fill="#4c78a8"/><path aria-label="Relative Error: 0.066171690792; Dataset: Weight = 10; upper_box_Relative Error: 0.0870083292621; Max of Relative Error: 0.115482614328; Q3 of Relative Error: 0.0870083292621; Median of Relative Error: 0.0784590142537; Q1 of Relative Error: 0.066171690792; Min of Relative Error: 0.00844767781043" role="graphics-symbol" aria-roledescription="box" d="M227.58402896257044,155h14.861074711596984v40h-14.861074711596984Z" fill="#4c78a8"/></g><g class="mark-rect role-mark layer_3_marks" aria-hidden="true"><path d="M497.0697184388548,5h1v40h-1Z" fill="white" opacity="0.7"/><path d="M362.3405955423029,55h1v40h-1Z" fill="white" opacity="0.7"/><path d="M324.3807617912868,105h1v40h-1Z" fill="white" opacity="0.7"/><path d="M236.33035592778663,155h1v40h-1Z" fill="white" opacity="0.7"/></g></g><path class="foreground" aria-hidden="true" d="" display="none"/></g></g></g></svg>