<svg xmlns="http://www.w3.org/2000/svg" xmlns:xlink="http://www.w3.org/1999/xlink" version="1.1" class="marks" width="611" height="249" viewBox="0 0 611 249"><rect width="611" height="249" fill="white"/><g fill="none" stroke-miterlimit="10" transform="translate(105,5)"><g class="mark-group role-frame root" role="graphics-object" aria-roledescription="group mark container"><g transform="translate(0,0)"><path class="background" aria-hidden="true" d="M0.5,0.5h500v200h-500Z" stroke="#ddd"/><g><g class="mark-group role-axis" aria-hidden="true"><g transform="translate(0.5,200.5)"><path class="background" aria-hidden="true" d="M0,0h0v0h0Z" pointer-events="none"/><g><g class="mark-rule role-axis-grid" pointer-events="none"><line transform="translate(0,0)" x2="0" y2="-200" stroke="#ddd" stroke-width="1" opacity="1"/><line transform="translate(38,0)" x2="0" y2="-200" stroke="#ddd" stroke-width="1" opacity="1"/><line transform="translate(60,0)" x2="0" y2="-200" stroke="#ddd" stroke-width="1" opacity="1"/><line transform="translate(75,0)" x2="0" y2="-200" stroke="#ddd" stroke-width="1" opacity="1"/><line transform="translate(87,0)" x2="0" y2="-200" stroke="#ddd" stroke-width="1" opacity="1"/><line transform="translate(97,0)" x2="0" y2="-200" stroke="#ddd" stroke-width="1" opacity="1"/><line transform="translate(106,0)" x2="0" y2="-200" stroke="#ddd" stroke-width="1" opacity="1"/><line transform="translate(113,0)" x2="0" y2="-200" stroke="#ddd" stroke-width="1" opacity="1"/><line transform="translate(119,0)" x2="0" y2="-200" stroke="#ddd" stroke-width="1" opacity="1"/><line transform="translate(125,0)" x2="0" y2="-200" stroke="#ddd" stroke-width="1" opacity="1"/><line transform="translate(163,0)" x2="0" y2="-200" stroke="#ddd" stroke-width="1" opacity="1"/><line transform="translate(185,0)" x2="0" y2="-200" stroke="#ddd" stroke-width="1" opacity="1"/><line transform="translate(200,0)" x2="0" y2="-200" stroke="#ddd" stroke-width="1" opacity="1"/><line transform="translate(212,0)" x2="0" y2="-200" stroke="#ddd" stroke-width="1" opacity="1"/><line transform="translate(222,0)" x2="0" y2="-200" stroke="#ddd" stroke-width="1" opacity="1"/><line transform="translate(231,0)" x2="0" y2="-200" stroke="#ddd" stroke-width="1" opacity="1"/><line transform="translate(238,0)" x2="0" y2="-200" stroke="#ddd" stroke-width="1" opacity="1"/><line transform="translate(244,0)" x2="0" y2="-200" stroke="#ddd" stroke-width="1" opacity="1"/><line transform="translate(250,0)" x2="0" y2="-200" stroke="#ddd" stroke-width="1" opacity="1"/><line transform="translate(288,0)" x2="0" y2="-200" stroke="#ddd" stroke-width="1" opacity="1"/><line transform="translate(310,0)" x2="0" y2="-200" stroke="#ddd" stroke-width="1" opacity="1"/><line transform="translate(325,0)" x2="0" y2="-200" stroke="#ddd" stroke-width="1" opacity="1"/><line transform="translate(337,0)" x2="0" y2="-200" stroke="#ddd" stroke-width="1" opacity="1"/><line transform="translate(347,0)" x2="0" y2="-200" stroke="#ddd" stroke-width="1" opacity="1"/><line transform="translate(356,0)" x2="0" y2="-200" stroke="#ddd" stroke-width="1" opacity="1"/><line transform="translate(363,0)" x2="0" y2="-200" stroke="#ddd" stroke-width="1" opacity="1"/><line transform="translate(369,0)" x2="0" y2="-200" stroke="#ddd" stroke-width="1" opacity="1"/><line transform="translate(375,0)" x2="0" y2="-200" stroke="#ddd" stroke-width="1" opacity="1"/><line transform="translate(413,0)" x2="0" y2="-200" stroke="#ddd" stroke-width="1" opacity="1"/><line transform="translate(435,0)" x2="0" y2="-200" stroke="#ddd" stroke-width="1" opacity="1"/><line transform="translate(450,0)" x2="0" y2="-200" stroke="#ddd" stroke-width="1" opacity="1"/><line transform="translate(462,0)" x2="0" y2="-200" stroke="#ddd" stroke-width="1" opacity="1"/><line transform="translate(472,0)" x2="0" y2="-200" stroke="#ddd" stroke-width="1" opacity="1"/><line transform="translate(481,0)" x2="0" y2="-200" stroke="#ddd" stroke-width="1" opacity="1"/><line transform="translate(488,0)" x2="0" y2="-200" stroke="#ddd" stroke-width="1" opacity="1"/><line transform="translate(494,0)" x2="0" y2="-200" stroke="#ddd" stroke-width="1" opacity="1"/><line transform="translate(500,0)" x2="0" y2="-200" stroke="#ddd" stroke-width="1" opacity="1"/></g></g><path class="foreground" aria-hidden="true" d="" pointer-events="none" display="none"/></g></g><g class="mark-group role-axis" role="graphics-symbol" aria-roledescription="axis" aria-label="X-axis titled 'Relative Error' for a log scale with values from 0.001 to 10"><g transform="translate(0.5,200.5)"><path class="background" aria-hidden="true" d="M0,0h0v0h0Z" pointer-events="none"/><g><g class="mark-rule role-axis-tick" pointer-events="none"><line transform="translate(0,0)" x2="0" y2="5" stroke="#888" stroke-width="1" opacity="1"/><line transform="translate(38,0)" x2="0" y2="5" stroke="#888" stroke-width="1" opacity="1"/><line transform="translate(60,0)" x2="0" y2="5" stroke="#888" stroke-width="1" opacity="1"/><line transform="translate(75,0)" x2="0" y2="5" stroke="#888" stroke-width="1" opacity="1"/><line transform="translate(87,0)" x2="0" y2="5" stroke="#888" stroke-width="1" opacity="1"/><line transform="translate(97,0)" x2="0" y2="5" stroke="#888" stroke-width="1" opacity="1"/><line transform="translate(106,0)" x2="0" y2="5" stroke="#888" stroke-width="1" opacity="1"/><line transform="translate(113,0)" x2="0" y2="5" stroke="#888" stroke-width="1" opacity="1"/><line transform="translate(119,0)" x2="0" y2="5" stroke="#888" stroke-width="1" opacity="1"/><line transform="translate(125,0)" x2="0" y2="5" stroke="#888" stroke-width="1" opacity="1"/><line transform="translate(163,0)" x2="0" y2="5" stroke="#888" stroke-width="1" opacity="1"/><line transform="translate(185,0)" x2="0" y2="5" stroke="#888" stroke-width="1" opacity="1"/><line transform="translate(200,0)" x2="0" y2="5" stroke="#888" stroke-width="1" opacity="1"/><line transform="translate(212,0)" x2="0" y2="5" stroke="#888" stroke-width="1" opacity="1"/><line transform="translate(222,0)" x2="0" y2="5" stroke="#888" stroke-width="1" opacity="1"/><line transform="translate(231,0)" x2="0" y2="5" stroke="#888" stroke-width="1" opacity="1"/><line transform="translate(238,0)" x2="0" y2="5" stroke="#888" stroke-width="1" opacity="1"/><line transform="translate(244,0)" x2="0" y2="5" stroke="#888" stroke-width="1" opacity="1"/><line transform="translate(250,0)" x2="0" y2="5" stroke="#888" stroke-width="1" opacity="1"/><line transform="translate(288,0)" x2="0" y2="5" stroke="#888" stroke-width="1" opacity="1"/><line transform="translate(310,0)" x2="0" y2="5" stroke="#888" stroke-width="1" opacity="1"/><line transform="translate(325,0)" x2="0" y2="5" stroke="#888" stroke-width="1" opacity="1"/><line transform="translate(337,0)" x2="0" y2="5" stroke="#888" stroke-width="1" opacity="1"/><line transform="translate(347,0)" x2="0" y2="5" stroke="#888" stroke-width="1" opacity="1"/><line transform="translate(356,0)" x2="0" y2="5" stroke="#888" stroke-width="1" opacity="1"/><line transform="translate(363,0)" x2="0" y2="5" stroke="#888" stroke-width="1" opacity="1"/><line transform="translate(369,0)" x2="0" y2="5" stroke="#888" stroke-width="1" opacity="1"/><line transform="translate(375,0)" x2="0" y2="5" stroke="#888" stroke-width="1" opacity="1"/><line transform="translate(413,0)" x2="0" y2="5" stroke="#888" stroke-width="1" opacity="1"/><line transform="translate(435,0)" x2="0" y2="5" stroke="#888" stroke-width="1" opacity="1"/><line transform="translate(450,0)" x2="0" y2="5" stroke="#888" stroke-width="1" opacity="1"/><line transform="translate(462,0)" x2="0" y2="5" stroke="#888" stroke-width="1" opacity="1"/><line transform="translate(472,0)" x2="0" y2="5" stroke="#888" stroke-width="1" opacity="1"/><line transform="translate(481,0)" x2="0" y2="5" stroke="#888" stroke-width="1" opacity="1"/><line transform="translate(488,0)" x2="0" y2="5" stroke="#888" stroke-width="1" opacity="1"/><line transform="translate(494,0)" x2="0" y2="5" stroke="#888" stroke-width="1" opacity="1"/><line transform="translate(500,0)" x2="0" y2="5" stroke="#888" stroke-width="1" opacity="1"/></g><g class="mark-text role-axis-label" pointer-events="none"><text text-anchor="start" transform="translate(0,18)" font-family="sans-serif" font-size="14px" fill="#000" opacity="1">0.001</text><text text-anchor="middle" transform="translate(37.62874945799765,18)" font-family="sans-serif" font-size="14px" fill="#000" opacity="0">0.002</text><text text-anchor="middle" transform="translate(59.64015683995777,18)" font-family="sans-serif" font-size="14px" fill="#000" opacity="1"/><text text-anchor="middle" transform="translate(75.2574989159953,18)" font-family="sans-serif" font-size="14px" fill="#000" opacity="1"/><text text-anchor="middle" transform="translate(87.37125054200234,18)" font-family="sans-serif" font-size="14px" fill="#000" opacity="1"/><text text-anchor="middle" transform="translate(97.26890629795541,18)" font-family="sans-serif" font-size="14px" fill="#000" opacity="1"/><text text-anchor="middle" transform="translate(105.63725500178211,18)" font-family="sans-serif" font-size="14px" fill="#000" opacity="1"/><text text-anchor="middle" transform="translate(112.8862483739929,18)" font-family="sans-serif" font-size="14px" fill="#000" opacity="1"/><text text-anchor="middle" transform="translate(119.28031367991558,18)" font-family="sans-serif" font-size="14px" fill="#000" opacity="1"/><text text-anchor="middle" transform="translate(125,18)" font-family="sans-serif" font-size="14px" fill="#000" opacity="1">0.01</text><text text-anchor="middle" transform="translate(162.62874945799763,18)" font-family="sans-serif" font-size="14px" fill="#000" opacity="1">0.02</text><text text-anchor="middle" transform="translate(184.64015683995777,18)" font-family="sans-serif" font-size="14px" fill="#000" opacity="1"/><text text-anchor="middle" transform="translate(200.25749891599528,18)" font-family="sans-serif" font-size="14px" fill="#000" opacity="1"/><text text-anchor="middle" transform="translate(212.37125054200231,18)" font-family="sans-serif" font-size="14px" fill="#000" opacity="1"/><text text-anchor="middle" transform="translate(222.26890629795543,18)" font-family="sans-serif" font-size="14px" fill="#000" opacity="1"/><text text-anchor="middle" transform="translate(230.63725500178205,18)" font-family="sans-serif" font-size="14px" fill="#000" opacity="1"/><text text-anchor="middle" transform="translate(237.8862483739929,18)" font-family="sans-serif" font-size="14px" fill="#000" opacity="1"/><text text-anchor="middle" transform="translate(244.2803136799156,18)" font-family="sans-serif" font-size="14px" fill="#000" opacity="1"/><text text-anchor="middle" transform="translate(250,18)" font-family="sans-serif" font-size="14px" fill="#000" opacity="1">0.1</text><text text-anchor="middle" transform="translate(287.6287494579976,18)" font-family="sans-serif" font-size="14px" fill="#000" opacity="1">0.2</text><text text-anchor="middle" transform="translate(309.6401568399578,18)" font-family="sans-serif" font-size="14px" fill="#000" opacity="1"/><text text-anchor="middle" transform="translate(325.25749891599526,18)" font-family="sans-serif" font-size="14px" fill="#000" opacity="1"/><text text-anchor="middle" transform="translate(337.3712505420023,18)" font-family="sans-serif" font-size="14px" fill="#000" opacity="1"/><text text-anchor="middle" transform="translate(347.2689062979554,18)" font-family="sans-serif" font-size="14px" fill="#000" opacity="1"/><text text-anchor="middle" transform="translate(355.6372550017821,18)" font-family="sans-serif" font-size="14px" fill="#000" opacity="1"/><text text-anchor="middle" transform="translate(362.88624837399294,18)" font-family="sans-serif" font-size="14px" fill="#000" opacity="1"/><text text-anchor="middle" transform="translate(369.2803136799156,18)" font-family="sans-serif" font-size="14px" fill="#000" opacity="1"/><text text-anchor="middle" transform="translate(374.99999999999994,18)" font-family="sans-serif" font-size="14px" fill="#000" opacity="1">1</text><text text-anchor="middle" transform="translate(412.6287494579976,18)" font-family="sans-serif" font-size="14px" fill="#000" opacity="1">2</text><text text-anchor="middle" transform="translate(434.64015683995774,18)" font-family="sans-serif" font-size="14px" fill="#000" opacity="1"/><text text-anchor="middle" transform="translate(450.25749891599526,18)" font-family="sans-serif" font-size="14px" fill="#000" opacity="1"/><text text-anchor="middle" transform="translate(462.37125054200226,18)" font-family="sans-serif" font-size="14px" fill="#000" opacity="1"/><text text-anchor="middle" transform="translate(472.26890629795537,18)" font-family="sans-serif" font-size="14px" fill="#000" opacity="1"/><text text-anchor="middle" transform="translate(480.6372550017821,18)" font-family="sans-serif" font-size="14px" fill="#000" opacity="1"/><text text-anchor="middle" transform="translate(487.88624837399294,18)" font-family="sans-serif" font-size="14px" fill="#000" opacity="1"/><text text-anchor="middle" transform="translate(494.2803136799156,18)" font-family="sans-serif" font-size="14px" fill="#000" opacity="1"/><text text-anchor="end" transform="translate(500,18)" font-family="sans-serif" font-size="14px" fill="#000" opacity="1">10</text></g><g class="mark-rule role-axis-domain" pointer-events="none"><line transform="translate(0,0)" x2="500" y2="0" stroke="#888" stroke-width="1" opacity="1"/></g><g class="mark-text role-axis-title" pointer-events="none"><text text-anchor="middle" transform="translate(250,36)" font-family="sans-serif" font-size="14px" font-weight="bold" fill="#000" opacity="1">Relative Error</text></g></g><path class="foreground" aria-hidden="true" d="" pointer-events="none" display="none"/></g></g><g class="mark-group role-axis" role="graphics-symbol" aria-roledescription="axis" aria-label="Y-axis titled 'Dataset' for a discrete scale with 4 values: Initial data, Weight = 1, Weight = 2, Weight = 10"><g transform="translate(0.5,0.5)"><path class="background" aria-hidden="true" d="M0,0h0v0h0Z" pointer-events="none"/><g><g class="mark-rule role-axis-tick" pointer-events="none"><line transform="translate(0,25)" x2="-5" y2="0" stroke="#888" stroke-width="1" opacity="1"/><line transform="translate(0,75)" x2="-5" y2="0" stroke="#888" stroke-width="1" opacity="1"/><line transform="translate(0,125)" x2="-5" y2="0" stroke="#888" stroke-width="1" opacity="1"/><line transform="translate(0,175)" x2="-5" y2="0" stroke="#888" stroke-width="1" opacity="1"/></g><g class="mark-text role-axis-label" pointer-events="none"><text text-anchor="end" transform="translate(-7,28.5)" font-family="sans-serif" font-size="14px" fill="#000" opacity="1">Initial data</text><text text-anchor="end" transform="translate(-7,78.5)" font-family="sans-serif" font-size="14px" fill="#000" opacity="1">Weight = 1</text><text text-anchor="end" transform="translate(-7,128.5)" font-family="sans-serif" font-size="14px" fill="#000" opacity="1">Weight = 2</text><text text-anchor="end" transform="translate(-7,178.5)" font-family="sans-serif" font-size="14px" fill="#000" opacity="1">Weight = 10</text></g><g class="mark-rule role-axis-domain" pointer-events="none"><line transform="translate(0,0)" x2="0" y2="200" stroke="#888" stroke-width="1" opacity="1"/></g><g class="mark-text role-axis-title" pointer-events="none"><text text-anchor="middle" transform="translate(-85.8466796875,100) rotate(-90) translate(0,-3)" font-family="sans-serif" font-size="14px" font-weight="bold" fill="#000" opacity="1">Dataset</text></g></g><path class="foreground" aria-hidden="true" d="" pointer-events="none" display="none"/></g></g><g class="mark-rule role-mark layer_0_marks" aria-hidden="true"><line transform="translate(494.4097683507544,25)" x2="1.072947532865669" y2="0" stroke="black"/><line transform="translate(357.12875216207385,75)" x2="3.507809966010541" y2="0" stroke="black"/><line transform="translate(314.38940489633023,125)" x2="7.4596590062784" y2="0" stroke="black"/><line transform="translate(83.61690264245817,175)" x2="142.4157969945663" y2="0" stroke="black"/></g><g class="mark-rule role-mark layer_1_marks" aria-hidden="true"><line transform="translate(498.3988558694389,25)" x2="1.5792454285214035" y2="0" stroke="black"/><line transform="translate(365.0904516912724,75)" x2="3.2292584949913703" y2="0" stroke="black"/><line transform="translate(327.97304279692287,125)" x2="5.359523184212321" y2="0" stroke="black"/><line transform="translate(244.23371847003068,175)" x2="18.686606441364006" y2="0" stroke="black"/></g><g class="mark-rect role-mark layer_2_marks" role="graphics-object" aria-roledescription="rect mark container"><path aria-label="Relative Error: 9.20156560889; Dataset: Initial data; upper_box_Relative Error: 9.70936543181; Max of Relative Error: 9.99596692351; Q3 of Relative Error: 9.70936543181; Median of Relative Error: 9.4295088618; Q1 of Relative Error: 9.20156560889; Min of Relative Error: 9.02148739817" role="graphics-symbol" aria-roledescription="box" d="M495.4827158836201,5h2.916139985818802v40h-2.916139985818802Z" fill="#4c78a8"/><path aria-label="Relative Error: 0.767524941159; Dataset: Weight = 1; upper_box_Relative Error: 0.833150795897; Max of Relative Error: 0.884214599725; Q3 of Relative Error: 0.833150795897; Median of Relative Error: 0.793685820822; Q1 of Relative Error: 0.767524941159; Min of Relative Error: 0.71949870615" role="graphics-symbol" aria-roledescription="box" d="M360.6365621280844,55h4.453889563188v40h-4.453889563188Z" fill="#4c78a8"/><path aria-label="Relative Error: 0.375657886883; Dataset: Weight = 2; upper_box_Relative Error: 0.420517760012; Max of Relative Error: 0.464152322452; Q3 of Relative Error: 0.420517760012; Median of Relative Error: 0.395650355154; Q1 of Relative Error: 0.375657886883; Min of Relative Error: 0.327427565601" role="graphics-symbol" aria-roledescription="box" d="M321.84906390260863,105h6.123978894314234v40h-6.123978894314234Z" fill="#4c78a8"/><path aria-label="Relative Error: 0.0643074956605; Dataset: Weight = 10; upper_box_Relative Error: 0.0899227847486; Max of Relative Error: 0.126871069028; Q3 of Relative Error: 0.0899227847486; Median of Relative Error: 0.0786570394707; Q1 of Relative Error: 0.0643074956605; Min of Relative Error: 0.00466589779134" role="graphics-symbol" aria-roledescription="box" d="M226.03269963702448,155h18.201018833006202v40h-18.201018833006202Z" fill="#4c78a8"/></g><g class="mark-rect role-mark layer_3_marks" aria-hidden="true"><path d="M496.3111341244163,5h1v40h-1Z" fill="white" opacity="0.7"/><path d="M361.9560777143024,55h1v40h-1Z" fill="white" opacity="0.7"/><path d="M324.1639449883698,105h1v40h-1Z" fill="white" opacity="0.7"/><path d="M236.46719952609206,155h1v40h-1Z" fill="white" opacity="0.7"/></g></g><path class="foreground" aria-hidden="true" d="" display="none"/></g></g></g></svg>