<svg xmlns="http://www.w3.org/2000/svg" xmlns:xlink="http://www.w3.org/1999/xlink" version="1.1" class="marks" width="610" height="149" viewBox="0 0 610 149"><rect width="610" height="149" fill="white"/><g fill="none" stroke-miterlimit="10" transform="translate(104,5)"><g class="mark-group role-frame root" role="graphics-object" aria-roledescription="group mark container"><g transform="translate(0,0)"><path class="background" aria-hidden="true" d="M0.5,0.5h500v100h-500Z" stroke="#ddd"/><g><g class="mark-group role-axis" aria-hidden="true"><g transform="translate(0.5,100.5)"><path class="background" aria-hidden="true" d="M0,0h0v0h0Z" pointer-events="none"/><g><g class="mark-rule role-axis-grid" pointer-events="none"><line transform="translate(0,0)" x2="0" y2="-100" stroke="#ddd" stroke-width="1" opacity="1"/><line transform="translate(50,0)" x2="0" y2="-100" stroke="#ddd" stroke-width="1" opacity="1"/><line transform="translate(80,0)" x2="0" y2="-100" stroke="#ddd" stroke-width="1" opacity="1"/><line transform="translate(100,0)" x2="0" y2="-100" stroke="#ddd" stroke-width="1" opacity="1"/><line transform="translate(116,0)" x2="0" y2="-100" stroke="#ddd" stroke-width="1" opacity="1"/><line transform="translate(130,0)" x2="0" y2="-100" stroke="#ddd" stroke-width="1" opacity="1"/><line transform="translate(141,0)" x2="0" y2="-100" stroke="#ddd" stroke-width="1" opacity="1"/><line transform="translate(151,0)" x2="0" y2="-100" stroke="#ddd" stroke-width="1" opacity="1"/><line transform="translate(159,0)" x2="0" y2="-100" stroke="#ddd" stroke-width="1" opacity="1"/><line transform="translate(167,0)" x2="0" y2="-100" stroke="#ddd" stroke-width="1" opacity="1"/><line transform="translate(217,0)" x2="0" y2="-100" stroke="#ddd" stroke-width="1" opacity="1"/><line transform="translate(246,0)" x2="0" y2="-100" stroke="#ddd" stroke-width="1" opacity="1"/><line transform="translate(267,0)" x2="0" y2="-100" stroke="#ddd" stroke-width="1" opacity="1"/><line transform="translate(283,0)" x2="0" y2="-100" stroke="#ddd" stroke-width="1" opacity="1"/><line transform="translate(296,0)" x2="0" y2="-100" stroke="#ddd" stroke-width="1" opacity="1"/><line transform="translate(308,0)" x2="0" y2="-100" stroke="#ddd" stroke-width="1" opacity="1"/><line transform="translate(317,0)" x2="0" y2="-100" stroke="#ddd" stroke-width="1" opacity="1"/><line transform="translate(326,0)" x2="0" y2="-100" stroke="#ddd" stroke-width="1" opacity="1"/><line transform="translate(333,0)" x2="0" y2="-100" stroke="#ddd" stroke-width="1" opacity="1"/><line transform="translate(384,0)" x2="0" y2="-100" stroke="#ddd" stroke-width="1" opacity="1"/><line transform="translate(413,0)" x2="0" y2="-100" stroke="#ddd" stroke-width="1" opacity="1"/><line transform="translate(434,0)" x2="0" y2="-100" stroke="#ddd" stroke-width="1" opacity="1"/><line transform="translate(450,0)" x2="0" y2="-100" stroke="#ddd" stroke-width="1" opacity="1"/><line transform="translate(463,0)" x2="0" y2="-100" stroke="#ddd" stroke-width="1" opacity="1"/><line transform="translate(474,0)" x2="0" y2="-100" stroke="#ddd" stroke-width="1" opacity="1"/><line transform="translate(484,0)" x2="0" y2="-100" stroke="#ddd" stroke-width="1" opacity="1"/><line transform="translate(492,0)" x2="0" y2="-100" stroke="#ddd" stroke-width="1" opacity="1"/><line transform="translate(500,0)" x2="0" y2="-100" stroke="#ddd" stroke-width="1" opacity="1"/></g></g><path class="foreground" aria-hidden="true" d="" pointer-events="none" display="none"/></g></g><g class="mark-group role-axis" role="graphics-symbol" aria-roledescription="axis" aria-label="X-axis titled 'Relative Error' for a log scale with values from 0.01 to 10"><g transform="translate(0.5,100.5)"><path class="background" aria-hidden="true" d="M0,0h0v0h0Z" pointer-events="none"/><g><g class="mark-rule role-axis-tick" pointer-events="none"><line transform="translate(0,0)" x2="0" y2="5" stroke="#888" stroke-width="1" opacity="1"/><line transform="translate(50,0)" x2="0" y2="5" stroke="#888" stroke-width="1" opacity="1"/><line transform="translate(80,0)" x2="0" y2="5" stroke="#888" stroke-width="1" opacity="1"/><line transform="translate(100,0)" x2="0" y2="5" stroke="#888" stroke-width="1" opacity="1"/><line transform="translate(116,0)" x2="0" y2="5" stroke="#888" stroke-width="1" opacity="1"/><line transform="translate(130,0)" x2="0" y2="5" stroke="#888" stroke-width="1" opacity="1"/><line transform="translate(141,0)" x2="0" y2="5" stroke="#888" stroke-width="1" opacity="1"/><line transform="translate(151,0)" x2="0" y2="5" stroke="#888" stroke-width="1" opacity="1"/><line transform="translate(159,0)" x2="0" y2="5" stroke="#888" stroke-width="1" opacity="1"/><line transform="translate(167,0)" x2="0" y2="5" stroke="#888" stroke-width="1" opacity="1"/><line transform="translate(217,0)" x2="0" y2="5" stroke="#888" stroke-width="1" opacity="1"/><line transform="translate(246,0)" x2="0" y2="5" stroke="#888" stroke-width="1" opacity="1"/><line transform="translate(267,0)" x2="0" y2="5" stroke="#888" stroke-width="1" opacity="1"/><line transform="translate(283,0)" x2="0" y2="5" stroke="#888" stroke-width="1" opacity="1"/><line transform="translate(296,0)" x2="0" y2="5" stroke="#888" stroke-width="1" opacity="1"/><line transform="translate(308,0)" x2="0" y2="5" stroke="#888" stroke-width="1" opacity="1"/><line transform="translate(317,0)" x2="0" y2="5" stroke="#888" stroke-width="1" opacity="1"/><line transform="translate(326,0)" x2="0" y2="5" stroke="#888" stroke-width="1" opacity="1"/><line transform="translate(333,0)" x2="0" y2="5" stroke="#888" stroke-width="1" opacity="1"/><line transform="translate(384,0)" x2="0" y2="5" stroke="#888" stroke-width="1" opacity="1"/><line transform="translate(413,0)" x2="0" y2="5" stroke="#888" stroke-width="1" opacity="1"/><line transform="translate(434,0)" x2="0" y2="5" stroke="#888" stroke-width="1" opacity="1"/><line transform="translate(450,0)" x2="0" y2="5" stroke="#888" stroke-width="1" opacity="1"/><line transform="translate(463,0)" x2="0" y2="5" stroke="#888" stroke-width="1" opacity="1"/><line transform="translate(474,0)" x2="0" y2="5" stroke="#888" stroke-width="1" opacity="1"/><line transform="translate(484,0)" x2="0" y2="5" stroke="#888" stroke-width="1" opacity="1"/><line transform="translate(492,0)" x2="0" y2="5" stroke="#888" stroke-width="1" opacity="1"/><line transform="translate(500,0)" x2="0" y2="5" stroke="#888" stroke-width="1" opacity="1"/></g><g class="mark-text role-axis-label" pointer-events="none"><text text-anchor="start" transform="translate(0,18)" font-family="sans-serif" font-size="14px" fill="#000" opacity="1">0.01</text><text text-anchor="middle" transform="translate(50.17166594399684,18)" font-family="sans-serif" font-size="14px" fill="#000" opacity="1">0.02</text><text text-anchor="middle" transform="translate(79.5202091199437,18)" font-family="sans-serif" font-size="14px" fill="#000" opacity="1">0.03</text><text text-anchor="middle" transform="translate(100.34333188799371,18)" font-family="sans-serif" font-size="14px" fill="#000" opacity="1"/><text text-anchor="middle" transform="translate(116.49500072266979,18)" font-family="sans-serif" font-size="14px" fill="#000" opacity="1"/><text text-anchor="middle" transform="translate(129.69187506394059,18)" font-family="sans-serif" font-size="14px" fill="#000" opacity="1"/><text text-anchor="middle" transform="translate(140.84967333570947,18)" font-family="sans-serif" font-size="14px" fill="#000" opacity="1"/><text text-anchor="middle" transform="translate(150.51499783199057,18)" font-family="sans-serif" font-size="14px" fill="#000" opacity="1"/><text text-anchor="middle" transform="translate(159.04041823988746,18)" font-family="sans-serif" font-size="14px" fill="#000" opacity="1"/><text text-anchor="middle" transform="translate(166.66666666666666,18)" font-family="sans-serif" font-size="14px" fill="#000" opacity="1">0.1</text><text text-anchor="middle" transform="translate(216.83833261066349,18)" font-family="sans-serif" font-size="14px" fill="#000" opacity="1">0.2</text><text text-anchor="middle" transform="translate(246.1868757866104,18)" font-family="sans-serif" font-size="14px" fill="#000" opacity="1">0.3</text><text text-anchor="middle" transform="translate(267.0099985546604,18)" font-family="sans-serif" font-size="14px" fill="#000" opacity="1"/><text text-anchor="middle" transform="translate(283.16166738933646,18)" font-family="sans-serif" font-size="14px" fill="#000" opacity="1"/><text text-anchor="middle" transform="translate(296.35854173060727,18)" font-family="sans-serif" font-size="14px" fill="#000" opacity="1"/><text text-anchor="middle" transform="translate(307.5163400023761,18)" font-family="sans-serif" font-size="14px" fill="#000" opacity="1"/><text text-anchor="middle" transform="translate(317.18166449865726,18)" font-family="sans-serif" font-size="14px" fill="#000" opacity="1"/><text text-anchor="middle" transform="translate(325.70708490655414,18)" font-family="sans-serif" font-size="14px" fill="#000" opacity="1"/><text text-anchor="middle" transform="translate(333.3333333333333,18)" font-family="sans-serif" font-size="14px" fill="#000" opacity="1">1</text><text text-anchor="middle" transform="translate(383.50499927733017,18)" font-family="sans-serif" font-size="14px" fill="#000" opacity="1">2</text><text text-anchor="middle" transform="translate(412.8535424532771,18)" font-family="sans-serif" font-size="14px" fill="#000" opacity="1">3</text><text text-anchor="middle" transform="translate(433.6766652213271,18)" font-family="sans-serif" font-size="14px" fill="#000" opacity="1"/><text text-anchor="middle" transform="translate(449.82833405600314,18)" font-family="sans-serif" font-size="14px" fill="#000" opacity="1"/><text text-anchor="middle" transform="translate(463.02520839727396,18)" font-family="sans-serif" font-size="14px" fill="#000" opacity="1"/><text text-anchor="middle" transform="translate(474.1830066690428,18)" font-family="sans-serif" font-size="14px" fill="#000" opacity="1"/><text text-anchor="middle" transform="translate(483.8483311653239,18)" font-family="sans-serif" font-size="14px" fill="#000" opacity="1"/><text text-anchor="middle" transform="translate(492.3737515732208,18)" font-family="sans-serif" font-size="14px" fill="#000" opacity="1"/><text text-anchor="end" transform="translate(500,18)" font-family="sans-serif" font-size="14px" fill="#000" opacity="1">10</text></g><g class="mark-rule role-axis-domain" pointer-events="none"><line transform="translate(0,0)" x2="500" y2="0" stroke="#888" stroke-width="1" opacity="1"/></g><g class="mark-text role-axis-title" pointer-events="none"><text text-anchor="middle" transform="translate(250,36)" font-family="sans-serif" font-size="14px" font-weight="bold" fill="#000" opacity="1">Relative Error</text></g></g><path class="foreground" aria-hidden="true" d="" pointer-events="none" display="none"/></g></g><g class="mark-group role-axis" role="graphics-symbol" aria-roledescription="axis" aria-label="Y-axis titled 'Dataset' for a discrete scale with 2 values: Noisy Data, Raked Data"><g transform="translate(0.5,0.5)"><path class="background" aria-hidden="true" d="M0,0h0v0h0Z" pointer-events="none"/><g><g class="mark-rule role-axis-tick" pointer-events="none"><line transform="translate(0,25)" x2="-5" y2="0" stroke="#888" stroke-width="1" opacity="1"/><line transform="translate(0,75)" x2="-5" y2="0" stroke="#888" stroke-width="1" opacity="1"/></g><g class="mark-text role-axis-label" pointer-events="none"><text text-anchor="end" transform="translate(-7,28.5)" font-family="sans-serif" font-size="14px" fill="#000" opacity="1">Noisy Data</text><text text-anchor="end" transform="translate(-7,78.5)" font-family="sans-serif" font-size="14px" fill="#000" opacity="1">Raked Data</text></g><g class="mark-rule role-axis-domain" pointer-events="none"><line transform="translate(0,0)" x2="0" y2="100" stroke="#888" stroke-width="1" opacity="1"/></g><g class="mark-text role-axis-title" pointer-events="none"><text text-anchor="middle" transform="translate(-84.9306640625,50) rotate(-90) translate(0,-3)" font-family="sans-serif" font-size="14px" font-weight="bold" fill="#000" opacity="1">Dataset</text></g></g><path class="foreground" aria-hidden="true" d="" pointer-events="none" display="none"/></g></g><g class="mark-rule role-mark layer_0_marks" aria-hidden="true"><line transform="translate(492.46689061474774,25)" x2="0.9066116836816036" y2="0" stroke="black"/><line transform="translate(85.79808506589387,75)" x2="49.96080105639493" y2="0" stroke="black"/></g><g class="mark-rule role-mark layer_1_marks" aria-hidden="true"><line transform="translate(497.9364617729445,25)" x2="1.9427687147916686" y2="0" stroke="black"/><line transform="translate(160.85095446477732,75)" x2="36.72902223398228" y2="0" stroke="black"/></g><g class="mark-rect role-mark layer_2_marks" role="graphics-object" aria-roledescription="rect mark container"><path aria-label="Relative Error: 9.12517104578; Dataset: Noisy Data; upper_box_Relative Error: 9.71893708241; Max of Relative Error: 9.98332898688; Q3 of Relative Error: 9.71893708241; Median of Relative Error: 9.45991074656; Q1 of Relative Error: 9.12517104578; Min of Relative Error: 9.01158832482" role="graphics-symbol" aria-roledescription="box" d="M493.37350229842934,0h4.562959474515139v50h-4.562959474515139Z" fill="#4c78a8"/><path aria-label="Relative Error: 0.0652459136086; Dataset: Raked Data; upper_box_Relative Error: 0.0922796049829; Max of Relative Error: 0.153278012415; Q3 of Relative Error: 0.0922796049829; Median of Relative Error: 0.0788851759055; Q1 of Relative Error: 0.0652459136086; Min of Relative Error: 0.0327181327667" role="graphics-symbol" aria-roledescription="box" d="M135.7588861222888,50h25.092068342488517v50h-25.092068342488517Z" fill="#4c78a8"/></g><g class="mark-rect role-mark layer_3_marks" aria-hidden="true"><path d="M495.48117314839124,0h1v50h-1Z" fill="white" opacity="0.7"/><path d="M148.99923305010645,50h1v50h-1Z" fill="white" opacity="0.7"/></g></g><path class="foreground" aria-hidden="true" d="" display="none"/></g></g></g></svg>