<svg xmlns="http://www.w3.org/2000/svg" xmlns:xlink="http://www.w3.org/1999/xlink" version="1.1" class="marks" width="470" height="388" viewBox="0 0 470 388"><rect width="470" height="388" fill="white"/><g fill="none" stroke-miterlimit="10" transform="translate(70,36)"><g class="mark-group role-frame root" role="graphics-object" aria-roledescription="group mark container"><g transform="translate(0,0)"><path class="background" aria-hidden="true" d="M0.5,0.5h300v300h-300Z" stroke="#ddd"/><g><g class="mark-group role-axis" aria-hidden="true"><g transform="translate(0.5,300.5)"><path class="background" aria-hidden="true" d="M0,0h0v0h0Z" pointer-events="none"/><g><g class="mark-rule role-axis-grid" pointer-events="none"><line transform="translate(0,-300)" x2="0" y2="300" stroke="#ddd" stroke-width="1" opacity="1"/><line transform="translate(30,-300)" x2="0" y2="300" stroke="#ddd" stroke-width="1" opacity="1"/><line transform="translate(60,-300)" x2="0" y2="300" stroke="#ddd" stroke-width="1" opacity="1"/><line transform="translate(90,-300)" x2="0" y2="300" stroke="#ddd" stroke-width="1" opacity="1"/><line transform="translate(120,-300)" x2="0" y2="300" stroke="#ddd" stroke-width="1" opacity="1"/><line transform="translate(150,-300)" x2="0" y2="300" stroke="#ddd" stroke-width="1" opacity="1"/><line transform="translate(180,-300)" x2="0" y2="300" stroke="#ddd" stroke-width="1" opacity="1"/><line transform="translate(210,-300)" x2="0" y2="300" stroke="#ddd" stroke-width="1" opacity="1"/><line transform="translate(240,-300)" x2="0" y2="300" stroke="#ddd" stroke-width="1" opacity="1"/><line transform="translate(270,-300)" x2="0" y2="300" stroke="#ddd" stroke-width="1" opacity="1"/><line transform="translate(300,-300)" x2="0" y2="300" stroke="#ddd" stroke-width="1" opacity="1"/></g></g><path class="foreground" aria-hidden="true" d="" pointer-events="none" display="none"/></g></g><g class="mark-group role-axis" role="graphics-symbol" aria-roledescription="axis" aria-label="X-axis titled 'Initial values' for a linear scale with values from 2.0 to 4.0"><g transform="translate(0.5,300.5)"><path class="background" aria-hidden="true" d="M0,0h0v0h0Z" pointer-events="none"/><g><g class="mark-rule role-axis-tick" pointer-events="none"><line transform="translate(0,0)" x2="0" y2="5" stroke="#888" stroke-width="1" opacity="1"/><line transform="translate(30,0)" x2="0" y2="5" stroke="#888" stroke-width="1" opacity="1"/><line transform="translate(60,0)" x2="0" y2="5" stroke="#888" stroke-width="1" opacity="1"/><line transform="translate(90,0)" x2="0" y2="5" stroke="#888" stroke-width="1" opacity="1"/><line transform="translate(120,0)" x2="0" y2="5" stroke="#888" stroke-width="1" opacity="1"/><line transform="translate(150,0)" x2="0" y2="5" stroke="#888" stroke-width="1" opacity="1"/><line transform="translate(180,0)" x2="0" y2="5" stroke="#888" stroke-width="1" opacity="1"/><line transform="translate(210,0)" x2="0" y2="5" stroke="#888" stroke-width="1" opacity="1"/><line transform="translate(240,0)" x2="0" y2="5" stroke="#888" stroke-width="1" opacity="1"/><line transform="translate(270,0)" x2="0" y2="5" stroke="#888" stroke-width="1" opacity="1"/><line transform="translate(300,0)" x2="0" y2="5" stroke="#888" stroke-width="1" opacity="1"/></g><g class="mark-text role-axis-label" pointer-events="none"><text text-anchor="start" transform="translate(0,21)" font-family="sans-serif" font-size="18px" fill="#000" opacity="1">2.0</text><text text-anchor="middle" transform="translate(30.00000000000003,21)" font-family="sans-serif" font-size="18px" fill="#000" opacity="0">2.2</text><text text-anchor="middle" transform="translate(59.999999999999986,21)" font-family="sans-serif" font-size="18px" fill="#000" opacity="1">2.4</text><text text-anchor="middle" transform="translate(90.00000000000001,21)" font-family="sans-serif" font-size="18px" fill="#000" opacity="0">2.6</text><text text-anchor="middle" transform="translate(119.99999999999997,21)" font-family="sans-serif" font-size="18px" fill="#000" opacity="1">2.8</text><text text-anchor="middle" transform="translate(150,21)" font-family="sans-serif" font-size="18px" fill="#000" opacity="0">3.0</text><text text-anchor="middle" transform="translate(180.00000000000003,21)" font-family="sans-serif" font-size="18px" fill="#000" opacity="1">3.2</text><text text-anchor="middle" transform="translate(210,21)" font-family="sans-serif" font-size="18px" fill="#000" opacity="0">3.4</text><text text-anchor="middle" transform="translate(240,21)" font-family="sans-serif" font-size="18px" fill="#000" opacity="1">3.6</text><text text-anchor="middle" transform="translate(270,21)" font-family="sans-serif" font-size="18px" fill="#000" opacity="0">3.8</text><text text-anchor="end" transform="translate(300,21)" font-family="sans-serif" font-size="18px" fill="#000" opacity="1">4.0</text></g><g class="mark-rule role-axis-domain" pointer-events="none"><line transform="translate(0,0)" x2="300" y2="0" stroke="#888" stroke-width="1" opacity="1"/></g><g class="mark-text role-axis-title" pointer-events="none"><text text-anchor="middle" transform="translate(150,43)" font-family="sans-serif" font-size="18px" font-weight="bold" fill="#000" opacity="1">Initial values</text></g></g><path class="foreground" aria-hidden="true" d="" pointer-events="none" display="none"/></g></g><g class="mark-group role-axis" role="graphics-symbol" aria-roledescription="axis" aria-label="Y-axis titled 'Raked values' for a linear scale with values from −1 to 3"><g transform="translate(0.5,0.5)"><path class="background" aria-hidden="true" d="M0,0h0v0h0Z" pointer-events="none"/><g><g class="mark-rule role-axis-tick" pointer-events="none"><line transform="translate(0,300)" x2="-5" y2="0" stroke="#888" stroke-width="1" opacity="1"/><line transform="translate(0,263)" x2="-5" y2="0" stroke="#888" stroke-width="1" opacity="1"/><line transform="translate(0,225)" x2="-5" y2="0" stroke="#888" stroke-width="1" opacity="1"/><line transform="translate(0,188)" x2="-5" y2="0" stroke="#888" stroke-width="1" opacity="1"/><line transform="translate(0,150)" x2="-5" y2="0" stroke="#888" stroke-width="1" opacity="1"/><line transform="translate(0,113)" x2="-5" y2="0" stroke="#888" stroke-width="1" opacity="1"/><line transform="translate(0,75)" x2="-5" y2="0" stroke="#888" stroke-width="1" opacity="1"/><line transform="translate(0,38)" x2="-5" y2="0" stroke="#888" stroke-width="1" opacity="1"/><line transform="translate(0,0)" x2="-5" y2="0" stroke="#888" stroke-width="1" opacity="1"/></g><g class="mark-text role-axis-label" pointer-events="none"><text text-anchor="end" transform="translate(-7,305)" font-family="sans-serif" font-size="18px" fill="#000" opacity="1">−1.0</text><text text-anchor="end" transform="translate(-7,267.5)" font-family="sans-serif" font-size="18px" fill="#000" opacity="1">−0.5</text><text text-anchor="end" transform="translate(-7,230)" font-family="sans-serif" font-size="18px" fill="#000" opacity="1">0.0</text><text text-anchor="end" transform="translate(-7,192.5)" font-family="sans-serif" font-size="18px" fill="#000" opacity="1">0.5</text><text text-anchor="end" transform="translate(-7,155)" font-family="sans-serif" font-size="18px" fill="#000" opacity="1">1.0</text><text text-anchor="end" transform="translate(-7,117.5)" font-family="sans-serif" font-size="18px" fill="#000" opacity="1">1.5</text><text text-anchor="end" transform="translate(-7,80)" font-family="sans-serif" font-size="18px" fill="#000" opacity="1">2.0</text><text text-anchor="end" transform="translate(-7,42.5)" font-family="sans-serif" font-size="18px" fill="#000" opacity="1">2.5</text><text text-anchor="end" transform="translate(-7,5)" font-family="sans-serif" font-size="18px" fill="#000" opacity="1">3.0</text></g><g class="mark-rule role-axis-domain" pointer-events="none"><line transform="translate(0,300)" x2="0" y2="-300" stroke="#888" stroke-width="1" opacity="1"/></g><g class="mark-text role-axis-title" pointer-events="none"><text text-anchor="middle" transform="translate(-46.5341796875,150) rotate(-90) translate(0,-4)" font-family="sans-serif" font-size="18px" font-weight="bold" fill="#000" opacity="1">Raked values</text></g></g><path class="foreground" aria-hidden="true" d="" pointer-events="none" display="none"/></g></g><g class="mark-rule role-mark layer_0_marks" role="graphics-symbol" aria-roledescription="rule mark container"><line transform="translate(300,225)" x2="-300" y2="0" stroke="black" stroke-dasharray="2,2"/><line transform="translate(300,225)" x2="-300" y2="0" stroke="black" stroke-dasharray="2,2"/><line transform="translate(300,225)" x2="-300" y2="0" stroke="black" stroke-dasharray="2,2"/><line transform="translate(300,225)" x2="-300" y2="0" stroke="black" stroke-dasharray="2,2"/><line transform="translate(300,225)" x2="-300" y2="0" stroke="black" stroke-dasharray="2,2"/><line transform="translate(300,225)" x2="-300" y2="0" stroke="black" stroke-dasharray="2,2"/><line transform="translate(300,225)" x2="-300" y2="0" stroke="black" stroke-dasharray="2,2"/><line transform="translate(300,225)" x2="-300" y2="0" stroke="black" stroke-dasharray="2,2"/><line transform="translate(300,225)" x2="-300" y2="0" stroke="black" stroke-dasharray="2,2"/><line transform="translate(300,225)" x2="-300" y2="0" stroke="black" stroke-dasharray="2,2"/><line transform="translate(300,225)" x2="-300" y2="0" stroke="black" stroke-dasharray="2,2"/><line transform="translate(300,225)" x2="-300" y2="0" stroke="black" stroke-dasharray="2,2"/><line transform="translate(300,225)" x2="-300" y2="0" stroke="black" stroke-dasharray="2,2"/><line transform="translate(300,225)" x2="-300" y2="0" stroke="black" stroke-dasharray="2,2"/><line transform="translate(300,225)" x2="-300" y2="0" stroke="black" stroke-dasharray="2,2"/><line transform="translate(300,225)" x2="-300" y2="0" stroke="black" stroke-dasharray="2,2"/><line transform="translate(300,225)" x2="-300" y2="0" stroke="black" stroke-dasharray="2,2"/><line transform="translate(300,225)" x2="-300" y2="0" stroke="black" stroke-dasharray="2,2"/><line transform="translate(300,225)" x2="-300" y2="0" stroke="black" stroke-dasharray="2,2"/><line transform="translate(300,225)" x2="-300" y2="0" stroke="black" stroke-dasharray="2,2"/><line transform="translate(300,225)" x2="-300" y2="0" stroke="black" stroke-dasharray="2,2"/><line transform="translate(300,225)" x2="-300" y2="0" stroke="black" stroke-dasharray="2,2"/><line transform="translate(300,225)" x2="-300" y2="0" stroke="black" stroke-dasharray="2,2"/><line transform="translate(300,225)" x2="-300" y2="0" stroke="black" stroke-dasharray="2,2"/><line transform="translate(300,225)" x2="-300" y2="0" stroke="black" stroke-dasharray="2,2"/><line transform="translate(300,225)" x2="-300" y2="0" stroke="black" stroke-dasharray="2,2"/><line transform="translate(300,225)" x2="-300" y2="0" stroke="black" stroke-dasharray="2,2"/><line transform="translate(300,225)" x2="-300" y2="0" stroke="black" stroke-dasharray="2,2"/><line transform="translate(300,225)" x2="-300" y2="0" stroke="black" stroke-dasharray="2,2"/><line transform="translate(300,225)" x2="-300" y2="0" stroke="black" stroke-dasharray="2,2"/><line transform="translate(300,225)" x2="-300" y2="0" stroke="black" stroke-dasharray="2,2"/><line transform="translate(300,225)" x2="-300" y2="0" stroke="black" stroke-dasharray="2,2"/><line transform="translate(300,225)" x2="-300" y2="0" stroke="black" stroke-dasharray="2,2"/><line transform="translate(300,225)" x2="-300" y2="0" stroke="black" stroke-dasharray="2,2"/><line transform="translate(300,225)" x2="-300" y2="0" stroke="black" stroke-dasharray="2,2"/><line transform="translate(300,225)" x2="-300" y2="0" stroke="black" stroke-dasharray="2,2"/><line transform="translate(300,225)" x2="-300" y2="0" stroke="black" stroke-dasharray="2,2"/><line transform="translate(300,225)" x2="-300" y2="0" stroke="black" stroke-dasharray="2,2"/><line transform="translate(300,225)" x2="-300" y2="0" stroke="black" stroke-dasharray="2,2"/><line transform="translate(300,225)" x2="-300" y2="0" stroke="black" stroke-dasharray="2,2"/><line transform="translate(300,225)" x2="-300" y2="0" stroke="black" stroke-dasharray="2,2"/><line transform="translate(300,225)" x2="-300" y2="0" stroke="black" stroke-dasharray="2,2"/><line transform="translate(300,225)" x2="-300" y2="0" stroke="black" stroke-dasharray="2,2"/><line transform="translate(300,225)" x2="-300" y2="0" stroke="black" stroke-dasharray="2,2"/><line transform="translate(300,225)" x2="-300" y2="0" stroke="black" stroke-dasharray="2,2"/><line transform="translate(300,225)" x2="-300" y2="0" stroke="black" stroke-dasharray="2,2"/><line transform="translate(300,225)" x2="-300" y2="0" stroke="black" stroke-dasharray="2,2"/><line transform="translate(300,225)" x2="-300" y2="0" stroke="black" stroke-dasharray="2,2"/><line transform="translate(300,225)" x2="-300" y2="0" stroke="black" stroke-dasharray="2,2"/><line transform="translate(300,225)" x2="-300" y2="0" stroke="black" stroke-dasharray="2,2"/><line transform="translate(300,225)" x2="-300" y2="0" stroke="black" stroke-dasharray="2,2"/><line transform="translate(300,225)" x2="-300" y2="0" stroke="black" stroke-dasharray="2,2"/><line transform="translate(300,225)" x2="-300" y2="0" stroke="black" stroke-dasharray="2,2"/><line transform="translate(300,225)" x2="-300" y2="0" stroke="black" stroke-dasharray="2,2"/><line transform="translate(300,225)" x2="-300" y2="0" stroke="black" stroke-dasharray="2,2"/><line transform="translate(300,225)" x2="-300" y2="0" stroke="black" stroke-dasharray="2,2"/><line transform="translate(300,225)" x2="-300" y2="0" stroke="black" stroke-dasharray="2,2"/><line transform="translate(300,225)" x2="-300" y2="0" stroke="black" stroke-dasharray="2,2"/><line transform="translate(300,225)" x2="-300" y2="0" stroke="black" stroke-dasharray="2,2"/><line transform="translate(300,225)" x2="-300" y2="0" stroke="black" stroke-dasharray="2,2"/></g><g class="mark-rule role-mark layer_1_marks" role="graphics-symbol" aria-roledescription="rule mark container"><line transform="translate(300,187.5)" x2="-300" y2="0" stroke="black" stroke-dasharray="2,2"/><line transform="translate(300,187.5)" x2="-300" y2="0" stroke="black" stroke-dasharray="2,2"/><line transform="translate(300,187.5)" x2="-300" y2="0" stroke="black" stroke-dasharray="2,2"/><line transform="translate(300,187.5)" x2="-300" y2="0" stroke="black" stroke-dasharray="2,2"/><line transform="translate(300,187.5)" x2="-300" y2="0" stroke="black" stroke-dasharray="2,2"/><line transform="translate(300,187.5)" x2="-300" y2="0" stroke="black" stroke-dasharray="2,2"/><line transform="translate(300,187.5)" x2="-300" y2="0" stroke="black" stroke-dasharray="2,2"/><line transform="translate(300,187.5)" x2="-300" y2="0" stroke="black" stroke-dasharray="2,2"/><line transform="translate(300,187.5)" x2="-300" y2="0" stroke="black" stroke-dasharray="2,2"/><line transform="translate(300,187.5)" x2="-300" y2="0" stroke="black" stroke-dasharray="2,2"/><line transform="translate(300,187.5)" x2="-300" y2="0" stroke="black" stroke-dasharray="2,2"/><line transform="translate(300,187.5)" x2="-300" y2="0" stroke="black" stroke-dasharray="2,2"/><line transform="translate(300,187.5)" x2="-300" y2="0" stroke="black" stroke-dasharray="2,2"/><line transform="translate(300,187.5)" x2="-300" y2="0" stroke="black" stroke-dasharray="2,2"/><line transform="translate(300,187.5)" x2="-300" y2="0" stroke="black" stroke-dasharray="2,2"/><line transform="translate(300,187.5)" x2="-300" y2="0" stroke="black" stroke-dasharray="2,2"/><line transform="translate(300,187.5)" x2="-300" y2="0" stroke="black" stroke-dasharray="2,2"/><line transform="translate(300,187.5)" x2="-300" y2="0" stroke="black" stroke-dasharray="2,2"/><line transform="translate(300,187.5)" x2="-300" y2="0" stroke="black" stroke-dasharray="2,2"/><line transform="translate(300,187.5)" x2="-300" y2="0" stroke="black" stroke-dasharray="2,2"/><line transform="translate(300,187.5)" x2="-300" y2="0" stroke="black" stroke-dasharray="2,2"/><line transform="translate(300,187.5)" x2="-300" y2="0" stroke="black" stroke-dasharray="2,2"/><line transform="translate(300,187.5)" x2="-300" y2="0" stroke="black" stroke-dasharray="2,2"/><line transform="translate(300,187.5)" x2="-300" y2="0" stroke="black" stroke-dasharray="2,2"/><line transform="translate(300,187.5)" x2="-300" y2="0" stroke="black" stroke-dasharray="2,2"/><line transform="translate(300,187.5)" x2="-300" y2="0" stroke="black" stroke-dasharray="2,2"/><line transform="translate(300,187.5)" x2="-300" y2="0" stroke="black" stroke-dasharray="2,2"/><line transform="translate(300,187.5)" x2="-300" y2="0" stroke="black" stroke-dasharray="2,2"/><line transform="translate(300,187.5)" x2="-300" y2="0" stroke="black" stroke-dasharray="2,2"/><line transform="translate(300,187.5)" x2="-300" y2="0" stroke="black" stroke-dasharray="2,2"/><line transform="translate(300,187.5)" x2="-300" y2="0" stroke="black" stroke-dasharray="2,2"/><line transform="translate(300,187.5)" x2="-300" y2="0" stroke="black" stroke-dasharray="2,2"/><line transform="translate(300,187.5)" x2="-300" y2="0" stroke="black" stroke-dasharray="2,2"/><line transform="translate(300,187.5)" x2="-300" y2="0" stroke="black" stroke-dasharray="2,2"/><line transform="translate(300,187.5)" x2="-300" y2="0" stroke="black" stroke-dasharray="2,2"/><line transform="translate(300,187.5)" x2="-300" y2="0" stroke="black" stroke-dasharray="2,2"/><line transform="translate(300,187.5)" x2="-300" y2="0" stroke="black" stroke-dasharray="2,2"/><line transform="translate(300,187.5)" x2="-300" y2="0" stroke="black" stroke-dasharray="2,2"/><line transform="translate(300,187.5)" x2="-300" y2="0" stroke="black" stroke-dasharray="2,2"/><line transform="translate(300,187.5)" x2="-300" y2="0" stroke="black" stroke-dasharray="2,2"/><line transform="translate(300,187.5)" x2="-300" y2="0" stroke="black" stroke-dasharray="2,2"/><line transform="translate(300,187.5)" x2="-300" y2="0" stroke="black" stroke-dasharray="2,2"/><line transform="translate(300,187.5)" x2="-300" y2="0" stroke="black" stroke-dasharray="2,2"/><line transform="translate(300,187.5)" x2="-300" y2="0" stroke="black" stroke-dasharray="2,2"/><line transform="translate(300,187.5)" x2="-300" y2="0" stroke="black" stroke-dasharray="2,2"/><line transform="translate(300,187.5)" x2="-300" y2="0" stroke="black" stroke-dasharray="2,2"/><line transform="translate(300,187.5)" x2="-300" y2="0" stroke="black" stroke-dasharray="2,2"/><line transform="translate(300,187.5)" x2="-300" y2="0" stroke="black" stroke-dasharray="2,2"/><line transform="translate(300,187.5)" x2="-300" y2="0" stroke="black" stroke-dasharray="2,2"/><line transform="translate(300,187.5)" x2="-300" y2="0" stroke="black" stroke-dasharray="2,2"/><line transform="translate(300,187.5)" x2="-300" y2="0" stroke="black" stroke-dasharray="2,2"/><line transform="translate(300,187.5)" x2="-300" y2="0" stroke="black" stroke-dasharray="2,2"/><line transform="translate(300,187.5)" x2="-300" y2="0" stroke="black" stroke-dasharray="2,2"/><line transform="translate(300,187.5)" x2="-300" y2="0" stroke="black" stroke-dasharray="2,2"/><line transform="translate(300,187.5)" x2="-300" y2="0" stroke="black" stroke-dasharray="2,2"/><line transform="translate(300,187.5)" x2="-300" y2="0" stroke="black" stroke-dasharray="2,2"/><line transform="translate(300,187.5)" x2="-300" y2="0" stroke="black" stroke-dasharray="2,2"/><line transform="translate(300,187.5)" x2="-300" y2="0" stroke="black" stroke-dasharray="2,2"/><line transform="translate(300,187.5)" x2="-300" y2="0" stroke="black" stroke-dasharray="2,2"/><line transform="translate(300,187.5)" x2="-300" y2="0" stroke="black" stroke-dasharray="2,2"/></g><g class="mark-symbol role-mark layer_2_marks" role="graphics-object" aria-roledescription="symbol mark container"><path aria-label="initial: 3.27392337464; raked: 1.49156356227; Distance: chi2" role="graphics-symbol" aria-roledescription="point" transform="translate(191.0885061964363,113.13273282958446)" d="M5,0A5,5,0,1,1,-5,0A5,5,0,1,1,5,0" stroke="#4c78a8" stroke-width="2" opacity="0.7"/><path aria-label="initial: 3.82551115456; raked: 1.23651564542; Distance: chi2" role="graphics-symbol" aria-roledescription="point" transform="translate(273.82667318331653,132.26132659327615)" d="M5,0A5,5,0,1,1,-5,0A5,5,0,1,1,5,0" stroke="#4c78a8" stroke-width="2" opacity="0.7"/><path aria-label="initial: 3.63170710824; raked: 1.71247857435; Distance: chi2" role="graphics-symbol" aria-roledescription="point" transform="translate(244.75606623645965,96.5641069236838)" d="M5,0A5,5,0,1,1,-5,0A5,5,0,1,1,5,0" stroke="#4c78a8" stroke-width="2" opacity="0.7"/><path aria-label="initial: 2.35131124121; raked: −0.440445790116; Distance: chi2" role="graphics-symbol" aria-roledescription="point" transform="translate(52.696686180767706,258.0334342586968)" d="M5,0A5,5,0,1,1,-5,0A5,5,0,1,1,5,0" stroke="#4c78a8" stroke-width="2" opacity="0.7"/><path aria-label="initial: 2.53957342753; raked: 1.07980139658; Distance: chi2" role="graphics-symbol" aria-roledescription="point" transform="translate(80.9360141291611,144.01489525682626)" d="M5,0A5,5,0,1,1,-5,0A5,5,0,1,1,5,0" stroke="#4c78a8" stroke-width="2" opacity="0.7"/><path aria-label="initial: 3.21327155153; raked: 0.793270663693; Distance: chi2" role="graphics-symbol" aria-roledescription="point" transform="translate(181.99073273015395,165.50470022305254)" d="M5,0A5,5,0,1,1,-5,0A5,5,0,1,1,5,0" stroke="#4c78a8" stroke-width="2" opacity="0.7"/><path aria-label="initial: 2.00547700034; raked: −0.408893603943; Distance: chi2" role="graphics-symbol" aria-roledescription="point" transform="translate(0.8215500510444285,255.6670202957564)" d="M5,0A5,5,0,1,1,-5,0A5,5,0,1,1,5,0" stroke="#4c78a8" stroke-width="2" opacity="0.7"/><path aria-label="initial: 3.7263578447; raked: 2.53587140093; Distance: chi2" role="graphics-symbol" aria-roledescription="point" transform="translate(258.953676704966,34.809644930611974)" d="M5,0A5,5,0,1,1,-5,0A5,5,0,1,1,5,0" stroke="#4c78a8" stroke-width="2" opacity="0.7"/><path aria-label="initial: 2.08194704787; raked: −0.251171508866; Distance: chi2" role="graphics-symbol" aria-roledescription="point" transform="translate(12.292057180858373,243.83786316493257)" d="M5,0A5,5,0,1,1,-5,0A5,5,0,1,1,5,0" stroke="#4c78a8" stroke-width="2" opacity="0.7"/><path aria-label="initial: 3.45899312197; raked: 0.878371905238; Distance: chi2" role="graphics-symbol" aria-roledescription="point" transform="translate(218.84896829519954,159.12210710713117)" d="M5,0A5,5,0,1,1,-5,0A5,5,0,1,1,5,0" stroke="#4c78a8" stroke-width="2" opacity="0.7"/><path aria-label="initial: 3.71480855318; raked: 2.10175214316; Distance: chi2" role="graphics-symbol" aria-roledescription="point" transform="translate(257.2212829762708,67.3685892628715)" d="M5,0A5,5,0,1,1,-5,0A5,5,0,1,1,5,0" stroke="#4c78a8" stroke-width="2" opacity="0.7"/><path aria-label="initial: 3.0829224405; raked: 1.27087246582; Distance: chi2" role="graphics-symbol" aria-roledescription="point" transform="translate(162.43836607472755,129.68456506378803)" d="M5,0A5,5,0,1,1,-5,0A5,5,0,1,1,5,0" stroke="#4c78a8" stroke-width="2" opacity="0.7"/><path aria-label="initial: 2.03305527106; raked: 0.970166347591; Distance: chi2" role="graphics-symbol" aria-roledescription="point" transform="translate(4.958290658558728,152.23752393068597)" d="M5,0A5,5,0,1,1,-5,0A5,5,0,1,1,5,0" stroke="#4c78a8" stroke-width="2" opacity="0.7"/><path aria-label="initial: 3.08724998293; raked: 1.06932668214; Distance: chi2" role="graphics-symbol" aria-roledescription="point" transform="translate(163.0874974396269,144.8004988398502)" d="M5,0A5,5,0,1,1,-5,0A5,5,0,1,1,5,0" stroke="#4c78a8" stroke-width="2" opacity="0.7"/><path aria-label="initial: 2.06717115061; raked: 0.472877236166; Distance: chi2" role="graphics-symbol" aria-roledescription="point" transform="translate(10.075672591639307,189.53420728757052)" d="M5,0A5,5,0,1,1,-5,0A5,5,0,1,1,5,0" stroke="#4c78a8" stroke-width="2" opacity="0.7"/><path aria-label="initial: 2.59942378107; raked: 1.48768040619; Distance: chi2" role="graphics-symbol" aria-roledescription="point" transform="translate(89.91356716121544,113.42396953538703)" d="M5,0A5,5,0,1,1,-5,0A5,5,0,1,1,5,0" stroke="#4c78a8" stroke-width="2" opacity="0.7"/><path aria-label="initial: 3.6265404784; raked: 1.70965556656; Distance: chi2" role="graphics-symbol" aria-roledescription="point" transform="translate(243.98107176008173,96.7758325082922)" d="M5,0A5,5,0,1,1,-5,0A5,5,0,1,1,5,0" stroke="#4c78a8" stroke-width="2" opacity="0.7"/><path aria-label="initial: 3.87014484758; raked: 1.02255569864; Distance: chi2" role="graphics-symbol" aria-roledescription="point" transform="translate(280.5217271363305,148.30832260219057)" d="M5,0A5,5,0,1,1,-5,0A5,5,0,1,1,5,0" stroke="#4c78a8" stroke-width="2" opacity="0.7"/><path aria-label="initial: 3.45931089286; raked: 1.12172764787; Distance: chi2" role="graphics-symbol" aria-roledescription="point" transform="translate(218.89663392898322,140.87042641004055)" d="M5,0A5,5,0,1,1,-5,0A5,5,0,1,1,5,0" stroke="#4c78a8" stroke-width="2" opacity="0.7"/><path aria-label="initial: 2.8453744424; raked: 0.146031660119; Distance: chi2" role="graphics-symbol" aria-roledescription="point" transform="translate(126.80616635929753,214.04762549107258)" d="M5,0A5,5,0,1,1,-5,0A5,5,0,1,1,5,0" stroke="#4c78a8" stroke-width="2" opacity="0.7"/><path aria-label="initial: 3.27392337464; raked: 1.24569785748; Distance: entropic" role="graphics-symbol" aria-roledescription="point" transform="translate(191.0885061964363,131.57266068917139)" d="M-5,-5h10v10h-10Z" stroke="#f58518" stroke-width="2" opacity="0.7"/><path aria-label="initial: 3.82551115456; raked: 1.1294552236; Distance: entropic" role="graphics-symbol" aria-roledescription="point" transform="translate(273.82667318331653,140.29085823015095)" d="M-5,-5h10v10h-10Z" stroke="#f58518" stroke-width="2" opacity="0.7"/><path aria-label="initial: 3.63170710824; raked: 1.3840831846; Distance: entropic" role="graphics-symbol" aria-roledescription="point" transform="translate(244.75606623645965,121.19376115535894)" d="M-5,-5h10v10h-10Z" stroke="#f58518" stroke-width="2" opacity="0.7"/><path aria-label="initial: 2.35131124121; raked: 0.240763734329; Distance: entropic" role="graphics-symbol" aria-roledescription="point" transform="translate(52.696686180767706,206.94271992531876)" d="M-5,-5h10v10h-10Z" stroke="#f58518" stroke-width="2" opacity="0.7"/><path aria-label="initial: 2.53957342753; raked: 0.939893822357; Distance: entropic" role="graphics-symbol" aria-roledescription="point" transform="translate(80.9360141291611,154.50796332322014)" d="M-5,-5h10v10h-10Z" stroke="#f58518" stroke-width="2" opacity="0.7"/><path aria-label="initial: 3.21327155153; raked: 0.835599352427; Distance: entropic" role="graphics-symbol" aria-roledescription="point" transform="translate(181.99073273015395,162.330048567976)" d="M-5,-5h10v10h-10Z" stroke="#f58518" stroke-width="2" opacity="0.7"/><path aria-label="initial: 2.00547700034; raked: 0.226207978211; Distance: entropic" role="graphics-symbol" aria-roledescription="point" transform="translate(0.8215500510444285,208.03440163414294)" d="M-5,-5h10v10h-10Z" stroke="#f58518" stroke-width="2" opacity="0.7"/><path aria-label="initial: 3.7263578447; raked: 1.998298847; Distance: entropic" role="graphics-symbol" aria-roledescription="point" transform="translate(258.953676704966,75.12758647466087)" d="M-5,-5h10v10h-10Z" stroke="#f58518" stroke-width="2" opacity="0.7"/><path aria-label="initial: 2.08194704787; raked: 0.313847341193; Distance: entropic" role="graphics-symbol" aria-roledescription="point" transform="translate(12.292057180858373,201.461449410527)" d="M-5,-5h10v10h-10Z" stroke="#f58518" stroke-width="2" opacity="0.7"/><path aria-label="initial: 3.45899312197; raked: 0.931428884022; Distance: entropic" role="graphics-symbol" aria-roledescription="point" transform="translate(218.84896829519954,155.1428336983419)" d="M-5,-5h10v10h-10Z" stroke="#f58518" stroke-width="2" opacity="0.7"/><path aria-label="initial: 3.71480855318; raked: 1.72729207253; Distance: entropic" role="graphics-symbol" aria-roledescription="point" transform="translate(257.2212829762708,95.45309455999727)" d="M-5,-5h10v10h-10Z" stroke="#f58518" stroke-width="2" opacity="0.7"/><path aria-label="initial: 3.0829224405; raked: 1.02743170225; Distance: entropic" role="graphics-symbol" aria-roledescription="point" transform="translate(162.43836607472755,147.94262233113386)" d="M-5,-5h10v10h-10Z" stroke="#f58518" stroke-width="2" opacity="0.7"/><path aria-label="initial: 2.03305527106; raked: 1.05801911477; Distance: entropic" role="graphics-symbol" aria-roledescription="point" transform="translate(4.958290658558728,145.64856639205638)" d="M-5,-5h10v10h-10Z" stroke="#f58518" stroke-width="2" opacity="0.7"/><path aria-label="initial: 3.08724998293; raked: 1.05922394995; Distance: entropic" role="graphics-symbol" aria-roledescription="point" transform="translate(163.0874974396269,145.55820375347574)" d="M-5,-5h10v10h-10Z" stroke="#f58518" stroke-width="2" opacity="0.7"/><path aria-label="initial: 2.06717115061; raked: 0.631753787641; Distance: entropic" role="graphics-symbol" aria-roledescription="point" transform="translate(10.075672591639307,177.61846592693348)" d="M-5,-5h10v10h-10Z" stroke="#f58518" stroke-width="2" opacity="0.7"/><path aria-label="initial: 2.59942378107; raked: 1.25100314763; Distance: entropic" role="graphics-symbol" aria-roledescription="point" transform="translate(89.91356716121544,131.17476392753434)" d="M-5,-5h10v10h-10Z" stroke="#f58518" stroke-width="2" opacity="0.7"/><path aria-label="initial: 3.6265404784; raked: 1.4425418642; Distance: entropic" role="graphics-symbol" aria-roledescription="point" transform="translate(243.98107176008173,116.80936018502503)" d="M-5,-5h10v10h-10Z" stroke="#f58518" stroke-width="2" opacity="0.7"/><path aria-label="initial: 3.87014484758; raked: 1.04429259; Distance: entropic" role="graphics-symbol" aria-roledescription="point" transform="translate(280.5217271363305,146.67805575005573)" d="M-5,-5h10v10h-10Z" stroke="#f58518" stroke-width="2" opacity="0.7"/><path aria-label="initial: 3.45931089286; raked: 1.03066297702; Distance: entropic" role="graphics-symbol" aria-roledescription="point" transform="translate(218.89663392898322,147.70027672356738)" d="M-5,-5h10v10h-10Z" stroke="#f58518" stroke-width="2" opacity="0.7"/><path aria-label="initial: 2.8453744424; raked: 0.482502568782; Distance: entropic" role="graphics-symbol" aria-roledescription="point" transform="translate(126.80616635929753,188.81230734135193)" d="M-5,-5h10v10h-10Z" stroke="#f58518" stroke-width="2" opacity="0.7"/><path aria-label="initial: 3.27392337464; raked: 0.961121855976; Distance: logit" role="graphics-symbol" aria-roledescription="point" transform="translate(191.0885061964363,152.91586080177865)" d="M0,-4.33L-5,4.33L5,4.33Z" stroke="#e45756" stroke-width="2" opacity="0.7"/><path aria-label="initial: 3.82551115456; raked: 1.34765986923; Distance: logit" role="graphics-symbol" aria-roledescription="point" transform="translate(273.82667318331653,123.92550980807194)" d="M0,-4.33L-5,4.33L5,4.33Z" stroke="#e45756" stroke-width="2" opacity="0.7"/><path aria-label="initial: 3.63170710824; raked: 1.19024438661; Distance: logit" role="graphics-symbol" aria-roledescription="point" transform="translate(244.75606623645965,135.73167100420625)" d="M0,-4.33L-5,4.33L5,4.33Z" stroke="#e45756" stroke-width="2" opacity="0.7"/><path aria-label="initial: 2.35131124121; raked: 0.500973888164; Distance: logit" role="graphics-symbol" aria-roledescription="point" transform="translate(52.696686180767706,187.42695838773176)" d="M0,-4.33L-5,4.33L5,4.33Z" stroke="#e45756" stroke-width="2" opacity="0.7"/><path aria-label="initial: 2.53957342753; raked: 0.63536649525; Distance: logit" role="graphics-symbol" aria-roledescription="point" transform="translate(80.9360141291611,177.3475128562689)" d="M0,-4.33L-5,4.33L5,4.33Z" stroke="#e45756" stroke-width="2" opacity="0.7"/><path aria-label="initial: 3.21327155153; raked: 0.610513389472; Distance: logit" role="graphics-symbol" aria-roledescription="point" transform="translate(181.99073273015395,179.21149578958358)" d="M0,-4.33L-5,4.33L5,4.33Z" stroke="#e45756" stroke-width="2" opacity="0.7"/><path aria-label="initial: 2.00547700034; raked: 0.500434087328; Distance: logit" role="graphics-symbol" aria-roledescription="point" transform="translate(0.8215500510444285,187.46744345041728)" d="M0,-4.33L-5,4.33L5,4.33Z" stroke="#e45756" stroke-width="2" opacity="0.7"/><path aria-label="initial: 3.7263578447; raked: 2.25368602791; Distance: logit" role="graphics-symbol" aria-roledescription="point" transform="translate(258.953676704966,55.97354790654019)" d="M0,-4.33L-5,4.33L5,4.33Z" stroke="#e45756" stroke-width="2" opacity="0.7"/><path aria-label="initial: 2.08194704787; raked: 0.509167109048; Distance: logit" role="graphics-symbol" aria-roledescription="point" transform="translate(12.292057180858373,186.8124668213841)" d="M0,-4.33L-5,4.33L5,4.33Z" stroke="#e45756" stroke-width="2" opacity="0.7"/><path aria-label="initial: 3.45899312197; raked: 0.766899325423; Distance: logit" role="graphics-symbol" aria-roledescription="point" transform="translate(218.84896829519954,167.48255059329725)" d="M0,-4.33L-5,4.33L5,4.33Z" stroke="#e45756" stroke-width="2" opacity="0.7"/><path aria-label="initial: 3.71480855318; raked: 2.01913100138; Distance: logit" role="graphics-symbol" aria-roledescription="point" transform="translate(257.2212829762708,73.56517489660672)" d="M0,-4.33L-5,4.33L5,4.33Z" stroke="#e45756" stroke-width="2" opacity="0.7"/><path aria-label="initial: 3.0829224405; raked: 0.704802564187; Distance: logit" role="graphics-symbol" aria-roledescription="point" transform="translate(162.43836607472755,172.13980768600084)" d="M0,-4.33L-5,4.33L5,4.33Z" stroke="#e45756" stroke-width="2" opacity="0.7"/><path aria-label="initial: 2.03305527106; raked: 1.44794630692; Distance: logit" role="graphics-symbol" aria-roledescription="point" transform="translate(4.958290658558728,116.4040269807917)" d="M0,-4.33L-5,4.33L5,4.33Z" stroke="#e45756" stroke-width="2" opacity="0.7"/><path aria-label="initial: 3.08724998293; raked: 0.944039216738; Distance: logit" role="graphics-symbol" aria-roledescription="point" transform="translate(163.0874974396269,154.19705874464395)" d="M0,-4.33L-5,4.33L5,4.33Z" stroke="#e45756" stroke-width="2" opacity="0.7"/><path aria-label="initial: 2.06717115061; raked: 0.578533904466; Distance: logit" role="graphics-symbol" aria-roledescription="point" transform="translate(10.075672591639307,181.60995716503004)" d="M0,-4.33L-5,4.33L5,4.33Z" stroke="#e45756" stroke-width="2" opacity="0.7"/><path aria-label="initial: 2.59942378107; raked: 1.02948057185; Distance: logit" role="graphics-symbol" aria-roledescription="point" transform="translate(89.91356716121544,147.78895711143227)" d="M0,-4.33L-5,4.33L5,4.33Z" stroke="#e45756" stroke-width="2" opacity="0.7"/><path aria-label="initial: 3.6265404784; raked: 1.4463982328; Distance: logit" role="graphics-symbol" aria-roledescription="point" transform="translate(243.98107176008173,116.52013253990174)" d="M0,-4.33L-5,4.33L5,4.33Z" stroke="#e45756" stroke-width="2" opacity="0.7"/><path aria-label="initial: 3.87014484758; raked: 1.33088819891; Distance: logit" role="graphics-symbol" aria-roledescription="point" transform="translate(280.5217271363305,125.18338508195521)" d="M0,-4.33L-5,4.33L5,4.33Z" stroke="#e45756" stroke-width="2" opacity="0.7"/><path aria-label="initial: 3.45931089286; raked: 0.7116566201; Distance: logit" role="graphics-symbol" aria-roledescription="point" transform="translate(218.89663392898322,171.62575349247666)" d="M0,-4.33L-5,4.33L5,4.33Z" stroke="#e45756" stroke-width="2" opacity="0.7"/><path aria-label="initial: 2.8453744424; raked: 0.511056947868; Distance: logit" role="graphics-symbol" aria-roledescription="point" transform="translate(126.80616635929753,186.6707289098952)" d="M0,-4.33L-5,4.33L5,4.33Z" stroke="#e45756" stroke-width="2" opacity="0.7"/></g><g class="mark-group role-legend" role="graphics-symbol" aria-roledescription="legend" aria-label="Symbol legend titled 'Distance' for shape and stroke color with 3 values: chi2, entropic, logit"><g transform="translate(318,0)"><path class="background" aria-hidden="true" d="M0,0h77v73h-77Z" pointer-events="none"/><g><g class="mark-group role-legend-entry"><g transform="translate(0,21)"><path class="background" aria-hidden="true" d="M0,0h0v0h0Z" pointer-events="none"/><g><g class="mark-group role-scope" role="graphics-object" aria-roledescription="group mark container"><g transform="translate(0,0)"><path class="background" aria-hidden="true" d="M0,0h76.921875v16h-76.921875Z" pointer-events="none" opacity="1"/><g><g class="mark-symbol role-legend-symbol" pointer-events="none"><path transform="translate(8,8)" d="M5,0A5,5,0,1,1,-5,0A5,5,0,1,1,5,0" stroke="#4c78a8" stroke-width="1.5" opacity="0.7"/></g><g class="mark-text role-legend-label" pointer-events="none"><text text-anchor="start" transform="translate(20,13)" font-family="sans-serif" font-size="16px" fill="#000" opacity="1">chi2</text></g></g><path class="foreground" aria-hidden="true" d="" pointer-events="none" display="none"/></g><g transform="translate(0,18)"><path class="background" aria-hidden="true" d="M0,0h76.921875v16h-76.921875Z" pointer-events="none" opacity="1"/><g><g class="mark-symbol role-legend-symbol" pointer-events="none"><path transform="translate(8,8)" d="M-5,-5h10v10h-10Z" stroke="#f58518" stroke-width="1.5" opacity="0.7"/></g><g class="mark-text role-legend-label" pointer-events="none"><text text-anchor="start" transform="translate(20,13)" font-family="sans-serif" font-size="16px" fill="#000" opacity="1">entropic</text></g></g><path class="foreground" aria-hidden="true" d="" pointer-events="none" display="none"/></g><g transform="translate(0,36)"><path class="background" aria-hidden="true" d="M0,0h76.921875v16h-76.921875Z" pointer-events="none" opacity="1"/><g><g class="mark-symbol role-legend-symbol" pointer-events="none"><path transform="translate(8,8)" d="M0,-4.33L-5,4.33L5,4.33Z" stroke="#e45756" stroke-width="1.5" opacity="0.7"/></g><g class="mark-text role-legend-label" pointer-events="none"><text text-anchor="start" transform="translate(20,13)" font-family="sans-serif" font-size="16px" fill="#000" opacity="1">logit</text></g></g><path class="foreground" aria-hidden="true" d="" pointer-events="none" display="none"/></g></g></g><path class="foreground" aria-hidden="true" d="" pointer-events="none" display="none"/></g></g><g class="mark-text role-legend-title" pointer-events="none"><text text-anchor="start" transform="translate(0,13)" font-family="sans-serif" font-size="16px" font-weight="bold" fill="#000" opacity="1">Distance</text></g></g><path class="foreground" aria-hidden="true" d="" pointer-events="none" display="none"/></g></g><g class="mark-group role-title"><g transform="translate(150,-31)"><path class="background" aria-hidden="true" d="M0,0h0v0h0Z" pointer-events="none"/><g><g class="mark-text role-title-text" role="graphics-symbol" aria-roledescription="title" aria-label="Title text 'Effect of distance on raked values'" pointer-events="none"><text text-anchor="middle" transform="translate(0,14)" font-family="sans-serif" font-size="18px" font-weight="bold" fill="#000" opacity="1">Effect of distance on raked values</text></g></g><path class="foreground" aria-hidden="true" d="" pointer-events="none" display="none"/></g></g></g><path class="foreground" aria-hidden="true" d="" display="none"/></g></g></g></svg>