<svg xmlns="http://www.w3.org/2000/svg" xmlns:xlink="http://www.w3.org/1999/xlink" version="1.1" class="marks" width="786" height="396" viewBox="0 0 786 396"><rect width="786" height="396" fill="white"/><g fill="none" stroke-miterlimit="10" transform="translate(61,43)"><g class="mark-group role-frame root" role="graphics-object" aria-roledescription="group mark container"><g transform="translate(0,0)"><path class="background" aria-hidden="true" d="M0,0h0v300h0Z"/><g><g class="mark-group role-scope concat_0_group" role="graphics-object" aria-roledescription="group mark container"><g transform="translate(0,0)"><path class="background" aria-hidden="true" d="M0.5,0.5h300v300h-300Z" stroke="#ddd"/><g><g class="mark-group role-axis" aria-hidden="true"><g transform="translate(0.5,300.5)"><path class="background" aria-hidden="true" d="M0,0h0v0h0Z" pointer-events="none"/><g><g class="mark-rule role-axis-grid" pointer-events="none"><line transform="translate(0,-300)" x2="0" y2="300" stroke="#ddd" stroke-width="1" opacity="1"/><line transform="translate(37,-300)" x2="0" y2="300" stroke="#ddd" stroke-width="1" opacity="1"/><line transform="translate(75,-300)" x2="0" y2="300" stroke="#ddd" stroke-width="1" opacity="1"/><line transform="translate(113,-300)" x2="0" y2="300" stroke="#ddd" stroke-width="1" opacity="1"/><line transform="translate(150,-300)" x2="0" y2="300" stroke="#ddd" stroke-width="1" opacity="1"/><line transform="translate(188,-300)" x2="0" y2="300" stroke="#ddd" stroke-width="1" opacity="1"/><line transform="translate(225,-300)" x2="0" y2="300" stroke="#ddd" stroke-width="1" opacity="1"/><line transform="translate(263,-300)" x2="0" y2="300" stroke="#ddd" stroke-width="1" opacity="1"/><line transform="translate(300,-300)" x2="0" y2="300" stroke="#ddd" stroke-width="1" opacity="1"/></g></g><path class="foreground" aria-hidden="true" d="" pointer-events="none" display="none"/></g></g><g class="mark-group role-axis" aria-hidden="true"><g transform="translate(0.5,0.5)"><path class="background" aria-hidden="true" d="M0,0h0v0h0Z" pointer-events="none"/><g><g class="mark-rule role-axis-grid" pointer-events="none"><line transform="translate(0,300)" x2="300" y2="0" stroke="#ddd" stroke-width="1" opacity="1"/><line transform="translate(0,263)" x2="300" y2="0" stroke="#ddd" stroke-width="1" opacity="1"/><line transform="translate(0,225)" x2="300" y2="0" stroke="#ddd" stroke-width="1" opacity="1"/><line transform="translate(0,187)" x2="300" y2="0" stroke="#ddd" stroke-width="1" opacity="1"/><line transform="translate(0,150)" x2="300" y2="0" stroke="#ddd" stroke-width="1" opacity="1"/><line transform="translate(0,112)" x2="300" y2="0" stroke="#ddd" stroke-width="1" opacity="1"/><line transform="translate(0,75)" x2="300" y2="0" stroke="#ddd" stroke-width="1" opacity="1"/><line transform="translate(0,37)" x2="300" y2="0" stroke="#ddd" stroke-width="1" opacity="1"/><line transform="translate(0,0)" x2="300" y2="0" stroke="#ddd" stroke-width="1" opacity="1"/></g></g><path class="foreground" aria-hidden="true" d="" pointer-events="none" display="none"/></g></g><g class="mark-group role-axis" role="graphics-symbol" aria-roledescription="axis" aria-label="X-axis titled 'Reference' for a linear scale with values from 1.2 to 2.8"><g transform="translate(0.5,300.5)"><path class="background" aria-hidden="true" d="M0,0h0v0h0Z" pointer-events="none"/><g><g class="mark-rule role-axis-tick" pointer-events="none"><line transform="translate(0,0)" x2="0" y2="5" stroke="#888" stroke-width="1" opacity="1"/><line transform="translate(37,0)" x2="0" y2="5" stroke="#888" stroke-width="1" opacity="1"/><line transform="translate(75,0)" x2="0" y2="5" stroke="#888" stroke-width="1" opacity="1"/><line transform="translate(113,0)" x2="0" y2="5" stroke="#888" stroke-width="1" opacity="1"/><line transform="translate(150,0)" x2="0" y2="5" stroke="#888" stroke-width="1" opacity="1"/><line transform="translate(188,0)" x2="0" y2="5" stroke="#888" stroke-width="1" opacity="1"/><line transform="translate(225,0)" x2="0" y2="5" stroke="#888" stroke-width="1" opacity="1"/><line transform="translate(263,0)" x2="0" y2="5" stroke="#888" stroke-width="1" opacity="1"/><line transform="translate(300,0)" x2="0" y2="5" stroke="#888" stroke-width="1" opacity="1"/></g><g class="mark-text role-axis-label" pointer-events="none"><text text-anchor="start" transform="translate(0,21)" font-family="sans-serif" font-size="18px" fill="#000" opacity="1">1.2</text><text text-anchor="middle" transform="translate(37.49999999999999,21)" font-family="sans-serif" font-size="18px" fill="#000" opacity="0">1.4</text><text text-anchor="middle" transform="translate(75.00000000000003,21)" font-family="sans-serif" font-size="18px" fill="#000" opacity="1">1.6</text><text text-anchor="middle" transform="translate(112.50000000000003,21)" font-family="sans-serif" font-size="18px" fill="#000" opacity="0">1.8</text><text text-anchor="middle" transform="translate(150.00000000000003,21)" font-family="sans-serif" font-size="18px" fill="#000" opacity="1">2.0</text><text text-anchor="middle" transform="translate(187.50000000000006,21)" font-family="sans-serif" font-size="18px" fill="#000" opacity="0">2.2</text><text text-anchor="middle" transform="translate(225,21)" font-family="sans-serif" font-size="18px" fill="#000" opacity="1">2.4</text><text text-anchor="middle" transform="translate(262.50000000000006,21)" font-family="sans-serif" font-size="18px" fill="#000" opacity="0">2.6</text><text text-anchor="end" transform="translate(300,21)" font-family="sans-serif" font-size="18px" fill="#000" opacity="1">2.8</text></g><g class="mark-rule role-axis-domain" pointer-events="none"><line transform="translate(0,0)" x2="300" y2="0" stroke="#888" stroke-width="1" opacity="1"/></g><g class="mark-text role-axis-title" pointer-events="none"><text text-anchor="middle" transform="translate(150,43)" font-family="sans-serif" font-size="18px" font-weight="bold" fill="#000" opacity="1">Reference</text></g></g><path class="foreground" aria-hidden="true" d="" pointer-events="none" display="none"/></g></g><g class="mark-group role-axis" role="graphics-symbol" aria-roledescription="axis" aria-label="Y-axis titled 'Delta method and IFT' for a linear scale with values from 1.2 to 2.8"><g transform="translate(0.5,0.5)"><path class="background" aria-hidden="true" d="M0,0h0v0h0Z" pointer-events="none"/><g><g class="mark-rule role-axis-tick" pointer-events="none"><line transform="translate(0,300)" x2="-5" y2="0" stroke="#888" stroke-width="1" opacity="1"/><line transform="translate(0,263)" x2="-5" y2="0" stroke="#888" stroke-width="1" opacity="1"/><line transform="translate(0,225)" x2="-5" y2="0" stroke="#888" stroke-width="1" opacity="1"/><line transform="translate(0,187)" x2="-5" y2="0" stroke="#888" stroke-width="1" opacity="1"/><line transform="translate(0,150)" x2="-5" y2="0" stroke="#888" stroke-width="1" opacity="1"/><line transform="translate(0,112)" x2="-5" y2="0" stroke="#888" stroke-width="1" opacity="1"/><line transform="translate(0,75)" x2="-5" y2="0" stroke="#888" stroke-width="1" opacity="1"/><line transform="translate(0,37)" x2="-5" y2="0" stroke="#888" stroke-width="1" opacity="1"/><line transform="translate(0,0)" x2="-5" y2="0" stroke="#888" stroke-width="1" opacity="1"/></g><g class="mark-text role-axis-label" pointer-events="none"><text text-anchor="end" transform="translate(-7,305)" font-family="sans-serif" font-size="18px" fill="#000" opacity="1">1.2</text><text text-anchor="end" transform="translate(-7,267.5)" font-family="sans-serif" font-size="18px" fill="#000" opacity="1">1.4</text><text text-anchor="end" transform="translate(-7,229.99999999999997)" font-family="sans-serif" font-size="18px" fill="#000" opacity="1">1.6</text><text text-anchor="end" transform="translate(-7,192.49999999999997)" font-family="sans-serif" font-size="18px" fill="#000" opacity="1">1.8</text><text text-anchor="end" transform="translate(-7,154.99999999999997)" font-family="sans-serif" font-size="18px" fill="#000" opacity="1">2.0</text><text text-anchor="end" transform="translate(-7,117.49999999999993)" font-family="sans-serif" font-size="18px" fill="#000" opacity="1">2.2</text><text text-anchor="end" transform="translate(-7,80)" font-family="sans-serif" font-size="18px" fill="#000" opacity="1">2.4</text><text text-anchor="end" transform="translate(-7,42.499999999999964)" font-family="sans-serif" font-size="18px" fill="#000" opacity="1">2.6</text><text text-anchor="end" transform="translate(-7,5)" font-family="sans-serif" font-size="18px" fill="#000" opacity="1">2.8</text></g><g class="mark-rule role-axis-domain" pointer-events="none"><line transform="translate(0,300)" x2="0" y2="-300" stroke="#888" stroke-width="1" opacity="1"/></g><g class="mark-text role-axis-title" pointer-events="none"><text text-anchor="middle" transform="translate(-36.0224609375,150) rotate(-90) translate(0,-4)" font-family="sans-serif" font-size="18px" font-weight="bold" fill="#000" opacity="1">Delta method and IFT</text></g></g><path class="foreground" aria-hidden="true" d="" pointer-events="none" display="none"/></g></g><g class="mark-rule role-mark concat_0_layer_0_marks" role="graphics-symbol" aria-roledescription="rule mark container"><line transform="translate(0,300)" x2="300" y2="-300" stroke="black" stroke-dasharray="8,8"/></g><g class="mark-symbol role-mark concat_0_layer_1_marks" role="graphics-object" aria-roledescription="symbol mark container"><path aria-label="reference: 2.37686095243; delta_method: 2.37752495934; X1: 1; X2: 1" role="graphics-symbol" aria-roledescription="point" transform="translate(220.6614285810989,79.21407012392507)" d="M3.873,0A3.873,3.873,0,1,1,-3.873,0A3.873,3.873,0,1,1,3.873,0" stroke="#4c78a8" stroke-width="2" opacity="0.7"/><path aria-label="reference: 2.68336841532; delta_method: 2.68719717186; X1: 2; X2: 1" role="graphics-symbol" aria-roledescription="point" transform="translate(278.1315778720784,21.15053027621121)" d="M3.873,0A3.873,3.873,0,1,1,-3.873,0A3.873,3.873,0,1,1,3.873,0" stroke="#f58518" stroke-width="2" opacity="0.7"/><path aria-label="reference: 2.58980474823; delta_method: 2.58581092651; X1: 3; X2: 1" role="graphics-symbol" aria-roledescription="point" transform="translate(260.5883902922855,40.160451278816886)" d="M3.873,0A3.873,3.873,0,1,1,-3.873,0A3.873,3.873,0,1,1,3.873,0" stroke="#e45756" stroke-width="2" opacity="0.7"/><path aria-label="reference: 1.96071948811; delta_method: 1.95891017662; X1: 1; X2: 2" role="graphics-symbol" aria-roledescription="point" transform="translate(142.63490401977603,157.70434188405517)" d="M-3.873,-3.873h7.746v7.746h-7.746Z" stroke="#4c78a8" stroke-width="2" opacity="0.7"/><path aria-label="reference: 2.36234840099; delta_method: 2.36248319512; X1: 2; X2: 2" role="graphics-symbol" aria-roledescription="point" transform="translate(217.94032518616555,82.03440091575747)" d="M-3.873,-3.873h7.746v7.746h-7.746Z" stroke="#f58518" stroke-width="2" opacity="0.7"/><path aria-label="reference: 1.62583837816; delta_method: 1.63624820742; X1: 3; X2: 2" role="graphics-symbol" aria-roledescription="point" transform="translate(79.84469590543968,218.20346110852967)" d="M-3.873,-3.873h7.746v7.746h-7.746Z" stroke="#e45756" stroke-width="2" opacity="0.7"/><path aria-label="reference: 1.75892963421; delta_method: 1.76898022531; X1: 1; X2: 3" role="graphics-symbol" aria-roledescription="point" transform="translate(104.79930641409234,193.31620775507105)" d="M0,-3.354L-3.873,3.354L3.873,3.354Z" stroke="#4c78a8" stroke-width="2" opacity="0.7"/><path aria-label="reference: 2.25425849206; delta_method: 2.2599298372; X1: 2; X2: 3" role="graphics-symbol" aria-roledescription="point" transform="translate(197.67346726058796,101.2631555257481)" d="M0,-3.354L-3.873,3.354L3.873,3.354Z" stroke="#f58518" stroke-width="2" opacity="0.7"/><path aria-label="reference: 2.47452027581; delta_method: 2.47490179752; X1: 3; X2: 3" role="graphics-symbol" aria-roledescription="point" transform="translate(238.9725517140126,60.95591296592534)" d="M0,-3.354L-3.873,3.354L3.873,3.354Z" stroke="#e45756" stroke-width="2" opacity="0.7"/><path aria-label="reference: 1.64447810358; delta_method: 1.65547195068; X1: 1; X2: 4" role="graphics-symbol" aria-roledescription="point" transform="translate(83.33964442097823,214.59900924756934)" d="M-3.873,-1.549L-3.873,1.549L-1.549,1.549L-1.549,3.873L1.549,3.873L1.549,1.549L3.873,1.549L3.873,-1.549L1.549,-1.549L1.549,-3.873L-1.549,-3.873L-1.549,-1.549Z" stroke="#4c78a8" stroke-width="2" opacity="0.7"/><path aria-label="reference: 2.10976398283; delta_method: 2.11223342541; X1: 2; X2: 4" role="graphics-symbol" aria-roledescription="point" transform="translate(170.58074677986448,128.95623273520567)" d="M-3.873,-1.549L-3.873,1.549L-1.549,1.549L-1.549,3.873L1.549,3.873L1.549,1.549L3.873,1.549L3.873,-1.549L1.549,-1.549L1.549,-3.873L-1.549,-3.873L-1.549,-1.549Z" stroke="#f58518" stroke-width="2" opacity="0.7"/><path aria-label="reference: 1.47330707042; delta_method: 1.50289774127; X1: 3; X2: 4" role="graphics-symbol" aria-roledescription="point" transform="translate(51.24507570439025,243.2066735120281)" d="M-3.873,-1.549L-3.873,1.549L-1.549,1.549L-1.549,3.873L1.549,3.873L1.549,1.549L3.873,1.549L3.873,-1.549L1.549,-1.549L1.549,-3.873L-1.549,-3.873L-1.549,-1.549Z" stroke="#e45756" stroke-width="2" opacity="0.7"/><path aria-label="reference: 2.25325775872; delta_method: 2.26462500775; X1: 1; X2: 5" role="graphics-symbol" aria-roledescription="point" transform="translate(197.48582975957564,100.38281104615947)" d="M-3.873,0L0,-3.873L3.873,0L0,3.873Z" stroke="#4c78a8" stroke-width="2" opacity="0.7"/><path aria-label="reference: 2.44029149393; delta_method: 2.45411155657; X1: 2; X2: 5" role="graphics-symbol" aria-roledescription="point" transform="translate(232.55465511148537,64.85408314249874)" d="M-3.873,0L0,-3.873L3.873,0L0,3.873Z" stroke="#f58518" stroke-width="2" opacity="0.7"/><path aria-label="reference: 2.28751394442; delta_method: 2.30576460193; X1: 3; X2: 5" role="graphics-symbol" aria-roledescription="point" transform="translate(203.90886457856053,92.66913713722946)" d="M-3.873,0L0,-3.873L3.873,0L0,3.873Z" stroke="#e45756" stroke-width="2" opacity="0.7"/></g></g><path class="foreground" aria-hidden="true" d="" display="none"/></g></g><g class="mark-group role-scope concat_1_group" role="graphics-object" aria-roledescription="group mark container"><g transform="translate(378,0)"><path class="background" aria-hidden="true" d="M0.5,0.5h300v300h-300Z" stroke="#ddd"/><g><g class="mark-group role-axis" aria-hidden="true"><g transform="translate(0.5,300.5)"><path class="background" aria-hidden="true" d="M0,0h0v0h0Z" pointer-events="none"/><g><g class="mark-rule role-axis-grid" pointer-events="none"><line transform="translate(0,-300)" x2="0" y2="300" stroke="#ddd" stroke-width="1" opacity="1"/><line transform="translate(37,-300)" x2="0" y2="300" stroke="#ddd" stroke-width="1" opacity="1"/><line transform="translate(75,-300)" x2="0" y2="300" stroke="#ddd" stroke-width="1" opacity="1"/><line transform="translate(113,-300)" x2="0" y2="300" stroke="#ddd" stroke-width="1" opacity="1"/><line transform="translate(150,-300)" x2="0" y2="300" stroke="#ddd" stroke-width="1" opacity="1"/><line transform="translate(188,-300)" x2="0" y2="300" stroke="#ddd" stroke-width="1" opacity="1"/><line transform="translate(225,-300)" x2="0" y2="300" stroke="#ddd" stroke-width="1" opacity="1"/><line transform="translate(263,-300)" x2="0" y2="300" stroke="#ddd" stroke-width="1" opacity="1"/><line transform="translate(300,-300)" x2="0" y2="300" stroke="#ddd" stroke-width="1" opacity="1"/></g></g><path class="foreground" aria-hidden="true" d="" pointer-events="none" display="none"/></g></g><g class="mark-group role-axis" aria-hidden="true"><g transform="translate(0.5,0.5)"><path class="background" aria-hidden="true" d="M0,0h0v0h0Z" pointer-events="none"/><g><g class="mark-rule role-axis-grid" pointer-events="none"><line transform="translate(0,300)" x2="300" y2="0" stroke="#ddd" stroke-width="1" opacity="1"/><line transform="translate(0,263)" x2="300" y2="0" stroke="#ddd" stroke-width="1" opacity="1"/><line transform="translate(0,225)" x2="300" y2="0" stroke="#ddd" stroke-width="1" opacity="1"/><line transform="translate(0,187)" x2="300" y2="0" stroke="#ddd" stroke-width="1" opacity="1"/><line transform="translate(0,150)" x2="300" y2="0" stroke="#ddd" stroke-width="1" opacity="1"/><line transform="translate(0,112)" x2="300" y2="0" stroke="#ddd" stroke-width="1" opacity="1"/><line transform="translate(0,75)" x2="300" y2="0" stroke="#ddd" stroke-width="1" opacity="1"/><line transform="translate(0,37)" x2="300" y2="0" stroke="#ddd" stroke-width="1" opacity="1"/><line transform="translate(0,0)" x2="300" y2="0" stroke="#ddd" stroke-width="1" opacity="1"/></g></g><path class="foreground" aria-hidden="true" d="" pointer-events="none" display="none"/></g></g><g class="mark-group role-axis" role="graphics-symbol" aria-roledescription="axis" aria-label="X-axis titled 'Reference' for a linear scale with values from 1.2 to 2.8"><g transform="translate(0.5,300.5)"><path class="background" aria-hidden="true" d="M0,0h0v0h0Z" pointer-events="none"/><g><g class="mark-rule role-axis-tick" pointer-events="none"><line transform="translate(0,0)" x2="0" y2="5" stroke="#888" stroke-width="1" opacity="1"/><line transform="translate(37,0)" x2="0" y2="5" stroke="#888" stroke-width="1" opacity="1"/><line transform="translate(75,0)" x2="0" y2="5" stroke="#888" stroke-width="1" opacity="1"/><line transform="translate(113,0)" x2="0" y2="5" stroke="#888" stroke-width="1" opacity="1"/><line transform="translate(150,0)" x2="0" y2="5" stroke="#888" stroke-width="1" opacity="1"/><line transform="translate(188,0)" x2="0" y2="5" stroke="#888" stroke-width="1" opacity="1"/><line transform="translate(225,0)" x2="0" y2="5" stroke="#888" stroke-width="1" opacity="1"/><line transform="translate(263,0)" x2="0" y2="5" stroke="#888" stroke-width="1" opacity="1"/><line transform="translate(300,0)" x2="0" y2="5" stroke="#888" stroke-width="1" opacity="1"/></g><g class="mark-text role-axis-label" pointer-events="none"><text text-anchor="start" transform="translate(0,21)" font-family="sans-serif" font-size="18px" fill="#000" opacity="1">1.2</text><text text-anchor="middle" transform="translate(37.49999999999999,21)" font-family="sans-serif" font-size="18px" fill="#000" opacity="0">1.4</text><text text-anchor="middle" transform="translate(75.00000000000003,21)" font-family="sans-serif" font-size="18px" fill="#000" opacity="1">1.6</text><text text-anchor="middle" transform="translate(112.50000000000003,21)" font-family="sans-serif" font-size="18px" fill="#000" opacity="0">1.8</text><text text-anchor="middle" transform="translate(150.00000000000003,21)" font-family="sans-serif" font-size="18px" fill="#000" opacity="1">2.0</text><text text-anchor="middle" transform="translate(187.50000000000006,21)" font-family="sans-serif" font-size="18px" fill="#000" opacity="0">2.2</text><text text-anchor="middle" transform="translate(225,21)" font-family="sans-serif" font-size="18px" fill="#000" opacity="1">2.4</text><text text-anchor="middle" transform="translate(262.50000000000006,21)" font-family="sans-serif" font-size="18px" fill="#000" opacity="0">2.6</text><text text-anchor="end" transform="translate(300,21)" font-family="sans-serif" font-size="18px" fill="#000" opacity="1">2.8</text></g><g class="mark-rule role-axis-domain" pointer-events="none"><line transform="translate(0,0)" x2="300" y2="0" stroke="#888" stroke-width="1" opacity="1"/></g><g class="mark-text role-axis-title" pointer-events="none"><text text-anchor="middle" transform="translate(150,43)" font-family="sans-serif" font-size="18px" font-weight="bold" fill="#000" opacity="1">Reference</text></g></g><path class="foreground" aria-hidden="true" d="" pointer-events="none" display="none"/></g></g><g class="mark-group role-axis" role="graphics-symbol" aria-roledescription="axis" aria-label="Y-axis titled 'Monte Carlo simulation' for a linear scale with values from 1.2 to 2.8"><g transform="translate(0.5,0.5)"><path class="background" aria-hidden="true" d="M0,0h0v0h0Z" pointer-events="none"/><g><g class="mark-rule role-axis-tick" pointer-events="none"><line transform="translate(0,300)" x2="-5" y2="0" stroke="#888" stroke-width="1" opacity="1"/><line transform="translate(0,263)" x2="-5" y2="0" stroke="#888" stroke-width="1" opacity="1"/><line transform="translate(0,225)" x2="-5" y2="0" stroke="#888" stroke-width="1" opacity="1"/><line transform="translate(0,187)" x2="-5" y2="0" stroke="#888" stroke-width="1" opacity="1"/><line transform="translate(0,150)" x2="-5" y2="0" stroke="#888" stroke-width="1" opacity="1"/><line transform="translate(0,112)" x2="-5" y2="0" stroke="#888" stroke-width="1" opacity="1"/><line transform="translate(0,75)" x2="-5" y2="0" stroke="#888" stroke-width="1" opacity="1"/><line transform="translate(0,37)" x2="-5" y2="0" stroke="#888" stroke-width="1" opacity="1"/><line transform="translate(0,0)" x2="-5" y2="0" stroke="#888" stroke-width="1" opacity="1"/></g><g class="mark-text role-axis-label" pointer-events="none"><text text-anchor="end" transform="translate(-7,305)" font-family="sans-serif" font-size="18px" fill="#000" opacity="1">1.2</text><text text-anchor="end" transform="translate(-7,267.5)" font-family="sans-serif" font-size="18px" fill="#000" opacity="1">1.4</text><text text-anchor="end" transform="translate(-7,229.99999999999997)" font-family="sans-serif" font-size="18px" fill="#000" opacity="1">1.6</text><text text-anchor="end" transform="translate(-7,192.49999999999997)" font-family="sans-serif" font-size="18px" fill="#000" opacity="1">1.8</text><text text-anchor="end" transform="translate(-7,154.99999999999997)" font-family="sans-serif" font-size="18px" fill="#000" opacity="1">2.0</text><text text-anchor="end" transform="translate(-7,117.49999999999993)" font-family="sans-serif" font-size="18px" fill="#000" opacity="1">2.2</text><text text-anchor="end" transform="translate(-7,80)" font-family="sans-serif" font-size="18px" fill="#000" opacity="1">2.4</text><text text-anchor="end" transform="translate(-7,42.499999999999964)" font-family="sans-serif" font-size="18px" fill="#000" opacity="1">2.6</text><text text-anchor="end" transform="translate(-7,5)" font-family="sans-serif" font-size="18px" fill="#000" opacity="1">2.8</text></g><g class="mark-rule role-axis-domain" pointer-events="none"><line transform="translate(0,300)" x2="0" y2="-300" stroke="#888" stroke-width="1" opacity="1"/></g><g class="mark-text role-axis-title" pointer-events="none"><text text-anchor="middle" transform="translate(-36.0224609375,150) rotate(-90) translate(0,-4)" font-family="sans-serif" font-size="18px" font-weight="bold" fill="#000" opacity="1">Monte Carlo simulation</text></g></g><path class="foreground" aria-hidden="true" d="" pointer-events="none" display="none"/></g></g><g class="mark-rule role-mark concat_1_layer_0_marks" role="graphics-symbol" aria-roledescription="rule mark container"><line transform="translate(0,300)" x2="300" y2="-300" stroke="black" stroke-dasharray="8,8"/></g><g class="mark-symbol role-mark concat_1_layer_1_marks" role="graphics-object" aria-roledescription="symbol mark container"><path aria-label="reference: 2.37686095243; monte_carlo: 2.3762308814; X1: 1; X2: 1" role="graphics-symbol" aria-roledescription="point" transform="translate(220.6614285810989,79.45670973739287)" d="M3.873,0A3.873,3.873,0,1,1,-3.873,0A3.873,3.873,0,1,1,3.873,0" stroke="#4c78a8" stroke-width="2" opacity="0.7"/><path aria-label="reference: 2.68336841532; monte_carlo: 2.68331758407; X1: 2; X2: 1" role="graphics-symbol" aria-roledescription="point" transform="translate(278.1315778720784,21.877952986476767)" d="M3.873,0A3.873,3.873,0,1,1,-3.873,0A3.873,3.873,0,1,1,3.873,0" stroke="#f58518" stroke-width="2" opacity="0.7"/><path aria-label="reference: 2.58980474823; monte_carlo: 2.59043510097; X1: 3; X2: 1" role="graphics-symbol" aria-roledescription="point" transform="translate(260.5883902922855,39.293418567697955)" d="M3.873,0A3.873,3.873,0,1,1,-3.873,0A3.873,3.873,0,1,1,3.873,0" stroke="#e45756" stroke-width="2" opacity="0.7"/><path aria-label="reference: 1.96071948811; monte_carlo: 1.96103442851; X1: 1; X2: 2" role="graphics-symbol" aria-roledescription="point" transform="translate(142.63490401977603,157.30604465415485)" d="M-3.873,-3.873h7.746v7.746h-7.746Z" stroke="#4c78a8" stroke-width="2" opacity="0.7"/><path aria-label="reference: 2.36234840099; monte_carlo: 2.36300905644; X1: 2; X2: 2" role="graphics-symbol" aria-roledescription="point" transform="translate(217.94032518616555,81.93580191748855)" d="M-3.873,-3.873h7.746v7.746h-7.746Z" stroke="#f58518" stroke-width="2" opacity="0.7"/><path aria-label="reference: 1.62583837816; monte_carlo: 1.62669381327; X1: 3; X2: 2" role="graphics-symbol" aria-roledescription="point" transform="translate(79.84469590543968,219.99491001139458)" d="M-3.873,-3.873h7.746v7.746h-7.746Z" stroke="#e45756" stroke-width="2" opacity="0.7"/><path aria-label="reference: 1.75892963421; monte_carlo: 1.75886482957; X1: 1; X2: 3" role="graphics-symbol" aria-roledescription="point" transform="translate(104.79930641409234,195.2128444562434)" d="M0,-3.354L-3.873,3.354L3.873,3.354Z" stroke="#4c78a8" stroke-width="2" opacity="0.7"/><path aria-label="reference: 2.25425849206; monte_carlo: 2.25444076512; X1: 2; X2: 3" role="graphics-symbol" aria-roledescription="point" transform="translate(197.67346726058796,102.29235653963302)" d="M0,-3.354L-3.873,3.354L3.873,3.354Z" stroke="#f58518" stroke-width="2" opacity="0.7"/><path aria-label="reference: 2.47452027581; monte_carlo: 2.47597247108; X1: 3; X2: 3" role="graphics-symbol" aria-roledescription="point" transform="translate(238.9725517140126,60.75516167290233)" d="M0,-3.354L-3.873,3.354L3.873,3.354Z" stroke="#e45756" stroke-width="2" opacity="0.7"/><path aria-label="reference: 1.64447810358; monte_carlo: 1.64345294515; X1: 1; X2: 4" role="graphics-symbol" aria-roledescription="point" transform="translate(83.33964442097823,216.852572783848)" d="M-3.873,-1.549L-3.873,1.549L-1.549,1.549L-1.549,3.873L1.549,3.873L1.549,1.549L3.873,1.549L3.873,-1.549L1.549,-1.549L1.549,-3.873L-1.549,-3.873L-1.549,-1.549Z" stroke="#4c78a8" stroke-width="2" opacity="0.7"/><path aria-label="reference: 2.10976398283; monte_carlo: 2.10974435263; X1: 2; X2: 4" role="graphics-symbol" aria-roledescription="point" transform="translate(170.58074677986448,129.4229338828045)" d="M-3.873,-1.549L-3.873,1.549L-1.549,1.549L-1.549,3.873L1.549,3.873L1.549,1.549L3.873,1.549L3.873,-1.549L1.549,-1.549L1.549,-3.873L-1.549,-3.873L-1.549,-1.549Z" stroke="#f58518" stroke-width="2" opacity="0.7"/><path aria-label="reference: 1.47330707042; monte_carlo: 1.47554505454; X1: 3; X2: 4" role="graphics-symbol" aria-roledescription="point" transform="translate(51.24507570439025,248.33530227466593)" d="M-3.873,-1.549L-3.873,1.549L-1.549,1.549L-1.549,3.873L1.549,3.873L1.549,1.549L3.873,1.549L3.873,-1.549L1.549,-1.549L1.549,-3.873L-1.549,-3.873L-1.549,-1.549Z" stroke="#e45756" stroke-width="2" opacity="0.7"/><path aria-label="reference: 2.25325775872; monte_carlo: 2.25510396651; X1: 1; X2: 5" role="graphics-symbol" aria-roledescription="point" transform="translate(197.48582975957564,102.16800627856576)" d="M-3.873,0L0,-3.873L3.873,0L0,3.873Z" stroke="#4c78a8" stroke-width="2" opacity="0.7"/><path aria-label="reference: 2.44029149393; monte_carlo: 2.43907612883; X1: 2; X2: 5" role="graphics-symbol" aria-roledescription="point" transform="translate(232.55465511148537,67.67322584470836)" d="M-3.873,0L0,-3.873L3.873,0L0,3.873Z" stroke="#f58518" stroke-width="2" opacity="0.7"/><path aria-label="reference: 2.28751394442; monte_carlo: 2.28962702652; X1: 3; X2: 5" role="graphics-symbol" aria-roledescription="point" transform="translate(203.90886457856053,95.69493252764481)" d="M-3.873,0L0,-3.873L3.873,0L0,3.873Z" stroke="#e45756" stroke-width="2" opacity="0.7"/></g></g><path class="foreground" aria-hidden="true" d="" display="none"/></g></g><g class="mark-group role-legend" role="graphics-symbol" aria-roledescription="legend" aria-label="Symbol legend titled 'X1' for stroke color with 3 values: 1, 2, 3"><g transform="translate(698,0)"><path class="background" aria-hidden="true" d="M0,0h22v61h-22Z" pointer-events="none"/><g><g class="mark-group role-legend-entry"><g transform="translate(0,16)"><path class="background" aria-hidden="true" d="M0,0h0v0h0Z" pointer-events="none"/><g><g class="mark-group role-scope" role="graphics-object" aria-roledescription="group mark container"><g transform="translate(0,0)"><path class="background" aria-hidden="true" d="M0,0h21.5615234375v12.5h-21.5615234375Z" pointer-events="none" opacity="1"/><g><g class="mark-symbol role-legend-symbol" pointer-events="none"><path transform="translate(6,6)" d="M5,0A5,5,0,1,1,-5,0A5,5,0,1,1,5,0" stroke="#4c78a8" stroke-width="1.5" opacity="0.7"/></g><g class="mark-text role-legend-label" pointer-events="none"><text text-anchor="start" transform="translate(16,9)" font-family="sans-serif" font-size="10px" fill="#000" opacity="1">1</text></g></g><path class="foreground" aria-hidden="true" d="" pointer-events="none" display="none"/></g><g transform="translate(0,16)"><path class="background" aria-hidden="true" d="M0,0h21.5615234375v12.5h-21.5615234375Z" pointer-events="none" opacity="1"/><g><g class="mark-symbol role-legend-symbol" pointer-events="none"><path transform="translate(6,6)" d="M5,0A5,5,0,1,1,-5,0A5,5,0,1,1,5,0" stroke="#f58518" stroke-width="1.5" opacity="0.7"/></g><g class="mark-text role-legend-label" pointer-events="none"><text text-anchor="start" transform="translate(16,9)" font-family="sans-serif" font-size="10px" fill="#000" opacity="1">2</text></g></g><path class="foreground" aria-hidden="true" d="" pointer-events="none" display="none"/></g><g transform="translate(0,32)"><path class="background" aria-hidden="true" d="M0,0h21.5615234375v12.5h-21.5615234375Z" pointer-events="none" opacity="1"/><g><g class="mark-symbol role-legend-symbol" pointer-events="none"><path transform="translate(6,6)" d="M5,0A5,5,0,1,1,-5,0A5,5,0,1,1,5,0" stroke="#e45756" stroke-width="1.5" opacity="0.7"/></g><g class="mark-text role-legend-label" pointer-events="none"><text text-anchor="start" transform="translate(16,9)" font-family="sans-serif" font-size="10px" fill="#000" opacity="1">3</text></g></g><path class="foreground" aria-hidden="true" d="" pointer-events="none" display="none"/></g></g></g><path class="foreground" aria-hidden="true" d="" pointer-events="none" display="none"/></g></g><g class="mark-text role-legend-title" pointer-events="none"><text text-anchor="start" transform="translate(0,9)" font-family="sans-serif" font-size="11px" font-weight="bold" fill="#000" opacity="1">X1</text></g></g><path class="foreground" aria-hidden="true" d="" pointer-events="none" display="none"/></g></g><g class="mark-group role-legend" role="graphics-symbol" aria-roledescription="legend" aria-label="Symbol legend titled 'X2' for shape with 5 values: 1, 2, 3, 4, 5"><g transform="translate(698,69)"><path class="background" aria-hidden="true" d="M0,0h22v91h-22Z" pointer-events="none"/><g><g class="mark-group role-legend-entry"><g transform="translate(0,16)"><path class="background" aria-hidden="true" d="M0,0h0v0h0Z" pointer-events="none"/><g><g class="mark-group role-scope" role="graphics-object" aria-roledescription="group mark container"><g transform="translate(0,0)"><path class="background" aria-hidden="true" d="M0,0h21.5615234375v12.5h-21.5615234375Z" pointer-events="none" opacity="1"/><g><g class="mark-symbol role-legend-symbol" pointer-events="none"><path transform="translate(6,6)" d="M5,0A5,5,0,1,1,-5,0A5,5,0,1,1,5,0" stroke="#888" stroke-width="1.5" opacity="0.7"/></g><g class="mark-text role-legend-label" pointer-events="none"><text text-anchor="start" transform="translate(16,9)" font-family="sans-serif" font-size="10px" fill="#000" opacity="1">1</text></g></g><path class="foreground" aria-hidden="true" d="" pointer-events="none" display="none"/></g><g transform="translate(0,16)"><path class="background" aria-hidden="true" d="M0,0h21.5615234375v12.5h-21.5615234375Z" pointer-events="none" opacity="1"/><g><g class="mark-symbol role-legend-symbol" pointer-events="none"><path transform="translate(6,6)" d="M-5,-5h10v10h-10Z" stroke="#888" stroke-width="1.5" opacity="0.7"/></g><g class="mark-text role-legend-label" pointer-events="none"><text text-anchor="start" transform="translate(16,9)" font-family="sans-serif" font-size="10px" fill="#000" opacity="1">2</text></g></g><path class="foreground" aria-hidden="true" d="" pointer-events="none" display="none"/></g><g transform="translate(0,31)"><path class="background" aria-hidden="true" d="M0,0h21.5615234375v11.830127018922191h-21.5615234375Z" pointer-events="none" opacity="1"/><g><g class="mark-symbol role-legend-symbol" pointer-events="none"><path transform="translate(6,6)" d="M0,-4.33L-5,4.33L5,4.33Z" stroke="#888" stroke-width="1.5" opacity="0.7"/></g><g class="mark-text role-legend-label" pointer-events="none"><text text-anchor="start" transform="translate(16,9)" font-family="sans-serif" font-size="10px" fill="#000" opacity="1">3</text></g></g><path class="foreground" aria-hidden="true" d="" pointer-events="none" display="none"/></g><g transform="translate(0,46)"><path class="background" aria-hidden="true" d="M0,0h21.5615234375v12.5h-21.5615234375Z" pointer-events="none" opacity="1"/><g><g class="mark-symbol role-legend-symbol" pointer-events="none"><path transform="translate(6,6)" d="M-5,-2L-5,2L-2,2L-2,5L2,5L2,2L5,2L5,-2L2,-2L2,-5L-2,-5L-2,-2Z" stroke="#888" stroke-width="1.5" opacity="0.7"/></g><g class="mark-text role-legend-label" pointer-events="none"><text text-anchor="start" transform="translate(16,9)" font-family="sans-serif" font-size="10px" fill="#000" opacity="1">4</text></g></g><path class="foreground" aria-hidden="true" d="" pointer-events="none" display="none"/></g><g transform="translate(0,62)"><path class="background" aria-hidden="true" d="M0,0h21.5615234375v12.5h-21.5615234375Z" pointer-events="none" opacity="1"/><g><g class="mark-symbol role-legend-symbol" pointer-events="none"><path transform="translate(6,6)" d="M-5,0L0,-5L5,0L0,5Z" stroke="#888" stroke-width="1.5" opacity="0.7"/></g><g class="mark-text role-legend-label" pointer-events="none"><text text-anchor="start" transform="translate(16,9)" font-family="sans-serif" font-size="10px" fill="#000" opacity="1">5</text></g></g><path class="foreground" aria-hidden="true" d="" pointer-events="none" display="none"/></g></g></g><path class="foreground" aria-hidden="true" d="" pointer-events="none" display="none"/></g></g><g class="mark-text role-legend-title" pointer-events="none"><text text-anchor="start" transform="translate(0,9)" font-family="sans-serif" font-size="11px" font-weight="bold" fill="#000" opacity="1">X2</text></g></g><path class="foreground" aria-hidden="true" d="" pointer-events="none" display="none"/></g></g><g class="mark-group role-title"><g transform="translate(332.48876953125,-38)"><path class="background" aria-hidden="true" d="M0,0h0v0h0Z" pointer-events="none"/><g><g class="mark-text role-title-text" role="graphics-symbol" aria-roledescription="title" aria-label="Title text '100000 samples'" pointer-events="none"><text text-anchor="middle" transform="translate(0,19)" font-family="sans-serif" font-size="24px" font-weight="bold" fill="#000" opacity="1">100000 samples</text></g></g><path class="foreground" aria-hidden="true" d="" pointer-events="none" display="none"/></g></g></g><path class="foreground" aria-hidden="true" d="" display="none"/></g></g></g></svg>