<svg xmlns="http://www.w3.org/2000/svg" xmlns:xlink="http://www.w3.org/1999/xlink" version="1.1" class="marks" width="786" height="396" viewBox="0 0 786 396"><rect width="786" height="396" fill="white"/><g fill="none" stroke-miterlimit="10" transform="translate(61,43)"><g class="mark-group role-frame root" role="graphics-object" aria-roledescription="group mark container"><g transform="translate(0,0)"><path class="background" aria-hidden="true" d="M0,0h0v300h0Z"/><g><g class="mark-group role-scope concat_0_group" role="graphics-object" aria-roledescription="group mark container"><g transform="translate(0,0)"><path class="background" aria-hidden="true" d="M0.5,0.5h300v300h-300Z" stroke="#ddd"/><g><g class="mark-group role-axis" aria-hidden="true"><g transform="translate(0.5,300.5)"><path class="background" aria-hidden="true" d="M0,0h0v0h0Z" pointer-events="none"/><g><g class="mark-rule role-axis-grid" pointer-events="none"><line transform="translate(0,-300)" x2="0" y2="300" stroke="#ddd" stroke-width="1" opacity="1"/><line transform="translate(37,-300)" x2="0" y2="300" stroke="#ddd" stroke-width="1" opacity="1"/><line transform="translate(75,-300)" x2="0" y2="300" stroke="#ddd" stroke-width="1" opacity="1"/><line transform="translate(113,-300)" x2="0" y2="300" stroke="#ddd" stroke-width="1" opacity="1"/><line transform="translate(150,-300)" x2="0" y2="300" stroke="#ddd" stroke-width="1" opacity="1"/><line transform="translate(188,-300)" x2="0" y2="300" stroke="#ddd" stroke-width="1" opacity="1"/><line transform="translate(225,-300)" x2="0" y2="300" stroke="#ddd" stroke-width="1" opacity="1"/><line transform="translate(263,-300)" x2="0" y2="300" stroke="#ddd" stroke-width="1" opacity="1"/><line transform="translate(300,-300)" x2="0" y2="300" stroke="#ddd" stroke-width="1" opacity="1"/></g></g><path class="foreground" aria-hidden="true" d="" pointer-events="none" display="none"/></g></g><g class="mark-group role-axis" aria-hidden="true"><g transform="translate(0.5,0.5)"><path class="background" aria-hidden="true" d="M0,0h0v0h0Z" pointer-events="none"/><g><g class="mark-rule role-axis-grid" pointer-events="none"><line transform="translate(0,300)" x2="300" y2="0" stroke="#ddd" stroke-width="1" opacity="1"/><line transform="translate(0,263)" x2="300" y2="0" stroke="#ddd" stroke-width="1" opacity="1"/><line transform="translate(0,225)" x2="300" y2="0" stroke="#ddd" stroke-width="1" opacity="1"/><line transform="translate(0,187)" x2="300" y2="0" stroke="#ddd" stroke-width="1" opacity="1"/><line transform="translate(0,150)" x2="300" y2="0" stroke="#ddd" stroke-width="1" opacity="1"/><line transform="translate(0,112)" x2="300" y2="0" stroke="#ddd" stroke-width="1" opacity="1"/><line transform="translate(0,75)" x2="300" y2="0" stroke="#ddd" stroke-width="1" opacity="1"/><line transform="translate(0,37)" x2="300" y2="0" stroke="#ddd" stroke-width="1" opacity="1"/><line transform="translate(0,0)" x2="300" y2="0" stroke="#ddd" stroke-width="1" opacity="1"/></g></g><path class="foreground" aria-hidden="true" d="" pointer-events="none" display="none"/></g></g><g class="mark-group role-axis" role="graphics-symbol" aria-roledescription="axis" aria-label="X-axis titled 'Reference' for a linear scale with values from 1.2 to 2.8"><g transform="translate(0.5,300.5)"><path class="background" aria-hidden="true" d="M0,0h0v0h0Z" pointer-events="none"/><g><g class="mark-rule role-axis-tick" pointer-events="none"><line transform="translate(0,0)" x2="0" y2="5" stroke="#888" stroke-width="1" opacity="1"/><line transform="translate(37,0)" x2="0" y2="5" stroke="#888" stroke-width="1" opacity="1"/><line transform="translate(75,0)" x2="0" y2="5" stroke="#888" stroke-width="1" opacity="1"/><line transform="translate(113,0)" x2="0" y2="5" stroke="#888" stroke-width="1" opacity="1"/><line transform="translate(150,0)" x2="0" y2="5" stroke="#888" stroke-width="1" opacity="1"/><line transform="translate(188,0)" x2="0" y2="5" stroke="#888" stroke-width="1" opacity="1"/><line transform="translate(225,0)" x2="0" y2="5" stroke="#888" stroke-width="1" opacity="1"/><line transform="translate(263,0)" x2="0" y2="5" stroke="#888" stroke-width="1" opacity="1"/><line transform="translate(300,0)" x2="0" y2="5" stroke="#888" stroke-width="1" opacity="1"/></g><g class="mark-text role-axis-label" pointer-events="none"><text text-anchor="start" transform="translate(0,21)" font-family="sans-serif" font-size="18px" fill="#000" opacity="1">1.2</text><text text-anchor="middle" transform="translate(37.49999999999999,21)" font-family="sans-serif" font-size="18px" fill="#000" opacity="0">1.4</text><text text-anchor="middle" transform="translate(75.00000000000003,21)" font-family="sans-serif" font-size="18px" fill="#000" opacity="1">1.6</text><text text-anchor="middle" transform="translate(112.50000000000003,21)" font-family="sans-serif" font-size="18px" fill="#000" opacity="0">1.8</text><text text-anchor="middle" transform="translate(150.00000000000003,21)" font-family="sans-serif" font-size="18px" fill="#000" opacity="1">2.0</text><text text-anchor="middle" transform="translate(187.50000000000006,21)" font-family="sans-serif" font-size="18px" fill="#000" opacity="0">2.2</text><text text-anchor="middle" transform="translate(225,21)" font-family="sans-serif" font-size="18px" fill="#000" opacity="1">2.4</text><text text-anchor="middle" transform="translate(262.50000000000006,21)" font-family="sans-serif" font-size="18px" fill="#000" opacity="0">2.6</text><text text-anchor="end" transform="translate(300,21)" font-family="sans-serif" font-size="18px" fill="#000" opacity="1">2.8</text></g><g class="mark-rule role-axis-domain" pointer-events="none"><line transform="translate(0,0)" x2="300" y2="0" stroke="#888" stroke-width="1" opacity="1"/></g><g class="mark-text role-axis-title" pointer-events="none"><text text-anchor="middle" transform="translate(150,43)" font-family="sans-serif" font-size="18px" font-weight="bold" fill="#000" opacity="1">Reference</text></g></g><path class="foreground" aria-hidden="true" d="" pointer-events="none" display="none"/></g></g><g class="mark-group role-axis" role="graphics-symbol" aria-roledescription="axis" aria-label="Y-axis titled 'Delta method and IFT' for a linear scale with values from 1.2 to 2.8"><g transform="translate(0.5,0.5)"><path class="background" aria-hidden="true" d="M0,0h0v0h0Z" pointer-events="none"/><g><g class="mark-rule role-axis-tick" pointer-events="none"><line transform="translate(0,300)" x2="-5" y2="0" stroke="#888" stroke-width="1" opacity="1"/><line transform="translate(0,263)" x2="-5" y2="0" stroke="#888" stroke-width="1" opacity="1"/><line transform="translate(0,225)" x2="-5" y2="0" stroke="#888" stroke-width="1" opacity="1"/><line transform="translate(0,187)" x2="-5" y2="0" stroke="#888" stroke-width="1" opacity="1"/><line transform="translate(0,150)" x2="-5" y2="0" stroke="#888" stroke-width="1" opacity="1"/><line transform="translate(0,112)" x2="-5" y2="0" stroke="#888" stroke-width="1" opacity="1"/><line transform="translate(0,75)" x2="-5" y2="0" stroke="#888" stroke-width="1" opacity="1"/><line transform="translate(0,37)" x2="-5" y2="0" stroke="#888" stroke-width="1" opacity="1"/><line transform="translate(0,0)" x2="-5" y2="0" stroke="#888" stroke-width="1" opacity="1"/></g><g class="mark-text role-axis-label" pointer-events="none"><text text-anchor="end" transform="translate(-7,305)" font-family="sans-serif" font-size="18px" fill="#000" opacity="1">1.2</text><text text-anchor="end" transform="translate(-7,267.5)" font-family="sans-serif" font-size="18px" fill="#000" opacity="1">1.4</text><text text-anchor="end" transform="translate(-7,229.99999999999997)" font-family="sans-serif" font-size="18px" fill="#000" opacity="1">1.6</text><text text-anchor="end" transform="translate(-7,192.49999999999997)" font-family="sans-serif" font-size="18px" fill="#000" opacity="1">1.8</text><text text-anchor="end" transform="translate(-7,154.99999999999997)" font-family="sans-serif" font-size="18px" fill="#000" opacity="1">2.0</text><text text-anchor="end" transform="translate(-7,117.49999999999993)" font-family="sans-serif" font-size="18px" fill="#000" opacity="1">2.2</text><text text-anchor="end" transform="translate(-7,80)" font-family="sans-serif" font-size="18px" fill="#000" opacity="1">2.4</text><text text-anchor="end" transform="translate(-7,42.499999999999964)" font-family="sans-serif" font-size="18px" fill="#000" opacity="1">2.6</text><text text-anchor="end" transform="translate(-7,5)" font-family="sans-serif" font-size="18px" fill="#000" opacity="1">2.8</text></g><g class="mark-rule role-axis-domain" pointer-events="none"><line transform="translate(0,300)" x2="0" y2="-300" stroke="#888" stroke-width="1" opacity="1"/></g><g class="mark-text role-axis-title" pointer-events="none"><text text-anchor="middle" transform="translate(-36.0224609375,150) rotate(-90) translate(0,-4)" font-family="sans-serif" font-size="18px" font-weight="bold" fill="#000" opacity="1">Delta method and IFT</text></g></g><path class="foreground" aria-hidden="true" d="" pointer-events="none" display="none"/></g></g><g class="mark-rule role-mark concat_0_layer_0_marks" role="graphics-symbol" aria-roledescription="rule mark container"><line transform="translate(0,300)" x2="300" y2="-300" stroke="black" stroke-dasharray="8,8"/></g><g class="mark-symbol role-mark concat_0_layer_1_marks" role="graphics-object" aria-roledescription="symbol mark container"><path aria-label="reference: 2.37672248754; delta_method: 2.37752495934; X1: 1; X2: 1" role="graphics-symbol" aria-roledescription="point" transform="translate(220.6354664145372,79.21407012392507)" d="M3.873,0A3.873,3.873,0,1,1,-3.873,0A3.873,3.873,0,1,1,3.873,0" stroke="#4c78a8" stroke-width="2" opacity="0.7"/><path aria-label="reference: 2.68346587699; delta_method: 2.68719717186; X1: 2; X2: 1" role="graphics-symbol" aria-roledescription="point" transform="translate(278.14985193603275,21.15053027621121)" d="M3.873,0A3.873,3.873,0,1,1,-3.873,0A3.873,3.873,0,1,1,3.873,0" stroke="#f58518" stroke-width="2" opacity="0.7"/><path aria-label="reference: 2.58978047525; delta_method: 2.58581092651; X1: 3; X2: 1" role="graphics-symbol" aria-roledescription="point" transform="translate(260.58383910845475,40.160451278816886)" d="M3.873,0A3.873,3.873,0,1,1,-3.873,0A3.873,3.873,0,1,1,3.873,0" stroke="#e45756" stroke-width="2" opacity="0.7"/><path aria-label="reference: 1.96067564769; delta_method: 1.95891017662; X1: 1; X2: 2" role="graphics-symbol" aria-roledescription="point" transform="translate(142.62668394268317,157.70434188405517)" d="M-3.873,-3.873h7.746v7.746h-7.746Z" stroke="#4c78a8" stroke-width="2" opacity="0.7"/><path aria-label="reference: 2.36263078691; delta_method: 2.36248319512; X1: 2; X2: 2" role="graphics-symbol" aria-roledescription="point" transform="translate(217.99327254472624,82.03440091575747)" d="M-3.873,-3.873h7.746v7.746h-7.746Z" stroke="#f58518" stroke-width="2" opacity="0.7"/><path aria-label="reference: 1.62607542558; delta_method: 1.63624820742; X1: 3; X2: 2" role="graphics-symbol" aria-roledescription="point" transform="translate(79.88914229581378,218.20346110852967)" d="M-3.873,-3.873h7.746v7.746h-7.746Z" stroke="#e45756" stroke-width="2" opacity="0.7"/><path aria-label="reference: 1.75865489579; delta_method: 1.76898022531; X1: 1; X2: 3" role="graphics-symbol" aria-roledescription="point" transform="translate(104.74779296137298,193.31620775507105)" d="M0,-3.354L-3.873,3.354L3.873,3.354Z" stroke="#4c78a8" stroke-width="2" opacity="0.7"/><path aria-label="reference: 2.25408186455; delta_method: 2.2599298372; X1: 2; X2: 3" role="graphics-symbol" aria-roledescription="point" transform="translate(197.6403496035758,101.2631555257481)" d="M0,-3.354L-3.873,3.354L3.873,3.354Z" stroke="#f58518" stroke-width="2" opacity="0.7"/><path aria-label="reference: 2.47479010391; delta_method: 2.47490179752; X1: 3; X2: 3" role="graphics-symbol" aria-roledescription="point" transform="translate(239.02314448288377,60.95591296592534)" d="M0,-3.354L-3.873,3.354L3.873,3.354Z" stroke="#e45756" stroke-width="2" opacity="0.7"/><path aria-label="reference: 1.64438630299; delta_method: 1.65547195068; X1: 1; X2: 4" role="graphics-symbol" aria-roledescription="point" transform="translate(83.32243181113158,214.59900924756934)" d="M-3.873,-1.549L-3.873,1.549L-1.549,1.549L-1.549,3.873L1.549,3.873L1.549,1.549L3.873,1.549L3.873,-1.549L1.549,-1.549L1.549,-3.873L-1.549,-3.873L-1.549,-1.549Z" stroke="#4c78a8" stroke-width="2" opacity="0.7"/><path aria-label="reference: 2.10984110813; delta_method: 2.11223342541; X1: 2; X2: 4" role="graphics-symbol" aria-roledescription="point" transform="translate(170.59520777357724,128.95623273520567)" d="M-3.873,-1.549L-3.873,1.549L-1.549,1.549L-1.549,3.873L1.549,3.873L1.549,1.549L3.873,1.549L3.873,-1.549L1.549,-1.549L1.549,-3.873L-1.549,-3.873L-1.549,-1.549Z" stroke="#f58518" stroke-width="2" opacity="0.7"/><path aria-label="reference: 1.47357606324; delta_method: 1.50289774127; X1: 3; X2: 4" role="graphics-symbol" aria-roledescription="point" transform="translate(51.29551185657636,243.2066735120281)" d="M-3.873,-1.549L-3.873,1.549L-1.549,1.549L-1.549,3.873L1.549,3.873L1.549,1.549L3.873,1.549L3.873,-1.549L1.549,-1.549L1.549,-3.873L-1.549,-3.873L-1.549,-1.549Z" stroke="#e45756" stroke-width="2" opacity="0.7"/><path aria-label="reference: 2.25351130073; delta_method: 2.26462500775; X1: 1; X2: 5" role="graphics-symbol" aria-roledescription="point" transform="translate(197.5333688874937,100.38281104615947)" d="M-3.873,0L0,-3.873L3.873,0L0,3.873Z" stroke="#4c78a8" stroke-width="2" opacity="0.7"/><path aria-label="reference: 2.44000211927; delta_method: 2.45411155657; X1: 2; X2: 5" role="graphics-symbol" aria-roledescription="point" transform="translate(232.50039736353492,64.85408314249874)" d="M-3.873,0L0,-3.873L3.873,0L0,3.873Z" stroke="#f58518" stroke-width="2" opacity="0.7"/><path aria-label="reference: 2.28761153386; delta_method: 2.30576460193; X1: 3; X2: 5" role="graphics-symbol" aria-roledescription="point" transform="translate(203.92716259903185,92.66913713722946)" d="M-3.873,0L0,-3.873L3.873,0L0,3.873Z" stroke="#e45756" stroke-width="2" opacity="0.7"/></g></g><path class="foreground" aria-hidden="true" d="" display="none"/></g></g><g class="mark-group role-scope concat_1_group" role="graphics-object" aria-roledescription="group mark container"><g transform="translate(378,0)"><path class="background" aria-hidden="true" d="M0.5,0.5h300v300h-300Z" stroke="#ddd"/><g><g class="mark-group role-axis" aria-hidden="true"><g transform="translate(0.5,300.5)"><path class="background" aria-hidden="true" d="M0,0h0v0h0Z" pointer-events="none"/><g><g class="mark-rule role-axis-grid" pointer-events="none"><line transform="translate(0,-300)" x2="0" y2="300" stroke="#ddd" stroke-width="1" opacity="1"/><line transform="translate(37,-300)" x2="0" y2="300" stroke="#ddd" stroke-width="1" opacity="1"/><line transform="translate(75,-300)" x2="0" y2="300" stroke="#ddd" stroke-width="1" opacity="1"/><line transform="translate(113,-300)" x2="0" y2="300" stroke="#ddd" stroke-width="1" opacity="1"/><line transform="translate(150,-300)" x2="0" y2="300" stroke="#ddd" stroke-width="1" opacity="1"/><line transform="translate(188,-300)" x2="0" y2="300" stroke="#ddd" stroke-width="1" opacity="1"/><line transform="translate(225,-300)" x2="0" y2="300" stroke="#ddd" stroke-width="1" opacity="1"/><line transform="translate(263,-300)" x2="0" y2="300" stroke="#ddd" stroke-width="1" opacity="1"/><line transform="translate(300,-300)" x2="0" y2="300" stroke="#ddd" stroke-width="1" opacity="1"/></g></g><path class="foreground" aria-hidden="true" d="" pointer-events="none" display="none"/></g></g><g class="mark-group role-axis" aria-hidden="true"><g transform="translate(0.5,0.5)"><path class="background" aria-hidden="true" d="M0,0h0v0h0Z" pointer-events="none"/><g><g class="mark-rule role-axis-grid" pointer-events="none"><line transform="translate(0,300)" x2="300" y2="0" stroke="#ddd" stroke-width="1" opacity="1"/><line transform="translate(0,263)" x2="300" y2="0" stroke="#ddd" stroke-width="1" opacity="1"/><line transform="translate(0,225)" x2="300" y2="0" stroke="#ddd" stroke-width="1" opacity="1"/><line transform="translate(0,187)" x2="300" y2="0" stroke="#ddd" stroke-width="1" opacity="1"/><line transform="translate(0,150)" x2="300" y2="0" stroke="#ddd" stroke-width="1" opacity="1"/><line transform="translate(0,112)" x2="300" y2="0" stroke="#ddd" stroke-width="1" opacity="1"/><line transform="translate(0,75)" x2="300" y2="0" stroke="#ddd" stroke-width="1" opacity="1"/><line transform="translate(0,37)" x2="300" y2="0" stroke="#ddd" stroke-width="1" opacity="1"/><line transform="translate(0,0)" x2="300" y2="0" stroke="#ddd" stroke-width="1" opacity="1"/></g></g><path class="foreground" aria-hidden="true" d="" pointer-events="none" display="none"/></g></g><g class="mark-group role-axis" role="graphics-symbol" aria-roledescription="axis" aria-label="X-axis titled 'Reference' for a linear scale with values from 1.2 to 2.8"><g transform="translate(0.5,300.5)"><path class="background" aria-hidden="true" d="M0,0h0v0h0Z" pointer-events="none"/><g><g class="mark-rule role-axis-tick" pointer-events="none"><line transform="translate(0,0)" x2="0" y2="5" stroke="#888" stroke-width="1" opacity="1"/><line transform="translate(37,0)" x2="0" y2="5" stroke="#888" stroke-width="1" opacity="1"/><line transform="translate(75,0)" x2="0" y2="5" stroke="#888" stroke-width="1" opacity="1"/><line transform="translate(113,0)" x2="0" y2="5" stroke="#888" stroke-width="1" opacity="1"/><line transform="translate(150,0)" x2="0" y2="5" stroke="#888" stroke-width="1" opacity="1"/><line transform="translate(188,0)" x2="0" y2="5" stroke="#888" stroke-width="1" opacity="1"/><line transform="translate(225,0)" x2="0" y2="5" stroke="#888" stroke-width="1" opacity="1"/><line transform="translate(263,0)" x2="0" y2="5" stroke="#888" stroke-width="1" opacity="1"/><line transform="translate(300,0)" x2="0" y2="5" stroke="#888" stroke-width="1" opacity="1"/></g><g class="mark-text role-axis-label" pointer-events="none"><text text-anchor="start" transform="translate(0,21)" font-family="sans-serif" font-size="18px" fill="#000" opacity="1">1.2</text><text text-anchor="middle" transform="translate(37.49999999999999,21)" font-family="sans-serif" font-size="18px" fill="#000" opacity="0">1.4</text><text text-anchor="middle" transform="translate(75.00000000000003,21)" font-family="sans-serif" font-size="18px" fill="#000" opacity="1">1.6</text><text text-anchor="middle" transform="translate(112.50000000000003,21)" font-family="sans-serif" font-size="18px" fill="#000" opacity="0">1.8</text><text text-anchor="middle" transform="translate(150.00000000000003,21)" font-family="sans-serif" font-size="18px" fill="#000" opacity="1">2.0</text><text text-anchor="middle" transform="translate(187.50000000000006,21)" font-family="sans-serif" font-size="18px" fill="#000" opacity="0">2.2</text><text text-anchor="middle" transform="translate(225,21)" font-family="sans-serif" font-size="18px" fill="#000" opacity="1">2.4</text><text text-anchor="middle" transform="translate(262.50000000000006,21)" font-family="sans-serif" font-size="18px" fill="#000" opacity="0">2.6</text><text text-anchor="end" transform="translate(300,21)" font-family="sans-serif" font-size="18px" fill="#000" opacity="1">2.8</text></g><g class="mark-rule role-axis-domain" pointer-events="none"><line transform="translate(0,0)" x2="300" y2="0" stroke="#888" stroke-width="1" opacity="1"/></g><g class="mark-text role-axis-title" pointer-events="none"><text text-anchor="middle" transform="translate(150,43)" font-family="sans-serif" font-size="18px" font-weight="bold" fill="#000" opacity="1">Reference</text></g></g><path class="foreground" aria-hidden="true" d="" pointer-events="none" display="none"/></g></g><g class="mark-group role-axis" role="graphics-symbol" aria-roledescription="axis" aria-label="Y-axis titled 'Monte Carlo simulation' for a linear scale with values from 1.2 to 2.8"><g transform="translate(0.5,0.5)"><path class="background" aria-hidden="true" d="M0,0h0v0h0Z" pointer-events="none"/><g><g class="mark-rule role-axis-tick" pointer-events="none"><line transform="translate(0,300)" x2="-5" y2="0" stroke="#888" stroke-width="1" opacity="1"/><line transform="translate(0,263)" x2="-5" y2="0" stroke="#888" stroke-width="1" opacity="1"/><line transform="translate(0,225)" x2="-5" y2="0" stroke="#888" stroke-width="1" opacity="1"/><line transform="translate(0,187)" x2="-5" y2="0" stroke="#888" stroke-width="1" opacity="1"/><line transform="translate(0,150)" x2="-5" y2="0" stroke="#888" stroke-width="1" opacity="1"/><line transform="translate(0,112)" x2="-5" y2="0" stroke="#888" stroke-width="1" opacity="1"/><line transform="translate(0,75)" x2="-5" y2="0" stroke="#888" stroke-width="1" opacity="1"/><line transform="translate(0,37)" x2="-5" y2="0" stroke="#888" stroke-width="1" opacity="1"/><line transform="translate(0,0)" x2="-5" y2="0" stroke="#888" stroke-width="1" opacity="1"/></g><g class="mark-text role-axis-label" pointer-events="none"><text text-anchor="end" transform="translate(-7,305)" font-family="sans-serif" font-size="18px" fill="#000" opacity="1">1.2</text><text text-anchor="end" transform="translate(-7,267.5)" font-family="sans-serif" font-size="18px" fill="#000" opacity="1">1.4</text><text text-anchor="end" transform="translate(-7,229.99999999999997)" font-family="sans-serif" font-size="18px" fill="#000" opacity="1">1.6</text><text text-anchor="end" transform="translate(-7,192.49999999999997)" font-family="sans-serif" font-size="18px" fill="#000" opacity="1">1.8</text><text text-anchor="end" transform="translate(-7,154.99999999999997)" font-family="sans-serif" font-size="18px" fill="#000" opacity="1">2.0</text><text text-anchor="end" transform="translate(-7,117.49999999999993)" font-family="sans-serif" font-size="18px" fill="#000" opacity="1">2.2</text><text text-anchor="end" transform="translate(-7,80)" font-family="sans-serif" font-size="18px" fill="#000" opacity="1">2.4</text><text text-anchor="end" transform="translate(-7,42.499999999999964)" font-family="sans-serif" font-size="18px" fill="#000" opacity="1">2.6</text><text text-anchor="end" transform="translate(-7,5)" font-family="sans-serif" font-size="18px" fill="#000" opacity="1">2.8</text></g><g class="mark-rule role-axis-domain" pointer-events="none"><line transform="translate(0,300)" x2="0" y2="-300" stroke="#888" stroke-width="1" opacity="1"/></g><g class="mark-text role-axis-title" pointer-events="none"><text text-anchor="middle" transform="translate(-36.0224609375,150) rotate(-90) translate(0,-4)" font-family="sans-serif" font-size="18px" font-weight="bold" fill="#000" opacity="1">Monte Carlo simulation</text></g></g><path class="foreground" aria-hidden="true" d="" pointer-events="none" display="none"/></g></g><g class="mark-rule role-mark concat_1_layer_0_marks" role="graphics-symbol" aria-roledescription="rule mark container"><line transform="translate(0,300)" x2="300" y2="-300" stroke="black" stroke-dasharray="8,8"/></g><g class="mark-symbol role-mark concat_1_layer_1_marks" role="graphics-object" aria-roledescription="symbol mark container"><path aria-label="reference: 2.37672248754; monte_carlo: 2.37755590444; X1: 1; X2: 1" role="graphics-symbol" aria-roledescription="point" transform="translate(220.6354664145372,79.2082679166629)" d="M3.873,0A3.873,3.873,0,1,1,-3.873,0A3.873,3.873,0,1,1,3.873,0" stroke="#4c78a8" stroke-width="2" opacity="0.7"/><path aria-label="reference: 2.68346587699; monte_carlo: 2.70870492872; X1: 2; X2: 1" role="graphics-symbol" aria-roledescription="point" transform="translate(278.14985193603275,17.1178258657676)" d="M3.873,0A3.873,3.873,0,1,1,-3.873,0A3.873,3.873,0,1,1,3.873,0" stroke="#f58518" stroke-width="2" opacity="0.7"/><path aria-label="reference: 2.58978047525; monte_carlo: 2.66811572586; X1: 3; X2: 1" role="graphics-symbol" aria-roledescription="point" transform="translate(260.58383910845475,24.72830140058878)" d="M3.873,0A3.873,3.873,0,1,1,-3.873,0A3.873,3.873,0,1,1,3.873,0" stroke="#e45756" stroke-width="2" opacity="0.7"/><path aria-label="reference: 1.96067564769; monte_carlo: 1.99770445767; X1: 1; X2: 2" role="graphics-symbol" aria-roledescription="point" transform="translate(142.62668394268317,150.43041418710138)" d="M-3.873,-3.873h7.746v7.746h-7.746Z" stroke="#4c78a8" stroke-width="2" opacity="0.7"/><path aria-label="reference: 2.36263078691; monte_carlo: 2.35688762513; X1: 2; X2: 2" role="graphics-symbol" aria-roledescription="point" transform="translate(217.99327254472624,83.08357028767938)" d="M-3.873,-3.873h7.746v7.746h-7.746Z" stroke="#f58518" stroke-width="2" opacity="0.7"/><path aria-label="reference: 1.62607542558; monte_carlo: 1.64787705894; X1: 3; X2: 2" role="graphics-symbol" aria-roledescription="point" transform="translate(79.88914229581378,216.02305144955923)" d="M-3.873,-3.873h7.746v7.746h-7.746Z" stroke="#e45756" stroke-width="2" opacity="0.7"/><path aria-label="reference: 1.75865489579; monte_carlo: 1.77051367724; X1: 1; X2: 3" role="graphics-symbol" aria-roledescription="point" transform="translate(104.74779296137298,193.0286855176587)" d="M0,-3.354L-3.873,3.354L3.873,3.354Z" stroke="#4c78a8" stroke-width="2" opacity="0.7"/><path aria-label="reference: 2.25408186455; monte_carlo: 2.27480931495; X1: 2; X2: 3" role="graphics-symbol" aria-roledescription="point" transform="translate(197.6403496035758,98.47325344635694)" d="M0,-3.354L-3.873,3.354L3.873,3.354Z" stroke="#f58518" stroke-width="2" opacity="0.7"/><path aria-label="reference: 2.47479010391; monte_carlo: 2.46733712794; X1: 3; X2: 3" role="graphics-symbol" aria-roledescription="point" transform="translate(239.02314448288377,62.37428851199921)" d="M0,-3.354L-3.873,3.354L3.873,3.354Z" stroke="#e45756" stroke-width="2" opacity="0.7"/><path aria-label="reference: 1.64438630299; monte_carlo: 1.61264789625; X1: 1; X2: 4" role="graphics-symbol" aria-roledescription="point" transform="translate(83.32243181113158,222.62851945298567)" d="M-3.873,-1.549L-3.873,1.549L-1.549,1.549L-1.549,3.873L1.549,3.873L1.549,1.549L3.873,1.549L3.873,-1.549L1.549,-1.549L1.549,-3.873L-1.549,-3.873L-1.549,-1.549Z" stroke="#4c78a8" stroke-width="2" opacity="0.7"/><path aria-label="reference: 2.10984110813; monte_carlo: 2.06681369509; X1: 2; X2: 4" role="graphics-symbol" aria-roledescription="point" transform="translate(170.59520777357724,137.47243217121922)" d="M-3.873,-1.549L-3.873,1.549L-1.549,1.549L-1.549,3.873L1.549,3.873L1.549,1.549L3.873,1.549L3.873,-1.549L1.549,-1.549L1.549,-3.873L-1.549,-3.873L-1.549,-1.549Z" stroke="#f58518" stroke-width="2" opacity="0.7"/><path aria-label="reference: 1.47357606324; monte_carlo: 1.29670748977; X1: 3; X2: 4" role="graphics-symbol" aria-roledescription="point" transform="translate(51.29551185657636,281.8673456672261)" d="M-3.873,-1.549L-3.873,1.549L-1.549,1.549L-1.549,3.873L1.549,3.873L1.549,1.549L3.873,1.549L3.873,-1.549L1.549,-1.549L1.549,-3.873L-1.549,-3.873L-1.549,-1.549Z" stroke="#e45756" stroke-width="2" opacity="0.7"/><path aria-label="reference: 2.25351130073; monte_carlo: 2.27980814423; X1: 1; X2: 5" role="graphics-symbol" aria-roledescription="point" transform="translate(197.5333688874937,97.53597295699112)" d="M-3.873,0L0,-3.873L3.873,0L0,3.873Z" stroke="#4c78a8" stroke-width="2" opacity="0.7"/><path aria-label="reference: 2.44000211927; monte_carlo: 2.43809631438; X1: 2; X2: 5" role="graphics-symbol" aria-roledescription="point" transform="translate(232.50039736353492,67.8569410541175)" d="M-3.873,0L0,-3.873L3.873,0L0,3.873Z" stroke="#f58518" stroke-width="2" opacity="0.7"/><path aria-label="reference: 2.28761153386; monte_carlo: 2.35338999328; X1: 3; X2: 5" role="graphics-symbol" aria-roledescription="point" transform="translate(203.92716259903185,83.73937626061107)" d="M-3.873,0L0,-3.873L3.873,0L0,3.873Z" stroke="#e45756" stroke-width="2" opacity="0.7"/></g></g><path class="foreground" aria-hidden="true" d="" display="none"/></g></g><g class="mark-group role-legend" role="graphics-symbol" aria-roledescription="legend" aria-label="Symbol legend titled 'X1' for stroke color with 3 values: 1, 2, 3"><g transform="translate(698,0)"><path class="background" aria-hidden="true" d="M0,0h22v61h-22Z" pointer-events="none"/><g><g class="mark-group role-legend-entry"><g transform="translate(0,16)"><path class="background" aria-hidden="true" d="M0,0h0v0h0Z" pointer-events="none"/><g><g class="mark-group role-scope" role="graphics-object" aria-roledescription="group mark container"><g transform="translate(0,0)"><path class="background" aria-hidden="true" d="M0,0h21.5615234375v12.5h-21.5615234375Z" pointer-events="none" opacity="1"/><g><g class="mark-symbol role-legend-symbol" pointer-events="none"><path transform="translate(6,6)" d="M5,0A5,5,0,1,1,-5,0A5,5,0,1,1,5,0" stroke="#4c78a8" stroke-width="1.5" opacity="0.7"/></g><g class="mark-text role-legend-label" pointer-events="none"><text text-anchor="start" transform="translate(16,9)" font-family="sans-serif" font-size="10px" fill="#000" opacity="1">1</text></g></g><path class="foreground" aria-hidden="true" d="" pointer-events="none" display="none"/></g><g transform="translate(0,16)"><path class="background" aria-hidden="true" d="M0,0h21.5615234375v12.5h-21.5615234375Z" pointer-events="none" opacity="1"/><g><g class="mark-symbol role-legend-symbol" pointer-events="none"><path transform="translate(6,6)" d="M5,0A5,5,0,1,1,-5,0A5,5,0,1,1,5,0" stroke="#f58518" stroke-width="1.5" opacity="0.7"/></g><g class="mark-text role-legend-label" pointer-events="none"><text text-anchor="start" transform="translate(16,9)" font-family="sans-serif" font-size="10px" fill="#000" opacity="1">2</text></g></g><path class="foreground" aria-hidden="true" d="" pointer-events="none" display="none"/></g><g transform="translate(0,32)"><path class="background" aria-hidden="true" d="M0,0h21.5615234375v12.5h-21.5615234375Z" pointer-events="none" opacity="1"/><g><g class="mark-symbol role-legend-symbol" pointer-events="none"><path transform="translate(6,6)" d="M5,0A5,5,0,1,1,-5,0A5,5,0,1,1,5,0" stroke="#e45756" stroke-width="1.5" opacity="0.7"/></g><g class="mark-text role-legend-label" pointer-events="none"><text text-anchor="start" transform="translate(16,9)" font-family="sans-serif" font-size="10px" fill="#000" opacity="1">3</text></g></g><path class="foreground" aria-hidden="true" d="" pointer-events="none" display="none"/></g></g></g><path class="foreground" aria-hidden="true" d="" pointer-events="none" display="none"/></g></g><g class="mark-text role-legend-title" pointer-events="none"><text text-anchor="start" transform="translate(0,9)" font-family="sans-serif" font-size="11px" font-weight="bold" fill="#000" opacity="1">X1</text></g></g><path class="foreground" aria-hidden="true" d="" pointer-events="none" display="none"/></g></g><g class="mark-group role-legend" role="graphics-symbol" aria-roledescription="legend" aria-label="Symbol legend titled 'X2' for shape with 5 values: 1, 2, 3, 4, 5"><g transform="translate(698,69)"><path class="background" aria-hidden="true" d="M0,0h22v91h-22Z" pointer-events="none"/><g><g class="mark-group role-legend-entry"><g transform="translate(0,16)"><path class="background" aria-hidden="true" d="M0,0h0v0h0Z" pointer-events="none"/><g><g class="mark-group role-scope" role="graphics-object" aria-roledescription="group mark container"><g transform="translate(0,0)"><path class="background" aria-hidden="true" d="M0,0h21.5615234375v12.5h-21.5615234375Z" pointer-events="none" opacity="1"/><g><g class="mark-symbol role-legend-symbol" pointer-events="none"><path transform="translate(6,6)" d="M5,0A5,5,0,1,1,-5,0A5,5,0,1,1,5,0" stroke="#888" stroke-width="1.5" opacity="0.7"/></g><g class="mark-text role-legend-label" pointer-events="none"><text text-anchor="start" transform="translate(16,9)" font-family="sans-serif" font-size="10px" fill="#000" opacity="1">1</text></g></g><path class="foreground" aria-hidden="true" d="" pointer-events="none" display="none"/></g><g transform="translate(0,16)"><path class="background" aria-hidden="true" d="M0,0h21.5615234375v12.5h-21.5615234375Z" pointer-events="none" opacity="1"/><g><g class="mark-symbol role-legend-symbol" pointer-events="none"><path transform="translate(6,6)" d="M-5,-5h10v10h-10Z" stroke="#888" stroke-width="1.5" opacity="0.7"/></g><g class="mark-text role-legend-label" pointer-events="none"><text text-anchor="start" transform="translate(16,9)" font-family="sans-serif" font-size="10px" fill="#000" opacity="1">2</text></g></g><path class="foreground" aria-hidden="true" d="" pointer-events="none" display="none"/></g><g transform="translate(0,31)"><path class="background" aria-hidden="true" d="M0,0h21.5615234375v11.830127018922191h-21.5615234375Z" pointer-events="none" opacity="1"/><g><g class="mark-symbol role-legend-symbol" pointer-events="none"><path transform="translate(6,6)" d="M0,-4.33L-5,4.33L5,4.33Z" stroke="#888" stroke-width="1.5" opacity="0.7"/></g><g class="mark-text role-legend-label" pointer-events="none"><text text-anchor="start" transform="translate(16,9)" font-family="sans-serif" font-size="10px" fill="#000" opacity="1">3</text></g></g><path class="foreground" aria-hidden="true" d="" pointer-events="none" display="none"/></g><g transform="translate(0,46)"><path class="background" aria-hidden="true" d="M0,0h21.5615234375v12.5h-21.5615234375Z" pointer-events="none" opacity="1"/><g><g class="mark-symbol role-legend-symbol" pointer-events="none"><path transform="translate(6,6)" d="M-5,-2L-5,2L-2,2L-2,5L2,5L2,2L5,2L5,-2L2,-2L2,-5L-2,-5L-2,-2Z" stroke="#888" stroke-width="1.5" opacity="0.7"/></g><g class="mark-text role-legend-label" pointer-events="none"><text text-anchor="start" transform="translate(16,9)" font-family="sans-serif" font-size="10px" fill="#000" opacity="1">4</text></g></g><path class="foreground" aria-hidden="true" d="" pointer-events="none" display="none"/></g><g transform="translate(0,62)"><path class="background" aria-hidden="true" d="M0,0h21.5615234375v12.5h-21.5615234375Z" pointer-events="none" opacity="1"/><g><g class="mark-symbol role-legend-symbol" pointer-events="none"><path transform="translate(6,6)" d="M-5,0L0,-5L5,0L0,5Z" stroke="#888" stroke-width="1.5" opacity="0.7"/></g><g class="mark-text role-legend-label" pointer-events="none"><text text-anchor="start" transform="translate(16,9)" font-family="sans-serif" font-size="10px" fill="#000" opacity="1">5</text></g></g><path class="foreground" aria-hidden="true" d="" pointer-events="none" display="none"/></g></g></g><path class="foreground" aria-hidden="true" d="" pointer-events="none" display="none"/></g></g><g class="mark-text role-legend-title" pointer-events="none"><text text-anchor="start" transform="translate(0,9)" font-family="sans-serif" font-size="11px" font-weight="bold" fill="#000" opacity="1">X2</text></g></g><path class="foreground" aria-hidden="true" d="" pointer-events="none" display="none"/></g></g><g class="mark-group role-title"><g transform="translate(332.48876953125,-38)"><path class="background" aria-hidden="true" d="M0,0h0v0h0Z" pointer-events="none"/><g><g class="mark-text role-title-text" role="graphics-symbol" aria-roledescription="title" aria-label="Title text '100 samples'" pointer-events="none"><text text-anchor="middle" transform="translate(0,19)" font-family="sans-serif" font-size="24px" font-weight="bold" fill="#000" opacity="1">100 samples</text></g></g><path class="foreground" aria-hidden="true" d="" pointer-events="none" display="none"/></g></g></g><path class="foreground" aria-hidden="true" d="" display="none"/></g></g></g></svg>