<svg xmlns="http://www.w3.org/2000/svg" xmlns:xlink="http://www.w3.org/1999/xlink" version="1.1" class="marks" width="421" height="142" viewBox="0 0 421 142"><rect width="421" height="142" fill="white"/><g fill="none" stroke-miterlimit="10" transform="translate(115,5)"><g class="mark-group role-frame root" role="graphics-object" aria-roledescription="group mark container"><g transform="translate(0,0)"><path class="background" aria-hidden="true" d="M0.5,0.5h300v100h-300Z" stroke="#ddd"/><g><g class="mark-group role-axis" aria-hidden="true"><g transform="translate(0.5,100.5)"><path class="background" aria-hidden="true" d="M0,0h0v0h0Z" pointer-events="none"/><g><g class="mark-rule role-axis-grid" pointer-events="none"><line transform="translate(0,0)" x2="0" y2="-100" stroke="#ddd" stroke-width="1" opacity="1"/><line transform="translate(43,0)" x2="0" y2="-100" stroke="#ddd" stroke-width="1" opacity="1"/><line transform="translate(86,0)" x2="0" y2="-100" stroke="#ddd" stroke-width="1" opacity="1"/><line transform="translate(129,0)" x2="0" y2="-100" stroke="#ddd" stroke-width="1" opacity="1"/><line transform="translate(171,0)" x2="0" y2="-100" stroke="#ddd" stroke-width="1" opacity="1"/><line transform="translate(214,0)" x2="0" y2="-100" stroke="#ddd" stroke-width="1" opacity="1"/><line transform="translate(257,0)" x2="0" y2="-100" stroke="#ddd" stroke-width="1" opacity="1"/><line transform="translate(300,0)" x2="0" y2="-100" stroke="#ddd" stroke-width="1" opacity="1"/></g></g><path class="foreground" aria-hidden="true" d="" pointer-events="none" display="none"/></g></g><g class="mark-group role-axis" role="graphics-symbol" aria-roledescription="axis" aria-label="X-axis titled 'Relative absolute deviation' for a linear scale with values from 0.000 to 0.035"><g transform="translate(0.5,100.5)"><path class="background" aria-hidden="true" d="M0,0h0v0h0Z" pointer-events="none"/><g><g class="mark-rule role-axis-tick" pointer-events="none"><line transform="translate(0,0)" x2="0" y2="5" stroke="#888" stroke-width="1" opacity="1"/><line transform="translate(43,0)" x2="0" y2="5" stroke="#888" stroke-width="1" opacity="1"/><line transform="translate(86,0)" x2="0" y2="5" stroke="#888" stroke-width="1" opacity="1"/><line transform="translate(129,0)" x2="0" y2="5" stroke="#888" stroke-width="1" opacity="1"/><line transform="translate(171,0)" x2="0" y2="5" stroke="#888" stroke-width="1" opacity="1"/><line transform="translate(214,0)" x2="0" y2="5" stroke="#888" stroke-width="1" opacity="1"/><line transform="translate(257,0)" x2="0" y2="5" stroke="#888" stroke-width="1" opacity="1"/><line transform="translate(300,0)" x2="0" y2="5" stroke="#888" stroke-width="1" opacity="1"/></g><g class="mark-text role-axis-label" pointer-events="none"><text text-anchor="start" transform="translate(0,15)" font-family="sans-serif" font-size="10px" fill="#000" opacity="1">0.000</text><text text-anchor="middle" transform="translate(42.857142857142854,15)" font-family="sans-serif" font-size="10px" fill="#000" opacity="1">0.005</text><text text-anchor="middle" transform="translate(85.71428571428571,15)" font-family="sans-serif" font-size="10px" fill="#000" opacity="1">0.010</text><text text-anchor="middle" transform="translate(128.57142857142856,15)" font-family="sans-serif" font-size="10px" fill="#000" opacity="1">0.015</text><text text-anchor="middle" transform="translate(171.42857142857142,15)" font-family="sans-serif" font-size="10px" fill="#000" opacity="1">0.020</text><text text-anchor="middle" transform="translate(214.28571428571428,15)" font-family="sans-serif" font-size="10px" fill="#000" opacity="1">0.025</text><text text-anchor="middle" transform="translate(257.1428571428571,15)" font-family="sans-serif" font-size="10px" fill="#000" opacity="1">0.030</text><text text-anchor="end" transform="translate(300,15)" font-family="sans-serif" font-size="10px" fill="#000" opacity="1">0.035</text></g><g class="mark-rule role-axis-domain" pointer-events="none"><line transform="translate(0,0)" x2="300" y2="0" stroke="#888" stroke-width="1" opacity="1"/></g><g class="mark-text role-axis-title" pointer-events="none"><text text-anchor="middle" transform="translate(150,30)" font-family="sans-serif" font-size="11px" font-weight="bold" fill="#000" opacity="1">Relative absolute deviation</text></g></g><path class="foreground" aria-hidden="true" d="" pointer-events="none" display="none"/></g></g><g class="mark-group role-axis" role="graphics-symbol" aria-roledescription="axis" aria-label="Y-axis titled 'Method' for a discrete scale with 5 values: MC (N = 100), MC (N = 1000), MC (N = 10000), MC (N = 100000), Variance estimation"><g transform="translate(0.5,0.5)"><path class="background" aria-hidden="true" d="M0,0h0v0h0Z" pointer-events="none"/><g><g class="mark-rule role-axis-tick" pointer-events="none"><line transform="translate(0,10)" x2="-5" y2="0" stroke="#888" stroke-width="1" opacity="1"/><line transform="translate(0,30)" x2="-5" y2="0" stroke="#888" stroke-width="1" opacity="1"/><line transform="translate(0,50)" x2="-5" y2="0" stroke="#888" stroke-width="1" opacity="1"/><line transform="translate(0,70)" x2="-5" y2="0" stroke="#888" stroke-width="1" opacity="1"/><line transform="translate(0,90)" x2="-5" y2="0" stroke="#888" stroke-width="1" opacity="1"/></g><g class="mark-text role-axis-label" pointer-events="none"><text text-anchor="end" transform="translate(-7,12.5)" font-family="sans-serif" font-size="10px" fill="#000" opacity="1">MC (N = 100)</text><text text-anchor="end" transform="translate(-7,32.5)" font-family="sans-serif" font-size="10px" fill="#000" opacity="1">MC (N = 1000)</text><text text-anchor="end" transform="translate(-7,52.5)" font-family="sans-serif" font-size="10px" fill="#000" opacity="1">MC (N = 10000)</text><text text-anchor="end" transform="translate(-7,72.5)" font-family="sans-serif" font-size="10px" fill="#000" opacity="1">MC (N = 100000)</text><text text-anchor="end" transform="translate(-7,92.5)" font-family="sans-serif" font-size="10px" fill="#000" opacity="1">Variance estimation</text></g><g class="mark-rule role-axis-domain" pointer-events="none"><line transform="translate(0,0)" x2="0" y2="100" stroke="#888" stroke-width="1" opacity="1"/></g><g class="mark-text role-axis-title" pointer-events="none"><text text-anchor="middle" transform="translate(-98.080078125,50) rotate(-90) translate(0,-2)" font-family="sans-serif" font-size="11px" font-weight="bold" fill="#000" opacity="1">Method</text></g></g><path class="foreground" aria-hidden="true" d="" pointer-events="none" display="none"/></g></g><g class="mark-symbol role-mark layer_0_layer_0_marks" role="graphics-object" aria-roledescription="symbol mark container"><path aria-label="Relative absolute deviation: 0.0255288201556; Method: MC (N = 100); color: Monte Carlo" role="graphics-symbol" aria-roledescription="point" transform="translate(218.8184584761684,10)" d="M2.739,0A2.739,2.739,0,1,1,-2.739,0A2.739,2.739,0,1,1,2.739,0" stroke="#4c78a8" stroke-width="2" opacity="0.7"/><path aria-label="Relative absolute deviation: 0.0320827046307; Method: MC (N = 100); color: Monte Carlo" role="graphics-symbol" aria-roledescription="point" transform="translate(274.9946111202284,10)" d="M2.739,0A2.739,2.739,0,1,1,-2.739,0A2.739,2.739,0,1,1,2.739,0" stroke="#4c78a8" stroke-width="2" opacity="0.7"/><path aria-label="Relative absolute deviation: 0.00349289044824; Method: MC (N = 1000); color: Monte Carlo" role="graphics-symbol" aria-roledescription="point" transform="translate(29.939060984897164,30)" d="M2.739,0A2.739,2.739,0,1,1,-2.739,0A2.739,2.739,0,1,1,2.739,0" stroke="#4c78a8" stroke-width="2" opacity="0.7"/><path aria-label="Relative absolute deviation: 0.00354077253138; Method: MC (N = 1000); color: Monte Carlo" role="graphics-symbol" aria-roledescription="point" transform="translate(30.349478840401716,30)" d="M2.739,0A2.739,2.739,0,1,1,-2.739,0A2.739,2.739,0,1,1,2.739,0" stroke="#4c78a8" stroke-width="2" opacity="0.7"/></g><g class="mark-rule role-mark layer_0_layer_1_layer_0_marks" aria-hidden="true"><line transform="translate(10.219150366300088,10)" x2="19.744134311090107" y2="0" stroke="black"/><line transform="translate(0.5453022870543878,30)" x2="2.1936844178167503" y2="0" stroke="black"/><line transform="translate(0.34915617702589324,50)" x2="1.3342525623256203" y2="0" stroke="black"/><line transform="translate(0.12008212088299337,70)" x2="0.3244829655486494" y2="0" stroke="black"/><line transform="translate(0.9581914587110726,90)" x2="0.9746555059436711" y2="0" stroke="black"/></g><g class="mark-rule role-mark layer_0_layer_1_layer_1_marks" aria-hidden="true"><line transform="translate(84.28445682979974,10)" x2="38.118981490267146" y2="0" stroke="black"/><line transform="translate(13.411500613536868,30)" x2="4.27482452047831" y2="0" stroke="black"/><line transform="translate(6.803502328091352,50)" x2="3.0117149964060177" y2="0" stroke="black"/><line transform="translate(1.3170466436076138,70)" x2="0.557286917074665" y2="0" stroke="black"/><line transform="translate(8.974844387238562,90)" x2="5.6512397268657875" y2="0" stroke="black"/></g><g class="mark-rect role-mark layer_1_layer_0_marks" role="graphics-object" aria-roledescription="rect mark container"><path aria-label="Relative absolute deviation: 0.0034957165457; Method: MC (N = 100); upper_box_Relative absolute deviation: 0.00983318663014; color: Monte Carlo; Max of Relative absolute deviation: 0.0320827046307; Q3 of Relative absolute deviation: 0.00983318663014; Median of Relative absolute deviation: 0.00728068464559; Q1 of Relative absolute deviation: 0.0034957165457; Min of Relative absolute deviation: 0.0011922342094" role="graphics-symbol" aria-roledescription="box" d="M29.963284677390195,3h54.321172152409545v14h-54.321172152409545Z" fill="#4c78a8"/><path aria-label="Relative absolute deviation: 0.000319548448902; Method: MC (N = 1000); upper_box_Relative absolute deviation: 0.00156467507158; color: Monte Carlo; Max of Relative absolute deviation: 0.00354077253138; Q3 of Relative absolute deviation: 0.00156467507158; Median of Relative absolute deviation: 0.00103766388443; Q1 of Relative absolute deviation: 0.000319548448902; Min of Relative absolute deviation: 0.0000636186001563" role="graphics-symbol" aria-roledescription="box" d="M2.738986704871138,23h10.67251390866573v14h-10.67251390866573Z" fill="#4c78a8"/><path aria-label="Relative absolute deviation: 0.000196397686258; Method: MC (N = 10000); upper_box_Relative absolute deviation: 0.000793741938277; color: Monte Carlo; Max of Relative absolute deviation: 0.00114510868786; Q3 of Relative absolute deviation: 0.000793741938277; Median of Relative absolute deviation: 0.000456463211634; Q1 of Relative absolute deviation: 0.000196397686258; Min of Relative absolute deviation: 0.0000407348873197" role="graphics-symbol" aria-roledescription="box" d="M1.6834087393515136,43h5.120093588739839v14h-5.120093588739839Z" fill="#4c78a8"/><path aria-label="Relative absolute deviation: 0.0000518659267504; Method: MC (N = 100000); upper_box_Relative absolute deviation: 0.000153655441754; color: Monte Carlo; Max of Relative absolute deviation: 0.000218672248746; Q3 of Relative absolute deviation: 0.000153655441754; Median of Relative absolute deviation: 0.0000871558008002; Q1 of Relative absolute deviation: 0.0000518659267504; Min of Relative absolute deviation: 0.0000140095807697" role="graphics-symbol" aria-roledescription="box" d="M0.4445650864316428,63h0.872481557175971v14h-0.872481557175971Z" fill="#4c78a8"/><path aria-label="Relative absolute deviation: 0.000225498812543; Method: Variance estimation; upper_box_Relative absolute deviation: 0.00104706517851; color: Our method; Max of Relative absolute deviation: 0.00170637647998; Q3 of Relative absolute deviation: 0.00104706517851; Median of Relative absolute deviation: 0.000459470769821; Q1 of Relative absolute deviation: 0.000225498812543; Min of Relative absolute deviation: 0.000111789003516" role="graphics-symbol" aria-roledescription="box" d="M1.9328469646547437,83h7.041997422583819v14h-7.041997422583819Z" fill="#f58518"/></g><g class="mark-rect role-mark layer_1_layer_1_marks" aria-hidden="true"><path d="M61.90586839077925,3h1v14h-1Z" fill="white" opacity="0.7"/><path d="M8.394261866551627,23h1v14h-1Z" fill="white" opacity="0.7"/><path d="M3.4125418140070782,43h1v14h-1Z" fill="white" opacity="0.7"/><path d="M0.2470497211445677,63h1v14h-1Z" fill="white" opacity="0.7"/><path d="M3.438320884180421,83h1v14h-1Z" fill="white" opacity="0.7"/></g></g><path class="foreground" aria-hidden="true" d="" display="none"/></g></g></g></svg>