<svg xmlns="http://www.w3.org/2000/svg" xmlns:xlink="http://www.w3.org/1999/xlink" version="1.1" class="marks" width="421" height="142" viewBox="0 0 421 142"><rect width="421" height="142" fill="white"/><g fill="none" stroke-miterlimit="10" transform="translate(115,5)"><g class="mark-group role-frame root" role="graphics-object" aria-roledescription="group mark container"><g transform="translate(0,0)"><path class="background" aria-hidden="true" d="M0.5,0.5h300v100h-300Z" stroke="#ddd"/><g><g class="mark-group role-axis" aria-hidden="true"><g transform="translate(0.5,100.5)"><path class="background" aria-hidden="true" d="M0,0h0v0h0Z" pointer-events="none"/><g><g class="mark-rule role-axis-grid" pointer-events="none"><line transform="translate(0,0)" x2="0" y2="-100" stroke="#ddd" stroke-width="1" opacity="1"/><line transform="translate(43,0)" x2="0" y2="-100" stroke="#ddd" stroke-width="1" opacity="1"/><line transform="translate(86,0)" x2="0" y2="-100" stroke="#ddd" stroke-width="1" opacity="1"/><line transform="translate(129,0)" x2="0" y2="-100" stroke="#ddd" stroke-width="1" opacity="1"/><line transform="translate(171,0)" x2="0" y2="-100" stroke="#ddd" stroke-width="1" opacity="1"/><line transform="translate(214,0)" x2="0" y2="-100" stroke="#ddd" stroke-width="1" opacity="1"/><line transform="translate(257,0)" x2="0" y2="-100" stroke="#ddd" stroke-width="1" opacity="1"/><line transform="translate(300,0)" x2="0" y2="-100" stroke="#ddd" stroke-width="1" opacity="1"/></g></g><path class="foreground" aria-hidden="true" d="" pointer-events="none" display="none"/></g></g><g class="mark-group role-axis" role="graphics-symbol" aria-roledescription="axis" aria-label="X-axis titled 'Absolute deviation' for a linear scale with values from 0.00 to 0.07"><g transform="translate(0.5,100.5)"><path class="background" aria-hidden="true" d="M0,0h0v0h0Z" pointer-events="none"/><g><g class="mark-rule role-axis-tick" pointer-events="none"><line transform="translate(0,0)" x2="0" y2="5" stroke="#888" stroke-width="1" opacity="1"/><line transform="translate(43,0)" x2="0" y2="5" stroke="#888" stroke-width="1" opacity="1"/><line transform="translate(86,0)" x2="0" y2="5" stroke="#888" stroke-width="1" opacity="1"/><line transform="translate(129,0)" x2="0" y2="5" stroke="#888" stroke-width="1" opacity="1"/><line transform="translate(171,0)" x2="0" y2="5" stroke="#888" stroke-width="1" opacity="1"/><line transform="translate(214,0)" x2="0" y2="5" stroke="#888" stroke-width="1" opacity="1"/><line transform="translate(257,0)" x2="0" y2="5" stroke="#888" stroke-width="1" opacity="1"/><line transform="translate(300,0)" x2="0" y2="5" stroke="#888" stroke-width="1" opacity="1"/></g><g class="mark-text role-axis-label" pointer-events="none"><text text-anchor="start" transform="translate(0,15)" font-family="sans-serif" font-size="10px" fill="#000" opacity="1">0.00</text><text text-anchor="middle" transform="translate(42.857142857142854,15)" font-family="sans-serif" font-size="10px" fill="#000" opacity="1">0.01</text><text text-anchor="middle" transform="translate(85.71428571428571,15)" font-family="sans-serif" font-size="10px" fill="#000" opacity="1">0.02</text><text text-anchor="middle" transform="translate(128.57142857142856,15)" font-family="sans-serif" font-size="10px" fill="#000" opacity="1">0.03</text><text text-anchor="middle" transform="translate(171.42857142857142,15)" font-family="sans-serif" font-size="10px" fill="#000" opacity="1">0.04</text><text text-anchor="middle" transform="translate(214.28571428571428,15)" font-family="sans-serif" font-size="10px" fill="#000" opacity="1">0.05</text><text text-anchor="middle" transform="translate(257.1428571428571,15)" font-family="sans-serif" font-size="10px" fill="#000" opacity="1">0.06</text><text text-anchor="end" transform="translate(300,15)" font-family="sans-serif" font-size="10px" fill="#000" opacity="1">0.07</text></g><g class="mark-rule role-axis-domain" pointer-events="none"><line transform="translate(0,0)" x2="300" y2="0" stroke="#888" stroke-width="1" opacity="1"/></g><g class="mark-text role-axis-title" pointer-events="none"><text text-anchor="middle" transform="translate(150,30)" font-family="sans-serif" font-size="11px" font-weight="bold" fill="#000" opacity="1">Absolute deviation</text></g></g><path class="foreground" aria-hidden="true" d="" pointer-events="none" display="none"/></g></g><g class="mark-group role-axis" role="graphics-symbol" aria-roledescription="axis" aria-label="Y-axis titled 'Method' for a discrete scale with 5 values: MC (N = 100), MC (N = 1000), MC (N = 10000), MC (N = 100000), Variance estimation"><g transform="translate(0.5,0.5)"><path class="background" aria-hidden="true" d="M0,0h0v0h0Z" pointer-events="none"/><g><g class="mark-rule role-axis-tick" pointer-events="none"><line transform="translate(0,10)" x2="-5" y2="0" stroke="#888" stroke-width="1" opacity="1"/><line transform="translate(0,30)" x2="-5" y2="0" stroke="#888" stroke-width="1" opacity="1"/><line transform="translate(0,50)" x2="-5" y2="0" stroke="#888" stroke-width="1" opacity="1"/><line transform="translate(0,70)" x2="-5" y2="0" stroke="#888" stroke-width="1" opacity="1"/><line transform="translate(0,90)" x2="-5" y2="0" stroke="#888" stroke-width="1" opacity="1"/></g><g class="mark-text role-axis-label" pointer-events="none"><text text-anchor="end" transform="translate(-7,12.5)" font-family="sans-serif" font-size="10px" fill="#000" opacity="1">MC (N = 100)</text><text text-anchor="end" transform="translate(-7,32.5)" font-family="sans-serif" font-size="10px" fill="#000" opacity="1">MC (N = 1000)</text><text text-anchor="end" transform="translate(-7,52.5)" font-family="sans-serif" font-size="10px" fill="#000" opacity="1">MC (N = 10000)</text><text text-anchor="end" transform="translate(-7,72.5)" font-family="sans-serif" font-size="10px" fill="#000" opacity="1">MC (N = 100000)</text><text text-anchor="end" transform="translate(-7,92.5)" font-family="sans-serif" font-size="10px" fill="#000" opacity="1">Variance estimation</text></g><g class="mark-rule role-axis-domain" pointer-events="none"><line transform="translate(0,0)" x2="0" y2="100" stroke="#888" stroke-width="1" opacity="1"/></g><g class="mark-text role-axis-title" pointer-events="none"><text text-anchor="middle" transform="translate(-98.080078125,50) rotate(-90) translate(0,-2)" font-family="sans-serif" font-size="11px" font-weight="bold" fill="#000" opacity="1">Method</text></g></g><path class="foreground" aria-hidden="true" d="" pointer-events="none" display="none"/></g></g><g class="mark-symbol role-mark layer_0_layer_0_marks" role="graphics-object" aria-roledescription="symbol mark container"><path aria-label="Absolute deviation: 0.0652694539346; Method: MC (N = 100); color: Monte Carlo" role="graphics-symbol" aria-roledescription="point" transform="translate(279.7262311481103,10)" d="M2.739,0A2.739,2.739,0,1,1,-2.739,0A2.739,2.739,0,1,1,2.739,0" stroke="#4c78a8" stroke-width="2" opacity="0.7"/><path aria-label="Absolute deviation: 0.0627896142888; Method: MC (N = 100); color: Monte Carlo" role="graphics-symbol" aria-roledescription="point" transform="translate(269.0983469518098,10)" d="M2.739,0A2.739,2.739,0,1,1,-2.739,0A2.739,2.739,0,1,1,2.739,0" stroke="#4c78a8" stroke-width="2" opacity="0.7"/><path aria-label="Absolute deviation: 0.0101552159681; Method: MC (N = 1000); color: Monte Carlo" role="graphics-symbol" aria-roledescription="point" transform="translate(43.52235414892761,30)" d="M2.739,0A2.739,2.739,0,1,1,-2.739,0A2.739,2.739,0,1,1,2.739,0" stroke="#4c78a8" stroke-width="2" opacity="0.7"/></g><g class="mark-rule role-mark layer_0_layer_1_layer_0_marks" aria-hidden="true"><line transform="translate(10.627528605536996,10)" x2="22.52950981812282" y2="0" stroke="black"/><line transform="translate(0.7284353204304951,30)" x2="2.7617650788501282" y2="0" stroke="black"/><line transform="translate(0.4522603696191903,50)" x2="1.7779031354527217" y2="0" stroke="black"/><line transform="translate(0.11766105949265587,70)" x2="0.43701525138947356" y2="0" stroke="black"/><line transform="translate(1.2580367136789354,90)" x2="1.3295601161728803" y2="0" stroke="black"/></g><g class="mark-rule role-mark layer_0_layer_1_layer_1_marks" aria-hidden="true"><line transform="translate(120.44576529073599,10)" x2="51.08012180610409" y2="0" stroke="black"/><line transform="translate(15.828147597813762,30)" x2="15.974625411436003" y2="0" stroke="black"/><line transform="translate(8.869759785813232,50)" x2="5.56190174257549" y2="0" stroke="black"/><line transform="translate(1.595685750984835,70)" x2="0.8003655990486609" y2="0" stroke="black"/><line transform="translate(9.67197549439128,90)" x2="5.264203559758" y2="0" stroke="black"/></g><g class="mark-rect role-mark layer_1_layer_0_marks" role="graphics-object" aria-roledescription="rect mark container"><path aria-label="Absolute deviation: 0.00773664229885; Method: MC (N = 100); upper_box_Absolute deviation: 0.0281040119012; color: Monte Carlo; Max of Absolute deviation: 0.0652694539346; Q3 of Absolute deviation: 0.0281040119012; Median of Absolute deviation: 0.0163655899952; Q1 of Absolute deviation: 0.00773664229885; Min of Absolute deviation: 0.00247975667463" role="graphics-symbol" aria-roledescription="box" d="M33.15703842365981,3h87.28872686707618v14h-87.28872686707618Z" fill="#4c78a8"/><path aria-label="Absolute deviation: 0.000814380093165; Method: MC (N = 1000); upper_box_Absolute deviation: 0.00369323443949; color: Monte Carlo; Max of Absolute deviation: 0.0101552159681; Q3 of Absolute deviation: 0.00369323443949; Median of Absolute deviation: 0.00273455015394; Q1 of Absolute deviation: 0.000814380093165; Min of Absolute deviation: 0.000169968241434" role="graphics-symbol" aria-roledescription="box" d="M3.4902003992806234,23h12.33794719853314v14h-12.33794719853314Z" fill="#4c78a8"/><path aria-label="Absolute deviation: 0.000520371484517; Method: MC (N = 10000); upper_box_Absolute deviation: 0.00206961061669; color: Monte Carlo; Max of Absolute deviation: 0.00336738768996; Q3 of Absolute deviation: 0.00206961061669; Median of Absolute deviation: 0.00102604221074; Q1 of Absolute deviation: 0.000520371484517; Min of Absolute deviation: 0.000105527419578" role="graphics-symbol" aria-roledescription="box" d="M2.230163505071912,43h6.639596280741319v14h-6.639596280741319Z" fill="#4c78a8"/><path aria-label="Absolute deviation: 0.000129424472539; Method: MC (N = 100000); upper_box_Absolute deviation: 0.00037232667523; color: Monte Carlo; Max of Absolute deviation: 0.000559078648341; Q3 of Absolute deviation: 0.00037232667523; Median of Absolute deviation: 0.000223431667722; Q1 of Absolute deviation: 0.000129424472539; Min of Absolute deviation: 0.000027454247215" role="graphics-symbol" aria-roledescription="box" d="M0.5546763108821294,63h1.0410094401027057v14h-1.0410094401027057Z" fill="#4c78a8"/><path aria-label="Absolute deviation: 0.000603772593632; Method: Variance estimation; upper_box_Absolute deviation: 0.00225679428202; color: Our method; Max of Absolute deviation: 0.00348510844597; Q3 of Absolute deviation: 0.00225679428202; Median of Absolute deviation: 0.00121078138807; Q1 of Absolute deviation: 0.000603772593632; Min of Absolute deviation: 0.000293541899858" role="graphics-symbol" aria-roledescription="box" d="M2.5875968298518157,83h7.084378664539464v14h-7.084378664539464Z" fill="#f58518"/></g><g class="mark-rect role-mark layer_1_layer_1_marks" aria-hidden="true"><path d="M69.63824283647908,3h1v14h-1Z" fill="white" opacity="0.7"/><path d="M11.219500659735132,23h1v14h-1Z" fill="white" opacity="0.7"/><path d="M3.897323760328499,43h1v14h-1Z" fill="white" opacity="0.7"/><path d="M0.45756429023755407,63h1v14h-1Z" fill="white" opacity="0.7"/><path d="M4.689063091740767,83h1v14h-1Z" fill="white" opacity="0.7"/></g></g><path class="foreground" aria-hidden="true" d="" display="none"/></g></g></g></svg>