<svg xmlns="http://www.w3.org/2000/svg" xmlns:xlink="http://www.w3.org/1999/xlink" version="1.1" class="marks" width="382" height="350" viewBox="0 0 382 350"><rect width="382" height="350" fill="white"/><g fill="none" stroke-miterlimit="10" transform="translate(70,6)"><g class="mark-group role-frame root" role="graphics-object" aria-roledescription="group mark container"><g transform="translate(0,0)"><path class="background" aria-hidden="true" d="M0.5,0.5h300v300h-300Z" stroke="#ddd"/><g><g class="mark-group role-axis" aria-hidden="true"><g transform="translate(0.5,300.5)"><path class="background" aria-hidden="true" d="M0,0h0v0h0Z" pointer-events="none"/><g><g class="mark-rule role-axis-grid" pointer-events="none"><line transform="translate(0,-300)" x2="0" y2="300" stroke="#ddd" stroke-width="1" opacity="1"/><line transform="translate(52,-300)" x2="0" y2="300" stroke="#ddd" stroke-width="1" opacity="1"/><line transform="translate(104,-300)" x2="0" y2="300" stroke="#ddd" stroke-width="1" opacity="1"/><line transform="translate(157,-300)" x2="0" y2="300" stroke="#ddd" stroke-width="1" opacity="1"/><line transform="translate(209,-300)" x2="0" y2="300" stroke="#ddd" stroke-width="1" opacity="1"/><line transform="translate(261,-300)" x2="0" y2="300" stroke="#ddd" stroke-width="1" opacity="1"/></g></g><path class="foreground" aria-hidden="true" d="" pointer-events="none" display="none"/></g></g><g class="mark-group role-axis" aria-hidden="true"><g transform="translate(0.5,0.5)"><path class="background" aria-hidden="true" d="M0,0h0v0h0Z" pointer-events="none"/><g><g class="mark-rule role-axis-grid" pointer-events="none"><line transform="translate(0,300)" x2="300" y2="0" stroke="#ddd" stroke-width="1" opacity="1"/><line transform="translate(0,248)" x2="300" y2="0" stroke="#ddd" stroke-width="1" opacity="1"/><line transform="translate(0,196)" x2="300" y2="0" stroke="#ddd" stroke-width="1" opacity="1"/><line transform="translate(0,143)" x2="300" y2="0" stroke="#ddd" stroke-width="1" opacity="1"/><line transform="translate(0,91)" x2="300" y2="0" stroke="#ddd" stroke-width="1" opacity="1"/><line transform="translate(0,39)" x2="300" y2="0" stroke="#ddd" stroke-width="1" opacity="1"/></g></g><path class="foreground" aria-hidden="true" d="" pointer-events="none" display="none"/></g></g><g class="mark-group role-axis" role="graphics-symbol" aria-roledescription="axis" aria-label="X-axis titled 'Standard deviation before raking' for a linear scale with values from 1.0e-1 to 3.9e-1"><g transform="translate(0.5,300.5)"><path class="background" aria-hidden="true" d="M0,0h0v0h0Z" pointer-events="none"/><g><g class="mark-rule role-axis-tick" pointer-events="none"><line transform="translate(0,0)" x2="0" y2="5" stroke="#888" stroke-width="1" opacity="1"/><line transform="translate(52,0)" x2="0" y2="5" stroke="#888" stroke-width="1" opacity="1"/><line transform="translate(104,0)" x2="0" y2="5" stroke="#888" stroke-width="1" opacity="1"/><line transform="translate(157,0)" x2="0" y2="5" stroke="#888" stroke-width="1" opacity="1"/><line transform="translate(209,0)" x2="0" y2="5" stroke="#888" stroke-width="1" opacity="1"/><line transform="translate(261,0)" x2="0" y2="5" stroke="#888" stroke-width="1" opacity="1"/></g><g class="mark-text role-axis-label" pointer-events="none"><text text-anchor="start" transform="translate(0,18)" font-family="sans-serif" font-size="14px" fill="#000" opacity="1">1.0e-1</text><text text-anchor="middle" transform="translate(52.21053585222231,18)" font-family="sans-serif" font-size="14px" fill="#000" opacity="0">1.5e-1</text><text text-anchor="middle" transform="translate(104.42107170444464,18)" font-family="sans-serif" font-size="14px" fill="#000" opacity="1">2.0e-1</text><text text-anchor="middle" transform="translate(156.63160755666695,18)" font-family="sans-serif" font-size="14px" fill="#000" opacity="0">2.5e-1</text><text text-anchor="middle" transform="translate(208.84214340888926,18)" font-family="sans-serif" font-size="14px" fill="#000" opacity="1">3.0e-1</text><text text-anchor="middle" transform="translate(261.05267926111156,18)" font-family="sans-serif" font-size="14px" fill="#000" opacity="0">3.5e-1</text></g><g class="mark-rule role-axis-domain" pointer-events="none"><line transform="translate(0,0)" x2="300" y2="0" stroke="#888" stroke-width="1" opacity="1"/></g><g class="mark-text role-axis-title" pointer-events="none"><text text-anchor="middle" transform="translate(150,36)" font-family="sans-serif" font-size="14px" font-weight="bold" fill="#000" opacity="1">Standard deviation before raking</text></g></g><path class="foreground" aria-hidden="true" d="" pointer-events="none" display="none"/></g></g><g class="mark-group role-axis" role="graphics-symbol" aria-roledescription="axis" aria-label="Y-axis titled 'Standard deviation after raking' for a linear scale with values from 1.0e-1 to 3.9e-1"><g transform="translate(0.5,0.5)"><path class="background" aria-hidden="true" d="M0,0h0v0h0Z" pointer-events="none"/><g><g class="mark-rule role-axis-tick" pointer-events="none"><line transform="translate(0,300)" x2="-5" y2="0" stroke="#888" stroke-width="1" opacity="1"/><line transform="translate(0,248)" x2="-5" y2="0" stroke="#888" stroke-width="1" opacity="1"/><line transform="translate(0,196)" x2="-5" y2="0" stroke="#888" stroke-width="1" opacity="1"/><line transform="translate(0,143)" x2="-5" y2="0" stroke="#888" stroke-width="1" opacity="1"/><line transform="translate(0,91)" x2="-5" y2="0" stroke="#888" stroke-width="1" opacity="1"/><line transform="translate(0,39)" x2="-5" y2="0" stroke="#888" stroke-width="1" opacity="1"/></g><g class="mark-text role-axis-label" pointer-events="none"><text text-anchor="end" transform="translate(-7,304)" font-family="sans-serif" font-size="14px" fill="#000" opacity="1">1.0e-1</text><text text-anchor="end" transform="translate(-7,251.7894641477777)" font-family="sans-serif" font-size="14px" fill="#000" opacity="1">1.5e-1</text><text text-anchor="end" transform="translate(-7,199.57892829555536)" font-family="sans-serif" font-size="14px" fill="#000" opacity="1">2.0e-1</text><text text-anchor="end" transform="translate(-7,147.36839244333305)" font-family="sans-serif" font-size="14px" fill="#000" opacity="1">2.5e-1</text><text text-anchor="end" transform="translate(-7,95.15785659111074)" font-family="sans-serif" font-size="14px" fill="#000" opacity="1">3.0e-1</text><text text-anchor="end" transform="translate(-7,42.947320738888436)" font-family="sans-serif" font-size="14px" fill="#000" opacity="1">3.5e-1</text></g><g class="mark-rule role-axis-domain" pointer-events="none"><line transform="translate(0,300)" x2="0" y2="-300" stroke="#888" stroke-width="1" opacity="1"/></g><g class="mark-text role-axis-title" pointer-events="none"><text text-anchor="middle" transform="translate(-50.6962890625,150) rotate(-90) translate(0,-3)" font-family="sans-serif" font-size="14px" font-weight="bold" fill="#000" opacity="1">Standard deviation after raking</text></g></g><path class="foreground" aria-hidden="true" d="" pointer-events="none" display="none"/></g></g><g class="mark-rule role-mark layer_0_marks" role="graphics-symbol" aria-roledescription="rule mark container"><line transform="translate(0,300)" x2="300" y2="-300" stroke="black" stroke-dasharray="8,8"/><line transform="translate(0,300)" x2="300" y2="-300" stroke="black" stroke-dasharray="8,8"/><line transform="translate(0,300)" x2="300" y2="-300" stroke="black" stroke-dasharray="8,8"/><line transform="translate(0,300)" x2="300" y2="-300" stroke="black" stroke-dasharray="8,8"/><line transform="translate(0,300)" x2="300" y2="-300" stroke="black" stroke-dasharray="8,8"/><line transform="translate(0,300)" x2="300" y2="-300" stroke="black" stroke-dasharray="8,8"/><line transform="translate(0,300)" x2="300" y2="-300" stroke="black" stroke-dasharray="8,8"/><line transform="translate(0,300)" x2="300" y2="-300" stroke="black" stroke-dasharray="8,8"/><line transform="translate(0,300)" x2="300" y2="-300" stroke="black" stroke-dasharray="8,8"/><line transform="translate(0,300)" x2="300" y2="-300" stroke="black" stroke-dasharray="8,8"/><line transform="translate(0,300)" x2="300" y2="-300" stroke="black" stroke-dasharray="8,8"/><line transform="translate(0,300)" x2="300" y2="-300" stroke="black" stroke-dasharray="8,8"/><line transform="translate(0,300)" x2="300" y2="-300" stroke="black" stroke-dasharray="8,8"/><line transform="translate(0,300)" x2="300" y2="-300" stroke="black" stroke-dasharray="8,8"/><line transform="translate(0,300)" x2="300" y2="-300" stroke="black" stroke-dasharray="8,8"/></g><g class="mark-symbol role-mark layer_1_marks" role="graphics-object" aria-roledescription="symbol mark container"><path aria-label="std: 1.0e-1; raked_std: 1.1e-1" role="graphics-symbol" aria-roledescription="point" transform="translate(0,291.25183056965096)" d="M4.472,0A4.472,4.472,0,1,1,-4.472,0A4.472,4.472,0,1,1,4.472,0" stroke="#4c78a8" stroke-width="2" opacity="0.7"/><path aria-label="std: 1.4e-1; raked_std: 1.2e-1" role="graphics-symbol" aria-roledescription="point" transform="translate(43.2526240975144,277.61587494318235)" d="M4.472,0A4.472,4.472,0,1,1,-4.472,0A4.472,4.472,0,1,1,4.472,0" stroke="#4c78a8" stroke-width="2" opacity="0.7"/><path aria-label="std: 1.7e-1; raked_std: 1.4e-1" role="graphics-symbol" aria-roledescription="point" transform="translate(76.44152986844634,263.4440172278152)" d="M4.472,0A4.472,4.472,0,1,1,-4.472,0A4.472,4.472,0,1,1,4.472,0" stroke="#4c78a8" stroke-width="2" opacity="0.7"/><path aria-label="std: 2.0e-1; raked_std: 1.5e-1" role="graphics-symbol" aria-roledescription="point" transform="translate(104.42107170444464,251.1492986680927)" d="M4.472,0A4.472,4.472,0,1,1,-4.472,0A4.472,4.472,0,1,1,4.472,0" stroke="#4c78a8" stroke-width="2" opacity="0.7"/><path aria-label="std: 2.2e-1; raked_std: 1.6e-1" role="graphics-symbol" aria-roledescription="point" transform="translate(129.0715429100734,239.99017601895906)" d="M4.472,0A4.472,4.472,0,1,1,-4.472,0A4.472,4.472,0,1,1,4.472,0" stroke="#4c78a8" stroke-width="2" opacity="0.7"/><path aria-label="std: 2.4e-1; raked_std: 1.7e-1" role="graphics-symbol" aria-roledescription="point" transform="translate(151.35727236601923,231.16548096735696)" d="M4.472,0A4.472,4.472,0,1,1,-4.472,0A4.472,4.472,0,1,1,4.472,0" stroke="#4c78a8" stroke-width="2" opacity="0.7"/><path aria-label="std: 2.6e-1; raked_std: 1.8e-1" role="graphics-symbol" aria-roledescription="point" transform="translate(171.8511156603594,213.65025468782116)" d="M4.472,0A4.472,4.472,0,1,1,-4.472,0A4.472,4.472,0,1,1,4.472,0" stroke="#4c78a8" stroke-width="2" opacity="0.7"/><path aria-label="std: 2.8e-1; raked_std: 1.9e-1" role="graphics-symbol" aria-roledescription="point" transform="translate(190.92631989947344,203.94114845816173)" d="M4.472,0A4.472,4.472,0,1,1,-4.472,0A4.472,4.472,0,1,1,4.472,0" stroke="#4c78a8" stroke-width="2" opacity="0.7"/><path aria-label="std: 3.0e-1; raked_std: 2.0e-1" role="graphics-symbol" aria-roledescription="point" transform="translate(208.84214340888926,196.80458023945323)" d="M4.472,0A4.472,4.472,0,1,1,-4.472,0A4.472,4.472,0,1,1,4.472,0" stroke="#4c78a8" stroke-width="2" opacity="0.7"/><path aria-label="std: 3.2e-1; raked_std: 2.2e-1" role="graphics-symbol" aria-roledescription="point" transform="translate(225.7873505973611,178.44193354811821)" d="M4.472,0A4.472,4.472,0,1,1,-4.472,0A4.472,4.472,0,1,1,4.472,0" stroke="#4c78a8" stroke-width="2" opacity="0.7"/><path aria-label="std: 3.3e-1; raked_std: 2.3e-1" role="graphics-symbol" aria-roledescription="point" transform="translate(241.90444334599522,169.24692538444089)" d="M4.472,0A4.472,4.472,0,1,1,-4.472,0A4.472,4.472,0,1,1,4.472,0" stroke="#4c78a8" stroke-width="2" opacity="0.7"/><path aria-label="std: 3.5e-1; raked_std: 2.3e-1" role="graphics-symbol" aria-roledescription="point" transform="translate(257.3041314413373,160.64715819798778)" d="M4.472,0A4.472,4.472,0,1,1,-4.472,0A4.472,4.472,0,1,1,4.472,0" stroke="#4c78a8" stroke-width="2" opacity="0.7"/><path aria-label="std: 3.6e-1; raked_std: 2.4e-1" role="graphics-symbol" aria-roledescription="point" transform="translate(272.0744565648324,154.1943612741032)" d="M4.472,0A4.472,4.472,0,1,1,-4.472,0A4.472,4.472,0,1,1,4.472,0" stroke="#4c78a8" stroke-width="2" opacity="0.7"/><path aria-label="std: 3.7e-1; raked_std: 2.5e-1" role="graphics-symbol" aria-roledescription="point" transform="translate(286.286802573342,144.817580344865)" d="M4.472,0A4.472,4.472,0,1,1,-4.472,0A4.472,4.472,0,1,1,4.472,0" stroke="#4c78a8" stroke-width="2" opacity="0.7"/><path aria-label="std: 3.9e-1; raked_std: 2.5e-1" role="graphics-symbol" aria-roledescription="point" transform="translate(300,139.87185058068644)" d="M4.472,0A4.472,4.472,0,1,1,-4.472,0A4.472,4.472,0,1,1,4.472,0" stroke="#4c78a8" stroke-width="2" opacity="0.7"/></g></g><path class="foreground" aria-hidden="true" d="" display="none"/></g></g></g></svg>