<svg xmlns="http://www.w3.org/2000/svg" xmlns:xlink="http://www.w3.org/1999/xlink" version="1.1" class="marks" width="448" height="357" viewBox="0 0 448 357"><rect width="448" height="357" fill="white"/><g fill="none" stroke-miterlimit="10" transform="translate(5,5)"><g class="mark-group role-frame root" role="graphics-object" aria-roledescription="group mark container"><g transform="translate(0,0)"><path class="background" aria-hidden="true" d="M0.5,0.5h300v300h-300Z" stroke="#ddd"/><g><g class="mark-group role-axis" aria-hidden="true"><g transform="translate(0.5,300.5)"><path class="background" aria-hidden="true" d="M0,0h0v0h0Z" pointer-events="none"/><g><g class="mark-rule role-axis-grid" pointer-events="none"><line transform="translate(35,0)" x2="0" y2="-300" stroke="#ddd" stroke-width="1" opacity="1"/><line transform="translate(92,0)" x2="0" y2="-300" stroke="#ddd" stroke-width="1" opacity="1"/><line transform="translate(150,0)" x2="0" y2="-300" stroke="#ddd" stroke-width="1" opacity="1"/><line transform="translate(208,0)" x2="0" y2="-300" stroke="#ddd" stroke-width="1" opacity="1"/><line transform="translate(265,0)" x2="0" y2="-300" stroke="#ddd" stroke-width="1" opacity="1"/></g></g><path class="foreground" aria-hidden="true" d="" pointer-events="none" display="none"/></g></g><g class="mark-group role-axis" role="graphics-symbol" aria-roledescription="axis" aria-label="X-axis titled 'Value' for a linear scale with values from 1.2 to 3.8"><g transform="translate(0.5,300.5)"><path class="background" aria-hidden="true" d="M0,0h0v0h0Z" pointer-events="none"/><g><g class="mark-rule role-axis-tick" pointer-events="none"><line transform="translate(35,0)" x2="0" y2="5" stroke="#888" stroke-width="1" opacity="1"/><line transform="translate(92,0)" x2="0" y2="5" stroke="#888" stroke-width="1" opacity="1"/><line transform="translate(150,0)" x2="0" y2="5" stroke="#888" stroke-width="1" opacity="1"/><line transform="translate(208,0)" x2="0" y2="5" stroke="#888" stroke-width="1" opacity="1"/><line transform="translate(265,0)" x2="0" y2="5" stroke="#888" stroke-width="1" opacity="1"/></g><g class="mark-text role-axis-label" pointer-events="none"><text text-anchor="middle" transform="translate(34.61538461538463,21)" font-family="sans-serif" font-size="18px" fill="#000" opacity="1">1.5</text><text text-anchor="middle" transform="translate(92.30769230769234,21)" font-family="sans-serif" font-size="18px" fill="#000" opacity="1">2.0</text><text text-anchor="middle" transform="translate(150.00000000000003,21)" font-family="sans-serif" font-size="18px" fill="#000" opacity="1">2.5</text><text text-anchor="middle" transform="translate(207.6923076923077,21)" font-family="sans-serif" font-size="18px" fill="#000" opacity="1">3.0</text><text text-anchor="middle" transform="translate(265.3846153846154,21)" font-family="sans-serif" font-size="18px" fill="#000" opacity="1">3.5</text></g><g class="mark-rule role-axis-domain" pointer-events="none"><line transform="translate(0,0)" x2="300" y2="0" stroke="#888" stroke-width="1" opacity="1"/></g><g class="mark-text role-axis-title" pointer-events="none"><text text-anchor="middle" transform="translate(150,43)" font-family="sans-serif" font-size="18px" font-weight="bold" fill="#000" opacity="1">Value</text></g></g><path class="foreground" aria-hidden="true" d="" pointer-events="none" display="none"/></g></g><g class="mark-symbol role-mark layer_0_marks" role="graphics-object" aria-roledescription="symbol mark container"><path aria-label="Value: 2.63696168732; index: 0; Type: Truth" role="graphics-symbol" aria-roledescription="point" transform="translate(165.803271614014,10)" d="M0,-4.33L-5,4.33L5,4.33Z" stroke="#e45756" stroke-width="2" opacity="0.7"/><path aria-label="Value: 2.91275557728; index: 1; Type: Truth" role="graphics-symbol" aria-roledescription="point" transform="translate(197.62564353204488,30)" d="M0,-4.33L-5,4.33L5,4.33Z" stroke="#e45756" stroke-width="2" opacity="0.7"/><path aria-label="Value: 2.81585355412; index: 2; Type: Truth" role="graphics-symbol" aria-roledescription="point" transform="translate(186.44464086017683,50)" d="M0,-4.33L-5,4.33L5,4.33Z" stroke="#e45756" stroke-width="2" opacity="0.7"/><path aria-label="Value: 2.26978671376; index: 3; Type: Truth" role="graphics-symbol" aria-roledescription="point" transform="translate(123.4369285112158,70)" d="M0,-4.33L-5,4.33L5,4.33Z" stroke="#e45756" stroke-width="2" opacity="0.7"/><path aria-label="Value: 2.60663577577; index: 4; Type: Truth" role="graphics-symbol" aria-roledescription="point" transform="translate(162.3041279731362,90)" d="M0,-4.33L-5,4.33L5,4.33Z" stroke="#e45756" stroke-width="2" opacity="0.7"/><path aria-label="Value: 2.00273850017; index: 5; Type: Truth" role="graphics-symbol" aria-roledescription="point" transform="translate(92.62367309655554,110)" d="M0,-4.33L-5,4.33L5,4.33Z" stroke="#e45756" stroke-width="2" opacity="0.7"/><path aria-label="Value: 2.04097352394; index: 6; Type: Truth" role="graphics-symbol" aria-roledescription="point" transform="translate(97.03540660802247,130)" d="M0,-4.33L-5,4.33L5,4.33Z" stroke="#e45756" stroke-width="2" opacity="0.7"/><path aria-label="Value: 2.72949656098; index: 7; Type: Truth" role="graphics-symbol" aria-roledescription="point" transform="translate(176.48037242123064,150)" d="M0,-4.33L-5,4.33L5,4.33Z" stroke="#e45756" stroke-width="2" opacity="0.7"/><path aria-label="Value: 2.85740427659; index: 8; Type: Truth" role="graphics-symbol" aria-roledescription="point" transform="translate(191.23895499087345,170)" d="M0,-4.33L-5,4.33L5,4.33Z" stroke="#e45756" stroke-width="2" opacity="0.7"/><path aria-label="Value: 2.01652763553; index: 9; Type: Truth" role="graphics-symbol" aria-roledescription="point" transform="translate(94.21472717636878,190)" d="M0,-4.33L-5,4.33L5,4.33Z" stroke="#e45756" stroke-width="2" opacity="0.7"/><path aria-label="Value: 2.54362499147; index: 10; Type: Truth" role="graphics-symbol" aria-roledescription="point" transform="translate(155.03365286139498,210)" d="M0,-4.33L-5,4.33L5,4.33Z" stroke="#e45756" stroke-width="2" opacity="0.7"/><path aria-label="Value: 2.03358557531; index: 11; Type: Truth" role="graphics-symbol" aria-roledescription="point" transform="translate(96.18295099678433,230)" d="M0,-4.33L-5,4.33L5,4.33Z" stroke="#e45756" stroke-width="2" opacity="0.7"/><path aria-label="Value: 2.8132702392; index: 12; Type: Truth" role="graphics-symbol" aria-roledescription="point" transform="translate(186.1465660615699,250)" d="M0,-4.33L-5,4.33L5,4.33Z" stroke="#e45756" stroke-width="2" opacity="0.7"/><path aria-label="Value: 2.93507242379; index: 13; Type: Truth" role="graphics-symbol" aria-roledescription="point" transform="translate(200.20066428320408,270)" d="M0,-4.33L-5,4.33L5,4.33Z" stroke="#e45756" stroke-width="2" opacity="0.7"/><path aria-label="Value: 2.72965544643; index: 14; Type: Truth" role="graphics-symbol" aria-roledescription="point" transform="translate(176.49870535730122,290)" d="M0,-4.33L-5,4.33L5,4.33Z" stroke="#e45756" stroke-width="2" opacity="0.7"/><path aria-label="Value: 2.56373495185; index: 0; Type: Observation" role="graphics-symbol" aria-roledescription="point" transform="translate(157.35403290589727,10)" d="M5,0A5,5,0,1,1,-5,0A5,5,0,1,1,5,0" stroke="#4c78a8" stroke-width="2" opacity="0.7"/><path aria-label="Value: 2.85832967899; index: 1; Type: Observation" role="graphics-symbol" aria-roledescription="point" transform="translate(191.3457321913836,30)" d="M5,0A5,5,0,1,1,-5,0A5,5,0,1,1,5,0" stroke="#4c78a8" stroke-width="2" opacity="0.7"/><path aria-label="Value: 2.78422353848; index: 2; Type: Observation" role="graphics-symbol" aria-roledescription="point" transform="translate(182.79502367130198,50)" d="M5,0A5,5,0,1,1,-5,0A5,5,0,1,1,5,0" stroke="#4c78a8" stroke-width="2" opacity="0.7"/><path aria-label="Value: 2.3109497674; index: 3; Type: Observation" role="graphics-symbol" aria-roledescription="point" transform="translate(128.18651162322504,70)" d="M5,0A5,5,0,1,1,-5,0A5,5,0,1,1,5,0" stroke="#4c78a8" stroke-width="2" opacity="0.7"/><path aria-label="Value: 2.71088711271; index: 4; Type: Observation" role="graphics-symbol" aria-roledescription="point" transform="translate(174.33312838978247,90)" d="M5,0A5,5,0,1,1,-5,0A5,5,0,1,1,5,0" stroke="#4c78a8" stroke-width="2" opacity="0.7"/><path aria-label="Value: 1.98988503388; index: 5; Type: Observation" role="graphics-symbol" aria-roledescription="point" transform="translate(91.14058083181669,110)" d="M5,0A5,5,0,1,1,-5,0A5,5,0,1,1,5,0" stroke="#4c78a8" stroke-width="2" opacity="0.7"/><path aria-label="Value: 2.17761987099; index: 6; Type: Observation" role="graphics-symbol" aria-roledescription="point" transform="translate(112.80229280667268,130)" d="M5,0A5,5,0,1,1,-5,0A5,5,0,1,1,5,0" stroke="#4c78a8" stroke-width="2" opacity="0.7"/><path aria-label="Value: 2.66297709364; index: 7; Type: Observation" role="graphics-symbol" aria-roledescription="point" transform="translate(168.80504926561585,150)" d="M5,0A5,5,0,1,1,-5,0A5,5,0,1,1,5,0" stroke="#4c78a8" stroke-width="2" opacity="0.7"/><path aria-label="Value: 2.8925552836; index: 8; Type: Observation" role="graphics-symbol" aria-roledescription="point" transform="translate(195.29484041502369,170)" d="M5,0A5,5,0,1,1,-5,0A5,5,0,1,1,5,0" stroke="#4c78a8" stroke-width="2" opacity="0.7"/><path aria-label="Value: 2.10687465369; index: 9; Type: Observation" role="graphics-symbol" aria-roledescription="point" transform="translate(104.63938311850505,190)" d="M5,0A5,5,0,1,1,-5,0A5,5,0,1,1,5,0" stroke="#4c78a8" stroke-width="2" opacity="0.7"/><path aria-label="Value: 2.55302622124; index: 10; Type: Observation" role="graphics-symbol" aria-roledescription="point" transform="translate(156.11841014325125,210)" d="M5,0A5,5,0,1,1,-5,0A5,5,0,1,1,5,0" stroke="#4c78a8" stroke-width="2" opacity="0.7"/><path aria-label="Value: 1.95923565037; index: 11; Type: Observation" role="graphics-symbol" aria-roledescription="point" transform="translate(87.60411350424037,230)" d="M5,0A5,5,0,1,1,-5,0A5,5,0,1,1,5,0" stroke="#4c78a8" stroke-width="2" opacity="0.7"/><path aria-label="Value: 2.72109770157; index: 12; Type: Observation" role="graphics-symbol" aria-roledescription="point" transform="translate(175.51127325858815,250)" d="M5,0A5,5,0,1,1,-5,0A5,5,0,1,1,5,0" stroke="#4c78a8" stroke-width="2" opacity="0.7"/><path aria-label="Value: 2.88929984122; index: 13; Type: Observation" role="graphics-symbol" aria-roledescription="point" transform="translate(194.91921244858094,270)" d="M5,0A5,5,0,1,1,-5,0A5,5,0,1,1,5,0" stroke="#4c78a8" stroke-width="2" opacity="0.7"/><path aria-label="Value: 2.75167495878; index: 14; Type: Observation" role="graphics-symbol" aria-roledescription="point" transform="translate(179.0394183204172,290)" d="M5,0A5,5,0,1,1,-5,0A5,5,0,1,1,5,0" stroke="#4c78a8" stroke-width="2" opacity="0.7"/><path aria-label="Value: 2.58994150818; index: 0; Type: Raked" role="graphics-symbol" aria-roledescription="point" transform="translate(160.37786632897274,10)" d="M-5,-5h10v10h-10Z" stroke="#f58518" stroke-width="2" opacity="0.7"/><path aria-label="Value: 2.92520815436; index: 1; Type: Raked" role="graphics-symbol" aria-roledescription="point" transform="translate(199.06247934967575,30)" d="M-5,-5h10v10h-10Z" stroke="#f58518" stroke-width="2" opacity="0.7"/><path aria-label="Value: 2.85042222087; index: 2; Type: Raked" role="graphics-symbol" aria-roledescription="point" transform="translate(190.43333317754298,50)" d="M-5,-5h10v10h-10Z" stroke="#f58518" stroke-width="2" opacity="0.7"/><path aria-label="Value: 2.24659842775; index: 3; Type: Raked" role="graphics-symbol" aria-roledescription="point" transform="translate(120.76135704790312,70)" d="M-5,-5h10v10h-10Z" stroke="#f58518" stroke-width="2" opacity="0.7"/><path aria-label="Value: 2.67111691073; index: 4; Type: Raked" role="graphics-symbol" aria-roledescription="point" transform="translate(169.7442589308029,90)" d="M-5,-5h10v10h-10Z" stroke="#f58518" stroke-width="2" opacity="0.7"/><path aria-label="Value: 1.96144571059; index: 5; Type: Raked" role="graphics-symbol" aria-roledescription="point" transform="translate(87.85912045268367,110)" d="M-5,-5h10v10h-10Z" stroke="#f58518" stroke-width="2" opacity="0.7"/><path aria-label="Value: 2.12705348059; index: 6; Type: Raked" role="graphics-symbol" aria-roledescription="point" transform="translate(106.96770929880398,130)" d="M-5,-5h10v10h-10Z" stroke="#f58518" stroke-width="2" opacity="0.7"/><path aria-label="Value: 2.63622690327; index: 7; Type: Raked" role="graphics-symbol" aria-roledescription="point" transform="translate(165.71848883876066,150)" d="M-5,-5h10v10h-10Z" stroke="#f58518" stroke-width="2" opacity="0.7"/><path aria-label="Value: 2.86459406865; index: 8; Type: Raked" role="graphics-symbol" aria-roledescription="point" transform="translate(192.0685463826329,170)" d="M-5,-5h10v10h-10Z" stroke="#f58518" stroke-width="2" opacity="0.7"/><path aria-label="Value: 2.07963056619; index: 9; Type: Raked" role="graphics-symbol" aria-roledescription="point" transform="translate(101.49583456051035,190)" d="M-5,-5h10v10h-10Z" stroke="#f58518" stroke-width="2" opacity="0.7"/><path aria-label="Value: 2.55365089926; index: 10; Type: Raked" role="graphics-symbol" aria-roledescription="point" transform="translate(156.19048837611396,210)" d="M-5,-5h10v10h-10Z" stroke="#f58518" stroke-width="2" opacity="0.7"/><path aria-label="Value: 1.96045681727; index: 11; Type: Raked" role="graphics-symbol" aria-roledescription="point" transform="translate(87.74501737753212,230)" d="M-5,-5h10v10h-10Z" stroke="#f58518" stroke-width="2" opacity="0.7"/><path aria-label="Value: 2.73429586289; index: 12; Type: Raked" role="graphics-symbol" aria-roledescription="point" transform="translate(177.0341380254123,250)" d="M-5,-5h10v10h-10Z" stroke="#f58518" stroke-width="2" opacity="0.7"/><path aria-label="Value: 2.94138245412; index: 13; Type: Raked" role="graphics-symbol" aria-roledescription="point" transform="translate(200.92874470654533,270)" d="M-5,-5h10v10h-10Z" stroke="#f58518" stroke-width="2" opacity="0.7"/><path aria-label="Value: 2.80231854175; index: 14; Type: Raked" role="graphics-symbol" aria-roledescription="point" transform="translate(184.8829086629079,290)" d="M-5,-5h10v10h-10Z" stroke="#f58518" stroke-width="2" opacity="0.7"/></g><g class="mark-rule role-mark layer_1_marks" clip-path="url(#clip9)" role="graphics-object" aria-roledescription="rule mark container"><line aria-label="Upper: 2.63696168732; index: 0; upper_Upper: 2.63696168732; Type: Truth; width: 0; Lower: 2.63696168732" role="graphics-symbol" aria-roledescription="errorbar" transform="translate(165.803271614014,10)" x2="0" y2="0" stroke="#e45756" stroke-width="1" opacity="0.5"/><line aria-label="Upper: 2.91275557728; index: 1; upper_Upper: 2.91275557728; Type: Truth; width: 0; Lower: 2.91275557728" role="graphics-symbol" aria-roledescription="errorbar" transform="translate(197.62564353204488,30)" x2="0" y2="0" stroke="#e45756" stroke-width="1" opacity="0.5"/><line aria-label="Upper: 2.81585355412; index: 2; upper_Upper: 2.81585355412; Type: Truth; width: 0; Lower: 2.81585355412" role="graphics-symbol" aria-roledescription="errorbar" transform="translate(186.44464086017683,50)" x2="0" y2="0" stroke="#e45756" stroke-width="1" opacity="0.5"/><line aria-label="Upper: 2.26978671376; index: 3; upper_Upper: 2.26978671376; Type: Truth; width: 0; Lower: 2.26978671376" role="graphics-symbol" aria-roledescription="errorbar" transform="translate(123.4369285112158,70)" x2="0" y2="0" stroke="#e45756" stroke-width="1" opacity="0.5"/><line aria-label="Upper: 2.60663577577; index: 4; upper_Upper: 2.60663577577; Type: Truth; width: 0; Lower: 2.60663577577" role="graphics-symbol" aria-roledescription="errorbar" transform="translate(162.3041279731362,90)" x2="0" y2="0" stroke="#e45756" stroke-width="1" opacity="0.5"/><line aria-label="Upper: 2.00273850017; index: 5; upper_Upper: 2.00273850017; Type: Truth; width: 0; Lower: 2.00273850017" role="graphics-symbol" aria-roledescription="errorbar" transform="translate(92.62367309655554,110)" x2="0" y2="0" stroke="#e45756" stroke-width="1" opacity="0.5"/><line aria-label="Upper: 2.04097352394; index: 6; upper_Upper: 2.04097352394; Type: Truth; width: 0; Lower: 2.04097352394" role="graphics-symbol" aria-roledescription="errorbar" transform="translate(97.03540660802247,130)" x2="0" y2="0" stroke="#e45756" stroke-width="1" opacity="0.5"/><line aria-label="Upper: 2.72949656098; index: 7; upper_Upper: 2.72949656098; Type: Truth; width: 0; Lower: 2.72949656098" role="graphics-symbol" aria-roledescription="errorbar" transform="translate(176.48037242123064,150)" x2="0" y2="0" stroke="#e45756" stroke-width="1" opacity="0.5"/><line aria-label="Upper: 2.85740427659; index: 8; upper_Upper: 2.85740427659; Type: Truth; width: 0; Lower: 2.85740427659" role="graphics-symbol" aria-roledescription="errorbar" transform="translate(191.23895499087345,170)" x2="0" y2="0" stroke="#e45756" stroke-width="1" opacity="0.5"/><line aria-label="Upper: 2.01652763553; index: 9; upper_Upper: 2.01652763553; Type: Truth; width: 0; Lower: 2.01652763553" role="graphics-symbol" aria-roledescription="errorbar" transform="translate(94.21472717636878,190)" x2="0" y2="0" stroke="#e45756" stroke-width="1" opacity="0.5"/><line aria-label="Upper: 2.54362499147; index: 10; upper_Upper: 2.54362499147; Type: Truth; width: 0; Lower: 2.54362499147" role="graphics-symbol" aria-roledescription="errorbar" transform="translate(155.03365286139498,210)" x2="0" y2="0" stroke="#e45756" stroke-width="1" opacity="0.5"/><line aria-label="Upper: 2.03358557531; index: 11; upper_Upper: 2.03358557531; Type: Truth; width: 0; Lower: 2.03358557531" role="graphics-symbol" aria-roledescription="errorbar" transform="translate(96.18295099678433,230)" x2="0" y2="0" stroke="#e45756" stroke-width="1" opacity="0.5"/><line aria-label="Upper: 2.8132702392; index: 12; upper_Upper: 2.8132702392; Type: Truth; width: 0; Lower: 2.8132702392" role="graphics-symbol" aria-roledescription="errorbar" transform="translate(186.1465660615699,250)" x2="0" y2="0" stroke="#e45756" stroke-width="1" opacity="0.5"/><line aria-label="Upper: 2.93507242379; index: 13; upper_Upper: 2.93507242379; Type: Truth; width: 0; Lower: 2.93507242379" role="graphics-symbol" aria-roledescription="errorbar" transform="translate(200.20066428320408,270)" x2="0" y2="0" stroke="#e45756" stroke-width="1" opacity="0.5"/><line aria-label="Upper: 2.72965544643; index: 14; upper_Upper: 2.72965544643; Type: Truth; width: 0; Lower: 2.72965544643" role="graphics-symbol" aria-roledescription="errorbar" transform="translate(176.49870535730122,290)" x2="0" y2="0" stroke="#e45756" stroke-width="1" opacity="0.5"/><line aria-label="Upper: 2.75973495185; index: 0; upper_Upper: 2.36773495185; Type: Observation; width: 1; Lower: 2.36773495185" role="graphics-symbol" aria-roledescription="errorbar" transform="translate(179.96941752128188,10)" x2="-45.23076923076928" y2="0" stroke="#4c78a8" stroke-width="2.5" opacity="0.5"/><line aria-label="Upper: 3.13551553722; index: 1; upper_Upper: 2.58114382077; Type: Observation; width: 1; Lower: 2.58114382077" role="graphics-symbol" aria-roledescription="errorbar" transform="translate(223.3287158327444,30)" x2="-63.96596728272158" y2="0" stroke="#4c78a8" stroke-width="2.5" opacity="0.5"/><line aria-label="Upper: 3.12370549677; index: 2; upper_Upper: 2.4447415802; Type: Observation; width: 1; Lower: 2.4447415802" role="graphics-symbol" aria-roledescription="errorbar" transform="translate(221.96601885785964,50)" x2="-78.34199037311535" y2="0" stroke="#4c78a8" stroke-width="2.5" opacity="0.5"/><line aria-label="Upper: 2.7029497674; index: 3; upper_Upper: 1.9189497674; Type: Observation; width: 1; Lower: 1.9189497674" role="graphics-symbol" aria-roledescription="errorbar" transform="translate(173.41728085399427,70)" x2="-90.46153846153847" y2="0" stroke="#4c78a8" stroke-width="2.5" opacity="0.5"/><line aria-label="Upper: 3.1491564363; index: 4; upper_Upper: 2.27261778912; Type: Observation; width: 1; Lower: 2.27261778912" role="graphics-symbol" aria-roledescription="errorbar" transform="translate(224.9026657270854,90)" x2="-101.13907467460588" y2="0" stroke="#4c78a8" stroke-width="2.5" opacity="0.5"/><line aria-label="Upper: 2.46998502346; index: 5; upper_Upper: 1.50978504429; Type: Observation; width: 1; Lower: 1.50978504429" role="graphics-symbol" aria-roledescription="errorbar" transform="translate(146.53673347629783,110)" x2="-110.79230528896224" y2="0" stroke="#4c78a8" stroke-width="2.5" opacity="0.5"/><line aria-label="Upper: 2.69618712796; index: 6; upper_Upper: 1.65905261402; Type: Observation; width: 1; Lower: 1.65905261402" role="graphics-symbol" aria-roledescription="errorbar" transform="translate(172.6369763030565,130)" x2="-119.66936699276764" y2="0" stroke="#4c78a8" stroke-width="2.5" opacity="0.5"/><line aria-label="Upper: 3.21734881009; index: 7; upper_Upper: 2.10860537719; Type: Observation; width: 1; Lower: 2.10860537719" role="graphics-symbol" aria-roledescription="errorbar" transform="translate(232.77101654833731,150)" x2="-127.931934565443" y2="0" stroke="#4c78a8" stroke-width="2.5" opacity="0.5"/><line aria-label="Upper: 3.4805552836; index: 8; upper_Upper: 2.3045552836; Type: Observation; width: 1; Lower: 2.3045552836" role="graphics-symbol" aria-roledescription="errorbar" transform="translate(263.1409942611775,170)" x2="-135.6923076923077" y2="0" stroke="#4c78a8" stroke-width="2.5" opacity="0.5"/><line aria-label="Upper: 2.72668107509; index: 9; upper_Upper: 1.4870682323; Type: Observation; width: 1; Lower: 1.4870682323" role="graphics-symbol" aria-roledescription="errorbar" transform="translate(176.1555086638515,190)" x2="-143.03225109069288" y2="0" stroke="#4c78a8" stroke-width="2.5" opacity="0.5"/><line aria-label="Upper: 3.20308468015; index: 10; upper_Upper: 1.90296776233; Type: Observation; width: 1; Lower: 1.90296776233" role="graphics-symbol" aria-roledescription="errorbar" transform="translate(231.12515540205794,210)" x2="-150.01349051761343" y2="0" stroke="#4c78a8" stroke-width="2.5" opacity="0.5"/><line aria-label="Upper: 2.63819956694; index: 11; upper_Upper: 1.2802717338; Type: Observation; width: 1; Lower: 1.2802717338" role="graphics-symbol" aria-roledescription="errorbar" transform="translate(165.9461038773558,230)" x2="-156.6839807462308" y2="0" stroke="#4c78a8" stroke-width="2.5" opacity="0.5"/><line aria-label="Upper: 3.42778575157; index: 12; upper_Upper: 2.01440965158; Type: Observation; width: 1; Lower: 2.01440965158" role="graphics-symbol" aria-roledescription="errorbar" transform="translate(257.05220210369686,250)" x2="-163.08185769021736" y2="0" stroke="#4c78a8" stroke-width="2.5" opacity="0.5"/><line aria-label="Upper: 3.62266468903; index: 13; upper_Upper: 2.15593499341; Type: Observation; width: 1; Lower: 2.15593499341" role="graphics-symbol" aria-roledescription="errorbar" transform="translate(279.5382333494685,270)" x2="-169.23804180177518" y2="0" stroke="#4c78a8" stroke-width="2.5" opacity="0.5"/><line aria-label="Upper: 3.51077969463; index: 14; upper_Upper: 1.99257022292; Type: Observation; width: 1; Lower: 1.99257022292" role="graphics-symbol" aria-roledescription="errorbar" transform="translate(266.62842630387723,290)" x2="-175.17801596692007" y2="0" stroke="#4c78a8" stroke-width="2.5" opacity="0.5"/><line aria-label="Upper: 2.80236196031; index: 0; upper_Upper: 2.37752105606; Type: Raked; width: 2; Lower: 2.37752105606" role="graphics-symbol" aria-roledescription="errorbar" transform="translate(184.88791849678273,10)" x2="-49.020104335620005" y2="0" stroke="#f58518" stroke-width="4" opacity="0.5"/><line aria-label="Upper: 3.16322351046; index: 1; upper_Upper: 2.68719279827; Type: Raked; width: 2; Lower: 2.68719279827" role="graphics-symbol" aria-roledescription="errorbar" transform="translate(226.52578966794565,30)" x2="-54.926620636539724" y2="0" stroke="#f58518" stroke-width="4" opacity="0.5"/><line aria-label="Upper: 3.11503837762; index: 2; upper_Upper: 2.58580606413; Type: Raked; width: 2; Lower: 2.58580606413" role="graphics-symbol" aria-roledescription="errorbar" transform="translate(220.96596664789354,50)" x2="-61.06526694070115" y2="0" stroke="#f58518" stroke-width="4" opacity="0.5"/><line aria-label="Upper: 2.53429196531; index: 3; upper_Upper: 1.95890489018; Type: Raked; width: 2; Lower: 1.95890489018" role="graphics-symbol" aria-roledescription="errorbar" transform="translate(153.95676522864002,70)" x2="-66.3908163614738" y2="0" stroke="#f58518" stroke-width="4" opacity="0.5"/><line aria-label="Upper: 2.97975629767; index: 4; upper_Upper: 2.36247752379; Type: Raked; width: 2; Lower: 2.36247752379" role="graphics-symbol" aria-roledescription="errorbar" transform="translate(205.35649588528307,90)" x2="-71.2244739089603" y2="0" stroke="#f58518" stroke-width="4" opacity="0.5"/><line aria-label="Upper: 2.28664918945; index: 5; upper_Upper: 1.63624223173; Type: Raked; width: 2; Lower: 1.63624223173" role="graphics-symbol" aria-roledescription="errorbar" transform="translate(125.38259878256687,110)" x2="-75.04695665976641" y2="0" stroke="#f58518" stroke-width="4" opacity="0.5"/><line aria-label="Upper: 2.48513331567; index: 6; upper_Upper: 1.76897364551; Type: Raked; width: 2; Lower: 1.76897364551" role="graphics-symbol" aria-roledescription="errorbar" transform="translate(148.2846133469978,130)" x2="-82.63380809638757" y2="0" stroke="#f58518" stroke-width="4" opacity="0.5"/><line aria-label="Upper: 3.01253088402; index: 7; upper_Upper: 2.25992292252; Type: Raked; width: 2; Lower: 2.25992292252" role="graphics-symbol" aria-roledescription="errorbar" transform="translate(209.13817892497616,150)" x2="-86.83938017243105" y2="0" stroke="#f58518" stroke-width="4" opacity="0.5"/><line aria-label="Upper: 3.2542935006; index: 8; upper_Upper: 2.4748946367; Type: Raked; width: 2; Lower: 2.4748946367" role="graphics-symbol" aria-roledescription="errorbar" transform="translate(237.03386545412482,170)" x2="-89.93063814298395" y2="0" stroke="#f58518" stroke-width="4" opacity="0.5"/><line aria-label="Upper: 2.50379697586; index: 9; upper_Upper: 1.65546415652; Type: Raked; width: 2; Lower: 1.65546415652" role="graphics-symbol" aria-roledescription="errorbar" transform="translate(150.43811259921515,190)" x2="-97.88455607740961" y2="0" stroke="#f58518" stroke-width="4" opacity="0.5"/><line aria-label="Upper: 2.99507648441; index: 10; upper_Upper: 2.11222531411; Type: Raked; width: 2; Lower: 2.11222531411" role="graphics-symbol" aria-roledescription="errorbar" transform="translate(207.12420973912927,210)" x2="-101.86744272603063" y2="0" stroke="#f58518" stroke-width="4" opacity="0.5"/><line aria-label="Upper: 2.41802430118; index: 11; upper_Upper: 1.50288933336; Type: Raked; width: 2; Lower: 1.50288933336" role="graphics-symbol" aria-roledescription="errorbar" transform="translate(140.54126552129992,230)" x2="-105.59249628753554" y2="0" stroke="#f58518" stroke-width="4" opacity="0.5"/><line aria-label="Upper: 3.20397534849; index: 12; upper_Upper: 2.26461637728; Type: Raked; width: 2; Lower: 2.26461637728" role="graphics-symbol" aria-roledescription="errorbar" transform="translate(231.2279248258572,250)" x2="-108.38757360088984" y2="0" stroke="#f58518" stroke-width="4" opacity="0.5"/><line aria-label="Upper: 3.42866230556; index: 13; upper_Upper: 2.45410260269; Type: Raked; width: 2; Lower: 2.45410260269" role="graphics-symbol" aria-roledescription="errorbar" transform="translate(257.15334294866113,270)" x2="-112.44919648423163" y2="0" stroke="#f58518" stroke-width="4" opacity="0.5"/><line aria-label="Upper: 3.29888160602; index: 14; upper_Upper: 2.30575547747; Type: Raked; width: 2; Lower: 2.30575547747" role="graphics-symbol" aria-roledescription="errorbar" transform="translate(242.17864684828388,290)" x2="-114.59147637075188" y2="0" stroke="#f58518" stroke-width="4" opacity="0.5"/></g><g class="mark-group role-legend" role="graphics-symbol" aria-roledescription="legend" aria-label="Symbol legend for stroke color with 3 values: Observation, Raked, Truth"><g transform="translate(318,0)"><path class="background" aria-hidden="true" d="M0,0h120v58h-120Z" pointer-events="none"/><g><g class="mark-group role-legend-entry"><g transform="translate(0,0)"><path class="background" aria-hidden="true" d="M0,0h0v0h0Z" pointer-events="none"/><g><g class="mark-group role-scope" role="graphics-object" aria-roledescription="group mark container"><g transform="translate(0,0)"><path class="background" aria-hidden="true" d="M0,0h119.048828125v18h-119.048828125Z" pointer-events="none" opacity="1"/><g><g class="mark-symbol role-legend-symbol" pointer-events="none"><path transform="translate(9,9)" d="M5,0A5,5,0,1,1,-5,0A5,5,0,1,1,5,0" stroke="#4c78a8" stroke-width="1.5" opacity="0.7"/></g><g class="mark-text role-legend-label" pointer-events="none"><text text-anchor="start" transform="translate(22,14)" font-family="sans-serif" font-size="18px" fill="#000" opacity="1">Observation</text></g></g><path class="foreground" aria-hidden="true" d="" pointer-events="none" display="none"/></g><g transform="translate(0,20)"><path class="background" aria-hidden="true" d="M0,0h119.048828125v18h-119.048828125Z" pointer-events="none" opacity="1"/><g><g class="mark-symbol role-legend-symbol" pointer-events="none"><path transform="translate(9,9)" d="M5,0A5,5,0,1,1,-5,0A5,5,0,1,1,5,0" stroke="#f58518" stroke-width="1.5" opacity="0.7"/></g><g class="mark-text role-legend-label" pointer-events="none"><text text-anchor="start" transform="translate(22,14)" font-family="sans-serif" font-size="18px" fill="#000" opacity="1">Raked</text></g></g><path class="foreground" aria-hidden="true" d="" pointer-events="none" display="none"/></g><g transform="translate(0,40)"><path class="background" aria-hidden="true" d="M0,0h119.048828125v18h-119.048828125Z" pointer-events="none" opacity="1"/><g><g class="mark-symbol role-legend-symbol" pointer-events="none"><path transform="translate(9,9)" d="M5,0A5,5,0,1,1,-5,0A5,5,0,1,1,5,0" stroke="#e45756" stroke-width="1.5" opacity="0.7"/></g><g class="mark-text role-legend-label" pointer-events="none"><text text-anchor="start" transform="translate(22,14)" font-family="sans-serif" font-size="18px" fill="#000" opacity="1">Truth</text></g></g><path class="foreground" aria-hidden="true" d="" pointer-events="none" display="none"/></g></g></g><path class="foreground" aria-hidden="true" d="" pointer-events="none" display="none"/></g></g></g><path class="foreground" aria-hidden="true" d="" pointer-events="none" display="none"/></g></g><g class="mark-group role-legend" role="graphics-symbol" aria-roledescription="legend" aria-label="Symbol legend for shape with 3 values: Observation, Raked, Truth"><g transform="translate(318,66)"><path class="background" aria-hidden="true" d="M0,0h120v58h-120Z" pointer-events="none"/><g><g class="mark-group role-legend-entry"><g transform="translate(0,0)"><path class="background" aria-hidden="true" d="M0,0h0v0h0Z" pointer-events="none"/><g><g class="mark-group role-scope" role="graphics-object" aria-roledescription="group mark container"><g transform="translate(0,0)"><path class="background" aria-hidden="true" d="M0,0h119.048828125v18h-119.048828125Z" pointer-events="none" opacity="1"/><g><g class="mark-symbol role-legend-symbol" pointer-events="none"><path transform="translate(9,9)" d="M5,0A5,5,0,1,1,-5,0A5,5,0,1,1,5,0" stroke="#888" stroke-width="1.5" opacity="0.7"/></g><g class="mark-text role-legend-label" pointer-events="none"><text text-anchor="start" transform="translate(22,14)" font-family="sans-serif" font-size="18px" fill="#000" opacity="1">Observation</text></g></g><path class="foreground" aria-hidden="true" d="" pointer-events="none" display="none"/></g><g transform="translate(0,20)"><path class="background" aria-hidden="true" d="M0,0h119.048828125v18h-119.048828125Z" pointer-events="none" opacity="1"/><g><g class="mark-symbol role-legend-symbol" pointer-events="none"><path transform="translate(9,9)" d="M-5,-5h10v10h-10Z" stroke="#888" stroke-width="1.5" opacity="0.7"/></g><g class="mark-text role-legend-label" pointer-events="none"><text text-anchor="start" transform="translate(22,14)" font-family="sans-serif" font-size="18px" fill="#000" opacity="1">Raked</text></g></g><path class="foreground" aria-hidden="true" d="" pointer-events="none" display="none"/></g><g transform="translate(0,40)"><path class="background" aria-hidden="true" d="M0,0h119.048828125v18h-119.048828125Z" pointer-events="none" opacity="1"/><g><g class="mark-symbol role-legend-symbol" pointer-events="none"><path transform="translate(9,9)" d="M0,-4.33L-5,4.33L5,4.33Z" stroke="#888" stroke-width="1.5" opacity="0.7"/></g><g class="mark-text role-legend-label" pointer-events="none"><text text-anchor="start" transform="translate(22,14)" font-family="sans-serif" font-size="18px" fill="#000" opacity="1">Truth</text></g></g><path class="foreground" aria-hidden="true" d="" pointer-events="none" display="none"/></g></g></g><path class="foreground" aria-hidden="true" d="" pointer-events="none" display="none"/></g></g></g><path class="foreground" aria-hidden="true" d="" pointer-events="none" display="none"/></g></g></g><path class="foreground" aria-hidden="true" d="" display="none"/></g></g></g><defs><clipPath id="clip9"><rect x="0" y="0" width="300" height="300"/></clipPath></defs></svg>