<svg xmlns="http://www.w3.org/2000/svg" xmlns:xlink="http://www.w3.org/1999/xlink" version="1.1" class="marks" width="414" height="357" viewBox="0 0 414 357"><rect width="414" height="357" fill="white"/><g fill="none" stroke-miterlimit="10" transform="translate(6,5)"><g class="mark-group role-frame root" role="graphics-object" aria-roledescription="group mark container"><g transform="translate(0,0)"><path class="background" aria-hidden="true" d="M0.5,0.5h300v300h-300Z" stroke="#ddd"/><g><g class="mark-group role-axis" aria-hidden="true"><g transform="translate(0.5,300.5)"><path class="background" aria-hidden="true" d="M0,0h0v0h0Z" pointer-events="none"/><g><g class="mark-rule role-axis-grid" pointer-events="none"><line transform="translate(0,0)" x2="0" y2="-300" stroke="#ddd" stroke-width="1" opacity="1"/><line transform="translate(37,0)" x2="0" y2="-300" stroke="#ddd" stroke-width="1" opacity="1"/><line transform="translate(75,0)" x2="0" y2="-300" stroke="#ddd" stroke-width="1" opacity="1"/><line transform="translate(113,0)" x2="0" y2="-300" stroke="#ddd" stroke-width="1" opacity="1"/><line transform="translate(150,0)" x2="0" y2="-300" stroke="#ddd" stroke-width="1" opacity="1"/><line transform="translate(188,0)" x2="0" y2="-300" stroke="#ddd" stroke-width="1" opacity="1"/><line transform="translate(225,0)" x2="0" y2="-300" stroke="#ddd" stroke-width="1" opacity="1"/><line transform="translate(262,0)" x2="0" y2="-300" stroke="#ddd" stroke-width="1" opacity="1"/><line transform="translate(300,0)" x2="0" y2="-300" stroke="#ddd" stroke-width="1" opacity="1"/></g></g><path class="foreground" aria-hidden="true" d="" pointer-events="none" display="none"/></g></g><g class="mark-group role-axis" role="graphics-symbol" aria-roledescription="axis" aria-label="X-axis titled 'Value' for a linear scale with values from 1.6 to 3.2"><g transform="translate(0.5,300.5)"><path class="background" aria-hidden="true" d="M0,0h0v0h0Z" pointer-events="none"/><g><g class="mark-rule role-axis-tick" pointer-events="none"><line transform="translate(0,0)" x2="0" y2="5" stroke="#888" stroke-width="1" opacity="1"/><line transform="translate(37,0)" x2="0" y2="5" stroke="#888" stroke-width="1" opacity="1"/><line transform="translate(75,0)" x2="0" y2="5" stroke="#888" stroke-width="1" opacity="1"/><line transform="translate(113,0)" x2="0" y2="5" stroke="#888" stroke-width="1" opacity="1"/><line transform="translate(150,0)" x2="0" y2="5" stroke="#888" stroke-width="1" opacity="1"/><line transform="translate(188,0)" x2="0" y2="5" stroke="#888" stroke-width="1" opacity="1"/><line transform="translate(225,0)" x2="0" y2="5" stroke="#888" stroke-width="1" opacity="1"/><line transform="translate(262,0)" x2="0" y2="5" stroke="#888" stroke-width="1" opacity="1"/><line transform="translate(300,0)" x2="0" y2="5" stroke="#888" stroke-width="1" opacity="1"/></g><g class="mark-text role-axis-label" pointer-events="none"><text text-anchor="start" transform="translate(0,21)" font-family="sans-serif" font-size="18px" fill="#000" opacity="1">1.6</text><text text-anchor="middle" transform="translate(37.49999999999999,21)" font-family="sans-serif" font-size="18px" fill="#000" opacity="0">1.8</text><text text-anchor="middle" transform="translate(74.99999999999999,21)" font-family="sans-serif" font-size="18px" fill="#000" opacity="1">2.0</text><text text-anchor="middle" transform="translate(112.50000000000001,21)" font-family="sans-serif" font-size="18px" fill="#000" opacity="0">2.2</text><text text-anchor="middle" transform="translate(149.99999999999997,21)" font-family="sans-serif" font-size="18px" fill="#000" opacity="1">2.4</text><text text-anchor="middle" transform="translate(187.5,21)" font-family="sans-serif" font-size="18px" fill="#000" opacity="0">2.6</text><text text-anchor="middle" transform="translate(224.99999999999994,21)" font-family="sans-serif" font-size="18px" fill="#000" opacity="1">2.8</text><text text-anchor="middle" transform="translate(262.49999999999994,21)" font-family="sans-serif" font-size="18px" fill="#000" opacity="0">3.0</text><text text-anchor="end" transform="translate(300,21)" font-family="sans-serif" font-size="18px" fill="#000" opacity="1">3.2</text></g><g class="mark-rule role-axis-domain" pointer-events="none"><line transform="translate(0,0)" x2="300" y2="0" stroke="#888" stroke-width="1" opacity="1"/></g><g class="mark-text role-axis-title" pointer-events="none"><text text-anchor="middle" transform="translate(150,43)" font-family="sans-serif" font-size="18px" font-weight="bold" fill="#000" opacity="1">Value</text></g></g><path class="foreground" aria-hidden="true" d="" pointer-events="none" display="none"/></g></g><g class="mark-symbol role-mark layer_0_marks" role="graphics-object" aria-roledescription="symbol mark container"><path aria-label="Value: 2.63696168732; index: 0; Type: Original" role="graphics-symbol" aria-roledescription="point" transform="translate(194.43031637277264,10)" d="M2.739,0A2.739,2.739,0,1,1,-2.739,0A2.739,2.739,0,1,1,2.739,0" fill="#4c78a8" stroke-width="2" opacity="0.7"/><path aria-label="Value: 2.91275557728; index: 1; Type: Original" role="graphics-symbol" aria-roledescription="point" transform="translate(246.14167073957282,30)" d="M2.739,0A2.739,2.739,0,1,1,-2.739,0A2.739,2.739,0,1,1,2.739,0" fill="#4c78a8" stroke-width="2" opacity="0.7"/><path aria-label="Value: 2.81585355412; index: 2; Type: Original" role="graphics-symbol" aria-roledescription="point" transform="translate(227.9725413977873,50)" d="M2.739,0A2.739,2.739,0,1,1,-2.739,0A2.739,2.739,0,1,1,2.739,0" fill="#4c78a8" stroke-width="2" opacity="0.7"/><path aria-label="Value: 2.26978671376; index: 3; Type: Original" role="graphics-symbol" aria-roledescription="point" transform="translate(125.58500883072563,70)" d="M2.739,0A2.739,2.739,0,1,1,-2.739,0A2.739,2.739,0,1,1,2.739,0" fill="#4c78a8" stroke-width="2" opacity="0.7"/><path aria-label="Value: 2.60663577577; index: 4; Type: Original" role="graphics-symbol" aria-roledescription="point" transform="translate(188.74420795634623,90)" d="M2.739,0A2.739,2.739,0,1,1,-2.739,0A2.739,2.739,0,1,1,2.739,0" fill="#4c78a8" stroke-width="2" opacity="0.7"/><path aria-label="Value: 2.00273850017; index: 5; Type: Original" role="graphics-symbol" aria-roledescription="point" transform="translate(75.51346878190272,110)" d="M2.739,0A2.739,2.739,0,1,1,-2.739,0A2.739,2.739,0,1,1,2.739,0" fill="#4c78a8" stroke-width="2" opacity="0.7"/><path aria-label="Value: 2.04097352394; index: 6; Type: Original" role="graphics-symbol" aria-roledescription="point" transform="translate(82.68253573803646,130)" d="M2.739,0A2.739,2.739,0,1,1,-2.739,0A2.739,2.739,0,1,1,2.739,0" fill="#4c78a8" stroke-width="2" opacity="0.7"/><path aria-label="Value: 2.72949656098; index: 7; Type: Original" role="graphics-symbol" aria-roledescription="point" transform="translate(211.7806051844997,150)" d="M2.739,0A2.739,2.739,0,1,1,-2.739,0A2.739,2.739,0,1,1,2.739,0" fill="#4c78a8" stroke-width="2" opacity="0.7"/><path aria-label="Value: 2.85740427659; index: 8; Type: Original" role="graphics-symbol" aria-roledescription="point" transform="translate(235.76330186016926,170)" d="M2.739,0A2.739,2.739,0,1,1,-2.739,0A2.739,2.739,0,1,1,2.739,0" fill="#4c78a8" stroke-width="2" opacity="0.7"/><path aria-label="Value: 2.01652763553; index: 9; Type: Original" role="graphics-symbol" aria-roledescription="point" transform="translate(78.09893166159922,190)" d="M2.739,0A2.739,2.739,0,1,1,-2.739,0A2.739,2.739,0,1,1,2.739,0" fill="#4c78a8" stroke-width="2" opacity="0.7"/><path aria-label="Value: 2.54362499147; index: 10; Type: Original" role="graphics-symbol" aria-roledescription="point" transform="translate(176.92968589976678,210)" d="M2.739,0A2.739,2.739,0,1,1,-2.739,0A2.739,2.739,0,1,1,2.739,0" fill="#4c78a8" stroke-width="2" opacity="0.7"/><path aria-label="Value: 2.03358557531; index: 11; Type: Original" role="graphics-symbol" aria-roledescription="point" transform="translate(81.2972953697745,230)" d="M2.739,0A2.739,2.739,0,1,1,-2.739,0A2.739,2.739,0,1,1,2.739,0" fill="#4c78a8" stroke-width="2" opacity="0.7"/><path aria-label="Value: 2.8132702392; index: 12; Type: Original" role="graphics-symbol" aria-roledescription="point" transform="translate(227.488169850051,250)" d="M2.739,0A2.739,2.739,0,1,1,-2.739,0A2.739,2.739,0,1,1,2.739,0" fill="#4c78a8" stroke-width="2" opacity="0.7"/><path aria-label="Value: 2.93507242379; index: 13; Type: Original" role="graphics-symbol" aria-roledescription="point" transform="translate(250.32607946020653,270)" d="M2.739,0A2.739,2.739,0,1,1,-2.739,0A2.739,2.739,0,1,1,2.739,0" fill="#4c78a8" stroke-width="2" opacity="0.7"/><path aria-label="Value: 2.72965544643; index: 14; Type: Original" role="graphics-symbol" aria-roledescription="point" transform="translate(211.81039620561444,290)" d="M2.739,0A2.739,2.739,0,1,1,-2.739,0A2.739,2.739,0,1,1,2.739,0" fill="#4c78a8" stroke-width="2" opacity="0.7"/><path aria-label="Value: 2.58994150818; index: 0; Type: Raked" role="graphics-symbol" aria-roledescription="point" transform="translate(185.61403278458062,10)" d="M2.739,0A2.739,2.739,0,1,1,-2.739,0A2.739,2.739,0,1,1,2.739,0" fill="#f58518" stroke-width="2" opacity="0.7"/><path aria-label="Value: 2.92520815436; index: 1; Type: Raked" role="graphics-symbol" aria-roledescription="point" transform="translate(248.47652894322303,30)" d="M2.739,0A2.739,2.739,0,1,1,-2.739,0A2.739,2.739,0,1,1,2.739,0" fill="#f58518" stroke-width="2" opacity="0.7"/><path aria-label="Value: 2.85042222087; index: 2; Type: Raked" role="graphics-symbol" aria-roledescription="point" transform="translate(234.45416641350727,50)" d="M2.739,0A2.739,2.739,0,1,1,-2.739,0A2.739,2.739,0,1,1,2.739,0" fill="#f58518" stroke-width="2" opacity="0.7"/><path aria-label="Value: 2.24659842775; index: 3; Type: Raked" role="graphics-symbol" aria-roledescription="point" transform="translate(121.23720520284253,70)" d="M2.739,0A2.739,2.739,0,1,1,-2.739,0A2.739,2.739,0,1,1,2.739,0" fill="#f58518" stroke-width="2" opacity="0.7"/><path aria-label="Value: 2.67111691073; index: 4; Type: Raked" role="graphics-symbol" aria-roledescription="point" transform="translate(200.83442076255466,90)" d="M2.739,0A2.739,2.739,0,1,1,-2.739,0A2.739,2.739,0,1,1,2.739,0" fill="#f58518" stroke-width="2" opacity="0.7"/><path aria-label="Value: 1.96144571059; index: 5; Type: Raked" role="graphics-symbol" aria-roledescription="point" transform="translate(67.77107073561092,110)" d="M2.739,0A2.739,2.739,0,1,1,-2.739,0A2.739,2.739,0,1,1,2.739,0" fill="#f58518" stroke-width="2" opacity="0.7"/><path aria-label="Value: 2.12705348059; index: 6; Type: Raked" role="graphics-symbol" aria-roledescription="point" transform="translate(98.82252761055643,130)" d="M2.739,0A2.739,2.739,0,1,1,-2.739,0A2.739,2.739,0,1,1,2.739,0" fill="#f58518" stroke-width="2" opacity="0.7"/><path aria-label="Value: 2.63622690327; index: 7; Type: Raked" role="graphics-symbol" aria-roledescription="point" transform="translate(194.29254436298598,150)" d="M2.739,0A2.739,2.739,0,1,1,-2.739,0A2.739,2.739,0,1,1,2.739,0" fill="#f58518" stroke-width="2" opacity="0.7"/><path aria-label="Value: 2.86459406865; index: 8; Type: Raked" role="graphics-symbol" aria-roledescription="point" transform="translate(237.11138787177833,170)" d="M2.739,0A2.739,2.739,0,1,1,-2.739,0A2.739,2.739,0,1,1,2.739,0" fill="#f58518" stroke-width="2" opacity="0.7"/><path aria-label="Value: 2.07963056619; index: 9; Type: Raked" role="graphics-symbol" aria-roledescription="point" transform="translate(89.93073116082925,190)" d="M2.739,0A2.739,2.739,0,1,1,-2.739,0A2.739,2.739,0,1,1,2.739,0" fill="#f58518" stroke-width="2" opacity="0.7"/><path aria-label="Value: 2.55365089926; index: 10; Type: Raked" role="graphics-symbol" aria-roledescription="point" transform="translate(178.80954361118512,210)" d="M2.739,0A2.739,2.739,0,1,1,-2.739,0A2.739,2.739,0,1,1,2.739,0" fill="#f58518" stroke-width="2" opacity="0.7"/><path aria-label="Value: 1.96045681727; index: 11; Type: Raked" role="graphics-symbol" aria-roledescription="point" transform="translate(67.58565323848967,230)" d="M2.739,0A2.739,2.739,0,1,1,-2.739,0A2.739,2.739,0,1,1,2.739,0" fill="#f58518" stroke-width="2" opacity="0.7"/><path aria-label="Value: 2.73429586289; index: 12; Type: Raked" role="graphics-symbol" aria-roledescription="point" transform="translate(212.6804742912949,250)" d="M2.739,0A2.739,2.739,0,1,1,-2.739,0A2.739,2.739,0,1,1,2.739,0" fill="#f58518" stroke-width="2" opacity="0.7"/><path aria-label="Value: 2.94138245412; index: 13; Type: Raked" role="graphics-symbol" aria-roledescription="point" transform="translate(251.5092101481361,270)" d="M2.739,0A2.739,2.739,0,1,1,-2.739,0A2.739,2.739,0,1,1,2.739,0" fill="#f58518" stroke-width="2" opacity="0.7"/><path aria-label="Value: 2.80231854175; index: 14; Type: Raked" role="graphics-symbol" aria-roledescription="point" transform="translate(225.4347265772253,290)" d="M2.739,0A2.739,2.739,0,1,1,-2.739,0A2.739,2.739,0,1,1,2.739,0" fill="#f58518" stroke-width="2" opacity="0.7"/></g><g class="mark-rule role-mark layer_1_marks" clip-path="url(#clip10)" role="graphics-object" aria-roledescription="rule mark container"><line aria-label="Upper: 2.69831928988; index: 0; upper_Upper: 2.48156372649; Lower: 2.48156372649" role="graphics-symbol" aria-roledescription="errorbar" transform="translate(205.93486685228027,10)" x2="-40.64166813539927" y2="0" stroke="black" opacity="0.5"/><line aria-label="Upper: 3.04664456053; index: 1; upper_Upper: 2.80377174819; Lower: 2.80377174819" role="graphics-symbol" aria-roledescription="errorbar" transform="translate(271.24585509995194,30)" x2="-45.53865231345773" y2="0" stroke="black" opacity="0.5"/><line aria-label="Upper: 2.98543046411; index: 2; upper_Upper: 2.71541397764; Lower: 2.71541397764" role="graphics-symbol" aria-roledescription="errorbar" transform="translate(259.76821202030305,50)" x2="-50.628091213591546" y2="0" stroke="black" opacity="0.5"/><line aria-label="Upper: 2.39338084487; index: 3; upper_Upper: 2.09981601062; Lower: 2.09981601062" role="graphics-symbol" aria-roledescription="errorbar" transform="translate(148.75890841391265,70)" x2="-55.04340642214022" y2="0" stroke="black" opacity="0.5"/><line aria-label="Upper: 2.8285859857; index: 4; upper_Upper: 2.51364783576; Lower: 2.51364783576" role="graphics-symbol" aria-roledescription="errorbar" transform="translate(230.35987231920274,90)" x2="-59.05090311329613" y2="0" stroke="black" opacity="0.5"/><line aria-label="Upper: 2.12736585286; index: 5; upper_Upper: 1.79552556831; Lower: 1.79552556831" role="graphics-symbol" aria-roledescription="errorbar" transform="translate(98.88109741217227,110)" x2="-62.22005335312265" y2="0" stroke="black" opacity="0.5"/><line aria-label="Upper: 2.309747274; index: 6; upper_Upper: 1.94435968718; Lower: 1.94435968718" role="graphics-symbol" aria-roledescription="errorbar" transform="translate(133.07761387500278,130)" x2="-68.5101725288927" y2="0" stroke="black" opacity="0.5"/><line aria-label="Upper: 2.82821873018; index: 7; upper_Upper: 2.44423507636; Lower: 2.44423507636" role="graphics-symbol" aria-roledescription="errorbar" transform="translate(230.2910119089555,150)" x2="-71.99693509193906" y2="0" stroke="black" opacity="0.5"/><line aria-label="Upper: 3.06342030944; index: 8; upper_Upper: 2.66576782786; Lower: 2.66576782786" role="graphics-symbol" aria-roledescription="errorbar" transform="translate(274.39130802033674,170)" x2="-74.55984029711678" y2="0" stroke="black" opacity="0.5"/><line aria-label="Upper: 2.2960419997; index: 9; upper_Upper: 1.86321913269; Lower: 1.86321913269" role="graphics-symbol" aria-roledescription="errorbar" transform="translate(130.5078749429187,190)" x2="-81.1542875641789" y2="0" stroke="black" opacity="0.5"/><line aria-label="Upper: 2.77886803454; index: 10; upper_Upper: 2.32843376398; Lower: 2.32843376398" role="graphics-symbol" aria-roledescription="errorbar" transform="translate(221.03775647592994,210)" x2="-84.45642572948967" y2="0" stroke="black" opacity="0.5"/><line aria-label="Upper: 2.19390961519; index: 11; upper_Upper: 1.72700401936; Lower: 1.72700401936" role="graphics-symbol" aria-roledescription="errorbar" transform="translate(111.35805284748082,230)" x2="-87.54479921798226" y2="0" stroke="black" opacity="0.5"/><line aria-label="Upper: 2.9739282535; index: 12; upper_Upper: 2.49466347227; Lower: 2.49466347227" role="graphics-symbol" aria-roledescription="errorbar" transform="translate(257.61154753145973,250)" x2="-89.86214648032967" y2="0" stroke="black" opacity="0.5"/><line aria-label="Upper: 3.18999462322; index: 13; upper_Upper: 2.69277028503; Lower: 2.69277028503" role="graphics-symbol" aria-roledescription="errorbar" transform="translate(298.12399185397186,270)" x2="-93.22956341167159" y2="0" stroke="black" opacity="0.5"/><line aria-label="Upper: 3.05566704393; index: 14; upper_Upper: 2.54897003956; Lower: 2.54897003956" role="graphics-symbol" aria-roledescription="errorbar" transform="translate(272.9375707360191,290)" x2="-95.00568831758764" y2="0" stroke="black" opacity="0.5"/><line aria-label="Upper: 2.69831928988; index: 0; upper_Upper: 2.48156372649; Lower: 2.48156372649" role="graphics-symbol" aria-roledescription="errorbar" transform="translate(205.93486685228027,10)" x2="-40.64166813539927" y2="0" stroke="black" opacity="0.5"/><line aria-label="Upper: 3.04664456053; index: 1; upper_Upper: 2.80377174819; Lower: 2.80377174819" role="graphics-symbol" aria-roledescription="errorbar" transform="translate(271.24585509995194,30)" x2="-45.53865231345773" y2="0" stroke="black" opacity="0.5"/><line aria-label="Upper: 2.98543046411; index: 2; upper_Upper: 2.71541397764; Lower: 2.71541397764" role="graphics-symbol" aria-roledescription="errorbar" transform="translate(259.76821202030305,50)" x2="-50.628091213591546" y2="0" stroke="black" opacity="0.5"/><line aria-label="Upper: 2.39338084487; index: 3; upper_Upper: 2.09981601062; Lower: 2.09981601062" role="graphics-symbol" aria-roledescription="errorbar" transform="translate(148.75890841391265,70)" x2="-55.04340642214022" y2="0" stroke="black" opacity="0.5"/><line aria-label="Upper: 2.8285859857; index: 4; upper_Upper: 2.51364783576; Lower: 2.51364783576" role="graphics-symbol" aria-roledescription="errorbar" transform="translate(230.35987231920274,90)" x2="-59.05090311329613" y2="0" stroke="black" opacity="0.5"/><line aria-label="Upper: 2.12736585286; index: 5; upper_Upper: 1.79552556831; Lower: 1.79552556831" role="graphics-symbol" aria-roledescription="errorbar" transform="translate(98.88109741217227,110)" x2="-62.22005335312265" y2="0" stroke="black" opacity="0.5"/><line aria-label="Upper: 2.309747274; index: 6; upper_Upper: 1.94435968718; Lower: 1.94435968718" role="graphics-symbol" aria-roledescription="errorbar" transform="translate(133.07761387500278,130)" x2="-68.5101725288927" y2="0" stroke="black" opacity="0.5"/><line aria-label="Upper: 2.82821873018; index: 7; upper_Upper: 2.44423507636; Lower: 2.44423507636" role="graphics-symbol" aria-roledescription="errorbar" transform="translate(230.2910119089555,150)" x2="-71.99693509193906" y2="0" stroke="black" opacity="0.5"/><line aria-label="Upper: 3.06342030944; index: 8; upper_Upper: 2.66576782786; Lower: 2.66576782786" role="graphics-symbol" aria-roledescription="errorbar" transform="translate(274.39130802033674,170)" x2="-74.55984029711678" y2="0" stroke="black" opacity="0.5"/><line aria-label="Upper: 2.2960419997; index: 9; upper_Upper: 1.86321913269; Lower: 1.86321913269" role="graphics-symbol" aria-roledescription="errorbar" transform="translate(130.5078749429187,190)" x2="-81.1542875641789" y2="0" stroke="black" opacity="0.5"/><line aria-label="Upper: 2.77886803454; index: 10; upper_Upper: 2.32843376398; Lower: 2.32843376398" role="graphics-symbol" aria-roledescription="errorbar" transform="translate(221.03775647592994,210)" x2="-84.45642572948967" y2="0" stroke="black" opacity="0.5"/><line aria-label="Upper: 2.19390961519; index: 11; upper_Upper: 1.72700401936; Lower: 1.72700401936" role="graphics-symbol" aria-roledescription="errorbar" transform="translate(111.35805284748082,230)" x2="-87.54479921798226" y2="0" stroke="black" opacity="0.5"/><line aria-label="Upper: 2.9739282535; index: 12; upper_Upper: 2.49466347227; Lower: 2.49466347227" role="graphics-symbol" aria-roledescription="errorbar" transform="translate(257.61154753145973,250)" x2="-89.86214648032967" y2="0" stroke="black" opacity="0.5"/><line aria-label="Upper: 3.18999462322; index: 13; upper_Upper: 2.69277028503; Lower: 2.69277028503" role="graphics-symbol" aria-roledescription="errorbar" transform="translate(298.12399185397186,270)" x2="-93.22956341167159" y2="0" stroke="black" opacity="0.5"/><line aria-label="Upper: 3.05566704393; index: 14; upper_Upper: 2.54897003956; Lower: 2.54897003956" role="graphics-symbol" aria-roledescription="errorbar" transform="translate(272.9375707360191,290)" x2="-95.00568831758764" y2="0" stroke="black" opacity="0.5"/></g><g class="mark-group role-legend" role="graphics-symbol" aria-roledescription="legend" aria-label="Symbol legend for fill color with 2 values: Original, Raked"><g transform="translate(318,0)"><path class="background" aria-hidden="true" d="M0,0h85v38h-85Z" pointer-events="none"/><g><g class="mark-group role-legend-entry"><g transform="translate(0,0)"><path class="background" aria-hidden="true" d="M0,0h0v0h0Z" pointer-events="none"/><g><g class="mark-group role-scope" role="graphics-object" aria-roledescription="group mark container"><g transform="translate(0,0)"><path class="background" aria-hidden="true" d="M0,0h84.0244140625v18h-84.0244140625Z" pointer-events="none" opacity="1"/><g><g class="mark-symbol role-legend-symbol" pointer-events="none"><path transform="translate(9,9)" d="M5,0A5,5,0,1,1,-5,0A5,5,0,1,1,5,0" fill="#4c78a8" stroke-width="1.5" opacity="0.7"/></g><g class="mark-text role-legend-label" pointer-events="none"><text text-anchor="start" transform="translate(22,14)" font-family="sans-serif" font-size="18px" fill="#000" opacity="1">Original</text></g></g><path class="foreground" aria-hidden="true" d="" pointer-events="none" display="none"/></g><g transform="translate(0,20)"><path class="background" aria-hidden="true" d="M0,0h84.0244140625v18h-84.0244140625Z" pointer-events="none" opacity="1"/><g><g class="mark-symbol role-legend-symbol" pointer-events="none"><path transform="translate(9,9)" d="M5,0A5,5,0,1,1,-5,0A5,5,0,1,1,5,0" fill="#f58518" stroke-width="1.5" opacity="0.7"/></g><g class="mark-text role-legend-label" pointer-events="none"><text text-anchor="start" transform="translate(22,14)" font-family="sans-serif" font-size="18px" fill="#000" opacity="1">Raked</text></g></g><path class="foreground" aria-hidden="true" d="" pointer-events="none" display="none"/></g></g></g><path class="foreground" aria-hidden="true" d="" pointer-events="none" display="none"/></g></g></g><path class="foreground" aria-hidden="true" d="" pointer-events="none" display="none"/></g></g></g><path class="foreground" aria-hidden="true" d="" display="none"/></g></g></g><defs><clipPath id="clip10"><rect x="0" y="0" width="300" height="300"/></clipPath></defs></svg>