<svg xmlns="http://www.w3.org/2000/svg" xmlns:xlink="http://www.w3.org/1999/xlink" version="1.1" class="marks" width="1353" height="249" viewBox="0 0 1353 249"><rect width="1353" height="249" fill="white"/><g fill="none" stroke-miterlimit="10" transform="translate(55,84)"><g class="mark-group role-frame root" role="graphics-object" aria-roledescription="group mark container"><g transform="translate(0,0)"><path class="background" aria-hidden="true" d="M0,0h0v0h0Z"/><g><g class="mark-group role-column-title column-title" role="graphics-object" aria-roledescription="group mark container"><g transform="translate(646,-45)"><path class="background" aria-hidden="true" d="M0,0h0v0h0Z"/><g><g class="mark-group role-title"><g transform="translate(0,-34)"><path class="background" aria-hidden="true" d="M0,0h0v0h0Z" pointer-events="none"/><g><g class="mark-text role-title-text" role="graphics-symbol" aria-roledescription="title" aria-label="Title text 'X1'" pointer-events="none"><text text-anchor="middle" transform="translate(0,19)" font-family="sans-serif" font-size="24px" font-weight="bold" fill="#000" opacity="1">X1</text></g></g><path class="foreground" aria-hidden="true" d="" pointer-events="none" display="none"/></g></g></g><path class="foreground" aria-hidden="true" d="" display="none"/></g></g><g class="mark-group role-row-header row_header" role="graphics-object" aria-roledescription="group mark container"><g transform="translate(-1,0)"><path class="background" aria-hidden="true" d="M0,0h0v100h0Z"/><g><g class="mark-group role-axis" role="graphics-symbol" aria-roledescription="axis" aria-label="Y-axis titled 'X2' for a discrete scale with 5 values: 1, 2, 3, 4, 5"><g transform="translate(0.5,0.5)"><path class="background" aria-hidden="true" d="M0,0h0v0h0Z" pointer-events="none"/><g><g class="mark-rule role-axis-tick" pointer-events="none"><line transform="translate(0,10)" x2="-5" y2="0" stroke="#888" stroke-width="1" opacity="1"/><line transform="translate(0,30)" x2="-5" y2="0" stroke="#888" stroke-width="1" opacity="1"/><line transform="translate(0,50)" x2="-5" y2="0" stroke="#888" stroke-width="1" opacity="1"/><line transform="translate(0,70)" x2="-5" y2="0" stroke="#888" stroke-width="1" opacity="1"/><line transform="translate(0,90)" x2="-5" y2="0" stroke="#888" stroke-width="1" opacity="1"/></g><g class="mark-text role-axis-label" pointer-events="none"><text text-anchor="end" transform="translate(-7,16.5)" font-family="sans-serif" font-size="24px" fill="#000" opacity="1">1</text><text text-anchor="end" transform="translate(-7,36.5)" font-family="sans-serif" font-size="24px" fill="#000" opacity="1">2</text><text text-anchor="end" transform="translate(-7,56.5)" font-family="sans-serif" font-size="24px" fill="#000" opacity="1">3</text><text text-anchor="end" transform="translate(-7,76.5)" font-family="sans-serif" font-size="24px" fill="#000" opacity="1">4</text><text text-anchor="end" transform="translate(-7,96.5)" font-family="sans-serif" font-size="24px" fill="#000" opacity="1">5</text></g><g class="mark-rule role-axis-domain" pointer-events="none"><line transform="translate(0,0)" x2="0" y2="100" stroke="#888" stroke-width="1" opacity="1"/></g><g class="mark-text role-axis-title" pointer-events="none"><text text-anchor="middle" transform="translate(-24.34765625,50) rotate(-90) translate(0,-5)" font-family="sans-serif" font-size="24px" font-weight="bold" fill="#000" opacity="1">X2</text></g></g><path class="foreground" aria-hidden="true" d="" pointer-events="none" display="none"/></g></g></g><path class="foreground" aria-hidden="true" d="" display="none"/></g></g><g class="mark-group role-column-header column_header" role="graphics-object" aria-roledescription="group mark container"><g transform="translate(0,-1)"><path class="background" aria-hidden="true" d="M0,0h300v0h-300Z"/><g><g class="mark-group role-title"><g transform="translate(150,-34)"><path class="background" aria-hidden="true" d="M0,0h0v0h0Z" pointer-events="none"/><g><g class="mark-text role-title-text" role="graphics-symbol" aria-roledescription="title" aria-label="Title text '1'" pointer-events="none"><text text-anchor="middle" transform="translate(0,19)" font-family="sans-serif" font-size="24px" fill="#000" opacity="1">1</text></g></g><path class="foreground" aria-hidden="true" d="" pointer-events="none" display="none"/></g></g></g><path class="foreground" aria-hidden="true" d="" display="none"/></g><g transform="translate(438,-1)"><path class="background" aria-hidden="true" d="M0,0h300v0h-300Z"/><g><g class="mark-group role-title"><g transform="translate(150,-34)"><path class="background" aria-hidden="true" d="M0,0h0v0h0Z" pointer-events="none"/><g><g class="mark-text role-title-text" role="graphics-symbol" aria-roledescription="title" aria-label="Title text '2'" pointer-events="none"><text text-anchor="middle" transform="translate(0,19)" font-family="sans-serif" font-size="24px" fill="#000" opacity="1">2</text></g></g><path class="foreground" aria-hidden="true" d="" pointer-events="none" display="none"/></g></g></g><path class="foreground" aria-hidden="true" d="" display="none"/></g><g transform="translate(876,-1)"><path class="background" aria-hidden="true" d="M0,0h300v0h-300Z"/><g><g class="mark-group role-title"><g transform="translate(150,-34)"><path class="background" aria-hidden="true" d="M0,0h0v0h0Z" pointer-events="none"/><g><g class="mark-text role-title-text" role="graphics-symbol" aria-roledescription="title" aria-label="Title text '3'" pointer-events="none"><text text-anchor="middle" transform="translate(0,19)" font-family="sans-serif" font-size="24px" fill="#000" opacity="1">3</text></g></g><path class="foreground" aria-hidden="true" d="" pointer-events="none" display="none"/></g></g></g><path class="foreground" aria-hidden="true" d="" display="none"/></g></g><g class="mark-group role-column-footer column_footer" role="graphics-object" aria-roledescription="group mark container"><g transform="translate(0,101)"><path class="background" aria-hidden="true" d="M0,0h300v0h-300Z"/><g><g class="mark-group role-axis" role="graphics-symbol" aria-roledescription="axis" aria-label="X-axis titled 'Raked value' for a linear scale with values from 1.6 to 3.4"><g transform="translate(0.5,0.5)"><path class="background" aria-hidden="true" d="M0,0h0v0h0Z" pointer-events="none"/><g><g class="mark-rule role-axis-tick" pointer-events="none"><line transform="translate(0,0)" x2="0" y2="5" stroke="#888" stroke-width="1" opacity="1"/><line transform="translate(33,0)" x2="0" y2="5" stroke="#888" stroke-width="1" opacity="1"/><line transform="translate(67,0)" x2="0" y2="5" stroke="#888" stroke-width="1" opacity="1"/><line transform="translate(100,0)" x2="0" y2="5" stroke="#888" stroke-width="1" opacity="1"/><line transform="translate(133,0)" x2="0" y2="5" stroke="#888" stroke-width="1" opacity="1"/><line transform="translate(167,0)" x2="0" y2="5" stroke="#888" stroke-width="1" opacity="1"/><line transform="translate(200,0)" x2="0" y2="5" stroke="#888" stroke-width="1" opacity="1"/><line transform="translate(233,0)" x2="0" y2="5" stroke="#888" stroke-width="1" opacity="1"/><line transform="translate(267,0)" x2="0" y2="5" stroke="#888" stroke-width="1" opacity="1"/><line transform="translate(300,0)" x2="0" y2="5" stroke="#888" stroke-width="1" opacity="1"/></g><g class="mark-text role-axis-label" pointer-events="none"><text text-anchor="start" transform="translate(0,26)" font-family="sans-serif" font-size="24px" fill="#000" opacity="1">1.6</text><text text-anchor="middle" transform="translate(33.33333333333333,26)" font-family="sans-serif" font-size="24px" fill="#000" opacity="0">1.8</text><text text-anchor="middle" transform="translate(66.66666666666666,26)" font-family="sans-serif" font-size="24px" fill="#000" opacity="1">2.0</text><text text-anchor="middle" transform="translate(100.00000000000003,26)" font-family="sans-serif" font-size="24px" fill="#000" opacity="0">2.2</text><text text-anchor="middle" transform="translate(133.33333333333331,26)" font-family="sans-serif" font-size="24px" fill="#000" opacity="1">2.4</text><text text-anchor="middle" transform="translate(166.66666666666669,26)" font-family="sans-serif" font-size="24px" fill="#000" opacity="0">2.6</text><text text-anchor="middle" transform="translate(200,26)" font-family="sans-serif" font-size="24px" fill="#000" opacity="1">2.8</text><text text-anchor="middle" transform="translate(233.33333333333334,26)" font-family="sans-serif" font-size="24px" fill="#000" opacity="0">3.0</text><text text-anchor="middle" transform="translate(266.66666666666674,26)" font-family="sans-serif" font-size="24px" fill="#000" opacity="1">3.2</text><text text-anchor="end" transform="translate(300,26)" font-family="sans-serif" font-size="24px" fill="#000" opacity="0">3.4</text></g><g class="mark-rule role-axis-domain" pointer-events="none"><line transform="translate(0,0)" x2="300" y2="0" stroke="#888" stroke-width="1" opacity="1"/></g><g class="mark-text role-axis-title" pointer-events="none"><text text-anchor="middle" transform="translate(150,54)" font-family="sans-serif" font-size="24px" font-weight="bold" fill="#000" opacity="1">Raked value</text></g></g><path class="foreground" aria-hidden="true" d="" pointer-events="none" display="none"/></g></g></g><path class="foreground" aria-hidden="true" d="" display="none"/></g><g transform="translate(438,101)"><path class="background" aria-hidden="true" d="M0,0h300v0h-300Z"/><g><g class="mark-group role-axis" role="graphics-symbol" aria-roledescription="axis" aria-label="X-axis titled 'Raked value' for a linear scale with values from 1.6 to 3.4"><g transform="translate(0.5,0.5)"><path class="background" aria-hidden="true" d="M0,0h0v0h0Z" pointer-events="none"/><g><g class="mark-rule role-axis-tick" pointer-events="none"><line transform="translate(0,0)" x2="0" y2="5" stroke="#888" stroke-width="1" opacity="1"/><line transform="translate(33,0)" x2="0" y2="5" stroke="#888" stroke-width="1" opacity="1"/><line transform="translate(67,0)" x2="0" y2="5" stroke="#888" stroke-width="1" opacity="1"/><line transform="translate(100,0)" x2="0" y2="5" stroke="#888" stroke-width="1" opacity="1"/><line transform="translate(133,0)" x2="0" y2="5" stroke="#888" stroke-width="1" opacity="1"/><line transform="translate(167,0)" x2="0" y2="5" stroke="#888" stroke-width="1" opacity="1"/><line transform="translate(200,0)" x2="0" y2="5" stroke="#888" stroke-width="1" opacity="1"/><line transform="translate(233,0)" x2="0" y2="5" stroke="#888" stroke-width="1" opacity="1"/><line transform="translate(267,0)" x2="0" y2="5" stroke="#888" stroke-width="1" opacity="1"/><line transform="translate(300,0)" x2="0" y2="5" stroke="#888" stroke-width="1" opacity="1"/></g><g class="mark-text role-axis-label" pointer-events="none"><text text-anchor="start" transform="translate(0,26)" font-family="sans-serif" font-size="24px" fill="#000" opacity="1">1.6</text><text text-anchor="middle" transform="translate(33.33333333333333,26)" font-family="sans-serif" font-size="24px" fill="#000" opacity="0">1.8</text><text text-anchor="middle" transform="translate(66.66666666666666,26)" font-family="sans-serif" font-size="24px" fill="#000" opacity="1">2.0</text><text text-anchor="middle" transform="translate(100.00000000000003,26)" font-family="sans-serif" font-size="24px" fill="#000" opacity="0">2.2</text><text text-anchor="middle" transform="translate(133.33333333333331,26)" font-family="sans-serif" font-size="24px" fill="#000" opacity="1">2.4</text><text text-anchor="middle" transform="translate(166.66666666666669,26)" font-family="sans-serif" font-size="24px" fill="#000" opacity="0">2.6</text><text text-anchor="middle" transform="translate(200,26)" font-family="sans-serif" font-size="24px" fill="#000" opacity="1">2.8</text><text text-anchor="middle" transform="translate(233.33333333333334,26)" font-family="sans-serif" font-size="24px" fill="#000" opacity="0">3.0</text><text text-anchor="middle" transform="translate(266.66666666666674,26)" font-family="sans-serif" font-size="24px" fill="#000" opacity="1">3.2</text><text text-anchor="end" transform="translate(300,26)" font-family="sans-serif" font-size="24px" fill="#000" opacity="0">3.4</text></g><g class="mark-rule role-axis-domain" pointer-events="none"><line transform="translate(0,0)" x2="300" y2="0" stroke="#888" stroke-width="1" opacity="1"/></g><g class="mark-text role-axis-title" pointer-events="none"><text text-anchor="middle" transform="translate(150,54)" font-family="sans-serif" font-size="24px" font-weight="bold" fill="#000" opacity="1">Raked value</text></g></g><path class="foreground" aria-hidden="true" d="" pointer-events="none" display="none"/></g></g></g><path class="foreground" aria-hidden="true" d="" display="none"/></g><g transform="translate(876,101)"><path class="background" aria-hidden="true" d="M0,0h300v0h-300Z"/><g><g class="mark-group role-axis" role="graphics-symbol" aria-roledescription="axis" aria-label="X-axis titled 'Raked value' for a linear scale with values from 1.6 to 3.4"><g transform="translate(0.5,0.5)"><path class="background" aria-hidden="true" d="M0,0h0v0h0Z" pointer-events="none"/><g><g class="mark-rule role-axis-tick" pointer-events="none"><line transform="translate(0,0)" x2="0" y2="5" stroke="#888" stroke-width="1" opacity="1"/><line transform="translate(33,0)" x2="0" y2="5" stroke="#888" stroke-width="1" opacity="1"/><line transform="translate(67,0)" x2="0" y2="5" stroke="#888" stroke-width="1" opacity="1"/><line transform="translate(100,0)" x2="0" y2="5" stroke="#888" stroke-width="1" opacity="1"/><line transform="translate(133,0)" x2="0" y2="5" stroke="#888" stroke-width="1" opacity="1"/><line transform="translate(167,0)" x2="0" y2="5" stroke="#888" stroke-width="1" opacity="1"/><line transform="translate(200,0)" x2="0" y2="5" stroke="#888" stroke-width="1" opacity="1"/><line transform="translate(233,0)" x2="0" y2="5" stroke="#888" stroke-width="1" opacity="1"/><line transform="translate(267,0)" x2="0" y2="5" stroke="#888" stroke-width="1" opacity="1"/><line transform="translate(300,0)" x2="0" y2="5" stroke="#888" stroke-width="1" opacity="1"/></g><g class="mark-text role-axis-label" pointer-events="none"><text text-anchor="start" transform="translate(0,26)" font-family="sans-serif" font-size="24px" fill="#000" opacity="1">1.6</text><text text-anchor="middle" transform="translate(33.33333333333333,26)" font-family="sans-serif" font-size="24px" fill="#000" opacity="0">1.8</text><text text-anchor="middle" transform="translate(66.66666666666666,26)" font-family="sans-serif" font-size="24px" fill="#000" opacity="1">2.0</text><text text-anchor="middle" transform="translate(100.00000000000003,26)" font-family="sans-serif" font-size="24px" fill="#000" opacity="0">2.2</text><text text-anchor="middle" transform="translate(133.33333333333331,26)" font-family="sans-serif" font-size="24px" fill="#000" opacity="1">2.4</text><text text-anchor="middle" transform="translate(166.66666666666669,26)" font-family="sans-serif" font-size="24px" fill="#000" opacity="0">2.6</text><text text-anchor="middle" transform="translate(200,26)" font-family="sans-serif" font-size="24px" fill="#000" opacity="1">2.8</text><text text-anchor="middle" transform="translate(233.33333333333334,26)" font-family="sans-serif" font-size="24px" fill="#000" opacity="0">3.0</text><text text-anchor="middle" transform="translate(266.66666666666674,26)" font-family="sans-serif" font-size="24px" fill="#000" opacity="1">3.2</text><text text-anchor="end" transform="translate(300,26)" font-family="sans-serif" font-size="24px" fill="#000" opacity="0">3.4</text></g><g class="mark-rule role-axis-domain" pointer-events="none"><line transform="translate(0,0)" x2="300" y2="0" stroke="#888" stroke-width="1" opacity="1"/></g><g class="mark-text role-axis-title" pointer-events="none"><text text-anchor="middle" transform="translate(150,54)" font-family="sans-serif" font-size="24px" font-weight="bold" fill="#000" opacity="1">Raked value</text></g></g><path class="foreground" aria-hidden="true" d="" pointer-events="none" display="none"/></g></g></g><path class="foreground" aria-hidden="true" d="" display="none"/></g></g><g class="mark-group role-scope cell" role="graphics-object" aria-roledescription="group mark container"><g transform="translate(0,0)"><path class="background" aria-hidden="true" d="M0.5,0.5h300v100h-300Z" stroke="#ddd"/><g><g class="mark-group role-axis" aria-hidden="true"><g transform="translate(0.5,100.5)"><path class="background" aria-hidden="true" d="M0,0h0v0h0Z" pointer-events="none"/><g><g class="mark-rule role-axis-grid" pointer-events="none"><line transform="translate(0,0)" x2="0" y2="-100" stroke="#ddd" stroke-width="1" opacity="1"/><line transform="translate(33,0)" x2="0" y2="-100" stroke="#ddd" stroke-width="1" opacity="1"/><line transform="translate(67,0)" x2="0" y2="-100" stroke="#ddd" stroke-width="1" opacity="1"/><line transform="translate(100,0)" x2="0" y2="-100" stroke="#ddd" stroke-width="1" opacity="1"/><line transform="translate(133,0)" x2="0" y2="-100" stroke="#ddd" stroke-width="1" opacity="1"/><line transform="translate(167,0)" x2="0" y2="-100" stroke="#ddd" stroke-width="1" opacity="1"/><line transform="translate(200,0)" x2="0" y2="-100" stroke="#ddd" stroke-width="1" opacity="1"/><line transform="translate(233,0)" x2="0" y2="-100" stroke="#ddd" stroke-width="1" opacity="1"/><line transform="translate(267,0)" x2="0" y2="-100" stroke="#ddd" stroke-width="1" opacity="1"/><line transform="translate(300,0)" x2="0" y2="-100" stroke="#ddd" stroke-width="1" opacity="1"/></g></g><path class="foreground" aria-hidden="true" d="" pointer-events="none" display="none"/></g></g><g class="mark-symbol role-mark child_layer_0_marks" role="graphics-object" aria-roledescription="symbol mark container"><path aria-label="Value: 2.56373495185; X2: 1; Type: Initial" role="graphics-symbol" aria-roledescription="point" transform="translate(160.62249197518486,10)" d="M2.739,0A2.739,2.739,0,1,1,-2.739,0A2.739,2.739,0,1,1,2.739,0" fill="#4c78a8" stroke-width="2" opacity="0.7"/><path aria-label="Value: 2.3109497674; X2: 2; Type: Initial" role="graphics-symbol" aria-roledescription="point" transform="translate(118.49162790021389,30)" d="M2.739,0A2.739,2.739,0,1,1,-2.739,0A2.739,2.739,0,1,1,2.739,0" fill="#4c78a8" stroke-width="2" opacity="0.7"/><path aria-label="Value: 2.17761987099; X2: 3; Type: Initial" role="graphics-symbol" aria-roledescription="point" transform="translate(96.26997849852718,50)" d="M2.739,0A2.739,2.739,0,1,1,-2.739,0A2.739,2.739,0,1,1,2.739,0" fill="#4c78a8" stroke-width="2" opacity="0.7"/><path aria-label="Value: 2.10687465369; X2: 4; Type: Initial" role="graphics-symbol" aria-roledescription="point" transform="translate(84.47910894895169,70)" d="M2.739,0A2.739,2.739,0,1,1,-2.739,0A2.739,2.739,0,1,1,2.739,0" fill="#4c78a8" stroke-width="2" opacity="0.7"/><path aria-label="Value: 2.72109770157; X2: 5; Type: Initial" role="graphics-symbol" aria-roledescription="point" transform="translate(186.84961692907171,90)" d="M2.739,0A2.739,2.739,0,1,1,-2.739,0A2.739,2.739,0,1,1,2.739,0" fill="#4c78a8" stroke-width="2" opacity="0.7"/><path aria-label="Value: 2.58994150818; X2: 1; Type: Raked" role="graphics-symbol" aria-roledescription="point" transform="translate(164.9902513640717,10)" d="M-2.739,-2.739h5.477v5.477h-5.477Z" fill="#f58518" stroke-width="2" opacity="0.7"/><path aria-label="Value: 2.24659842775; X2: 2; Type: Raked" role="graphics-symbol" aria-roledescription="point" transform="translate(107.766404624749,30)" d="M-2.739,-2.739h5.477v5.477h-5.477Z" fill="#f58518" stroke-width="2" opacity="0.7"/><path aria-label="Value: 2.12705348059; X2: 3; Type: Raked" role="graphics-symbol" aria-roledescription="point" transform="translate(87.84224676493913,50)" d="M-2.739,-2.739h5.477v5.477h-5.477Z" fill="#f58518" stroke-width="2" opacity="0.7"/><path aria-label="Value: 2.07963056619; X2: 4; Type: Raked" role="graphics-symbol" aria-roledescription="point" transform="translate(79.93842769851499,70)" d="M-2.739,-2.739h5.477v5.477h-5.477Z" fill="#f58518" stroke-width="2" opacity="0.7"/><path aria-label="Value: 2.73429586289; X2: 5; Type: Raked" role="graphics-symbol" aria-roledescription="point" transform="translate(189.04931048115105,90)" d="M-2.739,-2.739h5.477v5.477h-5.477Z" fill="#f58518" stroke-width="2" opacity="0.7"/></g><g class="mark-rule role-mark child_layer_1_marks" clip-path="url(#clip6)" role="graphics-object" aria-roledescription="rule mark container"><line aria-label="Upper: 2.66373495185; X2: 1; upper_Upper: 2.46373495185; Type: Initial; width: 1; Lower: 2.46373495185" role="graphics-symbol" aria-roledescription="errorbar" transform="translate(177.28915864185154,10)" x2="-33.33333333333334" y2="0" stroke="#4c78a8" stroke-width="1" opacity="0.5"/><line aria-label="Upper: 2.5109497674; X2: 2; upper_Upper: 2.1109497674; Type: Initial; width: 1; Lower: 2.1109497674" role="graphics-symbol" aria-roledescription="errorbar" transform="translate(151.82496123354724,30)" x2="-66.66666666666671" y2="0" stroke="#4c78a8" stroke-width="1" opacity="0.5"/><line aria-label="Upper: 2.4421950021; X2: 3; upper_Upper: 1.91304473988; Type: Initial; width: 1; Lower: 1.91304473988" role="graphics-symbol" aria-roledescription="errorbar" transform="translate(140.36583368293705,50)" x2="-88.19171036881971" y2="0" stroke="#4c78a8" stroke-width="1" opacity="0.5"/><line aria-label="Upper: 2.42310241971; X2: 4; upper_Upper: 1.79064688768; Type: Initial; width: 1; Lower: 1.79064688768" role="graphics-symbol" aria-roledescription="errorbar" transform="translate(137.1837366184247,70)" x2="-105.409255338946" y2="0" stroke="#4c78a8" stroke-width="1" opacity="0.5"/><line aria-label="Upper: 3.08165282912; X2: 5; upper_Upper: 2.36054257403; Type: Initial; width: 1; Lower: 2.36054257403" role="graphics-symbol" aria-roledescription="errorbar" transform="translate(246.9421381868049,90)" x2="-120.18504251546632" y2="0" stroke="#4c78a8" stroke-width="1" opacity="0.5"/><line aria-label="Upper: 2.69831928988; X2: 1; upper_Upper: 2.48156372649; Type: Raked; width: 2; Lower: 2.48156372649" role="graphics-symbol" aria-roledescription="errorbar" transform="translate(183.0532149798047,10)" x2="-36.12592723146602" y2="0" stroke="#f58518" stroke-width="4" opacity="0.5"/><line aria-label="Upper: 2.39338084487; X2: 2; upper_Upper: 2.09981601062; Type: Raked; width: 2; Lower: 2.09981601062" role="graphics-symbol" aria-roledescription="errorbar" transform="translate(132.2301408123669,30)" x2="-48.927472375235766" y2="0" stroke="#f58518" stroke-width="4" opacity="0.5"/><line aria-label="Upper: 2.309747274; X2: 3; upper_Upper: 1.94435968718; Type: Raked; width: 2; Lower: 1.94435968718" role="graphics-symbol" aria-roledescription="errorbar" transform="translate(118.29121233333588,50)" x2="-60.8979311367935" y2="0" stroke="#f58518" stroke-width="4" opacity="0.5"/><line aria-label="Upper: 2.2960419997; X2: 4; upper_Upper: 1.86321913269; Type: Raked; width: 2; Lower: 1.86321913269" role="graphics-symbol" aria-roledescription="errorbar" transform="translate(116.00699994926116,70)" x2="-72.13714450149237" y2="0" stroke="#f58518" stroke-width="4" opacity="0.5"/><line aria-label="Upper: 2.9739282535; X2: 5; upper_Upper: 2.49466347227; Type: Raked; width: 2; Lower: 2.49466347227" role="graphics-symbol" aria-roledescription="errorbar" transform="translate(228.98804225018645,90)" x2="-79.8774635380708" y2="0" stroke="#f58518" stroke-width="4" opacity="0.5"/></g><g class="mark-group role-legend" role="graphics-symbol" aria-roledescription="legend" aria-label="Symbol legend titled 'Type' for shape and fill color with 2 values: Initial, Raked"><g transform="translate(318,0)"><path class="background" aria-hidden="true" d="M0,0h98v79h-98Z" pointer-events="none"/><g><g class="mark-group role-legend-entry"><g transform="translate(0,29)"><path class="background" aria-hidden="true" d="M0,0h0v0h0Z" pointer-events="none"/><g><g class="mark-group role-scope" role="graphics-object" aria-roledescription="group mark container"><g transform="translate(0,0)"><path class="background" aria-hidden="true" d="M0,0h97.375v24h-97.375Z" pointer-events="none" opacity="1"/><g><g class="mark-symbol role-legend-symbol" pointer-events="none"><path transform="translate(12,12)" d="M5,0A5,5,0,1,1,-5,0A5,5,0,1,1,5,0" fill="#4c78a8" stroke-width="1.5" opacity="0.7"/></g><g class="mark-text role-legend-label" pointer-events="none"><text text-anchor="start" transform="translate(28,19)" font-family="sans-serif" font-size="24px" fill="#000" opacity="1">Initial</text></g></g><path class="foreground" aria-hidden="true" d="" pointer-events="none" display="none"/></g><g transform="translate(0,26)"><path class="background" aria-hidden="true" d="M0,0h97.375v24h-97.375Z" pointer-events="none" opacity="1"/><g><g class="mark-symbol role-legend-symbol" pointer-events="none"><path transform="translate(12,12)" d="M-5,-5h10v10h-10Z" fill="#f58518" stroke-width="1.5" opacity="0.7"/></g><g class="mark-text role-legend-label" pointer-events="none"><text text-anchor="start" transform="translate(28,19)" font-family="sans-serif" font-size="24px" fill="#000" opacity="1">Raked</text></g></g><path class="foreground" aria-hidden="true" d="" pointer-events="none" display="none"/></g></g></g><path class="foreground" aria-hidden="true" d="" pointer-events="none" display="none"/></g></g><g class="mark-text role-legend-title" pointer-events="none"><text text-anchor="start" transform="translate(0,19)" font-family="sans-serif" font-size="24px" font-weight="bold" fill="#000" opacity="1">Type</text></g></g><path class="foreground" aria-hidden="true" d="" pointer-events="none" display="none"/></g></g></g><path class="foreground" aria-hidden="true" d="" display="none"/></g><g transform="translate(438,0)"><path class="background" aria-hidden="true" d="M0.5,0.5h300v100h-300Z" stroke="#ddd"/><g><g class="mark-group role-axis" aria-hidden="true"><g transform="translate(0.5,100.5)"><path class="background" aria-hidden="true" d="M0,0h0v0h0Z" pointer-events="none"/><g><g class="mark-rule role-axis-grid" pointer-events="none"><line transform="translate(0,0)" x2="0" y2="-100" stroke="#ddd" stroke-width="1" opacity="1"/><line transform="translate(33,0)" x2="0" y2="-100" stroke="#ddd" stroke-width="1" opacity="1"/><line transform="translate(67,0)" x2="0" y2="-100" stroke="#ddd" stroke-width="1" opacity="1"/><line transform="translate(100,0)" x2="0" y2="-100" stroke="#ddd" stroke-width="1" opacity="1"/><line transform="translate(133,0)" x2="0" y2="-100" stroke="#ddd" stroke-width="1" opacity="1"/><line transform="translate(167,0)" x2="0" y2="-100" stroke="#ddd" stroke-width="1" opacity="1"/><line transform="translate(200,0)" x2="0" y2="-100" stroke="#ddd" stroke-width="1" opacity="1"/><line transform="translate(233,0)" x2="0" y2="-100" stroke="#ddd" stroke-width="1" opacity="1"/><line transform="translate(267,0)" x2="0" y2="-100" stroke="#ddd" stroke-width="1" opacity="1"/><line transform="translate(300,0)" x2="0" y2="-100" stroke="#ddd" stroke-width="1" opacity="1"/></g></g><path class="foreground" aria-hidden="true" d="" pointer-events="none" display="none"/></g></g><g class="mark-symbol role-mark child_layer_0_marks" role="graphics-object" aria-roledescription="symbol mark container"><path aria-label="Value: 2.85832967899; X2: 1; Type: Initial" role="graphics-symbol" aria-roledescription="point" transform="translate(209.72161316533183,10)" d="M2.739,0A2.739,2.739,0,1,1,-2.739,0A2.739,2.739,0,1,1,2.739,0" fill="#4c78a8" stroke-width="2" opacity="0.7"/><path aria-label="Value: 2.71088711271; X2: 2; Type: Initial" role="graphics-symbol" aria-roledescription="point" transform="translate(185.14785211857463,30)" d="M2.739,0A2.739,2.739,0,1,1,-2.739,0A2.739,2.739,0,1,1,2.739,0" fill="#4c78a8" stroke-width="2" opacity="0.7"/><path aria-label="Value: 2.66297709364; X2: 3; Type: Initial" role="graphics-symbol" aria-roledescription="point" transform="translate(177.16284893922284,50)" d="M2.739,0A2.739,2.739,0,1,1,-2.739,0A2.739,2.739,0,1,1,2.739,0" fill="#4c78a8" stroke-width="2" opacity="0.7"/><path aria-label="Value: 2.55302622124; X2: 4; Type: Initial" role="graphics-symbol" aria-roledescription="point" transform="translate(158.83770354025174,70)" d="M2.739,0A2.739,2.739,0,1,1,-2.739,0A2.739,2.739,0,1,1,2.739,0" fill="#4c78a8" stroke-width="2" opacity="0.7"/><path aria-label="Value: 2.88929984122; X2: 5; Type: Initial" role="graphics-symbol" aria-roledescription="point" transform="translate(214.88330687017242,90)" d="M2.739,0A2.739,2.739,0,1,1,-2.739,0A2.739,2.739,0,1,1,2.739,0" fill="#4c78a8" stroke-width="2" opacity="0.7"/><path aria-label="Value: 2.92520815436; X2: 1; Type: Raked" role="graphics-symbol" aria-roledescription="point" transform="translate(220.8680257273094,10)" d="M-2.739,-2.739h5.477v5.477h-5.477Z" fill="#f58518" stroke-width="2" opacity="0.7"/><path aria-label="Value: 2.67111691073; X2: 2; Type: Raked" role="graphics-symbol" aria-roledescription="point" transform="translate(178.5194851222709,30)" d="M-2.739,-2.739h5.477v5.477h-5.477Z" fill="#f58518" stroke-width="2" opacity="0.7"/><path aria-label="Value: 2.63622690327; X2: 3; Type: Raked" role="graphics-symbol" aria-roledescription="point" transform="translate(172.70448387820986,50)" d="M-2.739,-2.739h5.477v5.477h-5.477Z" fill="#f58518" stroke-width="2" opacity="0.7"/><path aria-label="Value: 2.55365089926; X2: 4; Type: Raked" role="graphics-symbol" aria-roledescription="point" transform="translate(158.94181654327576,70)" d="M-2.739,-2.739h5.477v5.477h-5.477Z" fill="#f58518" stroke-width="2" opacity="0.7"/><path aria-label="Value: 2.94138245412; X2: 5; Type: Raked" role="graphics-symbol" aria-roledescription="point" transform="translate(223.56374235389876,90)" d="M-2.739,-2.739h5.477v5.477h-5.477Z" fill="#f58518" stroke-width="2" opacity="0.7"/></g><g class="mark-rule role-mark child_layer_1_marks" clip-path="url(#clip7)" role="graphics-object" aria-roledescription="rule mark container"><line aria-label="Upper: 2.99975103523; X2: 1; upper_Upper: 2.71690832275; Type: Initial; width: 1; Lower: 2.71690832275" role="graphics-symbol" aria-roledescription="errorbar" transform="translate(233.29183920488344,10)" x2="-47.14045207910323" y2="0" stroke="#4c78a8" stroke-width="1" opacity="0.5"/><line aria-label="Upper: 2.93449391046; X2: 2; upper_Upper: 2.48728031496; Type: Initial; width: 1; Lower: 2.48728031496" role="graphics-symbol" aria-roledescription="errorbar" transform="translate(222.41565174357117,30)" x2="-74.53559924999308" y2="0" stroke="#4c78a8" stroke-width="1" opacity="0.5"/><line aria-label="Upper: 2.94581980611; X2: 3; upper_Upper: 2.38013438116; Type: Initial; width: 1; Lower: 2.38013438116" role="graphics-symbol" aria-roledescription="errorbar" transform="translate(224.30330101832598,50)" x2="-94.28090415820631" y2="0" stroke="#4c78a8" stroke-width="1" opacity="0.5"/><line aria-label="Upper: 2.88468870028; X2: 4; upper_Upper: 2.22136374221; Type: Initial; width: 1; Lower: 2.22136374221" role="graphics-symbol" aria-roledescription="errorbar" transform="translate(214.1147833795084,70)" x2="-110.55415967851329" y2="0" stroke="#4c78a8" stroke-width="1" opacity="0.5"/><line aria-label="Upper: 3.2634655799; X2: 5; upper_Upper: 2.51513410254; Type: Initial; width: 1; Lower: 2.51513410254" role="graphics-symbol" aria-roledescription="errorbar" transform="translate(277.2442633164047,90)" x2="-124.72191289246467" y2="0" stroke="#4c78a8" stroke-width="1" opacity="0.5"/><line aria-label="Upper: 3.04664456053; X2: 1; upper_Upper: 2.80377174819; Type: Raked; width: 2; Lower: 2.80377174819" role="graphics-symbol" aria-roledescription="errorbar" transform="translate(241.10742675551282,10)" x2="-40.478802056406835" y2="0" stroke="#f58518" stroke-width="4" opacity="0.5"/><line aria-label="Upper: 2.8285859857; X2: 2; upper_Upper: 2.51364783576; Type: Raked; width: 2; Lower: 2.51364783576" role="graphics-symbol" aria-roledescription="errorbar" transform="translate(204.76433095040255,30)" x2="-52.48969165626326" y2="0" stroke="#f58518" stroke-width="4" opacity="0.5"/><line aria-label="Upper: 2.82821873018; X2: 3; upper_Upper: 2.44423507636; Type: Raked; width: 2; Lower: 2.44423507636" role="graphics-symbol" aria-roledescription="errorbar" transform="translate(204.70312169684942,50)" x2="-63.99727563727913" y2="0" stroke="#f58518" stroke-width="4" opacity="0.5"/><line aria-label="Upper: 2.77886803454; X2: 4; upper_Upper: 2.32843376398; Type: Raked; width: 2; Lower: 2.32843376398" role="graphics-symbol" aria-roledescription="errorbar" transform="translate(196.47800575638226,70)" x2="-75.07237842621305" y2="0" stroke="#f58518" stroke-width="4" opacity="0.5"/><line aria-label="Upper: 3.18999462322; X2: 5; upper_Upper: 2.69277028503; Type: Raked; width: 2; Lower: 2.69277028503" role="graphics-symbol" aria-roledescription="errorbar" transform="translate(264.99910387019725,90)" x2="-82.87072303259697" y2="0" stroke="#f58518" stroke-width="4" opacity="0.5"/></g><g class="mark-group role-legend" role="graphics-symbol" aria-roledescription="legend" aria-label="Symbol legend titled 'Type' for shape and fill color with 2 values: Initial, Raked"><g transform="translate(318,0)"><path class="background" aria-hidden="true" d="M0,0h98v79h-98Z" pointer-events="none"/><g><g class="mark-group role-legend-entry"><g transform="translate(0,29)"><path class="background" aria-hidden="true" d="M0,0h0v0h0Z" pointer-events="none"/><g><g class="mark-group role-scope" role="graphics-object" aria-roledescription="group mark container"><g transform="translate(0,0)"><path class="background" aria-hidden="true" d="M0,0h97.375v24h-97.375Z" pointer-events="none" opacity="1"/><g><g class="mark-symbol role-legend-symbol" pointer-events="none"><path transform="translate(12,12)" d="M5,0A5,5,0,1,1,-5,0A5,5,0,1,1,5,0" fill="#4c78a8" stroke-width="1.5" opacity="0.7"/></g><g class="mark-text role-legend-label" pointer-events="none"><text text-anchor="start" transform="translate(28,19)" font-family="sans-serif" font-size="24px" fill="#000" opacity="1">Initial</text></g></g><path class="foreground" aria-hidden="true" d="" pointer-events="none" display="none"/></g><g transform="translate(0,26)"><path class="background" aria-hidden="true" d="M0,0h97.375v24h-97.375Z" pointer-events="none" opacity="1"/><g><g class="mark-symbol role-legend-symbol" pointer-events="none"><path transform="translate(12,12)" d="M-5,-5h10v10h-10Z" fill="#f58518" stroke-width="1.5" opacity="0.7"/></g><g class="mark-text role-legend-label" pointer-events="none"><text text-anchor="start" transform="translate(28,19)" font-family="sans-serif" font-size="24px" fill="#000" opacity="1">Raked</text></g></g><path class="foreground" aria-hidden="true" d="" pointer-events="none" display="none"/></g></g></g><path class="foreground" aria-hidden="true" d="" pointer-events="none" display="none"/></g></g><g class="mark-text role-legend-title" pointer-events="none"><text text-anchor="start" transform="translate(0,19)" font-family="sans-serif" font-size="24px" font-weight="bold" fill="#000" opacity="1">Type</text></g></g><path class="foreground" aria-hidden="true" d="" pointer-events="none" display="none"/></g></g></g><path class="foreground" aria-hidden="true" d="" display="none"/></g><g transform="translate(876,0)"><path class="background" aria-hidden="true" d="M0.5,0.5h300v100h-300Z" stroke="#ddd"/><g><g class="mark-group role-axis" aria-hidden="true"><g transform="translate(0.5,100.5)"><path class="background" aria-hidden="true" d="M0,0h0v0h0Z" pointer-events="none"/><g><g class="mark-rule role-axis-grid" pointer-events="none"><line transform="translate(0,0)" x2="0" y2="-100" stroke="#ddd" stroke-width="1" opacity="1"/><line transform="translate(33,0)" x2="0" y2="-100" stroke="#ddd" stroke-width="1" opacity="1"/><line transform="translate(67,0)" x2="0" y2="-100" stroke="#ddd" stroke-width="1" opacity="1"/><line transform="translate(100,0)" x2="0" y2="-100" stroke="#ddd" stroke-width="1" opacity="1"/><line transform="translate(133,0)" x2="0" y2="-100" stroke="#ddd" stroke-width="1" opacity="1"/><line transform="translate(167,0)" x2="0" y2="-100" stroke="#ddd" stroke-width="1" opacity="1"/><line transform="translate(200,0)" x2="0" y2="-100" stroke="#ddd" stroke-width="1" opacity="1"/><line transform="translate(233,0)" x2="0" y2="-100" stroke="#ddd" stroke-width="1" opacity="1"/><line transform="translate(267,0)" x2="0" y2="-100" stroke="#ddd" stroke-width="1" opacity="1"/><line transform="translate(300,0)" x2="0" y2="-100" stroke="#ddd" stroke-width="1" opacity="1"/></g></g><path class="foreground" aria-hidden="true" d="" pointer-events="none" display="none"/></g></g><g class="mark-symbol role-mark child_layer_0_marks" role="graphics-object" aria-roledescription="symbol mark container"><path aria-label="Value: 2.78422353848; X2: 1; Type: Initial" role="graphics-symbol" aria-roledescription="point" transform="translate(197.37058974743613,10)" d="M2.739,0A2.739,2.739,0,1,1,-2.739,0A2.739,2.739,0,1,1,2.739,0" fill="#4c78a8" stroke-width="2" opacity="0.7"/><path aria-label="Value: 1.98988503388; X2: 2; Type: Initial" role="graphics-symbol" aria-roledescription="point" transform="translate(64.98083897929075,30)" d="M2.739,0A2.739,2.739,0,1,1,-2.739,0A2.739,2.739,0,1,1,2.739,0" fill="#4c78a8" stroke-width="2" opacity="0.7"/><path aria-label="Value: 2.8925552836; X2: 3; Type: Initial" role="graphics-symbol" aria-roledescription="point" transform="translate(215.4258805994786,50)" d="M2.739,0A2.739,2.739,0,1,1,-2.739,0A2.739,2.739,0,1,1,2.739,0" fill="#4c78a8" stroke-width="2" opacity="0.7"/><path aria-label="Value: 1.95923565037; X2: 4; Type: Initial" role="graphics-symbol" aria-roledescription="point" transform="translate(59.872608395013856,70)" d="M2.739,0A2.739,2.739,0,1,1,-2.739,0A2.739,2.739,0,1,1,2.739,0" fill="#4c78a8" stroke-width="2" opacity="0.7"/><path aria-label="Value: 2.75167495878; X2: 5; Type: Initial" role="graphics-symbol" aria-roledescription="point" transform="translate(191.9458264628248,90)" d="M2.739,0A2.739,2.739,0,1,1,-2.739,0A2.739,2.739,0,1,1,2.739,0" fill="#4c78a8" stroke-width="2" opacity="0.7"/><path aria-label="Value: 2.85042222087; X2: 1; Type: Raked" role="graphics-symbol" aria-roledescription="point" transform="translate(208.4037034786731,10)" d="M-2.739,-2.739h5.477v5.477h-5.477Z" fill="#f58518" stroke-width="2" opacity="0.7"/><path aria-label="Value: 1.96144571059; X2: 2; Type: Raked" role="graphics-symbol" aria-roledescription="point" transform="translate(60.240951764987386,30)" d="M-2.739,-2.739h5.477v5.477h-5.477Z" fill="#f58518" stroke-width="2" opacity="0.7"/><path aria-label="Value: 2.86459406865; X2: 3; Type: Raked" role="graphics-symbol" aria-roledescription="point" transform="translate(210.7656781082473,50)" d="M-2.739,-2.739h5.477v5.477h-5.477Z" fill="#f58518" stroke-width="2" opacity="0.7"/><path aria-label="Value: 1.96045681727; X2: 4; Type: Raked" role="graphics-symbol" aria-roledescription="point" transform="translate(60.07613621199082,70)" d="M-2.739,-2.739h5.477v5.477h-5.477Z" fill="#f58518" stroke-width="2" opacity="0.7"/><path aria-label="Value: 2.80231854175; X2: 5; Type: Raked" role="graphics-symbol" aria-roledescription="point" transform="translate(200.3864236242002,90)" d="M-2.739,-2.739h5.477v5.477h-5.477Z" fill="#f58518" stroke-width="2" opacity="0.7"/></g><g class="mark-rule role-mark child_layer_1_marks" clip-path="url(#clip8)" role="graphics-object" aria-roledescription="rule mark container"><line aria-label="Upper: 2.95742861924; X2: 1; upper_Upper: 2.61101845773; Type: Initial; width: 1; Lower: 2.61101845773" role="graphics-symbol" aria-roledescription="errorbar" transform="translate(226.23810320691743,10)" x2="-57.735026918962575" y2="0" stroke="#4c78a8" stroke-width="1" opacity="0.5"/><line aria-label="Upper: 2.23483400815; X2: 2; upper_Upper: 1.7449360596; Type: Initial; width: 1; Lower: 1.7449360596" role="graphics-symbol" aria-roledescription="errorbar" transform="translate(105.80566802567708,30)" x2="-81.64965809277263" y2="0" stroke="#4c78a8" stroke-width="1" opacity="0.5"/><line aria-label="Upper: 3.1925552836; X2: 3; upper_Upper: 2.5925552836; Type: Initial; width: 1; Lower: 2.5925552836" role="graphics-symbol" aria-roledescription="errorbar" transform="translate(265.4258805994786,50)" x2="-100" y2="0" stroke="#4c78a8" stroke-width="1" opacity="0.5"/><line aria-label="Upper: 2.30564581188; X2: 4; upper_Upper: 1.61282548886; Type: Initial; width: 1; Lower: 1.61282548886" role="graphics-symbol" aria-roledescription="errorbar" transform="translate(117.60763531397642,70)" x2="-115.47005383792512" y2="0" stroke="#4c78a8" stroke-width="1" opacity="0.5"/><line aria-label="Upper: 3.1389732934; X2: 5; upper_Upper: 2.36437662416; Type: Initial; width: 1; Lower: 2.36437662416" role="graphics-symbol" aria-roledescription="errorbar" transform="translate(256.49554889961513,90)" x2="-129.09944487358058" y2="0" stroke="#4c78a8" stroke-width="1" opacity="0.5"/><line aria-label="Upper: 2.98543046411; X2: 1; upper_Upper: 2.71541397764; Type: Raked; width: 2; Lower: 2.71541397764" role="graphics-symbol" aria-roledescription="errorbar" transform="translate(230.9050773513804,10)" x2="-45.002747745414666" y2="0" stroke="#f58518" stroke-width="4" opacity="0.5"/><line aria-label="Upper: 2.12736585286; X2: 2; upper_Upper: 1.79552556831; Type: Raked; width: 2; Lower: 1.79552556831" role="graphics-symbol" aria-roledescription="errorbar" transform="translate(87.89430881081965,30)" x2="-55.306714091664546" y2="0" stroke="#f58518" stroke-width="4" opacity="0.5"/><line aria-label="Upper: 3.06342030944; X2: 3; upper_Upper: 2.66576782786; Type: Raked; width: 2; Lower: 2.66576782786" role="graphics-symbol" aria-roledescription="errorbar" transform="translate(243.90338490696587,50)" x2="-66.27541359743714" y2="0" stroke="#f58518" stroke-width="4" opacity="0.5"/><line aria-label="Upper: 2.19390961519; X2: 4; upper_Upper: 1.72700401936; Type: Raked; width: 2; Lower: 1.72700401936" role="graphics-symbol" aria-roledescription="errorbar" transform="translate(98.9849358644274,70)" x2="-77.81759930487313" y2="0" stroke="#f58518" stroke-width="4" opacity="0.5"/><line aria-label="Upper: 3.05566704393; X2: 5; upper_Upper: 2.54897003956; Type: Raked; width: 2; Lower: 2.54897003956" role="graphics-symbol" aria-roledescription="errorbar" transform="translate(242.6111739875724,90)" x2="-84.44950072674442" y2="0" stroke="#f58518" stroke-width="4" opacity="0.5"/></g><g class="mark-group role-legend" role="graphics-symbol" aria-roledescription="legend" aria-label="Symbol legend titled 'Type' for shape and fill color with 2 values: Initial, Raked"><g transform="translate(318,0)"><path class="background" aria-hidden="true" d="M0,0h98v79h-98Z" pointer-events="none"/><g><g class="mark-group role-legend-entry"><g transform="translate(0,29)"><path class="background" aria-hidden="true" d="M0,0h0v0h0Z" pointer-events="none"/><g><g class="mark-group role-scope" role="graphics-object" aria-roledescription="group mark container"><g transform="translate(0,0)"><path class="background" aria-hidden="true" d="M0,0h97.375v24h-97.375Z" pointer-events="none" opacity="1"/><g><g class="mark-symbol role-legend-symbol" pointer-events="none"><path transform="translate(12,12)" d="M5,0A5,5,0,1,1,-5,0A5,5,0,1,1,5,0" fill="#4c78a8" stroke-width="1.5" opacity="0.7"/></g><g class="mark-text role-legend-label" pointer-events="none"><text text-anchor="start" transform="translate(28,19)" font-family="sans-serif" font-size="24px" fill="#000" opacity="1">Initial</text></g></g><path class="foreground" aria-hidden="true" d="" pointer-events="none" display="none"/></g><g transform="translate(0,26)"><path class="background" aria-hidden="true" d="M0,0h97.375v24h-97.375Z" pointer-events="none" opacity="1"/><g><g class="mark-symbol role-legend-symbol" pointer-events="none"><path transform="translate(12,12)" d="M-5,-5h10v10h-10Z" fill="#f58518" stroke-width="1.5" opacity="0.7"/></g><g class="mark-text role-legend-label" pointer-events="none"><text text-anchor="start" transform="translate(28,19)" font-family="sans-serif" font-size="24px" fill="#000" opacity="1">Raked</text></g></g><path class="foreground" aria-hidden="true" d="" pointer-events="none" display="none"/></g></g></g><path class="foreground" aria-hidden="true" d="" pointer-events="none" display="none"/></g></g><g class="mark-text role-legend-title" pointer-events="none"><text text-anchor="start" transform="translate(0,19)" font-family="sans-serif" font-size="24px" font-weight="bold" fill="#000" opacity="1">Type</text></g></g><path class="foreground" aria-hidden="true" d="" pointer-events="none" display="none"/></g></g></g><path class="foreground" aria-hidden="true" d="" display="none"/></g></g></g><path class="foreground" aria-hidden="true" d="" display="none"/></g></g></g><defs><clipPath id="clip6"><rect x="0" y="0" width="300" height="100"/></clipPath><clipPath id="clip7"><rect x="0" y="0" width="300" height="100"/></clipPath><clipPath id="clip8"><rect x="0" y="0" width="300" height="100"/></clipPath></defs></svg>