<svg xmlns="http://www.w3.org/2000/svg" xmlns:xlink="http://www.w3.org/1999/xlink" version="1.1" class="marks" width="421" height="142" viewBox="0 0 421 142"><rect width="421" height="142" fill="white"/><g fill="none" stroke-miterlimit="10" transform="translate(115,5)"><g class="mark-group role-frame root" role="graphics-object" aria-roledescription="group mark container"><g transform="translate(0,0)"><path class="background" aria-hidden="true" d="M0.5,0.5h300v100h-300Z" stroke="#ddd"/><g><g class="mark-group role-axis" aria-hidden="true"><g transform="translate(0.5,100.5)"><path class="background" aria-hidden="true" d="M0,0h0v0h0Z" pointer-events="none"/><g><g class="mark-rule role-axis-grid" pointer-events="none"><line transform="translate(0,0)" x2="0" y2="-100" stroke="#ddd" stroke-width="1" opacity="1"/><line transform="translate(27,0)" x2="0" y2="-100" stroke="#ddd" stroke-width="1" opacity="1"/><line transform="translate(55,0)" x2="0" y2="-100" stroke="#ddd" stroke-width="1" opacity="1"/><line transform="translate(82,0)" x2="0" y2="-100" stroke="#ddd" stroke-width="1" opacity="1"/><line transform="translate(109,0)" x2="0" y2="-100" stroke="#ddd" stroke-width="1" opacity="1"/><line transform="translate(136,0)" x2="0" y2="-100" stroke="#ddd" stroke-width="1" opacity="1"/><line transform="translate(164,0)" x2="0" y2="-100" stroke="#ddd" stroke-width="1" opacity="1"/><line transform="translate(191,0)" x2="0" y2="-100" stroke="#ddd" stroke-width="1" opacity="1"/><line transform="translate(218,0)" x2="0" y2="-100" stroke="#ddd" stroke-width="1" opacity="1"/><line transform="translate(245,0)" x2="0" y2="-100" stroke="#ddd" stroke-width="1" opacity="1"/><line transform="translate(273,0)" x2="0" y2="-100" stroke="#ddd" stroke-width="1" opacity="1"/><line transform="translate(300,0)" x2="0" y2="-100" stroke="#ddd" stroke-width="1" opacity="1"/></g></g><path class="foreground" aria-hidden="true" d="" pointer-events="none" display="none"/></g></g><g class="mark-group role-axis" role="graphics-symbol" aria-roledescription="axis" aria-label="X-axis titled 'Relative absolute deviation' for a linear scale with values from 0.00 to 0.22"><g transform="translate(0.5,100.5)"><path class="background" aria-hidden="true" d="M0,0h0v0h0Z" pointer-events="none"/><g><g class="mark-rule role-axis-tick" pointer-events="none"><line transform="translate(0,0)" x2="0" y2="5" stroke="#888" stroke-width="1" opacity="1"/><line transform="translate(27,0)" x2="0" y2="5" stroke="#888" stroke-width="1" opacity="1"/><line transform="translate(55,0)" x2="0" y2="5" stroke="#888" stroke-width="1" opacity="1"/><line transform="translate(82,0)" x2="0" y2="5" stroke="#888" stroke-width="1" opacity="1"/><line transform="translate(109,0)" x2="0" y2="5" stroke="#888" stroke-width="1" opacity="1"/><line transform="translate(136,0)" x2="0" y2="5" stroke="#888" stroke-width="1" opacity="1"/><line transform="translate(164,0)" x2="0" y2="5" stroke="#888" stroke-width="1" opacity="1"/><line transform="translate(191,0)" x2="0" y2="5" stroke="#888" stroke-width="1" opacity="1"/><line transform="translate(218,0)" x2="0" y2="5" stroke="#888" stroke-width="1" opacity="1"/><line transform="translate(245,0)" x2="0" y2="5" stroke="#888" stroke-width="1" opacity="1"/><line transform="translate(273,0)" x2="0" y2="5" stroke="#888" stroke-width="1" opacity="1"/><line transform="translate(300,0)" x2="0" y2="5" stroke="#888" stroke-width="1" opacity="1"/></g><g class="mark-text role-axis-label" pointer-events="none"><text text-anchor="start" transform="translate(0,15)" font-family="sans-serif" font-size="10px" fill="#000" opacity="1">0.00</text><text text-anchor="middle" transform="translate(27.272727272727273,15)" font-family="sans-serif" font-size="10px" fill="#000" opacity="0">0.02</text><text text-anchor="middle" transform="translate(54.54545454545455,15)" font-family="sans-serif" font-size="10px" fill="#000" opacity="1">0.04</text><text text-anchor="middle" transform="translate(81.81818181818181,15)" font-family="sans-serif" font-size="10px" fill="#000" opacity="0">0.06</text><text text-anchor="middle" transform="translate(109.0909090909091,15)" font-family="sans-serif" font-size="10px" fill="#000" opacity="1">0.08</text><text text-anchor="middle" transform="translate(136.36363636363637,15)" font-family="sans-serif" font-size="10px" fill="#000" opacity="0">0.10</text><text text-anchor="middle" transform="translate(163.63636363636363,15)" font-family="sans-serif" font-size="10px" fill="#000" opacity="1">0.12</text><text text-anchor="middle" transform="translate(190.90909090909093,15)" font-family="sans-serif" font-size="10px" fill="#000" opacity="0">0.14</text><text text-anchor="middle" transform="translate(218.1818181818182,15)" font-family="sans-serif" font-size="10px" fill="#000" opacity="1">0.16</text><text text-anchor="middle" transform="translate(245.45454545454544,15)" font-family="sans-serif" font-size="10px" fill="#000" opacity="0">0.18</text><text text-anchor="middle" transform="translate(272.72727272727275,15)" font-family="sans-serif" font-size="10px" fill="#000" opacity="1">0.20</text><text text-anchor="end" transform="translate(300,15)" font-family="sans-serif" font-size="10px" fill="#000" opacity="0">0.22</text></g><g class="mark-rule role-axis-domain" pointer-events="none"><line transform="translate(0,0)" x2="300" y2="0" stroke="#888" stroke-width="1" opacity="1"/></g><g class="mark-text role-axis-title" pointer-events="none"><text text-anchor="middle" transform="translate(150,30)" font-family="sans-serif" font-size="11px" font-weight="bold" fill="#000" opacity="1">Relative absolute deviation</text></g></g><path class="foreground" aria-hidden="true" d="" pointer-events="none" display="none"/></g></g><g class="mark-group role-axis" role="graphics-symbol" aria-roledescription="axis" aria-label="Y-axis titled 'Method' for a discrete scale with 5 values: MC (N = 100), MC (N = 1000), MC (N = 10000), MC (N = 100000), Variance estimation"><g transform="translate(0.5,0.5)"><path class="background" aria-hidden="true" d="M0,0h0v0h0Z" pointer-events="none"/><g><g class="mark-rule role-axis-tick" pointer-events="none"><line transform="translate(0,10)" x2="-5" y2="0" stroke="#888" stroke-width="1" opacity="1"/><line transform="translate(0,30)" x2="-5" y2="0" stroke="#888" stroke-width="1" opacity="1"/><line transform="translate(0,50)" x2="-5" y2="0" stroke="#888" stroke-width="1" opacity="1"/><line transform="translate(0,70)" x2="-5" y2="0" stroke="#888" stroke-width="1" opacity="1"/><line transform="translate(0,90)" x2="-5" y2="0" stroke="#888" stroke-width="1" opacity="1"/></g><g class="mark-text role-axis-label" pointer-events="none"><text text-anchor="end" transform="translate(-7,12.5)" font-family="sans-serif" font-size="10px" fill="#000" opacity="1">MC (N = 100)</text><text text-anchor="end" transform="translate(-7,32.5)" font-family="sans-serif" font-size="10px" fill="#000" opacity="1">MC (N = 1000)</text><text text-anchor="end" transform="translate(-7,52.5)" font-family="sans-serif" font-size="10px" fill="#000" opacity="1">MC (N = 10000)</text><text text-anchor="end" transform="translate(-7,72.5)" font-family="sans-serif" font-size="10px" fill="#000" opacity="1">MC (N = 100000)</text><text text-anchor="end" transform="translate(-7,92.5)" font-family="sans-serif" font-size="10px" fill="#000" opacity="1">Variance estimation</text></g><g class="mark-rule role-axis-domain" pointer-events="none"><line transform="translate(0,0)" x2="0" y2="100" stroke="#888" stroke-width="1" opacity="1"/></g><g class="mark-text role-axis-title" pointer-events="none"><text text-anchor="middle" transform="translate(-98.080078125,50) rotate(-90) translate(0,-2)" font-family="sans-serif" font-size="11px" font-weight="bold" fill="#000" opacity="1">Method</text></g></g><path class="foreground" aria-hidden="true" d="" pointer-events="none" display="none"/></g></g><g class="mark-symbol role-mark layer_0_layer_0_marks" role="graphics-object" aria-roledescription="symbol mark container"><path aria-label="Relative absolute deviation: 0.0962540530815; Method: MC (N = 1000); color: Monte Carlo" role="graphics-symbol" aria-roledescription="point" transform="translate(131.2555269293103,30)" d="M2.739,0A2.739,2.739,0,1,1,-2.739,0A2.739,2.739,0,1,1,2.739,0" stroke="#4c78a8" stroke-width="2" opacity="0.7"/><path aria-label="Relative absolute deviation: 0.0361544466212; Method: MC (N = 10000); color: Monte Carlo" role="graphics-symbol" aria-roledescription="point" transform="translate(49.301518119812215,50)" d="M2.739,0A2.739,2.739,0,1,1,-2.739,0A2.739,2.739,0,1,1,2.739,0" stroke="#4c78a8" stroke-width="2" opacity="0.7"/><path aria-label="Relative absolute deviation: 0.00721421668095; Method: MC (N = 100000); color: Monte Carlo" role="graphics-symbol" aria-roledescription="point" transform="translate(9.837568201298929,70)" d="M2.739,0A2.739,2.739,0,1,1,-2.739,0A2.739,2.739,0,1,1,2.739,0" stroke="#4c78a8" stroke-width="2" opacity="0.7"/><path aria-label="Relative absolute deviation: 0.0072038005075; Method: MC (N = 100000); color: Monte Carlo" role="graphics-symbol" aria-roledescription="point" transform="translate(9.82336432840246,70)" d="M2.739,0A2.739,2.739,0,1,1,-2.739,0A2.739,2.739,0,1,1,2.739,0" stroke="#4c78a8" stroke-width="2" opacity="0.7"/></g><g class="mark-rule role-mark layer_0_layer_1_layer_0_marks" aria-hidden="true"><line transform="translate(41.259756108213004,10)" x2="9.057557308736762" y2="0" stroke="black"/><line transform="translate(0.5002058261294896,30)" x2="22.97616605809776" y2="0" stroke="black"/><line transform="translate(0.8500253689465577,50)" x2="7.795621676120712" y2="0" stroke="black"/><line transform="translate(0.803467072546263,70)" x2="1.142073090807993" y2="0" stroke="black"/><line transform="translate(31.54025830609611,90)" x2="3.88985534701256" y2="0" stroke="black"/></g><g class="mark-rule role-mark layer_0_layer_1_layer_1_marks" aria-hidden="true"><line transform="translate(170.55380922289663,10)" x2="122.31749427774304" y2="0" stroke="black"/><line transform="translate(64.6222860102848,30)" x2="43.42326859273693" y2="0" stroke="black"/><line transform="translate(19.954703626023676,50)" x2="5.615299716421344" y2="0" stroke="black"/><line transform="translate(5.070025414220252,70)" x2="2.4287147360050234" y2="0" stroke="black"/><line transform="translate(52.05595044658613,90)" x2="8.51798627768521" y2="0" stroke="black"/></g><g class="mark-rect role-mark layer_1_layer_0_marks" role="graphics-object" aria-roledescription="rect mark container"><path aria-label="Relative absolute deviation: 0.0368993631724; Method: MC (N = 100); upper_box_Relative absolute deviation: 0.12507279343; color: Monte Carlo; Max of Relative absolute deviation: 0.214772289234; Q3 of Relative absolute deviation: 0.12507279343; Median of Relative absolute deviation: 0.0813357579817; Q1 of Relative absolute deviation: 0.0368993631724; Min of Relative absolute deviation: 0.0302571544794" role="graphics-symbol" aria-roledescription="box" d="M50.317313416949766,3h120.23649580594687v14h-120.23649580594687Z" fill="#4c78a8"/><path aria-label="Relative absolute deviation: 0.0172160060484; Method: MC (N = 1000); upper_box_Relative absolute deviation: 0.0473896764075; color: Monte Carlo; Max of Relative absolute deviation: 0.0962540530815; Q3 of Relative absolute deviation: 0.0473896764075; Median of Relative absolute deviation: 0.0252233848305; Q1 of Relative absolute deviation: 0.0172160060484; Min of Relative absolute deviation: 0.000366817605828" role="graphics-symbol" aria-roledescription="box" d="M23.47637188422725,23h41.14591412605755v14h-41.14591412605755Z" fill="#4c78a8"/><path aria-label="Relative absolute deviation: 0.00634014116638; Method: MC (N = 10000); upper_box_Relative absolute deviation: 0.0146334493258; color: Monte Carlo; Max of Relative absolute deviation: 0.0361544466212; Q3 of Relative absolute deviation: 0.0146334493258; Median of Relative absolute deviation: 0.0102209827191; Q1 of Relative absolute deviation: 0.00634014116638; Min of Relative absolute deviation: 0.000623351937227" role="graphics-symbol" aria-roledescription="box" d="M8.64564704506727,43h11.309056580956407v14h-11.309056580956407Z" fill="#4c78a8"/><path aria-label="Relative absolute deviation: 0.00142672945313; Method: MC (N = 100000); upper_box_Relative absolute deviation: 0.00371801863709; color: Monte Carlo; Max of Relative absolute deviation: 0.00721421668095; Q3 of Relative absolute deviation: 0.00371801863709; Median of Relative absolute deviation: 0.00195781347989; Q1 of Relative absolute deviation: 0.00142672945313; Min of Relative absolute deviation: 0.000589209186534" role="graphics-symbol" aria-roledescription="box" d="M1.9455401633542562,63h3.124485250865996v14h-3.124485250865996Z" fill="#4c78a8"/><path aria-label="Relative absolute deviation: 0.0259820833456; Method: Variance estimation; upper_box_Relative absolute deviation: 0.0381743636608; color: Our method; Max of Relative absolute deviation: 0.0444208869311; Q3 of Relative absolute deviation: 0.0381743636608; Median of Relative absolute deviation: 0.0325781146421; Q1 of Relative absolute deviation: 0.0259820833456; Min of Relative absolute deviation: 0.0231295227578" role="graphics-symbol" aria-roledescription="box" d="M35.43011365310867,83h16.62583679347746v14h-16.62583679347746Z" fill="#f58518"/></g><g class="mark-rect role-mark layer_1_layer_1_marks" aria-hidden="true"><path d="M110.41239724783607,3h1v14h-1Z" fill="white" opacity="0.7"/><path d="M33.89552476885654,23h1v14h-1Z" fill="white" opacity="0.7"/><path d="M13.437703707830165,43h1v14h-1Z" fill="white" opacity="0.7"/><path d="M2.169745654395939,63h1v14h-1Z" fill="white" opacity="0.7"/><path d="M43.92470178462608,83h1v14h-1Z" fill="white" opacity="0.7"/></g></g><path class="foreground" aria-hidden="true" d="" display="none"/></g></g></g></svg>