<svg xmlns="http://www.w3.org/2000/svg" xmlns:xlink="http://www.w3.org/1999/xlink" version="1.1" class="marks" width="421" height="142" viewBox="0 0 421 142"><rect width="421" height="142" fill="white"/><g fill="none" stroke-miterlimit="10" transform="translate(115,5)"><g class="mark-group role-frame root" role="graphics-object" aria-roledescription="group mark container"><g transform="translate(0,0)"><path class="background" aria-hidden="true" d="M0.5,0.5h300v100h-300Z" stroke="#ddd"/><g><g class="mark-group role-axis" aria-hidden="true"><g transform="translate(0.5,100.5)"><path class="background" aria-hidden="true" d="M0,0h0v0h0Z" pointer-events="none"/><g><g class="mark-rule role-axis-grid" pointer-events="none"><line transform="translate(0,0)" x2="0" y2="-100" stroke="#ddd" stroke-width="1" opacity="1"/><line transform="translate(33,0)" x2="0" y2="-100" stroke="#ddd" stroke-width="1" opacity="1"/><line transform="translate(67,0)" x2="0" y2="-100" stroke="#ddd" stroke-width="1" opacity="1"/><line transform="translate(100,0)" x2="0" y2="-100" stroke="#ddd" stroke-width="1" opacity="1"/><line transform="translate(133,0)" x2="0" y2="-100" stroke="#ddd" stroke-width="1" opacity="1"/><line transform="translate(167,0)" x2="0" y2="-100" stroke="#ddd" stroke-width="1" opacity="1"/><line transform="translate(200,0)" x2="0" y2="-100" stroke="#ddd" stroke-width="1" opacity="1"/><line transform="translate(233,0)" x2="0" y2="-100" stroke="#ddd" stroke-width="1" opacity="1"/><line transform="translate(267,0)" x2="0" y2="-100" stroke="#ddd" stroke-width="1" opacity="1"/><line transform="translate(300,0)" x2="0" y2="-100" stroke="#ddd" stroke-width="1" opacity="1"/></g></g><path class="foreground" aria-hidden="true" d="" pointer-events="none" display="none"/></g></g><g class="mark-group role-axis" role="graphics-symbol" aria-roledescription="axis" aria-label="X-axis titled 'Absolute deviation' for a linear scale with values from 0.000 to 0.009"><g transform="translate(0.5,100.5)"><path class="background" aria-hidden="true" d="M0,0h0v0h0Z" pointer-events="none"/><g><g class="mark-rule role-axis-tick" pointer-events="none"><line transform="translate(0,0)" x2="0" y2="5" stroke="#888" stroke-width="1" opacity="1"/><line transform="translate(33,0)" x2="0" y2="5" stroke="#888" stroke-width="1" opacity="1"/><line transform="translate(67,0)" x2="0" y2="5" stroke="#888" stroke-width="1" opacity="1"/><line transform="translate(100,0)" x2="0" y2="5" stroke="#888" stroke-width="1" opacity="1"/><line transform="translate(133,0)" x2="0" y2="5" stroke="#888" stroke-width="1" opacity="1"/><line transform="translate(167,0)" x2="0" y2="5" stroke="#888" stroke-width="1" opacity="1"/><line transform="translate(200,0)" x2="0" y2="5" stroke="#888" stroke-width="1" opacity="1"/><line transform="translate(233,0)" x2="0" y2="5" stroke="#888" stroke-width="1" opacity="1"/><line transform="translate(267,0)" x2="0" y2="5" stroke="#888" stroke-width="1" opacity="1"/><line transform="translate(300,0)" x2="0" y2="5" stroke="#888" stroke-width="1" opacity="1"/></g><g class="mark-text role-axis-label" pointer-events="none"><text text-anchor="start" transform="translate(0,15)" font-family="sans-serif" font-size="10px" fill="#000" opacity="1">0.000</text><text text-anchor="middle" transform="translate(33.333333333333336,15)" font-family="sans-serif" font-size="10px" fill="#000" opacity="0">0.001</text><text text-anchor="middle" transform="translate(66.66666666666667,15)" font-family="sans-serif" font-size="10px" fill="#000" opacity="1">0.002</text><text text-anchor="middle" transform="translate(100.00000000000001,15)" font-family="sans-serif" font-size="10px" fill="#000" opacity="0">0.003</text><text text-anchor="middle" transform="translate(133.33333333333334,15)" font-family="sans-serif" font-size="10px" fill="#000" opacity="1">0.004</text><text text-anchor="middle" transform="translate(166.66666666666669,15)" font-family="sans-serif" font-size="10px" fill="#000" opacity="0">0.005</text><text text-anchor="middle" transform="translate(200.00000000000003,15)" font-family="sans-serif" font-size="10px" fill="#000" opacity="1">0.006</text><text text-anchor="middle" transform="translate(233.33333333333337,15)" font-family="sans-serif" font-size="10px" fill="#000" opacity="0">0.007</text><text text-anchor="middle" transform="translate(266.6666666666667,15)" font-family="sans-serif" font-size="10px" fill="#000" opacity="1">0.008</text><text text-anchor="end" transform="translate(300,15)" font-family="sans-serif" font-size="10px" fill="#000" opacity="0">0.009</text></g><g class="mark-rule role-axis-domain" pointer-events="none"><line transform="translate(0,0)" x2="300" y2="0" stroke="#888" stroke-width="1" opacity="1"/></g><g class="mark-text role-axis-title" pointer-events="none"><text text-anchor="middle" transform="translate(150,30)" font-family="sans-serif" font-size="11px" font-weight="bold" fill="#000" opacity="1">Absolute deviation</text></g></g><path class="foreground" aria-hidden="true" d="" pointer-events="none" display="none"/></g></g><g class="mark-group role-axis" role="graphics-symbol" aria-roledescription="axis" aria-label="Y-axis titled 'Method' for a discrete scale with 5 values: MC (N = 100), MC (N = 1000), MC (N = 10000), MC (N = 100000), Variance estimation"><g transform="translate(0.5,0.5)"><path class="background" aria-hidden="true" d="M0,0h0v0h0Z" pointer-events="none"/><g><g class="mark-rule role-axis-tick" pointer-events="none"><line transform="translate(0,10)" x2="-5" y2="0" stroke="#888" stroke-width="1" opacity="1"/><line transform="translate(0,30)" x2="-5" y2="0" stroke="#888" stroke-width="1" opacity="1"/><line transform="translate(0,50)" x2="-5" y2="0" stroke="#888" stroke-width="1" opacity="1"/><line transform="translate(0,70)" x2="-5" y2="0" stroke="#888" stroke-width="1" opacity="1"/><line transform="translate(0,90)" x2="-5" y2="0" stroke="#888" stroke-width="1" opacity="1"/></g><g class="mark-text role-axis-label" pointer-events="none"><text text-anchor="end" transform="translate(-7,12.5)" font-family="sans-serif" font-size="10px" fill="#000" opacity="1">MC (N = 100)</text><text text-anchor="end" transform="translate(-7,32.5)" font-family="sans-serif" font-size="10px" fill="#000" opacity="1">MC (N = 1000)</text><text text-anchor="end" transform="translate(-7,52.5)" font-family="sans-serif" font-size="10px" fill="#000" opacity="1">MC (N = 10000)</text><text text-anchor="end" transform="translate(-7,72.5)" font-family="sans-serif" font-size="10px" fill="#000" opacity="1">MC (N = 100000)</text><text text-anchor="end" transform="translate(-7,92.5)" font-family="sans-serif" font-size="10px" fill="#000" opacity="1">Variance estimation</text></g><g class="mark-rule role-axis-domain" pointer-events="none"><line transform="translate(0,0)" x2="0" y2="100" stroke="#888" stroke-width="1" opacity="1"/></g><g class="mark-text role-axis-title" pointer-events="none"><text text-anchor="middle" transform="translate(-98.080078125,50) rotate(-90) translate(0,-2)" font-family="sans-serif" font-size="11px" font-weight="bold" fill="#000" opacity="1">Method</text></g></g><path class="foreground" aria-hidden="true" d="" pointer-events="none" display="none"/></g></g><g class="mark-symbol role-mark layer_0_layer_0_marks" role="graphics-object" aria-roledescription="symbol mark container"><path aria-label="Absolute deviation: 0.00363201408152; Method: MC (N = 1000); color: Monte Carlo" role="graphics-symbol" aria-roledescription="point" transform="translate(121.06713605073983,30)" d="M2.739,0A2.739,2.739,0,1,1,-2.739,0A2.739,2.739,0,1,1,2.739,0" stroke="#4c78a8" stroke-width="2" opacity="0.7"/><path aria-label="Absolute deviation: 0.00309299795676; Method: MC (N = 1000); color: Monte Carlo" role="graphics-symbol" aria-roledescription="point" transform="translate(103.0999318919643,30)" d="M2.739,0A2.739,2.739,0,1,1,-2.739,0A2.739,2.739,0,1,1,2.739,0" stroke="#4c78a8" stroke-width="2" opacity="0.7"/><path aria-label="Absolute deviation: 0.000410859369813; Method: MC (N = 100000); color: Monte Carlo" role="graphics-symbol" aria-roledescription="point" transform="translate(13.695312327109688,70)" d="M2.739,0A2.739,2.739,0,1,1,-2.739,0A2.739,2.739,0,1,1,2.739,0" stroke="#4c78a8" stroke-width="2" opacity="0.7"/></g><g class="mark-rule role-mark layer_0_layer_1_layer_0_marks" aria-hidden="true"><line transform="translate(12.81827431279479,10)" x2="51.05872050132817" y2="0" stroke="black"/><line transform="translate(0.6467562809880459,30)" x2="11.39068351316246" y2="0" stroke="black"/><line transform="translate(0.5866466816578653,50)" x2="3.5511125203918352" y2="0" stroke="black"/><line transform="translate(0.7740254166758536,70)" x2="0.7609616953679552" y2="0" stroke="black"/><line transform="translate(15.770764797378227,90)" x2="6.298888161792792" y2="0" stroke="black"/></g><g class="mark-rule role-mark layer_0_layer_1_layer_1_marks" aria-hidden="true"><line transform="translate(147.44737317311197,10)" x2="121.9552056377656" y2="0" stroke="black"/><line transform="translate(47.79435248458361,30)" x2="26.715636399622312" y2="0" stroke="black"/><line transform="translate(22.423247983697472,50)" x2="23.05135976317409" y2="0" stroke="black"/><line transform="translate(4.75562292943504,70)" x2="2.1610457641842853" y2="0" stroke="black"/><line transform="translate(70.88811987445905,90)" x2="13.561459168730835" y2="0" stroke="black"/></g><g class="mark-rect role-mark layer_1_layer_0_marks" role="graphics-object" aria-roledescription="rect mark container"><path aria-label="Absolute deviation: 0.00191630984442; Method: MC (N = 100); upper_box_Absolute deviation: 0.00442342119519; color: Monte Carlo; Max of Absolute deviation: 0.00808207736433; Q3 of Absolute deviation: 0.00442342119519; Median of Absolute deviation: 0.00246662346494; Q1 of Absolute deviation: 0.00191630984442; Min of Absolute deviation: 0.000384548229384" role="graphics-symbol" aria-roledescription="box" d="M63.87699481412296,3h83.57037835898902v14h-83.57037835898902Z" fill="#4c78a8"/><path aria-label="Absolute deviation: 0.000361123193825; Method: MC (N = 1000); upper_box_Absolute deviation: 0.00143383057454; color: Monte Carlo; Max of Absolute deviation: 0.00363201408152; Q3 of Absolute deviation: 0.00143383057454; Median of Absolute deviation: 0.000875833654617; Q1 of Absolute deviation: 0.000361123193825; Min of Absolute deviation: 0.0000194026884296" role="graphics-symbol" aria-roledescription="box" d="M12.037439794150504,23h35.75691269043311v14h-35.75691269043311Z" fill="#4c78a8"/><path aria-label="Absolute deviation: 0.000124132776061; Method: MC (N = 10000); upper_box_Absolute deviation: 0.000672697439511; color: Monte Carlo; Max of Absolute deviation: 0.00136423823241; Q3 of Absolute deviation: 0.000672697439511; Median of Absolute deviation: 0.000303219792914; Q1 of Absolute deviation: 0.000124132776061; Min of Absolute deviation: 0.0000175994004497" role="graphics-symbol" aria-roledescription="box" d="M4.1377592020497005,43h18.28548878164777v14h-18.28548878164777Z" fill="#4c78a8"/><path aria-label="Absolute deviation: 0.0000460496133613; Method: MC (N = 100000); upper_box_Absolute deviation: 0.000142668687883; color: Monte Carlo; Max of Absolute deviation: 0.000410859369813; Q3 of Absolute deviation: 0.000142668687883; Median of Absolute deviation: 0.0000666513509875; Q1 of Absolute deviation: 0.0000460496133613; Min of Absolute deviation: 0.0000232207625003" role="graphics-symbol" aria-roledescription="box" d="M1.5349871120438088,63h3.220635817391231v14h-3.220635817391231Z" fill="#4c78a8"/><path aria-label="Absolute deviation: 0.000662089588775; Method: Variance estimation; upper_box_Absolute deviation: 0.00212664359623; color: Our method; Max of Absolute deviation: 0.0025334873713; Q3 of Absolute deviation: 0.00212664359623; Median of Absolute deviation: 0.000887635325209; Q1 of Absolute deviation: 0.000662089588775; Min of Absolute deviation: 0.000473122943921" role="graphics-symbol" aria-roledescription="box" d="M22.06965295917102,83h48.81846691528803v14h-48.81846691528803Z" fill="#f58518"/></g><g class="mark-rect role-mark layer_1_layer_1_marks" aria-hidden="true"><path d="M81.72078216462009,3h1v14h-1Z" fill="white" opacity="0.7"/><path d="M28.694455153912227,23h1v14h-1Z" fill="white" opacity="0.7"/><path d="M9.607326430463619,43h1v14h-1Z" fill="white" opacity="0.7"/><path d="M1.7217116995818427,63h1v14h-1Z" fill="white" opacity="0.7"/><path d="M29.087844173630206,83h1v14h-1Z" fill="white" opacity="0.7"/></g></g><path class="foreground" aria-hidden="true" d="" display="none"/></g></g></g></svg>