<svg xmlns="http://www.w3.org/2000/svg" xmlns:xlink="http://www.w3.org/1999/xlink" version="1.1" class="marks" width="364" height="361" viewBox="0 0 364 361"><rect width="364" height="361" fill="white"/><g fill="none" stroke-miterlimit="10" transform="translate(55,9)"><g class="mark-group role-frame root" role="graphics-object" aria-roledescription="group mark container"><g transform="translate(0,0)"><path class="background" aria-hidden="true" d="M0.5,0.5h300v300h-300Z" stroke="#ddd"/><g><g class="mark-group role-axis" aria-hidden="true"><g transform="translate(0.5,300.5)"><path class="background" aria-hidden="true" d="M0,0h0v0h0Z" pointer-events="none"/><g><g class="mark-rule role-axis-grid" pointer-events="none"><line transform="translate(46,-300)" x2="0" y2="300" stroke="#ddd" stroke-width="1" opacity="1"/><line transform="translate(92,-300)" x2="0" y2="300" stroke="#ddd" stroke-width="1" opacity="1"/><line transform="translate(138,-300)" x2="0" y2="300" stroke="#ddd" stroke-width="1" opacity="1"/><line transform="translate(185,-300)" x2="0" y2="300" stroke="#ddd" stroke-width="1" opacity="1"/><line transform="translate(231,-300)" x2="0" y2="300" stroke="#ddd" stroke-width="1" opacity="1"/><line transform="translate(277,-300)" x2="0" y2="300" stroke="#ddd" stroke-width="1" opacity="1"/></g></g><path class="foreground" aria-hidden="true" d="" pointer-events="none" display="none"/></g></g><g class="mark-group role-axis" aria-hidden="true"><g transform="translate(0.5,0.5)"><path class="background" aria-hidden="true" d="M0,0h0v0h0Z" pointer-events="none"/><g><g class="mark-rule role-axis-grid" pointer-events="none"><line transform="translate(0,254)" x2="300" y2="0" stroke="#ddd" stroke-width="1" opacity="1"/><line transform="translate(0,208)" x2="300" y2="0" stroke="#ddd" stroke-width="1" opacity="1"/><line transform="translate(0,162)" x2="300" y2="0" stroke="#ddd" stroke-width="1" opacity="1"/><line transform="translate(0,115)" x2="300" y2="0" stroke="#ddd" stroke-width="1" opacity="1"/><line transform="translate(0,69)" x2="300" y2="0" stroke="#ddd" stroke-width="1" opacity="1"/><line transform="translate(0,23)" x2="300" y2="0" stroke="#ddd" stroke-width="1" opacity="1"/></g></g><path class="foreground" aria-hidden="true" d="" pointer-events="none" display="none"/></g></g><g class="mark-group role-axis" role="graphics-symbol" aria-roledescription="axis" aria-label="X-axis titled 'Σ𝞿(yᵢ,sᵢ) / N' for a linear scale with values from 0 to 65"><g transform="translate(0.5,300.5)"><path class="background" aria-hidden="true" d="M0,0h0v0h0Z" pointer-events="none"/><g><g class="mark-rule role-axis-tick" pointer-events="none"><line transform="translate(46,0)" x2="0" y2="5" stroke="#888" stroke-width="1" opacity="1"/><line transform="translate(92,0)" x2="0" y2="5" stroke="#888" stroke-width="1" opacity="1"/><line transform="translate(138,0)" x2="0" y2="5" stroke="#888" stroke-width="1" opacity="1"/><line transform="translate(185,0)" x2="0" y2="5" stroke="#888" stroke-width="1" opacity="1"/><line transform="translate(231,0)" x2="0" y2="5" stroke="#888" stroke-width="1" opacity="1"/><line transform="translate(277,0)" x2="0" y2="5" stroke="#888" stroke-width="1" opacity="1"/></g><g class="mark-text role-axis-label" pointer-events="none"><text text-anchor="middle" transform="translate(46.12441178135769,21)" font-family="sans-serif" font-size="18px" fill="#000" opacity="1">10</text><text text-anchor="middle" transform="translate(92.26404572612175,21)" font-family="sans-serif" font-size="18px" fill="#000" opacity="1">20</text><text text-anchor="middle" transform="translate(138.40367967088577,21)" font-family="sans-serif" font-size="18px" fill="#000" opacity="1">30</text><text text-anchor="middle" transform="translate(184.54331361564982,21)" font-family="sans-serif" font-size="18px" fill="#000" opacity="1">40</text><text text-anchor="middle" transform="translate(230.68294756041385,21)" font-family="sans-serif" font-size="18px" fill="#000" opacity="1">50</text><text text-anchor="middle" transform="translate(276.8225815051779,21)" font-family="sans-serif" font-size="18px" fill="#000" opacity="1">60</text></g><g class="mark-rule role-axis-domain" pointer-events="none"><line transform="translate(0,0)" x2="300" y2="0" stroke="#888" stroke-width="1" opacity="1"/></g><g class="mark-text role-axis-title" pointer-events="none"><text text-anchor="middle" transform="translate(150,43)" font-family="sans-serif" font-size="18px" font-weight="bold" fill="#000" opacity="1">Σ𝞿(yᵢ,sᵢ) / N</text></g></g><path class="foreground" aria-hidden="true" d="" pointer-events="none" display="none"/></g></g><g class="mark-group role-axis" role="graphics-symbol" aria-roledescription="axis" aria-label="Y-axis titled '𝞿(y̅,s̅)' for a linear scale with values from 0 to 65"><g transform="translate(0.5,0.5)"><path class="background" aria-hidden="true" d="M0,0h0v0h0Z" pointer-events="none"/><g><g class="mark-rule role-axis-tick" pointer-events="none"><line transform="translate(0,254)" x2="-5" y2="0" stroke="#888" stroke-width="1" opacity="1"/><line transform="translate(0,208)" x2="-5" y2="0" stroke="#888" stroke-width="1" opacity="1"/><line transform="translate(0,162)" x2="-5" y2="0" stroke="#888" stroke-width="1" opacity="1"/><line transform="translate(0,115)" x2="-5" y2="0" stroke="#888" stroke-width="1" opacity="1"/><line transform="translate(0,69)" x2="-5" y2="0" stroke="#888" stroke-width="1" opacity="1"/><line transform="translate(0,23)" x2="-5" y2="0" stroke="#888" stroke-width="1" opacity="1"/></g><g class="mark-text role-axis-label" pointer-events="none"><text text-anchor="end" transform="translate(-7,258.8755882186423)" font-family="sans-serif" font-size="18px" fill="#000" opacity="1">10</text><text text-anchor="end" transform="translate(-7,212.73595427387826)" font-family="sans-serif" font-size="18px" fill="#000" opacity="1">20</text><text text-anchor="end" transform="translate(-7,166.59632032911423)" font-family="sans-serif" font-size="18px" fill="#000" opacity="1">30</text><text text-anchor="end" transform="translate(-7,120.45668638435018)" font-family="sans-serif" font-size="18px" fill="#000" opacity="1">40</text><text text-anchor="end" transform="translate(-7,74.31705243958615)" font-family="sans-serif" font-size="18px" fill="#000" opacity="1">50</text><text text-anchor="end" transform="translate(-7,28.17741849482212)" font-family="sans-serif" font-size="18px" fill="#000" opacity="1">60</text></g><g class="mark-rule role-axis-domain" pointer-events="none"><line transform="translate(0,300)" x2="0" y2="-300" stroke="#888" stroke-width="1" opacity="1"/></g><g class="mark-text role-axis-title" pointer-events="none"><text text-anchor="middle" transform="translate(-31.021484375,150) rotate(-90) translate(0,-4)" font-family="sans-serif" font-size="18px" font-weight="bold" fill="#000" opacity="1">𝞿(y̅,s̅)</text></g></g><path class="foreground" aria-hidden="true" d="" pointer-events="none" display="none"/></g></g><g class="mark-rule role-mark layer_0_marks" role="graphics-symbol" aria-roledescription="rule mark container"><line transform="translate(0,300)" x2="300" y2="-300" stroke="black" stroke-dasharray="8,8"/></g><g class="mark-symbol role-mark layer_1_marks" role="graphics-object" aria-roledescription="symbol mark container"><path aria-label="all_draws: 21.1556301546; mean: 21.1572954426" role="graphics-symbol" aria-roledescription="circle" transform="translate(97.59608095710084,202.39623546503188)" d="M3.873,0A3.873,3.873,0,1,1,-3.873,0A3.873,3.873,0,1,1,3.873,0" fill="#4c78a8" stroke-width="2" opacity="0.7"/><path aria-label="all_draws: 65.0233208444; mean: 65.0200033324" role="graphics-symbol" aria-roledescription="circle" transform="translate(300,0.015306878956378167)" d="M3.873,0A3.873,3.873,0,1,1,-3.873,0A3.873,3.873,0,1,1,3.873,0" fill="#4c78a8" stroke-width="2" opacity="0.7"/><path aria-label="all_draws: 17.3925266193; mean: 17.3942508002" role="graphics-symbol" aria-roledescription="circle" transform="translate(80.2332589953094,219.75878569682143)" d="M3.873,0A3.873,3.873,0,1,1,-3.873,0A3.873,3.873,0,1,1,3.873,0" fill="#4c78a8" stroke-width="2" opacity="0.7"/><path aria-label="all_draws: 12.8613791096; mean: 12.8592589657" role="graphics-symbol" aria-roledescription="circle" transform="translate(59.32671025082125,240.6830720157998)" d="M3.873,0A3.873,3.873,0,1,1,-3.873,0A3.873,3.873,0,1,1,3.873,0" fill="#4c78a8" stroke-width="2" opacity="0.7"/><path aria-label="all_draws: 34.4693343218; mean: 34.4639661184" role="graphics-symbol" aria-roledescription="circle" transform="translate(159.02502462923576,140.9997440644293)" d="M3.873,0A3.873,3.873,0,1,1,-3.873,0A3.873,3.873,0,1,1,3.873,0" fill="#4c78a8" stroke-width="2" opacity="0.7"/><path aria-label="all_draws: 11.5899507116; mean: 11.5878169916" role="graphics-symbol" aria-roledescription="circle" transform="translate(53.46038616371128,246.54945874231356)" d="M3.873,0A3.873,3.873,0,1,1,-3.873,0A3.873,3.873,0,1,1,3.873,0" fill="#4c78a8" stroke-width="2" opacity="0.7"/><path aria-label="all_draws: 6.88449103324; mean: 6.88505532577" role="graphics-symbol" aria-roledescription="circle" transform="translate(31.749567453565177,268.24782892137074)" d="M3.873,0A3.873,3.873,0,1,1,-3.873,0A3.873,3.873,0,1,1,3.873,0" fill="#4c78a8" stroke-width="2" opacity="0.7"/><path aria-label="all_draws: 24.3232586236; mean: 24.3213070967" role="graphics-symbol" aria-roledescription="circle" transform="translate(112.2114027603954,187.7976015132399)" d="M3.873,0A3.873,3.873,0,1,1,-3.873,0A3.873,3.873,0,1,1,3.873,0" fill="#4c78a8" stroke-width="2" opacity="0.7"/><path aria-label="all_draws: 4.39007406178; mean: 4.39089609913" role="graphics-symbol" aria-roledescription="circle" transform="translate(20.240418856679884,279.75578829307454)" d="M3.873,0A3.873,3.873,0,1,1,-3.873,0A3.873,3.873,0,1,1,3.873,0" fill="#4c78a8" stroke-width="2" opacity="0.7"/><path aria-label="all_draws: 0.184592618291; mean: 0.185565868362" role="graphics-symbol" aria-roledescription="circle" transform="translate(0.836481420277573,299.159028039518)" d="M3.873,0A3.873,3.873,0,1,1,-3.873,0A3.873,3.873,0,1,1,3.873,0" fill="#4c78a8" stroke-width="2" opacity="0.7"/><path aria-label="all_draws: 0.157910205879; mean: 0.159198247316" role="graphics-symbol" aria-roledescription="circle" transform="translate(0.7133697461330676,299.2806872778268)" d="M3.873,0A3.873,3.873,0,1,1,-3.873,0A3.873,3.873,0,1,1,3.873,0" fill="#4c78a8" stroke-width="2" opacity="0.7"/><path aria-label="all_draws: 0.216996954625; mean: 0.217908127837" role="graphics-symbol" aria-roledescription="circle" transform="translate(0.9859938419441507,299.00980203820876)" d="M3.873,0A3.873,3.873,0,1,1,-3.873,0A3.873,3.873,0,1,1,3.873,0" fill="#4c78a8" stroke-width="2" opacity="0.7"/><path aria-label="all_draws: 0.205916433324; mean: 0.206429034589" role="graphics-symbol" aria-roledescription="circle" transform="translate(0.9348687222705211,299.0627661542546)" d="M3.873,0A3.873,3.873,0,1,1,-3.873,0A3.873,3.873,0,1,1,3.873,0" fill="#4c78a8" stroke-width="2" opacity="0.7"/><path aria-label="all_draws: 1.50344106124; mean: 1.50451438053" role="graphics-symbol" aria-roledescription="circle" transform="translate(6.921599858888635,293.07344788515525)" d="M3.873,0A3.873,3.873,0,1,1,-3.873,0A3.873,3.873,0,1,1,3.873,0" fill="#4c78a8" stroke-width="2" opacity="0.7"/><path aria-label="all_draws: 0.121273479906; mean: 0.121575844929" role="graphics-symbol" aria-roledescription="circle" transform="translate(0.5443292335995707,299.45427566525126)" d="M3.873,0A3.873,3.873,0,1,1,-3.873,0A3.873,3.873,0,1,1,3.873,0" fill="#4c78a8" stroke-width="2" opacity="0.7"/><path aria-label="all_draws: 1.01925570231; mean: 1.0210136054" role="graphics-symbol" aria-roledescription="circle" transform="translate(4.68758633665287,295.304302762821)" d="M3.873,0A3.873,3.873,0,1,1,-3.873,0A3.873,3.873,0,1,1,3.873,0" fill="#4c78a8" stroke-width="2" opacity="0.7"/><path aria-label="all_draws: 4.56937613729; mean: 4.57101711104" role="graphics-symbol" aria-roledescription="circle" transform="translate(21.06771206965733,278.92471653753614)" d="M3.873,0A3.873,3.873,0,1,1,-3.873,0A3.873,3.873,0,1,1,3.873,0" fill="#4c78a8" stroke-width="2" opacity="0.7"/><path aria-label="all_draws: 1.07423038377; mean: 1.07596496112" role="graphics-symbol" aria-roledescription="circle" transform="translate(4.941237504560422,295.05075921907684)" d="M3.873,0A3.873,3.873,0,1,1,-3.873,0A3.873,3.873,0,1,1,3.873,0" fill="#4c78a8" stroke-width="2" opacity="0.7"/><path aria-label="all_draws: 0.649594307867; mean: 0.649630089376" role="graphics-symbol" aria-roledescription="circle" transform="translate(2.9819821943501212,297.0178527110739)" d="M3.873,0A3.873,3.873,0,1,1,-3.873,0A3.873,3.873,0,1,1,3.873,0" fill="#4c78a8" stroke-width="2" opacity="0.7"/><path aria-label="all_draws: 2.37011739026; mean: 2.37001362586" role="graphics-symbol" aria-roledescription="circle" transform="translate(10.920412715854285,289.08006604926067)" d="M3.873,0A3.873,3.873,0,1,1,-3.873,0A3.873,3.873,0,1,1,3.873,0" fill="#4c78a8" stroke-width="2" opacity="0.7"/><path aria-label="all_draws: 0.48257308426; mean: 0.482638465469" role="graphics-symbol" aria-roledescription="circle" transform="translate(2.2113523825269645,297.7883459509677)" d="M3.873,0A3.873,3.873,0,1,1,-3.873,0A3.873,3.873,0,1,1,3.873,0" fill="#4c78a8" stroke-width="2" opacity="0.7"/><path aria-label="all_draws: 0.211656343681; mean: 0.211597586743" role="graphics-symbol" aria-roledescription="circle" transform="translate(0.9613524585450279,299.0389186438127)" d="M3.873,0A3.873,3.873,0,1,1,-3.873,0A3.873,3.873,0,1,1,3.873,0" fill="#4c78a8" stroke-width="2" opacity="0.7"/><path aria-label="all_draws: 0.614875969789; mean: 0.614638270566" role="graphics-symbol" aria-roledescription="circle" transform="translate(2.8217930533451385,297.17930368217054)" d="M3.873,0A3.873,3.873,0,1,1,-3.873,0A3.873,3.873,0,1,1,3.873,0" fill="#4c78a8" stroke-width="2" opacity="0.7"/><path aria-label="all_draws: 0.206921214263; mean: 0.206835127525" role="graphics-symbol" aria-roledescription="circle" transform="translate(0.9395047447432845,299.06089245631347)" d="M3.873,0A3.873,3.873,0,1,1,-3.873,0A3.873,3.873,0,1,1,3.873,0" fill="#4c78a8" stroke-width="2" opacity="0.7"/><path aria-label="all_draws: 0.395378243147; mean: 0.395411573219" role="graphics-symbol" aria-roledescription="circle" transform="translate(1.8090385774444422,298.1908076388213)" d="M3.873,0A3.873,3.873,0,1,1,-3.873,0A3.873,3.873,0,1,1,3.873,0" fill="#4c78a8" stroke-width="2" opacity="0.7"/><path aria-label="all_draws: 1.54158855926; mean: 1.54165085267" role="graphics-symbol" aria-roledescription="circle" transform="translate(7.0976110183474415,292.9021015621375)" d="M3.873,0A3.873,3.873,0,1,1,-3.873,0A3.873,3.873,0,1,1,3.873,0" fill="#4c78a8" stroke-width="2" opacity="0.7"/><path aria-label="all_draws: 0.23683027395; mean: 0.236981064459" role="graphics-symbol" aria-roledescription="circle" transform="translate(1.0775040513005556,298.92180020680644)" d="M3.873,0A3.873,3.873,0,1,1,-3.873,0A3.873,3.873,0,1,1,3.873,0" fill="#4c78a8" stroke-width="2" opacity="0.7"/><path aria-label="all_draws: 0.00329915131632; mean: 0.00331211092539" role="graphics-symbol" aria-roledescription="circle" transform="translate(0,299.9999402048382)" d="M3.873,0A3.873,3.873,0,1,1,-3.873,0A3.873,3.873,0,1,1,3.873,0" fill="#4c78a8" stroke-width="2" opacity="0.7"/><path aria-label="all_draws: 0.00377817274933; mean: 0.0038011726858" role="graphics-symbol" aria-roledescription="circle" transform="translate(0.0022101873570631292,299.997683691778)" d="M3.873,0A3.873,3.873,0,1,1,-3.873,0A3.873,3.873,0,1,1,3.873,0" fill="#4c78a8" stroke-width="2" opacity="0.7"/><path aria-label="all_draws: 0.0038033691853; mean: 0.00379436649127" role="graphics-symbol" aria-roledescription="circle" transform="translate(0.0023264427902953515,299.9977150953104)" d="M3.873,0A3.873,3.873,0,1,1,-3.873,0A3.873,3.873,0,1,1,3.873,0" fill="#4c78a8" stroke-width="2" opacity="0.7"/><path aria-label="all_draws: 0.005472385621; mean: 0.00547413919821" role="graphics-symbol" aria-roledescription="circle" transform="translate(0.010027223529391035,299.9899646855295)" d="M3.873,0A3.873,3.873,0,1,1,-3.873,0A3.873,3.873,0,1,1,3.873,0" fill="#4c78a8" stroke-width="2" opacity="0.7"/><path aria-label="all_draws: 0.0450290811959; mean: 0.0450389409146" role="graphics-symbol" aria-roledescription="circle" transform="translate(0.19254036891857437,299.80741413870055)" d="M3.873,0A3.873,3.873,0,1,1,-3.873,0A3.873,3.873,0,1,1,3.873,0" fill="#4c78a8" stroke-width="2" opacity="0.7"/><path aria-label="all_draws: 0.00354810506038; mean: 0.00354971321982" role="graphics-symbol" aria-roledescription="circle" transform="translate(0.0011486634619913435,299.9988439165492)" d="M3.873,0A3.873,3.873,0,1,1,-3.873,0A3.873,3.873,0,1,1,3.873,0" fill="#4c78a8" stroke-width="2" opacity="0.7"/><path aria-label="all_draws: 0.033782729623; mean: 0.0338357370757" role="graphics-symbol" aria-roledescription="circle" transform="translate(0.14065011443960634,299.85910531111386)" d="M3.873,0A3.873,3.873,0,1,1,-3.873,0A3.873,3.873,0,1,1,3.873,0" fill="#4c78a8" stroke-width="2" opacity="0.7"/><path aria-label="all_draws: 0.164845608094; mean: 0.164883787632" role="graphics-symbol" aria-roledescription="circle" transform="translate(0.745369438078777,299.2544544029302)" d="M3.873,0A3.873,3.873,0,1,1,-3.873,0A3.873,3.873,0,1,1,3.873,0" fill="#4c78a8" stroke-width="2" opacity="0.7"/><path aria-label="all_draws: 0.0314789805162; mean: 0.0314774663735" role="graphics-symbol" aria-roledescription="circle" transform="translate(0.13002070039081057,299.86998628580807)" d="M3.873,0A3.873,3.873,0,1,1,-3.873,0A3.873,3.873,0,1,1,3.873,0" fill="#4c78a8" stroke-width="2" opacity="0.7"/><path aria-label="all_draws: 11.8406162233; mean: 11.8409194704" role="graphics-symbol" aria-roledescription="circle" transform="translate(54.61694765893979,245.38165317010936)" d="M3.873,0A3.873,3.873,0,1,1,-3.873,0A3.873,3.873,0,1,1,3.873,0" fill="#4c78a8" stroke-width="2" opacity="0.7"/><path aria-label="all_draws: 35.8595716789; mean: 35.8594184447" role="graphics-symbol" aria-roledescription="circle" transform="translate(165.43952890462808,134.5611781122419)" d="M3.873,0A3.873,3.873,0,1,1,-3.873,0A3.873,3.873,0,1,1,3.873,0" fill="#4c78a8" stroke-width="2" opacity="0.7"/><path aria-label="all_draws: 9.49704672619; mean: 9.49693249365" role="graphics-symbol" aria-roledescription="circle" transform="translate(43.803803786849954,256.19672327787987)" d="M3.873,0A3.873,3.873,0,1,1,-3.873,0A3.873,3.873,0,1,1,3.873,0" fill="#4c78a8" stroke-width="2" opacity="0.7"/><path aria-label="all_draws: 7.80929676016; mean: 7.80936749183" role="graphics-symbol" aria-roledescription="circle" transform="translate(36.016587224564816,263.98308642207246)" d="M3.873,0A3.873,3.873,0,1,1,-3.873,0A3.873,3.873,0,1,1,3.873,0" fill="#4c78a8" stroke-width="2" opacity="0.7"/><path aria-label="all_draws: 21.7498541206; mean: 21.7490948444" role="graphics-symbol" aria-roledescription="circle" transform="translate(100.33780858406547,199.6656946883761)" d="M3.873,0A3.873,3.873,0,1,1,-3.873,0A3.873,3.873,0,1,1,3.873,0" fill="#4c78a8" stroke-width="2" opacity="0.7"/><path aria-label="all_draws: 6.77283499858; mean: 6.77262573114" role="graphics-symbol" aria-roledescription="circle" transform="translate(31.2343905968812,268.76657495541787)" d="M3.873,0A3.873,3.873,0,1,1,-3.873,0A3.873,3.873,0,1,1,3.873,0" fill="#4c78a8" stroke-width="2" opacity="0.7"/><path aria-label="all_draws: 3.35614185204; mean: 3.35613651396" role="graphics-symbol" aria-roledescription="circle" transform="translate(15.46989348858865,284.5301311411342)" d="M3.873,0A3.873,3.873,0,1,1,-3.873,0A3.873,3.873,0,1,1,3.873,0" fill="#4c78a8" stroke-width="2" opacity="0.7"/><path aria-label="all_draws: 10.9510788332; mean: 10.9516903319" role="graphics-symbol" aria-roledescription="circle" transform="translate(50.51265470292726,249.4845238642226)" d="M3.873,0A3.873,3.873,0,1,1,-3.873,0A3.873,3.873,0,1,1,3.873,0" fill="#4c78a8" stroke-width="2" opacity="0.7"/><path aria-label="all_draws: 2.13140875808; mean: 2.13119662907" role="graphics-symbol" aria-roledescription="circle" transform="translate(9.819019825046027,290.1819589304533)" d="M3.873,0A3.873,3.873,0,1,1,-3.873,0A3.873,3.873,0,1,1,3.873,0" fill="#4c78a8" stroke-width="2" opacity="0.7"/><path aria-label="all_draws: 0.106692702957; mean: 0.106815459576" role="graphics-symbol" aria-roledescription="circle" transform="translate(0.47705406249350246,299.52237954296027)" d="M3.873,0A3.873,3.873,0,1,1,-3.873,0A3.873,3.873,0,1,1,3.873,0" fill="#4c78a8" stroke-width="2" opacity="0.7"/><path aria-label="all_draws: 0.0886428601157; mean: 0.0890644323829" role="graphics-symbol" aria-roledescription="circle" transform="translate(0.3937727483489661,299.6042821326417)" d="M3.873,0A3.873,3.873,0,1,1,-3.873,0A3.873,3.873,0,1,1,3.873,0" fill="#4c78a8" stroke-width="2" opacity="0.7"/><path aria-label="all_draws: 0.140045586668; mean: 0.140196682875" role="graphics-symbol" aria-roledescription="circle" transform="translate(0.6309430470396302,299.36835980059334)" d="M3.873,0A3.873,3.873,0,1,1,-3.873,0A3.873,3.873,0,1,1,3.873,0" fill="#4c78a8" stroke-width="2" opacity="0.7"/><path aria-label="all_draws: 0.104075341669; mean: 0.10406724714" role="graphics-symbol" aria-roledescription="circle" transform="translate(0.4649776533216922,299.5350596945394)" d="M3.873,0A3.873,3.873,0,1,1,-3.873,0A3.873,3.873,0,1,1,3.873,0" fill="#4c78a8" stroke-width="2" opacity="0.7"/><path aria-label="all_draws: 0.808642733664; mean: 0.808309041574" role="graphics-symbol" aria-roledescription="circle" transform="translate(3.7158258089299543,296.28571383415857)" d="M3.873,0A3.873,3.873,0,1,1,-3.873,0A3.873,3.873,0,1,1,3.873,0" fill="#4c78a8" stroke-width="2" opacity="0.7"/><path aria-label="all_draws: 0.0588390697575; mean: 0.0588408222943" role="graphics-symbol" aria-roledescription="circle" transform="translate(0.25625915061963367,299.74373276323973)" d="M3.873,0A3.873,3.873,0,1,1,-3.873,0A3.873,3.873,0,1,1,3.873,0" fill="#4c78a8" stroke-width="2" opacity="0.7"/><path aria-label="all_draws: 0.464409302465; mean: 0.464529674208" role="graphics-symbol" aria-roledescription="circle" transform="translate(2.127545358223018,297.8718992509629)" d="M3.873,0A3.873,3.873,0,1,1,-3.873,0A3.873,3.873,0,1,1,3.873,0" fill="#4c78a8" stroke-width="2" opacity="0.7"/><path aria-label="all_draws: 2.26135195344; mean: 2.26122956314" role="graphics-symbol" aria-roledescription="circle" transform="translate(10.41857297179528,289.5819917325851)" d="M3.873,0A3.873,3.873,0,1,1,-3.873,0A3.873,3.873,0,1,1,3.873,0" fill="#4c78a8" stroke-width="2" opacity="0.7"/><path aria-label="all_draws: 0.393920317952; mean: 0.394053605799" role="graphics-symbol" aria-roledescription="circle" transform="translate(1.8023117639640518,298.1970732507875)" d="M3.873,0A3.873,3.873,0,1,1,-3.873,0A3.873,3.873,0,1,1,3.873,0" fill="#4c78a8" stroke-width="2" opacity="0.7"/><path aria-label="all_draws: 8.66541845871; mean: 8.66665351148" role="graphics-symbol" aria-roledescription="circle" transform="translate(39.966701402905684,260.0276001088043)" d="M3.873,0A3.873,3.873,0,1,1,-3.873,0A3.873,3.873,0,1,1,3.873,0" fill="#4c78a8" stroke-width="2" opacity="0.7"/><path aria-label="all_draws: 26.7936322698; mean: 26.7905621892" role="graphics-symbol" aria-roledescription="circle" transform="translate(123.60961633439508,176.4045489050692)" d="M3.873,0A3.873,3.873,0,1,1,-3.873,0A3.873,3.873,0,1,1,3.873,0" fill="#4c78a8" stroke-width="2" opacity="0.7"/><path aria-label="all_draws: 7.4129067597; mean: 7.41476551792" role="graphics-symbol" aria-roledescription="circle" transform="translate(34.1876582725215,265.80376548510884)" d="M3.873,0A3.873,3.873,0,1,1,-3.873,0A3.873,3.873,0,1,1,3.873,0" fill="#4c78a8" stroke-width="2" opacity="0.7"/><path aria-label="all_draws: 4.84042448845; mean: 4.83818253376" role="graphics-symbol" aria-roledescription="circle" transform="translate(22.31831924003885,277.6920250568213)" d="M3.873,0A3.873,3.873,0,1,1,-3.873,0A3.873,3.873,0,1,1,3.873,0" fill="#4c78a8" stroke-width="2" opacity="0.7"/><path aria-label="all_draws: 12.1046051284; mean: 12.1002231745" role="graphics-symbol" aria-roledescription="circle" transform="translate(55.83498280372458,244.18523537147493)" d="M3.873,0A3.873,3.873,0,1,1,-3.873,0A3.873,3.873,0,1,1,3.873,0" fill="#4c78a8" stroke-width="2" opacity="0.7"/><path aria-label="all_draws: 4.6101930902; mean: 4.60843953867" role="graphics-symbol" aria-roledescription="circle" transform="translate(21.25603999622196,278.75205082634767)" d="M3.873,0A3.873,3.873,0,1,1,-3.873,0A3.873,3.873,0,1,1,3.873,0" fill="#4c78a8" stroke-width="2" opacity="0.7"/><path aria-label="all_draws: 3.1329711419; mean: 3.13349360216" role="graphics-symbol" aria-roledescription="circle" transform="translate(14.440192001249244,285.5573973862043)" d="M3.873,0A3.873,3.873,0,1,1,-3.873,0A3.873,3.873,0,1,1,3.873,0" fill="#4c78a8" stroke-width="2" opacity="0.7"/><path aria-label="all_draws: 11.8305891216; mean: 11.8279497921" role="graphics-symbol" aria-roledescription="circle" transform="translate(54.57068297862171,245.4414947908307)" d="M3.873,0A3.873,3.873,0,1,1,-3.873,0A3.873,3.873,0,1,1,3.873,0" fill="#4c78a8" stroke-width="2" opacity="0.7"/><path aria-label="all_draws: 2.02183360836; mean: 2.02273019144" role="graphics-symbol" aria-roledescription="circle" transform="translate(9.313444095293148,290.6824191031777)" d="M3.873,0A3.873,3.873,0,1,1,-3.873,0A3.873,3.873,0,1,1,3.873,0" fill="#4c78a8" stroke-width="2" opacity="0.7"/><path aria-label="all_draws: 0.0746092471205; mean: 0.0754325722809" role="graphics-symbol" aria-roledescription="circle" transform="translate(0.3290221716972207,299.66717903615114)" d="M3.873,0A3.873,3.873,0,1,1,-3.873,0A3.873,3.873,0,1,1,3.873,0" fill="#4c78a8" stroke-width="2" opacity="0.7"/><path aria-label="all_draws: 0.06550008267; mean: 0.0663355404163" role="graphics-symbol" aria-roledescription="circle" transform="translate(0.28699282036799506,299.7091524081729)" d="M3.873,0A3.873,3.873,0,1,1,-3.873,0A3.873,3.873,0,1,1,3.873,0" fill="#4c78a8" stroke-width="2" opacity="0.7"/><path aria-label="all_draws: 0.0731417655568; mean: 0.0739133553795" role="graphics-symbol" aria-roledescription="circle" transform="translate(0.32225126548022237,299.67418864732247)" d="M3.873,0A3.873,3.873,0,1,1,-3.873,0A3.873,3.873,0,1,1,3.873,0" fill="#4c78a8" stroke-width="2" opacity="0.7"/><path aria-label="all_draws: 0.0963675358066; mean: 0.0968959775472" role="graphics-symbol" aria-roledescription="circle" transform="translate(0.42941411922142253,299.56814766993165)" d="M3.873,0A3.873,3.873,0,1,1,-3.873,0A3.873,3.873,0,1,1,3.873,0" fill="#4c78a8" stroke-width="2" opacity="0.7"/><path aria-label="all_draws: 0.649768859749; mean: 0.651167237337" role="graphics-symbol" aria-roledescription="circle" transform="translate(2.98278757034449,297.01076036665324)" d="M3.873,0A3.873,3.873,0,1,1,-3.873,0A3.873,3.873,0,1,1,3.873,0" fill="#4c78a8" stroke-width="2" opacity="0.7"/><path aria-label="all_draws: 0.0588725354525; mean: 0.0591851967916" role="graphics-symbol" aria-roledescription="circle" transform="translate(0.2564135601115935,299.7421438319149)" d="M3.873,0A3.873,3.873,0,1,1,-3.873,0A3.873,3.873,0,1,1,3.873,0" fill="#4c78a8" stroke-width="2" opacity="0.7"/><path aria-label="all_draws: 0.521067378012; mean: 0.522647200239" role="graphics-symbol" aria-roledescription="circle" transform="translate(2.3889636447982654,297.603747113278)" d="M3.873,0A3.873,3.873,0,1,1,-3.873,0A3.873,3.873,0,1,1,3.873,0" fill="#4c78a8" stroke-width="2" opacity="0.7"/><path aria-label="all_draws: 2.1431786186; mean: 2.14490729257" role="graphics-symbol" aria-roledescription="circle" transform="translate(9.873325530650876,290.1186984309256)" d="M3.873,0A3.873,3.873,0,1,1,-3.873,0A3.873,3.873,0,1,1,3.873,0" fill="#4c78a8" stroke-width="2" opacity="0.7"/><path aria-label="all_draws: 0.648828741882; mean: 0.650434732655" role="graphics-symbol" aria-roledescription="circle" transform="translate(2.9784499009225254,297.0141401164415)" d="M3.873,0A3.873,3.873,0,1,1,-3.873,0A3.873,3.873,0,1,1,3.873,0" fill="#4c78a8" stroke-width="2" opacity="0.7"/></g></g><path class="foreground" aria-hidden="true" d="" display="none"/></g></g></g></svg>