<svg xmlns="http://www.w3.org/2000/svg" xmlns:xlink="http://www.w3.org/1999/xlink" version="1.1" class="marks" width="366" height="366" viewBox="0 0 366 366"><rect width="366" height="366" fill="white"/><g fill="none" stroke-miterlimit="10" transform="translate(60,14)"><g class="mark-group role-frame root" role="graphics-object" aria-roledescription="group mark container"><g transform="translate(0,0)"><path class="background" aria-hidden="true" d="M0.5,0.5h300v300h-300Z" stroke="#ddd"/><g><g class="mark-group role-axis" aria-hidden="true"><g transform="translate(0.5,300.5)"><path class="background" aria-hidden="true" d="M0,0h0v0h0Z" pointer-events="none"/><g><g class="mark-rule role-axis-grid" pointer-events="none"><line transform="translate(37,-300)" x2="0" y2="300" stroke="#ddd" stroke-width="1" opacity="1"/><line transform="translate(75,-300)" x2="0" y2="300" stroke="#ddd" stroke-width="1" opacity="1"/><line transform="translate(112,-300)" x2="0" y2="300" stroke="#ddd" stroke-width="1" opacity="1"/><line transform="translate(149,-300)" x2="0" y2="300" stroke="#ddd" stroke-width="1" opacity="1"/><line transform="translate(187,-300)" x2="0" y2="300" stroke="#ddd" stroke-width="1" opacity="1"/><line transform="translate(224,-300)" x2="0" y2="300" stroke="#ddd" stroke-width="1" opacity="1"/><line transform="translate(262,-300)" x2="0" y2="300" stroke="#ddd" stroke-width="1" opacity="1"/><line transform="translate(299,-300)" x2="0" y2="300" stroke="#ddd" stroke-width="1" opacity="1"/></g></g><path class="foreground" aria-hidden="true" d="" pointer-events="none" display="none"/></g></g><g class="mark-group role-axis" aria-hidden="true"><g transform="translate(0.5,0.5)"><path class="background" aria-hidden="true" d="M0,0h0v0h0Z" pointer-events="none"/><g><g class="mark-rule role-axis-grid" pointer-events="none"><line transform="translate(0,263)" x2="300" y2="0" stroke="#ddd" stroke-width="1" opacity="1"/><line transform="translate(0,225)" x2="300" y2="0" stroke="#ddd" stroke-width="1" opacity="1"/><line transform="translate(0,188)" x2="300" y2="0" stroke="#ddd" stroke-width="1" opacity="1"/><line transform="translate(0,151)" x2="300" y2="0" stroke="#ddd" stroke-width="1" opacity="1"/><line transform="translate(0,113)" x2="300" y2="0" stroke="#ddd" stroke-width="1" opacity="1"/><line transform="translate(0,76)" x2="300" y2="0" stroke="#ddd" stroke-width="1" opacity="1"/><line transform="translate(0,38)" x2="300" y2="0" stroke="#ddd" stroke-width="1" opacity="1"/><line transform="translate(0,1)" x2="300" y2="0" stroke="#ddd" stroke-width="1" opacity="1"/></g></g><path class="foreground" aria-hidden="true" d="" pointer-events="none" display="none"/></g></g><g class="mark-group role-axis" role="graphics-symbol" aria-roledescription="axis" aria-label="X-axis titled 'ฮฃ(๐ฟ(yแตข,sแตข)-๐ซ)ยฒ / N' for a linear scale with values from 0.0 to 1.6"><g transform="translate(0.5,300.5)"><path class="background" aria-hidden="true" d="M0,0h0v0h0Z" pointer-events="none"/><g><g class="mark-rule role-axis-tick" pointer-events="none"><line transform="translate(37,0)" x2="0" y2="5" stroke="#888" stroke-width="1" opacity="1"/><line transform="translate(75,0)" x2="0" y2="5" stroke="#888" stroke-width="1" opacity="1"/><line transform="translate(112,0)" x2="0" y2="5" stroke="#888" stroke-width="1" opacity="1"/><line transform="translate(149,0)" x2="0" y2="5" stroke="#888" stroke-width="1" opacity="1"/><line transform="translate(187,0)" x2="0" y2="5" stroke="#888" stroke-width="1" opacity="1"/><line transform="translate(224,0)" x2="0" y2="5" stroke="#888" stroke-width="1" opacity="1"/><line transform="translate(262,0)" x2="0" y2="5" stroke="#888" stroke-width="1" opacity="1"/><line transform="translate(299,0)" x2="0" y2="5" stroke="#888" stroke-width="1" opacity="1"/></g><g class="mark-text role-axis-label" pointer-events="none"><text text-anchor="middle" transform="translate(37.28423212247661,21)" font-family="sans-serif" font-size="18px" fill="#000" opacity="1">0.2</text><text text-anchor="middle" transform="translate(74.6807551115596,21)" font-family="sans-serif" font-size="18px" fill="#000" opacity="0">0.4</text><text text-anchor="middle" transform="translate(112.07727810064257,21)" font-family="sans-serif" font-size="18px" fill="#000" opacity="1">0.6</text><text text-anchor="middle" transform="translate(149.47380108972555,21)" font-family="sans-serif" font-size="18px" fill="#000" opacity="0">0.8</text><text text-anchor="middle" transform="translate(186.87032407880855,21)" font-family="sans-serif" font-size="18px" fill="#000" opacity="1">1.0</text><text text-anchor="middle" transform="translate(224.26684706789152,21)" font-family="sans-serif" font-size="18px" fill="#000" opacity="0">1.2</text><text text-anchor="middle" transform="translate(261.6633700569745,21)" font-family="sans-serif" font-size="18px" fill="#000" opacity="1">1.4</text><text text-anchor="end" transform="translate(299.0598930460575,21)" font-family="sans-serif" font-size="18px" fill="#000" opacity="0">1.6</text></g><g class="mark-rule role-axis-domain" pointer-events="none"><line transform="translate(0,0)" x2="300" y2="0" stroke="#888" stroke-width="1" opacity="1"/></g><g class="mark-text role-axis-title" pointer-events="none"><text text-anchor="middle" transform="translate(150,43)" font-family="sans-serif" font-size="18px" font-weight="bold" fill="#000" opacity="1">ฮฃ(๐ฟ(yแตข,sแตข)-๐ซ)ยฒ / N</text></g></g><path class="foreground" aria-hidden="true" d="" pointer-events="none" display="none"/></g></g><g class="mark-group role-axis" role="graphics-symbol" aria-roledescription="axis" aria-label="Y-axis titled '๐ฟ'๐ฎ๐ฟ'แต' for a linear scale with values from 0.0 to 1.6"><g transform="translate(0.5,0.5)"><path class="background" aria-hidden="true" d="M0,0h0v0h0Z" pointer-events="none"/><g><g class="mark-rule role-axis-tick" pointer-events="none"><line transform="translate(0,263)" x2="-5" y2="0" stroke="#888" stroke-width="1" opacity="1"/><line transform="translate(0,225)" x2="-5" y2="0" stroke="#888" stroke-width="1" opacity="1"/><line transform="translate(0,188)" x2="-5" y2="0" stroke="#888" stroke-width="1" opacity="1"/><line transform="translate(0,151)" x2="-5" y2="0" stroke="#888" stroke-width="1" opacity="1"/><line transform="translate(0,113)" x2="-5" y2="0" stroke="#888" stroke-width="1" opacity="1"/><line transform="translate(0,76)" x2="-5" y2="0" stroke="#888" stroke-width="1" opacity="1"/><line transform="translate(0,38)" x2="-5" y2="0" stroke="#888" stroke-width="1" opacity="1"/><line transform="translate(0,1)" x2="-5" y2="0" stroke="#888" stroke-width="1" opacity="1"/></g><g class="mark-text role-axis-label" pointer-events="none"><text text-anchor="end" transform="translate(-7,267.7157678775234)" font-family="sans-serif" font-size="18px" fill="#000" opacity="1">0.2</text><text text-anchor="end" transform="translate(-7,230.3192448884404)" font-family="sans-serif" font-size="18px" fill="#000" opacity="1">0.4</text><text text-anchor="end" transform="translate(-7,192.9227218993574)" font-family="sans-serif" font-size="18px" fill="#000" opacity="1">0.6</text><text text-anchor="end" transform="translate(-7,155.52619891027445)" font-family="sans-serif" font-size="18px" fill="#000" opacity="1">0.8</text><text text-anchor="end" transform="translate(-7,118.12967592119143)" font-family="sans-serif" font-size="18px" fill="#000" opacity="1">1.0</text><text text-anchor="end" transform="translate(-7,80.73315293210848)" font-family="sans-serif" font-size="18px" fill="#000" opacity="1">1.2</text><text text-anchor="end" transform="translate(-7,43.33662994302552)" font-family="sans-serif" font-size="18px" fill="#000" opacity="1">1.4</text><text text-anchor="end" transform="translate(-7,5.940106953942498)" font-family="sans-serif" font-size="18px" fill="#000" opacity="1">1.6</text></g><g class="mark-rule role-axis-domain" pointer-events="none"><line transform="translate(0,300)" x2="0" y2="-300" stroke="#888" stroke-width="1" opacity="1"/></g><g class="mark-text role-axis-title" pointer-events="none"><text text-anchor="middle" transform="translate(-36.0224609375,150) rotate(-90) translate(0,-4)" font-family="sans-serif" font-size="18px" font-weight="bold" fill="#000" opacity="1">๐ฟ'๐ฎ๐ฟ'แต</text></g></g><path class="foreground" aria-hidden="true" d="" pointer-events="none" display="none"/></g></g><g class="mark-rule role-mark layer_0_marks" role="graphics-symbol" aria-roledescription="rule mark container"><line transform="translate(0,300)" x2="300" y2="-300" stroke="black" stroke-dasharray="8,8"/></g><g class="mark-symbol role-mark layer_1_marks" role="graphics-object" aria-roledescription="symbol mark container"><path aria-label="all_draws: 0.282360222935; delta_method: 0.530642434623" role="graphics-symbol" aria-roledescription="circle" transform="translate(52.68416197431776,200.89138083977684)" d="M3.873,0A3.873,3.873,0,1,1,-3.873,0A3.873,3.873,0,1,1,3.873,0" fill="#4c78a8" stroke-width="2" opacity="0.7"/><path aria-label="all_draws: 0.830080907951; delta_method: 1.60502777734" role="graphics-symbol" aria-roledescription="circle" transform="translate(155.09840791838337,0)" d="M3.873,0A3.873,3.873,0,1,1,-3.873,0A3.873,3.873,0,1,1,3.873,0" fill="#4c78a8" stroke-width="2" opacity="0.7"/><path aria-label="all_draws: 0.223650620024; delta_method: 0.437519026975" role="graphics-symbol" aria-roledescription="circle" transform="translate(41.70648689965288,218.30383911448718)" d="M3.873,0A3.873,3.873,0,1,1,-3.873,0A3.873,3.873,0,1,1,3.873,0" fill="#4c78a8" stroke-width="2" opacity="0.7"/><path aria-label="all_draws: 0.170984433964; delta_method: 0.32934733454" role="graphics-symbol" aria-roledescription="circle" transform="translate(31.85882571100041,238.5300650289957)" d="M3.873,0A3.873,3.873,0,1,1,-3.873,0A3.873,3.873,0,1,1,3.873,0" fill="#4c78a8" stroke-width="2" opacity="0.7"/><path aria-label="all_draws: 0.464685089935; delta_method: 0.866972312153" role="graphics-symbol" aria-roledescription="circle" transform="translate(86.77574237565439,138.00354085502897)" d="M3.873,0A3.873,3.873,0,1,1,-3.873,0A3.873,3.873,0,1,1,3.873,0" fill="#4c78a8" stroke-width="2" opacity="0.7"/><path aria-label="all_draws: 0.152201587892; delta_method: 0.296175849388" role="graphics-symbol" aria-roledescription="circle" transform="translate(28.34676003636963,244.73255606428935)" d="M3.873,0A3.873,3.873,0,1,1,-3.873,0A3.873,3.873,0,1,1,3.873,0" fill="#4c78a8" stroke-width="2" opacity="0.7"/><path aria-label="all_draws: 0.140650515777; delta_method: 0.194035141381" role="graphics-symbol" aria-roledescription="circle" transform="translate(26.18691036676818,263.8310927398695)" d="M3.873,0A3.873,3.873,0,1,1,-3.873,0A3.873,3.873,0,1,1,3.873,0" fill="#4c78a8" stroke-width="2" opacity="0.7"/><path aria-label="all_draws: 0.371936146182; delta_method: 0.62452041409" role="graphics-symbol" aria-roledescription="circle" transform="translate(69.43330233917789,183.3378307532312)" d="M3.873,0A3.873,3.873,0,1,1,-3.873,0A3.873,3.873,0,1,1,3.873,0" fill="#4c78a8" stroke-width="2" opacity="0.7"/><path aria-label="all_draws: 0.0975518084238; delta_method: 0.130516250536" role="graphics-symbol" aria-roledescription="circle" transform="translate(18.12820136512437,275.70802104853567)" d="M3.873,0A3.873,3.873,0,1,1,-3.873,0A3.873,3.873,0,1,1,3.873,0" fill="#4c78a8" stroke-width="2" opacity="0.7"/><path aria-label="all_draws: 0.0271477048818; delta_method: 0.0200381984212" role="graphics-symbol" aria-roledescription="circle" transform="translate(4.9638579819509925,296.3654961270127)" d="M3.873,0A3.873,3.873,0,1,1,-3.873,0A3.873,3.873,0,1,1,3.873,0" fill="#4c78a8" stroke-width="2" opacity="0.7"/><path aria-label="all_draws: 0.0244736685541; delta_method: 0.0192435105103" role="graphics-symbol" aria-roledescription="circle" transform="translate(4.463859676937499,296.5140889506678)" d="M3.873,0A3.873,3.873,0,1,1,-3.873,0A3.873,3.873,0,1,1,3.873,0" fill="#4c78a8" stroke-width="2" opacity="0.7"/><path aria-label="all_draws: 0.0333296029781; delta_method: 0.0234772355859" role="graphics-symbol" aria-roledescription="circle" transform="translate(6.119765453337408,295.7224559650579)" d="M3.873,0A3.873,3.873,0,1,1,-3.873,0A3.873,3.873,0,1,1,3.873,0" fill="#4c78a8" stroke-width="2" opacity="0.7"/><path aria-label="all_draws: 0.0152420061052; delta_method: 0.013350657248" role="graphics-symbol" aria-roledescription="circle" transform="translate(2.7376992919644954,297.6159500631376)" d="M3.873,0A3.873,3.873,0,1,1,-3.873,0A3.873,3.873,0,1,1,3.873,0" fill="#4c78a8" stroke-width="2" opacity="0.7"/><path aria-label="all_draws: 0.10760355186; delta_method: 0.0795570063004" role="graphics-symbol" aria-roledescription="circle" transform="translate(20.007702637573807,285.23651379133673)" d="M3.873,0A3.873,3.873,0,1,1,-3.873,0A3.873,3.873,0,1,1,3.873,0" fill="#4c78a8" stroke-width="2" opacity="0.7"/><path aria-label="all_draws: 0.00947926347687; delta_method: 0.0081082902708" role="graphics-symbol" aria-roledescription="circle" transform="translate(1.660166606055019,298.59618154903495)" d="M3.873,0A3.873,3.873,0,1,1,-3.873,0A3.873,3.873,0,1,1,3.873,0" fill="#4c78a8" stroke-width="2" opacity="0.7"/><path aria-label="all_draws: 0.0504926851675; delta_method: 0.0525560902861" role="graphics-symbol" aria-roledescription="circle" transform="translate(9.32896344162837,290.2852156736133)" d="M3.873,0A3.873,3.873,0,1,1,-3.873,0A3.873,3.873,0,1,1,3.873,0" fill="#4c78a8" stroke-width="2" opacity="0.7"/><path aria-label="all_draws: 0.161818321556; delta_method: 0.16028497596" role="graphics-symbol" aria-roledescription="circle" transform="translate(30.14492204398167,270.1417869250619)" d="M3.873,0A3.873,3.873,0,1,1,-3.873,0A3.873,3.873,0,1,1,3.873,0" fill="#4c78a8" stroke-width="2" opacity="0.7"/><path aria-label="all_draws: 0.0549672160071; delta_method: 0.0558831168191" role="graphics-symbol" aria-roledescription="circle" transform="translate(10.1656229186722,289.66311955247033)" d="M3.873,0A3.873,3.873,0,1,1,-3.873,0A3.873,3.873,0,1,1,3.873,0" fill="#4c78a8" stroke-width="2" opacity="0.7"/><path aria-label="all_draws: 0.022988997176; delta_method: 0.0237027220334" role="graphics-symbol" aria-roledescription="circle" transform="translate(4.186251940334717,295.68029391946897)" d="M3.873,0A3.873,3.873,0,1,1,-3.873,0A3.873,3.873,0,1,1,3.873,0" fill="#4c78a8" stroke-width="2" opacity="0.7"/><path aria-label="all_draws: 0.0721519855095; delta_method: 0.0710690704206" role="graphics-symbol" aria-roledescription="circle" transform="translate(13.378876057454775,286.8236102376184)" d="M3.873,0A3.873,3.873,0,1,1,-3.873,0A3.873,3.873,0,1,1,3.873,0" fill="#4c78a8" stroke-width="2" opacity="0.7"/><path aria-label="all_draws: 0.0165445000898; delta_method: 0.0182486416879" role="graphics-symbol" aria-roledescription="circle" transform="translate(2.981243023157245,296.70011212459497)" d="M3.873,0A3.873,3.873,0,1,1,-3.873,0A3.873,3.873,0,1,1,3.873,0" fill="#4c78a8" stroke-width="2" opacity="0.7"/><path aria-label="all_draws: 0.0106031107904; delta_method: 0.0108411230857" role="graphics-symbol" aria-roledescription="circle" transform="translate(1.8703065155432388,298.08518932309295)" d="M3.873,0A3.873,3.873,0,1,1,-3.873,0A3.873,3.873,0,1,1,3.873,0" fill="#4c78a8" stroke-width="2" opacity="0.7"/><path aria-label="all_draws: 0.0249147070621; delta_method: 0.0257749050262" role="graphics-symbol" aria-roledescription="circle" transform="translate(4.546326210462885,295.2928317248459)" d="M3.873,0A3.873,3.873,0,1,1,-3.873,0A3.873,3.873,0,1,1,3.873,0" fill="#4c78a8" stroke-width="2" opacity="0.7"/><path aria-label="all_draws: 0.00984755570044; delta_method: 0.00983644832534" role="graphics-symbol" aria-roledescription="circle" transform="translate(1.7290308490817343,298.27304603695944)" d="M3.873,0A3.873,3.873,0,1,1,-3.873,0A3.873,3.873,0,1,1,3.873,0" fill="#4c78a8" stroke-width="2" opacity="0.7"/><path aria-label="all_draws: 0.0184727986771; delta_method: 0.0188224464714" role="graphics-symbol" aria-roledescription="circle" transform="translate(3.3418013354068417,296.59282060571377)" d="M3.873,0A3.873,3.873,0,1,1,-3.873,0A3.873,3.873,0,1,1,3.873,0" fill="#4c78a8" stroke-width="2" opacity="0.7"/><path aria-label="all_draws: 0.0494975445363; delta_method: 0.0523683830613" role="graphics-symbol" aria-roledescription="circle" transform="translate(9.142889444159753,290.3203136613454)" d="M3.873,0A3.873,3.873,0,1,1,-3.873,0A3.873,3.873,0,1,1,3.873,0" fill="#4c78a8" stroke-width="2" opacity="0.7"/><path aria-label="all_draws: 0.0109618014627; delta_method: 0.0133393513814" role="graphics-symbol" aria-roledescription="circle" transform="translate(1.9373754354051127,297.61806406363684)" d="M3.873,0A3.873,3.873,0,1,1,-3.873,0A3.873,3.873,0,1,1,3.873,0" fill="#4c78a8" stroke-width="2" opacity="0.7"/><path aria-label="all_draws: 0.000892764104336; delta_method: 0.0010468907778" role="graphics-symbol" aria-roledescription="circle" transform="translate(0.054640500151799914,299.91654049141056)" d="M3.873,0A3.873,3.873,0,1,1,-3.873,0A3.873,3.873,0,1,1,3.873,0" fill="#4c78a8" stroke-width="2" opacity="0.7"/><path aria-label="all_draws: 0.000963272748921; delta_method: 0.00112586973702" role="graphics-symbol" aria-roledescription="circle" transform="translate(0.067824390892584,299.9017727990904)" d="M3.873,0A3.873,3.873,0,1,1,-3.873,0A3.873,3.873,0,1,1,3.873,0" fill="#4c78a8" stroke-width="2" opacity="0.7"/><path aria-label="all_draws: 0.001404285909; delta_method: 0.00140610671591" role="graphics-symbol" aria-roledescription="circle" transform="translate(0.15028618478985406,299.84937335597357)" d="M3.873,0A3.873,3.873,0,1,1,-3.873,0A3.873,3.873,0,1,1,3.873,0" fill="#4c78a8" stroke-width="2" opacity="0.7"/><path aria-label="all_draws: 0.000855337066943; delta_method: 0.000928573250016" role="graphics-symbol" aria-roledescription="circle" transform="translate(0.04764229483039281,299.93866381215)" d="M3.873,0A3.873,3.873,0,1,1,-3.873,0A3.873,3.873,0,1,1,3.873,0" fill="#4c78a8" stroke-width="2" opacity="0.7"/><path aria-label="all_draws: 0.00542459459651; delta_method: 0.00643948773234" role="graphics-symbol" aria-roledescription="circle" transform="translate(0.902014016068189,298.9082186115048)" d="M3.873,0A3.873,3.873,0,1,1,-3.873,0A3.873,3.873,0,1,1,3.873,0" fill="#4c78a8" stroke-width="2" opacity="0.7"/><path aria-label="all_draws: 0.00060054174897; delta_method: 0.000639527515639" role="graphics-symbol" aria-roledescription="circle" transform="translate(0,299.99271033940255)" d="M3.873,0A3.873,3.873,0,1,1,-3.873,0A3.873,3.873,0,1,1,3.873,0" fill="#4c78a8" stroke-width="2" opacity="0.7"/><path aria-label="all_draws: 0.0036811229635; delta_method: 0.00430820817711" role="graphics-symbol" aria-roledescription="circle" transform="translate(0.5760151310453435,299.30673083592126)" d="M3.873,0A3.873,3.873,0,1,1,-3.873,0A3.873,3.873,0,1,1,3.873,0" fill="#4c78a8" stroke-width="2" opacity="0.7"/><path aria-label="all_draws: 0.0132772561092; delta_method: 0.0145496322327" role="graphics-symbol" aria-roledescription="circle" transform="translate(2.370325200000489,297.39176258523963)" d="M3.873,0A3.873,3.873,0,1,1,-3.873,0A3.873,3.873,0,1,1,3.873,0" fill="#4c78a8" stroke-width="2" opacity="0.7"/><path aria-label="all_draws: 0.00418709360403; delta_method: 0.00429773174214" role="graphics-symbol" aria-roledescription="circle" transform="translate(0.6706228444962032,299.30868974712786)" d="M3.873,0A3.873,3.873,0,1,1,-3.873,0A3.873,3.873,0,1,1,3.873,0" fill="#4c78a8" stroke-width="2" opacity="0.7"/><path aria-label="all_draws: 0.382790194631; delta_method: 0.38606933771" role="graphics-symbol" aria-roledescription="circle" transform="translate(71.4628207009061,227.92403655142337)" d="M3.873,0A3.873,3.873,0,1,1,-3.873,0A3.873,3.873,0,1,1,3.873,0" fill="#4c78a8" stroke-width="2" opacity="0.7"/><path aria-label="all_draws: 1.17137395728; delta_method: 1.15789066058" role="graphics-symbol" aria-roledescription="circle" transform="translate(218.91427474510454,83.60686733036646)" d="M3.873,0A3.873,3.873,0,1,1,-3.873,0A3.873,3.873,0,1,1,3.873,0" fill="#4c78a8" stroke-width="2" opacity="0.7"/><path aria-label="all_draws: 0.310850074518; delta_method: 0.313035445093" role="graphics-symbol" aria-roledescription="circle" transform="translate(58.01126892274527,241.58010477250258)" d="M3.873,0A3.873,3.873,0,1,1,-3.873,0A3.873,3.873,0,1,1,3.873,0" fill="#4c78a8" stroke-width="2" opacity="0.7"/><path aria-label="all_draws: 0.255194343575; delta_method: 0.255951605632" role="graphics-symbol" aria-roledescription="circle" transform="translate(47.6046148143164,252.25379034606868)" d="M3.873,0A3.873,3.873,0,1,1,-3.873,0A3.873,3.873,0,1,1,3.873,0" fill="#4c78a8" stroke-width="2" opacity="0.7"/><path aria-label="all_draws: 0.694024063203; delta_method: 0.695149804308" role="graphics-symbol" aria-roledescription="circle" transform="translate(129.6581433061211,170.13136267823702)" d="M3.873,0A3.873,3.873,0,1,1,-3.873,0A3.873,3.873,0,1,1,3.873,0" fill="#4c78a8" stroke-width="2" opacity="0.7"/><path aria-label="all_draws: 0.223208021603; delta_method: 0.223975899885" role="graphics-symbol" aria-roledescription="circle" transform="translate(41.62372868951509,258.232691421302)" d="M3.873,0A3.873,3.873,0,1,1,-3.873,0A3.873,3.873,0,1,1,3.873,0" fill="#4c78a8" stroke-width="2" opacity="0.7"/><path aria-label="all_draws: 0.115298542106; delta_method: 0.122625396384" role="graphics-symbol" aria-roledescription="circle" transform="translate(21.446532035696094,277.1834735920347)" d="M3.873,0A3.873,3.873,0,1,1,-3.873,0A3.873,3.873,0,1,1,3.873,0" fill="#4c78a8" stroke-width="2" opacity="0.7"/><path aria-label="all_draws: 0.373991494929; delta_method: 0.384027586019" role="graphics-symbol" aria-roledescription="circle" transform="translate(69.81761682259736,228.30580862152289)" d="M3.873,0A3.873,3.873,0,1,1,-3.873,0A3.873,3.873,0,1,1,3.873,0" fill="#4c78a8" stroke-width="2" opacity="0.7"/><path aria-label="all_draws: 0.0781103286342; delta_method: 0.0796277145459" role="graphics-symbol" aria-roledescription="circle" transform="translate(14.492982635668278,285.2232925786866)" d="M3.873,0A3.873,3.873,0,1,1,-3.873,0A3.873,3.873,0,1,1,3.873,0" fill="#4c78a8" stroke-width="2" opacity="0.7"/><path aria-label="all_draws: 0.0162941079805; delta_method: 0.0157136014348" role="graphics-symbol" aria-roledescription="circle" transform="translate(2.934424051784932,297.1741205801093)" d="M3.873,0A3.873,3.873,0,1,1,-3.873,0A3.873,3.873,0,1,1,3.873,0" fill="#4c78a8" stroke-width="2" opacity="0.7"/><path aria-label="all_draws: 0.015876234092; delta_method: 0.015556198256" role="graphics-symbol" aria-roledescription="circle" transform="translate(2.856288899397346,297.2035522380844)" d="M3.873,0A3.873,3.873,0,1,1,-3.873,0A3.873,3.873,0,1,1,3.873,0" fill="#4c78a8" stroke-width="2" opacity="0.7"/><path aria-label="all_draws: 0.0201167720076; delta_method: 0.0190276331544" role="graphics-symbol" aria-roledescription="circle" transform="translate(3.6491957676400983,296.55445426317067)" d="M3.873,0A3.873,3.873,0,1,1,-3.873,0A3.873,3.873,0,1,1,3.873,0" fill="#4c78a8" stroke-width="2" opacity="0.7"/><path aria-label="all_draws: 0.00985571127392; delta_method: 0.00893227211241" role="graphics-symbol" aria-roledescription="circle" transform="translate(1.7305557995374141,298.4421112696249)" d="M3.873,0A3.873,3.873,0,1,1,-3.873,0A3.873,3.873,0,1,1,3.873,0" fill="#4c78a8" stroke-width="2" opacity="0.7"/><path aria-label="all_draws: 0.0659795484341; delta_method: 0.059266367656" role="graphics-symbol" aria-roledescription="circle" transform="translate(12.224737632514913,289.03051046396723)" d="M3.873,0A3.873,3.873,0,1,1,-3.873,0A3.873,3.873,0,1,1,3.873,0" fill="#4c78a8" stroke-width="2" opacity="0.7"/><path aria-label="all_draws: 0.00613951528543; delta_method: 0.00563606405922" role="graphics-symbol" aria-roledescription="circle" transform="translate(1.0356917559602636,299.0584448708136)" d="M3.873,0A3.873,3.873,0,1,1,-3.873,0A3.873,3.873,0,1,1,3.873,0" fill="#4c78a8" stroke-width="2" opacity="0.7"/><path aria-label="all_draws: 0.0342539234882; delta_method: 0.0318145178251" role="graphics-symbol" aria-roledescription="circle" transform="translate(6.292597319356889,294.16352913044705)" d="M3.873,0A3.873,3.873,0,1,1,-3.873,0A3.873,3.873,0,1,1,3.873,0" fill="#4c78a8" stroke-width="2" opacity="0.7"/><path aria-label="all_draws: 0.118862613881; delta_method: 0.108394311963" role="graphics-symbol" aria-roledescription="circle" transform="translate(22.112951496122975,279.8444389706103)" d="M3.873,0A3.873,3.873,0,1,1,-3.873,0A3.873,3.873,0,1,1,3.873,0" fill="#4c78a8" stroke-width="2" opacity="0.7"/><path aria-label="all_draws: 0.030982165347; delta_method: 0.0296177766348" role="graphics-symbol" aria-roledescription="circle" transform="translate(5.6808354266380405,294.5742815425634)" d="M3.873,0A3.873,3.873,0,1,1,-3.873,0A3.873,3.873,0,1,1,3.873,0" fill="#4c78a8" stroke-width="2" opacity="0.7"/><path aria-label="all_draws: 0.388103739598; delta_method: 0.373484900982" role="graphics-symbol" aria-roledescription="circle" transform="translate(72.45636123355519,230.2771074384256)" d="M3.873,0A3.873,3.873,0,1,1,-3.873,0A3.873,3.873,0,1,1,3.873,0" fill="#4c78a8" stroke-width="2" opacity="0.7"/><path aria-label="all_draws: 1.11115703219; delta_method: 1.1071653133" role="graphics-symbol" aria-roledescription="circle" transform="translate(207.65475662688175,93.09162540917187)" d="M3.873,0A3.873,3.873,0,1,1,-3.873,0A3.873,3.873,0,1,1,3.873,0" fill="#4c78a8" stroke-width="2" opacity="0.7"/><path aria-label="all_draws: 0.31676982563; delta_method: 0.319044968506" role="graphics-symbol" aria-roledescription="circle" transform="translate(59.11815946555012,240.45642837008512)" d="M3.873,0A3.873,3.873,0,1,1,-3.873,0A3.873,3.873,0,1,1,3.873,0" fill="#4c78a8" stroke-width="2" opacity="0.7"/><path aria-label="all_draws: 0.230346224473; delta_method: 0.228793278708" role="graphics-symbol" aria-roledescription="circle" transform="translate(42.95844852823307,257.3319253318506)" d="M3.873,0A3.873,3.873,0,1,1,-3.873,0A3.873,3.873,0,1,1,3.873,0" fill="#4c78a8" stroke-width="2" opacity="0.7"/><path aria-label="all_draws: 0.573882938433; delta_method: 0.552110508472" role="graphics-symbol" aria-roledescription="circle" transform="translate(107.1938416342451,196.87722425371132)" d="M3.873,0A3.873,3.873,0,1,1,-3.873,0A3.873,3.873,0,1,1,3.873,0" fill="#4c78a8" stroke-width="2" opacity="0.7"/><path aria-label="all_draws: 0.204815162084; delta_method: 0.214296577362" role="graphics-symbol" aria-roledescription="circle" transform="translate(38.18458372024568,260.0425564575911)" d="M3.873,0A3.873,3.873,0,1,1,-3.873,0A3.873,3.873,0,1,1,3.873,0" fill="#4c78a8" stroke-width="2" opacity="0.7"/><path aria-label="all_draws: 0.179718259055; delta_method: 0.168994453802" role="graphics-symbol" aria-roledescription="circle" transform="translate(33.491899164879975,268.51326598336027)" d="M3.873,0A3.873,3.873,0,1,1,-3.873,0A3.873,3.873,0,1,1,3.873,0" fill="#4c78a8" stroke-width="2" opacity="0.7"/><path aria-label="all_draws: 0.511694763822; delta_method: 0.502375111238" role="graphics-symbol" aria-roledescription="circle" transform="translate(95.56573412668534,206.17687888391657)" d="M3.873,0A3.873,3.873,0,1,1,-3.873,0A3.873,3.873,0,1,1,3.873,0" fill="#4c78a8" stroke-width="2" opacity="0.7"/><path aria-label="all_draws: 0.123344158116; delta_method: 0.120877145365" role="graphics-symbol" aria-roledescription="circle" transform="translate(22.950922356099657,277.51036613912896)" d="M3.873,0A3.873,3.873,0,1,1,-3.873,0A3.873,3.873,0,1,1,3.873,0" fill="#4c78a8" stroke-width="2" opacity="0.7"/><path aria-label="all_draws: 0.0190132417832; delta_method: 0.0185702216509" role="graphics-symbol" aria-roledescription="circle" transform="translate(3.4428548006007134,296.63998226220883)" d="M3.873,0A3.873,3.873,0,1,1,-3.873,0A3.873,3.873,0,1,1,3.873,0" fill="#4c78a8" stroke-width="2" opacity="0.7"/><path aria-label="all_draws: 0.0161038004768; delta_method: 0.0161220572296" role="graphics-symbol" aria-roledescription="circle" transform="translate(2.8988398571139107,297.09774644750985)" d="M3.873,0A3.873,3.873,0,1,1,-3.873,0A3.873,3.873,0,1,1,3.873,0" fill="#4c78a8" stroke-width="2" opacity="0.7"/><path aria-label="all_draws: 0.0203040135799; delta_method: 0.020319695612" role="graphics-symbol" aria-roledescription="circle" transform="translate(3.6842066864556036,296.31286104617806)" d="M3.873,0A3.873,3.873,0,1,1,-3.873,0A3.873,3.873,0,1,1,3.873,0" fill="#4c78a8" stroke-width="2" opacity="0.7"/><path aria-label="all_draws: 0.0114603092309; delta_method: 0.0122649362978" role="graphics-symbol" aria-roledescription="circle" transform="translate(2.030587721463877,297.81896100549613)" d="M3.873,0A3.873,3.873,0,1,1,-3.873,0A3.873,3.873,0,1,1,3.873,0" fill="#4c78a8" stroke-width="2" opacity="0.7"/><path aria-label="all_draws: 0.0644126504295; delta_method: 0.0687602459968" role="graphics-symbol" aria-roledescription="circle" transform="translate(11.931754946274424,287.2553202658273)" d="M3.873,0A3.873,3.873,0,1,1,-3.873,0A3.873,3.873,0,1,1,3.873,0" fill="#4c78a8" stroke-width="2" opacity="0.7"/><path aria-label="all_draws: 0.00696716632168; delta_method: 0.00745174119276" role="graphics-symbol" aria-roledescription="circle" transform="translate(1.190448110981655,298.71894481248825)" d="M3.873,0A3.873,3.873,0,1,1,-3.873,0A3.873,3.873,0,1,1,3.873,0" fill="#4c78a8" stroke-width="2" opacity="0.7"/><path aria-label="all_draws: 0.0503731068309; delta_method: 0.0498636379706" role="graphics-symbol" aria-roledescription="circle" transform="translate(9.306604371551263,290.7886574481701)" d="M3.873,0A3.873,3.873,0,1,1,-3.873,0A3.873,3.873,0,1,1,3.873,0" fill="#4c78a8" stroke-width="2" opacity="0.7"/><path aria-label="all_draws: 0.124527890783; delta_method: 0.137185978876" role="graphics-symbol" aria-roledescription="circle" transform="translate(23.17225978558261,274.4608978024555)" d="M3.873,0A3.873,3.873,0,1,1,-3.873,0A3.873,3.873,0,1,1,3.873,0" fill="#4c78a8" stroke-width="2" opacity="0.7"/><path aria-label="all_draws: 0.0534892740814; delta_method: 0.0539007812342" role="graphics-symbol" aria-roledescription="circle" transform="translate(9.889273472668872,290.0337818438268)" d="M3.873,0A3.873,3.873,0,1,1,-3.873,0A3.873,3.873,0,1,1,3.873,0" fill="#4c78a8" stroke-width="2" opacity="0.7"/></g></g><path class="foreground" aria-hidden="true" d="" display="none"/></g></g></g></svg>