<svg xmlns="http://www.w3.org/2000/svg" xmlns:xlink="http://www.w3.org/1999/xlink" version="1.1" class="marks" width="497" height="241" viewBox="0 0 497 241"><rect width="497" height="241" fill="white"/><g fill="none" stroke-miterlimit="10" transform="translate(45,11)"><g class="mark-group role-frame root" role="graphics-object" aria-roledescription="group mark container"><g transform="translate(0,0)"><path class="background" aria-hidden="true" d="M0,0h0v150h0Z"/><g><g class="mark-group role-scope concat_0_group" role="graphics-object" aria-roledescription="group mark container"><g transform="translate(0,0)"><path class="background" aria-hidden="true" d="M0.5,0.5h120v150h-120Z" stroke="#ddd"/><g><g class="mark-group role-axis" aria-hidden="true"><g transform="translate(0.5,0.5)"><path class="background" aria-hidden="true" d="M0,0h0v0h0Z" pointer-events="none"/><g><g class="mark-rule role-axis-grid" pointer-events="none"><line transform="translate(0,150)" x2="120" y2="0" stroke="#ddd" stroke-width="1" opacity="1"/><line transform="translate(0,125)" x2="120" y2="0" stroke="#ddd" stroke-width="1" opacity="1"/><line transform="translate(0,100)" x2="120" y2="0" stroke="#ddd" stroke-width="1" opacity="1"/><line transform="translate(0,75)" x2="120" y2="0" stroke="#ddd" stroke-width="1" opacity="1"/><line transform="translate(0,50)" x2="120" y2="0" stroke="#ddd" stroke-width="1" opacity="1"/><line transform="translate(0,25)" x2="120" y2="0" stroke="#ddd" stroke-width="1" opacity="1"/><line transform="translate(0,0)" x2="120" y2="0" stroke="#ddd" stroke-width="1" opacity="1"/></g></g><path class="foreground" aria-hidden="true" d="" pointer-events="none" display="none"/></g></g><g class="mark-group role-axis" role="graphics-symbol" aria-roledescription="axis" aria-label="X-axis titled 'Cause' for a discrete scale with 4 values: All, Inj., NCD, Comm."><g transform="translate(0.5,150.5)"><path class="background" aria-hidden="true" d="M0,0h0v0h0Z" pointer-events="none"/><g><g class="mark-rule role-axis-tick" pointer-events="none"><line transform="translate(15,0)" x2="0" y2="5" stroke="#888" stroke-width="1" opacity="1"/><line transform="translate(45,0)" x2="0" y2="5" stroke="#888" stroke-width="1" opacity="1"/><line transform="translate(75,0)" x2="0" y2="5" stroke="#888" stroke-width="1" opacity="1"/><line transform="translate(105,0)" x2="0" y2="5" stroke="#888" stroke-width="1" opacity="1"/></g><g class="mark-text role-axis-label" pointer-events="none"><text text-anchor="end" transform="translate(14.5,7) rotate(270) translate(0,3)" font-family="sans-serif" font-size="10px" fill="#000" opacity="1">All</text><text text-anchor="end" transform="translate(44.5,7) rotate(270) translate(0,3)" font-family="sans-serif" font-size="10px" fill="#000" opacity="1">Inj.</text><text text-anchor="end" transform="translate(74.5,7) rotate(270) translate(0,3)" font-family="sans-serif" font-size="10px" fill="#000" opacity="1">NCD</text><text text-anchor="end" transform="translate(104.5,7) rotate(270) translate(0,3)" font-family="sans-serif" font-size="10px" fill="#000" opacity="1">Comm.</text></g><g class="mark-rule role-axis-domain" pointer-events="none"><line transform="translate(0,0)" x2="120" y2="0" stroke="#888" stroke-width="1" opacity="1"/></g><g class="mark-text role-axis-title" pointer-events="none"><text text-anchor="middle" transform="translate(60,52.2216796875)" font-family="sans-serif" font-size="11px" font-weight="bold" fill="#000" opacity="1">Cause</text></g></g><path class="foreground" aria-hidden="true" d="" pointer-events="none" display="none"/></g></g><g class="mark-group role-axis" role="graphics-symbol" aria-roledescription="axis" aria-label="Y-axis titled 'Percentage change (%)' for a linear scale with values from 0 to 120"><g transform="translate(0.5,0.5)"><path class="background" aria-hidden="true" d="M0,0h0v0h0Z" pointer-events="none"/><g><g class="mark-rule role-axis-tick" pointer-events="none"><line transform="translate(0,150)" x2="-5" y2="0" stroke="#888" stroke-width="1" opacity="1"/><line transform="translate(0,125)" x2="-5" y2="0" stroke="#888" stroke-width="1" opacity="1"/><line transform="translate(0,100)" x2="-5" y2="0" stroke="#888" stroke-width="1" opacity="1"/><line transform="translate(0,75)" x2="-5" y2="0" stroke="#888" stroke-width="1" opacity="1"/><line transform="translate(0,50)" x2="-5" y2="0" stroke="#888" stroke-width="1" opacity="1"/><line transform="translate(0,25)" x2="-5" y2="0" stroke="#888" stroke-width="1" opacity="1"/><line transform="translate(0,0)" x2="-5" y2="0" stroke="#888" stroke-width="1" opacity="1"/></g><g class="mark-text role-axis-label" pointer-events="none"><text text-anchor="end" transform="translate(-7,153)" font-family="sans-serif" font-size="10px" fill="#000" opacity="1">0</text><text text-anchor="end" transform="translate(-7,128)" font-family="sans-serif" font-size="10px" fill="#000" opacity="1">20</text><text text-anchor="end" transform="translate(-7,103.00000000000001)" font-family="sans-serif" font-size="10px" fill="#000" opacity="1">40</text><text text-anchor="end" transform="translate(-7,78)" font-family="sans-serif" font-size="10px" fill="#000" opacity="1">60</text><text text-anchor="end" transform="translate(-7,53.00000000000001)" font-family="sans-serif" font-size="10px" fill="#000" opacity="1">80</text><text text-anchor="end" transform="translate(-7,27.999999999999993)" font-family="sans-serif" font-size="10px" fill="#000" opacity="1">100</text><text text-anchor="end" transform="translate(-7,3)" font-family="sans-serif" font-size="10px" fill="#000" opacity="1">120</text></g><g class="mark-rule role-axis-domain" pointer-events="none"><line transform="translate(0,150)" x2="0" y2="-150" stroke="#888" stroke-width="1" opacity="1"/></g><g class="mark-text role-axis-title" pointer-events="none"><text text-anchor="middle" transform="translate(-27.6845703125,75) rotate(-90) translate(0,-2)" font-family="sans-serif" font-size="11px" font-weight="bold" fill="#000" opacity="1">Percentage change (%)</text></g></g><path class="foreground" aria-hidden="true" d="" pointer-events="none" display="none"/></g></g><g class="mark-symbol role-mark concat_0_layer_0_layer_0_marks" role="graphics-object" aria-roledescription="symbol mark container"><path aria-label="cause: Comm.; Percentage change (%): 19.5011245184" role="graphics-symbol" aria-roledescription="point" transform="translate(105,125.62359435200379)" d="M2.739,0A2.739,2.739,0,1,1,-2.739,0A2.739,2.739,0,1,1,2.739,0" stroke="#4c78a8" stroke-width="2" opacity="0.7"/></g><g class="mark-rule role-mark concat_0_layer_0_layer_1_layer_0_marks" aria-hidden="true"><line transform="translate(15,114.36477158946246)" x2="0" y2="-18.444032624979414" stroke="black"/><line transform="translate(105,149.9143828135022)" x2="0" y2="-5.458658088225462" stroke="black"/><line transform="translate(45,149.89999044353948)" x2="0" y2="-8.596298709299617" stroke="black"/><line transform="translate(75,50.13464434783579)" x2="0" y2="-13.628229787477629" stroke="black"/></g><g class="mark-rule role-mark concat_0_layer_0_layer_1_layer_1_marks" aria-hidden="true"><line transform="translate(15,83.27845074811322)" x2="0" y2="-7.697850240008563" stroke="black"/><line transform="translate(105,138.18612500482078)" x2="0" y2="-2.5938904381824273" stroke="black"/><line transform="translate(45,128.676270222147)" x2="0" y2="-17.560450859965343" stroke="black"/><line transform="translate(75,25.412781292593618)" x2="0" y2="-14.062308026115678" stroke="black"/></g><g class="mark-rect role-mark concat_0_layer_1_layer_0_marks" role="graphics-object" aria-roledescription="rect mark container"><path aria-label="cause: All; Percentage change (%): 43.2634088284; upper_box_Percentage change (%): 53.3772394015; Max of Percentage change (%): 59.5355195935; Q3 of Percentage change (%): 53.3772394015; Median of Percentage change (%): 49.8605762471; Q1 of Percentage change (%): 43.2634088284; Min of Percentage change (%): 28.5081827284" role="graphics-symbol" aria-roledescription="box" d="M8,83.27845074811322h14v12.642288216369835h-14Z" fill="#4c78a8"/><path aria-label="cause: Comm.; Percentage change (%): 4.43542021978; upper_box_Percentage change (%): 9.45109999614; Max of Percentage change (%): 19.5011245184; Q3 of Percentage change (%): 9.45109999614; Median of Percentage change (%): 7.61148583835; Q1 of Percentage change (%): 4.43542021978; Min of Percentage change (%): 0.0684937491983" role="graphics-symbol" aria-roledescription="box" d="M98,138.18612500482078h14v6.269599720455943h-14Z" fill="#4c78a8"/><path aria-label="cause: Inj.; Percentage change (%): 6.95704661261; upper_box_Percentage change (%): 17.0589838223; Max of Percentage change (%): 31.1073445103; Q3 of Percentage change (%): 17.0589838223; Median of Percentage change (%): 10.0761611424; Q1 of Percentage change (%): 6.95704661261; Min of Percentage change (%): 0.0800076451684" role="graphics-symbol" aria-roledescription="box" d="M38,128.676270222147h14v12.627421512092866h-14Z" fill="#4c78a8"/><path aria-label="cause: NCD; Percentage change (%): 90.7948683517; upper_box_Percentage change (%): 99.6697749659; Max of Percentage change (%): 110.919621387; Q3 of Percentage change (%): 99.6697749659; Median of Percentage change (%): 97.277246697; Q1 of Percentage change (%): 90.7948683517; Min of Percentage change (%): 79.8922845217" role="graphics-symbol" aria-roledescription="box" d="M68,25.412781292593618h14v11.093633267764542h-14Z" fill="#4c78a8"/></g><g class="mark-rect role-mark concat_0_layer_1_layer_1_marks" aria-hidden="true"><path d="M8,87.17427969118548h14v1h-14Z" fill="white" opacity="0.7"/><path d="M98,139.98564270206492h14v1h-14Z" fill="white" opacity="0.7"/><path d="M38,136.90479857201055h14v1h-14Z" fill="white" opacity="0.7"/><path d="M68,27.903441628768494h14v1h-14Z" fill="white" opacity="0.7"/></g></g><path class="foreground" aria-hidden="true" d="" display="none"/></g></g><g class="mark-group role-scope concat_1_group" role="graphics-object" aria-roledescription="group mark container"><g transform="translate(148,0)"><path class="background" aria-hidden="true" d="M0.5,0.5h180v150h-180Z" stroke="#ddd"/><g><g class="mark-group role-axis" aria-hidden="true"><g transform="translate(0.5,0.5)"><path class="background" aria-hidden="true" d="M0,0h0v0h0Z" pointer-events="none"/><g><g class="mark-rule role-axis-grid" pointer-events="none"><line transform="translate(0,150)" x2="180" y2="0" stroke="#ddd" stroke-width="1" opacity="1"/><line transform="translate(0,125)" x2="180" y2="0" stroke="#ddd" stroke-width="1" opacity="1"/><line transform="translate(0,100)" x2="180" y2="0" stroke="#ddd" stroke-width="1" opacity="1"/><line transform="translate(0,75)" x2="180" y2="0" stroke="#ddd" stroke-width="1" opacity="1"/><line transform="translate(0,50)" x2="180" y2="0" stroke="#ddd" stroke-width="1" opacity="1"/><line transform="translate(0,25)" x2="180" y2="0" stroke="#ddd" stroke-width="1" opacity="1"/><line transform="translate(0,0)" x2="180" y2="0" stroke="#ddd" stroke-width="1" opacity="1"/></g></g><path class="foreground" aria-hidden="true" d="" pointer-events="none" display="none"/></g></g><g class="mark-group role-axis" role="graphics-symbol" aria-roledescription="axis" aria-label="X-axis titled 'Race' for a discrete scale with 6 values: All, White, Hisp., Black, API, AIAN"><g transform="translate(0.5,150.5)"><path class="background" aria-hidden="true" d="M0,0h0v0h0Z" pointer-events="none"/><g><g class="mark-rule role-axis-tick" pointer-events="none"><line transform="translate(15,0)" x2="0" y2="5" stroke="#888" stroke-width="1" opacity="1"/><line transform="translate(45,0)" x2="0" y2="5" stroke="#888" stroke-width="1" opacity="1"/><line transform="translate(75,0)" x2="0" y2="5" stroke="#888" stroke-width="1" opacity="1"/><line transform="translate(105,0)" x2="0" y2="5" stroke="#888" stroke-width="1" opacity="1"/><line transform="translate(135,0)" x2="0" y2="5" stroke="#888" stroke-width="1" opacity="1"/><line transform="translate(165,0)" x2="0" y2="5" stroke="#888" stroke-width="1" opacity="1"/></g><g class="mark-text role-axis-label" pointer-events="none"><text text-anchor="end" transform="translate(14.5,7) rotate(270) translate(0,3)" font-family="sans-serif" font-size="10px" fill="#000" opacity="1">All</text><text text-anchor="end" transform="translate(44.5,7) rotate(270) translate(0,3)" font-family="sans-serif" font-size="10px" fill="#000" opacity="1">White</text><text text-anchor="end" transform="translate(74.5,7) rotate(270) translate(0,3)" font-family="sans-serif" font-size="10px" fill="#000" opacity="1">Hisp.</text><text text-anchor="end" transform="translate(104.5,7) rotate(270) translate(0,3)" font-family="sans-serif" font-size="10px" fill="#000" opacity="1">Black</text><text text-anchor="end" transform="translate(134.5,7) rotate(270) translate(0,3)" font-family="sans-serif" font-size="10px" fill="#000" opacity="1">API</text><text text-anchor="end" transform="translate(164.5,7) rotate(270) translate(0,3)" font-family="sans-serif" font-size="10px" fill="#000" opacity="1">AIAN</text></g><g class="mark-rule role-axis-domain" pointer-events="none"><line transform="translate(0,0)" x2="180" y2="0" stroke="#888" stroke-width="1" opacity="1"/></g><g class="mark-text role-axis-title" pointer-events="none"><text text-anchor="middle" transform="translate(90,45.5615234375)" font-family="sans-serif" font-size="11px" font-weight="bold" fill="#000" opacity="1">Race</text></g></g><path class="foreground" aria-hidden="true" d="" pointer-events="none" display="none"/></g></g><g class="mark-group role-axis" role="graphics-symbol" aria-roledescription="axis" aria-label="Y-axis for a linear scale with values from 0 to 120"><g transform="translate(0.5,0.5)"><path class="background" aria-hidden="true" d="M0,0h0v0h0Z" pointer-events="none"/><g><g class="mark-rule role-axis-tick" pointer-events="none"><line transform="translate(0,150)" x2="-5" y2="0" stroke="#888" stroke-width="1" opacity="1"/><line transform="translate(0,125)" x2="-5" y2="0" stroke="#888" stroke-width="1" opacity="1"/><line transform="translate(0,100)" x2="-5" y2="0" stroke="#888" stroke-width="1" opacity="1"/><line transform="translate(0,75)" x2="-5" y2="0" stroke="#888" stroke-width="1" opacity="1"/><line transform="translate(0,50)" x2="-5" y2="0" stroke="#888" stroke-width="1" opacity="1"/><line transform="translate(0,25)" x2="-5" y2="0" stroke="#888" stroke-width="1" opacity="1"/><line transform="translate(0,0)" x2="-5" y2="0" stroke="#888" stroke-width="1" opacity="1"/></g><g class="mark-rule role-axis-domain" pointer-events="none"><line transform="translate(0,150)" x2="0" y2="-150" stroke="#888" stroke-width="1" opacity="1"/></g></g><path class="foreground" aria-hidden="true" d="" pointer-events="none" display="none"/></g></g><g class="mark-symbol role-mark concat_1_layer_0_layer_0_marks" role="graphics-object" aria-roledescription="symbol mark container"><path aria-label="race: AIAN; Percentage change (%): 110.919621387" role="graphics-symbol" aria-roledescription="point" transform="translate(165,11.35047326647794)" d="M2.739,0A2.739,2.739,0,1,1,-2.739,0A2.739,2.739,0,1,1,2.739,0" stroke="#4c78a8" stroke-width="2" opacity="0.7"/></g><g class="mark-rule role-mark concat_1_layer_0_layer_1_layer_0_marks" aria-hidden="true"><line transform="translate(15,147.97743061757112)" x2="0" y2="-12.5885077815623" stroke="black"/><line transform="translate(45,144.17728344075923)" x2="0" y2="-3.6770455478171016" stroke="black"/><line transform="translate(105,149.9143828135022)" x2="0" y2="-11.255480952312752" stroke="black"/><line transform="translate(165,146.77934249043918)" x2="0" y2="-20.424662011706175" stroke="black"/><line transform="translate(135,144.7496096068313)" x2="0" y2="-3.87516249714551" stroke="black"/><line transform="translate(75,149.89999044353948)" x2="0" y2="-10.368354253881904" stroke="black"/></g><g class="mark-rule role-mark concat_1_layer_0_layer_1_layer_1_marks" aria-hidden="true"><line transform="translate(15,66.4864092804451)" x2="0" y2="-42.08849118490267" stroke="black"/><line transform="translate(45,73.51163590509785)" x2="0" y2="-42.59713299500743" stroke="black"/><line transform="translate(105,76.65204650767072)" x2="0" y2="-50.981725008951585" stroke="black"/><line transform="translate(165,81.37601107167292)" x2="0" y2="-63.45349567036007" stroke="black"/><line transform="translate(135,71.79430188639151)" x2="0" y2="-40.34471577132783" stroke="black"/><line transform="translate(75,69.21911146803745)" x2="0" y2="-42.25588249602309" stroke="black"/></g><g class="mark-rect role-mark concat_1_layer_1_layer_0_marks" role="graphics-object" aria-roledescription="rect mark container"><path aria-label="race: All; Percentage change (%): 11.6888617312; upper_box_Percentage change (%): 66.8108725756; Max of Percentage change (%): 100.481665524; Q3 of Percentage change (%): 66.8108725756; Median of Percentage change (%): 35.9879358369; Q1 of Percentage change (%): 11.6888617312; Min of Percentage change (%): 1.61805550594" role="graphics-symbol" aria-roledescription="box" d="M8,66.4864092804451h14v68.90251355556371h-14Z" fill="#4c78a8"/><path aria-label="race: White; Percentage change (%): 7.59980968565; upper_box_Percentage change (%): 61.1906912759; Max of Percentage change (%): 95.2683976719; Q3 of Percentage change (%): 61.1906912759; Median of Percentage change (%): 29.0276486019; Q1 of Percentage change (%): 7.59980968565; Min of Percentage change (%): 4.65817324739" role="graphics-symbol" aria-roledescription="box" d="M38,73.51163590509785h14v66.98860198784428h-14Z" fill="#4c78a8"/><path aria-label="race: Black; Percentage change (%): 9.07287851105; upper_box_Percentage change (%): 58.6783627939; Max of Percentage change (%): 99.463742801; Q3 of Percentage change (%): 58.6783627939; Median of Percentage change (%): 29.415995227; Q1 of Percentage change (%): 9.07287851105; Min of Percentage change (%): 0.0684937491983" role="graphics-symbol" aria-roledescription="box" d="M98,76.65204650767072h14v62.006855353518716h-14Z" fill="#4c78a8"/><path aria-label="race: AIAN; Percentage change (%): 18.916255617; upper_box_Percentage change (%): 54.8991911427; Max of Percentage change (%): 110.919621387; Q3 of Percentage change (%): 54.8991911427; Median of Percentage change (%): 29.8077636193; Q1 of Percentage change (%): 18.916255617; Min of Percentage change (%): 2.57652600765" role="graphics-symbol" aria-roledescription="box" d="M158,81.37601107167292h14v44.97866940706008h-14Z" fill="#4c78a8"/><path aria-label="race: API; Percentage change (%): 7.30044231225; upper_box_Percentage change (%): 62.5645584909; Max of Percentage change (%): 94.8403311079; Q3 of Percentage change (%): 62.5645584909; Median of Percentage change (%): 29.7363790602; Q1 of Percentage change (%): 7.30044231225; Min of Percentage change (%): 4.20031231453" role="graphics-symbol" aria-roledescription="box" d="M128,71.79430188639151h14v69.0801452232943h-14Z" fill="#4c78a8"/><path aria-label="race: Hisp.; Percentage change (%): 8.37469104827; upper_box_Percentage change (%): 64.6247108256; Max of Percentage change (%): 98.4294168224; Q3 of Percentage change (%): 64.6247108256; Median of Percentage change (%): 28.8557180841; Q1 of Percentage change (%): 8.37469104827; Min of Percentage change (%): 0.0800076451684" role="graphics-symbol" aria-roledescription="box" d="M68,69.21911146803745h14v70.31252472162012h-14Z" fill="#4c78a8"/></g><g class="mark-rect role-mark concat_1_layer_1_layer_1_marks" aria-hidden="true"><path d="M8,104.51508020385782h14v1h-14Z" fill="white" opacity="0.7"/><path d="M38,113.21543924766914h14v1h-14Z" fill="white" opacity="0.7"/><path d="M98,112.73000596624658h14v1h-14Z" fill="white" opacity="0.7"/><path d="M158,112.24029547582205h14v1h-14Z" fill="white" opacity="0.7"/><path d="M128,112.32952617478203h14v1h-14Z" fill="white" opacity="0.7"/><path d="M68,113.4303523948156h14v1h-14Z" fill="white" opacity="0.7"/></g></g><path class="foreground" aria-hidden="true" d="" display="none"/></g></g><g class="mark-group role-scope concat_2_group" role="graphics-object" aria-roledescription="group mark container"><g transform="translate(356,0)"><path class="background" aria-hidden="true" d="M0.5,0.5h90v150h-90Z" stroke="#ddd"/><g><g class="mark-group role-axis" aria-hidden="true"><g transform="translate(0.5,0.5)"><path class="background" aria-hidden="true" d="M0,0h0v0h0Z" pointer-events="none"/><g><g class="mark-rule role-axis-grid" pointer-events="none"><line transform="translate(0,150)" x2="90" y2="0" stroke="#ddd" stroke-width="1" opacity="1"/><line transform="translate(0,125)" x2="90" y2="0" stroke="#ddd" stroke-width="1" opacity="1"/><line transform="translate(0,100)" x2="90" y2="0" stroke="#ddd" stroke-width="1" opacity="1"/><line transform="translate(0,75)" x2="90" y2="0" stroke="#ddd" stroke-width="1" opacity="1"/><line transform="translate(0,50)" x2="90" y2="0" stroke="#ddd" stroke-width="1" opacity="1"/><line transform="translate(0,25)" x2="90" y2="0" stroke="#ddd" stroke-width="1" opacity="1"/><line transform="translate(0,0)" x2="90" y2="0" stroke="#ddd" stroke-width="1" opacity="1"/></g></g><path class="foreground" aria-hidden="true" d="" pointer-events="none" display="none"/></g></g><g class="mark-group role-axis" role="graphics-symbol" aria-roledescription="axis" aria-label="X-axis titled 'County' for a discrete scale with 3 values: New Castle, Kent, Sussex"><g transform="translate(0.5,150.5)"><path class="background" aria-hidden="true" d="M0,0h0v0h0Z" pointer-events="none"/><g><g class="mark-rule role-axis-tick" pointer-events="none"><line transform="translate(15,0)" x2="0" y2="5" stroke="#888" stroke-width="1" opacity="1"/><line transform="translate(45,0)" x2="0" y2="5" stroke="#888" stroke-width="1" opacity="1"/><line transform="translate(75,0)" x2="0" y2="5" stroke="#888" stroke-width="1" opacity="1"/></g><g class="mark-text role-axis-label" pointer-events="none"><text text-anchor="end" transform="translate(14.5,7) rotate(270) translate(0,3)" font-family="sans-serif" font-size="10px" fill="#000" opacity="1">New Castle</text><text text-anchor="end" transform="translate(44.5,7) rotate(270) translate(0,3)" font-family="sans-serif" font-size="10px" fill="#000" opacity="1">Kent</text><text text-anchor="end" transform="translate(74.5,7) rotate(270) translate(0,3)" font-family="sans-serif" font-size="10px" fill="#000" opacity="1">Sussex</text></g><g class="mark-rule role-axis-domain" pointer-events="none"><line transform="translate(0,0)" x2="90" y2="0" stroke="#888" stroke-width="1" opacity="1"/></g><g class="mark-text role-axis-title" pointer-events="none"><text text-anchor="middle" transform="translate(45,71.1279296875)" font-family="sans-serif" font-size="11px" font-weight="bold" fill="#000" opacity="1">County</text></g></g><path class="foreground" aria-hidden="true" d="" pointer-events="none" display="none"/></g></g><g class="mark-group role-axis" role="graphics-symbol" aria-roledescription="axis" aria-label="Y-axis for a linear scale with values from 0 to 120"><g transform="translate(0.5,0.5)"><path class="background" aria-hidden="true" d="M0,0h0v0h0Z" pointer-events="none"/><g><g class="mark-rule role-axis-tick" pointer-events="none"><line transform="translate(0,150)" x2="-5" y2="0" stroke="#888" stroke-width="1" opacity="1"/><line transform="translate(0,125)" x2="-5" y2="0" stroke="#888" stroke-width="1" opacity="1"/><line transform="translate(0,100)" x2="-5" y2="0" stroke="#888" stroke-width="1" opacity="1"/><line transform="translate(0,75)" x2="-5" y2="0" stroke="#888" stroke-width="1" opacity="1"/><line transform="translate(0,50)" x2="-5" y2="0" stroke="#888" stroke-width="1" opacity="1"/><line transform="translate(0,25)" x2="-5" y2="0" stroke="#888" stroke-width="1" opacity="1"/><line transform="translate(0,0)" x2="-5" y2="0" stroke="#888" stroke-width="1" opacity="1"/></g><g class="mark-rule role-axis-domain" pointer-events="none"><line transform="translate(0,150)" x2="0" y2="-150" stroke="#888" stroke-width="1" opacity="1"/></g></g><path class="foreground" aria-hidden="true" d="" pointer-events="none" display="none"/></g></g><g class="mark-symbol role-mark concat_2_layer_0_layer_0_marks" role="graphics-symbol" aria-roledescription="symbol mark container"/><g class="mark-rule role-mark concat_2_layer_0_layer_1_layer_0_marks" aria-hidden="true"><line transform="translate(45,149.9143828135022)" x2="0" y2="-10.706663248147777" stroke="black"/><line transform="translate(15,146.77934249043918)" x2="0" y2="-6.951984893385827" stroke="black"/><line transform="translate(75,149.89999044353948)" x2="0" y2="-9.014293498674874" stroke="black"/></g><g class="mark-rule role-mark concat_2_layer_0_layer_1_layer_1_marks" aria-hidden="true"><line transform="translate(45,71.16354602257583)" x2="0" y2="-49.58705311696714" stroke="black"/><line transform="translate(15,70.09943493132275)" x2="0" y2="-52.1769195300099" stroke="black"/><line transform="translate(75,69.21911146803745)" x2="0" y2="-57.86863820155951" stroke="black"/></g><g class="mark-rect role-mark concat_2_layer_1_layer_0_marks" role="graphics-object" aria-roledescription="rect mark container"><path aria-label="county: Kent; Percentage change (%): 8.63382434772; upper_box_Percentage change (%): 63.0691631819; Max of Percentage change (%): 102.738805676; Q3 of Percentage change (%): 63.0691631819; Median of Percentage change (%): 29.177488827; Q1 of Percentage change (%): 8.63382434772; Min of Percentage change (%): 0.0684937491983" role="graphics-symbol" aria-roledescription="box" d="M38,71.16354602257583h14v68.04417354277858h-14Z" fill="#4c78a8"/><path aria-label="county: New Castle; Percentage change (%): 8.13811392236; upper_box_Percentage change (%): 63.9204520549; Max of Percentage change (%): 105.661987679; Q3 of Percentage change (%): 63.9204520549; Median of Percentage change (%): 28.6573494675; Q1 of Percentage change (%): 8.13811392236; Min of Percentage change (%): 2.57652600765" role="graphics-symbol" aria-roledescription="box" d="M8,70.09943493132275h14v69.7279226657306h-14Z" fill="#4c78a8"/><path aria-label="county: Sussex; Percentage change (%): 7.29144244411; upper_box_Percentage change (%): 64.6247108256; Max of Percentage change (%): 110.919621387; Q3 of Percentage change (%): 64.6247108256; Median of Percentage change (%): 29.8077636193; Q1 of Percentage change (%): 7.29144244411; Min of Percentage change (%): 0.0800076451684" role="graphics-symbol" aria-roledescription="box" d="M68,69.21911146803745h14v71.66658547682715h-14Z" fill="#4c78a8"/></g><g class="mark-rect role-mark concat_2_layer_1_layer_1_marks" aria-hidden="true"><path d="M38,113.02813896629029h14v1h-14Z" fill="white" opacity="0.7"/><path d="M8,113.6783131656671h14v1h-14Z" fill="white" opacity="0.7"/><path d="M68,112.24029547582205h14v1h-14Z" fill="white" opacity="0.7"/></g></g><path class="foreground" aria-hidden="true" d="" display="none"/></g></g></g><path class="foreground" aria-hidden="true" d="" display="none"/></g></g></g></svg>